<?xml version="1.0" encoding="UTF-8" standalone="no"?>
<!DOCTYPE svg PUBLIC "-//W3C//DTD SVG 1.1//EN"
 "http://www.w3.org/Graphics/SVG/1.1/DTD/svg11.dtd">
<!-- Generated by graphviz version 2.40.1 (20161225.0304)
 -->
<!-- Title: System/include/BipedalLocomotion/System/Advanceable.h Pages: 1 -->
<svg width="2167pt" height="273pt"
 viewBox="0.00 0.00 2167.00 273.00" xmlns="http://www.w3.org/2000/svg" xmlns:xlink="http://www.w3.org/1999/xlink">
<g id="graph0" class="graph" transform="scale(1 1) rotate(0) translate(4 269)">
<title>System/include/BipedalLocomotion/System/Advanceable.h</title>
<!-- Node1 -->
<g id="node1" class="node">
<title>Node1</title>
<polygon fill="#bfbfbf" stroke="#000000" points="1303.5,-234.5 1303.5,-264.5 1473.5,-264.5 1473.5,-234.5 1303.5,-234.5"/>
<text text-anchor="start" x="1311.5" y="-252.5" font-family="Helvetica,sans-Serif" font-size="10.00" fill="#000000">System/include/BipedalLocomotion</text>
<text text-anchor="middle" x="1388.5" y="-241.5" font-family="Helvetica,sans-Serif" font-size="10.00" fill="#000000">/System/Advanceable.h</text>
</g>
<!-- Node2 -->
<g id="node2" class="node">
<title>Node2</title>
<g id="a_node2"><a xlink:href="ContactDetector_8h.html" target="_top" xlink:title="Contacts/include/Bipedal\lLocomotion/ContactDetectors\l/ContactDetector.h">
<polygon fill="none" stroke="#000000" points="175,-156.5 175,-197.5 322,-197.5 322,-156.5 175,-156.5"/>
<text text-anchor="start" x="183" y="-185.5" font-family="Helvetica,sans-Serif" font-size="10.00" fill="#000000">Contacts/include/Bipedal</text>
<text text-anchor="start" x="183" y="-174.5" font-family="Helvetica,sans-Serif" font-size="10.00" fill="#000000">Locomotion/ContactDetectors</text>
<text text-anchor="middle" x="248.5" y="-163.5" font-family="Helvetica,sans-Serif" font-size="10.00" fill="#000000">/ContactDetector.h</text>
</a>
</g>
</g>
<!-- Node1&#45;&gt;Node2 -->
<g id="edge1" class="edge">
<title>Node1&#45;&gt;Node2</title>
<path fill="none" stroke="#191970" d="M1293.2581,-246.7421C1118.8584,-241.1844 736.6074,-226.6497 415.5,-198 384.9389,-195.2733 351.3534,-191.2506 322.3656,-187.4536"/>
<polygon fill="#191970" stroke="#191970" points="1293.3252,-250.2459 1303.4308,-247.0636 1293.5464,-243.2494 1293.3252,-250.2459"/>
</g>
<!-- Node6 -->
<g id="node6" class="node">
<title>Node6</title>
<g id="a_node6"><a xlink:href="RecursiveLeastSquare_8h.html" target="_top" xlink:title="Estimators/include\l/BipedalLocomotion/Estimators\l/RecursiveLeastSquare.h">
<polygon fill="none" stroke="#000000" points="424.5,-156.5 424.5,-197.5 576.5,-197.5 576.5,-156.5 424.5,-156.5"/>
<text text-anchor="start" x="432.5" y="-185.5" font-family="Helvetica,sans-Serif" font-size="10.00" fill="#000000">Estimators/include</text>
<text text-anchor="start" x="432.5" y="-174.5" font-family="Helvetica,sans-Serif" font-size="10.00" fill="#000000">/BipedalLocomotion/Estimators</text>
<text text-anchor="middle" x="500.5" y="-163.5" font-family="Helvetica,sans-Serif" font-size="10.00" fill="#000000">/RecursiveLeastSquare.h</text>
</a>
</g>
</g>
<!-- Node1&#45;&gt;Node6 -->
<g id="edge5" class="edge">
<title>Node1&#45;&gt;Node6</title>
<path fill="none" stroke="#191970" d="M1293.1163,-241.8464C1168.7147,-231.8483 944.3204,-213.7588 752.5,-198 693.4318,-193.1473 626.583,-187.5728 576.5861,-183.3872"/>
<polygon fill="#191970" stroke="#191970" points="1293.1198,-245.3579 1303.368,-242.6702 1293.6805,-238.3803 1293.1198,-245.3579"/>
</g>
<!-- Node8 -->
<g id="node8" class="node">
<title>Node8</title>
<g id="a_node8"><a xlink:href="FloatingBaseEstimator_8h.html" target="_top" xlink:title="Estimators/include\l/BipedalLocomotion/Floating\lBaseEstimators/FloatingBaseEstimator.h">
<polygon fill="none" stroke="#000000" points="762,-156.5 762,-197.5 959,-197.5 959,-156.5 762,-156.5"/>
<text text-anchor="start" x="770" y="-185.5" font-family="Helvetica,sans-Serif" font-size="10.00" fill="#000000">Estimators/include</text>
<text text-anchor="start" x="770" y="-174.5" font-family="Helvetica,sans-Serif" font-size="10.00" fill="#000000">/BipedalLocomotion/Floating</text>
<text text-anchor="middle" x="860.5" y="-163.5" font-family="Helvetica,sans-Serif" font-size="10.00" fill="#000000">BaseEstimators/FloatingBaseEstimator.h</text>
</a>
</g>
</g>
<!-- Node1&#45;&gt;Node8 -->
<g id="edge7" class="edge">
<title>Node1&#45;&gt;Node8</title>
<path fill="none" stroke="#191970" d="M1293.2617,-236.4228C1198.9009,-223.466 1055.0143,-203.7089 959.3977,-190.5797"/>
<polygon fill="#191970" stroke="#191970" points="1292.9913,-239.9184 1303.3744,-237.8114 1293.9435,-232.9835 1292.9913,-239.9184"/>
</g>
<!-- Node14 -->
<g id="node14" class="node">
<title>Node14</title>
<g id="a_node14"><a xlink:href="DCMPlanner_8h.html" target="_top" xlink:title="Planners/include/Bipedal\lLocomotion/Planners/DCMPlanner.h">
<polygon fill="none" stroke="#000000" points="1203.5,-162 1203.5,-192 1379.5,-192 1379.5,-162 1203.5,-162"/>
<text text-anchor="start" x="1211.5" y="-180" font-family="Helvetica,sans-Serif" font-size="10.00" fill="#000000">Planners/include/Bipedal</text>
<text text-anchor="middle" x="1291.5" y="-169" font-family="Helvetica,sans-Serif" font-size="10.00" fill="#000000">Locomotion/Planners/DCMPlanner.h</text>
</a>
</g>
</g>
<!-- Node1&#45;&gt;Node14 -->
<g id="edge13" class="edge">
<title>Node1&#45;&gt;Node14</title>
<path fill="none" stroke="#191970" d="M1360.1457,-228.3074C1344.5659,-216.6627 1325.6131,-202.4969 1311.5727,-192.0028"/>
<polygon fill="#191970" stroke="#191970" points="1358.2962,-231.2946 1368.4015,-234.478 1362.487,-225.6877 1358.2962,-231.2946"/>
</g>
<!-- Node18 -->
<g id="node18" class="node">
<title>Node18</title>
<g id="a_node18"><a xlink:href="QuinticSpline_8h.html" target="_top" xlink:title="Planners/include/Bipedal\lLocomotion/Planners/QuinticSpline.h">
<polygon fill="none" stroke="#000000" points="1403,-162 1403,-192 1580,-192 1580,-162 1403,-162"/>
<text text-anchor="start" x="1411" y="-180" font-family="Helvetica,sans-Serif" font-size="10.00" fill="#000000">Planners/include/Bipedal</text>
<text text-anchor="middle" x="1491.5" y="-169" font-family="Helvetica,sans-Serif" font-size="10.00" fill="#000000">Locomotion/Planners/QuinticSpline.h</text>
</a>
</g>
</g>
<!-- Node1&#45;&gt;Node18 -->
<g id="edge17" class="edge">
<title>Node1&#45;&gt;Node18</title>
<path fill="none" stroke="#191970" d="M1418.1495,-228.6302C1434.7785,-216.9253 1455.1387,-202.5941 1470.1857,-192.0028"/>
<polygon fill="#191970" stroke="#191970" points="1416.0045,-225.8599 1409.8417,-234.478 1420.0336,-231.5841 1416.0045,-225.8599"/>
</g>
<!-- Node19 -->
<g id="node19" class="node">
<title>Node19</title>
<g id="a_node19"><a xlink:href="SwingFootPlanner_8h.html" target="_top" xlink:title="Planners/include/Bipedal\lLocomotion/Planners/SwingFoot\lPlanner.h">
<polygon fill="none" stroke="#000000" points="1591.5,-73 1591.5,-114 1749.5,-114 1749.5,-73 1591.5,-73"/>
<text text-anchor="start" x="1599.5" y="-102" font-family="Helvetica,sans-Serif" font-size="10.00" fill="#000000">Planners/include/Bipedal</text>
<text text-anchor="start" x="1599.5" y="-91" font-family="Helvetica,sans-Serif" font-size="10.00" fill="#000000">Locomotion/Planners/SwingFoot</text>
<text text-anchor="middle" x="1670.5" y="-80" font-family="Helvetica,sans-Serif" font-size="10.00" fill="#000000">Planner.h</text>
</a>
</g>
</g>
<!-- Node1&#45;&gt;Node19 -->
<g id="edge26" class="edge">
<title>Node1&#45;&gt;Node19</title>
<path fill="none" stroke="#191970" d="M1483.9875,-238.0136C1518.9432,-230.5543 1557.4927,-218.2594 1588.5,-198 1621.1264,-176.6828 1646.4119,-137.9692 1659.83,-114.1181"/>
<polygon fill="#191970" stroke="#191970" points="1482.8591,-234.6709 1473.7516,-240.0842 1484.2471,-241.5319 1482.8591,-234.6709"/>
</g>
<!-- Node22 -->
<g id="node22" class="node">
<title>Node22</title>
<g id="a_node22"><a xlink:href="SO3Planner_8h.html" target="_top" xlink:title="Planners/include/Bipedal\lLocomotion/Planners/SO3Planner.h">
<polygon fill="none" stroke="#000000" points="1723.5,-162 1723.5,-192 1895.5,-192 1895.5,-162 1723.5,-162"/>
<text text-anchor="start" x="1731.5" y="-180" font-family="Helvetica,sans-Serif" font-size="10.00" fill="#000000">Planners/include/Bipedal</text>
<text text-anchor="middle" x="1809.5" y="-169" font-family="Helvetica,sans-Serif" font-size="10.00" fill="#000000">Locomotion/Planners/SO3Planner.h</text>
</a>
</g>
</g>
<!-- Node1&#45;&gt;Node22 -->
<g id="edge22" class="edge">
<title>Node1&#45;&gt;Node22</title>
<path fill="none" stroke="#191970" d="M1483.6746,-233.1101C1555.6594,-220.7136 1653.671,-203.8352 1723.3481,-191.8361"/>
<polygon fill="#191970" stroke="#191970" points="1482.9566,-229.6821 1473.6956,-234.8285 1484.1446,-236.5806 1482.9566,-229.6821"/>
</g>
<!-- Node24 -->
<g id="node24" class="node">
<title>Node24</title>
<g id="a_node24"><a xlink:href="YarpSensorBridge_8h.html" target="_top" xlink:title="RobotInterface/YarpImplementation\l/include/BipedalLocomotion\l/RobotInterface/YarpSensorBridge.h">
<polygon fill="none" stroke="#000000" points="1954.5,-156.5 1954.5,-197.5 2128.5,-197.5 2128.5,-156.5 1954.5,-156.5"/>
<text text-anchor="start" x="1962.5" y="-185.5" font-family="Helvetica,sans-Serif" font-size="10.00" fill="#000000">RobotInterface/YarpImplementation</text>
<text text-anchor="start" x="1962.5" y="-174.5" font-family="Helvetica,sans-Serif" font-size="10.00" fill="#000000">/include/BipedalLocomotion</text>
<text text-anchor="middle" x="2041.5" y="-163.5" font-family="Helvetica,sans-Serif" font-size="10.00" fill="#000000">/RobotInterface/YarpSensorBridge.h</text>
</a>
</g>
</g>
<!-- Node1&#45;&gt;Node24 -->
<g id="edge27" class="edge">
<title>Node1&#45;&gt;Node24</title>
<path fill="none" stroke="#191970" d="M1483.701,-241.51C1587.3727,-232.4566 1757.9864,-216.5276 1904.5,-198 1920.6139,-195.9623 1937.7548,-193.5392 1954.261,-191.0756"/>
<polygon fill="#191970" stroke="#191970" points="1483.2293,-238.0377 1473.5703,-242.3914 1483.8361,-245.0113 1483.2293,-238.0377"/>
</g>
<!-- Node3 -->
<g id="node3" class="node">
<title>Node3</title>
<g id="a_node3"><a xlink:href="SchmittTriggerDetector_8h.html" target="_top" xlink:title="Contacts/include/Bipedal\lLocomotion/ContactDetectors\l/SchmittTriggerDetector.h">
<polygon fill="none" stroke="#000000" points="0,-73 0,-114 147,-114 147,-73 0,-73"/>
<text text-anchor="start" x="8" y="-102" font-family="Helvetica,sans-Serif" font-size="10.00" fill="#000000">Contacts/include/Bipedal</text>
<text text-anchor="start" x="8" y="-91" font-family="Helvetica,sans-Serif" font-size="10.00" fill="#000000">Locomotion/ContactDetectors</text>
<text text-anchor="middle" x="73.5" y="-80" font-family="Helvetica,sans-Serif" font-size="10.00" fill="#000000">/SchmittTriggerDetector.h</text>
</a>
</g>
</g>
<!-- Node2&#45;&gt;Node3 -->
<g id="edge2" class="edge">
<title>Node2&#45;&gt;Node3</title>
<path fill="none" stroke="#191970" d="M196.1199,-152.0072C170.7257,-139.8906 140.5998,-125.5162 116.5637,-114.0476"/>
<polygon fill="#191970" stroke="#191970" points="194.709,-155.212 205.2416,-156.3595 197.7235,-148.8943 194.709,-155.212"/>
</g>
<!-- Node5 -->
<g id="node5" class="node">
<title>Node5</title>
<g id="a_node5"><a xlink:href="ContactDetector_8cpp.html" target="_top" xlink:title="Contacts/src/ContactDetector.cpp">
<polygon fill="none" stroke="#000000" points="165,-84 165,-103 332,-103 332,-84 165,-84"/>
<text text-anchor="middle" x="248.5" y="-91" font-family="Helvetica,sans-Serif" font-size="10.00" fill="#000000">Contacts/src/ContactDetector.cpp</text>
</a>
</g>
</g>
<!-- Node2&#45;&gt;Node5 -->
<g id="edge4" class="edge">
<title>Node2&#45;&gt;Node5</title>
<path fill="none" stroke="#191970" d="M248.5,-146.2393C248.5,-130.9749 248.5,-113.6004 248.5,-103.0989"/>
<polygon fill="#191970" stroke="#191970" points="245.0001,-146.3595 248.5,-156.3595 252.0001,-146.3596 245.0001,-146.3595"/>
</g>
<!-- Node4 -->
<g id="node4" class="node">
<title>Node4</title>
<g id="a_node4"><a xlink:href="SchmittTriggerDetector_8cpp.html" target="_top" xlink:title="Contacts/src/SchmittTrigger\lDetector.cpp">
<polygon fill="none" stroke="#000000" points="3.5,-.5 3.5,-30.5 143.5,-30.5 143.5,-.5 3.5,-.5"/>
<text text-anchor="start" x="11.5" y="-18.5" font-family="Helvetica,sans-Serif" font-size="10.00" fill="#000000">Contacts/src/SchmittTrigger</text>
<text text-anchor="middle" x="73.5" y="-7.5" font-family="Helvetica,sans-Serif" font-size="10.00" fill="#000000">Detector.cpp</text>
</a>
</g>
</g>
<!-- Node3&#45;&gt;Node4 -->
<g id="edge3" class="edge">
<title>Node3&#45;&gt;Node4</title>
<path fill="none" stroke="#191970" d="M73.5,-62.5187C73.5,-51.6033 73.5,-39.8119 73.5,-30.7679"/>
<polygon fill="#191970" stroke="#191970" points="70.0001,-62.5974 73.5,-72.5974 77.0001,-62.5975 70.0001,-62.5974"/>
</g>
<!-- Node7 -->
<g id="node7" class="node">
<title>Node7</title>
<g id="a_node7"><a xlink:href="RecursiveLeastSquare_8cpp.html" target="_top" xlink:title="Estimators/src/Recursive\lLeastSquare.cpp">
<polygon fill="none" stroke="#000000" points="350.5,-78.5 350.5,-108.5 478.5,-108.5 478.5,-78.5 350.5,-78.5"/>
<text text-anchor="start" x="358.5" y="-96.5" font-family="Helvetica,sans-Serif" font-size="10.00" fill="#000000">Estimators/src/Recursive</text>
<text text-anchor="middle" x="414.5" y="-85.5" font-family="Helvetica,sans-Serif" font-size="10.00" fill="#000000">LeastSquare.cpp</text>
</a>
</g>
</g>
<!-- Node6&#45;&gt;Node7 -->
<g id="edge6" class="edge">
<title>Node6&#45;&gt;Node7</title>
<path fill="none" stroke="#191970" d="M471.7889,-149.1236C457.8796,-135.6186 441.7197,-119.9284 430.116,-108.6621"/>
<polygon fill="#191970" stroke="#191970" points="469.6288,-151.9046 479.2416,-156.3595 474.5051,-146.8824 469.6288,-151.9046"/>
</g>
<!-- Node9 -->
<g id="node9" class="node">
<title>Node9</title>
<g id="a_node9"><a xlink:href="InvariantEKFBaseEstimator_8h.html" target="_top" xlink:title="Estimators/include\l/BipedalLocomotion/Floating\lBaseEstimators/InvariantEKFBase\lEstimator.h">
<polygon fill="none" stroke="#000000" points="497,-67.5 497,-119.5 666,-119.5 666,-67.5 497,-67.5"/>
<text text-anchor="start" x="505" y="-107.5" font-family="Helvetica,sans-Serif" font-size="10.00" fill="#000000">Estimators/include</text>
<text text-anchor="start" x="505" y="-96.5" font-family="Helvetica,sans-Serif" font-size="10.00" fill="#000000">/BipedalLocomotion/Floating</text>
<text text-anchor="start" x="505" y="-85.5" font-family="Helvetica,sans-Serif" font-size="10.00" fill="#000000">BaseEstimators/InvariantEKFBase</text>
<text text-anchor="middle" x="581.5" y="-74.5" font-family="Helvetica,sans-Serif" font-size="10.00" fill="#000000">Estimator.h</text>
</a>
</g>
</g>
<!-- Node8&#45;&gt;Node9 -->
<g id="edge8" class="edge">
<title>Node8&#45;&gt;Node9</title>
<path fill="none" stroke="#191970" d="M781.8944,-153.4747C745.7749,-142.6647 702.8789,-129.8267 666.06,-118.8074"/>
<polygon fill="#191970" stroke="#191970" points="781.3079,-156.9525 791.8916,-156.4667 783.315,-150.2464 781.3079,-156.9525"/>
</g>
<!-- Node11 -->
<g id="node11" class="node">
<title>Node11</title>
<g id="a_node11"><a xlink:href="LeggedOdometry_8h.html" target="_top" xlink:title="Estimators/include\l/BipedalLocomotion/Floating\lBaseEstimators/LeggedOdometry.h">
<polygon fill="none" stroke="#000000" points="684.5,-73 684.5,-114 856.5,-114 856.5,-73 684.5,-73"/>
<text text-anchor="start" x="692.5" y="-102" font-family="Helvetica,sans-Serif" font-size="10.00" fill="#000000">Estimators/include</text>
<text text-anchor="start" x="692.5" y="-91" font-family="Helvetica,sans-Serif" font-size="10.00" fill="#000000">/BipedalLocomotion/Floating</text>
<text text-anchor="middle" x="770.5" y="-80" font-family="Helvetica,sans-Serif" font-size="10.00" fill="#000000">BaseEstimators/LeggedOdometry.h</text>
</a>
</g>
</g>
<!-- Node8&#45;&gt;Node11 -->
<g id="edge10" class="edge">
<title>Node8&#45;&gt;Node11</title>
<path fill="none" stroke="#191970" d="M830.8072,-149.4517C818.421,-137.9601 804.2784,-124.8388 792.8032,-114.1924"/>
<polygon fill="#191970" stroke="#191970" points="828.5414,-152.1239 838.2528,-156.3595 833.3024,-146.9923 828.5414,-152.1239"/>
</g>
<!-- Node13 -->
<g id="node13" class="node">
<title>Node13</title>
<g id="a_node13"><a xlink:href="FloatingBaseEstimator_8cpp.html" target="_top" xlink:title="Estimators/src/FloatingBase\lEstimator.cpp">
<polygon fill="none" stroke="#000000" points="874.5,-78.5 874.5,-108.5 1014.5,-108.5 1014.5,-78.5 874.5,-78.5"/>
<text text-anchor="start" x="882.5" y="-96.5" font-family="Helvetica,sans-Serif" font-size="10.00" fill="#000000">Estimators/src/FloatingBase</text>
<text text-anchor="middle" x="944.5" y="-85.5" font-family="Helvetica,sans-Serif" font-size="10.00" fill="#000000">Estimator.cpp</text>
</a>
</g>
</g>
<!-- Node8&#45;&gt;Node13 -->
<g id="edge12" class="edge">
<title>Node8&#45;&gt;Node13</title>
<path fill="none" stroke="#191970" d="M888.5434,-149.1236C902.1292,-135.6186 917.9133,-119.9284 929.2471,-108.6621"/>
<polygon fill="#191970" stroke="#191970" points="885.8887,-146.8273 881.2641,-156.3595 890.8237,-151.7918 885.8887,-146.8273"/>
</g>
<!-- Node10 -->
<g id="node10" class="node">
<title>Node10</title>
<g id="a_node10"><a xlink:href="InvariantEKFBaseEstimator_8cpp.html" target="_top" xlink:title="Estimators/src/Invariant\lEKFBaseEstimator.cpp">
<polygon fill="none" stroke="#000000" points="521,-.5 521,-30.5 642,-30.5 642,-.5 521,-.5"/>
<text text-anchor="start" x="529" y="-18.5" font-family="Helvetica,sans-Serif" font-size="10.00" fill="#000000">Estimators/src/Invariant</text>
<text text-anchor="middle" x="581.5" y="-7.5" font-family="Helvetica,sans-Serif" font-size="10.00" fill="#000000">EKFBaseEstimator.cpp</text>
</a>
</g>
</g>
<!-- Node9&#45;&gt;Node10 -->
<g id="edge9" class="edge">
<title>Node9&#45;&gt;Node10</title>
<path fill="none" stroke="#191970" d="M581.5,-57.0863C581.5,-47.6965 581.5,-38.1059 581.5,-30.5046"/>
<polygon fill="#191970" stroke="#191970" points="578.0001,-57.0927 581.5,-67.0928 585.0001,-57.0928 578.0001,-57.0927"/>
</g>
<!-- Node12 -->
<g id="node12" class="node">
<title>Node12</title>
<g id="a_node12"><a xlink:href="LeggedOdometry_8cpp.html" target="_top" xlink:title="Estimators/src/LeggedOdometry.cpp">
<polygon fill="none" stroke="#000000" points="682.5,-6 682.5,-25 858.5,-25 858.5,-6 682.5,-6"/>
<text text-anchor="middle" x="770.5" y="-13" font-family="Helvetica,sans-Serif" font-size="10.00" fill="#000000">Estimators/src/LeggedOdometry.cpp</text>
</a>
</g>
</g>
<!-- Node11&#45;&gt;Node12 -->
<g id="edge11" class="edge">
<title>Node11&#45;&gt;Node12</title>
<path fill="none" stroke="#191970" d="M770.5,-62.3707C770.5,-49.1273 770.5,-34.6205 770.5,-25.3072"/>
<polygon fill="#191970" stroke="#191970" points="767.0001,-62.5974 770.5,-72.5974 774.0001,-62.5975 767.0001,-62.5974"/>
</g>
<!-- Node15 -->
<g id="node15" class="node">
<title>Node15</title>
<g id="a_node15"><a xlink:href="TimeVaryingDCMPlanner_8h.html" target="_top" xlink:title="Planners/include/Bipedal\lLocomotion/Planners/TimeVarying\lDCMPlanner.h">
<polygon fill="none" stroke="#000000" points="1032.5,-73 1032.5,-114 1198.5,-114 1198.5,-73 1032.5,-73"/>
<text text-anchor="start" x="1040.5" y="-102" font-family="Helvetica,sans-Serif" font-size="10.00" fill="#000000">Planners/include/Bipedal</text>
<text text-anchor="start" x="1040.5" y="-91" font-family="Helvetica,sans-Serif" font-size="10.00" fill="#000000">Locomotion/Planners/TimeVarying</text>
<text text-anchor="middle" x="1115.5" y="-80" font-family="Helvetica,sans-Serif" font-size="10.00" fill="#000000">DCMPlanner.h</text>
</a>
</g>
</g>
<!-- Node14&#45;&gt;Node15 -->
<g id="edge14" class="edge">
<title>Node14&#45;&gt;Node15</title>
<path fill="none" stroke="#191970" d="M1250.2811,-157.4444C1222.7644,-144.3896 1186.6441,-127.253 1158.7226,-114.0062"/>
<polygon fill="#191970" stroke="#191970" points="1249.0927,-160.7545 1259.6277,-161.8788 1252.0932,-154.4302 1249.0927,-160.7545"/>
</g>
<!-- Node17 -->
<g id="node17" class="node">
<title>Node17</title>
<g id="a_node17"><a xlink:href="DCMPlanner_8cpp.html" target="_top" xlink:title="Planners/src/DCMPlanner.cpp">
<polygon fill="none" stroke="#000000" points="1217,-84 1217,-103 1366,-103 1366,-84 1217,-84"/>
<text text-anchor="middle" x="1291.5" y="-91" font-family="Helvetica,sans-Serif" font-size="10.00" fill="#000000">Planners/src/DCMPlanner.cpp</text>
</a>
</g>
</g>
<!-- Node14&#45;&gt;Node17 -->
<g id="edge16" class="edge">
<title>Node14&#45;&gt;Node17</title>
<path fill="none" stroke="#191970" d="M1291.5,-151.6022C1291.5,-135.1775 1291.5,-114.7426 1291.5,-103.0023"/>
<polygon fill="#191970" stroke="#191970" points="1288.0001,-151.6848 1291.5,-161.6848 1295.0001,-151.6848 1288.0001,-151.6848"/>
</g>
<!-- Node16 -->
<g id="node16" class="node">
<title>Node16</title>
<g id="a_node16"><a xlink:href="TimeVaryingDCMPlanner_8cpp.html" target="_top" xlink:title="Planners/src/TimeVarying\lDCMPlanner.cpp">
<polygon fill="none" stroke="#000000" points="1190,-.5 1190,-30.5 1319,-30.5 1319,-.5 1190,-.5"/>
<text text-anchor="start" x="1198" y="-18.5" font-family="Helvetica,sans-Serif" font-size="10.00" fill="#000000">Planners/src/TimeVarying</text>
<text text-anchor="middle" x="1254.5" y="-7.5" font-family="Helvetica,sans-Serif" font-size="10.00" fill="#000000">DCMPlanner.cpp</text>
</a>
</g>
</g>
<!-- Node15&#45;&gt;Node16 -->
<g id="edge15" class="edge">
<title>Node15&#45;&gt;Node16</title>
<path fill="none" stroke="#191970" d="M1161.2341,-67.8363C1183.2065,-55.5064 1208.7818,-41.1548 1227.5874,-30.602"/>
<polygon fill="#191970" stroke="#191970" points="1159.3925,-64.8562 1152.3845,-72.8022 1162.8181,-70.9608 1159.3925,-64.8562"/>
</g>
<!-- Node18&#45;&gt;Node16 -->
<g id="edge21" class="edge">
<title>Node18&#45;&gt;Node16</title>
<path fill="none" stroke="#191970" d="M1457.9884,-156.3634C1443.1737,-146.3801 1426.0756,-133.6162 1412.5,-120 1392.0356,-99.4743 1397.0907,-85.1593 1374.5,-67 1354.3564,-50.8077 1328.3568,-38.8241 1305.7113,-30.5117"/>
<polygon fill="#191970" stroke="#191970" points="1456.1267,-159.3282 1466.4033,-161.9055 1459.977,-153.4821 1456.1267,-159.3282"/>
</g>
<!-- Node18&#45;&gt;Node19 -->
<g id="edge18" class="edge">
<title>Node18&#45;&gt;Node19</title>
<path fill="none" stroke="#191970" d="M1533.0554,-157.6152C1561.0862,-144.5394 1598.0192,-127.3109 1626.5407,-114.0062"/>
<polygon fill="#191970" stroke="#191970" points="1531.4984,-154.4794 1523.9155,-161.8788 1534.4577,-160.8231 1531.4984,-154.4794"/>
</g>
<!-- Node21 -->
<g id="node21" class="node">
<title>Node21</title>
<g id="a_node21"><a xlink:href="QuinticSpline_8cpp.html" target="_top" xlink:title="Planners/src/QuinticSpline.cpp">
<polygon fill="none" stroke="#000000" points="1422,-84 1422,-103 1573,-103 1573,-84 1422,-84"/>
<text text-anchor="middle" x="1497.5" y="-91" font-family="Helvetica,sans-Serif" font-size="10.00" fill="#000000">Planners/src/QuinticSpline.cpp</text>
</a>
</g>
</g>
<!-- Node18&#45;&gt;Node21 -->
<g id="edge20" class="edge">
<title>Node18&#45;&gt;Node21</title>
<path fill="none" stroke="#191970" d="M1493.325,-151.6022C1494.5052,-135.1775 1495.9736,-114.7426 1496.8172,-103.0023"/>
<polygon fill="#191970" stroke="#191970" points="1489.8263,-151.4596 1492.6005,-161.6848 1496.8083,-151.9614 1489.8263,-151.4596"/>
</g>
<!-- Node20 -->
<g id="node20" class="node">
<title>Node20</title>
<g id="a_node20"><a xlink:href="SwingFootPlanner_8cpp.html" target="_top" xlink:title="Planners/src/SwingFootPlanner.cpp">
<polygon fill="none" stroke="#000000" points="1584,-6 1584,-25 1757,-25 1757,-6 1584,-6"/>
<text text-anchor="middle" x="1670.5" y="-13" font-family="Helvetica,sans-Serif" font-size="10.00" fill="#000000">Planners/src/SwingFootPlanner.cpp</text>
</a>
</g>
</g>
<!-- Node19&#45;&gt;Node20 -->
<g id="edge19" class="edge">
<title>Node19&#45;&gt;Node20</title>
<path fill="none" stroke="#191970" d="M1670.5,-62.3707C1670.5,-49.1273 1670.5,-34.6205 1670.5,-25.3072"/>
<polygon fill="#191970" stroke="#191970" points="1667.0001,-62.5974 1670.5,-72.5974 1674.0001,-62.5975 1667.0001,-62.5974"/>
</g>
<!-- Node22&#45;&gt;Node19 -->
<g id="edge25" class="edge">
<title>Node22&#45;&gt;Node19</title>
<path fill="none" stroke="#191970" d="M1775.5134,-156.5836C1753.9719,-143.6432 1726.2062,-126.9638 1704.636,-114.0062"/>
<polygon fill="#191970" stroke="#191970" points="1773.9536,-159.7295 1784.3281,-161.8788 1777.5583,-153.729 1773.9536,-159.7295"/>
</g>
<!-- Node23 -->
<g id="node23" class="node">
<title>Node23</title>
<g id="a_node23"><a xlink:href="SO3Planner_8tpp.html" target="_top" xlink:title="Planners/include/Bipedal\lLocomotion/Planners/SO3Planner.tpp">
<polygon fill="none" stroke="#000000" points="1767.5,-78.5 1767.5,-108.5 1947.5,-108.5 1947.5,-78.5 1767.5,-78.5"/>
<text text-anchor="start" x="1775.5" y="-96.5" font-family="Helvetica,sans-Serif" font-size="10.00" fill="#000000">Planners/include/Bipedal</text>
<text text-anchor="middle" x="1857.5" y="-85.5" font-family="Helvetica,sans-Serif" font-size="10.00" fill="#000000">Locomotion/Planners/SO3Planner.tpp</text>
</a>
</g>
</g>
<!-- Node22&#45;&gt;Node23 -->
<g id="edge23" class="edge">
<title>Node22&#45;&gt;Node23</title>
<path fill="none" stroke="#191970" d="M1817.3794,-152.4903C1824.5868,-138.3186 1834.8675,-120.932 1843.3998,-108.7181"/>
<polygon fill="#191970" stroke="#191970" points="1814.1362,-151.1577 1812.9399,-161.6848 1820.4399,-154.2014 1814.1362,-151.1577"/>
</g>
<!-- Node23&#45;&gt;Node22 -->
<g id="edge24" class="edge">
<title>Node23&#45;&gt;Node22</title>
<path fill="none" stroke="#191970" d="M1849.6778,-117.8972C1842.4867,-132.0518 1832.2095,-149.4436 1823.668,-161.6848"/>
<polygon fill="#191970" stroke="#191970" points="1852.9131,-119.2458 1854.104,-108.7181 1846.6079,-116.2054 1852.9131,-119.2458"/>
</g>
<!-- Node25 -->
<g id="node25" class="node">
<title>Node25</title>
<g id="a_node25"><a xlink:href="YarpSensorBridgeImpl_8h.html" target="_top" xlink:title="RobotInterface/YarpImplementation\l/include/BipedalLocomotion\l/RobotInterface/YarpSensorBridgeImpl.h">
<polygon fill="none" stroke="#000000" points="1966,-73 1966,-114 2159,-114 2159,-73 1966,-73"/>
<text text-anchor="start" x="1974" y="-102" font-family="Helvetica,sans-Serif" font-size="10.00" fill="#000000">RobotInterface/YarpImplementation</text>
<text text-anchor="start" x="1974" y="-91" font-family="Helvetica,sans-Serif" font-size="10.00" fill="#000000">/include/BipedalLocomotion</text>
<text text-anchor="middle" x="2062.5" y="-80" font-family="Helvetica,sans-Serif" font-size="10.00" fill="#000000">/RobotInterface/YarpSensorBridgeImpl.h</text>
</a>
</g>
</g>
<!-- Node24&#45;&gt;Node25 -->
<g id="edge28" class="edge">
<title>Node24&#45;&gt;Node25</title>
<path fill="none" stroke="#191970" d="M2049.1727,-146.4918C2051.8743,-135.7498 2054.8457,-123.9349 2057.2959,-114.1924"/>
<polygon fill="#191970" stroke="#191970" points="2045.7358,-145.8079 2046.691,-156.3595 2052.5244,-147.5152 2045.7358,-145.8079"/>
</g>
<!-- Node26 -->
<g id="node26" class="node">
<title>Node26</title>
<g id="a_node26"><a xlink:href="YarpSensorBridge_8cpp.html" target="_top" xlink:title="RobotInterface/YarpImplementation\l/src/YarpSensorBridge.cpp">
<polygon fill="none" stroke="#000000" points="1977,-.5 1977,-30.5 2148,-30.5 2148,-.5 1977,-.5"/>
<text text-anchor="start" x="1985" y="-18.5" font-family="Helvetica,sans-Serif" font-size="10.00" fill="#000000">RobotInterface/YarpImplementation</text>
<text text-anchor="middle" x="2062.5" y="-7.5" font-family="Helvetica,sans-Serif" font-size="10.00" fill="#000000">/src/YarpSensorBridge.cpp</text>
</a>
</g>
</g>
<!-- Node25&#45;&gt;Node26 -->
<g id="edge29" class="edge">
<title>Node25&#45;&gt;Node26</title>
<path fill="none" stroke="#191970" d="M2062.5,-62.5187C2062.5,-51.6033 2062.5,-39.8119 2062.5,-30.7679"/>
<polygon fill="#191970" stroke="#191970" points="2059.0001,-62.5974 2062.5,-72.5974 2066.0001,-62.5975 2059.0001,-62.5974"/>
</g>
</g>
</svg>
