<?xml version="1.0" encoding="UTF-8" standalone="no"?>
<!DOCTYPE svg PUBLIC "-//W3C//DTD SVG 1.1//EN"
 "http://www.w3.org/Graphics/SVG/1.1/DTD/svg11.dtd">
<!-- Generated by graphviz version 2.40.1 (20161225.0304)
 -->
<!-- Title: TSID/include/BipedalLocomotion/TSID/BaseDynamicsTask.h Pages: 1 -->
<svg width="807pt" height="363pt"
 viewBox="0.00 0.00 806.50 363.00" xmlns="http://www.w3.org/2000/svg" xmlns:xlink="http://www.w3.org/1999/xlink">
<g id="graph0" class="graph" transform="scale(1 1) rotate(0) translate(4 359)">
<title>TSID/include/BipedalLocomotion/TSID/BaseDynamicsTask.h</title>
<!-- Node0 -->
<g id="node1" class="node">
<title>Node0</title>
<polygon fill="#bfbfbf" stroke="#000000" points="187.5029,-324.5 187.5029,-354.5 346.5029,-354.5 346.5029,-324.5 187.5029,-324.5"/>
<text text-anchor="start" x="195.5029" y="-342.5" font-family="Helvetica,sans-Serif" font-size="10.00" fill="#000000">TSID/include/BipedalLocomotion</text>
<text text-anchor="middle" x="267.0029" y="-331.5" font-family="Helvetica,sans-Serif" font-size="10.00" fill="#000000">/TSID/BaseDynamicsTask.h</text>
</g>
<!-- Node1 -->
<g id="node2" class="node">
<title>Node1</title>
<g id="a_node2"><a xlink:href="Task_8h.html" target="_top" xlink:title="BipedalLocomotion/TSID\l/Task.h">
<polygon fill="none" stroke="#000000" points="204.5029,-257.5 204.5029,-287.5 329.5029,-287.5 329.5029,-257.5 204.5029,-257.5"/>
<text text-anchor="start" x="212.5029" y="-275.5" font-family="Helvetica,sans-Serif" font-size="10.00" fill="#000000">BipedalLocomotion/TSID</text>
<text text-anchor="middle" x="267.0029" y="-264.5" font-family="Helvetica,sans-Serif" font-size="10.00" fill="#000000">/Task.h</text>
</a>
</g>
</g>
<!-- Node0&#45;&gt;Node1 -->
<g id="edge1" class="edge">
<title>Node0&#45;&gt;Node1</title>
<path fill="none" stroke="#191970" d="M267.0029,-324.2967C267.0029,-316.5013 267.0029,-306.7991 267.0029,-297.9064"/>
<polygon fill="#191970" stroke="#191970" points="270.503,-297.6431 267.0029,-287.6432 263.503,-297.6432 270.503,-297.6431"/>
</g>
<!-- Node2 -->
<g id="node3" class="node">
<title>Node2</title>
<polygon fill="none" stroke="#bfbfbf" points="191.0029,-62 191.0029,-81 243.0029,-81 243.0029,-62 191.0029,-62"/>
<text text-anchor="middle" x="217.0029" y="-69" font-family="Helvetica,sans-Serif" font-size="10.00" fill="#000000">memory</text>
</g>
<!-- Node1&#45;&gt;Node2 -->
<g id="edge2" class="edge">
<title>Node1&#45;&gt;Node2</title>
<path fill="none" stroke="#191970" d="M204.3272,-268.7126C136.8212,-263.1711 35.849,-250.1435 12.0029,-221 -43.0321,-153.7389 108.5256,-101.3551 180.9266,-80.8678"/>
<polygon fill="#191970" stroke="#191970" points="182.2969,-84.1201 191.0003,-78.0785 180.429,-77.3739 182.2969,-84.1201"/>
</g>
<!-- Node3 -->
<g id="node4" class="node">
<title>Node3</title>
<polygon fill="none" stroke="#bfbfbf" points="21.5029,-196 21.5029,-215 94.5029,-215 94.5029,-196 21.5029,-196"/>
<text text-anchor="middle" x="58.0029" y="-203" font-family="Helvetica,sans-Serif" font-size="10.00" fill="#000000">Eigen/Dense</text>
</g>
<!-- Node1&#45;&gt;Node3 -->
<g id="edge3" class="edge">
<title>Node1&#45;&gt;Node3</title>
<path fill="none" stroke="#191970" d="M218.4257,-257.4168C185.9768,-247.2763 142.3719,-233.5244 104.0029,-221 101.2991,-220.1174 98.5087,-219.1981 95.7015,-218.2672"/>
<polygon fill="#191970" stroke="#191970" points="96.7879,-214.9401 86.1942,-215.0934 94.5713,-221.5799 96.7879,-214.9401"/>
</g>
<!-- Node4 -->
<g id="node5" class="node">
<title>Node4</title>
<polygon fill="none" stroke="#bfbfbf" points="113.0029,-196 113.0029,-215 253.0029,-215 253.0029,-196 113.0029,-196"/>
<text text-anchor="middle" x="183.0029" y="-203" font-family="Helvetica,sans-Serif" font-size="10.00" fill="#000000">iDynTree/Core/MatrixView.h</text>
</g>
<!-- Node1&#45;&gt;Node4 -->
<g id="edge4" class="edge">
<title>Node1&#45;&gt;Node4</title>
<path fill="none" stroke="#191970" d="M247.942,-257.2967C234.4733,-246.5537 216.4644,-232.1895 202.8281,-221.3129"/>
<polygon fill="#191970" stroke="#191970" points="204.9826,-218.5544 194.9823,-215.055 200.6176,-224.0268 204.9826,-218.5544"/>
</g>
<!-- Node5 -->
<g id="node6" class="node">
<title>Node5</title>
<polygon fill="none" stroke="#bfbfbf" points="271.5029,-196 271.5029,-215 432.5029,-215 432.5029,-196 271.5029,-196"/>
<text text-anchor="middle" x="352.0029" y="-203" font-family="Helvetica,sans-Serif" font-size="10.00" fill="#000000">iDynTree/KinDynComputations.h</text>
</g>
<!-- Node1&#45;&gt;Node5 -->
<g id="edge5" class="edge">
<title>Node1&#45;&gt;Node5</title>
<path fill="none" stroke="#191970" d="M286.2908,-257.2967C299.9199,-246.5537 318.1431,-232.1895 331.9418,-221.3129"/>
<polygon fill="#191970" stroke="#191970" points="334.1941,-223.9942 339.881,-215.055 329.8607,-218.4967 334.1941,-223.9942"/>
</g>
<!-- Node6 -->
<g id="node7" class="node">
<title>Node6</title>
<g id="a_node7"><a xlink:href="IParametersHandler_8h.html" target="_top" xlink:title="BipedalLocomotion/Parameters\lHandler/IParametersHandler.h">
<polygon fill="none" stroke="#000000" points="451.0029,-190.5 451.0029,-220.5 603.0029,-220.5 603.0029,-190.5 451.0029,-190.5"/>
<text text-anchor="start" x="459.0029" y="-208.5" font-family="Helvetica,sans-Serif" font-size="10.00" fill="#000000">BipedalLocomotion/Parameters</text>
<text text-anchor="middle" x="527.0029" y="-197.5" font-family="Helvetica,sans-Serif" font-size="10.00" fill="#000000">Handler/IParametersHandler.h</text>
</a>
</g>
</g>
<!-- Node1&#45;&gt;Node6 -->
<g id="edge6" class="edge">
<title>Node1&#45;&gt;Node6</title>
<path fill="none" stroke="#191970" d="M325.352,-257.4639C364.8553,-247.2842 417.1952,-233.7966 458.6511,-223.1138"/>
<polygon fill="#191970" stroke="#191970" points="459.5891,-226.4864 468.3994,-220.6017 457.8423,-219.7079 459.5891,-226.4864"/>
</g>
<!-- Node18 -->
<g id="node19" class="node">
<title>Node18</title>
<g id="a_node19"><a xlink:href="VariablesHandler_8h.html" target="_top" xlink:title="BipedalLocomotion/System\l/VariablesHandler.h">
<polygon fill="none" stroke="#000000" points="621.0029,-190.5 621.0029,-220.5 757.0029,-220.5 757.0029,-190.5 621.0029,-190.5"/>
<text text-anchor="start" x="629.0029" y="-208.5" font-family="Helvetica,sans-Serif" font-size="10.00" fill="#000000">BipedalLocomotion/System</text>
<text text-anchor="middle" x="689.0029" y="-197.5" font-family="Helvetica,sans-Serif" font-size="10.00" fill="#000000">/VariablesHandler.h</text>
</a>
</g>
</g>
<!-- Node1&#45;&gt;Node18 -->
<g id="edge21" class="edge">
<title>Node1&#45;&gt;Node18</title>
<path fill="none" stroke="#191970" d="M329.796,-264.0966C396.8928,-254.8986 506.605,-239.2325 610.5622,-221.2068"/>
<polygon fill="#191970" stroke="#191970" points="611.3533,-224.6217 620.603,-219.4551 610.1502,-217.7259 611.3533,-224.6217"/>
</g>
<!-- Node6&#45;&gt;Node2 -->
<g id="edge7" class="edge">
<title>Node6&#45;&gt;Node2</title>
<path fill="none" stroke="#191970" d="M463.9591,-190.4505C431.0911,-181.629 390.6317,-169.2193 356.0029,-154 312.5687,-134.9107 265.8791,-105.0529 239.1777,-86.9757"/>
<polygon fill="#191970" stroke="#191970" points="240.8342,-83.8683 230.6048,-81.1098 236.8813,-89.6454 240.8342,-83.8683"/>
</g>
<!-- Node7 -->
<g id="node8" class="node">
<title>Node7</title>
<polygon fill="none" stroke="#bfbfbf" points="619.5029,-129 619.5029,-148 660.5029,-148 660.5029,-129 619.5029,-129"/>
<text text-anchor="middle" x="640.0029" y="-136" font-family="Helvetica,sans-Serif" font-size="10.00" fill="#000000">string</text>
</g>
<!-- Node6&#45;&gt;Node7 -->
<g id="edge8" class="edge">
<title>Node6&#45;&gt;Node7</title>
<path fill="none" stroke="#191970" d="M552.3623,-190.4639C571.0661,-179.3741 596.391,-164.3584 615.008,-153.32"/>
<polygon fill="#191970" stroke="#191970" points="616.9886,-156.2147 623.8053,-148.1039 613.4185,-150.1935 616.9886,-156.2147"/>
</g>
<!-- Node8 -->
<g id="node9" class="node">
<title>Node8</title>
<polygon fill="none" stroke="#bfbfbf" points="365.0029,-129 365.0029,-148 409.0029,-148 409.0029,-129 365.0029,-129"/>
<text text-anchor="middle" x="387.0029" y="-136" font-family="Helvetica,sans-Serif" font-size="10.00" fill="#000000">vector</text>
</g>
<!-- Node6&#45;&gt;Node8 -->
<g id="edge9" class="edge">
<title>Node6&#45;&gt;Node8</title>
<path fill="none" stroke="#191970" d="M494.4801,-190.3647C472.7649,-180.2022 443.6021,-166.4454 418.0029,-154 417.0289,-153.5264 416.0385,-153.0428 415.039,-152.553"/>
<polygon fill="#191970" stroke="#191970" points="416.5025,-149.3722 405.9873,-148.0757 413.399,-155.6466 416.5025,-149.3722"/>
</g>
<!-- Node9 -->
<g id="node10" class="node">
<title>Node9</title>
<g id="a_node10"><a xlink:href="Vector_8h_source.html" target="_top" xlink:title="BipedalLocomotion/Generic\lContainer/Vector.h">
<polygon fill="none" stroke="#000000" points="427.0029,-123.5 427.0029,-153.5 563.0029,-153.5 563.0029,-123.5 427.0029,-123.5"/>
<text text-anchor="start" x="435.0029" y="-141.5" font-family="Helvetica,sans-Serif" font-size="10.00" fill="#000000">BipedalLocomotion/Generic</text>
<text text-anchor="middle" x="495.0029" y="-130.5" font-family="Helvetica,sans-Serif" font-size="10.00" fill="#000000">Container/Vector.h</text>
</a>
</g>
</g>
<!-- Node6&#45;&gt;Node9 -->
<g id="edge10" class="edge">
<title>Node6&#45;&gt;Node9</title>
<path fill="none" stroke="#191970" d="M519.7416,-190.2967C515.8548,-182.1586 510.9755,-171.9425 506.5796,-162.7386"/>
<polygon fill="#191970" stroke="#191970" points="509.7036,-161.1584 502.2355,-153.6432 503.3871,-164.1752 509.7036,-161.1584"/>
</g>
<!-- Node11 -->
<g id="node12" class="node">
<title>Node11</title>
<g id="a_node12"><a xlink:href="TemplateHelpers_8h_source.html" target="_top" xlink:title="BipedalLocomotion/Generic\lContainer/TemplateHelpers.h">
<polygon fill="none" stroke="#000000" points="610.0029,-56.5 610.0029,-86.5 754.0029,-86.5 754.0029,-56.5 610.0029,-56.5"/>
<text text-anchor="start" x="618.0029" y="-74.5" font-family="Helvetica,sans-Serif" font-size="10.00" fill="#000000">BipedalLocomotion/Generic</text>
<text text-anchor="middle" x="682.0029" y="-63.5" font-family="Helvetica,sans-Serif" font-size="10.00" fill="#000000">Container/TemplateHelpers.h</text>
</a>
</g>
</g>
<!-- Node6&#45;&gt;Node11 -->
<g id="edge20" class="edge">
<title>Node6&#45;&gt;Node11</title>
<path fill="none" stroke="#191970" d="M540.7265,-190.4602C556.6631,-173.3359 584.088,-144.9006 610.0029,-123 622.6875,-112.2803 637.4926,-101.434 650.3678,-92.4782"/>
<polygon fill="#191970" stroke="#191970" points="652.6599,-95.1501 658.9232,-86.6048 648.698,-89.3791 652.6599,-95.1501"/>
</g>
<!-- Node9&#45;&gt;Node2 -->
<g id="edge19" class="edge">
<title>Node9&#45;&gt;Node2</title>
<path fill="none" stroke="#191970" d="M426.9831,-124.4464C358.0729,-110.1535 260.4271,-89.7252 252.0029,-87 250.106,-86.3864 248.1731,-85.7037 246.2386,-84.9766"/>
<polygon fill="#191970" stroke="#191970" points="247.2936,-81.6268 236.7126,-81.0847 244.6461,-88.1069 247.2936,-81.6268"/>
</g>
<!-- Node10 -->
<g id="node11" class="node">
<title>Node10</title>
<polygon fill="none" stroke="#bfbfbf" points="261.0029,-62 261.0029,-81 375.0029,-81 375.0029,-62 261.0029,-62"/>
<text text-anchor="middle" x="318.0029" y="-69" font-family="Helvetica,sans-Serif" font-size="10.00" fill="#000000">iDynTree/Core/Span.h</text>
</g>
<!-- Node9&#45;&gt;Node10 -->
<g id="edge11" class="edge">
<title>Node9&#45;&gt;Node10</title>
<path fill="none" stroke="#191970" d="M455.2807,-123.4639C424.4206,-111.7824 382.053,-95.7449 352.5796,-84.5884"/>
<polygon fill="#191970" stroke="#191970" points="353.7054,-81.2722 343.1139,-81.0053 351.2272,-87.8189 353.7054,-81.2722"/>
</g>
<!-- Node9&#45;&gt;Node11 -->
<g id="edge12" class="edge">
<title>Node9&#45;&gt;Node11</title>
<path fill="none" stroke="#191970" d="M536.9694,-123.4639C564.5422,-113.5849 600.8102,-100.5905 630.1802,-90.0675"/>
<polygon fill="#191970" stroke="#191970" points="631.62,-93.2696 639.8534,-86.6017 629.2589,-86.6798 631.62,-93.2696"/>
</g>
<!-- Node15 -->
<g id="node16" class="node">
<title>Node15</title>
<polygon fill="none" stroke="#bfbfbf" points="393.5029,-62 393.5029,-81 452.5029,-81 452.5029,-62 393.5029,-62"/>
<text text-anchor="middle" x="423.0029" y="-69" font-family="Helvetica,sans-Serif" font-size="10.00" fill="#000000">functional</text>
</g>
<!-- Node9&#45;&gt;Node15 -->
<g id="edge16" class="edge">
<title>Node9&#45;&gt;Node15</title>
<path fill="none" stroke="#191970" d="M478.665,-123.2967C467.3382,-112.7564 452.2653,-98.7303 440.6615,-87.9323"/>
<polygon fill="#191970" stroke="#191970" points="442.976,-85.3051 433.271,-81.055 438.2074,-90.4296 442.976,-85.3051"/>
</g>
<!-- Node16 -->
<g id="node17" class="node">
<title>Node16</title>
<polygon fill="none" stroke="#bfbfbf" points="470.5029,-62 470.5029,-81 519.5029,-81 519.5029,-62 470.5029,-62"/>
<text text-anchor="middle" x="495.0029" y="-69" font-family="Helvetica,sans-Serif" font-size="10.00" fill="#000000">cassert</text>
</g>
<!-- Node9&#45;&gt;Node16 -->
<g id="edge17" class="edge">
<title>Node9&#45;&gt;Node16</title>
<path fill="none" stroke="#191970" d="M495.0029,-123.2967C495.0029,-113.7699 495.0029,-101.3954 495.0029,-91.1306"/>
<polygon fill="#191970" stroke="#191970" points="498.503,-91.0549 495.0029,-81.055 491.503,-91.055 498.503,-91.0549"/>
</g>
<!-- Node17 -->
<g id="node18" class="node">
<title>Node17</title>
<polygon fill="none" stroke="#bfbfbf" points="538.0029,-62 538.0029,-81 592.0029,-81 592.0029,-62 538.0029,-62"/>
<text text-anchor="middle" x="565.0029" y="-69" font-family="Helvetica,sans-Serif" font-size="10.00" fill="#000000">iostream</text>
</g>
<!-- Node9&#45;&gt;Node17 -->
<g id="edge18" class="edge">
<title>Node9&#45;&gt;Node17</title>
<path fill="none" stroke="#191970" d="M510.887,-123.2967C521.7933,-112.8578 536.2719,-98.9997 547.5085,-88.2446"/>
<polygon fill="#191970" stroke="#191970" points="550.216,-90.498 555.0201,-81.055 545.3758,-85.4411 550.216,-90.498"/>
</g>
<!-- Node12 -->
<g id="node13" class="node">
<title>Node12</title>
<polygon fill="none" stroke="#bfbfbf" points="569.0029,-.5 569.0029,-19.5 631.0029,-19.5 631.0029,-.5 569.0029,-.5"/>
<text text-anchor="middle" x="600.0029" y="-7.5" font-family="Helvetica,sans-Serif" font-size="10.00" fill="#000000">type_traits</text>
</g>
<!-- Node11&#45;&gt;Node12 -->
<g id="edge13" class="edge">
<title>Node11&#45;&gt;Node12</title>
<path fill="none" stroke="#191970" d="M661.7333,-56.2977C649.4023,-47.0495 633.6763,-35.2551 621.1833,-25.8853"/>
<polygon fill="#191970" stroke="#191970" points="623.2322,-23.047 613.1322,-19.8469 619.0322,-28.647 623.2322,-23.047"/>
</g>
<!-- Node13 -->
<g id="node14" class="node">
<title>Node13</title>
<polygon fill="none" stroke="#bfbfbf" points="649.0029,-.5 649.0029,-19.5 715.0029,-19.5 715.0029,-.5 649.0029,-.5"/>
<text text-anchor="middle" x="682.0029" y="-7.5" font-family="Helvetica,sans-Serif" font-size="10.00" fill="#000000">string_view</text>
</g>
<!-- Node11&#45;&gt;Node13 -->
<g id="edge14" class="edge">
<title>Node11&#45;&gt;Node13</title>
<path fill="none" stroke="#191970" d="M682.0029,-56.2977C682.0029,-48.3834 682.0029,-38.6043 682.0029,-30.0759"/>
<polygon fill="#191970" stroke="#191970" points="685.503,-29.8469 682.0029,-19.8469 678.503,-29.847 685.503,-29.8469"/>
</g>
<!-- Node14 -->
<g id="node15" class="node">
<title>Node14</title>
<polygon fill="none" stroke="#bfbfbf" points="733.5029,-.5 733.5029,-19.5 798.5029,-19.5 798.5029,-.5 733.5029,-.5"/>
<text text-anchor="middle" x="766.0029" y="-7.5" font-family="Helvetica,sans-Serif" font-size="10.00" fill="#000000">Eigen/Core</text>
</g>
<!-- Node11&#45;&gt;Node14 -->
<g id="edge15" class="edge">
<title>Node11&#45;&gt;Node14</title>
<path fill="none" stroke="#191970" d="M702.767,-56.2977C715.3987,-47.0495 731.5082,-35.2551 744.306,-25.8853"/>
<polygon fill="#191970" stroke="#191970" points="746.5524,-28.5784 752.5535,-19.8469 742.4172,-22.9303 746.5524,-28.5784"/>
</g>
<!-- Node18&#45;&gt;Node7 -->
<g id="edge22" class="edge">
<title>Node18&#45;&gt;Node7</title>
<path fill="none" stroke="#191970" d="M677.8841,-190.2967C670.472,-180.1618 660.7029,-166.804 652.942,-156.1921"/>
<polygon fill="#191970" stroke="#191970" points="655.7192,-154.0606 646.9909,-148.055 650.069,-158.1928 655.7192,-154.0606"/>
</g>
<!-- Node19 -->
<g id="node20" class="node">
<title>Node19</title>
<polygon fill="none" stroke="#bfbfbf" points="678.5029,-129 678.5029,-148 761.5029,-148 761.5029,-129 678.5029,-129"/>
<text text-anchor="middle" x="720.0029" y="-136" font-family="Helvetica,sans-Serif" font-size="10.00" fill="#000000">unordered_map</text>
</g>
<!-- Node18&#45;&gt;Node19 -->
<g id="edge23" class="edge">
<title>Node18&#45;&gt;Node19</title>
<path fill="none" stroke="#191970" d="M696.0373,-190.2967C700.5859,-180.4658 706.5376,-167.6026 711.3718,-157.1545"/>
<polygon fill="#191970" stroke="#191970" points="714.5592,-158.6003 715.582,-148.055 708.2063,-155.6609 714.5592,-158.6003"/>
</g>
</g>
</svg>
