<?xml version="1.0" encoding="UTF-8" standalone="no"?>
<!DOCTYPE svg PUBLIC "-//W3C//DTD SVG 1.1//EN"
 "http://www.w3.org/Graphics/SVG/1.1/DTD/svg11.dtd">
<!-- Generated by graphviz version 2.40.1 (20161225.0304)
 -->
<!-- Title: Math/src/CARE.cpp Pages: 1 -->
<svg width="572pt" height="352pt"
 viewBox="0.00 0.00 572.00 352.00" xmlns="http://www.w3.org/2000/svg" xmlns:xlink="http://www.w3.org/1999/xlink">
<g id="graph0" class="graph" transform="scale(1 1) rotate(0) translate(4 348)">
<title>Math/src/CARE.cpp</title>
<!-- Node0 -->
<g id="node1" class="node">
<title>Node0</title>
<polygon fill="#bfbfbf" stroke="#000000" points="354.5,-324.5 354.5,-343.5 459.5,-343.5 459.5,-324.5 354.5,-324.5"/>
<text text-anchor="middle" x="407" y="-331.5" font-family="Helvetica,sans-Serif" font-size="10.00" fill="#000000">Math/src/CARE.cpp</text>
</g>
<!-- Node1 -->
<g id="node2" class="node">
<title>Node1</title>
<polygon fill="none" stroke="#bfbfbf" points="0,-62 0,-81 54,-81 54,-62 0,-62"/>
<text text-anchor="middle" x="27" y="-69" font-family="Helvetica,sans-Serif" font-size="10.00" fill="#000000">iostream</text>
</g>
<!-- Node0&#45;&gt;Node1 -->
<g id="edge1" class="edge">
<title>Node0&#45;&gt;Node1</title>
<path fill="none" stroke="#191970" d="M390.7718,-324.4928C347.0577,-298.6883 223.6193,-224.5307 127,-154 97.4144,-132.4029 65.0296,-104.9223 45.3623,-87.7679"/>
<polygon fill="#191970" stroke="#191970" points="47.5826,-85.0597 37.7574,-81.0954 42.966,-90.3215 47.5826,-85.0597"/>
</g>
<!-- Node2 -->
<g id="node3" class="node">
<title>Node2</title>
<polygon fill="none" stroke="#bfbfbf" points="487,-263 487,-282 539,-282 539,-263 487,-263"/>
<text text-anchor="middle" x="513" y="-270" font-family="Helvetica,sans-Serif" font-size="10.00" fill="#000000">sstream</text>
</g>
<!-- Node0&#45;&gt;Node2 -->
<g id="edge2" class="edge">
<title>Node0&#45;&gt;Node2</title>
<path fill="none" stroke="#191970" d="M423.5625,-324.3906C440.7537,-314.4165 467.8582,-298.6908 487.7266,-287.1633"/>
<polygon fill="#191970" stroke="#191970" points="489.6606,-290.0877 496.5538,-282.0419 486.1477,-284.033 489.6606,-290.0877"/>
</g>
<!-- Node3 -->
<g id="node4" class="node">
<title>Node3</title>
<g id="a_node4"><a xlink:href="CARE_8h.html" target="_top" xlink:title="BipedalLocomotion/Math\l/CARE.h">
<polygon fill="none" stroke="#000000" points="345,-257.5 345,-287.5 469,-287.5 469,-257.5 345,-257.5"/>
<text text-anchor="start" x="353" y="-275.5" font-family="Helvetica,sans-Serif" font-size="10.00" fill="#000000">BipedalLocomotion/Math</text>
<text text-anchor="middle" x="407" y="-264.5" font-family="Helvetica,sans-Serif" font-size="10.00" fill="#000000">/CARE.h</text>
</a>
</g>
</g>
<!-- Node0&#45;&gt;Node3 -->
<g id="edge3" class="edge">
<title>Node0&#45;&gt;Node3</title>
<path fill="none" stroke="#191970" d="M407,-324.3906C407,-317.2234 407,-307.0862 407,-297.671"/>
<polygon fill="#191970" stroke="#191970" points="410.5001,-297.5446 407,-287.5446 403.5001,-297.5446 410.5001,-297.5446"/>
</g>
<!-- Node4 -->
<g id="node5" class="node">
<title>Node4</title>
<polygon fill="none" stroke="#bfbfbf" points="436.5,-196 436.5,-215 509.5,-215 509.5,-196 436.5,-196"/>
<text text-anchor="middle" x="473" y="-203" font-family="Helvetica,sans-Serif" font-size="10.00" fill="#000000">Eigen/Dense</text>
</g>
<!-- Node3&#45;&gt;Node4 -->
<g id="edge4" class="edge">
<title>Node3&#45;&gt;Node4</title>
<path fill="none" stroke="#191970" d="M421.9764,-257.2967C432.2595,-246.8578 445.9108,-232.9997 456.5053,-222.2446"/>
<polygon fill="#191970" stroke="#191970" points="459.0633,-224.6352 463.5876,-215.055 454.0765,-219.7228 459.0633,-224.6352"/>
</g>
<!-- Node5 -->
<g id="node6" class="node">
<title>Node5</title>
<polygon fill="none" stroke="#bfbfbf" points="512,-62 512,-81 564,-81 564,-62 512,-62"/>
<text text-anchor="middle" x="538" y="-69" font-family="Helvetica,sans-Serif" font-size="10.00" fill="#000000">memory</text>
</g>
<!-- Node3&#45;&gt;Node5 -->
<g id="edge5" class="edge">
<title>Node3&#45;&gt;Node5</title>
<path fill="none" stroke="#191970" d="M467.5611,-257.4222C486.8744,-249.6531 506.4643,-238.0812 519,-221 547.4133,-182.2838 544.8498,-122.231 541.1231,-91.3414"/>
<polygon fill="#191970" stroke="#191970" points="544.5351,-90.463 539.7,-81.0358 537.6009,-91.4206 544.5351,-90.463"/>
</g>
<!-- Node6 -->
<g id="node7" class="node">
<title>Node6</title>
<g id="a_node7"><a xlink:href="IParametersHandler_8h.html" target="_top" xlink:title="BipedalLocomotion/Parameters\lHandler/IParametersHandler.h">
<polygon fill="none" stroke="#000000" points="266,-190.5 266,-220.5 418,-220.5 418,-190.5 266,-190.5"/>
<text text-anchor="start" x="274" y="-208.5" font-family="Helvetica,sans-Serif" font-size="10.00" fill="#000000">BipedalLocomotion/Parameters</text>
<text text-anchor="middle" x="342" y="-197.5" font-family="Helvetica,sans-Serif" font-size="10.00" fill="#000000">Handler/IParametersHandler.h</text>
</a>
</g>
</g>
<!-- Node3&#45;&gt;Node6 -->
<g id="edge6" class="edge">
<title>Node3&#45;&gt;Node6</title>
<path fill="none" stroke="#191970" d="M392.2505,-257.2967C383.8567,-248.6446 373.1843,-237.6438 363.8358,-228.0076"/>
<polygon fill="#191970" stroke="#191970" points="366.1664,-225.3835 356.6911,-220.6432 361.1422,-230.2577 366.1664,-225.3835"/>
</g>
<!-- Node6&#45;&gt;Node5 -->
<g id="edge7" class="edge">
<title>Node6&#45;&gt;Node5</title>
<path fill="none" stroke="#191970" d="M366.6888,-190.3027C382.8547,-180.2296 404.3608,-166.5968 423,-154 456.2492,-131.5294 493.88,-104.152 516.7692,-87.2742"/>
<polygon fill="#191970" stroke="#191970" points="519.1003,-89.9035 525.0604,-81.144 514.9387,-84.2749 519.1003,-89.9035"/>
</g>
<!-- Node7 -->
<g id="node8" class="node">
<title>Node7</title>
<polygon fill="none" stroke="#bfbfbf" points="290.5,-129 290.5,-148 331.5,-148 331.5,-129 290.5,-129"/>
<text text-anchor="middle" x="311" y="-136" font-family="Helvetica,sans-Serif" font-size="10.00" fill="#000000">string</text>
</g>
<!-- Node6&#45;&gt;Node7 -->
<g id="edge8" class="edge">
<title>Node6&#45;&gt;Node7</title>
<path fill="none" stroke="#191970" d="M334.9656,-190.2967C330.417,-180.4658 324.4654,-167.6026 319.6312,-157.1545"/>
<polygon fill="#191970" stroke="#191970" points="322.7967,-155.6609 315.421,-148.055 316.4437,-158.6003 322.7967,-155.6609"/>
</g>
<!-- Node8 -->
<g id="node9" class="node">
<title>Node8</title>
<polygon fill="none" stroke="#bfbfbf" points="350,-129 350,-148 394,-148 394,-129 350,-129"/>
<text text-anchor="middle" x="372" y="-136" font-family="Helvetica,sans-Serif" font-size="10.00" fill="#000000">vector</text>
</g>
<!-- Node6&#45;&gt;Node8 -->
<g id="edge9" class="edge">
<title>Node6&#45;&gt;Node8</title>
<path fill="none" stroke="#191970" d="M348.8075,-190.2967C353.1639,-180.5672 358.8504,-167.8675 363.5022,-157.4784"/>
<polygon fill="#191970" stroke="#191970" points="366.8293,-158.6122 367.7217,-148.055 360.4406,-155.7515 366.8293,-158.6122"/>
</g>
<!-- Node9 -->
<g id="node10" class="node">
<title>Node9</title>
<g id="a_node10"><a xlink:href="Vector_8h_source.html" target="_top" xlink:title="BipedalLocomotion/Generic\lContainer/Vector.h">
<polygon fill="none" stroke="#000000" points="136,-123.5 136,-153.5 272,-153.5 272,-123.5 136,-123.5"/>
<text text-anchor="start" x="144" y="-141.5" font-family="Helvetica,sans-Serif" font-size="10.00" fill="#000000">BipedalLocomotion/Generic</text>
<text text-anchor="middle" x="204" y="-130.5" font-family="Helvetica,sans-Serif" font-size="10.00" fill="#000000">Container/Vector.h</text>
</a>
</g>
</g>
<!-- Node6&#45;&gt;Node9 -->
<g id="edge10" class="edge">
<title>Node6&#45;&gt;Node9</title>
<path fill="none" stroke="#191970" d="M311.0301,-190.4639C291.3708,-180.9191 265.7216,-168.4663 244.4607,-158.144"/>
<polygon fill="#191970" stroke="#191970" points="245.8685,-154.9368 235.344,-153.7177 242.8112,-161.2339 245.8685,-154.9368"/>
</g>
<!-- Node11 -->
<g id="node12" class="node">
<title>Node11</title>
<g id="a_node12"><a xlink:href="TemplateHelpers_8h_source.html" target="_top" xlink:title="BipedalLocomotion/Generic\lContainer/TemplateHelpers.h">
<polygon fill="none" stroke="#000000" points="350,-56.5 350,-86.5 494,-86.5 494,-56.5 350,-56.5"/>
<text text-anchor="start" x="358" y="-74.5" font-family="Helvetica,sans-Serif" font-size="10.00" fill="#000000">BipedalLocomotion/Generic</text>
<text text-anchor="middle" x="422" y="-63.5" font-family="Helvetica,sans-Serif" font-size="10.00" fill="#000000">Container/TemplateHelpers.h</text>
</a>
</g>
</g>
<!-- Node6&#45;&gt;Node11 -->
<g id="edge20" class="edge">
<title>Node6&#45;&gt;Node11</title>
<path fill="none" stroke="#191970" d="M366.4816,-190.4618C379.219,-181.413 393.9741,-168.7879 403,-154 413.5527,-136.7106 418.2499,-114.1275 420.3379,-96.9608"/>
<polygon fill="#191970" stroke="#191970" points="423.8641,-96.8687 421.3684,-86.572 416.8983,-96.1776 423.8641,-96.8687"/>
</g>
<!-- Node9&#45;&gt;Node1 -->
<g id="edge18" class="edge">
<title>Node9&#45;&gt;Node1</title>
<path fill="none" stroke="#191970" d="M160.8768,-123.46C132.8394,-113.507 95.5725,-99.9487 63,-87 61.3915,-86.3606 59.7472,-85.6952 58.0901,-85.0153"/>
<polygon fill="#191970" stroke="#191970" points="59.1951,-81.6834 48.6197,-81.0428 56.4874,-88.1385 59.1951,-81.6834"/>
</g>
<!-- Node9&#45;&gt;Node5 -->
<g id="edge19" class="edge">
<title>Node9&#45;&gt;Node5</title>
<path fill="none" stroke="#191970" d="M272.408,-124.5897C275.3091,-124.044 278.1825,-123.5118 281,-123 379.3459,-105.1342 407.1848,-115.4705 503,-87 505.1221,-86.3694 507.2846,-85.6405 509.441,-84.8495"/>
<polygon fill="#191970" stroke="#191970" points="510.756,-88.0932 518.7121,-81.0967 508.1295,-81.6046 510.756,-88.0932"/>
</g>
<!-- Node10 -->
<g id="node11" class="node">
<title>Node10</title>
<polygon fill="none" stroke="#bfbfbf" points="140,-62 140,-81 254,-81 254,-62 140,-62"/>
<text text-anchor="middle" x="197" y="-69" font-family="Helvetica,sans-Serif" font-size="10.00" fill="#000000">iDynTree/Core/Span.h</text>
</g>
<!-- Node9&#45;&gt;Node10 -->
<g id="edge11" class="edge">
<title>Node9&#45;&gt;Node10</title>
<path fill="none" stroke="#191970" d="M202.4116,-123.2967C201.4163,-113.7699 200.1234,-101.3954 199.051,-91.1306"/>
<polygon fill="#191970" stroke="#191970" points="202.5185,-90.6371 197.9983,-81.055 195.5564,-91.3646 202.5185,-90.6371"/>
</g>
<!-- Node9&#45;&gt;Node11 -->
<g id="edge12" class="edge">
<title>Node9&#45;&gt;Node11</title>
<path fill="none" stroke="#191970" d="M252.9235,-123.4639C285.4864,-113.456 328.4522,-100.2509 362.9219,-89.657"/>
<polygon fill="#191970" stroke="#191970" points="364.3327,-92.8851 372.8632,-86.6017 362.2762,-86.194 364.3327,-92.8851"/>
</g>
<!-- Node15 -->
<g id="node16" class="node">
<title>Node15</title>
<polygon fill="none" stroke="#bfbfbf" points="272.5,-62 272.5,-81 331.5,-81 331.5,-62 272.5,-62"/>
<text text-anchor="middle" x="302" y="-69" font-family="Helvetica,sans-Serif" font-size="10.00" fill="#000000">functional</text>
</g>
<!-- Node9&#45;&gt;Node15 -->
<g id="edge16" class="edge">
<title>Node9&#45;&gt;Node15</title>
<path fill="none" stroke="#191970" d="M226.2377,-123.2967C242.2478,-112.351 263.7563,-97.6462 279.7656,-86.701"/>
<polygon fill="#191970" stroke="#191970" points="281.7443,-89.5881 288.0241,-81.055 277.7936,-83.8095 281.7443,-89.5881"/>
</g>
<!-- Node16 -->
<g id="node17" class="node">
<title>Node16</title>
<polygon fill="none" stroke="#bfbfbf" points="72.5,-62 72.5,-81 121.5,-81 121.5,-62 72.5,-62"/>
<text text-anchor="middle" x="97" y="-69" font-family="Helvetica,sans-Serif" font-size="10.00" fill="#000000">cassert</text>
</g>
<!-- Node9&#45;&gt;Node16 -->
<g id="edge17" class="edge">
<title>Node9&#45;&gt;Node16</title>
<path fill="none" stroke="#191970" d="M179.9871,-123.4639C162.3574,-112.4247 138.5151,-97.4954 120.9097,-86.4715"/>
<polygon fill="#191970" stroke="#191970" points="122.6707,-83.4446 112.3376,-81.1039 118.9556,-89.3775 122.6707,-83.4446"/>
</g>
<!-- Node12 -->
<g id="node13" class="node">
<title>Node12</title>
<polygon fill="none" stroke="#bfbfbf" points="309,-.5 309,-19.5 371,-19.5 371,-.5 309,-.5"/>
<text text-anchor="middle" x="340" y="-7.5" font-family="Helvetica,sans-Serif" font-size="10.00" fill="#000000">type_traits</text>
</g>
<!-- Node11&#45;&gt;Node12 -->
<g id="edge13" class="edge">
<title>Node11&#45;&gt;Node12</title>
<path fill="none" stroke="#191970" d="M401.7303,-56.2977C389.3994,-47.0495 373.6734,-35.2551 361.1803,-25.8853"/>
<polygon fill="#191970" stroke="#191970" points="363.2293,-23.047 353.1292,-19.8469 359.0292,-28.647 363.2293,-23.047"/>
</g>
<!-- Node13 -->
<g id="node14" class="node">
<title>Node13</title>
<polygon fill="none" stroke="#bfbfbf" points="389,-.5 389,-19.5 455,-19.5 455,-.5 389,-.5"/>
<text text-anchor="middle" x="422" y="-7.5" font-family="Helvetica,sans-Serif" font-size="10.00" fill="#000000">string_view</text>
</g>
<!-- Node11&#45;&gt;Node13 -->
<g id="edge14" class="edge">
<title>Node11&#45;&gt;Node13</title>
<path fill="none" stroke="#191970" d="M422,-56.2977C422,-48.3834 422,-38.6043 422,-30.0759"/>
<polygon fill="#191970" stroke="#191970" points="425.5001,-29.8469 422,-19.8469 418.5001,-29.847 425.5001,-29.8469"/>
</g>
<!-- Node14 -->
<g id="node15" class="node">
<title>Node14</title>
<polygon fill="none" stroke="#bfbfbf" points="473.5,-.5 473.5,-19.5 538.5,-19.5 538.5,-.5 473.5,-.5"/>
<text text-anchor="middle" x="506" y="-7.5" font-family="Helvetica,sans-Serif" font-size="10.00" fill="#000000">Eigen/Core</text>
</g>
<!-- Node11&#45;&gt;Node14 -->
<g id="edge15" class="edge">
<title>Node11&#45;&gt;Node14</title>
<path fill="none" stroke="#191970" d="M442.7641,-56.2977C455.3958,-47.0495 471.5053,-35.2551 484.3031,-25.8853"/>
<polygon fill="#191970" stroke="#191970" points="486.5495,-28.5784 492.5505,-19.8469 482.4143,-22.9303 486.5495,-28.5784"/>
</g>
</g>
</svg>
