<?xml version="1.0" encoding="UTF-8" standalone="no"?>
<!DOCTYPE svg PUBLIC "-//W3C//DTD SVG 1.1//EN"
 "http://www.w3.org/Graphics/SVG/1.1/DTD/svg11.dtd">
<!-- Generated by graphviz version 2.40.1 (20161225.0304)
 -->
<!-- Title: Math/include/BipedalLocomotion/Math/CARE.h Pages: 1 -->
<svg width="612pt" height="296pt"
 viewBox="0.00 0.00 612.00 296.00" xmlns="http://www.w3.org/2000/svg" xmlns:xlink="http://www.w3.org/1999/xlink">
<g id="graph0" class="graph" transform="scale(1 1) rotate(0) translate(4 292)">
<title>Math/include/BipedalLocomotion/Math/CARE.h</title>
<!-- Node0 -->
<g id="node1" class="node">
<title>Node0</title>
<polygon fill="#bfbfbf" stroke="#000000" points="304,-257.5 304,-287.5 462,-287.5 462,-257.5 304,-257.5"/>
<text text-anchor="start" x="312" y="-275.5" font-family="Helvetica,sans-Serif" font-size="10.00" fill="#000000">Math/include/BipedalLocomotion</text>
<text text-anchor="middle" x="383" y="-264.5" font-family="Helvetica,sans-Serif" font-size="10.00" fill="#000000">/Math/CARE.h</text>
</g>
<!-- Node1 -->
<g id="node2" class="node">
<title>Node1</title>
<polygon fill="none" stroke="#bfbfbf" points="215.5,-196 215.5,-215 288.5,-215 288.5,-196 215.5,-196"/>
<text text-anchor="middle" x="252" y="-203" font-family="Helvetica,sans-Serif" font-size="10.00" fill="#000000">Eigen/Dense</text>
</g>
<!-- Node0&#45;&gt;Node1 -->
<g id="edge1" class="edge">
<title>Node0&#45;&gt;Node1</title>
<path fill="none" stroke="#191970" d="M353.601,-257.4639C331.5219,-246.1715 301.4839,-230.8086 279.8017,-219.7192"/>
<polygon fill="#191970" stroke="#191970" points="281.2747,-216.5414 270.7778,-215.1039 278.0872,-222.7736 281.2747,-216.5414"/>
</g>
<!-- Node2 -->
<g id="node3" class="node">
<title>Node2</title>
<polygon fill="none" stroke="#bfbfbf" points="552,-62 552,-81 604,-81 604,-62 552,-62"/>
<text text-anchor="middle" x="578" y="-69" font-family="Helvetica,sans-Serif" font-size="10.00" fill="#000000">memory</text>
</g>
<!-- Node0&#45;&gt;Node2 -->
<g id="edge2" class="edge">
<title>Node0&#45;&gt;Node2</title>
<path fill="none" stroke="#191970" d="M413.7732,-257.3711C449.8053,-238.1406 508.8877,-201.6359 543,-154 557.0279,-134.4109 566.8917,-108.3324 572.4962,-90.7839"/>
<polygon fill="#191970" stroke="#191970" points="575.882,-91.6794 575.4345,-81.094 569.1832,-89.648 575.882,-91.6794"/>
</g>
<!-- Node3 -->
<g id="node4" class="node">
<title>Node3</title>
<g id="a_node4"><a xlink:href="IParametersHandler_8h.html" target="_top" xlink:title="BipedalLocomotion/Parameters\lHandler/IParametersHandler.h">
<polygon fill="none" stroke="#000000" points="307,-190.5 307,-220.5 459,-220.5 459,-190.5 307,-190.5"/>
<text text-anchor="start" x="315" y="-208.5" font-family="Helvetica,sans-Serif" font-size="10.00" fill="#000000">BipedalLocomotion/Parameters</text>
<text text-anchor="middle" x="383" y="-197.5" font-family="Helvetica,sans-Serif" font-size="10.00" fill="#000000">Handler/IParametersHandler.h</text>
</a>
</g>
</g>
<!-- Node0&#45;&gt;Node3 -->
<g id="edge3" class="edge">
<title>Node0&#45;&gt;Node3</title>
<path fill="none" stroke="#191970" d="M383,-257.2967C383,-249.5013 383,-239.7991 383,-230.9064"/>
<polygon fill="#191970" stroke="#191970" points="386.5001,-230.6431 383,-220.6432 379.5001,-230.6432 386.5001,-230.6431"/>
</g>
<!-- Node3&#45;&gt;Node2 -->
<g id="edge4" class="edge">
<title>Node3&#45;&gt;Node2</title>
<path fill="none" stroke="#191970" d="M440.2486,-190.4102C464.528,-182.2082 492.1902,-170.3332 514,-154 537.3685,-136.4996 556.6645,-108.366 567.7631,-89.9049"/>
<polygon fill="#191970" stroke="#191970" points="570.9352,-91.412 572.9289,-81.0064 564.8814,-87.8976 570.9352,-91.412"/>
</g>
<!-- Node4 -->
<g id="node5" class="node">
<title>Node4</title>
<polygon fill="none" stroke="#bfbfbf" points="247.5,-129 247.5,-148 288.5,-148 288.5,-129 247.5,-129"/>
<text text-anchor="middle" x="268" y="-136" font-family="Helvetica,sans-Serif" font-size="10.00" fill="#000000">string</text>
</g>
<!-- Node3&#45;&gt;Node4 -->
<g id="edge5" class="edge">
<title>Node3&#45;&gt;Node4</title>
<path fill="none" stroke="#191970" d="M357.1918,-190.4639C338.0701,-179.3234 312.1483,-164.2212 293.1782,-153.1691"/>
<polygon fill="#191970" stroke="#191970" points="294.8868,-150.1138 284.4843,-148.1039 291.3629,-156.1622 294.8868,-150.1138"/>
</g>
<!-- Node5 -->
<g id="node6" class="node">
<title>Node5</title>
<polygon fill="none" stroke="#bfbfbf" points="307,-129 307,-148 351,-148 351,-129 307,-129"/>
<text text-anchor="middle" x="329" y="-136" font-family="Helvetica,sans-Serif" font-size="10.00" fill="#000000">vector</text>
</g>
<!-- Node3&#45;&gt;Node5 -->
<g id="edge6" class="edge">
<title>Node3&#45;&gt;Node5</title>
<path fill="none" stroke="#191970" d="M370.7466,-190.2967C362.4965,-180.0605 351.5966,-166.5366 343.0034,-155.8746"/>
<polygon fill="#191970" stroke="#191970" points="345.7014,-153.6446 336.701,-148.055 340.2512,-158.0373 345.7014,-153.6446"/>
</g>
<!-- Node6 -->
<g id="node7" class="node">
<title>Node6</title>
<g id="a_node7"><a xlink:href="Vector_8h_source.html" target="_top" xlink:title="BipedalLocomotion/Generic\lContainer/Vector.h">
<polygon fill="none" stroke="#000000" points="369,-123.5 369,-153.5 505,-153.5 505,-123.5 369,-123.5"/>
<text text-anchor="start" x="377" y="-141.5" font-family="Helvetica,sans-Serif" font-size="10.00" fill="#000000">BipedalLocomotion/Generic</text>
<text text-anchor="middle" x="437" y="-130.5" font-family="Helvetica,sans-Serif" font-size="10.00" fill="#000000">Container/Vector.h</text>
</a>
</g>
</g>
<!-- Node3&#45;&gt;Node6 -->
<g id="edge7" class="edge">
<title>Node3&#45;&gt;Node6</title>
<path fill="none" stroke="#191970" d="M395.2534,-190.2967C402.0886,-181.816 410.7427,-171.0785 418.3969,-161.5817"/>
<polygon fill="#191970" stroke="#191970" points="421.2449,-163.6255 424.7951,-153.6432 415.7947,-159.2328 421.2449,-163.6255"/>
</g>
<!-- Node8 -->
<g id="node9" class="node">
<title>Node8</title>
<g id="a_node9"><a xlink:href="TemplateHelpers_8h_source.html" target="_top" xlink:title="BipedalLocomotion/Generic\lContainer/TemplateHelpers.h">
<polygon fill="none" stroke="#000000" points="41,-56.5 41,-86.5 185,-86.5 185,-56.5 41,-56.5"/>
<text text-anchor="start" x="49" y="-74.5" font-family="Helvetica,sans-Serif" font-size="10.00" fill="#000000">BipedalLocomotion/Generic</text>
<text text-anchor="middle" x="113" y="-63.5" font-family="Helvetica,sans-Serif" font-size="10.00" fill="#000000">Container/TemplateHelpers.h</text>
</a>
</g>
</g>
<!-- Node3&#45;&gt;Node8 -->
<g id="edge17" class="edge">
<title>Node3&#45;&gt;Node8</title>
<path fill="none" stroke="#191970" d="M331.0905,-190.4368C302.8763,-181.4208 267.7676,-168.8346 238,-154 202.61,-136.3635 165.1569,-110.5686 140.5797,-92.5313"/>
<polygon fill="#191970" stroke="#191970" points="142.5651,-89.6462 132.4479,-86.5008 138.3954,-95.2689 142.5651,-89.6462"/>
</g>
<!-- Node6&#45;&gt;Node2 -->
<g id="edge16" class="edge">
<title>Node6&#45;&gt;Node2</title>
<path fill="none" stroke="#191970" d="M468.6432,-123.4639C492.6208,-112.0702 525.3193,-96.5327 548.7017,-85.4219"/>
<polygon fill="#191970" stroke="#191970" points="550.2588,-88.5571 557.7888,-81.1039 547.2544,-82.2346 550.2588,-88.5571"/>
</g>
<!-- Node7 -->
<g id="node8" class="node">
<title>Node7</title>
<polygon fill="none" stroke="#bfbfbf" points="203,-62 203,-81 317,-81 317,-62 203,-62"/>
<text text-anchor="middle" x="260" y="-69" font-family="Helvetica,sans-Serif" font-size="10.00" fill="#000000">iDynTree/Core/Span.h</text>
</g>
<!-- Node6&#45;&gt;Node7 -->
<g id="edge8" class="edge">
<title>Node6&#45;&gt;Node7</title>
<path fill="none" stroke="#191970" d="M397.2777,-123.4639C366.4176,-111.7824 324.05,-95.7449 294.5767,-84.5884"/>
<polygon fill="#191970" stroke="#191970" points="295.7025,-81.2722 285.111,-81.0053 293.2243,-87.8189 295.7025,-81.2722"/>
</g>
<!-- Node6&#45;&gt;Node8 -->
<g id="edge9" class="edge">
<title>Node6&#45;&gt;Node8</title>
<path fill="none" stroke="#191970" d="M368.6838,-124.3729C317.9972,-113.8914 248.6682,-99.5548 194.989,-88.4545"/>
<polygon fill="#191970" stroke="#191970" points="195.6576,-85.0188 185.156,-86.4212 194.2401,-91.8738 195.6576,-85.0188"/>
</g>
<!-- Node12 -->
<g id="node13" class="node">
<title>Node12</title>
<polygon fill="none" stroke="#bfbfbf" points="335.5,-62 335.5,-81 394.5,-81 394.5,-62 335.5,-62"/>
<text text-anchor="middle" x="365" y="-69" font-family="Helvetica,sans-Serif" font-size="10.00" fill="#000000">functional</text>
</g>
<!-- Node6&#45;&gt;Node12 -->
<g id="edge13" class="edge">
<title>Node6&#45;&gt;Node12</title>
<path fill="none" stroke="#191970" d="M420.6621,-123.2967C409.3352,-112.7564 394.2624,-98.7303 382.6586,-87.9323"/>
<polygon fill="#191970" stroke="#191970" points="384.9731,-85.3051 375.268,-81.055 380.2044,-90.4296 384.9731,-85.3051"/>
</g>
<!-- Node13 -->
<g id="node14" class="node">
<title>Node13</title>
<polygon fill="none" stroke="#bfbfbf" points="412.5,-62 412.5,-81 461.5,-81 461.5,-62 412.5,-62"/>
<text text-anchor="middle" x="437" y="-69" font-family="Helvetica,sans-Serif" font-size="10.00" fill="#000000">cassert</text>
</g>
<!-- Node6&#45;&gt;Node13 -->
<g id="edge14" class="edge">
<title>Node6&#45;&gt;Node13</title>
<path fill="none" stroke="#191970" d="M437,-123.2967C437,-113.7699 437,-101.3954 437,-91.1306"/>
<polygon fill="#191970" stroke="#191970" points="440.5001,-91.0549 437,-81.055 433.5001,-91.055 440.5001,-91.0549"/>
</g>
<!-- Node14 -->
<g id="node15" class="node">
<title>Node14</title>
<polygon fill="none" stroke="#bfbfbf" points="480,-62 480,-81 534,-81 534,-62 480,-62"/>
<text text-anchor="middle" x="507" y="-69" font-family="Helvetica,sans-Serif" font-size="10.00" fill="#000000">iostream</text>
</g>
<!-- Node6&#45;&gt;Node14 -->
<g id="edge15" class="edge">
<title>Node6&#45;&gt;Node14</title>
<path fill="none" stroke="#191970" d="M452.8841,-123.2967C463.7904,-112.8578 478.269,-98.9997 489.5056,-88.2446"/>
<polygon fill="#191970" stroke="#191970" points="492.2131,-90.498 497.0172,-81.055 487.3729,-85.4411 492.2131,-90.498"/>
</g>
<!-- Node9 -->
<g id="node10" class="node">
<title>Node9</title>
<polygon fill="none" stroke="#bfbfbf" points="0,-.5 0,-19.5 62,-19.5 62,-.5 0,-.5"/>
<text text-anchor="middle" x="31" y="-7.5" font-family="Helvetica,sans-Serif" font-size="10.00" fill="#000000">type_traits</text>
</g>
<!-- Node8&#45;&gt;Node9 -->
<g id="edge10" class="edge">
<title>Node8&#45;&gt;Node9</title>
<path fill="none" stroke="#191970" d="M92.7303,-56.2977C80.3994,-47.0495 64.6734,-35.2551 52.1803,-25.8853"/>
<polygon fill="#191970" stroke="#191970" points="54.2293,-23.047 44.1292,-19.8469 50.0292,-28.647 54.2293,-23.047"/>
</g>
<!-- Node10 -->
<g id="node11" class="node">
<title>Node10</title>
<polygon fill="none" stroke="#bfbfbf" points="80,-.5 80,-19.5 146,-19.5 146,-.5 80,-.5"/>
<text text-anchor="middle" x="113" y="-7.5" font-family="Helvetica,sans-Serif" font-size="10.00" fill="#000000">string_view</text>
</g>
<!-- Node8&#45;&gt;Node10 -->
<g id="edge11" class="edge">
<title>Node8&#45;&gt;Node10</title>
<path fill="none" stroke="#191970" d="M113,-56.2977C113,-48.3834 113,-38.6043 113,-30.0759"/>
<polygon fill="#191970" stroke="#191970" points="116.5001,-29.8469 113,-19.8469 109.5001,-29.847 116.5001,-29.8469"/>
</g>
<!-- Node11 -->
<g id="node12" class="node">
<title>Node11</title>
<polygon fill="none" stroke="#bfbfbf" points="164.5,-.5 164.5,-19.5 229.5,-19.5 229.5,-.5 164.5,-.5"/>
<text text-anchor="middle" x="197" y="-7.5" font-family="Helvetica,sans-Serif" font-size="10.00" fill="#000000">Eigen/Core</text>
</g>
<!-- Node8&#45;&gt;Node11 -->
<g id="edge12" class="edge">
<title>Node8&#45;&gt;Node11</title>
<path fill="none" stroke="#191970" d="M133.7641,-56.2977C146.3958,-47.0495 162.5053,-35.2551 175.3031,-25.8853"/>
<polygon fill="#191970" stroke="#191970" points="177.5495,-28.5784 183.5505,-19.8469 173.4143,-22.9303 177.5495,-28.5784"/>
</g>
</g>
</svg>
