<?xml version="1.0" encoding="UTF-8" standalone="no"?>
<!DOCTYPE svg PUBLIC "-//W3C//DTD SVG 1.1//EN"
 "http://www.w3.org/Graphics/SVG/1.1/DTD/svg11.dtd">
<!-- Generated by graphviz version 2.40.1 (20161225.0304)
 -->
<!-- Title: BipedalLocomotion::RobotInterface::YarpSensorBridge Pages: 1 -->
<svg width="628pt" height="100pt"
 viewBox="0.00 0.00 628.00 99.50" xmlns="http://www.w3.org/2000/svg" xmlns:xlink="http://www.w3.org/1999/xlink">
<g id="graph0" class="graph" transform="scale(1 1) rotate(0) translate(4 95.5)">
<title>BipedalLocomotion::RobotInterface::YarpSensorBridge</title>
<!-- Node0 -->
<g id="node1" class="node">
<title>Node0</title>
<polygon fill="#bfbfbf" stroke="#000000" points="482,-27.5 482,-68.5 620,-68.5 620,-27.5 482,-27.5"/>
<text text-anchor="start" x="490" y="-56.5" font-family="Helvetica,sans-Serif" font-size="10.00" fill="#000000">BipedalLocomotion::</text>
<text text-anchor="start" x="490" y="-45.5" font-family="Helvetica,sans-Serif" font-size="10.00" fill="#000000">RobotInterface::YarpSensor</text>
<text text-anchor="middle" x="551" y="-34.5" font-family="Helvetica,sans-Serif" font-size="10.00" fill="#000000">Bridge</text>
</g>
<!-- Node1 -->
<g id="node2" class="node">
<title>Node1</title>
<g id="a_node2"><a xlink:href="classBipedalLocomotion_1_1RobotInterface_1_1ISensorBridge.html" target="_top" xlink:title="Sensor bridge interface. ">
<polygon fill="none" stroke="#000000" points="296,-61 296,-91 445,-91 445,-61 296,-61"/>
<text text-anchor="start" x="304" y="-79" font-family="Helvetica,sans-Serif" font-size="10.00" fill="#000000">BipedalLocomotion::</text>
<text text-anchor="middle" x="370.5" y="-68" font-family="Helvetica,sans-Serif" font-size="10.00" fill="#000000">RobotInterface::ISensorBridge</text>
</a>
</g>
</g>
<!-- Node1&#45;&gt;Node0 -->
<g id="edge1" class="edge">
<title>Node1&#45;&gt;Node0</title>
<path fill="none" stroke="#191970" d="M455.2319,-62.856C464.1438,-61.4735 473.1278,-60.0799 481.8345,-58.7293"/>
<polygon fill="#191970" stroke="#191970" points="454.5645,-59.4176 445.2192,-64.4092 455.6376,-66.3348 454.5645,-59.4176"/>
</g>
<!-- Node2 -->
<g id="node3" class="node">
<title>Node2</title>
<g id="a_node3"><a xlink:href="classBipedalLocomotion_1_1System_1_1Advanceable.html" target="_top" xlink:title="BipedalLocomotion::\lSystem::Advanceable\l\&lt; SensorBridgeMetaData \&gt;">
<polygon fill="none" stroke="#000000" points="302.5,-.5 302.5,-41.5 438.5,-41.5 438.5,-.5 302.5,-.5"/>
<text text-anchor="start" x="310.5" y="-29.5" font-family="Helvetica,sans-Serif" font-size="10.00" fill="#000000">BipedalLocomotion::</text>
<text text-anchor="start" x="310.5" y="-18.5" font-family="Helvetica,sans-Serif" font-size="10.00" fill="#000000">System::Advanceable</text>
<text text-anchor="middle" x="370.5" y="-7.5" font-family="Helvetica,sans-Serif" font-size="10.00" fill="#000000">&lt; SensorBridgeMetaData &gt;</text>
</a>
</g>
</g>
<!-- Node2&#45;&gt;Node0 -->
<g id="edge2" class="edge">
<title>Node2&#45;&gt;Node0</title>
<path fill="none" stroke="#191970" d="M448.743,-32.7039C459.7308,-34.3475 470.9604,-36.0273 481.7645,-37.6434"/>
<polygon fill="#191970" stroke="#191970" points="449.1471,-29.2255 438.7393,-31.2075 448.1115,-36.1485 449.1471,-29.2255"/>
</g>
<!-- Node3 -->
<g id="node4" class="node">
<title>Node3</title>
<g id="a_node4"><a xlink:href="classBipedalLocomotion_1_1System_1_1Advanceable.html" target="_top" xlink:title="Basic class that contains only a get() and an advance() method. ">
<polygon fill="none" stroke="#000000" points="0,-6 0,-36 137,-36 137,-6 0,-6"/>
<text text-anchor="start" x="8" y="-24" font-family="Helvetica,sans-Serif" font-size="10.00" fill="#000000">BipedalLocomotion::</text>
<text text-anchor="middle" x="68.5" y="-13" font-family="Helvetica,sans-Serif" font-size="10.00" fill="#000000">System::Advanceable&lt; T &gt;</text>
</a>
</g>
</g>
<!-- Node3&#45;&gt;Node2 -->
<g id="edge3" class="edge">
<title>Node3&#45;&gt;Node2</title>
<path fill="none" stroke="#ffa500" stroke-dasharray="5,2" d="M147.0897,-21C195.1999,-21 256.1589,-21 302.2427,-21"/>
<polygon fill="#ffa500" stroke="#ffa500" points="147.0285,-17.5001 137.0285,-21 147.0284,-24.5001 147.0285,-17.5001"/>
<text text-anchor="middle" x="216.5" y="-24" font-family="Helvetica,sans-Serif" font-size="10.00" fill="#000000"> &lt; SensorBridgeMetaData &gt;</text>
</g>
</g>
</svg>
