<?xml version="1.0" encoding="UTF-8" standalone="no"?>
<!DOCTYPE svg PUBLIC "-//W3C//DTD SVG 1.1//EN"
 "http://www.w3.org/Graphics/SVG/1.1/DTD/svg11.dtd">
<!-- Generated by graphviz version 2.40.1 (20161225.0304)
 -->
<!-- Title: BipedalLocomotion::Planners::QuinticSpline Pages: 1 -->
<svg width="180pt" height="196pt"
 viewBox="0.00 0.00 179.50 196.00" xmlns="http://www.w3.org/2000/svg" xmlns:xlink="http://www.w3.org/1999/xlink">
<g id="graph0" class="graph" transform="scale(1 1) rotate(0) translate(4 192)">
<title>BipedalLocomotion::Planners::QuinticSpline</title>
<!-- Node0 -->
<g id="node1" class="node">
<title>Node0</title>
<polygon fill="#bfbfbf" stroke="#000000" points="9,-.5 9,-30.5 128,-30.5 128,-.5 9,-.5"/>
<text text-anchor="start" x="17" y="-18.5" font-family="Helvetica,sans-Serif" font-size="10.00" fill="#000000">BipedalLocomotion::</text>
<text text-anchor="middle" x="68.5" y="-7.5" font-family="Helvetica,sans-Serif" font-size="10.00" fill="#000000">Planners::QuinticSpline</text>
</g>
<!-- Node1 -->
<g id="node2" class="node">
<title>Node1</title>
<g id="a_node2"><a xlink:href="classBipedalLocomotion_1_1System_1_1Advanceable.html" target="_top" xlink:title="BipedalLocomotion::\lSystem::Advanceable\l\&lt; QuinticSplineState \&gt;">
<polygon fill="none" stroke="#000000" points="10.5,-68.5 10.5,-109.5 126.5,-109.5 126.5,-68.5 10.5,-68.5"/>
<text text-anchor="start" x="18.5" y="-97.5" font-family="Helvetica,sans-Serif" font-size="10.00" fill="#000000">BipedalLocomotion::</text>
<text text-anchor="start" x="18.5" y="-86.5" font-family="Helvetica,sans-Serif" font-size="10.00" fill="#000000">System::Advanceable</text>
<text text-anchor="middle" x="68.5" y="-75.5" font-family="Helvetica,sans-Serif" font-size="10.00" fill="#000000">&lt; QuinticSplineState &gt;</text>
</a>
</g>
</g>
<!-- Node1&#45;&gt;Node0 -->
<g id="edge1" class="edge">
<title>Node1&#45;&gt;Node0</title>
<path fill="none" stroke="#191970" d="M68.5,-57.9048C68.5,-48.5365 68.5,-38.666 68.5,-30.8074"/>
<polygon fill="#191970" stroke="#191970" points="65.0001,-58.1344 68.5,-68.1345 72.0001,-58.1345 65.0001,-58.1344"/>
</g>
<!-- Node2 -->
<g id="node3" class="node">
<title>Node2</title>
<g id="a_node3"><a xlink:href="classBipedalLocomotion_1_1System_1_1Advanceable.html" target="_top" xlink:title="Basic class that contains only a get() and an advance() method. ">
<polygon fill="none" stroke="#000000" points="0,-157.5 0,-187.5 137,-187.5 137,-157.5 0,-157.5"/>
<text text-anchor="start" x="8" y="-175.5" font-family="Helvetica,sans-Serif" font-size="10.00" fill="#000000">BipedalLocomotion::</text>
<text text-anchor="middle" x="68.5" y="-164.5" font-family="Helvetica,sans-Serif" font-size="10.00" fill="#000000">System::Advanceable&lt; T &gt;</text>
</a>
</g>
</g>
<!-- Node2&#45;&gt;Node1 -->
<g id="edge2" class="edge">
<title>Node2&#45;&gt;Node1</title>
<path fill="none" stroke="#ffa500" stroke-dasharray="5,2" d="M68.5,-146.9112C68.5,-134.9282 68.5,-120.8447 68.5,-109.5668"/>
<polygon fill="#ffa500" stroke="#ffa500" points="65.0001,-147.1848 68.5,-157.1848 72.0001,-147.1848 65.0001,-147.1848"/>
<text text-anchor="middle" x="120" y="-131" font-family="Helvetica,sans-Serif" font-size="10.00" fill="#000000"> &lt; QuinticSplineState &gt;</text>
</g>
</g>
</svg>
