<?xml version="1.0" encoding="UTF-8" standalone="no"?>
<!DOCTYPE svg PUBLIC "-//W3C//DTD SVG 1.1//EN"
 "http://www.w3.org/Graphics/SVG/1.1/DTD/svg11.dtd">
<!-- Generated by graphviz version 2.40.1 (20161225.0304)
 -->
<!-- Title: BipedalLocomotion::Estimators::LeggedOdometry Pages: 1 -->
<svg width="210pt" height="286pt"
 viewBox="0.00 0.00 209.50 286.00" xmlns="http://www.w3.org/2000/svg" xmlns:xlink="http://www.w3.org/1999/xlink">
<g id="graph0" class="graph" transform="scale(1 1) rotate(0) translate(4 282)">
<title>BipedalLocomotion::Estimators::LeggedOdometry</title>
<!-- Node0 -->
<g id="node1" class="node">
<title>Node0</title>
<polygon fill="#bfbfbf" stroke="#000000" points="12.5,-.5 12.5,-30.5 156.5,-30.5 156.5,-.5 12.5,-.5"/>
<text text-anchor="start" x="20.5" y="-18.5" font-family="Helvetica,sans-Serif" font-size="10.00" fill="#000000">BipedalLocomotion::</text>
<text text-anchor="middle" x="84.5" y="-7.5" font-family="Helvetica,sans-Serif" font-size="10.00" fill="#000000">Estimators::LeggedOdometry</text>
</g>
<!-- Node1 -->
<g id="node2" class="node">
<title>Node1</title>
<g id="a_node2"><a xlink:href="classBipedalLocomotion_1_1Estimators_1_1FloatingBaseEstimator.html" target="_top" xlink:title="FloatingBaseEstimator class contains the bare&#45;bones implementation for a LeggedOdometry based or Exte...">
<polygon fill="none" stroke="#000000" points="0,-68.5 0,-98.5 169,-98.5 169,-68.5 0,-68.5"/>
<text text-anchor="start" x="8" y="-86.5" font-family="Helvetica,sans-Serif" font-size="10.00" fill="#000000">BipedalLocomotion::</text>
<text text-anchor="middle" x="84.5" y="-75.5" font-family="Helvetica,sans-Serif" font-size="10.00" fill="#000000">Estimators::FloatingBaseEstimator</text>
</a>
</g>
</g>
<!-- Node1&#45;&gt;Node0 -->
<g id="edge1" class="edge">
<title>Node1&#45;&gt;Node0</title>
<path fill="none" stroke="#191970" d="M84.5,-58.1174C84.5,-48.8378 84.5,-38.6413 84.5,-30.5492"/>
<polygon fill="#191970" stroke="#191970" points="81.0001,-58.4086 84.5,-68.4086 88.0001,-58.4086 81.0001,-58.4086"/>
</g>
<!-- Node2 -->
<g id="node3" class="node">
<title>Node2</title>
<g id="a_node3"><a xlink:href="classBipedalLocomotion_1_1System_1_1Advanceable.html" target="_top" xlink:title="BipedalLocomotion::\lSystem::Advanceable\l\&lt; FloatingBaseEstimators\l::Output \&gt;">
<polygon fill="none" stroke="#000000" points="19.5,-136.5 19.5,-188.5 149.5,-188.5 149.5,-136.5 19.5,-136.5"/>
<text text-anchor="start" x="27.5" y="-176.5" font-family="Helvetica,sans-Serif" font-size="10.00" fill="#000000">BipedalLocomotion::</text>
<text text-anchor="start" x="27.5" y="-165.5" font-family="Helvetica,sans-Serif" font-size="10.00" fill="#000000">System::Advanceable</text>
<text text-anchor="start" x="27.5" y="-154.5" font-family="Helvetica,sans-Serif" font-size="10.00" fill="#000000">&lt; FloatingBaseEstimators</text>
<text text-anchor="middle" x="84.5" y="-143.5" font-family="Helvetica,sans-Serif" font-size="10.00" fill="#000000">::Output &gt;</text>
</a>
</g>
</g>
<!-- Node2&#45;&gt;Node1 -->
<g id="edge2" class="edge">
<title>Node2&#45;&gt;Node1</title>
<path fill="none" stroke="#191970" d="M84.5,-126.0152C84.5,-116.4501 84.5,-106.648 84.5,-98.8696"/>
<polygon fill="#191970" stroke="#191970" points="81.0001,-126.1941 84.5,-136.1941 88.0001,-126.1942 81.0001,-126.1941"/>
</g>
<!-- Node3 -->
<g id="node4" class="node">
<title>Node3</title>
<g id="a_node4"><a xlink:href="classBipedalLocomotion_1_1System_1_1Advanceable.html" target="_top" xlink:title="Basic class that contains only a get() and an advance() method. ">
<polygon fill="none" stroke="#000000" points="16,-247.5 16,-277.5 153,-277.5 153,-247.5 16,-247.5"/>
<text text-anchor="start" x="24" y="-265.5" font-family="Helvetica,sans-Serif" font-size="10.00" fill="#000000">BipedalLocomotion::</text>
<text text-anchor="middle" x="84.5" y="-254.5" font-family="Helvetica,sans-Serif" font-size="10.00" fill="#000000">System::Advanceable&lt; T &gt;</text>
</a>
</g>
</g>
<!-- Node3&#45;&gt;Node2 -->
<g id="edge3" class="edge">
<title>Node3&#45;&gt;Node2</title>
<path fill="none" stroke="#ffa500" stroke-dasharray="5,2" d="M84.5,-236.8797C84.5,-222.1205 84.5,-203.6086 84.5,-188.7452"/>
<polygon fill="#ffa500" stroke="#ffa500" points="81.0001,-237.3121 84.5,-247.3122 88.0001,-237.3122 81.0001,-237.3121"/>
<text text-anchor="start" x="84.5" y="-221" font-family="Helvetica,sans-Serif" font-size="10.00" fill="#000000"> &lt; FloatingBaseEstimators</text>
<text text-anchor="middle" x="143" y="-210" font-family="Helvetica,sans-Serif" font-size="10.00" fill="#000000">::Output &gt;</text>
</g>
</g>
</svg>
