<?xml version="1.0" encoding="UTF-8" standalone="no"?>
<!DOCTYPE svg PUBLIC "-//W3C//DTD SVG 1.1//EN"
 "http://www.w3.org/Graphics/SVG/1.1/DTD/svg11.dtd">
<!-- Generated by graphviz version 2.40.1 (20161225.0304)
 -->
<!-- Title: BipedalLocomotion::Estimators::InvariantEKFBaseEstimator Pages: 1 -->
<svg width="210pt" height="297pt"
 viewBox="0.00 0.00 209.50 297.00" xmlns="http://www.w3.org/2000/svg" xmlns:xlink="http://www.w3.org/1999/xlink">
<g id="graph0" class="graph" transform="scale(1 1) rotate(0) translate(4 293)">
<title>BipedalLocomotion::Estimators::InvariantEKFBaseEstimator</title>
<!-- Node0 -->
<g id="node1" class="node">
<title>Node0</title>
<polygon fill="#bfbfbf" stroke="#000000" points="10,-.5 10,-41.5 159,-41.5 159,-.5 10,-.5"/>
<text text-anchor="start" x="18" y="-29.5" font-family="Helvetica,sans-Serif" font-size="10.00" fill="#000000">BipedalLocomotion::</text>
<text text-anchor="start" x="18" y="-18.5" font-family="Helvetica,sans-Serif" font-size="10.00" fill="#000000">Estimators::InvariantEKFBase</text>
<text text-anchor="middle" x="84.5" y="-7.5" font-family="Helvetica,sans-Serif" font-size="10.00" fill="#000000">Estimator</text>
</g>
<!-- Node1 -->
<g id="node2" class="node">
<title>Node1</title>
<g id="a_node2"><a xlink:href="classBipedalLocomotion_1_1Estimators_1_1FloatingBaseEstimator.html" target="_top" xlink:title="FloatingBaseEstimator class contains the bare&#45;bones implementation for a LeggedOdometry based or Exte...">
<polygon fill="none" stroke="#000000" points="0,-79.5 0,-109.5 169,-109.5 169,-79.5 0,-79.5"/>
<text text-anchor="start" x="8" y="-97.5" font-family="Helvetica,sans-Serif" font-size="10.00" fill="#000000">BipedalLocomotion::</text>
<text text-anchor="middle" x="84.5" y="-86.5" font-family="Helvetica,sans-Serif" font-size="10.00" fill="#000000">Estimators::FloatingBaseEstimator</text>
</a>
</g>
</g>
<!-- Node1&#45;&gt;Node0 -->
<g id="edge1" class="edge">
<title>Node1&#45;&gt;Node0</title>
<path fill="none" stroke="#191970" d="M84.5,-69.2668C84.5,-60.2098 84.5,-50.1146 84.5,-41.5074"/>
<polygon fill="#191970" stroke="#191970" points="81.0001,-69.2707 84.5,-79.2708 88.0001,-69.2708 81.0001,-69.2707"/>
</g>
<!-- Node2 -->
<g id="node3" class="node">
<title>Node2</title>
<g id="a_node3"><a xlink:href="classBipedalLocomotion_1_1System_1_1Advanceable.html" target="_top" xlink:title="BipedalLocomotion::\lSystem::Advanceable\l\&lt; FloatingBaseEstimators\l::Output \&gt;">
<polygon fill="none" stroke="#000000" points="19.5,-147.5 19.5,-199.5 149.5,-199.5 149.5,-147.5 19.5,-147.5"/>
<text text-anchor="start" x="27.5" y="-187.5" font-family="Helvetica,sans-Serif" font-size="10.00" fill="#000000">BipedalLocomotion::</text>
<text text-anchor="start" x="27.5" y="-176.5" font-family="Helvetica,sans-Serif" font-size="10.00" fill="#000000">System::Advanceable</text>
<text text-anchor="start" x="27.5" y="-165.5" font-family="Helvetica,sans-Serif" font-size="10.00" fill="#000000">&lt; FloatingBaseEstimators</text>
<text text-anchor="middle" x="84.5" y="-154.5" font-family="Helvetica,sans-Serif" font-size="10.00" fill="#000000">::Output &gt;</text>
</a>
</g>
</g>
<!-- Node2&#45;&gt;Node1 -->
<g id="edge2" class="edge">
<title>Node2&#45;&gt;Node1</title>
<path fill="none" stroke="#191970" d="M84.5,-137.0152C84.5,-127.4501 84.5,-117.648 84.5,-109.8696"/>
<polygon fill="#191970" stroke="#191970" points="81.0001,-137.1941 84.5,-147.1941 88.0001,-137.1942 81.0001,-137.1941"/>
</g>
<!-- Node3 -->
<g id="node4" class="node">
<title>Node3</title>
<g id="a_node4"><a xlink:href="classBipedalLocomotion_1_1System_1_1Advanceable.html" target="_top" xlink:title="Basic class that contains only a get() and an advance() method. ">
<polygon fill="none" stroke="#000000" points="16,-258.5 16,-288.5 153,-288.5 153,-258.5 16,-258.5"/>
<text text-anchor="start" x="24" y="-276.5" font-family="Helvetica,sans-Serif" font-size="10.00" fill="#000000">BipedalLocomotion::</text>
<text text-anchor="middle" x="84.5" y="-265.5" font-family="Helvetica,sans-Serif" font-size="10.00" fill="#000000">System::Advanceable&lt; T &gt;</text>
</a>
</g>
</g>
<!-- Node3&#45;&gt;Node2 -->
<g id="edge3" class="edge">
<title>Node3&#45;&gt;Node2</title>
<path fill="none" stroke="#ffa500" stroke-dasharray="5,2" d="M84.5,-247.8797C84.5,-233.1205 84.5,-214.6086 84.5,-199.7452"/>
<polygon fill="#ffa500" stroke="#ffa500" points="81.0001,-248.3121 84.5,-258.3122 88.0001,-248.3122 81.0001,-248.3121"/>
<text text-anchor="start" x="84.5" y="-232" font-family="Helvetica,sans-Serif" font-size="10.00" fill="#000000"> &lt; FloatingBaseEstimators</text>
<text text-anchor="middle" x="143" y="-221" font-family="Helvetica,sans-Serif" font-size="10.00" fill="#000000">::Output &gt;</text>
</g>
</g>
</svg>
