<?xml version="1.0" encoding="UTF-8" standalone="no"?>
<!DOCTYPE svg PUBLIC "-//W3C//DTD SVG 1.1//EN"
 "http://www.w3.org/Graphics/SVG/1.1/DTD/svg11.dtd">
<!-- Generated by graphviz version 2.40.1 (20161225.0304)
 -->
<!-- Title: BipedalLocomotion::TSID::Task Pages: 1 -->
<svg width="287pt" height="186pt"
 viewBox="0.00 0.00 287.00 186.00" xmlns="http://www.w3.org/2000/svg" xmlns:xlink="http://www.w3.org/1999/xlink">
<g id="graph0" class="graph" transform="scale(1 1) rotate(0) translate(4 182)">
<title>BipedalLocomotion::TSID::Task</title>
<!-- Node0 -->
<g id="node1" class="node">
<title>Node0</title>
<polygon fill="#bfbfbf" stroke="#000000" points="0,-73.5 0,-103.5 105,-103.5 105,-73.5 0,-73.5"/>
<text text-anchor="start" x="8" y="-91.5" font-family="Helvetica,sans-Serif" font-size="10.00" fill="#000000">BipedalLocomotion::</text>
<text text-anchor="middle" x="52.5" y="-80.5" font-family="Helvetica,sans-Serif" font-size="10.00" fill="#000000">TSID::Task</text>
</g>
<!-- Node1 -->
<g id="node2" class="node">
<title>Node1</title>
<g id="a_node2"><a xlink:href="classBipedalLocomotion_1_1TSID_1_1BaseDynamicsTask.html" target="_top" xlink:title="BaseDynamicsTask is a concrete implementation of the Task. ">
<polygon fill="none" stroke="#000000" points="143,-147.5 143,-177.5 277,-177.5 277,-147.5 143,-147.5"/>
<text text-anchor="start" x="151" y="-165.5" font-family="Helvetica,sans-Serif" font-size="10.00" fill="#000000">BipedalLocomotion::</text>
<text text-anchor="middle" x="210" y="-154.5" font-family="Helvetica,sans-Serif" font-size="10.00" fill="#000000">TSID::BaseDynamicsTask</text>
</a>
</g>
</g>
<!-- Node0&#45;&gt;Node1 -->
<g id="edge1" class="edge">
<title>Node0&#45;&gt;Node1</title>
<path fill="none" stroke="#191970" d="M84.9808,-108.7088C101.4059,-118.4446 121.8688,-129.853 141,-138.5 148.05,-141.6865 155.658,-144.7171 163.1576,-147.4852"/>
<polygon fill="#191970" stroke="#191970" points="86.6804,-105.6469 76.3053,-103.5003 83.0773,-111.6484 86.6804,-105.6469"/>
</g>
<!-- Node2 -->
<g id="node3" class="node">
<title>Node2</title>
<g id="a_node3"><a xlink:href="classBipedalLocomotion_1_1TSID_1_1JointsDynamicsTask.html" target="_top" xlink:title="JointsDynamicsTask is a concrete implementation of the Task. ">
<polygon fill="none" stroke="#000000" points="141,-98.5 141,-128.5 279,-128.5 279,-98.5 141,-98.5"/>
<text text-anchor="start" x="149" y="-116.5" font-family="Helvetica,sans-Serif" font-size="10.00" fill="#000000">BipedalLocomotion::</text>
<text text-anchor="middle" x="210" y="-105.5" font-family="Helvetica,sans-Serif" font-size="10.00" fill="#000000">TSID::JointsDynamicsTask</text>
</a>
</g>
</g>
<!-- Node0&#45;&gt;Node2 -->
<g id="edge2" class="edge">
<title>Node0&#45;&gt;Node2</title>
<path fill="none" stroke="#191970" d="M115.4011,-98.4843C123.7361,-99.8073 132.3181,-101.1695 140.7526,-102.5083"/>
<polygon fill="#191970" stroke="#191970" points="115.8084,-95.0052 105.3834,-96.8942 114.711,-101.9187 115.8084,-95.0052"/>
</g>
<!-- Node3 -->
<g id="node4" class="node">
<title>Node3</title>
<g id="a_node4"><a xlink:href="classBipedalLocomotion_1_1TSID_1_1JointsTrackingTask.html" target="_top" xlink:title="JointsTrackingTask is a concrete implementation of the Task. ">
<polygon fill="none" stroke="#000000" points="144.5,-49.5 144.5,-79.5 275.5,-79.5 275.5,-49.5 144.5,-49.5"/>
<text text-anchor="start" x="152.5" y="-67.5" font-family="Helvetica,sans-Serif" font-size="10.00" fill="#000000">BipedalLocomotion::</text>
<text text-anchor="middle" x="210" y="-56.5" font-family="Helvetica,sans-Serif" font-size="10.00" fill="#000000">TSID::JointsTrackingTask</text>
</a>
</g>
</g>
<!-- Node0&#45;&gt;Node3 -->
<g id="edge3" class="edge">
<title>Node0&#45;&gt;Node3</title>
<path fill="none" stroke="#191970" d="M115.5331,-78.895C125.0271,-77.4483 134.8388,-75.9531 144.3855,-74.4984"/>
<polygon fill="#191970" stroke="#191970" points="114.742,-75.475 105.3834,-80.4416 115.7965,-82.3951 114.742,-75.475"/>
</g>
<!-- Node4 -->
<g id="node5" class="node">
<title>Node4</title>
<g id="a_node5"><a xlink:href="classBipedalLocomotion_1_1TSID_1_1SE3Task.html" target="_top" xlink:title="SE3Task is a concrete implementation of the OptimalControlElement. ">
<polygon fill="none" stroke="#000000" points="157.5,-.5 157.5,-30.5 262.5,-30.5 262.5,-.5 157.5,-.5"/>
<text text-anchor="start" x="165.5" y="-18.5" font-family="Helvetica,sans-Serif" font-size="10.00" fill="#000000">BipedalLocomotion::</text>
<text text-anchor="middle" x="210" y="-7.5" font-family="Helvetica,sans-Serif" font-size="10.00" fill="#000000">TSID::SE3Task</text>
</a>
</g>
</g>
<!-- Node0&#45;&gt;Node4 -->
<g id="edge4" class="edge">
<title>Node0&#45;&gt;Node4</title>
<path fill="none" stroke="#191970" d="M86.9828,-68.2407C103.1071,-59.1741 122.7409,-48.7042 141,-40.5 148.7867,-37.0013 157.2238,-33.6215 165.4375,-30.5381"/>
<polygon fill="#191970" stroke="#191970" points="84.8933,-65.4026 77.9315,-73.3891 88.3542,-71.4872 84.8933,-65.4026"/>
</g>
</g>
</svg>
