<?xml version="1.0" encoding="UTF-8" standalone="no"?>
<!DOCTYPE svg PUBLIC "-//W3C//DTD SVG 1.1//EN"
 "http://www.w3.org/Graphics/SVG/1.1/DTD/svg11.dtd">
<!-- Generated by graphviz version 2.40.1 (20161225.0304)
 -->
<!-- Title: BipedalLocomotion::Planners::TimeVaryingDCMPlanner Pages: 1 -->
<svg width="195pt" height="264pt"
 viewBox="0.00 0.00 195.00 264.00" xmlns="http://www.w3.org/2000/svg" xmlns:xlink="http://www.w3.org/1999/xlink">
<g id="graph0" class="graph" transform="scale(1 1) rotate(0) translate(4 260)">
<title>BipedalLocomotion::Planners::TimeVaryingDCMPlanner</title>
<!-- Node0 -->
<g id="node1" class="node">
<title>Node0</title>
<polygon fill="#bfbfbf" stroke="#000000" points="0,-.5 0,-30.5 172,-30.5 172,-.5 0,-.5"/>
<text text-anchor="start" x="8" y="-18.5" font-family="Helvetica,sans-Serif" font-size="10.00" fill="#000000">BipedalLocomotion::</text>
<text text-anchor="middle" x="86" y="-7.5" font-family="Helvetica,sans-Serif" font-size="10.00" fill="#000000">Planners::TimeVaryingDCMPlanner</text>
</g>
<!-- Node1 -->
<g id="node2" class="node">
<title>Node1</title>
<g id="a_node2"><a xlink:href="classBipedalLocomotion_1_1Planners_1_1DCMPlanner.html" target="_top" xlink:title="DCMPlanner defines a trajectory generator for the variable height Divergent component of motion (DCM)...">
<polygon fill="none" stroke="#000000" points="27.5,-68.5 27.5,-98.5 144.5,-98.5 144.5,-68.5 27.5,-68.5"/>
<text text-anchor="start" x="35.5" y="-86.5" font-family="Helvetica,sans-Serif" font-size="10.00" fill="#000000">BipedalLocomotion::</text>
<text text-anchor="middle" x="86" y="-75.5" font-family="Helvetica,sans-Serif" font-size="10.00" fill="#000000">Planners::DCMPlanner</text>
</a>
</g>
</g>
<!-- Node1&#45;&gt;Node0 -->
<g id="edge1" class="edge">
<title>Node1&#45;&gt;Node0</title>
<path fill="none" stroke="#191970" d="M86,-58.1174C86,-48.8378 86,-38.6413 86,-30.5492"/>
<polygon fill="#191970" stroke="#191970" points="82.5001,-58.4086 86,-68.4086 89.5001,-58.4086 82.5001,-58.4086"/>
</g>
<!-- Node2 -->
<g id="node3" class="node">
<title>Node2</title>
<g id="a_node3"><a xlink:href="classBipedalLocomotion_1_1System_1_1Advanceable.html" target="_top" xlink:title="BipedalLocomotion::\lSystem::Advanceable\l\&lt; DCMPlannerState \&gt;">
<polygon fill="none" stroke="#000000" points="29,-136.5 29,-177.5 143,-177.5 143,-136.5 29,-136.5"/>
<text text-anchor="start" x="37" y="-165.5" font-family="Helvetica,sans-Serif" font-size="10.00" fill="#000000">BipedalLocomotion::</text>
<text text-anchor="start" x="37" y="-154.5" font-family="Helvetica,sans-Serif" font-size="10.00" fill="#000000">System::Advanceable</text>
<text text-anchor="middle" x="86" y="-143.5" font-family="Helvetica,sans-Serif" font-size="10.00" fill="#000000">&lt; DCMPlannerState &gt;</text>
</a>
</g>
</g>
<!-- Node2&#45;&gt;Node1 -->
<g id="edge2" class="edge">
<title>Node2&#45;&gt;Node1</title>
<path fill="none" stroke="#191970" d="M86,-125.9048C86,-116.5365 86,-106.666 86,-98.8074"/>
<polygon fill="#191970" stroke="#191970" points="82.5001,-126.1344 86,-136.1345 89.5001,-126.1345 82.5001,-126.1344"/>
</g>
<!-- Node3 -->
<g id="node4" class="node">
<title>Node3</title>
<g id="a_node4"><a xlink:href="classBipedalLocomotion_1_1System_1_1Advanceable.html" target="_top" xlink:title="Basic class that contains only a get() and an advance() method. ">
<polygon fill="none" stroke="#000000" points="17.5,-225.5 17.5,-255.5 154.5,-255.5 154.5,-225.5 17.5,-225.5"/>
<text text-anchor="start" x="25.5" y="-243.5" font-family="Helvetica,sans-Serif" font-size="10.00" fill="#000000">BipedalLocomotion::</text>
<text text-anchor="middle" x="86" y="-232.5" font-family="Helvetica,sans-Serif" font-size="10.00" fill="#000000">System::Advanceable&lt; T &gt;</text>
</a>
</g>
</g>
<!-- Node3&#45;&gt;Node2 -->
<g id="edge3" class="edge">
<title>Node3&#45;&gt;Node2</title>
<path fill="none" stroke="#ffa500" stroke-dasharray="5,2" d="M86,-214.9112C86,-202.9282 86,-188.8447 86,-177.5668"/>
<polygon fill="#ffa500" stroke="#ffa500" points="82.5001,-215.1848 86,-225.1848 89.5001,-215.1848 82.5001,-215.1848"/>
<text text-anchor="middle" x="136.5" y="-199" font-family="Helvetica,sans-Serif" font-size="10.00" fill="#000000"> &lt; DCMPlannerState &gt;</text>
</g>
</g>
</svg>
