<?xml version="1.0" encoding="UTF-8" standalone="no"?>
<!DOCTYPE svg PUBLIC "-//W3C//DTD SVG 1.1//EN"
 "http://www.w3.org/Graphics/SVG/1.1/DTD/svg11.dtd">
<!-- Generated by graphviz version 2.40.1 (20161225.0304)
 -->
<!-- Title: BipedalLocomotion::System::Integrator&lt; DynamicalSystemDerived &gt; Pages: 1 -->
<svg width="157pt" height="206pt"
 viewBox="0.00 0.00 157.00 206.00" xmlns="http://www.w3.org/2000/svg" xmlns:xlink="http://www.w3.org/1999/xlink">
<g id="graph0" class="graph" transform="scale(1 1) rotate(0) translate(4 202)">
<title>BipedalLocomotion::System::Integrator&lt; DynamicalSystemDerived &gt;</title>
<!-- Node0 -->
<g id="node1" class="node">
<title>Node0</title>
<polygon fill="#bfbfbf" stroke="#000000" points="3,-156.5 3,-197.5 146,-197.5 146,-156.5 3,-156.5"/>
<text text-anchor="start" x="11" y="-185.5" font-family="Helvetica,sans-Serif" font-size="10.00" fill="#000000">BipedalLocomotion::</text>
<text text-anchor="start" x="11" y="-174.5" font-family="Helvetica,sans-Serif" font-size="10.00" fill="#000000">System::Integrator&lt;</text>
<text text-anchor="middle" x="74.5" y="-163.5" font-family="Helvetica,sans-Serif" font-size="10.00" fill="#000000"> DynamicalSystemDerived &gt;</text>
</g>
<!-- Node1 -->
<g id="node2" class="node">
<title>Node1</title>
<g id="a_node2"><a xlink:href="classBipedalLocomotion_1_1System_1_1FixedStepIntegrator.html" target="_top" xlink:title="Fixed step integrator base class. ">
<polygon fill="none" stroke="#000000" points="0,-78.5 0,-119.5 149,-119.5 149,-78.5 0,-78.5"/>
<text text-anchor="start" x="8" y="-107.5" font-family="Helvetica,sans-Serif" font-size="10.00" fill="#000000">BipedalLocomotion::</text>
<text text-anchor="start" x="8" y="-96.5" font-family="Helvetica,sans-Serif" font-size="10.00" fill="#000000">System::FixedStepIntegrator</text>
<text text-anchor="middle" x="74.5" y="-85.5" font-family="Helvetica,sans-Serif" font-size="10.00" fill="#000000">&lt; DynamicalSystemDerived &gt;</text>
</a>
</g>
</g>
<!-- Node0&#45;&gt;Node1 -->
<g id="edge1" class="edge">
<title>Node0&#45;&gt;Node1</title>
<path fill="none" stroke="#191970" d="M74.5,-146.0789C74.5,-137.2178 74.5,-127.7747 74.5,-119.6898"/>
<polygon fill="#191970" stroke="#191970" points="71.0001,-146.0974 74.5,-156.0974 78.0001,-146.0975 71.0001,-146.0974"/>
</g>
<!-- Node2 -->
<g id="node3" class="node">
<title>Node2</title>
<g id="a_node3"><a xlink:href="classBipedalLocomotion_1_1System_1_1ForwardEuler.html" target="_top" xlink:title="Forward Euler integration method. ">
<polygon fill="none" stroke="#000000" points="0,-.5 0,-41.5 149,-41.5 149,-.5 0,-.5"/>
<text text-anchor="start" x="8" y="-29.5" font-family="Helvetica,sans-Serif" font-size="10.00" fill="#000000">BipedalLocomotion::</text>
<text text-anchor="start" x="8" y="-18.5" font-family="Helvetica,sans-Serif" font-size="10.00" fill="#000000">System::ForwardEuler</text>
<text text-anchor="middle" x="74.5" y="-7.5" font-family="Helvetica,sans-Serif" font-size="10.00" fill="#000000">&lt; DynamicalSystemDerived &gt;</text>
</a>
</g>
</g>
<!-- Node1&#45;&gt;Node2 -->
<g id="edge2" class="edge">
<title>Node1&#45;&gt;Node2</title>
<path fill="none" stroke="#191970" d="M74.5,-68.0789C74.5,-59.2178 74.5,-49.7747 74.5,-41.6898"/>
<polygon fill="#191970" stroke="#191970" points="71.0001,-68.0974 74.5,-78.0974 78.0001,-68.0975 71.0001,-68.0974"/>
</g>
</g>
</svg>
