<?xml version="1.0" encoding="UTF-8" standalone="no"?>
<!DOCTYPE svg PUBLIC "-//W3C//DTD SVG 1.1//EN"
 "http://www.w3.org/Graphics/SVG/1.1/DTD/svg11.dtd">
<!-- Generated by graphviz version 2.40.1 (20161225.0304)
 -->
<!-- Title: BipedalLocomotion::ParametersHandler::IParametersHandler Pages: 1 -->
<svg width="398pt" height="88pt"
 viewBox="0.00 0.00 398.00 88.00" xmlns="http://www.w3.org/2000/svg" xmlns:xlink="http://www.w3.org/1999/xlink">
<g id="graph0" class="graph" transform="scale(1 1) rotate(0) translate(4 84)">
<title>BipedalLocomotion::ParametersHandler::IParametersHandler</title>
<!-- Node0 -->
<g id="node1" class="node">
<title>Node0</title>
<polygon fill="#bfbfbf" stroke="#000000" points="0,-19 0,-60 160,-60 160,-19 0,-19"/>
<text text-anchor="start" x="8" y="-48" font-family="Helvetica,sans-Serif" font-size="10.00" fill="#000000">BipedalLocomotion::</text>
<text text-anchor="start" x="8" y="-37" font-family="Helvetica,sans-Serif" font-size="10.00" fill="#000000">ParametersHandler::IParameters</text>
<text text-anchor="middle" x="80" y="-26" font-family="Helvetica,sans-Serif" font-size="10.00" fill="#000000">Handler</text>
</g>
<!-- Node1 -->
<g id="node2" class="node">
<title>Node1</title>
<g id="a_node2"><a xlink:href="classBipedalLocomotion_1_1ParametersHandler_1_1StdImplementation.html" target="_top" xlink:title="Parameters handler interface. ">
<polygon fill="none" stroke="#000000" points="199,-49.5 199,-79.5 387,-79.5 387,-49.5 199,-49.5"/>
<text text-anchor="start" x="207" y="-67.5" font-family="Helvetica,sans-Serif" font-size="10.00" fill="#000000">BipedalLocomotion::</text>
<text text-anchor="middle" x="293" y="-56.5" font-family="Helvetica,sans-Serif" font-size="10.00" fill="#000000">ParametersHandler::StdImplementation</text>
</a>
</g>
</g>
<!-- Node0&#45;&gt;Node1 -->
<g id="edge1" class="edge">
<title>Node0&#45;&gt;Node1</title>
<path fill="none" stroke="#191970" d="M170.3745,-50.1073C179.8059,-51.2143 189.4101,-52.3416 198.8818,-53.4533"/>
<polygon fill="#191970" stroke="#191970" points="170.5625,-46.6055 160.2227,-48.9158 169.7465,-53.5577 170.5625,-46.6055"/>
</g>
<!-- Node2 -->
<g id="node3" class="node">
<title>Node2</title>
<g id="a_node3"><a xlink:href="classBipedalLocomotion_1_1ParametersHandler_1_1YarpImplementation.html" target="_top" xlink:title="YarpImplementation Yarp implementation of the IParametersHandler interface. ">
<polygon fill="none" stroke="#000000" points="196,-.5 196,-30.5 390,-30.5 390,-.5 196,-.5"/>
<text text-anchor="start" x="204" y="-18.5" font-family="Helvetica,sans-Serif" font-size="10.00" fill="#000000">BipedalLocomotion::</text>
<text text-anchor="middle" x="293" y="-7.5" font-family="Helvetica,sans-Serif" font-size="10.00" fill="#000000">ParametersHandler::YarpImplementation</text>
</a>
</g>
</g>
<!-- Node0&#45;&gt;Node2 -->
<g id="edge2" class="edge">
<title>Node0&#45;&gt;Node2</title>
<path fill="none" stroke="#191970" d="M170.1664,-29.3404C178.7047,-28.3783 187.3864,-27.4001 195.9851,-26.4313"/>
<polygon fill="#191970" stroke="#191970" points="169.7679,-25.8631 160.2227,-30.4608 170.5517,-32.8191 169.7679,-25.8631"/>
</g>
</g>
</svg>
