<?xml version="1.0" encoding="UTF-8" standalone="no"?>
<!DOCTYPE svg PUBLIC "-//W3C//DTD SVG 1.1//EN"
 "http://www.w3.org/Graphics/SVG/1.1/DTD/svg11.dtd">
<!-- Generated by graphviz version 2.40.1 (20161225.0304)
 -->
<!-- Title: BipedalLocomotion::Estimators::FloatingBaseEstimator Pages: 1 -->
<svg width="820pt" height="100pt"
 viewBox="0.00 0.00 820.00 99.50" xmlns="http://www.w3.org/2000/svg" xmlns:xlink="http://www.w3.org/1999/xlink">
<g id="graph0" class="graph" transform="scale(1 1) rotate(0) translate(4 95.5)">
<title>BipedalLocomotion::Estimators::FloatingBaseEstimator</title>
<!-- Node0 -->
<g id="node1" class="node">
<title>Node0</title>
<polygon fill="#bfbfbf" stroke="#000000" points="457,-27.5 457,-57.5 626,-57.5 626,-27.5 457,-27.5"/>
<text text-anchor="start" x="465" y="-45.5" font-family="Helvetica,sans-Serif" font-size="10.00" fill="#000000">BipedalLocomotion::</text>
<text text-anchor="middle" x="541.5" y="-34.5" font-family="Helvetica,sans-Serif" font-size="10.00" fill="#000000">Estimators::FloatingBaseEstimator</text>
</g>
<!-- Node3 -->
<g id="node4" class="node">
<title>Node3</title>
<g id="a_node4"><a xlink:href="classBipedalLocomotion_1_1Estimators_1_1InvariantEKFBaseEstimator.html" target="_top" xlink:title="InvariantEKFBaseEstimator class implements the Contact Aided Invariant EKF algorithm, developed by Ross Hartley, Maani Ghaffari, Ryan M. ">
<polygon fill="none" stroke="#000000" points="663,-50 663,-91 812,-91 812,-50 663,-50"/>
<text text-anchor="start" x="671" y="-79" font-family="Helvetica,sans-Serif" font-size="10.00" fill="#000000">BipedalLocomotion::</text>
<text text-anchor="start" x="671" y="-68" font-family="Helvetica,sans-Serif" font-size="10.00" fill="#000000">Estimators::InvariantEKFBase</text>
<text text-anchor="middle" x="737.5" y="-57" font-family="Helvetica,sans-Serif" font-size="10.00" fill="#000000">Estimator</text>
</a>
</g>
</g>
<!-- Node0&#45;&gt;Node3 -->
<g id="edge3" class="edge">
<title>Node0&#45;&gt;Node3</title>
<path fill="none" stroke="#191970" d="M636.1206,-56.0172C645.0741,-57.2963 654.0653,-58.5808 662.7947,-59.8278"/>
<polygon fill="#191970" stroke="#191970" points="636.4383,-52.5272 626.0438,-54.5777 635.4483,-59.4568 636.4383,-52.5272"/>
</g>
<!-- Node4 -->
<g id="node5" class="node">
<title>Node4</title>
<g id="a_node5"><a xlink:href="classBipedalLocomotion_1_1Estimators_1_1LeggedOdometry.html" target="_top" xlink:title="Floating base estimation algorithm using only kinematic measurements by assuming atleast one frame on...">
<polygon fill="none" stroke="#000000" points="665.5,-.5 665.5,-30.5 809.5,-30.5 809.5,-.5 665.5,-.5"/>
<text text-anchor="start" x="673.5" y="-18.5" font-family="Helvetica,sans-Serif" font-size="10.00" fill="#000000">BipedalLocomotion::</text>
<text text-anchor="middle" x="737.5" y="-7.5" font-family="Helvetica,sans-Serif" font-size="10.00" fill="#000000">Estimators::LeggedOdometry</text>
</a>
</g>
</g>
<!-- Node0&#45;&gt;Node4 -->
<g id="edge4" class="edge">
<title>Node0&#45;&gt;Node4</title>
<path fill="none" stroke="#191970" d="M636.1891,-29.4561C645.9555,-28.1107 655.7657,-26.7593 665.2313,-25.4554"/>
<polygon fill="#191970" stroke="#191970" points="635.4725,-26.0217 626.0438,-30.8537 636.4279,-32.9562 635.4725,-26.0217"/>
</g>
<!-- Node1 -->
<g id="node2" class="node">
<title>Node1</title>
<g id="a_node2"><a xlink:href="classBipedalLocomotion_1_1System_1_1Advanceable.html" target="_top" xlink:title="BipedalLocomotion::\lSystem::Advanceable\l\&lt; FloatingBaseEstimators\l::Output \&gt;">
<polygon fill="none" stroke="#000000" points="290,-16.5 290,-68.5 420,-68.5 420,-16.5 290,-16.5"/>
<text text-anchor="start" x="298" y="-56.5" font-family="Helvetica,sans-Serif" font-size="10.00" fill="#000000">BipedalLocomotion::</text>
<text text-anchor="start" x="298" y="-45.5" font-family="Helvetica,sans-Serif" font-size="10.00" fill="#000000">System::Advanceable</text>
<text text-anchor="start" x="298" y="-34.5" font-family="Helvetica,sans-Serif" font-size="10.00" fill="#000000">&lt; FloatingBaseEstimators</text>
<text text-anchor="middle" x="355" y="-23.5" font-family="Helvetica,sans-Serif" font-size="10.00" fill="#000000">::Output &gt;</text>
</a>
</g>
</g>
<!-- Node1&#45;&gt;Node0 -->
<g id="edge1" class="edge">
<title>Node1&#45;&gt;Node0</title>
<path fill="none" stroke="#191970" d="M430.3827,-42.5C439.1344,-42.5 448.1042,-42.5 456.968,-42.5"/>
<polygon fill="#191970" stroke="#191970" points="430.2287,-39.0001 420.2286,-42.5 430.2286,-46.0001 430.2287,-39.0001"/>
</g>
<!-- Node2 -->
<g id="node3" class="node">
<title>Node2</title>
<g id="a_node3"><a xlink:href="classBipedalLocomotion_1_1System_1_1Advanceable.html" target="_top" xlink:title="Basic class that contains only a get() and an advance() method. ">
<polygon fill="none" stroke="#000000" points="0,-27.5 0,-57.5 137,-57.5 137,-27.5 0,-27.5"/>
<text text-anchor="start" x="8" y="-45.5" font-family="Helvetica,sans-Serif" font-size="10.00" fill="#000000">BipedalLocomotion::</text>
<text text-anchor="middle" x="68.5" y="-34.5" font-family="Helvetica,sans-Serif" font-size="10.00" fill="#000000">System::Advanceable&lt; T &gt;</text>
</a>
</g>
</g>
<!-- Node2&#45;&gt;Node1 -->
<g id="edge2" class="edge">
<title>Node2&#45;&gt;Node1</title>
<path fill="none" stroke="#ffa500" stroke-dasharray="5,2" d="M147.3883,-42.5C192.1864,-42.5 247.5864,-42.5 289.888,-42.5"/>
<polygon fill="#ffa500" stroke="#ffa500" points="147.1239,-39.0001 137.1239,-42.5 147.1239,-46.0001 147.1239,-39.0001"/>
<text text-anchor="start" x="155" y="-56.5" font-family="Helvetica,sans-Serif" font-size="10.00" fill="#000000"> &lt; FloatingBaseEstimators</text>
<text text-anchor="middle" x="213.5" y="-45.5" font-family="Helvetica,sans-Serif" font-size="10.00" fill="#000000">::Output &gt;</text>
</g>
</g>
</svg>
