<?xml version="1.0" encoding="UTF-8" standalone="no"?>
<!DOCTYPE svg PUBLIC "-//W3C//DTD SVG 1.1//EN"
 "http://www.w3.org/Graphics/SVG/1.1/DTD/svg11.dtd">
<!-- Generated by graphviz version 2.40.1 (20161225.0304)
 -->
<!-- Title: BipedalLocomotion::System::Advanceable&lt; T &gt; Pages: 1 -->
<!--zoomable 533 -->
<svg id="main" version="1.1" xmlns="http://www.w3.org/2000/svg" xmlns:xlink="http://www.w3.org/1999/xlink" xml:space="preserve" onload="init(evt)">
<style type="text/css"><![CDATA[
.edge:hover path { stroke: red; }
.edge:hover polygon { stroke: red; fill: red; }
]]></style>
<script type="text/javascript"><![CDATA[
var edges = document.getElementsByTagName('g');
if (edges && edges.length) {
  for (var i=0;i<edges.length;i++) {
    if (edges[i].id.substr(0,4)=='edge') {
      edges[i].setAttribute('class','edge');
    }
  }
}
]]></script>
        <defs>
                <circle id="rim" cx="0" cy="0" r="7"/>
                <circle id="rim2" cx="0" cy="0" r="3.5"/>
                <g id="zoomPlus">
                        <use xlink:href="#rim" fill="#404040">
                                <set attributeName="fill" to="#808080" begin="zoomplus.mouseover" end="zoomplus.mouseout"/>
                        </use>
                        <path d="M-4,0h8M0,-4v8" fill="none" stroke="white" stroke-width="1.5" pointer-events="none"/>
                </g>
                <g id="zoomMin">
                        <use xlink:href="#rim" fill="#404040">
                                <set attributeName="fill" to="#808080" begin="zoomminus.mouseover" end="zoomminus.mouseout"/>
                        </use>
                        <path d="M-4,0h8" fill="none" stroke="white" stroke-width="1.5" pointer-events="none"/>
                </g>
                <g id="dirArrow">
                        <path fill="none" stroke="white" stroke-width="1.5" d="M0,-3.0v7 M-2.5,-0.5L0,-3.0L2.5,-0.5"/>
                </g>
               <g id="resetDef">
                       <use xlink:href="#rim2" fill="#404040">
                               <set attributeName="fill" to="#808080" begin="reset.mouseover" end="reset.mouseout"/>
                       </use>
               </g>
        </defs>

<script type="text/javascript">
var viewWidth = 1002;
var viewHeight = 533;
var sectionId = 'dynsection-0';
</script>
<script xlink:href="svgpan.js"/>
<svg id="graph" class="graph">
<g id="viewport">
<title>BipedalLocomotion::System::Advanceable&lt; T &gt;</title>
<!-- Node0 -->
<g id="node1" class="node">
<title>Node0</title>
<polygon fill="#bfbfbf" stroke="#000000" points="0,-258.5 0,-288.5 137,-288.5 137,-258.5 0,-258.5"/>
<text text-anchor="start" x="8" y="-276.5" font-family="Helvetica,sans-Serif" font-size="10.00" fill="#000000">BipedalLocomotion::</text>
<text text-anchor="middle" x="68.5" y="-265.5" font-family="Helvetica,sans-Serif" font-size="10.00" fill="#000000">System::Advanceable&lt; T &gt;</text>
</g>
<!-- Node1 -->
<g id="node2" class="node">
<title>Node1</title>
<g id="a_node2"><a xlink:href="classBipedalLocomotion_1_1System_1_1Advanceable.html" target="_top" xlink:title="BipedalLocomotion::\lSystem::Advanceable\l\&lt; RecursiveLeastSquareState \&gt;">
<polygon fill="none" stroke="#000000" points="317,-480 317,-521 474,-521 474,-480 317,-480"/>
<text text-anchor="start" x="325" y="-509" font-family="Helvetica,sans-Serif" font-size="10.00" fill="#000000">BipedalLocomotion::</text>
<text text-anchor="start" x="325" y="-498" font-family="Helvetica,sans-Serif" font-size="10.00" fill="#000000">System::Advanceable</text>
<text text-anchor="middle" x="395.5" y="-487" font-family="Helvetica,sans-Serif" font-size="10.00" fill="#000000">&lt; RecursiveLeastSquareState &gt;</text>
</a>
</g>
</g>
<!-- Node0&#45;&gt;Node1 -->
<g id="edge1" class="edge">
<title>Node0&#45;&gt;Node1</title>
<path fill="none" stroke="#ffa500" stroke-dasharray="5,2" d="M75.1347,-298.5671C85.8684,-334.1777 110.472,-399.0185 155,-434.5 201.0518,-471.1957 266.0491,-487.5292 316.8652,-494.7788"/>
<polygon fill="#ffa500" stroke="#ffa500" points="78.3719,-297.1604 72.2421,-288.5189 71.6451,-299.0969 78.3719,-297.1604"/>
<text text-anchor="middle" x="227" y="-493.5" font-family="Helvetica,sans-Serif" font-size="10.00" fill="#000000"> &lt; RecursiveLeastSquareState &gt;</text>
</g>
<!-- Node3 -->
<g id="node4" class="node">
<title>Node3</title>
<g id="a_node4"><a xlink:href="classBipedalLocomotion_1_1System_1_1Advanceable.html" target="_top" xlink:title="BipedalLocomotion::\lSystem::Advanceable\l\&lt; QuinticSplineState \&gt;">
<polygon fill="none" stroke="#000000" points="337.5,-414 337.5,-455 453.5,-455 453.5,-414 337.5,-414"/>
<text text-anchor="start" x="345.5" y="-443" font-family="Helvetica,sans-Serif" font-size="10.00" fill="#000000">BipedalLocomotion::</text>
<text text-anchor="start" x="345.5" y="-432" font-family="Helvetica,sans-Serif" font-size="10.00" fill="#000000">System::Advanceable</text>
<text text-anchor="middle" x="395.5" y="-421" font-family="Helvetica,sans-Serif" font-size="10.00" fill="#000000">&lt; QuinticSplineState &gt;</text>
</a>
</g>
</g>
<!-- Node0&#45;&gt;Node3 -->
<g id="edge3" class="edge">
<title>Node0&#45;&gt;Node3</title>
<path fill="none" stroke="#ffa500" stroke-dasharray="5,2" d="M84.4795,-296.9512C100.0917,-318.1219 125.7306,-348.6122 155,-366.5 211.5537,-401.0624 286.2429,-418.5892 337.2908,-427.1049"/>
<polygon fill="#ffa500" stroke="#ffa500" points="87.2919,-294.8671 78.6141,-288.7887 81.6073,-298.9519 87.2919,-294.8671"/>
<text text-anchor="middle" x="227" y="-422.5" font-family="Helvetica,sans-Serif" font-size="10.00" fill="#000000"> &lt; QuinticSplineState &gt;</text>
</g>
<!-- Node5 -->
<g id="node6" class="node">
<title>Node5</title>
<g id="a_node6"><a xlink:href="classBipedalLocomotion_1_1System_1_1Advanceable.html" target="_top" xlink:title="BipedalLocomotion::\lSystem::Advanceable\l\&lt; SO3PlannerState \&gt;">
<polygon fill="none" stroke="#000000" points="339,-350 339,-391 452,-391 452,-350 339,-350"/>
<text text-anchor="start" x="347" y="-379" font-family="Helvetica,sans-Serif" font-size="10.00" fill="#000000">BipedalLocomotion::</text>
<text text-anchor="start" x="347" y="-368" font-family="Helvetica,sans-Serif" font-size="10.00" fill="#000000">System::Advanceable</text>
<text text-anchor="middle" x="395.5" y="-357" font-family="Helvetica,sans-Serif" font-size="10.00" fill="#000000">&lt; SO3PlannerState &gt;</text>
</a>
</g>
</g>
<!-- Node0&#45;&gt;Node5 -->
<g id="edge5" class="edge">
<title>Node0&#45;&gt;Node5</title>
<path fill="none" stroke="#ffa500" stroke-dasharray="5,2" d="M105.3079,-293.0823C120.4018,-300.5445 138.2373,-308.6515 155,-314.5 216.3233,-335.8959 289.2935,-351.5803 338.6485,-360.8199"/>
<polygon fill="#ffa500" stroke="#ffa500" points="106.8039,-289.917 96.2982,-288.5454 103.6555,-296.1691 106.8039,-289.917"/>
<text text-anchor="middle" x="227" y="-354.5" font-family="Helvetica,sans-Serif" font-size="10.00" fill="#000000"> &lt; SO3PlannerState &gt;</text>
</g>
<!-- Node8 -->
<g id="node9" class="node">
<title>Node8</title>
<g id="a_node9"><a xlink:href="classBipedalLocomotion_1_1System_1_1Advanceable.html" target="_top" xlink:title="BipedalLocomotion::\lSystem::Advanceable\l\&lt; SensorBridgeMetaData \&gt;">
<polygon fill="none" stroke="#000000" points="327.5,-290 327.5,-331 463.5,-331 463.5,-290 327.5,-290"/>
<text text-anchor="start" x="335.5" y="-319" font-family="Helvetica,sans-Serif" font-size="10.00" fill="#000000">BipedalLocomotion::</text>
<text text-anchor="start" x="335.5" y="-308" font-family="Helvetica,sans-Serif" font-size="10.00" fill="#000000">System::Advanceable</text>
<text text-anchor="middle" x="395.5" y="-297" font-family="Helvetica,sans-Serif" font-size="10.00" fill="#000000">&lt; SensorBridgeMetaData &gt;</text>
</a>
</g>
</g>
<!-- Node0&#45;&gt;Node8 -->
<g id="edge9" class="edge">
<title>Node0&#45;&gt;Node8</title>
<path fill="none" stroke="#ffa500" stroke-dasharray="5,2" d="M147.1009,-282.3937C202.0815,-288.6147 274.7883,-296.8415 327.3209,-302.7855"/>
<polygon fill="#ffa500" stroke="#ffa500" points="147.3801,-278.903 137.0499,-281.2564 146.593,-285.8586 147.3801,-278.903"/>
<text text-anchor="middle" x="227" y="-302.5" font-family="Helvetica,sans-Serif" font-size="10.00" fill="#000000"> &lt; SensorBridgeMetaData &gt;</text>
</g>
<!-- Node10 -->
<g id="node11" class="node">
<title>Node10</title>
<g id="a_node11"><a xlink:href="classBipedalLocomotion_1_1System_1_1Advanceable.html" target="_top" xlink:title="BipedalLocomotion::\lSystem::Advanceable\l\&lt; SwingFootPlannerState \&gt;">
<polygon fill="none" stroke="#000000" points="327,-230 327,-271 464,-271 464,-230 327,-230"/>
<text text-anchor="start" x="335" y="-259" font-family="Helvetica,sans-Serif" font-size="10.00" fill="#000000">BipedalLocomotion::</text>
<text text-anchor="start" x="335" y="-248" font-family="Helvetica,sans-Serif" font-size="10.00" fill="#000000">System::Advanceable</text>
<text text-anchor="middle" x="395.5" y="-237" font-family="Helvetica,sans-Serif" font-size="10.00" fill="#000000">&lt; SwingFootPlannerState &gt;</text>
</a>
</g>
</g>
<!-- Node0&#45;&gt;Node10 -->
<g id="edge11" class="edge">
<title>Node0&#45;&gt;Node10</title>
<path fill="none" stroke="#ffa500" stroke-dasharray="5,2" d="M147.0665,-267.9739C201.8556,-264.1203 274.2601,-259.0276 326.7593,-255.335"/>
<polygon fill="#ffa500" stroke="#ffa500" points="146.7797,-264.4853 137.0499,-268.6784 147.2709,-271.4681 146.7797,-264.4853"/>
<text text-anchor="middle" x="227" y="-269.5" font-family="Helvetica,sans-Serif" font-size="10.00" fill="#000000"> &lt; SwingFootPlannerState &gt;</text>
</g>
<!-- Node12 -->
<g id="node13" class="node">
<title>Node12</title>
<g id="a_node13"><a xlink:href="classBipedalLocomotion_1_1System_1_1Advanceable.html" target="_top" xlink:title="BipedalLocomotion::\lSystem::Advanceable\l\&lt; EstimatedContactList \&gt;">
<polygon fill="none" stroke="#000000" points="331,-170 331,-211 460,-211 460,-170 331,-170"/>
<text text-anchor="start" x="339" y="-199" font-family="Helvetica,sans-Serif" font-size="10.00" fill="#000000">BipedalLocomotion::</text>
<text text-anchor="start" x="339" y="-188" font-family="Helvetica,sans-Serif" font-size="10.00" fill="#000000">System::Advanceable</text>
<text text-anchor="middle" x="395.5" y="-177" font-family="Helvetica,sans-Serif" font-size="10.00" fill="#000000">&lt; EstimatedContactList &gt;</text>
</a>
</g>
</g>
<!-- Node0&#45;&gt;Node12 -->
<g id="edge13" class="edge">
<title>Node0&#45;&gt;Node12</title>
<path fill="none" stroke="#ffa500" stroke-dasharray="5,2" d="M115.1042,-254.8485C127.9108,-250.1114 141.8852,-245.2946 155,-241.5 213.7329,-224.5064 282.0405,-210.562 330.817,-201.5753"/>
<polygon fill="#ffa500" stroke="#ffa500" points="113.6977,-251.6381 105.5723,-258.4372 116.1642,-258.1892 113.6977,-251.6381"/>
<text text-anchor="middle" x="227" y="-244.5" font-family="Helvetica,sans-Serif" font-size="10.00" fill="#000000"> &lt; EstimatedContactList &gt;</text>
</g>
<!-- Node15 -->
<g id="node16" class="node">
<title>Node15</title>
<g id="a_node16"><a xlink:href="classBipedalLocomotion_1_1System_1_1Advanceable.html" target="_top" xlink:title="BipedalLocomotion::\lSystem::Advanceable\l\&lt; DCMPlannerState \&gt;">
<polygon fill="none" stroke="#000000" points="338.5,-110 338.5,-151 452.5,-151 452.5,-110 338.5,-110"/>
<text text-anchor="start" x="346.5" y="-139" font-family="Helvetica,sans-Serif" font-size="10.00" fill="#000000">BipedalLocomotion::</text>
<text text-anchor="start" x="346.5" y="-128" font-family="Helvetica,sans-Serif" font-size="10.00" fill="#000000">System::Advanceable</text>
<text text-anchor="middle" x="395.5" y="-117" font-family="Helvetica,sans-Serif" font-size="10.00" fill="#000000">&lt; DCMPlannerState &gt;</text>
</a>
</g>
</g>
<!-- Node0&#45;&gt;Node15 -->
<g id="edge16" class="edge">
<title>Node0&#45;&gt;Node15</title>
<path fill="none" stroke="#ffa500" stroke-dasharray="5,2" d="M87.3529,-250.3513C103.4764,-232.0414 128.262,-207.1918 155,-192.5 212.8181,-160.7305 287.4304,-144.7895 338.1104,-137.1049"/>
<polygon fill="#ffa500" stroke="#ffa500" points="84.4358,-248.376 80.5784,-258.2437 89.7474,-252.9353 84.4358,-248.376"/>
<text text-anchor="middle" x="227" y="-195.5" font-family="Helvetica,sans-Serif" font-size="10.00" fill="#000000"> &lt; DCMPlannerState &gt;</text>
</g>
<!-- Node18 -->
<g id="node19" class="node">
<title>Node18</title>
<g id="a_node19"><a xlink:href="classBipedalLocomotion_1_1System_1_1Advanceable.html" target="_top" xlink:title="BipedalLocomotion::\lSystem::Advanceable\l\&lt; FloatingBaseEstimators\l::Output \&gt;">
<polygon fill="none" stroke="#000000" points="330.5,-38.5 330.5,-90.5 460.5,-90.5 460.5,-38.5 330.5,-38.5"/>
<text text-anchor="start" x="338.5" y="-78.5" font-family="Helvetica,sans-Serif" font-size="10.00" fill="#000000">BipedalLocomotion::</text>
<text text-anchor="start" x="338.5" y="-67.5" font-family="Helvetica,sans-Serif" font-size="10.00" fill="#000000">System::Advanceable</text>
<text text-anchor="start" x="338.5" y="-56.5" font-family="Helvetica,sans-Serif" font-size="10.00" fill="#000000">&lt; FloatingBaseEstimators</text>
<text text-anchor="middle" x="395.5" y="-45.5" font-family="Helvetica,sans-Serif" font-size="10.00" fill="#000000">::Output &gt;</text>
</a>
</g>
</g>
<!-- Node0&#45;&gt;Node18 -->
<g id="edge19" class="edge">
<title>Node0&#45;&gt;Node18</title>
<path fill="none" stroke="#ffa500" stroke-dasharray="5,2" d="M75.3582,-248.5509C86.2492,-213.8048 110.9147,-151.4144 155,-118.5 205.7495,-80.6101 278.2018,-68.4821 330.3012,-64.9926"/>
<polygon fill="#ffa500" stroke="#ffa500" points="71.9297,-247.7997 72.4142,-258.3834 78.6355,-249.8075 71.9297,-247.7997"/>
<text text-anchor="start" x="168.5" y="-132.5" font-family="Helvetica,sans-Serif" font-size="10.00" fill="#000000"> &lt; FloatingBaseEstimators</text>
<text text-anchor="middle" x="227" y="-121.5" font-family="Helvetica,sans-Serif" font-size="10.00" fill="#000000">::Output &gt;</text>
</g>
<!-- Node2 -->
<g id="node3" class="node">
<title>Node2</title>
<g id="a_node3"><a xlink:href="classBipedalLocomotion_1_1Estimators_1_1RecursiveLeastSquare.html" target="_top" xlink:title="BipedalLocomotion::\lEstimators::RecursiveLeast\lSquare">
<polygon fill="none" stroke="#000000" points="526.5,-483 526.5,-524 664.5,-524 664.5,-483 526.5,-483"/>
<text text-anchor="start" x="534.5" y="-512" font-family="Helvetica,sans-Serif" font-size="10.00" fill="#000000">BipedalLocomotion::</text>
<text text-anchor="start" x="534.5" y="-501" font-family="Helvetica,sans-Serif" font-size="10.00" fill="#000000">Estimators::RecursiveLeast</text>
<text text-anchor="middle" x="595.5" y="-490" font-family="Helvetica,sans-Serif" font-size="10.00" fill="#000000">Square</text>
</a>
</g>
</g>
<!-- Node1&#45;&gt;Node2 -->
<g id="edge2" class="edge">
<title>Node1&#45;&gt;Node2</title>
<path fill="none" stroke="#191970" d="M484.3981,-501.8335C498.4172,-502.0438 512.7309,-502.2585 526.2189,-502.4608"/>
<polygon fill="#191970" stroke="#191970" points="484.3096,-498.3318 474.2582,-501.6814 484.2045,-505.3311 484.3096,-498.3318"/>
</g>
<!-- Node4 -->
<g id="node5" class="node">
<title>Node4</title>
<g id="a_node5"><a xlink:href="classBipedalLocomotion_1_1Planners_1_1QuinticSpline.html" target="_top" xlink:title="Quintic spline implement a 5&#45;th order polynomial spline in $f{R}^n$f. ">
<polygon fill="none" stroke="#000000" points="536,-433.5 536,-463.5 655,-463.5 655,-433.5 536,-433.5"/>
<text text-anchor="start" x="544" y="-451.5" font-family="Helvetica,sans-Serif" font-size="10.00" fill="#000000">BipedalLocomotion::</text>
<text text-anchor="middle" x="595.5" y="-440.5" font-family="Helvetica,sans-Serif" font-size="10.00" fill="#000000">Planners::QuinticSpline</text>
</a>
</g>
</g>
<!-- Node3&#45;&gt;Node4 -->
<g id="edge4" class="edge">
<title>Node3&#45;&gt;Node4</title>
<path fill="none" stroke="#191970" d="M463.8155,-439.2821C487.2129,-440.9199 513.1911,-442.7384 535.8489,-444.3244"/>
<polygon fill="#191970" stroke="#191970" points="463.837,-435.7751 453.6169,-438.5682 463.3481,-442.758 463.837,-435.7751"/>
</g>
<!-- Node6 -->
<g id="node7" class="node">
<title>Node6</title>
<g id="a_node7"><a xlink:href="classBipedalLocomotion_1_1Planners_1_1SO3Planner.html" target="_top" xlink:title="SO3Planner implements a minimum jerk trajectory planner for object belonging to SO(3). ">
<polygon fill="none" stroke="#000000" points="539,-373 539,-414 652,-414 652,-373 539,-373"/>
<text text-anchor="start" x="547" y="-402" font-family="Helvetica,sans-Serif" font-size="10.00" fill="#000000">BipedalLocomotion::</text>
<text text-anchor="start" x="547" y="-391" font-family="Helvetica,sans-Serif" font-size="10.00" fill="#000000">Planners::SO3Planner</text>
<text text-anchor="middle" x="595.5" y="-380" font-family="Helvetica,sans-Serif" font-size="10.00" fill="#000000">&lt; trivialization &gt;</text>
</a>
</g>
</g>
<!-- Node5&#45;&gt;Node6 -->
<g id="edge6" class="edge">
<title>Node5&#45;&gt;Node6</title>
<path fill="none" stroke="#191970" d="M462.0862,-378.1574C486.9382,-381.0154 514.9011,-384.2311 538.783,-386.9775"/>
<polygon fill="#191970" stroke="#191970" points="462.3444,-374.6641 452.01,-376.9987 461.5447,-381.6183 462.3444,-374.6641"/>
</g>
<!-- Node7 -->
<g id="node8" class="node">
<title>Node7</title>
<g id="a_node8"><a xlink:href="classBipedalLocomotion_1_1Planners_1_1SO3Planner.html" target="_top" xlink:title="BipedalLocomotion::\lPlanners::SO3Planner\l\&lt; LieGroupTrivialization\l::Right \&gt;">
<polygon fill="none" stroke="#000000" points="848.5,-339.5 848.5,-391.5 967.5,-391.5 967.5,-339.5 848.5,-339.5"/>
<text text-anchor="start" x="856.5" y="-379.5" font-family="Helvetica,sans-Serif" font-size="10.00" fill="#000000">BipedalLocomotion::</text>
<text text-anchor="start" x="856.5" y="-368.5" font-family="Helvetica,sans-Serif" font-size="10.00" fill="#000000">Planners::SO3Planner</text>
<text text-anchor="start" x="856.5" y="-357.5" font-family="Helvetica,sans-Serif" font-size="10.00" fill="#000000">&lt; LieGroupTrivialization</text>
<text text-anchor="middle" x="908" y="-346.5" font-family="Helvetica,sans-Serif" font-size="10.00" fill="#000000">::Right &gt;</text>
</a>
</g>
</g>
<!-- Node5&#45;&gt;Node7 -->
<g id="edge8" class="edge">
<title>Node5&#45;&gt;Node7</title>
<path fill="none" stroke="#191970" d="M462.4437,-365.7534C478.3507,-364.8165 495.2696,-363.9762 511,-363.5 630.7014,-359.876 770.795,-362.0926 848.4597,-363.891"/>
<polygon fill="#191970" stroke="#191970" points="461.9279,-362.2783 452.1593,-366.3802 462.3538,-369.2653 461.9279,-362.2783"/>
</g>
<!-- Node6&#45;&gt;Node7 -->
<g id="edge7" class="edge">
<title>Node6&#45;&gt;Node7</title>
<path fill="none" stroke="#ffa500" stroke-dasharray="5,2" d="M662.131,-387.5299C717.3643,-382.581 795.1699,-375.6096 848.3725,-370.8426"/>
<polygon fill="#ffa500" stroke="#ffa500" points="661.7391,-384.0509 652.0914,-388.4294 662.3639,-391.0229 661.7391,-384.0509"/>
<text text-anchor="start" x="698" y="-397.5" font-family="Helvetica,sans-Serif" font-size="10.00" fill="#000000"> &lt; LieGroupTrivialization</text>
<text text-anchor="middle" x="751" y="-386.5" font-family="Helvetica,sans-Serif" font-size="10.00" fill="#000000">::Right &gt;</text>
</g>
<!-- Node9 -->
<g id="node10" class="node">
<title>Node9</title>
<g id="a_node10"><a xlink:href="classBipedalLocomotion_1_1RobotInterface_1_1YarpSensorBridge.html" target="_top" xlink:title="YarpSensorBridge Yarp implementation of the ISensorBridge interface Currently available interfaces...">
<polygon fill="none" stroke="#000000" points="526.5,-275 526.5,-316 664.5,-316 664.5,-275 526.5,-275"/>
<text text-anchor="start" x="534.5" y="-304" font-family="Helvetica,sans-Serif" font-size="10.00" fill="#000000">BipedalLocomotion::</text>
<text text-anchor="start" x="534.5" y="-293" font-family="Helvetica,sans-Serif" font-size="10.00" fill="#000000">RobotInterface::YarpSensor</text>
<text text-anchor="middle" x="595.5" y="-282" font-family="Helvetica,sans-Serif" font-size="10.00" fill="#000000">Bridge</text>
</a>
</g>
</g>
<!-- Node8&#45;&gt;Node9 -->
<g id="edge10" class="edge">
<title>Node8&#45;&gt;Node9</title>
<path fill="none" stroke="#191970" d="M473.8213,-304.6259C491.1002,-303.33 509.2862,-301.966 526.1789,-300.6991"/>
<polygon fill="#191970" stroke="#191970" points="473.4795,-301.1416 463.7693,-305.3798 474.0031,-308.122 473.4795,-301.1416"/>
</g>
<!-- Node11 -->
<g id="node12" class="node">
<title>Node11</title>
<g id="a_node12"><a xlink:href="classBipedalLocomotion_1_1Planners_1_1SwingFootPlanner.html" target="_top" xlink:title="SwingFootPlanner implement a minimum jerk trajectory planner for the swing foot. ">
<polygon fill="none" stroke="#000000" points="525.5,-225.5 525.5,-255.5 665.5,-255.5 665.5,-225.5 525.5,-225.5"/>
<text text-anchor="start" x="533.5" y="-243.5" font-family="Helvetica,sans-Serif" font-size="10.00" fill="#000000">BipedalLocomotion::</text>
<text text-anchor="middle" x="595.5" y="-232.5" font-family="Helvetica,sans-Serif" font-size="10.00" fill="#000000">Planners::SwingFootPlanner</text>
</a>
</g>
</g>
<!-- Node10&#45;&gt;Node11 -->
<g id="edge12" class="edge">
<title>Node10&#45;&gt;Node11</title>
<path fill="none" stroke="#191970" d="M474.3964,-246.5552C491.2175,-245.7141 508.8733,-244.8313 525.3406,-244.008"/>
<polygon fill="#191970" stroke="#191970" points="473.8616,-243.0775 464.0488,-247.0726 474.2112,-250.0687 473.8616,-243.0775"/>
</g>
<!-- Node13 -->
<g id="node14" class="node">
<title>Node13</title>
<g id="a_node14"><a xlink:href="classBipedalLocomotion_1_1Contacts_1_1ContactDetector.html" target="_top" xlink:title="BipedalLocomotion::\lContacts::ContactDetector">
<polygon fill="none" stroke="#000000" points="528.5,-175.5 528.5,-205.5 662.5,-205.5 662.5,-175.5 528.5,-175.5"/>
<text text-anchor="start" x="536.5" y="-193.5" font-family="Helvetica,sans-Serif" font-size="10.00" fill="#000000">BipedalLocomotion::</text>
<text text-anchor="middle" x="595.5" y="-182.5" font-family="Helvetica,sans-Serif" font-size="10.00" fill="#000000">Contacts::ContactDetector</text>
</a>
</g>
</g>
<!-- Node12&#45;&gt;Node13 -->
<g id="edge14" class="edge">
<title>Node12&#45;&gt;Node13</title>
<path fill="none" stroke="#191970" d="M470.282,-190.5C489.3261,-190.5 509.6755,-190.5 528.3144,-190.5"/>
<polygon fill="#191970" stroke="#191970" points="470.1581,-187.0001 460.1581,-190.5 470.158,-194.0001 470.1581,-187.0001"/>
</g>
<!-- Node14 -->
<g id="node15" class="node">
<title>Node14</title>
<g id="a_node15"><a xlink:href="classBipedalLocomotion_1_1Contacts_1_1SchmittTriggerDetector.html" target="_top" xlink:title="Schmitt Trigger thresholding based contact detector that maintains and updates the contact states for...">
<polygon fill="none" stroke="#000000" points="826,-175.5 826,-205.5 990,-205.5 990,-175.5 826,-175.5"/>
<text text-anchor="start" x="834" y="-193.5" font-family="Helvetica,sans-Serif" font-size="10.00" fill="#000000">BipedalLocomotion::</text>
<text text-anchor="middle" x="908" y="-182.5" font-family="Helvetica,sans-Serif" font-size="10.00" fill="#000000">Contacts::SchmittTriggerDetector</text>
</a>
</g>
</g>
<!-- Node13&#45;&gt;Node14 -->
<g id="edge15" class="edge">
<title>Node13&#45;&gt;Node14</title>
<path fill="none" stroke="#191970" d="M672.5658,-190.5C719.0939,-190.5 778.3555,-190.5 825.7818,-190.5"/>
<polygon fill="#191970" stroke="#191970" points="672.5391,-187.0001 662.5391,-190.5 672.5391,-194.0001 672.5391,-187.0001"/>
</g>
<!-- Node16 -->
<g id="node17" class="node">
<title>Node16</title>
<g id="a_node17"><a xlink:href="classBipedalLocomotion_1_1Planners_1_1DCMPlanner.html" target="_top" xlink:title="DCMPlanner defines a trajectory generator for the variable height Divergent component of motion (DCM)...">
<polygon fill="none" stroke="#000000" points="537,-115.5 537,-145.5 654,-145.5 654,-115.5 537,-115.5"/>
<text text-anchor="start" x="545" y="-133.5" font-family="Helvetica,sans-Serif" font-size="10.00" fill="#000000">BipedalLocomotion::</text>
<text text-anchor="middle" x="595.5" y="-122.5" font-family="Helvetica,sans-Serif" font-size="10.00" fill="#000000">Planners::DCMPlanner</text>
</a>
</g>
</g>
<!-- Node15&#45;&gt;Node16 -->
<g id="edge17" class="edge">
<title>Node15&#45;&gt;Node16</title>
<path fill="none" stroke="#191970" d="M462.6722,-130.5C486.7563,-130.5 513.698,-130.5 536.9895,-130.5"/>
<polygon fill="#191970" stroke="#191970" points="462.5444,-127.0001 452.5443,-130.5 462.5443,-134.0001 462.5444,-127.0001"/>
</g>
<!-- Node17 -->
<g id="node18" class="node">
<title>Node17</title>
<g id="a_node18"><a xlink:href="classBipedalLocomotion_1_1Planners_1_1TimeVaryingDCMPlanner.html" target="_top" xlink:title="DCMPlanner defines a trajectory generator for the variable height Divergent component of motion (DCM)...">
<polygon fill="none" stroke="#000000" points="822,-115.5 822,-145.5 994,-145.5 994,-115.5 822,-115.5"/>
<text text-anchor="start" x="830" y="-133.5" font-family="Helvetica,sans-Serif" font-size="10.00" fill="#000000">BipedalLocomotion::</text>
<text text-anchor="middle" x="908" y="-122.5" font-family="Helvetica,sans-Serif" font-size="10.00" fill="#000000">Planners::TimeVaryingDCMPlanner</text>
</a>
</g>
</g>
<!-- Node16&#45;&gt;Node17 -->
<g id="edge18" class="edge">
<title>Node16&#45;&gt;Node17</title>
<path fill="none" stroke="#191970" d="M664.518,-130.5C710.8355,-130.5 772.202,-130.5 821.7387,-130.5"/>
<polygon fill="#191970" stroke="#191970" points="664.2789,-127.0001 654.2789,-130.5 664.2788,-134.0001 664.2789,-127.0001"/>
</g>
<!-- Node19 -->
<g id="node20" class="node">
<title>Node19</title>
<g id="a_node20"><a xlink:href="classBipedalLocomotion_1_1Estimators_1_1FloatingBaseEstimator.html" target="_top" xlink:title="FloatingBaseEstimator class contains the bare&#45;bones implementation for a LeggedOdometry based or Exte...">
<polygon fill="none" stroke="#000000" points="511,-49.5 511,-79.5 680,-79.5 680,-49.5 511,-49.5"/>
<text text-anchor="start" x="519" y="-67.5" font-family="Helvetica,sans-Serif" font-size="10.00" fill="#000000">BipedalLocomotion::</text>
<text text-anchor="middle" x="595.5" y="-56.5" font-family="Helvetica,sans-Serif" font-size="10.00" fill="#000000">Estimators::FloatingBaseEstimator</text>
</a>
</g>
</g>
<!-- Node18&#45;&gt;Node19 -->
<g id="edge20" class="edge">
<title>Node18&#45;&gt;Node19</title>
<path fill="none" stroke="#191970" d="M470.9718,-64.5C483.9461,-64.5 497.5075,-64.5 510.7069,-64.5"/>
<polygon fill="#191970" stroke="#191970" points="470.7108,-61.0001 460.7107,-64.5 470.7107,-68.0001 470.7108,-61.0001"/>
</g>
<!-- Node20 -->
<g id="node21" class="node">
<title>Node20</title>
<g id="a_node21"><a xlink:href="classBipedalLocomotion_1_1Estimators_1_1InvariantEKFBaseEstimator.html" target="_top" xlink:title="InvariantEKFBaseEstimator class implements the Contact Aided Invariant EKF algorithm, developed by Ross Hartley, Maani Ghaffari, Ryan M. ">
<polygon fill="none" stroke="#000000" points="833.5,-50 833.5,-91 982.5,-91 982.5,-50 833.5,-50"/>
<text text-anchor="start" x="841.5" y="-79" font-family="Helvetica,sans-Serif" font-size="10.00" fill="#000000">BipedalLocomotion::</text>
<text text-anchor="start" x="841.5" y="-68" font-family="Helvetica,sans-Serif" font-size="10.00" fill="#000000">Estimators::InvariantEKFBase</text>
<text text-anchor="middle" x="908" y="-57" font-family="Helvetica,sans-Serif" font-size="10.00" fill="#000000">Estimator</text>
</a>
</g>
</g>
<!-- Node19&#45;&gt;Node20 -->
<g id="edge21" class="edge">
<title>Node19&#45;&gt;Node20</title>
<path fill="none" stroke="#191970" d="M690.3327,-66.3208C736.2523,-67.2024 790.5885,-68.2457 833.485,-69.0693"/>
<polygon fill="#191970" stroke="#191970" points="690.1324,-62.8164 680.067,-66.1237 689.9979,-69.8151 690.1324,-62.8164"/>
</g>
<!-- Node21 -->
<g id="node22" class="node">
<title>Node21</title>
<g id="a_node22"><a xlink:href="classBipedalLocomotion_1_1Estimators_1_1LeggedOdometry.html" target="_top" xlink:title="Floating base estimation algorithm using only kinematic measurements by assuming atleast one frame on...">
<polygon fill="none" stroke="#000000" points="836,-.5 836,-30.5 980,-30.5 980,-.5 836,-.5"/>
<text text-anchor="start" x="844" y="-18.5" font-family="Helvetica,sans-Serif" font-size="10.00" fill="#000000">BipedalLocomotion::</text>
<text text-anchor="middle" x="908" y="-7.5" font-family="Helvetica,sans-Serif" font-size="10.00" fill="#000000">Estimators::LeggedOdometry</text>
</a>
</g>
</g>
<!-- Node19&#45;&gt;Node21 -->
<g id="edge22" class="edge">
<title>Node19&#45;&gt;Node21</title>
<path fill="none" stroke="#191970" d="M690.2153,-49.6486C736.9981,-42.3131 792.5401,-33.6041 835.824,-26.8172"/>
<polygon fill="#191970" stroke="#191970" points="689.4041,-46.233 680.067,-51.2399 690.4885,-53.1485 689.4041,-46.233"/>
</g>
</g>
</svg>
        <g id="navigator" transform="translate(0 0)" fill="#404254">
                <rect fill="#f2f5e9" fill-opacity="0.5" stroke="#606060" stroke-width=".5" x="0" y="0" width="60" height="60"/>
                <use id="zoomplus" xlink:href="#zoomPlus" x="17" y="9" onmousedown="handleZoom(evt,'in')"/>
                <use id="zoomminus" xlink:href="#zoomMin" x="42" y="9" onmousedown="handleZoom(evt,'out')"/>
                <use id="reset" xlink:href="#resetDef" x="30" y="36" onmousedown="handleReset()"/>
                <g id="arrowUp" xlink:href="#dirArrow" transform="translate(30 24)" onmousedown="handlePan(0,-1)">
                  <use xlink:href="#rim" fill="#404040">
                        <set attributeName="fill" to="#808080" begin="arrowUp.mouseover" end="arrowUp.mouseout"/>
                  </use>
                  <path fill="none" stroke="white" stroke-width="1.5" d="M0,-3.0v7 M-2.5,-0.5L0,-3.0L2.5,-0.5"/>
                </g>
                <g id="arrowRight" xlink:href="#dirArrow" transform="rotate(90) translate(36 -43)" onmousedown="handlePan(1,0)">
                  <use xlink:href="#rim" fill="#404040">
                        <set attributeName="fill" to="#808080" begin="arrowRight.mouseover" end="arrowRight.mouseout"/>
                  </use>
                  <path fill="none" stroke="white" stroke-width="1.5" d="M0,-3.0v7 M-2.5,-0.5L0,-3.0L2.5,-0.5"/>
                </g>
                <g id="arrowDown" xlink:href="#dirArrow" transform="rotate(180) translate(-30 -48)" onmousedown="handlePan(0,1)">
                  <use xlink:href="#rim" fill="#404040">
                        <set attributeName="fill" to="#808080" begin="arrowDown.mouseover" end="arrowDown.mouseout"/>
                  </use>
                  <path fill="none" stroke="white" stroke-width="1.5" d="M0,-3.0v7 M-2.5,-0.5L0,-3.0L2.5,-0.5"/>
                </g>
                <g id="arrowLeft" xlink:href="#dirArrow" transform="rotate(270) translate(-36 17)" onmousedown="handlePan(-1,0)">
                  <use xlink:href="#rim" fill="#404040">
                        <set attributeName="fill" to="#808080" begin="arrowLeft.mouseover" end="arrowLeft.mouseout"/>
                  </use>
                  <path fill="none" stroke="white" stroke-width="1.5" d="M0,-3.0v7 M-2.5,-0.5L0,-3.0L2.5,-0.5"/>
                </g>
        </g>
        <svg viewBox="0 0 15 15" width="100%" height="30px" preserveAspectRatio="xMaxYMin meet">
         <g id="arrow_out" transform="scale(0.3 0.3)">
          <a xlink:href="classBipedalLocomotion_1_1System_1_1Advanceable__inherit__graph_org.svg" target="_base">
           <rect id="button" ry="5" rx="5" y="6" x="6" height="38" width="38"
                fill="#f2f5e9" fill-opacity="0.5" stroke="#606060" stroke-width="1.0"/>
           <path id="arrow"
             d="M 11.500037,31.436501 C 11.940474,20.09759 22.043105,11.32322 32.158766,21.979434 L 37.068811,17.246167 C 37.068811,17.246167 37.088388,32 37.088388,32 L 22.160133,31.978069 C 22.160133,31.978069 26.997745,27.140456 26.997745,27.140456 C 18.528582,18.264221 13.291696,25.230495 11.500037,31.436501 z"
             style="fill:#404040;"/>
          </a>
         </g>
        </svg>
</svg>
