<?xml version="1.0" encoding="UTF-8" standalone="no"?>
<!DOCTYPE svg PUBLIC "-//W3C//DTD SVG 1.1//EN"
 "http://www.w3.org/Graphics/SVG/1.1/DTD/svg11.dtd">
<!-- Generated by graphviz version 2.40.1 (20161225.0304)
 -->
<!-- Title: Contacts/include/BipedalLocomotion/Contacts/ContactList.h Pages: 1 -->
<svg width="776pt" height="407pt"
 viewBox="0.00 0.00 775.50 407.00" xmlns="http://www.w3.org/2000/svg" xmlns:xlink="http://www.w3.org/1999/xlink">
<g id="graph0" class="graph" transform="scale(1 1) rotate(0) translate(4 403)">
<title>Contacts/include/BipedalLocomotion/Contacts/ContactList.h</title>
<!-- Node7 -->
<g id="node1" class="node">
<title>Node7</title>
<polygon fill="#bfbfbf" stroke="#000000" points="372.5,-368.5 372.5,-398.5 543.5,-398.5 543.5,-368.5 372.5,-368.5"/>
<text text-anchor="start" x="380.5" y="-386.5" font-family="Helvetica,sans-Serif" font-size="10.00" fill="#000000">Contacts/include/Bipedal</text>
<text text-anchor="middle" x="458" y="-375.5" font-family="Helvetica,sans-Serif" font-size="10.00" fill="#000000">Locomotion/Contacts/ContactList.h</text>
</g>
<!-- Node8 -->
<g id="node2" class="node">
<title>Node8</title>
<g id="a_node2"><a xlink:href="ContactPhase_8h.html" target="_top" xlink:title="Contacts/include/Bipedal\lLocomotion/Contacts/ContactPhase.h">
<polygon fill="none" stroke="#000000" points="184.5,-296 184.5,-326 367.5,-326 367.5,-296 184.5,-296"/>
<text text-anchor="start" x="192.5" y="-314" font-family="Helvetica,sans-Serif" font-size="10.00" fill="#000000">Contacts/include/Bipedal</text>
<text text-anchor="middle" x="276" y="-303" font-family="Helvetica,sans-Serif" font-size="10.00" fill="#000000">Locomotion/Contacts/ContactPhase.h</text>
</a>
</g>
</g>
<!-- Node7&#45;&gt;Node8 -->
<g id="edge1" class="edge">
<title>Node7&#45;&gt;Node8</title>
<path fill="none" stroke="#191970" d="M410.7925,-364.6948C380.5505,-352.6478 341.8355,-337.2257 313.6622,-326.0028"/>
<polygon fill="#191970" stroke="#191970" points="409.7042,-368.0287 420.2895,-368.478 412.2947,-361.5257 409.7042,-368.0287"/>
</g>
<!-- Node9 -->
<g id="node3" class="node">
<title>Node9</title>
<g id="a_node3"><a xlink:href="ContactPhaseList_8h_source.html" target="_top" xlink:title="Contacts/include/Bipedal\lLocomotion/Contacts/ContactPhase\lList.h">
<polygon fill="none" stroke="#000000" points="68.5,-212.5 68.5,-253.5 243.5,-253.5 243.5,-212.5 68.5,-212.5"/>
<text text-anchor="start" x="76.5" y="-241.5" font-family="Helvetica,sans-Serif" font-size="10.00" fill="#000000">Contacts/include/Bipedal</text>
<text text-anchor="start" x="76.5" y="-230.5" font-family="Helvetica,sans-Serif" font-size="10.00" fill="#000000">Locomotion/Contacts/ContactPhase</text>
<text text-anchor="middle" x="156" y="-219.5" font-family="Helvetica,sans-Serif" font-size="10.00" fill="#000000">List.h</text>
</a>
</g>
</g>
<!-- Node7&#45;&gt;Node9 -->
<g id="edge9" class="edge">
<title>Node7&#45;&gt;Node9</title>
<path fill="none" stroke="#191970" d="M361.9864,-377.4917C290.5442,-370.9798 201.0822,-357.8329 175,-332 154.3588,-311.5561 152.4977,-275.9987 153.7403,-253.5242"/>
<polygon fill="#191970" stroke="#191970" points="362.1187,-381.0167 372.3866,-378.4051 362.7311,-374.0436 362.1187,-381.0167"/>
</g>
<!-- Node16 -->
<g id="node10" class="node">
<title>Node16</title>
<g id="a_node10"><a xlink:href="ContactList_8cpp.html" target="_top" xlink:title="Contacts/src/ContactList.cpp">
<polygon fill="none" stroke="#000000" points="385.5,-301.5 385.5,-320.5 530.5,-320.5 530.5,-301.5 385.5,-301.5"/>
<text text-anchor="middle" x="458" y="-308.5" font-family="Helvetica,sans-Serif" font-size="10.00" fill="#000000">Contacts/src/ContactList.cpp</text>
</a>
</g>
</g>
<!-- Node7&#45;&gt;Node16 -->
<g id="edge10" class="edge">
<title>Node7&#45;&gt;Node16</title>
<path fill="none" stroke="#191970" d="M458,-358.305C458,-345.424 458,-330.4836 458,-320.8957"/>
<polygon fill="#191970" stroke="#191970" points="454.5001,-358.4779 458,-368.478 461.5001,-358.478 454.5001,-358.4779"/>
</g>
<!-- Node17 -->
<g id="node11" class="node">
<title>Node17</title>
<g id="a_node11"><a xlink:href="SwingFootPlanner_8h.html" target="_top" xlink:title="Planners/include/Bipedal\lLocomotion/Planners/SwingFoot\lPlanner.h">
<polygon fill="none" stroke="#000000" points="549,-290.5 549,-331.5 707,-331.5 707,-290.5 549,-290.5"/>
<text text-anchor="start" x="557" y="-319.5" font-family="Helvetica,sans-Serif" font-size="10.00" fill="#000000">Planners/include/Bipedal</text>
<text text-anchor="start" x="557" y="-308.5" font-family="Helvetica,sans-Serif" font-size="10.00" fill="#000000">Locomotion/Planners/SwingFoot</text>
<text text-anchor="middle" x="628" y="-297.5" font-family="Helvetica,sans-Serif" font-size="10.00" fill="#000000">Planner.h</text>
</a>
</g>
</g>
<!-- Node7&#45;&gt;Node17 -->
<g id="edge11" class="edge">
<title>Node7&#45;&gt;Node17</title>
<path fill="none" stroke="#191970" d="M502.7051,-364.4346C526.462,-354.303 555.6825,-341.8413 579.9275,-331.5015"/>
<polygon fill="#191970" stroke="#191970" points="501.0495,-361.3356 493.2241,-368.478 503.7956,-367.7745 501.0495,-361.3356"/>
</g>
<!-- Node18 -->
<g id="node12" class="node">
<title>Node18</title>
<g id="a_node12"><a xlink:href="SwingFootPlanner_8cpp.html" target="_top" xlink:title="Planners/src/SwingFootPlanner.cpp">
<polygon fill="none" stroke="#000000" points="594.5,-223.5 594.5,-242.5 767.5,-242.5 767.5,-223.5 594.5,-223.5"/>
<text text-anchor="middle" x="681" y="-230.5" font-family="Helvetica,sans-Serif" font-size="10.00" fill="#000000">Planners/src/SwingFootPlanner.cpp</text>
</a>
</g>
</g>
<!-- Node7&#45;&gt;Node18 -->
<g id="edge13" class="edge">
<title>Node7&#45;&gt;Node18</title>
<path fill="none" stroke="#191970" d="M553.8116,-376.8623C618.4034,-370.1611 695.4487,-357.059 716,-332 738.5425,-304.5131 706.4354,-261.4594 689.8544,-242.5023"/>
<polygon fill="#191970" stroke="#191970" points="553.1661,-373.4092 543.5625,-377.8837 553.8603,-380.3747 553.1661,-373.4092"/>
</g>
<!-- Node8&#45;&gt;Node9 -->
<g id="edge2" class="edge">
<title>Node8&#45;&gt;Node9</title>
<path fill="none" stroke="#191970" d="M244.1511,-290.2982C226.6915,-278.9495 205.1194,-264.9276 187.6856,-253.5956"/>
<polygon fill="#191970" stroke="#191970" points="242.5709,-293.4454 252.8628,-295.9608 246.3858,-287.5763 242.5709,-293.4454"/>
</g>
<!-- Node15 -->
<g id="node9" class="node">
<title>Node15</title>
<g id="a_node9"><a xlink:href="ContactPhase_8cpp.html" target="_top" xlink:title="Contacts/src/ContactPhase.cpp">
<polygon fill="none" stroke="#000000" points="261.5,-223.5 261.5,-242.5 418.5,-242.5 418.5,-223.5 261.5,-223.5"/>
<text text-anchor="middle" x="340" y="-230.5" font-family="Helvetica,sans-Serif" font-size="10.00" fill="#000000">Contacts/src/ContactPhase.cpp</text>
</a>
</g>
</g>
<!-- Node8&#45;&gt;Node15 -->
<g id="edge8" class="edge">
<title>Node8&#45;&gt;Node15</title>
<path fill="none" stroke="#191970" d="M294.8526,-288.0234C307.2781,-272.8799 322.9049,-253.8347 332.1363,-242.5839"/>
<polygon fill="#191970" stroke="#191970" points="291.9773,-286.0099 288.3398,-295.9608 297.3888,-290.4502 291.9773,-286.0099"/>
</g>
<!-- Node10 -->
<g id="node4" class="node">
<title>Node10</title>
<g id="a_node4"><a xlink:href="ContactPhaseList_8cpp_source.html" target="_top" xlink:title="Contacts/src/ContactPhase\lList.cpp">
<polygon fill="none" stroke="#000000" points="0,-145.5 0,-175.5 138,-175.5 138,-145.5 0,-145.5"/>
<text text-anchor="start" x="8" y="-163.5" font-family="Helvetica,sans-Serif" font-size="10.00" fill="#000000">Contacts/src/ContactPhase</text>
<text text-anchor="middle" x="69" y="-152.5" font-family="Helvetica,sans-Serif" font-size="10.00" fill="#000000">List.cpp</text>
</a>
</g>
</g>
<!-- Node9&#45;&gt;Node10 -->
<g id="edge3" class="edge">
<title>Node9&#45;&gt;Node10</title>
<path fill="none" stroke="#191970" d="M123.4499,-205.8749C111.1592,-195.6327 97.6212,-184.351 87.1189,-175.5991"/>
<polygon fill="#191970" stroke="#191970" points="121.3791,-208.7052 131.302,-212.4183 125.8604,-203.3277 121.3791,-208.7052"/>
</g>
<!-- Node11 -->
<g id="node5" class="node">
<title>Node11</title>
<g id="a_node5"><a xlink:href="DCMPlanner_8h.html" target="_top" xlink:title="Planners/include/Bipedal\lLocomotion/Planners/DCMPlanner.h">
<polygon fill="none" stroke="#000000" points="156,-145.5 156,-175.5 332,-175.5 332,-145.5 156,-145.5"/>
<text text-anchor="start" x="164" y="-163.5" font-family="Helvetica,sans-Serif" font-size="10.00" fill="#000000">Planners/include/Bipedal</text>
<text text-anchor="middle" x="244" y="-152.5" font-family="Helvetica,sans-Serif" font-size="10.00" fill="#000000">Locomotion/Planners/DCMPlanner.h</text>
</a>
</g>
</g>
<!-- Node9&#45;&gt;Node11 -->
<g id="edge4" class="edge">
<title>Node9&#45;&gt;Node11</title>
<path fill="none" stroke="#191970" d="M188.9243,-205.8749C201.3562,-195.6327 215.0498,-184.351 225.6728,-175.5991"/>
<polygon fill="#191970" stroke="#191970" points="186.4744,-203.3584 180.9819,-212.4183 190.9255,-208.761 186.4744,-203.3584"/>
</g>
<!-- Node12 -->
<g id="node6" class="node">
<title>Node12</title>
<g id="a_node6"><a xlink:href="TimeVaryingDCMPlanner_8h.html" target="_top" xlink:title="Planners/include/Bipedal\lLocomotion/Planners/TimeVarying\lDCMPlanner.h">
<polygon fill="none" stroke="#000000" points="73,-67.5 73,-108.5 239,-108.5 239,-67.5 73,-67.5"/>
<text text-anchor="start" x="81" y="-96.5" font-family="Helvetica,sans-Serif" font-size="10.00" fill="#000000">Planners/include/Bipedal</text>
<text text-anchor="start" x="81" y="-85.5" font-family="Helvetica,sans-Serif" font-size="10.00" fill="#000000">Locomotion/Planners/TimeVarying</text>
<text text-anchor="middle" x="156" y="-74.5" font-family="Helvetica,sans-Serif" font-size="10.00" fill="#000000">DCMPlanner.h</text>
</a>
</g>
</g>
<!-- Node11&#45;&gt;Node12 -->
<g id="edge5" class="edge">
<title>Node11&#45;&gt;Node12</title>
<path fill="none" stroke="#191970" d="M218.0249,-139.1001C206.2899,-129.432 192.4867,-118.06 180.8846,-108.5015"/>
<polygon fill="#191970" stroke="#191970" points="215.8228,-141.8206 225.7663,-145.478 220.2738,-136.418 215.8228,-141.8206"/>
</g>
<!-- Node14 -->
<g id="node8" class="node">
<title>Node14</title>
<g id="a_node8"><a xlink:href="DCMPlanner_8cpp.html" target="_top" xlink:title="Planners/src/DCMPlanner.cpp">
<polygon fill="none" stroke="#000000" points="257.5,-78.5 257.5,-97.5 406.5,-97.5 406.5,-78.5 257.5,-78.5"/>
<text text-anchor="middle" x="332" y="-85.5" font-family="Helvetica,sans-Serif" font-size="10.00" fill="#000000">Planners/src/DCMPlanner.cpp</text>
</a>
</g>
</g>
<!-- Node11&#45;&gt;Node14 -->
<g id="edge7" class="edge">
<title>Node11&#45;&gt;Node14</title>
<path fill="none" stroke="#191970" d="M270.0223,-139.0612C286.6758,-125.3409 307.4789,-108.202 320.2474,-97.6825"/>
<polygon fill="#191970" stroke="#191970" points="267.7262,-136.418 262.2337,-145.478 272.1772,-141.8206 267.7262,-136.418"/>
</g>
<!-- Node13 -->
<g id="node7" class="node">
<title>Node13</title>
<g id="a_node7"><a xlink:href="TimeVaryingDCMPlanner_8cpp.html" target="_top" xlink:title="Planners/src/TimeVarying\lDCMPlanner.cpp">
<polygon fill="none" stroke="#000000" points="91.5,-.5 91.5,-30.5 220.5,-30.5 220.5,-.5 91.5,-.5"/>
<text text-anchor="start" x="99.5" y="-18.5" font-family="Helvetica,sans-Serif" font-size="10.00" fill="#000000">Planners/src/TimeVarying</text>
<text text-anchor="middle" x="156" y="-7.5" font-family="Helvetica,sans-Serif" font-size="10.00" fill="#000000">DCMPlanner.cpp</text>
</a>
</g>
</g>
<!-- Node12&#45;&gt;Node13 -->
<g id="edge6" class="edge">
<title>Node12&#45;&gt;Node13</title>
<path fill="none" stroke="#191970" d="M156,-57.3279C156,-48.0871 156,-38.3508 156,-30.5991"/>
<polygon fill="#191970" stroke="#191970" points="152.5001,-57.4183 156,-67.4183 159.5001,-57.4184 152.5001,-57.4183"/>
</g>
<!-- Node17&#45;&gt;Node18 -->
<g id="edge12" class="edge">
<title>Node17&#45;&gt;Node18</title>
<path fill="none" stroke="#191970" d="M648.0871,-281.4378C657.3644,-267.7845 667.7573,-252.4893 674.3362,-242.8072"/>
<polygon fill="#191970" stroke="#191970" points="644.9283,-279.8591 642.203,-290.0974 650.7182,-283.7933 644.9283,-279.8591"/>
</g>
</g>
</svg>
