<?xml version="1.0" encoding="UTF-8" standalone="no"?>
<!DOCTYPE svg PUBLIC "-//W3C//DTD SVG 1.1//EN"
 "http://www.w3.org/Graphics/SVG/1.1/DTD/svg11.dtd">
<!-- Generated by graphviz version 2.40.1 (20161225.0304)
 -->
<!-- Title: Contacts/include/BipedalLocomotion/Contacts/ContactList.h Pages: 1 -->
<svg width="408pt" height="162pt"
 viewBox="0.00 0.00 407.50 162.00" xmlns="http://www.w3.org/2000/svg" xmlns:xlink="http://www.w3.org/1999/xlink">
<g id="graph0" class="graph" transform="scale(1 1) rotate(0) translate(4 158)">
<title>Contacts/include/BipedalLocomotion/Contacts/ContactList.h</title>
<!-- Node0 -->
<g id="node1" class="node">
<title>Node0</title>
<polygon fill="#bfbfbf" stroke="#000000" points="150.5,-123.5 150.5,-153.5 321.5,-153.5 321.5,-123.5 150.5,-123.5"/>
<text text-anchor="start" x="158.5" y="-141.5" font-family="Helvetica,sans-Serif" font-size="10.00" fill="#000000">Contacts/include/Bipedal</text>
<text text-anchor="middle" x="236" y="-130.5" font-family="Helvetica,sans-Serif" font-size="10.00" fill="#000000">Locomotion/Contacts/ContactList.h</text>
</g>
<!-- Node1 -->
<g id="node2" class="node">
<title>Node1</title>
<g id="a_node2"><a xlink:href="Contact_8h.html" target="_top" xlink:title="BipedalLocomotion/Contacts\l/Contact.h">
<polygon fill="none" stroke="#000000" points="0,-56.5 0,-86.5 142,-86.5 142,-56.5 0,-56.5"/>
<text text-anchor="start" x="8" y="-74.5" font-family="Helvetica,sans-Serif" font-size="10.00" fill="#000000">BipedalLocomotion/Contacts</text>
<text text-anchor="middle" x="71" y="-63.5" font-family="Helvetica,sans-Serif" font-size="10.00" fill="#000000">/Contact.h</text>
</a>
</g>
</g>
<!-- Node0&#45;&gt;Node1 -->
<g id="edge1" class="edge">
<title>Node0&#45;&gt;Node1</title>
<path fill="none" stroke="#191970" d="M198.9708,-123.4639C174.9592,-113.7137 143.4742,-100.9289 117.7431,-90.4805"/>
<polygon fill="#191970" stroke="#191970" points="118.7728,-87.1212 108.1907,-86.6017 116.1392,-93.6069 118.7728,-87.1212"/>
</g>
<!-- Node3 -->
<g id="node4" class="node">
<title>Node3</title>
<polygon fill="none" stroke="#bfbfbf" points="136.5,-.5 136.5,-19.5 177.5,-19.5 177.5,-.5 136.5,-.5"/>
<text text-anchor="middle" x="157" y="-7.5" font-family="Helvetica,sans-Serif" font-size="10.00" fill="#000000">string</text>
</g>
<!-- Node0&#45;&gt;Node3 -->
<g id="edge6" class="edge">
<title>Node0&#45;&gt;Node3</title>
<path fill="none" stroke="#191970" d="M219.6398,-123.4443C209.807,-113.7505 197.5793,-100.4795 189,-87 177.3793,-68.7421 168.418,-45.5489 162.9731,-29.4114"/>
<polygon fill="#191970" stroke="#191970" points="166.1804,-27.9538 159.7759,-19.5138 159.5193,-30.1056 166.1804,-27.9538"/>
</g>
<!-- Node4 -->
<g id="node5" class="node">
<title>Node4</title>
<polygon fill="none" stroke="#bfbfbf" points="198,-62 198,-81 274,-81 274,-62 198,-62"/>
<text text-anchor="middle" x="236" y="-69" font-family="Helvetica,sans-Serif" font-size="10.00" fill="#000000">manif/manif.h</text>
</g>
<!-- Node0&#45;&gt;Node4 -->
<g id="edge4" class="edge">
<title>Node0&#45;&gt;Node4</title>
<path fill="none" stroke="#191970" d="M236,-123.2967C236,-113.7699 236,-101.3954 236,-91.1306"/>
<polygon fill="#191970" stroke="#191970" points="239.5001,-91.0549 236,-81.055 232.5001,-91.055 239.5001,-91.0549"/>
</g>
<!-- Node5 -->
<g id="node6" class="node">
<title>Node5</title>
<polygon fill="none" stroke="#bfbfbf" points="292,-62 292,-81 322,-81 322,-62 292,-62"/>
<text text-anchor="middle" x="307" y="-69" font-family="Helvetica,sans-Serif" font-size="10.00" fill="#000000">set</text>
</g>
<!-- Node0&#45;&gt;Node5 -->
<g id="edge5" class="edge">
<title>Node0&#45;&gt;Node5</title>
<path fill="none" stroke="#191970" d="M252.111,-123.2967C263.2805,-112.7564 278.144,-98.7303 289.5867,-87.9323"/>
<polygon fill="#191970" stroke="#191970" points="292.0037,-90.4638 296.8746,-81.055 287.1994,-85.3727 292.0037,-90.4638"/>
</g>
<!-- Node6 -->
<g id="node7" class="node">
<title>Node6</title>
<polygon fill="none" stroke="#bfbfbf" points="340.5,-62 340.5,-81 399.5,-81 399.5,-62 340.5,-62"/>
<text text-anchor="middle" x="370" y="-69" font-family="Helvetica,sans-Serif" font-size="10.00" fill="#000000">functional</text>
</g>
<!-- Node0&#45;&gt;Node6 -->
<g id="edge7" class="edge">
<title>Node0&#45;&gt;Node6</title>
<path fill="none" stroke="#191970" d="M266.0722,-123.4639C288.657,-112.1715 319.3829,-96.8086 341.5616,-85.7192"/>
<polygon fill="#191970" stroke="#191970" points="343.4131,-88.7066 350.7922,-81.1039 340.2826,-82.4456 343.4131,-88.7066"/>
</g>
<!-- Node2 -->
<g id="node3" class="node">
<title>Node2</title>
<polygon fill="none" stroke="#bfbfbf" points="35.5,-.5 35.5,-19.5 106.5,-19.5 106.5,-.5 35.5,-.5"/>
<text text-anchor="middle" x="71" y="-7.5" font-family="Helvetica,sans-Serif" font-size="10.00" fill="#000000">manif/SE3.h</text>
</g>
<!-- Node1&#45;&gt;Node2 -->
<g id="edge2" class="edge">
<title>Node1&#45;&gt;Node2</title>
<path fill="none" stroke="#191970" d="M71,-56.2977C71,-48.3834 71,-38.6043 71,-30.0759"/>
<polygon fill="#191970" stroke="#191970" points="74.5001,-29.8469 71,-19.8469 67.5001,-29.847 74.5001,-29.8469"/>
</g>
<!-- Node1&#45;&gt;Node3 -->
<g id="edge3" class="edge">
<title>Node1&#45;&gt;Node3</title>
<path fill="none" stroke="#191970" d="M92.2584,-56.2977C105.2718,-46.9917 121.8903,-35.1075 135.0317,-25.7099"/>
<polygon fill="#191970" stroke="#191970" points="137.3889,-28.3271 143.4871,-19.6633 133.3171,-22.6332 137.3889,-28.3271"/>
</g>
</g>
</svg>
