<?xml version="1.0" encoding="UTF-8" standalone="no"?>
<!DOCTYPE svg PUBLIC "-//W3C//DTD SVG 1.1//EN"
 "http://www.w3.org/Graphics/SVG/1.1/DTD/svg11.dtd">
<!-- Generated by graphviz version 2.40.1 (20161225.0304)
 -->
<!-- Title: Contacts/include/BipedalLocomotion/ContactDetectors/ContactDetector.h Pages: 1 -->
<svg width="784pt" height="307pt"
 viewBox="0.00 0.00 783.50 307.00" xmlns="http://www.w3.org/2000/svg" xmlns:xlink="http://www.w3.org/1999/xlink">
<g id="graph0" class="graph" transform="scale(1 1) rotate(0) translate(4 303)">
<title>Contacts/include/BipedalLocomotion/ContactDetectors/ContactDetector.h</title>
<!-- Node0 -->
<g id="node1" class="node">
<title>Node0</title>
<polygon fill="#bfbfbf" stroke="#000000" points="491.5,-257.5 491.5,-298.5 638.5,-298.5 638.5,-257.5 491.5,-257.5"/>
<text text-anchor="start" x="499.5" y="-286.5" font-family="Helvetica,sans-Serif" font-size="10.00" fill="#000000">Contacts/include/Bipedal</text>
<text text-anchor="start" x="499.5" y="-275.5" font-family="Helvetica,sans-Serif" font-size="10.00" fill="#000000">Locomotion/ContactDetectors</text>
<text text-anchor="middle" x="565" y="-264.5" font-family="Helvetica,sans-Serif" font-size="10.00" fill="#000000">/ContactDetector.h</text>
</g>
<!-- Node1 -->
<g id="node2" class="node">
<title>Node1</title>
<g id="a_node2"><a xlink:href="Advanceable_8h.html" target="_top" xlink:title="BipedalLocomotion/System\l/Advanceable.h">
<polygon fill="none" stroke="#000000" points="170,-190.5 170,-220.5 306,-220.5 306,-190.5 170,-190.5"/>
<text text-anchor="start" x="178" y="-208.5" font-family="Helvetica,sans-Serif" font-size="10.00" fill="#000000">BipedalLocomotion/System</text>
<text text-anchor="middle" x="238" y="-197.5" font-family="Helvetica,sans-Serif" font-size="10.00" fill="#000000">/Advanceable.h</text>
</a>
</g>
</g>
<!-- Node0&#45;&gt;Node1 -->
<g id="edge1" class="edge">
<title>Node0&#45;&gt;Node1</title>
<path fill="none" stroke="#191970" d="M491.2071,-261.6392C438.9141,-250.0452 368.8889,-234.5197 315.7339,-222.7346"/>
<polygon fill="#191970" stroke="#191970" points="316.1965,-219.2522 305.6759,-220.5046 314.6813,-226.0863 316.1965,-219.2522"/>
</g>
<!-- Node2 -->
<g id="node3" class="node">
<title>Node2</title>
<g id="a_node3"><a xlink:href="IParametersHandler_8h.html" target="_top" xlink:title="BipedalLocomotion/Parameters\lHandler/IParametersHandler.h">
<polygon fill="none" stroke="#000000" points="324,-190.5 324,-220.5 476,-220.5 476,-190.5 324,-190.5"/>
<text text-anchor="start" x="332" y="-208.5" font-family="Helvetica,sans-Serif" font-size="10.00" fill="#000000">BipedalLocomotion/Parameters</text>
<text text-anchor="middle" x="400" y="-197.5" font-family="Helvetica,sans-Serif" font-size="10.00" fill="#000000">Handler/IParametersHandler.h</text>
</a>
</g>
</g>
<!-- Node0&#45;&gt;Node2 -->
<g id="edge2" class="edge">
<title>Node0&#45;&gt;Node2</title>
<path fill="none" stroke="#191970" d="M518.159,-257.4183C494.7122,-247.116 466.5071,-234.7228 443.5346,-224.6289"/>
<polygon fill="#191970" stroke="#191970" points="444.9267,-221.4176 434.3635,-220.5991 442.1107,-227.8262 444.9267,-221.4176"/>
</g>
<!-- Node14 -->
<g id="node15" class="node">
<title>Node14</title>
<polygon fill="none" stroke="#bfbfbf" points="594,-62 594,-81 648,-81 648,-62 594,-62"/>
<text text-anchor="middle" x="621" y="-69" font-family="Helvetica,sans-Serif" font-size="10.00" fill="#000000">iostream</text>
</g>
<!-- Node0&#45;&gt;Node14 -->
<g id="edge20" class="edge">
<title>Node0&#45;&gt;Node14</title>
<path fill="none" stroke="#191970" d="M608.7907,-257.4544C622.9926,-248.4125 637.1094,-236.3106 645,-221 667.0831,-178.1506 645.214,-119.9779 631.0295,-90.4216"/>
<polygon fill="#191970" stroke="#191970" points="634.0314,-88.6 626.4173,-81.2327 627.7752,-91.7402 634.0314,-88.6"/>
</g>
<!-- Node15 -->
<g id="node16" class="node">
<title>Node15</title>
<g id="a_node16"><a xlink:href="Contact_8h.html" target="_top" xlink:title="BipedalLocomotion/Contacts\l/Contact.h">
<polygon fill="none" stroke="#000000" points="494,-190.5 494,-220.5 636,-220.5 636,-190.5 494,-190.5"/>
<text text-anchor="start" x="502" y="-208.5" font-family="Helvetica,sans-Serif" font-size="10.00" fill="#000000">BipedalLocomotion/Contacts</text>
<text text-anchor="middle" x="565" y="-197.5" font-family="Helvetica,sans-Serif" font-size="10.00" fill="#000000">/Contact.h</text>
</a>
</g>
</g>
<!-- Node0&#45;&gt;Node15 -->
<g id="edge17" class="edge">
<title>Node0&#45;&gt;Node15</title>
<path fill="none" stroke="#191970" d="M565,-257.4183C565,-249.0849 565,-239.3834 565,-230.6373"/>
<polygon fill="#191970" stroke="#191970" points="568.5001,-230.5991 565,-220.5991 561.5001,-230.5991 568.5001,-230.5991"/>
</g>
<!-- Node17 -->
<g id="node18" class="node">
<title>Node17</title>
<polygon fill="none" stroke="#bfbfbf" points="692.5,-196 692.5,-215 775.5,-215 775.5,-196 692.5,-196"/>
<text text-anchor="middle" x="734" y="-203" font-family="Helvetica,sans-Serif" font-size="10.00" fill="#000000">unordered_map</text>
</g>
<!-- Node0&#45;&gt;Node17 -->
<g id="edge21" class="edge">
<title>Node0&#45;&gt;Node17</title>
<path fill="none" stroke="#191970" d="M612.9766,-257.4183C641.5783,-245.1484 677.093,-229.9127 702.2334,-219.1277"/>
<polygon fill="#191970" stroke="#191970" points="703.8461,-222.2444 711.6562,-215.0853 701.0863,-215.8114 703.8461,-222.2444"/>
</g>
<!-- Node3 -->
<g id="node4" class="node">
<title>Node3</title>
<polygon fill="none" stroke="#bfbfbf" points="480,-62 480,-81 532,-81 532,-62 480,-62"/>
<text text-anchor="middle" x="506" y="-69" font-family="Helvetica,sans-Serif" font-size="10.00" fill="#000000">memory</text>
</g>
<!-- Node2&#45;&gt;Node3 -->
<g id="edge3" class="edge">
<title>Node2&#45;&gt;Node3</title>
<path fill="none" stroke="#191970" d="M413.3461,-190.3866C422.2037,-180.2334 433.9965,-166.4787 444,-154 461.3981,-132.2971 480.4964,-106.576 492.834,-89.692"/>
<polygon fill="#191970" stroke="#191970" points="495.8848,-91.448 498.939,-81.3029 490.2249,-87.3291 495.8848,-91.448"/>
</g>
<!-- Node4 -->
<g id="node5" class="node">
<title>Node4</title>
<polygon fill="none" stroke="#bfbfbf" points="491.5,-129 491.5,-148 532.5,-148 532.5,-129 491.5,-129"/>
<text text-anchor="middle" x="512" y="-136" font-family="Helvetica,sans-Serif" font-size="10.00" fill="#000000">string</text>
</g>
<!-- Node2&#45;&gt;Node4 -->
<g id="edge4" class="edge">
<title>Node2&#45;&gt;Node4</title>
<path fill="none" stroke="#191970" d="M425.135,-190.4639C443.6732,-179.3741 468.774,-164.3584 487.2262,-153.32"/>
<polygon fill="#191970" stroke="#191970" points="489.1608,-156.2412 495.9457,-148.1039 485.5672,-150.2341 489.1608,-156.2412"/>
</g>
<!-- Node5 -->
<g id="node6" class="node">
<title>Node5</title>
<polygon fill="none" stroke="#bfbfbf" points="391,-129 391,-148 435,-148 435,-129 391,-129"/>
<text text-anchor="middle" x="413" y="-136" font-family="Helvetica,sans-Serif" font-size="10.00" fill="#000000">vector</text>
</g>
<!-- Node2&#45;&gt;Node5 -->
<g id="edge5" class="edge">
<title>Node2&#45;&gt;Node5</title>
<path fill="none" stroke="#191970" d="M402.9499,-190.2967C404.7984,-180.7699 407.1994,-168.3954 409.1911,-158.1306"/>
<polygon fill="#191970" stroke="#191970" points="412.6771,-158.5386 411.1461,-148.055 405.8053,-157.2052 412.6771,-158.5386"/>
</g>
<!-- Node6 -->
<g id="node7" class="node">
<title>Node6</title>
<g id="a_node7"><a xlink:href="Vector_8h_source.html" target="_top" xlink:title="BipedalLocomotion/Generic\lContainer/Vector.h">
<polygon fill="none" stroke="#000000" points="237,-123.5 237,-153.5 373,-153.5 373,-123.5 237,-123.5"/>
<text text-anchor="start" x="245" y="-141.5" font-family="Helvetica,sans-Serif" font-size="10.00" fill="#000000">BipedalLocomotion/Generic</text>
<text text-anchor="middle" x="305" y="-130.5" font-family="Helvetica,sans-Serif" font-size="10.00" fill="#000000">Container/Vector.h</text>
</a>
</g>
</g>
<!-- Node2&#45;&gt;Node6 -->
<g id="edge6" class="edge">
<title>Node2&#45;&gt;Node6</title>
<path fill="none" stroke="#191970" d="M378.443,-190.2967C365.5679,-181.2163 349.0245,-169.5488 334.8995,-159.587"/>
<polygon fill="#191970" stroke="#191970" points="336.661,-156.5464 326.4717,-153.6432 332.6265,-162.2669 336.661,-156.5464"/>
</g>
<!-- Node8 -->
<g id="node9" class="node">
<title>Node8</title>
<g id="a_node9"><a xlink:href="TemplateHelpers_8h_source.html" target="_top" xlink:title="BipedalLocomotion/Generic\lContainer/TemplateHelpers.h">
<polygon fill="none" stroke="#000000" points="41,-56.5 41,-86.5 185,-86.5 185,-56.5 41,-56.5"/>
<text text-anchor="start" x="49" y="-74.5" font-family="Helvetica,sans-Serif" font-size="10.00" fill="#000000">BipedalLocomotion/Generic</text>
<text text-anchor="middle" x="113" y="-63.5" font-family="Helvetica,sans-Serif" font-size="10.00" fill="#000000">Container/TemplateHelpers.h</text>
</a>
</g>
</g>
<!-- Node2&#45;&gt;Node8 -->
<g id="edge16" class="edge">
<title>Node2&#45;&gt;Node8</title>
<path fill="none" stroke="#191970" d="M331.0599,-190.4435C298.8119,-182.0113 260.4539,-169.9426 228,-154 194.5595,-137.5728 160.3884,-111.6626 138.0837,-93.266"/>
<polygon fill="#191970" stroke="#191970" points="140.0572,-90.3536 130.1425,-86.6187 135.564,-95.7213 140.0572,-90.3536"/>
</g>
<!-- Node6&#45;&gt;Node3 -->
<g id="edge15" class="edge">
<title>Node6&#45;&gt;Node3</title>
<path fill="none" stroke="#191970" d="M358.9863,-123.4754C391.7139,-113.9425 434.1307,-100.8298 471,-87 472.6256,-86.3902 474.2838,-85.7435 475.9512,-85.0737"/>
<polygon fill="#191970" stroke="#191970" points="477.5769,-88.187 485.4363,-81.082 474.8616,-81.735 477.5769,-88.187"/>
</g>
<!-- Node7 -->
<g id="node8" class="node">
<title>Node7</title>
<polygon fill="none" stroke="#bfbfbf" points="348,-62 348,-81 462,-81 462,-62 348,-62"/>
<text text-anchor="middle" x="405" y="-69" font-family="Helvetica,sans-Serif" font-size="10.00" fill="#000000">iDynTree/Core/Span.h</text>
</g>
<!-- Node6&#45;&gt;Node7 -->
<g id="edge7" class="edge">
<title>Node6&#45;&gt;Node7</title>
<path fill="none" stroke="#191970" d="M327.6915,-123.2967C344.0283,-112.351 365.9759,-97.6462 382.3119,-86.701"/>
<polygon fill="#191970" stroke="#191970" points="384.3793,-89.5289 390.7388,-81.055 380.483,-83.7135 384.3793,-89.5289"/>
</g>
<!-- Node6&#45;&gt;Node8 -->
<g id="edge8" class="edge">
<title>Node6&#45;&gt;Node8</title>
<path fill="none" stroke="#191970" d="M261.9115,-123.4639C233.4783,-113.5419 196.0397,-100.4774 165.8155,-89.9304"/>
<polygon fill="#191970" stroke="#191970" points="166.8713,-86.5919 156.2765,-86.6017 164.5649,-93.2011 166.8713,-86.5919"/>
</g>
<!-- Node12 -->
<g id="node13" class="node">
<title>Node12</title>
<polygon fill="none" stroke="#bfbfbf" points="203.5,-62 203.5,-81 262.5,-81 262.5,-62 203.5,-62"/>
<text text-anchor="middle" x="233" y="-69" font-family="Helvetica,sans-Serif" font-size="10.00" fill="#000000">functional</text>
</g>
<!-- Node6&#45;&gt;Node12 -->
<g id="edge12" class="edge">
<title>Node6&#45;&gt;Node12</title>
<path fill="none" stroke="#191970" d="M288.6621,-123.2967C277.3352,-112.7564 262.2624,-98.7303 250.6586,-87.9323"/>
<polygon fill="#191970" stroke="#191970" points="252.9731,-85.3051 243.268,-81.055 248.2044,-90.4296 252.9731,-85.3051"/>
</g>
<!-- Node13 -->
<g id="node14" class="node">
<title>Node13</title>
<polygon fill="none" stroke="#bfbfbf" points="280.5,-62 280.5,-81 329.5,-81 329.5,-62 280.5,-62"/>
<text text-anchor="middle" x="305" y="-69" font-family="Helvetica,sans-Serif" font-size="10.00" fill="#000000">cassert</text>
</g>
<!-- Node6&#45;&gt;Node13 -->
<g id="edge13" class="edge">
<title>Node6&#45;&gt;Node13</title>
<path fill="none" stroke="#191970" d="M305,-123.2967C305,-113.7699 305,-101.3954 305,-91.1306"/>
<polygon fill="#191970" stroke="#191970" points="308.5001,-91.0549 305,-81.055 301.5001,-91.055 308.5001,-91.0549"/>
</g>
<!-- Node6&#45;&gt;Node14 -->
<g id="edge14" class="edge">
<title>Node6&#45;&gt;Node14</title>
<path fill="none" stroke="#191970" d="M373.1782,-124.0445C437.6802,-110.3684 532.0889,-90.3514 583.7748,-79.3927"/>
<polygon fill="#191970" stroke="#191970" points="584.7686,-82.7599 593.8252,-77.2617 583.3167,-75.9121 584.7686,-82.7599"/>
</g>
<!-- Node9 -->
<g id="node10" class="node">
<title>Node9</title>
<polygon fill="none" stroke="#bfbfbf" points="0,-.5 0,-19.5 62,-19.5 62,-.5 0,-.5"/>
<text text-anchor="middle" x="31" y="-7.5" font-family="Helvetica,sans-Serif" font-size="10.00" fill="#000000">type_traits</text>
</g>
<!-- Node8&#45;&gt;Node9 -->
<g id="edge9" class="edge">
<title>Node8&#45;&gt;Node9</title>
<path fill="none" stroke="#191970" d="M92.7303,-56.2977C80.3994,-47.0495 64.6734,-35.2551 52.1803,-25.8853"/>
<polygon fill="#191970" stroke="#191970" points="54.2293,-23.047 44.1292,-19.8469 50.0292,-28.647 54.2293,-23.047"/>
</g>
<!-- Node10 -->
<g id="node11" class="node">
<title>Node10</title>
<polygon fill="none" stroke="#bfbfbf" points="80,-.5 80,-19.5 146,-19.5 146,-.5 80,-.5"/>
<text text-anchor="middle" x="113" y="-7.5" font-family="Helvetica,sans-Serif" font-size="10.00" fill="#000000">string_view</text>
</g>
<!-- Node8&#45;&gt;Node10 -->
<g id="edge10" class="edge">
<title>Node8&#45;&gt;Node10</title>
<path fill="none" stroke="#191970" d="M113,-56.2977C113,-48.3834 113,-38.6043 113,-30.0759"/>
<polygon fill="#191970" stroke="#191970" points="116.5001,-29.8469 113,-19.8469 109.5001,-29.847 116.5001,-29.8469"/>
</g>
<!-- Node11 -->
<g id="node12" class="node">
<title>Node11</title>
<polygon fill="none" stroke="#bfbfbf" points="164.5,-.5 164.5,-19.5 229.5,-19.5 229.5,-.5 164.5,-.5"/>
<text text-anchor="middle" x="197" y="-7.5" font-family="Helvetica,sans-Serif" font-size="10.00" fill="#000000">Eigen/Core</text>
</g>
<!-- Node8&#45;&gt;Node11 -->
<g id="edge11" class="edge">
<title>Node8&#45;&gt;Node11</title>
<path fill="none" stroke="#191970" d="M133.7641,-56.2977C146.3958,-47.0495 162.5053,-35.2551 175.3031,-25.8853"/>
<polygon fill="#191970" stroke="#191970" points="177.5495,-28.5784 183.5505,-19.8469 173.4143,-22.9303 177.5495,-28.5784"/>
</g>
<!-- Node15&#45;&gt;Node4 -->
<g id="edge19" class="edge">
<title>Node15&#45;&gt;Node4</title>
<path fill="none" stroke="#191970" d="M552.9735,-190.2967C544.9563,-180.1618 534.3898,-166.804 525.9953,-156.1921"/>
<polygon fill="#191970" stroke="#191970" points="528.5075,-153.7264 519.5584,-148.055 523.0175,-158.0692 528.5075,-153.7264"/>
</g>
<!-- Node16 -->
<g id="node17" class="node">
<title>Node16</title>
<polygon fill="none" stroke="#bfbfbf" points="550.5,-129 550.5,-148 621.5,-148 621.5,-129 550.5,-129"/>
<text text-anchor="middle" x="586" y="-136" font-family="Helvetica,sans-Serif" font-size="10.00" fill="#000000">manif/SE3.h</text>
</g>
<!-- Node15&#45;&gt;Node16 -->
<g id="edge18" class="edge">
<title>Node15&#45;&gt;Node16</title>
<path fill="none" stroke="#191970" d="M569.7652,-190.2967C572.783,-180.6685 576.7124,-168.1318 579.9496,-157.8038"/>
<polygon fill="#191970" stroke="#191970" points="583.354,-158.6441 583.0052,-148.055 576.6744,-156.5504 583.354,-158.6441"/>
</g>
</g>
</svg>
