<?xml version="1.0" encoding="UTF-8" standalone="no"?>
<!DOCTYPE svg PUBLIC "-//W3C//DTD SVG 1.1//EN"
 "http://www.w3.org/Graphics/SVG/1.1/DTD/svg11.dtd">
<!-- Generated by graphviz version 2.40.1 (20161225.0304)
 -->
<!-- Title: Contacts/include/BipedalLocomotion/Contacts/ContactPhase.h Pages: 1 -->
<svg width="427pt" height="329pt"
 viewBox="0.00 0.00 426.50 329.00" xmlns="http://www.w3.org/2000/svg" xmlns:xlink="http://www.w3.org/1999/xlink">
<g id="graph0" class="graph" transform="scale(1 1) rotate(0) translate(4 325)">
<title>Contacts/include/BipedalLocomotion/Contacts/ContactPhase.h</title>
<!-- Node9 -->
<g id="node1" class="node">
<title>Node9</title>
<polygon fill="#bfbfbf" stroke="#000000" points="156.5,-290.5 156.5,-320.5 339.5,-320.5 339.5,-290.5 156.5,-290.5"/>
<text text-anchor="start" x="164.5" y="-308.5" font-family="Helvetica,sans-Serif" font-size="10.00" fill="#000000">Contacts/include/Bipedal</text>
<text text-anchor="middle" x="248" y="-297.5" font-family="Helvetica,sans-Serif" font-size="10.00" fill="#000000">Locomotion/Contacts/ContactPhase.h</text>
</g>
<!-- Node10 -->
<g id="node2" class="node">
<title>Node10</title>
<g id="a_node2"><a xlink:href="ContactPhaseList_8h_source.html" target="_top" xlink:title="Contacts/include/Bipedal\lLocomotion/Contacts/ContactPhase\lList.h">
<polygon fill="none" stroke="#000000" points="68.5,-212.5 68.5,-253.5 243.5,-253.5 243.5,-212.5 68.5,-212.5"/>
<text text-anchor="start" x="76.5" y="-241.5" font-family="Helvetica,sans-Serif" font-size="10.00" fill="#000000">Contacts/include/Bipedal</text>
<text text-anchor="start" x="76.5" y="-230.5" font-family="Helvetica,sans-Serif" font-size="10.00" fill="#000000">Locomotion/Contacts/ContactPhase</text>
<text text-anchor="middle" x="156" y="-219.5" font-family="Helvetica,sans-Serif" font-size="10.00" fill="#000000">List.h</text>
</a>
</g>
</g>
<!-- Node9&#45;&gt;Node10 -->
<g id="edge1" class="edge">
<title>Node9&#45;&gt;Node10</title>
<path fill="none" stroke="#191970" d="M220.8443,-284.1001C208.5758,-274.432 194.1452,-263.06 182.0157,-253.5015"/>
<polygon fill="#191970" stroke="#191970" points="218.9169,-287.0374 228.9375,-290.478 223.2496,-281.5394 218.9169,-287.0374"/>
</g>
<!-- Node16 -->
<g id="node8" class="node">
<title>Node16</title>
<g id="a_node8"><a xlink:href="ContactPhase_8cpp.html" target="_top" xlink:title="Contacts/src/ContactPhase.cpp">
<polygon fill="none" stroke="#000000" points="261.5,-223.5 261.5,-242.5 418.5,-242.5 418.5,-223.5 261.5,-223.5"/>
<text text-anchor="middle" x="340" y="-230.5" font-family="Helvetica,sans-Serif" font-size="10.00" fill="#000000">Contacts/src/ContactPhase.cpp</text>
</a>
</g>
</g>
<!-- Node9&#45;&gt;Node16 -->
<g id="edge7" class="edge">
<title>Node9&#45;&gt;Node16</title>
<path fill="none" stroke="#191970" d="M275.2051,-284.0612C292.6157,-270.3409 314.3643,-253.202 327.7132,-242.6825"/>
<polygon fill="#191970" stroke="#191970" points="272.7504,-281.5394 267.0625,-290.478 277.0831,-287.0374 272.7504,-281.5394"/>
</g>
<!-- Node11 -->
<g id="node3" class="node">
<title>Node11</title>
<g id="a_node3"><a xlink:href="ContactPhaseList_8cpp_source.html" target="_top" xlink:title="Contacts/src/ContactPhase\lList.cpp">
<polygon fill="none" stroke="#000000" points="0,-145.5 0,-175.5 138,-175.5 138,-145.5 0,-145.5"/>
<text text-anchor="start" x="8" y="-163.5" font-family="Helvetica,sans-Serif" font-size="10.00" fill="#000000">Contacts/src/ContactPhase</text>
<text text-anchor="middle" x="69" y="-152.5" font-family="Helvetica,sans-Serif" font-size="10.00" fill="#000000">List.cpp</text>
</a>
</g>
</g>
<!-- Node10&#45;&gt;Node11 -->
<g id="edge2" class="edge">
<title>Node10&#45;&gt;Node11</title>
<path fill="none" stroke="#191970" d="M123.4499,-205.8749C111.1592,-195.6327 97.6212,-184.351 87.1189,-175.5991"/>
<polygon fill="#191970" stroke="#191970" points="121.3791,-208.7052 131.302,-212.4183 125.8604,-203.3277 121.3791,-208.7052"/>
</g>
<!-- Node12 -->
<g id="node4" class="node">
<title>Node12</title>
<g id="a_node4"><a xlink:href="DCMPlanner_8h.html" target="_top" xlink:title="Planners/include/Bipedal\lLocomotion/Planners/DCMPlanner.h">
<polygon fill="none" stroke="#000000" points="156,-145.5 156,-175.5 332,-175.5 332,-145.5 156,-145.5"/>
<text text-anchor="start" x="164" y="-163.5" font-family="Helvetica,sans-Serif" font-size="10.00" fill="#000000">Planners/include/Bipedal</text>
<text text-anchor="middle" x="244" y="-152.5" font-family="Helvetica,sans-Serif" font-size="10.00" fill="#000000">Locomotion/Planners/DCMPlanner.h</text>
</a>
</g>
</g>
<!-- Node10&#45;&gt;Node12 -->
<g id="edge3" class="edge">
<title>Node10&#45;&gt;Node12</title>
<path fill="none" stroke="#191970" d="M188.9243,-205.8749C201.3562,-195.6327 215.0498,-184.351 225.6728,-175.5991"/>
<polygon fill="#191970" stroke="#191970" points="186.4744,-203.3584 180.9819,-212.4183 190.9255,-208.761 186.4744,-203.3584"/>
</g>
<!-- Node13 -->
<g id="node5" class="node">
<title>Node13</title>
<g id="a_node5"><a xlink:href="TimeVaryingDCMPlanner_8h.html" target="_top" xlink:title="Planners/include/Bipedal\lLocomotion/Planners/TimeVarying\lDCMPlanner.h">
<polygon fill="none" stroke="#000000" points="73,-67.5 73,-108.5 239,-108.5 239,-67.5 73,-67.5"/>
<text text-anchor="start" x="81" y="-96.5" font-family="Helvetica,sans-Serif" font-size="10.00" fill="#000000">Planners/include/Bipedal</text>
<text text-anchor="start" x="81" y="-85.5" font-family="Helvetica,sans-Serif" font-size="10.00" fill="#000000">Locomotion/Planners/TimeVarying</text>
<text text-anchor="middle" x="156" y="-74.5" font-family="Helvetica,sans-Serif" font-size="10.00" fill="#000000">DCMPlanner.h</text>
</a>
</g>
</g>
<!-- Node12&#45;&gt;Node13 -->
<g id="edge4" class="edge">
<title>Node12&#45;&gt;Node13</title>
<path fill="none" stroke="#191970" d="M218.0249,-139.1001C206.2899,-129.432 192.4867,-118.06 180.8846,-108.5015"/>
<polygon fill="#191970" stroke="#191970" points="215.8228,-141.8206 225.7663,-145.478 220.2738,-136.418 215.8228,-141.8206"/>
</g>
<!-- Node15 -->
<g id="node7" class="node">
<title>Node15</title>
<g id="a_node7"><a xlink:href="DCMPlanner_8cpp.html" target="_top" xlink:title="Planners/src/DCMPlanner.cpp">
<polygon fill="none" stroke="#000000" points="257.5,-78.5 257.5,-97.5 406.5,-97.5 406.5,-78.5 257.5,-78.5"/>
<text text-anchor="middle" x="332" y="-85.5" font-family="Helvetica,sans-Serif" font-size="10.00" fill="#000000">Planners/src/DCMPlanner.cpp</text>
</a>
</g>
</g>
<!-- Node12&#45;&gt;Node15 -->
<g id="edge6" class="edge">
<title>Node12&#45;&gt;Node15</title>
<path fill="none" stroke="#191970" d="M270.0223,-139.0612C286.6758,-125.3409 307.4789,-108.202 320.2474,-97.6825"/>
<polygon fill="#191970" stroke="#191970" points="267.7262,-136.418 262.2337,-145.478 272.1772,-141.8206 267.7262,-136.418"/>
</g>
<!-- Node14 -->
<g id="node6" class="node">
<title>Node14</title>
<g id="a_node6"><a xlink:href="TimeVaryingDCMPlanner_8cpp.html" target="_top" xlink:title="Planners/src/TimeVarying\lDCMPlanner.cpp">
<polygon fill="none" stroke="#000000" points="91.5,-.5 91.5,-30.5 220.5,-30.5 220.5,-.5 91.5,-.5"/>
<text text-anchor="start" x="99.5" y="-18.5" font-family="Helvetica,sans-Serif" font-size="10.00" fill="#000000">Planners/src/TimeVarying</text>
<text text-anchor="middle" x="156" y="-7.5" font-family="Helvetica,sans-Serif" font-size="10.00" fill="#000000">DCMPlanner.cpp</text>
</a>
</g>
</g>
<!-- Node13&#45;&gt;Node14 -->
<g id="edge5" class="edge">
<title>Node13&#45;&gt;Node14</title>
<path fill="none" stroke="#191970" d="M156,-57.3279C156,-48.0871 156,-38.3508 156,-30.5991"/>
<polygon fill="#191970" stroke="#191970" points="152.5001,-57.4183 156,-67.4183 159.5001,-57.4184 152.5001,-57.4183"/>
</g>
</g>
</svg>
