<?xml version="1.0" encoding="UTF-8" standalone="no"?>
<!DOCTYPE svg PUBLIC "-//W3C//DTD SVG 1.1//EN"
 "http://www.w3.org/Graphics/SVG/1.1/DTD/svg11.dtd">
<!-- Generated by graphviz version 2.40.1 (20161225.0304)
 -->
<!-- Title: Contacts/include/BipedalLocomotion/Contacts/Contact.h Pages: 1 -->
<!--zoomable 496 -->
<svg id="main" version="1.1" xmlns="http://www.w3.org/2000/svg" xmlns:xlink="http://www.w3.org/1999/xlink" xml:space="preserve" onload="init(evt)">
<style type="text/css"><![CDATA[
.edge:hover path { stroke: red; }
.edge:hover polygon { stroke: red; fill: red; }
]]></style>
<script type="text/javascript"><![CDATA[
var edges = document.getElementsByTagName('g');
if (edges && edges.length) {
  for (var i=0;i<edges.length;i++) {
    if (edges[i].id.substr(0,4)=='edge') {
      edges[i].setAttribute('class','edge');
    }
  }
}
]]></script>
        <defs>
                <circle id="rim" cx="0" cy="0" r="7"/>
                <circle id="rim2" cx="0" cy="0" r="3.5"/>
                <g id="zoomPlus">
                        <use xlink:href="#rim" fill="#404040">
                                <set attributeName="fill" to="#808080" begin="zoomplus.mouseover" end="zoomplus.mouseout"/>
                        </use>
                        <path d="M-4,0h8M0,-4v8" fill="none" stroke="white" stroke-width="1.5" pointer-events="none"/>
                </g>
                <g id="zoomMin">
                        <use xlink:href="#rim" fill="#404040">
                                <set attributeName="fill" to="#808080" begin="zoomminus.mouseover" end="zoomminus.mouseout"/>
                        </use>
                        <path d="M-4,0h8" fill="none" stroke="white" stroke-width="1.5" pointer-events="none"/>
                </g>
                <g id="dirArrow">
                        <path fill="none" stroke="white" stroke-width="1.5" d="M0,-3.0v7 M-2.5,-0.5L0,-3.0L2.5,-0.5"/>
                </g>
               <g id="resetDef">
                       <use xlink:href="#rim2" fill="#404040">
                               <set attributeName="fill" to="#808080" begin="reset.mouseover" end="reset.mouseout"/>
                       </use>
               </g>
        </defs>

<script type="text/javascript">
var viewWidth = 1411;
var viewHeight = 496;
var sectionId = 'dynsection-1';
</script>
<script xlink:href="svgpan.js"/>
<svg id="graph" class="graph">
<g id="viewport">
<title>Contacts/include/BipedalLocomotion/Contacts/Contact.h</title>
<!-- Node3 -->
<g id="node1" class="node">
<title>Node3</title>
<polygon fill="#bfbfbf" stroke="#000000" points="470,-457.5 470,-487.5 625,-487.5 625,-457.5 470,-457.5"/>
<text text-anchor="start" x="478" y="-475.5" font-family="Helvetica,sans-Serif" font-size="10.00" fill="#000000">Contacts/include/Bipedal</text>
<text text-anchor="middle" x="547.5" y="-464.5" font-family="Helvetica,sans-Serif" font-size="10.00" fill="#000000">Locomotion/Contacts/Contact.h</text>
</g>
<!-- Node4 -->
<g id="node2" class="node">
<title>Node4</title>
<g id="a_node2"><a xlink:href="ContactDetector_8h.html" target="_top" xlink:title="Contacts/include/Bipedal\lLocomotion/ContactDetectors\l/ContactDetector.h">
<polygon fill="none" stroke="#000000" points="185,-379.5 185,-420.5 332,-420.5 332,-379.5 185,-379.5"/>
<text text-anchor="start" x="193" y="-408.5" font-family="Helvetica,sans-Serif" font-size="10.00" fill="#000000">Contacts/include/Bipedal</text>
<text text-anchor="start" x="193" y="-397.5" font-family="Helvetica,sans-Serif" font-size="10.00" fill="#000000">Locomotion/ContactDetectors</text>
<text text-anchor="middle" x="258.5" y="-386.5" font-family="Helvetica,sans-Serif" font-size="10.00" fill="#000000">/ContactDetector.h</text>
</a>
</g>
</g>
<!-- Node3&#45;&gt;Node4 -->
<g id="edge1" class="edge">
<title>Node3&#45;&gt;Node4</title>
<path fill="none" stroke="#191970" d="M477.8568,-455.0289C433.8137,-443.9801 376.9532,-429.7158 332.16,-418.4787"/>
<polygon fill="#191970" stroke="#191970" points="477.0679,-458.4394 487.619,-457.478 478.7712,-451.6498 477.0679,-458.4394"/>
</g>
<!-- Node8 -->
<g id="node6" class="node">
<title>Node8</title>
<g id="a_node6"><a xlink:href="ContactList_8h.html" target="_top" xlink:title="Contacts/include/Bipedal\lLocomotion/Contacts/ContactList.h">
<polygon fill="none" stroke="#000000" points="519,-385 519,-415 690,-415 690,-385 519,-385"/>
<text text-anchor="start" x="527" y="-403" font-family="Helvetica,sans-Serif" font-size="10.00" fill="#000000">Contacts/include/Bipedal</text>
<text text-anchor="middle" x="604.5" y="-392" font-family="Helvetica,sans-Serif" font-size="10.00" fill="#000000">Locomotion/Contacts/ContactList.h</text>
</a>
</g>
</g>
<!-- Node3&#45;&gt;Node8 -->
<g id="edge5" class="edge">
<title>Node3&#45;&gt;Node8</title>
<path fill="none" stroke="#191970" d="M565.7052,-449.3443C574.5455,-438.1 584.9125,-424.9139 592.7047,-415.0028"/>
<polygon fill="#191970" stroke="#191970" points="562.7396,-447.4534 559.3104,-457.478 568.2425,-451.7799 562.7396,-447.4534"/>
</g>
<!-- Node9 -->
<g id="node7" class="node">
<title>Node9</title>
<g id="a_node7"><a xlink:href="ContactPhase_8h.html" target="_top" xlink:title="Contacts/include/Bipedal\lLocomotion/Contacts/ContactPhase.h">
<polygon fill="none" stroke="#000000" points="393,-307 393,-337 576,-337 576,-307 393,-307"/>
<text text-anchor="start" x="401" y="-325" font-family="Helvetica,sans-Serif" font-size="10.00" fill="#000000">Contacts/include/Bipedal</text>
<text text-anchor="middle" x="484.5" y="-314" font-family="Helvetica,sans-Serif" font-size="10.00" fill="#000000">Locomotion/Contacts/ContactPhase.h</text>
</a>
</g>
</g>
<!-- Node3&#45;&gt;Node9 -->
<g id="edge19" class="edge">
<title>Node3&#45;&gt;Node9</title>
<path fill="none" stroke="#191970" d="M527.4573,-449.3706C520.9485,-440.9006 514.2006,-430.9454 509.5,-421 496.2437,-392.9526 489.4287,-356.9885 486.4433,-337.0379"/>
<polygon fill="#191970" stroke="#191970" points="524.8179,-451.674 533.8018,-457.2902 530.2811,-447.2974 524.8179,-451.674"/>
</g>
<!-- Node10 -->
<g id="node8" class="node">
<title>Node10</title>
<g id="a_node8"><a xlink:href="ContactPhaseList_8h_source.html" target="_top" xlink:title="Contacts/include/Bipedal\lLocomotion/Contacts/ContactPhase\lList.h">
<polygon fill="none" stroke="#000000" points="501,-218 501,-259 676,-259 676,-218 501,-218"/>
<text text-anchor="start" x="509" y="-247" font-family="Helvetica,sans-Serif" font-size="10.00" fill="#000000">Contacts/include/Bipedal</text>
<text text-anchor="start" x="509" y="-236" font-family="Helvetica,sans-Serif" font-size="10.00" fill="#000000">Locomotion/Contacts/ContactPhase</text>
<text text-anchor="middle" x="588.5" y="-225" font-family="Helvetica,sans-Serif" font-size="10.00" fill="#000000">List.h</text>
</a>
</g>
</g>
<!-- Node3&#45;&gt;Node10 -->
<g id="edge20" class="edge">
<title>Node3&#45;&gt;Node10</title>
<path fill="none" stroke="#191970" d="M503.2806,-452.9732C440.7607,-422.6167 338.8411,-361.3038 383.5,-301 387.6381,-295.4123 456.8558,-275.036 513.7308,-259.0493"/>
<polygon fill="#191970" stroke="#191970" points="502.039,-456.2585 512.5722,-457.3992 505.0493,-449.9389 502.039,-456.2585"/>
</g>
<!-- Node20 -->
<g id="node18" class="node">
<title>Node20</title>
<g id="a_node18"><a xlink:href="Contact_8cpp.html" target="_top" xlink:title="Contacts/src/Contact.cpp">
<polygon fill="none" stroke="#000000" points="708,-390.5 708,-409.5 837,-409.5 837,-390.5 708,-390.5"/>
<text text-anchor="middle" x="772.5" y="-397.5" font-family="Helvetica,sans-Serif" font-size="10.00" fill="#000000">Contacts/src/Contact.cpp</text>
</a>
</g>
</g>
<!-- Node3&#45;&gt;Node20 -->
<g id="edge21" class="edge">
<title>Node3&#45;&gt;Node20</title>
<path fill="none" stroke="#191970" d="M603.8418,-454.3454C647.9357,-440.1374 707.5099,-420.9412 742.7795,-409.5766"/>
<polygon fill="#191970" stroke="#191970" points="602.5648,-451.0796 594.1201,-457.478 604.7117,-457.7423 602.5648,-451.0796"/>
</g>
<!-- Node21 -->
<g id="node19" class="node">
<title>Node21</title>
<g id="a_node19"><a xlink:href="FloatingBaseEstimatorIO_8h.html" target="_top" xlink:title="Estimators/include\l/BipedalLocomotion/Floating\lBaseEstimators/FloatingBaseEstimatorIO.h">
<polygon fill="none" stroke="#000000" points="930,-379.5 930,-420.5 1137,-420.5 1137,-379.5 930,-379.5"/>
<text text-anchor="start" x="938" y="-408.5" font-family="Helvetica,sans-Serif" font-size="10.00" fill="#000000">Estimators/include</text>
<text text-anchor="start" x="938" y="-397.5" font-family="Helvetica,sans-Serif" font-size="10.00" fill="#000000">/BipedalLocomotion/Floating</text>
<text text-anchor="middle" x="1033.5" y="-386.5" font-family="Helvetica,sans-Serif" font-size="10.00" fill="#000000">BaseEstimators/FloatingBaseEstimatorIO.h</text>
</a>
</g>
</g>
<!-- Node3&#45;&gt;Node21 -->
<g id="edge22" class="edge">
<title>Node3&#45;&gt;Node21</title>
<path fill="none" stroke="#191970" d="M635.1877,-459.419C718.0167,-447.0628 842.2873,-428.5245 929.9532,-415.4468"/>
<polygon fill="#191970" stroke="#191970" points="634.4197,-455.9948 625.0455,-460.932 635.4525,-462.9182 634.4197,-455.9948"/>
</g>
<!-- Node5 -->
<g id="node3" class="node">
<title>Node5</title>
<g id="a_node3"><a xlink:href="SchmittTriggerDetector_8h.html" target="_top" xlink:title="Contacts/include/Bipedal\lLocomotion/ContactDetectors\l/SchmittTriggerDetector.h">
<polygon fill="none" stroke="#000000" points="185,-301.5 185,-342.5 332,-342.5 332,-301.5 185,-301.5"/>
<text text-anchor="start" x="193" y="-330.5" font-family="Helvetica,sans-Serif" font-size="10.00" fill="#000000">Contacts/include/Bipedal</text>
<text text-anchor="start" x="193" y="-319.5" font-family="Helvetica,sans-Serif" font-size="10.00" fill="#000000">Locomotion/ContactDetectors</text>
<text text-anchor="middle" x="258.5" y="-308.5" font-family="Helvetica,sans-Serif" font-size="10.00" fill="#000000">/SchmittTriggerDetector.h</text>
</a>
</g>
</g>
<!-- Node4&#45;&gt;Node5 -->
<g id="edge2" class="edge">
<title>Node4&#45;&gt;Node5</title>
<path fill="none" stroke="#191970" d="M258.5,-369.0789C258.5,-360.2178 258.5,-350.7747 258.5,-342.6898"/>
<polygon fill="#191970" stroke="#191970" points="255.0001,-369.0974 258.5,-379.0974 262.0001,-369.0975 255.0001,-369.0974"/>
</g>
<!-- Node7 -->
<g id="node5" class="node">
<title>Node7</title>
<g id="a_node5"><a xlink:href="ContactDetector_8cpp.html" target="_top" xlink:title="Contacts/src/ContactDetector.cpp">
<polygon fill="none" stroke="#000000" points="0,-312.5 0,-331.5 167,-331.5 167,-312.5 0,-312.5"/>
<text text-anchor="middle" x="83.5" y="-319.5" font-family="Helvetica,sans-Serif" font-size="10.00" fill="#000000">Contacts/src/ContactDetector.cpp</text>
</a>
</g>
</g>
<!-- Node4&#45;&gt;Node7 -->
<g id="edge4" class="edge">
<title>Node4&#45;&gt;Node7</title>
<path fill="none" stroke="#191970" d="M202.9078,-375.2218C169.7141,-360.4269 129.4219,-342.468 105.1546,-331.6517"/>
<polygon fill="#191970" stroke="#191970" points="201.504,-378.4279 212.0627,-379.3022 204.3537,-372.0343 201.504,-378.4279"/>
</g>
<!-- Node6 -->
<g id="node4" class="node">
<title>Node6</title>
<g id="a_node4"><a xlink:href="SchmittTriggerDetector_8cpp.html" target="_top" xlink:title="Contacts/src/SchmittTrigger\lDetector.cpp">
<polygon fill="none" stroke="#000000" points="167.5,-223.5 167.5,-253.5 307.5,-253.5 307.5,-223.5 167.5,-223.5"/>
<text text-anchor="start" x="175.5" y="-241.5" font-family="Helvetica,sans-Serif" font-size="10.00" fill="#000000">Contacts/src/SchmittTrigger</text>
<text text-anchor="middle" x="237.5" y="-230.5" font-family="Helvetica,sans-Serif" font-size="10.00" fill="#000000">Detector.cpp</text>
</a>
</g>
</g>
<!-- Node5&#45;&gt;Node6 -->
<g id="edge3" class="edge">
<title>Node5&#45;&gt;Node6</title>
<path fill="none" stroke="#191970" d="M250.8223,-291.4719C247.5859,-278.6033 243.963,-264.1982 241.3132,-253.6621"/>
<polygon fill="#191970" stroke="#191970" points="247.4756,-292.5152 253.309,-301.3595 254.2642,-290.8079 247.4756,-292.5152"/>
</g>
<!-- Node8&#45;&gt;Node9 -->
<g id="edge6" class="edge">
<title>Node8&#45;&gt;Node9</title>
<path fill="none" stroke="#191970" d="M572.7447,-379.3591C552.4067,-366.1393 526.4589,-349.2733 507.9756,-337.2592"/>
<polygon fill="#191970" stroke="#191970" points="571.0709,-382.4454 581.3628,-384.9608 574.8858,-376.5763 571.0709,-382.4454"/>
</g>
<!-- Node8&#45;&gt;Node10 -->
<g id="edge14" class="edge">
<title>Node8&#45;&gt;Node10</title>
<path fill="none" stroke="#191970" d="M601.9748,-374.5111C598.8108,-342.5742 593.4508,-288.4726 590.5357,-259.0482"/>
<polygon fill="#191970" stroke="#191970" points="598.5258,-375.2003 602.9948,-384.8065 605.4917,-374.5101 598.5258,-375.2003"/>
</g>
<!-- Node17 -->
<g id="node15" class="node">
<title>Node17</title>
<g id="a_node15"><a xlink:href="ContactList_8cpp.html" target="_top" xlink:title="Contacts/src/ContactList.cpp">
<polygon fill="none" stroke="#000000" points="671,-312.5 671,-331.5 816,-331.5 816,-312.5 671,-312.5"/>
<text text-anchor="middle" x="743.5" y="-319.5" font-family="Helvetica,sans-Serif" font-size="10.00" fill="#000000">Contacts/src/ContactList.cpp</text>
</a>
</g>
</g>
<!-- Node8&#45;&gt;Node17 -->
<g id="edge15" class="edge">
<title>Node8&#45;&gt;Node17</title>
<path fill="none" stroke="#191970" d="M640.2914,-379.9156C667.9741,-364.3814 705.0721,-343.5639 726.4211,-331.5839"/>
<polygon fill="#191970" stroke="#191970" points="638.3086,-377.0148 631.3006,-384.9608 641.7342,-383.1194 638.3086,-377.0148"/>
</g>
<!-- Node18 -->
<g id="node16" class="node">
<title>Node18</title>
<g id="a_node16"><a xlink:href="SwingFootPlanner_8h.html" target="_top" xlink:title="Planners/include/Bipedal\lLocomotion/Planners/SwingFoot\lPlanner.h">
<polygon fill="none" stroke="#000000" points="834.5,-301.5 834.5,-342.5 992.5,-342.5 992.5,-301.5 834.5,-301.5"/>
<text text-anchor="start" x="842.5" y="-330.5" font-family="Helvetica,sans-Serif" font-size="10.00" fill="#000000">Planners/include/Bipedal</text>
<text text-anchor="start" x="842.5" y="-319.5" font-family="Helvetica,sans-Serif" font-size="10.00" fill="#000000">Locomotion/Planners/SwingFoot</text>
<text text-anchor="middle" x="913.5" y="-308.5" font-family="Helvetica,sans-Serif" font-size="10.00" fill="#000000">Planner.h</text>
</a>
</g>
</g>
<!-- Node8&#45;&gt;Node18 -->
<g id="edge16" class="edge">
<title>Node8&#45;&gt;Node18</title>
<path fill="none" stroke="#191970" d="M673.9791,-382.4616C721.5366,-370.4568 784.7019,-354.5122 834.2258,-342.011"/>
<polygon fill="#191970" stroke="#191970" points="672.9175,-379.1197 664.0783,-384.9608 674.6308,-385.9068 672.9175,-379.1197"/>
</g>
<!-- Node19 -->
<g id="node17" class="node">
<title>Node19</title>
<g id="a_node17"><a xlink:href="SwingFootPlanner_8cpp.html" target="_top" xlink:title="Planners/src/SwingFootPlanner.cpp">
<polygon fill="none" stroke="#000000" points="694,-229 694,-248 867,-248 867,-229 694,-229"/>
<text text-anchor="middle" x="780.5" y="-236" font-family="Helvetica,sans-Serif" font-size="10.00" fill="#000000">Planners/src/SwingFootPlanner.cpp</text>
</a>
</g>
</g>
<!-- Node8&#45;&gt;Node19 -->
<g id="edge18" class="edge">
<title>Node8&#45;&gt;Node19</title>
<path fill="none" stroke="#191970" d="M614.0142,-375.3163C623.403,-353.5613 639.5365,-322.1276 661.5,-301 687.7359,-275.7626 726.186,-258.0747 752.2219,-248.1069"/>
<polygon fill="#191970" stroke="#191970" points="610.6605,-374.2666 610.0645,-384.8447 617.127,-376.9471 610.6605,-374.2666"/>
</g>
<!-- Node9&#45;&gt;Node10 -->
<g id="edge7" class="edge">
<title>Node9&#45;&gt;Node10</title>
<path fill="none" stroke="#191970" d="M511.4528,-300.36C527.3142,-287.6252 547.2604,-271.6106 562.8839,-259.0668"/>
<polygon fill="#191970" stroke="#191970" points="509.1817,-297.6949 503.5752,-306.6848 513.5642,-303.1533 509.1817,-297.6949"/>
</g>
<!-- Node16 -->
<g id="node14" class="node">
<title>Node16</title>
<g id="a_node14"><a xlink:href="ContactPhase_8cpp.html" target="_top" xlink:title="Contacts/src/ContactPhase.cpp">
<polygon fill="none" stroke="#000000" points="326,-229 326,-248 483,-248 483,-229 326,-229"/>
<text text-anchor="middle" x="404.5" y="-236" font-family="Helvetica,sans-Serif" font-size="10.00" fill="#000000">Contacts/src/ContactPhase.cpp</text>
</a>
</g>
</g>
<!-- Node9&#45;&gt;Node16 -->
<g id="edge13" class="edge">
<title>Node9&#45;&gt;Node16</title>
<path fill="none" stroke="#191970" d="M462.8245,-299.3762C446.6953,-282.5413 425.495,-260.4135 413.604,-248.0023"/>
<polygon fill="#191970" stroke="#191970" points="460.3813,-301.8854 469.8268,-306.6848 465.4359,-297.0427 460.3813,-301.8854"/>
</g>
<!-- Node11 -->
<g id="node9" class="node">
<title>Node11</title>
<g id="a_node9"><a xlink:href="ContactPhaseList_8cpp_source.html" target="_top" xlink:title="Contacts/src/ContactPhase\lList.cpp">
<polygon fill="none" stroke="#000000" points="431.5,-145.5 431.5,-175.5 569.5,-175.5 569.5,-145.5 431.5,-145.5"/>
<text text-anchor="start" x="439.5" y="-163.5" font-family="Helvetica,sans-Serif" font-size="10.00" fill="#000000">Contacts/src/ContactPhase</text>
<text text-anchor="middle" x="500.5" y="-152.5" font-family="Helvetica,sans-Serif" font-size="10.00" fill="#000000">List.cpp</text>
</a>
</g>
</g>
<!-- Node10&#45;&gt;Node11 -->
<g id="edge8" class="edge">
<title>Node10&#45;&gt;Node11</title>
<path fill="none" stroke="#191970" d="M557.2658,-210.8152C543.8583,-198.9312 528.7194,-185.5126 517.4494,-175.5233"/>
<polygon fill="#191970" stroke="#191970" points="555.1125,-213.5835 564.9176,-217.5974 559.7557,-208.3451 555.1125,-213.5835"/>
</g>
<!-- Node12 -->
<g id="node10" class="node">
<title>Node12</title>
<g id="a_node10"><a xlink:href="DCMPlanner_8h.html" target="_top" xlink:title="Planners/include/Bipedal\lLocomotion/Planners/DCMPlanner.h">
<polygon fill="none" stroke="#000000" points="587.5,-145.5 587.5,-175.5 763.5,-175.5 763.5,-145.5 587.5,-145.5"/>
<text text-anchor="start" x="595.5" y="-163.5" font-family="Helvetica,sans-Serif" font-size="10.00" fill="#000000">Planners/include/Bipedal</text>
<text text-anchor="middle" x="675.5" y="-152.5" font-family="Helvetica,sans-Serif" font-size="10.00" fill="#000000">Locomotion/Planners/DCMPlanner.h</text>
</a>
</g>
</g>
<!-- Node10&#45;&gt;Node12 -->
<g id="edge9" class="edge">
<title>Node10&#45;&gt;Node12</title>
<path fill="none" stroke="#191970" d="M619.3792,-210.8152C632.6345,-198.9312 647.6013,-185.5126 658.7432,-175.5233"/>
<polygon fill="#191970" stroke="#191970" points="616.9237,-208.3159 611.8144,-217.5974 621.5965,-213.528 616.9237,-208.3159"/>
</g>
<!-- Node13 -->
<g id="node11" class="node">
<title>Node13</title>
<g id="a_node11"><a xlink:href="TimeVaryingDCMPlanner_8h.html" target="_top" xlink:title="Planners/include/Bipedal\lLocomotion/Planners/TimeVarying\lDCMPlanner.h">
<polygon fill="none" stroke="#000000" points="504.5,-67.5 504.5,-108.5 670.5,-108.5 670.5,-67.5 504.5,-67.5"/>
<text text-anchor="start" x="512.5" y="-96.5" font-family="Helvetica,sans-Serif" font-size="10.00" fill="#000000">Planners/include/Bipedal</text>
<text text-anchor="start" x="512.5" y="-85.5" font-family="Helvetica,sans-Serif" font-size="10.00" fill="#000000">Locomotion/Planners/TimeVarying</text>
<text text-anchor="middle" x="587.5" y="-74.5" font-family="Helvetica,sans-Serif" font-size="10.00" fill="#000000">DCMPlanner.h</text>
</a>
</g>
</g>
<!-- Node12&#45;&gt;Node13 -->
<g id="edge10" class="edge">
<title>Node12&#45;&gt;Node13</title>
<path fill="none" stroke="#191970" d="M649.5249,-139.1001C637.7899,-129.432 623.9867,-118.06 612.3846,-108.5015"/>
<polygon fill="#191970" stroke="#191970" points="647.3228,-141.8206 657.2663,-145.478 651.7738,-136.418 647.3228,-141.8206"/>
</g>
<!-- Node15 -->
<g id="node13" class="node">
<title>Node15</title>
<g id="a_node13"><a xlink:href="DCMPlanner_8cpp.html" target="_top" xlink:title="Planners/src/DCMPlanner.cpp">
<polygon fill="none" stroke="#000000" points="689,-78.5 689,-97.5 838,-97.5 838,-78.5 689,-78.5"/>
<text text-anchor="middle" x="763.5" y="-85.5" font-family="Helvetica,sans-Serif" font-size="10.00" fill="#000000">Planners/src/DCMPlanner.cpp</text>
</a>
</g>
</g>
<!-- Node12&#45;&gt;Node15 -->
<g id="edge12" class="edge">
<title>Node12&#45;&gt;Node15</title>
<path fill="none" stroke="#191970" d="M701.5223,-139.0612C718.1758,-125.3409 738.9789,-108.202 751.7474,-97.6825"/>
<polygon fill="#191970" stroke="#191970" points="699.2262,-136.418 693.7337,-145.478 703.6772,-141.8206 699.2262,-136.418"/>
</g>
<!-- Node14 -->
<g id="node12" class="node">
<title>Node14</title>
<g id="a_node12"><a xlink:href="TimeVaryingDCMPlanner_8cpp.html" target="_top" xlink:title="Planners/src/TimeVarying\lDCMPlanner.cpp">
<polygon fill="none" stroke="#000000" points="523,-.5 523,-30.5 652,-30.5 652,-.5 523,-.5"/>
<text text-anchor="start" x="531" y="-18.5" font-family="Helvetica,sans-Serif" font-size="10.00" fill="#000000">Planners/src/TimeVarying</text>
<text text-anchor="middle" x="587.5" y="-7.5" font-family="Helvetica,sans-Serif" font-size="10.00" fill="#000000">DCMPlanner.cpp</text>
</a>
</g>
</g>
<!-- Node13&#45;&gt;Node14 -->
<g id="edge11" class="edge">
<title>Node13&#45;&gt;Node14</title>
<path fill="none" stroke="#191970" d="M587.5,-57.3279C587.5,-48.0871 587.5,-38.3508 587.5,-30.5991"/>
<polygon fill="#191970" stroke="#191970" points="584.0001,-57.4183 587.5,-67.4183 591.0001,-57.4184 584.0001,-57.4183"/>
</g>
<!-- Node18&#45;&gt;Node19 -->
<g id="edge17" class="edge">
<title>Node18&#45;&gt;Node19</title>
<path fill="none" stroke="#191970" d="M872.0891,-296.0014C846.1672,-279.7272 814.2854,-259.7111 795.7892,-248.0989"/>
<polygon fill="#191970" stroke="#191970" points="870.2933,-299.0066 880.6236,-301.3595 874.0154,-293.0781 870.2933,-299.0066"/>
</g>
<!-- Node22 -->
<g id="node20" class="node">
<title>Node22</title>
<g id="a_node20"><a xlink:href="FloatingBaseEstimator_8h.html" target="_top" xlink:title="Estimators/include\l/BipedalLocomotion/Floating\lBaseEstimators/FloatingBaseEstimator.h">
<polygon fill="none" stroke="#000000" points="1043,-301.5 1043,-342.5 1240,-342.5 1240,-301.5 1043,-301.5"/>
<text text-anchor="start" x="1051" y="-330.5" font-family="Helvetica,sans-Serif" font-size="10.00" fill="#000000">Estimators/include</text>
<text text-anchor="start" x="1051" y="-319.5" font-family="Helvetica,sans-Serif" font-size="10.00" fill="#000000">/BipedalLocomotion/Floating</text>
<text text-anchor="middle" x="1141.5" y="-308.5" font-family="Helvetica,sans-Serif" font-size="10.00" fill="#000000">BaseEstimators/FloatingBaseEstimator.h</text>
</a>
</g>
</g>
<!-- Node21&#45;&gt;Node22 -->
<g id="edge23" class="edge">
<title>Node21&#45;&gt;Node22</title>
<path fill="none" stroke="#191970" d="M1070.57,-373.2272C1084.4869,-363.1761 1100.0728,-351.9196 1113.0824,-342.5239"/>
<polygon fill="#191970" stroke="#191970" points="1068.2161,-370.6099 1062.1585,-379.3022 1072.3145,-376.2847 1068.2161,-370.6099"/>
</g>
<!-- Node23 -->
<g id="node21" class="node">
<title>Node23</title>
<g id="a_node21"><a xlink:href="InvariantEKFBaseEstimator_8h.html" target="_top" xlink:title="Estimators/include\l/BipedalLocomotion/Floating\lBaseEstimators/InvariantEKFBase\lEstimator.h">
<polygon fill="none" stroke="#000000" points="885,-212.5 885,-264.5 1054,-264.5 1054,-212.5 885,-212.5"/>
<text text-anchor="start" x="893" y="-252.5" font-family="Helvetica,sans-Serif" font-size="10.00" fill="#000000">Estimators/include</text>
<text text-anchor="start" x="893" y="-241.5" font-family="Helvetica,sans-Serif" font-size="10.00" fill="#000000">/BipedalLocomotion/Floating</text>
<text text-anchor="start" x="893" y="-230.5" font-family="Helvetica,sans-Serif" font-size="10.00" fill="#000000">BaseEstimators/InvariantEKFBase</text>
<text text-anchor="middle" x="969.5" y="-219.5" font-family="Helvetica,sans-Serif" font-size="10.00" fill="#000000">Estimator.h</text>
</a>
</g>
</g>
<!-- Node22&#45;&gt;Node23 -->
<g id="edge24" class="edge">
<title>Node22&#45;&gt;Node23</title>
<path fill="none" stroke="#191970" d="M1089.8776,-296.9391C1068.8343,-286.7233 1044.5038,-274.9117 1023.2475,-264.5925"/>
<polygon fill="#191970" stroke="#191970" points="1088.4586,-300.1409 1098.9831,-301.3595 1091.5157,-293.8437 1088.4586,-300.1409"/>
</g>
<!-- Node25 -->
<g id="node23" class="node">
<title>Node25</title>
<g id="a_node23"><a xlink:href="LeggedOdometry_8h.html" target="_top" xlink:title="Estimators/include\l/BipedalLocomotion/Floating\lBaseEstimators/LeggedOdometry.h">
<polygon fill="none" stroke="#000000" points="1072.5,-218 1072.5,-259 1244.5,-259 1244.5,-218 1072.5,-218"/>
<text text-anchor="start" x="1080.5" y="-247" font-family="Helvetica,sans-Serif" font-size="10.00" fill="#000000">Estimators/include</text>
<text text-anchor="start" x="1080.5" y="-236" font-family="Helvetica,sans-Serif" font-size="10.00" fill="#000000">/BipedalLocomotion/Floating</text>
<text text-anchor="middle" x="1158.5" y="-225" font-family="Helvetica,sans-Serif" font-size="10.00" fill="#000000">BaseEstimators/LeggedOdometry.h</text>
</a>
</g>
</g>
<!-- Node22&#45;&gt;Node25 -->
<g id="edge26" class="edge">
<title>Node22&#45;&gt;Node25</title>
<path fill="none" stroke="#191970" d="M1147.7112,-291.4918C1149.8983,-280.7498 1152.3037,-268.9349 1154.2872,-259.1924"/>
<polygon fill="#191970" stroke="#191970" points="1144.2677,-290.8623 1145.7022,-301.3595 1151.127,-292.2588 1144.2677,-290.8623"/>
</g>
<!-- Node27 -->
<g id="node25" class="node">
<title>Node27</title>
<g id="a_node25"><a xlink:href="FloatingBaseEstimator_8cpp.html" target="_top" xlink:title="Estimators/src/FloatingBase\lEstimator.cpp">
<polygon fill="none" stroke="#000000" points="1262.5,-223.5 1262.5,-253.5 1402.5,-253.5 1402.5,-223.5 1262.5,-223.5"/>
<text text-anchor="start" x="1270.5" y="-241.5" font-family="Helvetica,sans-Serif" font-size="10.00" fill="#000000">Estimators/src/FloatingBase</text>
<text text-anchor="middle" x="1332.5" y="-230.5" font-family="Helvetica,sans-Serif" font-size="10.00" fill="#000000">Estimator.cpp</text>
</a>
</g>
</g>
<!-- Node22&#45;&gt;Node27 -->
<g id="edge28" class="edge">
<title>Node22&#45;&gt;Node27</title>
<path fill="none" stroke="#191970" d="M1198.103,-297.2547C1230.5866,-283.0537 1270.3119,-265.687 1298.1169,-253.5314"/>
<polygon fill="#191970" stroke="#191970" points="1196.4742,-294.1469 1188.7135,-301.3595 1199.2782,-300.5608 1196.4742,-294.1469"/>
</g>
<!-- Node24 -->
<g id="node22" class="node">
<title>Node24</title>
<g id="a_node22"><a xlink:href="InvariantEKFBaseEstimator_8cpp.html" target="_top" xlink:title="Estimators/src/Invariant\lEKFBaseEstimator.cpp">
<polygon fill="none" stroke="#000000" points="909,-145.5 909,-175.5 1030,-175.5 1030,-145.5 909,-145.5"/>
<text text-anchor="start" x="917" y="-163.5" font-family="Helvetica,sans-Serif" font-size="10.00" fill="#000000">Estimators/src/Invariant</text>
<text text-anchor="middle" x="969.5" y="-152.5" font-family="Helvetica,sans-Serif" font-size="10.00" fill="#000000">EKFBaseEstimator.cpp</text>
</a>
</g>
</g>
<!-- Node23&#45;&gt;Node24 -->
<g id="edge25" class="edge">
<title>Node23&#45;&gt;Node24</title>
<path fill="none" stroke="#191970" d="M969.5,-202.0863C969.5,-192.6965 969.5,-183.1059 969.5,-175.5046"/>
<polygon fill="#191970" stroke="#191970" points="966.0001,-202.0927 969.5,-212.0928 973.0001,-202.0928 966.0001,-202.0927"/>
</g>
<!-- Node26 -->
<g id="node24" class="node">
<title>Node26</title>
<g id="a_node24"><a xlink:href="LeggedOdometry_8cpp.html" target="_top" xlink:title="Estimators/src/LeggedOdometry.cpp">
<polygon fill="none" stroke="#000000" points="1070.5,-151 1070.5,-170 1246.5,-170 1246.5,-151 1070.5,-151"/>
<text text-anchor="middle" x="1158.5" y="-158" font-family="Helvetica,sans-Serif" font-size="10.00" fill="#000000">Estimators/src/LeggedOdometry.cpp</text>
</a>
</g>
</g>
<!-- Node25&#45;&gt;Node26 -->
<g id="edge27" class="edge">
<title>Node25&#45;&gt;Node26</title>
<path fill="none" stroke="#191970" d="M1158.5,-207.3707C1158.5,-194.1273 1158.5,-179.6205 1158.5,-170.3072"/>
<polygon fill="#191970" stroke="#191970" points="1155.0001,-207.5974 1158.5,-217.5974 1162.0001,-207.5975 1155.0001,-207.5974"/>
</g>
</g>
</svg>
        <g id="navigator" transform="translate(0 0)" fill="#404254">
                <rect fill="#f2f5e9" fill-opacity="0.5" stroke="#606060" stroke-width=".5" x="0" y="0" width="60" height="60"/>
                <use id="zoomplus" xlink:href="#zoomPlus" x="17" y="9" onmousedown="handleZoom(evt,'in')"/>
                <use id="zoomminus" xlink:href="#zoomMin" x="42" y="9" onmousedown="handleZoom(evt,'out')"/>
                <use id="reset" xlink:href="#resetDef" x="30" y="36" onmousedown="handleReset()"/>
                <g id="arrowUp" xlink:href="#dirArrow" transform="translate(30 24)" onmousedown="handlePan(0,-1)">
                  <use xlink:href="#rim" fill="#404040">
                        <set attributeName="fill" to="#808080" begin="arrowUp.mouseover" end="arrowUp.mouseout"/>
                  </use>
                  <path fill="none" stroke="white" stroke-width="1.5" d="M0,-3.0v7 M-2.5,-0.5L0,-3.0L2.5,-0.5"/>
                </g>
                <g id="arrowRight" xlink:href="#dirArrow" transform="rotate(90) translate(36 -43)" onmousedown="handlePan(1,0)">
                  <use xlink:href="#rim" fill="#404040">
                        <set attributeName="fill" to="#808080" begin="arrowRight.mouseover" end="arrowRight.mouseout"/>
                  </use>
                  <path fill="none" stroke="white" stroke-width="1.5" d="M0,-3.0v7 M-2.5,-0.5L0,-3.0L2.5,-0.5"/>
                </g>
                <g id="arrowDown" xlink:href="#dirArrow" transform="rotate(180) translate(-30 -48)" onmousedown="handlePan(0,1)">
                  <use xlink:href="#rim" fill="#404040">
                        <set attributeName="fill" to="#808080" begin="arrowDown.mouseover" end="arrowDown.mouseout"/>
                  </use>
                  <path fill="none" stroke="white" stroke-width="1.5" d="M0,-3.0v7 M-2.5,-0.5L0,-3.0L2.5,-0.5"/>
                </g>
                <g id="arrowLeft" xlink:href="#dirArrow" transform="rotate(270) translate(-36 17)" onmousedown="handlePan(-1,0)">
                  <use xlink:href="#rim" fill="#404040">
                        <set attributeName="fill" to="#808080" begin="arrowLeft.mouseover" end="arrowLeft.mouseout"/>
                  </use>
                  <path fill="none" stroke="white" stroke-width="1.5" d="M0,-3.0v7 M-2.5,-0.5L0,-3.0L2.5,-0.5"/>
                </g>
        </g>
        <svg viewBox="0 0 15 15" width="100%" height="30px" preserveAspectRatio="xMaxYMin meet">
         <g id="arrow_out" transform="scale(0.3 0.3)">
          <a xlink:href="Contact_8h__dep__incl_org.svg" target="_base">
           <rect id="button" ry="5" rx="5" y="6" x="6" height="38" width="38"
                fill="#f2f5e9" fill-opacity="0.5" stroke="#606060" stroke-width="1.0"/>
           <path id="arrow"
             d="M 11.500037,31.436501 C 11.940474,20.09759 22.043105,11.32322 32.158766,21.979434 L 37.068811,17.246167 C 37.068811,17.246167 37.088388,32 37.088388,32 L 22.160133,31.978069 C 22.160133,31.978069 26.997745,27.140456 26.997745,27.140456 C 18.528582,18.264221 13.291696,25.230495 11.500037,31.436501 z"
             style="fill:#404040;"/>
          </a>
         </g>
        </svg>
</svg>
