<?xml version="1.0" encoding="UTF-8" standalone="no"?>
<!DOCTYPE svg PUBLIC "-//W3C//DTD SVG 1.1//EN"
 "http://www.w3.org/Graphics/SVG/1.1/DTD/svg11.dtd">
<!-- Generated by graphviz version 2.40.1 (20161225.0304)
 -->
<!-- Title: ContactModels/src/ContinuousContactModel.cpp Pages: 1 -->
<!--zoomable 430 -->
<svg id="main" version="1.1" xmlns="http://www.w3.org/2000/svg" xmlns:xlink="http://www.w3.org/1999/xlink" xml:space="preserve" onload="init(evt)">
<style type="text/css"><![CDATA[
.edge:hover path { stroke: red; }
.edge:hover polygon { stroke: red; fill: red; }
]]></style>
<script type="text/javascript"><![CDATA[
var edges = document.getElementsByTagName('g');
if (edges && edges.length) {
  for (var i=0;i<edges.length;i++) {
    if (edges[i].id.substr(0,4)=='edge') {
      edges[i].setAttribute('class','edge');
    }
  }
}
]]></script>
        <defs>
                <circle id="rim" cx="0" cy="0" r="7"/>
                <circle id="rim2" cx="0" cy="0" r="3.5"/>
                <g id="zoomPlus">
                        <use xlink:href="#rim" fill="#404040">
                                <set attributeName="fill" to="#808080" begin="zoomplus.mouseover" end="zoomplus.mouseout"/>
                        </use>
                        <path d="M-4,0h8M0,-4v8" fill="none" stroke="white" stroke-width="1.5" pointer-events="none"/>
                </g>
                <g id="zoomMin">
                        <use xlink:href="#rim" fill="#404040">
                                <set attributeName="fill" to="#808080" begin="zoomminus.mouseover" end="zoomminus.mouseout"/>
                        </use>
                        <path d="M-4,0h8" fill="none" stroke="white" stroke-width="1.5" pointer-events="none"/>
                </g>
                <g id="dirArrow">
                        <path fill="none" stroke="white" stroke-width="1.5" d="M0,-3.0v7 M-2.5,-0.5L0,-3.0L2.5,-0.5"/>
                </g>
               <g id="resetDef">
                       <use xlink:href="#rim2" fill="#404040">
                               <set attributeName="fill" to="#808080" begin="reset.mouseover" end="reset.mouseout"/>
                       </use>
               </g>
        </defs>

<script type="text/javascript">
var viewWidth = 1557;
var viewHeight = 430;
var sectionId = 'dynsection-0';
</script>
<script xlink:href="svgpan.js"/>
<svg id="graph" class="graph">
<g id="viewport">
<title>ContactModels/src/ContinuousContactModel.cpp</title>
<!-- Node0 -->
<g id="node1" class="node">
<title>Node0</title>
<polygon fill="#bfbfbf" stroke="#000000" points="351,-391.5 351,-421.5 503,-421.5 503,-391.5 351,-391.5"/>
<text text-anchor="start" x="359" y="-409.5" font-family="Helvetica,sans-Serif" font-size="10.00" fill="#000000">ContactModels/src/Continuous</text>
<text text-anchor="middle" x="427" y="-398.5" font-family="Helvetica,sans-Serif" font-size="10.00" fill="#000000">ContactModel.cpp</text>
</g>
<!-- Node1 -->
<g id="node2" class="node">
<title>Node1</title>
<polygon fill="none" stroke="#bfbfbf" points="249,-330 249,-349 399,-349 399,-330 249,-330"/>
<text text-anchor="middle" x="324" y="-337" font-family="Helvetica,sans-Serif" font-size="10.00" fill="#000000">iDynTree/Core/EigenHelpers.h</text>
</g>
<!-- Node0&#45;&gt;Node1 -->
<g id="edge1" class="edge">
<title>Node0&#45;&gt;Node1</title>
<path fill="none" stroke="#191970" d="M403.8848,-391.4639C387.0698,-380.526 364.3837,-365.769 347.4838,-354.7759"/>
<polygon fill="#191970" stroke="#191970" points="349.0553,-351.6228 338.7642,-349.1039 345.2384,-357.4906 349.0553,-351.6228"/>
</g>
<!-- Node2 -->
<g id="node3" class="node">
<title>Node2</title>
<g id="a_node3"><a xlink:href="ContinuousContactModel_8h.html" target="_top" xlink:title="BipedalLocomotion/Contact\lModels/ContinuousContactModel.h">
<polygon fill="none" stroke="#000000" points="606,-324.5 606,-354.5 776,-354.5 776,-324.5 606,-324.5"/>
<text text-anchor="start" x="614" y="-342.5" font-family="Helvetica,sans-Serif" font-size="10.00" fill="#000000">BipedalLocomotion/Contact</text>
<text text-anchor="middle" x="691" y="-331.5" font-family="Helvetica,sans-Serif" font-size="10.00" fill="#000000">Models/ContinuousContactModel.h</text>
</a>
</g>
</g>
<!-- Node0&#45;&gt;Node2 -->
<g id="edge2" class="edge">
<title>Node0&#45;&gt;Node2</title>
<path fill="none" stroke="#191970" d="M486.2468,-391.4639C526.3578,-381.2842 579.5029,-367.7966 621.5966,-357.1138"/>
<polygon fill="#191970" stroke="#191970" points="622.6631,-360.4541 631.4948,-354.6017 620.9411,-353.6692 622.6631,-360.4541"/>
</g>
<!-- Node14 -->
<g id="node15" class="node">
<title>Node14</title>
<g id="a_node15"><a xlink:href="IParametersHandler_8h.html" target="_top" xlink:title="BipedalLocomotion/Parameters\lHandler/IParametersHandler.h">
<polygon fill="none" stroke="#000000" points="222,-190.5 222,-220.5 374,-220.5 374,-190.5 222,-190.5"/>
<text text-anchor="start" x="230" y="-208.5" font-family="Helvetica,sans-Serif" font-size="10.00" fill="#000000">BipedalLocomotion/Parameters</text>
<text text-anchor="middle" x="298" y="-197.5" font-family="Helvetica,sans-Serif" font-size="10.00" fill="#000000">Handler/IParametersHandler.h</text>
</a>
</g>
</g>
<!-- Node0&#45;&gt;Node14 -->
<g id="edge33" class="edge">
<title>Node0&#45;&gt;Node14</title>
<path fill="none" stroke="#191970" d="M425.8747,-391.3833C424.0766,-374.1883 419.4929,-345.6885 408,-324 387.2452,-284.8332 350.2415,-248.8977 324.9316,-227.1096"/>
<polygon fill="#191970" stroke="#191970" points="327.0586,-224.3248 317.1604,-220.5465 322.542,-229.6727 327.0586,-224.3248"/>
</g>
<!-- Node3 -->
<g id="node4" class="node">
<title>Node3</title>
<polygon fill="none" stroke="#bfbfbf" points="1279,-196 1279,-215 1415,-215 1415,-196 1279,-196"/>
<text text-anchor="middle" x="1347" y="-203" font-family="Helvetica,sans-Serif" font-size="10.00" fill="#000000">iDynTree/Core/Transform.h</text>
</g>
<!-- Node2&#45;&gt;Node3 -->
<g id="edge3" class="edge">
<title>Node2&#45;&gt;Node3</title>
<path fill="none" stroke="#191970" d="M764.6589,-324.4538C896.8651,-297.4483 1171.6686,-241.3146 1290.3704,-217.0676"/>
<polygon fill="#191970" stroke="#191970" points="1291.247,-220.4609 1300.3441,-215.0303 1289.846,-213.6026 1291.247,-220.4609"/>
</g>
<!-- Node4 -->
<g id="node5" class="node">
<title>Node4</title>
<polygon fill="none" stroke="#bfbfbf" points="1433,-196 1433,-215 1549,-215 1549,-196 1433,-196"/>
<text text-anchor="middle" x="1491" y="-203" font-family="Helvetica,sans-Serif" font-size="10.00" fill="#000000">iDynTree/Core/Twist.h</text>
</g>
<!-- Node2&#45;&gt;Node4 -->
<g id="edge4" class="edge">
<title>Node2&#45;&gt;Node4</title>
<path fill="none" stroke="#191970" d="M776.0315,-327.9094C913.0252,-308.7525 1190.8341,-267.9073 1424,-221 1429.6987,-219.8536 1435.6532,-218.5826 1441.5601,-217.2758"/>
<polygon fill="#191970" stroke="#191970" points="1442.4161,-220.6708 1451.4024,-215.0586 1440.8777,-213.8419 1442.4161,-220.6708"/>
</g>
<!-- Node5 -->
<g id="node6" class="node">
<title>Node5</title>
<polygon fill="none" stroke="#bfbfbf" points="392.5,-196 392.5,-215 517.5,-215 517.5,-196 392.5,-196"/>
<text text-anchor="middle" x="455" y="-203" font-family="Helvetica,sans-Serif" font-size="10.00" fill="#000000">iDynTree/Core/Wrench.h</text>
</g>
<!-- Node2&#45;&gt;Node5 -->
<g id="edge5" class="edge">
<title>Node2&#45;&gt;Node5</title>
<path fill="none" stroke="#191970" d="M664.3866,-324.389C618.6946,-298.4452 525.8987,-245.7561 480.784,-220.1401"/>
<polygon fill="#191970" stroke="#191970" points="482.339,-216.9982 471.9148,-215.1042 478.8826,-223.0854 482.339,-216.9982"/>
</g>
<!-- Node6 -->
<g id="node7" class="node">
<title>Node6</title>
<g id="a_node7"><a xlink:href="ContactModel_8h.html" target="_top" xlink:title="BipedalLocomotion/Contact\lModels/ContactModel.h">
<polygon fill="none" stroke="#000000" points="733.5,-257.5 733.5,-287.5 870.5,-287.5 870.5,-257.5 733.5,-257.5"/>
<text text-anchor="start" x="741.5" y="-275.5" font-family="Helvetica,sans-Serif" font-size="10.00" fill="#000000">BipedalLocomotion/Contact</text>
<text text-anchor="middle" x="802" y="-264.5" font-family="Helvetica,sans-Serif" font-size="10.00" fill="#000000">Models/ContactModel.h</text>
</a>
</g>
</g>
<!-- Node2&#45;&gt;Node6 -->
<g id="edge6" class="edge">
<title>Node2&#45;&gt;Node6</title>
<path fill="none" stroke="#191970" d="M715.9106,-324.4639C731.2271,-315.2188 751.0639,-303.2452 767.8349,-293.1222"/>
<polygon fill="#191970" stroke="#191970" points="770.0359,-295.8819 776.7885,-287.7177 766.4185,-289.889 770.0359,-295.8819"/>
</g>
<!-- Node2&#45;&gt;Node14 -->
<g id="edge32" class="edge">
<title>Node2&#45;&gt;Node14</title>
<path fill="none" stroke="#191970" d="M646.6818,-324.389C574.1064,-299.6432 430.1678,-250.5648 351.8361,-223.8563"/>
<polygon fill="#191970" stroke="#191970" points="352.7507,-220.4704 342.1562,-220.5558 350.4916,-227.0958 352.7507,-220.4704"/>
</g>
<!-- Node6&#45;&gt;Node3 -->
<g id="edge13" class="edge">
<title>Node6&#45;&gt;Node3</title>
<path fill="none" stroke="#191970" d="M870.8516,-266.4906C961.4774,-258.2037 1125.6279,-241.8927 1265,-221 1273.0473,-219.7937 1281.5104,-218.3706 1289.8195,-216.884"/>
<polygon fill="#191970" stroke="#191970" points="1290.6341,-220.2931 1299.8403,-215.0494 1289.3734,-213.4075 1290.6341,-220.2931"/>
</g>
<!-- Node6&#45;&gt;Node4 -->
<g id="edge14" class="edge">
<title>Node6&#45;&gt;Node4</title>
<path fill="none" stroke="#191970" d="M870.9552,-270.0515C986.1133,-265.2345 1224.6063,-252.1511 1424,-221 1430.4252,-219.9962 1437.1493,-218.7179 1443.7543,-217.3273"/>
<polygon fill="#191970" stroke="#191970" points="1444.9641,-220.6446 1453.9755,-215.0729 1443.4564,-213.8089 1444.9641,-220.6446"/>
</g>
<!-- Node6&#45;&gt;Node5 -->
<g id="edge16" class="edge">
<title>Node6&#45;&gt;Node5</title>
<path fill="none" stroke="#191970" d="M733.2446,-260.1541C677.5567,-250.0271 597.1181,-235.1104 527,-221 520.9127,-219.775 514.5439,-218.457 508.2195,-217.1253"/>
<polygon fill="#191970" stroke="#191970" points="508.8735,-213.6862 498.3646,-215.0329 507.4196,-220.5336 508.8735,-213.6862"/>
</g>
<!-- Node7 -->
<g id="node8" class="node">
<title>Node7</title>
<polygon fill="none" stroke="#bfbfbf" points="707,-196 707,-215 739,-215 739,-196 707,-196"/>
<text text-anchor="middle" x="723" y="-203" font-family="Helvetica,sans-Serif" font-size="10.00" fill="#000000">any</text>
</g>
<!-- Node6&#45;&gt;Node7 -->
<g id="edge7" class="edge">
<title>Node6&#45;&gt;Node7</title>
<path fill="none" stroke="#191970" d="M784.0737,-257.2967C771.5261,-246.6551 754.7889,-232.4602 742.0091,-221.6217"/>
<polygon fill="#191970" stroke="#191970" points="744.1567,-218.8538 734.2663,-215.055 739.629,-224.1924 744.1567,-218.8538"/>
</g>
<!-- Node8 -->
<g id="node9" class="node">
<title>Node8</title>
<polygon fill="none" stroke="#bfbfbf" points="553,-62 553,-81 605,-81 605,-62 553,-62"/>
<text text-anchor="middle" x="579" y="-69" font-family="Helvetica,sans-Serif" font-size="10.00" fill="#000000">memory</text>
</g>
<!-- Node6&#45;&gt;Node8 -->
<g id="edge8" class="edge">
<title>Node6&#45;&gt;Node8</title>
<path fill="none" stroke="#191970" d="M870.8771,-265.426C990.8491,-252.9442 1226.0584,-227.6957 1232,-221 1241.1448,-210.6946 1240.8299,-200.5764 1232,-190 1152.088,-94.2813 740.5204,-75.711 615.2337,-72.2574"/>
<polygon fill="#191970" stroke="#191970" points="615.1113,-68.7532 605.0238,-71.9925 614.9296,-75.7508 615.1113,-68.7532"/>
</g>
<!-- Node9 -->
<g id="node10" class="node">
<title>Node9</title>
<polygon fill="none" stroke="#bfbfbf" points="646.5,-129 646.5,-148 687.5,-148 687.5,-129 646.5,-129"/>
<text text-anchor="middle" x="667" y="-136" font-family="Helvetica,sans-Serif" font-size="10.00" fill="#000000">string</text>
</g>
<!-- Node6&#45;&gt;Node9 -->
<g id="edge9" class="edge">
<title>Node6&#45;&gt;Node9</title>
<path fill="none" stroke="#191970" d="M794.6636,-257.4323C785.5293,-239.7658 768.5915,-210.3207 748,-190 732.8299,-175.0293 712.6,-162.1629 696.1525,-153.0348"/>
<polygon fill="#191970" stroke="#191970" points="697.4384,-149.7526 686.9725,-148.1047 694.1264,-155.9196 697.4384,-149.7526"/>
</g>
<!-- Node10 -->
<g id="node11" class="node">
<title>Node10</title>
<polygon fill="none" stroke="#bfbfbf" points="795.5,-196 795.5,-215 878.5,-215 878.5,-196 795.5,-196"/>
<text text-anchor="middle" x="837" y="-203" font-family="Helvetica,sans-Serif" font-size="10.00" fill="#000000">unordered_map</text>
</g>
<!-- Node6&#45;&gt;Node10 -->
<g id="edge10" class="edge">
<title>Node6&#45;&gt;Node10</title>
<path fill="none" stroke="#191970" d="M809.942,-257.2967C815.0775,-247.4658 821.7971,-234.6026 827.2551,-224.1545"/>
<polygon fill="#191970" stroke="#191970" points="830.4806,-225.5391 832.0086,-215.055 824.2761,-222.2979 830.4806,-225.5391"/>
</g>
<!-- Node11 -->
<g id="node12" class="node">
<title>Node11</title>
<polygon fill="none" stroke="#bfbfbf" points="897,-196 897,-215 1053,-215 1053,-196 897,-196"/>
<text text-anchor="middle" x="975" y="-203" font-family="Helvetica,sans-Serif" font-size="10.00" fill="#000000">iDynTree/Core/MatrixDynSize.h</text>
</g>
<!-- Node6&#45;&gt;Node11 -->
<g id="edge11" class="edge">
<title>Node6&#45;&gt;Node11</title>
<path fill="none" stroke="#191970" d="M840.8246,-257.4639C870.8561,-245.8332 912.0376,-229.8843 940.8282,-218.7342"/>
<polygon fill="#191970" stroke="#191970" points="942.3954,-221.8806 950.4565,-215.0053 939.8674,-215.353 942.3954,-221.8806"/>
</g>
<!-- Node12 -->
<g id="node13" class="node">
<title>Node12</title>
<polygon fill="none" stroke="#bfbfbf" points="1071,-196 1071,-215 1223,-215 1223,-196 1071,-196"/>
<text text-anchor="middle" x="1147" y="-203" font-family="Helvetica,sans-Serif" font-size="10.00" fill="#000000">iDynTree/Core/MatrixFixSize.h</text>
</g>
<!-- Node6&#45;&gt;Node12 -->
<g id="edge12" class="edge">
<title>Node6&#45;&gt;Node12</title>
<path fill="none" stroke="#191970" d="M870.5734,-259.1828C934.104,-246.845 1027.6188,-228.6842 1087.9207,-216.9734"/>
<polygon fill="#191970" stroke="#191970" points="1088.8913,-220.3504 1098.0406,-215.0081 1087.5567,-213.4787 1088.8913,-220.3504"/>
</g>
<!-- Node13 -->
<g id="node14" class="node">
<title>Node13</title>
<polygon fill="none" stroke="#bfbfbf" points="535.5,-196 535.5,-215 688.5,-215 688.5,-196 535.5,-196"/>
<text text-anchor="middle" x="612" y="-203" font-family="Helvetica,sans-Serif" font-size="10.00" fill="#000000">iDynTree/Core/VectorFixSize.h</text>
</g>
<!-- Node6&#45;&gt;Node13 -->
<g id="edge15" class="edge">
<title>Node6&#45;&gt;Node13</title>
<path fill="none" stroke="#191970" d="M759.3603,-257.4639C726.0896,-245.7316 680.3585,-229.6054 648.7044,-218.4431"/>
<polygon fill="#191970" stroke="#191970" points="649.5501,-215.0302 638.9553,-215.0053 647.2221,-221.6317 649.5501,-215.0302"/>
</g>
<!-- Node6&#45;&gt;Node14 -->
<g id="edge17" class="edge">
<title>Node6&#45;&gt;Node14</title>
<path fill="none" stroke="#191970" d="M733.4175,-265.2368C652.5828,-256.4093 513.9771,-240.4405 384.4958,-221.0217"/>
<polygon fill="#191970" stroke="#191970" points="384.8062,-217.529 374.3958,-219.497 383.7613,-224.4505 384.8062,-217.529"/>
</g>
<!-- Node14&#45;&gt;Node8 -->
<g id="edge18" class="edge">
<title>Node14&#45;&gt;Node8</title>
<path fill="none" stroke="#191970" d="M344.834,-190.3954C372.1832,-181.0234 407.0884,-168.1027 437,-154 480.559,-133.4628 528.4543,-104.112 556.0015,-86.5181"/>
<polygon fill="#191970" stroke="#191970" points="558.0122,-89.3863 564.5279,-81.0319 554.2244,-83.4996 558.0122,-89.3863"/>
</g>
<!-- Node14&#45;&gt;Node9 -->
<g id="edge19" class="edge">
<title>Node14&#45;&gt;Node9</title>
<path fill="none" stroke="#191970" d="M374.0096,-191.6988C455.0443,-176.9852 579.3849,-154.4084 636.4523,-144.0466"/>
<polygon fill="#191970" stroke="#191970" points="637.0858,-147.4889 646.2996,-142.2586 635.8352,-140.6015 637.0858,-147.4889"/>
</g>
<!-- Node15 -->
<g id="node16" class="node">
<title>Node15</title>
<polygon fill="none" stroke="#bfbfbf" points="384,-129 384,-148 428,-148 428,-129 384,-129"/>
<text text-anchor="middle" x="406" y="-136" font-family="Helvetica,sans-Serif" font-size="10.00" fill="#000000">vector</text>
</g>
<!-- Node14&#45;&gt;Node15 -->
<g id="edge20" class="edge">
<title>Node14&#45;&gt;Node15</title>
<path fill="none" stroke="#191970" d="M322.2373,-190.4639C340.0318,-179.4247 364.0969,-164.4954 381.8669,-153.4715"/>
<polygon fill="#191970" stroke="#191970" points="383.8665,-156.3498 390.5191,-148.1039 380.1763,-150.4015 383.8665,-156.3498"/>
</g>
<!-- Node16 -->
<g id="node17" class="node">
<title>Node16</title>
<g id="a_node17"><a xlink:href="Vector_8h_source.html" target="_top" xlink:title="BipedalLocomotion/Generic\lContainer/Vector.h">
<polygon fill="none" stroke="#000000" points="230,-123.5 230,-153.5 366,-153.5 366,-123.5 230,-123.5"/>
<text text-anchor="start" x="238" y="-141.5" font-family="Helvetica,sans-Serif" font-size="10.00" fill="#000000">BipedalLocomotion/Generic</text>
<text text-anchor="middle" x="298" y="-130.5" font-family="Helvetica,sans-Serif" font-size="10.00" fill="#000000">Container/Vector.h</text>
</a>
</g>
</g>
<!-- Node14&#45;&gt;Node16 -->
<g id="edge21" class="edge">
<title>Node14&#45;&gt;Node16</title>
<path fill="none" stroke="#191970" d="M298,-190.2967C298,-182.5013 298,-172.7991 298,-163.9064"/>
<polygon fill="#191970" stroke="#191970" points="301.5001,-163.6431 298,-153.6432 294.5001,-163.6432 301.5001,-163.6431"/>
</g>
<!-- Node18 -->
<g id="node19" class="node">
<title>Node18</title>
<g id="a_node19"><a xlink:href="TemplateHelpers_8h_source.html" target="_top" xlink:title="BipedalLocomotion/Generic\lContainer/TemplateHelpers.h">
<polygon fill="none" stroke="#000000" points="41,-56.5 41,-86.5 185,-86.5 185,-56.5 41,-56.5"/>
<text text-anchor="start" x="49" y="-74.5" font-family="Helvetica,sans-Serif" font-size="10.00" fill="#000000">BipedalLocomotion/Generic</text>
<text text-anchor="middle" x="113" y="-63.5" font-family="Helvetica,sans-Serif" font-size="10.00" fill="#000000">Container/TemplateHelpers.h</text>
</a>
</g>
</g>
<!-- Node14&#45;&gt;Node18 -->
<g id="edge31" class="edge">
<title>Node14&#45;&gt;Node18</title>
<path fill="none" stroke="#191970" d="M274.4902,-190.3258C259.1062,-180.2622 238.6588,-166.6312 221,-154 193.0461,-134.0048 161.9376,-110.0539 140.3147,-93.1225"/>
<polygon fill="#191970" stroke="#191970" points="142.2611,-90.2007 132.2349,-86.7766 137.9375,-95.7059 142.2611,-90.2007"/>
</g>
<!-- Node16&#45;&gt;Node8 -->
<g id="edge30" class="edge">
<title>Node16&#45;&gt;Node8</title>
<path fill="none" stroke="#191970" d="M366.2237,-124.5851C436.0186,-110.2935 535.4469,-89.7552 544,-87 545.8976,-86.3887 547.8312,-85.7078 549.7661,-84.9821"/>
<polygon fill="#191970" stroke="#191970" points="551.3573,-88.113 559.2932,-81.0936 548.712,-81.6321 551.3573,-88.113"/>
</g>
<!-- Node17 -->
<g id="node18" class="node">
<title>Node17</title>
<polygon fill="none" stroke="#bfbfbf" points="343,-62 343,-81 457,-81 457,-62 343,-62"/>
<text text-anchor="middle" x="400" y="-69" font-family="Helvetica,sans-Serif" font-size="10.00" fill="#000000">iDynTree/Core/Span.h</text>
</g>
<!-- Node16&#45;&gt;Node17 -->
<g id="edge22" class="edge">
<title>Node16&#45;&gt;Node17</title>
<path fill="none" stroke="#191970" d="M320.8908,-123.4639C337.5425,-112.526 360.0083,-97.769 376.7442,-86.7759"/>
<polygon fill="#191970" stroke="#191970" points="378.9425,-89.5195 385.3791,-81.1039 375.0994,-83.6688 378.9425,-89.5195"/>
</g>
<!-- Node16&#45;&gt;Node18 -->
<g id="edge23" class="edge">
<title>Node16&#45;&gt;Node18</title>
<path fill="none" stroke="#191970" d="M256.4824,-123.4639C229.2045,-113.5849 193.3244,-100.5905 164.2685,-90.0675"/>
<polygon fill="#191970" stroke="#191970" points="165.2929,-86.7161 154.6987,-86.6017 162.9092,-93.2978 165.2929,-86.7161"/>
</g>
<!-- Node22 -->
<g id="node23" class="node">
<title>Node22</title>
<polygon fill="none" stroke="#bfbfbf" points="475.5,-62 475.5,-81 534.5,-81 534.5,-62 475.5,-62"/>
<text text-anchor="middle" x="505" y="-69" font-family="Helvetica,sans-Serif" font-size="10.00" fill="#000000">functional</text>
</g>
<!-- Node16&#45;&gt;Node22 -->
<g id="edge27" class="edge">
<title>Node16&#45;&gt;Node22</title>
<path fill="none" stroke="#191970" d="M350.9462,-123.4623C384.2001,-113.7239 427.8645,-100.3988 466,-87 467.9075,-86.3298 469.8598,-85.6228 471.8247,-84.8947"/>
<polygon fill="#191970" stroke="#191970" points="473.5158,-87.9952 481.6053,-81.1534 471.0148,-81.4572 473.5158,-87.9952"/>
</g>
<!-- Node23 -->
<g id="node24" class="node">
<title>Node23</title>
<polygon fill="none" stroke="#bfbfbf" points="203.5,-62 203.5,-81 252.5,-81 252.5,-62 203.5,-62"/>
<text text-anchor="middle" x="228" y="-69" font-family="Helvetica,sans-Serif" font-size="10.00" fill="#000000">cassert</text>
</g>
<!-- Node16&#45;&gt;Node23 -->
<g id="edge28" class="edge">
<title>Node16&#45;&gt;Node23</title>
<path fill="none" stroke="#191970" d="M282.1159,-123.2967C271.2096,-112.8578 256.731,-98.9997 245.4944,-88.2446"/>
<polygon fill="#191970" stroke="#191970" points="247.6271,-85.4411 237.9828,-81.055 242.7869,-90.498 247.6271,-85.4411"/>
</g>
<!-- Node24 -->
<g id="node25" class="node">
<title>Node24</title>
<polygon fill="none" stroke="#bfbfbf" points="271,-62 271,-81 325,-81 325,-62 271,-62"/>
<text text-anchor="middle" x="298" y="-69" font-family="Helvetica,sans-Serif" font-size="10.00" fill="#000000">iostream</text>
</g>
<!-- Node16&#45;&gt;Node24 -->
<g id="edge29" class="edge">
<title>Node16&#45;&gt;Node24</title>
<path fill="none" stroke="#191970" d="M298,-123.2967C298,-113.7699 298,-101.3954 298,-91.1306"/>
<polygon fill="#191970" stroke="#191970" points="301.5001,-91.0549 298,-81.055 294.5001,-91.055 301.5001,-91.0549"/>
</g>
<!-- Node19 -->
<g id="node20" class="node">
<title>Node19</title>
<polygon fill="none" stroke="#bfbfbf" points="0,-.5 0,-19.5 62,-19.5 62,-.5 0,-.5"/>
<text text-anchor="middle" x="31" y="-7.5" font-family="Helvetica,sans-Serif" font-size="10.00" fill="#000000">type_traits</text>
</g>
<!-- Node18&#45;&gt;Node19 -->
<g id="edge24" class="edge">
<title>Node18&#45;&gt;Node19</title>
<path fill="none" stroke="#191970" d="M92.7303,-56.2977C80.3994,-47.0495 64.6734,-35.2551 52.1803,-25.8853"/>
<polygon fill="#191970" stroke="#191970" points="54.2293,-23.047 44.1292,-19.8469 50.0292,-28.647 54.2293,-23.047"/>
</g>
<!-- Node20 -->
<g id="node21" class="node">
<title>Node20</title>
<polygon fill="none" stroke="#bfbfbf" points="80,-.5 80,-19.5 146,-19.5 146,-.5 80,-.5"/>
<text text-anchor="middle" x="113" y="-7.5" font-family="Helvetica,sans-Serif" font-size="10.00" fill="#000000">string_view</text>
</g>
<!-- Node18&#45;&gt;Node20 -->
<g id="edge25" class="edge">
<title>Node18&#45;&gt;Node20</title>
<path fill="none" stroke="#191970" d="M113,-56.2977C113,-48.3834 113,-38.6043 113,-30.0759"/>
<polygon fill="#191970" stroke="#191970" points="116.5001,-29.8469 113,-19.8469 109.5001,-29.847 116.5001,-29.8469"/>
</g>
<!-- Node21 -->
<g id="node22" class="node">
<title>Node21</title>
<polygon fill="none" stroke="#bfbfbf" points="164.5,-.5 164.5,-19.5 229.5,-19.5 229.5,-.5 164.5,-.5"/>
<text text-anchor="middle" x="197" y="-7.5" font-family="Helvetica,sans-Serif" font-size="10.00" fill="#000000">Eigen/Core</text>
</g>
<!-- Node18&#45;&gt;Node21 -->
<g id="edge26" class="edge">
<title>Node18&#45;&gt;Node21</title>
<path fill="none" stroke="#191970" d="M133.7641,-56.2977C146.3958,-47.0495 162.5053,-35.2551 175.3031,-25.8853"/>
<polygon fill="#191970" stroke="#191970" points="177.5495,-28.5784 183.5505,-19.8469 173.4143,-22.9303 177.5495,-28.5784"/>
</g>
</g>
</svg>
        <g id="navigator" transform="translate(0 0)" fill="#404254">
                <rect fill="#f2f5e9" fill-opacity="0.5" stroke="#606060" stroke-width=".5" x="0" y="0" width="60" height="60"/>
                <use id="zoomplus" xlink:href="#zoomPlus" x="17" y="9" onmousedown="handleZoom(evt,'in')"/>
                <use id="zoomminus" xlink:href="#zoomMin" x="42" y="9" onmousedown="handleZoom(evt,'out')"/>
                <use id="reset" xlink:href="#resetDef" x="30" y="36" onmousedown="handleReset()"/>
                <g id="arrowUp" xlink:href="#dirArrow" transform="translate(30 24)" onmousedown="handlePan(0,-1)">
                  <use xlink:href="#rim" fill="#404040">
                        <set attributeName="fill" to="#808080" begin="arrowUp.mouseover" end="arrowUp.mouseout"/>
                  </use>
                  <path fill="none" stroke="white" stroke-width="1.5" d="M0,-3.0v7 M-2.5,-0.5L0,-3.0L2.5,-0.5"/>
                </g>
                <g id="arrowRight" xlink:href="#dirArrow" transform="rotate(90) translate(36 -43)" onmousedown="handlePan(1,0)">
                  <use xlink:href="#rim" fill="#404040">
                        <set attributeName="fill" to="#808080" begin="arrowRight.mouseover" end="arrowRight.mouseout"/>
                  </use>
                  <path fill="none" stroke="white" stroke-width="1.5" d="M0,-3.0v7 M-2.5,-0.5L0,-3.0L2.5,-0.5"/>
                </g>
                <g id="arrowDown" xlink:href="#dirArrow" transform="rotate(180) translate(-30 -48)" onmousedown="handlePan(0,1)">
                  <use xlink:href="#rim" fill="#404040">
                        <set attributeName="fill" to="#808080" begin="arrowDown.mouseover" end="arrowDown.mouseout"/>
                  </use>
                  <path fill="none" stroke="white" stroke-width="1.5" d="M0,-3.0v7 M-2.5,-0.5L0,-3.0L2.5,-0.5"/>
                </g>
                <g id="arrowLeft" xlink:href="#dirArrow" transform="rotate(270) translate(-36 17)" onmousedown="handlePan(-1,0)">
                  <use xlink:href="#rim" fill="#404040">
                        <set attributeName="fill" to="#808080" begin="arrowLeft.mouseover" end="arrowLeft.mouseout"/>
                  </use>
                  <path fill="none" stroke="white" stroke-width="1.5" d="M0,-3.0v7 M-2.5,-0.5L0,-3.0L2.5,-0.5"/>
                </g>
        </g>
        <svg viewBox="0 0 15 15" width="100%" height="30px" preserveAspectRatio="xMaxYMin meet">
         <g id="arrow_out" transform="scale(0.3 0.3)">
          <a xlink:href="ContinuousContactModel_8cpp__incl_org.svg" target="_base">
           <rect id="button" ry="5" rx="5" y="6" x="6" height="38" width="38"
                fill="#f2f5e9" fill-opacity="0.5" stroke="#606060" stroke-width="1.0"/>
           <path id="arrow"
             d="M 11.500037,31.436501 C 11.940474,20.09759 22.043105,11.32322 32.158766,21.979434 L 37.068811,17.246167 C 37.068811,17.246167 37.088388,32 37.088388,32 L 22.160133,31.978069 C 22.160133,31.978069 26.997745,27.140456 26.997745,27.140456 C 18.528582,18.264221 13.291696,25.230495 11.500037,31.436501 z"
             style="fill:#404040;"/>
          </a>
         </g>
        </svg>
</svg>
