<?xml version="1.0" encoding="UTF-8" standalone="no"?>
<!DOCTYPE svg PUBLIC "-//W3C//DTD SVG 1.1//EN"
 "http://www.w3.org/Graphics/SVG/1.1/DTD/svg11.dtd">
<!-- Generated by graphviz version 2.40.1 (20161225.0304)
 -->
<!-- Title: ContactModels/src/ContactModel.cpp Pages: 1 -->
<!--zoomable 363 -->
<svg id="main" version="1.1" xmlns="http://www.w3.org/2000/svg" xmlns:xlink="http://www.w3.org/1999/xlink" xml:space="preserve" onload="init(evt)">
<style type="text/css"><![CDATA[
.edge:hover path { stroke: red; }
.edge:hover polygon { stroke: red; fill: red; }
]]></style>
<script type="text/javascript"><![CDATA[
var edges = document.getElementsByTagName('g');
if (edges && edges.length) {
  for (var i=0;i<edges.length;i++) {
    if (edges[i].id.substr(0,4)=='edge') {
      edges[i].setAttribute('class','edge');
    }
  }
}
]]></script>
        <defs>
                <circle id="rim" cx="0" cy="0" r="7"/>
                <circle id="rim2" cx="0" cy="0" r="3.5"/>
                <g id="zoomPlus">
                        <use xlink:href="#rim" fill="#404040">
                                <set attributeName="fill" to="#808080" begin="zoomplus.mouseover" end="zoomplus.mouseout"/>
                        </use>
                        <path d="M-4,0h8M0,-4v8" fill="none" stroke="white" stroke-width="1.5" pointer-events="none"/>
                </g>
                <g id="zoomMin">
                        <use xlink:href="#rim" fill="#404040">
                                <set attributeName="fill" to="#808080" begin="zoomminus.mouseover" end="zoomminus.mouseout"/>
                        </use>
                        <path d="M-4,0h8" fill="none" stroke="white" stroke-width="1.5" pointer-events="none"/>
                </g>
                <g id="dirArrow">
                        <path fill="none" stroke="white" stroke-width="1.5" d="M0,-3.0v7 M-2.5,-0.5L0,-3.0L2.5,-0.5"/>
                </g>
               <g id="resetDef">
                       <use xlink:href="#rim2" fill="#404040">
                               <set attributeName="fill" to="#808080" begin="reset.mouseover" end="reset.mouseout"/>
                       </use>
               </g>
        </defs>

<script type="text/javascript">
var viewWidth = 1473;
var viewHeight = 363;
var sectionId = 'dynsection-0';
</script>
<script xlink:href="svgpan.js"/>
<svg id="graph" class="graph">
<g id="viewport">
<title>ContactModels/src/ContactModel.cpp</title>
<!-- Node0 -->
<g id="node1" class="node">
<title>Node0</title>
<polygon fill="#bfbfbf" stroke="#000000" points="701.5,-324.5 701.5,-354.5 838.5,-354.5 838.5,-324.5 701.5,-324.5"/>
<text text-anchor="start" x="709.5" y="-342.5" font-family="Helvetica,sans-Serif" font-size="10.00" fill="#000000">ContactModels/src/Contact</text>
<text text-anchor="middle" x="770" y="-331.5" font-family="Helvetica,sans-Serif" font-size="10.00" fill="#000000">Model.cpp</text>
</g>
<!-- Node1 -->
<g id="node2" class="node">
<title>Node1</title>
<g id="a_node2"><a xlink:href="ContactModel_8h.html" target="_top" xlink:title="BipedalLocomotion/Contact\lModels/ContactModel.h">
<polygon fill="none" stroke="#000000" points="701.5,-257.5 701.5,-287.5 838.5,-287.5 838.5,-257.5 701.5,-257.5"/>
<text text-anchor="start" x="709.5" y="-275.5" font-family="Helvetica,sans-Serif" font-size="10.00" fill="#000000">BipedalLocomotion/Contact</text>
<text text-anchor="middle" x="770" y="-264.5" font-family="Helvetica,sans-Serif" font-size="10.00" fill="#000000">Models/ContactModel.h</text>
</a>
</g>
</g>
<!-- Node0&#45;&gt;Node1 -->
<g id="edge1" class="edge">
<title>Node0&#45;&gt;Node1</title>
<path fill="none" stroke="#191970" d="M770,-324.2967C770,-316.5013 770,-306.7991 770,-297.9064"/>
<polygon fill="#191970" stroke="#191970" points="773.5001,-297.6431 770,-287.6432 766.5001,-297.6432 773.5001,-297.6431"/>
</g>
<!-- Node2 -->
<g id="node3" class="node">
<title>Node2</title>
<polygon fill="none" stroke="#bfbfbf" points="160,-196 160,-215 192,-215 192,-196 160,-196"/>
<text text-anchor="middle" x="176" y="-203" font-family="Helvetica,sans-Serif" font-size="10.00" fill="#000000">any</text>
</g>
<!-- Node1&#45;&gt;Node2 -->
<g id="edge2" class="edge">
<title>Node1&#45;&gt;Node2</title>
<path fill="none" stroke="#191970" d="M701.3915,-269.532C572.1039,-263.3963 297.2005,-247.6181 206,-221 204.3363,-220.5144 202.6568,-219.9343 200.9874,-219.288"/>
<polygon fill="#191970" stroke="#191970" points="202.2659,-216.0243 191.7151,-215.0588 199.361,-222.3931 202.2659,-216.0243"/>
</g>
<!-- Node3 -->
<g id="node4" class="node">
<title>Node3</title>
<polygon fill="none" stroke="#bfbfbf" points="552,-62 552,-81 604,-81 604,-62 552,-62"/>
<text text-anchor="middle" x="578" y="-69" font-family="Helvetica,sans-Serif" font-size="10.00" fill="#000000">memory</text>
</g>
<!-- Node1&#45;&gt;Node3 -->
<g id="edge3" class="edge">
<title>Node1&#45;&gt;Node3</title>
<path fill="none" stroke="#191970" d="M838.551,-269.8614C1008.5011,-262.9888 1437.1223,-243.4989 1458,-221 1467.3717,-210.9006 1467.069,-200.3721 1458,-190 1401.3365,-125.1948 773.6027,-83.2635 614.4889,-73.6265"/>
<polygon fill="#191970" stroke="#191970" points="614.4676,-70.119 604.2758,-73.0135 614.0481,-77.1065 614.4676,-70.119"/>
</g>
<!-- Node4 -->
<g id="node5" class="node">
<title>Node4</title>
<polygon fill="none" stroke="#bfbfbf" points="199.5,-129 199.5,-148 240.5,-148 240.5,-129 199.5,-129"/>
<text text-anchor="middle" x="220" y="-136" font-family="Helvetica,sans-Serif" font-size="10.00" fill="#000000">string</text>
</g>
<!-- Node1&#45;&gt;Node4 -->
<g id="edge4" class="edge">
<title>Node1&#45;&gt;Node4</title>
<path fill="none" stroke="#191970" d="M701.2673,-270.2545C565.5008,-265.1884 273.0595,-250.9064 239,-221 221.3659,-205.5162 218.3374,-177.2551 218.5553,-158.1778"/>
<polygon fill="#191970" stroke="#191970" points="222.0527,-158.3099 218.9728,-148.1727 215.0588,-158.018 222.0527,-158.3099"/>
</g>
<!-- Node5 -->
<g id="node6" class="node">
<title>Node5</title>
<polygon fill="none" stroke="#bfbfbf" points="418.5,-196 418.5,-215 501.5,-215 501.5,-196 418.5,-196"/>
<text text-anchor="middle" x="460" y="-203" font-family="Helvetica,sans-Serif" font-size="10.00" fill="#000000">unordered_map</text>
</g>
<!-- Node1&#45;&gt;Node5 -->
<g id="edge5" class="edge">
<title>Node1&#45;&gt;Node5</title>
<path fill="none" stroke="#191970" d="M701.4252,-260.7724C648.9803,-251.3436 575.0355,-237.0557 511,-221 507.1711,-220.04 503.2022,-218.9695 499.2463,-217.8521"/>
<polygon fill="#191970" stroke="#191970" points="500.1069,-214.4573 489.5267,-215.0139 498.1447,-221.1767 500.1069,-214.4573"/>
</g>
<!-- Node6 -->
<g id="node7" class="node">
<title>Node6</title>
<polygon fill="none" stroke="#bfbfbf" points="520,-196 520,-215 676,-215 676,-196 520,-196"/>
<text text-anchor="middle" x="598" y="-203" font-family="Helvetica,sans-Serif" font-size="10.00" fill="#000000">iDynTree/Core/MatrixDynSize.h</text>
</g>
<!-- Node1&#45;&gt;Node6 -->
<g id="edge6" class="edge">
<title>Node1&#45;&gt;Node6</title>
<path fill="none" stroke="#191970" d="M731.3998,-257.4639C701.5419,-245.8332 660.5985,-229.8843 631.9742,-218.7342"/>
<polygon fill="#191970" stroke="#191970" points="632.9901,-215.3737 622.4016,-215.0053 630.4492,-221.8963 632.9901,-215.3737"/>
</g>
<!-- Node7 -->
<g id="node8" class="node">
<title>Node7</title>
<polygon fill="none" stroke="#bfbfbf" points="694,-196 694,-215 846,-215 846,-196 694,-196"/>
<text text-anchor="middle" x="770" y="-203" font-family="Helvetica,sans-Serif" font-size="10.00" fill="#000000">iDynTree/Core/MatrixFixSize.h</text>
</g>
<!-- Node1&#45;&gt;Node7 -->
<g id="edge7" class="edge">
<title>Node1&#45;&gt;Node7</title>
<path fill="none" stroke="#191970" d="M770,-257.2967C770,-247.7699 770,-235.3954 770,-225.1306"/>
<polygon fill="#191970" stroke="#191970" points="773.5001,-225.0549 770,-215.055 766.5001,-225.055 773.5001,-225.0549"/>
</g>
<!-- Node8 -->
<g id="node9" class="node">
<title>Node8</title>
<polygon fill="none" stroke="#bfbfbf" points="864,-196 864,-215 1000,-215 1000,-196 864,-196"/>
<text text-anchor="middle" x="932" y="-203" font-family="Helvetica,sans-Serif" font-size="10.00" fill="#000000">iDynTree/Core/Transform.h</text>
</g>
<!-- Node1&#45;&gt;Node8 -->
<g id="edge8" class="edge">
<title>Node1&#45;&gt;Node8</title>
<path fill="none" stroke="#191970" d="M806.356,-257.4639C834.2721,-245.9183 872.4769,-230.1176 899.407,-218.9798"/>
<polygon fill="#191970" stroke="#191970" points="900.8754,-222.1601 908.7786,-215.1039 898.2,-215.6915 900.8754,-222.1601"/>
</g>
<!-- Node9 -->
<g id="node10" class="node">
<title>Node9</title>
<polygon fill="none" stroke="#bfbfbf" points="1018,-196 1018,-215 1134,-215 1134,-196 1018,-196"/>
<text text-anchor="middle" x="1076" y="-203" font-family="Helvetica,sans-Serif" font-size="10.00" fill="#000000">iDynTree/Core/Twist.h</text>
</g>
<!-- Node1&#45;&gt;Node9 -->
<g id="edge9" class="edge">
<title>Node1&#45;&gt;Node9</title>
<path fill="none" stroke="#191970" d="M838.5693,-258.0117C886.3789,-247.8395 951.6273,-233.817 1009,-221 1014.3162,-219.8124 1019.8656,-218.5557 1025.3962,-217.2924"/>
<polygon fill="#191970" stroke="#191970" points="1026.3131,-220.6731 1035.2767,-215.0247 1024.7471,-213.8505 1026.3131,-220.6731"/>
</g>
<!-- Node10 -->
<g id="node11" class="node">
<title>Node10</title>
<polygon fill="none" stroke="#bfbfbf" points="1152.5,-196 1152.5,-215 1305.5,-215 1305.5,-196 1152.5,-196"/>
<text text-anchor="middle" x="1229" y="-203" font-family="Helvetica,sans-Serif" font-size="10.00" fill="#000000">iDynTree/Core/VectorFixSize.h</text>
</g>
<!-- Node1&#45;&gt;Node10 -->
<g id="edge10" class="edge">
<title>Node1&#45;&gt;Node10</title>
<path fill="none" stroke="#191970" d="M838.5301,-263.8967C913.4452,-254.2917 1036.9611,-237.8689 1143,-221 1151.1843,-219.698 1159.7915,-218.2459 1168.2685,-216.7671"/>
<polygon fill="#191970" stroke="#191970" points="1168.8879,-220.212 1178.1269,-215.0262 1167.6705,-213.3186 1168.8879,-220.212"/>
</g>
<!-- Node11 -->
<g id="node12" class="node">
<title>Node11</title>
<polygon fill="none" stroke="#bfbfbf" points="1323.5,-196 1323.5,-215 1448.5,-215 1448.5,-196 1323.5,-196"/>
<text text-anchor="middle" x="1386" y="-203" font-family="Helvetica,sans-Serif" font-size="10.00" fill="#000000">iDynTree/Core/Wrench.h</text>
</g>
<!-- Node1&#45;&gt;Node11 -->
<g id="edge11" class="edge">
<title>Node1&#45;&gt;Node11</title>
<path fill="none" stroke="#191970" d="M838.7287,-268.6752C942.4078,-262.3037 1144.7947,-247.5213 1315,-221 1321.8681,-219.9298 1329.0685,-218.6024 1336.1399,-217.178"/>
<polygon fill="#191970" stroke="#191970" points="1337.2835,-220.5145 1346.3545,-215.0403 1335.8496,-213.663 1337.2835,-220.5145"/>
</g>
<!-- Node12 -->
<g id="node13" class="node">
<title>Node12</title>
<g id="a_node13"><a xlink:href="IParametersHandler_8h.html" target="_top" xlink:title="BipedalLocomotion/Parameters\lHandler/IParametersHandler.h">
<polygon fill="none" stroke="#000000" points="248,-190.5 248,-220.5 400,-220.5 400,-190.5 248,-190.5"/>
<text text-anchor="start" x="256" y="-208.5" font-family="Helvetica,sans-Serif" font-size="10.00" fill="#000000">BipedalLocomotion/Parameters</text>
<text text-anchor="middle" x="324" y="-197.5" font-family="Helvetica,sans-Serif" font-size="10.00" fill="#000000">Handler/IParametersHandler.h</text>
</a>
</g>
</g>
<!-- Node1&#45;&gt;Node12 -->
<g id="edge12" class="edge">
<title>Node1&#45;&gt;Node12</title>
<path fill="none" stroke="#191970" d="M701.2084,-263.4131C630.8712,-253.9509 518.2028,-238.3228 410.4808,-221.0425"/>
<polygon fill="#191970" stroke="#191970" points="410.8374,-217.5549 400.4079,-219.4194 409.7238,-224.4658 410.8374,-217.5549"/>
</g>
<!-- Node12&#45;&gt;Node3 -->
<g id="edge13" class="edge">
<title>Node12&#45;&gt;Node3</title>
<path fill="none" stroke="#191970" d="M365.784,-190.496C388.998,-181.3756 417.9589,-168.6706 442,-154 460.6053,-142.6465 461.8173,-135.0188 480,-123 501.771,-108.6093 528.0169,-94.9962 547.866,-85.3842"/>
<polygon fill="#191970" stroke="#191970" points="549.5317,-88.4674 557.0487,-81.0011 546.5163,-82.1502 549.5317,-88.4674"/>
</g>
<!-- Node12&#45;&gt;Node4 -->
<g id="edge14" class="edge">
<title>Node12&#45;&gt;Node4</title>
<path fill="none" stroke="#191970" d="M300.6604,-190.4639C283.6821,-179.526 260.7758,-164.769 243.7118,-153.7759"/>
<polygon fill="#191970" stroke="#191970" points="245.2096,-150.5774 234.9076,-148.1039 241.4186,-156.462 245.2096,-150.5774"/>
</g>
<!-- Node13 -->
<g id="node14" class="node">
<title>Node13</title>
<polygon fill="none" stroke="#bfbfbf" points="489,-129 489,-148 533,-148 533,-129 489,-129"/>
<text text-anchor="middle" x="511" y="-136" font-family="Helvetica,sans-Serif" font-size="10.00" fill="#000000">vector</text>
</g>
<!-- Node12&#45;&gt;Node13 -->
<g id="edge15" class="edge">
<title>Node12&#45;&gt;Node13</title>
<path fill="none" stroke="#191970" d="M371.2706,-190.4273C401.2091,-180.6231 440.623,-167.2398 475,-154 476.6153,-153.3779 478.265,-152.7264 479.9264,-152.0574"/>
<polygon fill="#191970" stroke="#191970" points="481.5171,-155.1867 489.4102,-148.1192 478.8326,-148.7219 481.5171,-155.1867"/>
</g>
<!-- Node14 -->
<g id="node15" class="node">
<title>Node14</title>
<g id="a_node15"><a xlink:href="Vector_8h_source.html" target="_top" xlink:title="BipedalLocomotion/Generic\lContainer/Vector.h">
<polygon fill="none" stroke="#000000" points="297,-123.5 297,-153.5 433,-153.5 433,-123.5 297,-123.5"/>
<text text-anchor="start" x="305" y="-141.5" font-family="Helvetica,sans-Serif" font-size="10.00" fill="#000000">BipedalLocomotion/Generic</text>
<text text-anchor="middle" x="365" y="-130.5" font-family="Helvetica,sans-Serif" font-size="10.00" fill="#000000">Container/Vector.h</text>
</a>
</g>
</g>
<!-- Node12&#45;&gt;Node14 -->
<g id="edge16" class="edge">
<title>Node12&#45;&gt;Node14</title>
<path fill="none" stroke="#191970" d="M333.3035,-190.2967C338.336,-182.0729 344.6669,-171.7272 350.345,-162.4483"/>
<polygon fill="#191970" stroke="#191970" points="353.499,-163.9997 355.7333,-153.6432 347.5282,-160.346 353.499,-163.9997"/>
</g>
<!-- Node16 -->
<g id="node17" class="node">
<title>Node16</title>
<g id="a_node17"><a xlink:href="TemplateHelpers_8h_source.html" target="_top" xlink:title="BipedalLocomotion/Generic\lContainer/TemplateHelpers.h">
<polygon fill="none" stroke="#000000" points="41,-56.5 41,-86.5 185,-86.5 185,-56.5 41,-56.5"/>
<text text-anchor="start" x="49" y="-74.5" font-family="Helvetica,sans-Serif" font-size="10.00" fill="#000000">BipedalLocomotion/Generic</text>
<text text-anchor="middle" x="113" y="-63.5" font-family="Helvetica,sans-Serif" font-size="10.00" fill="#000000">Container/TemplateHelpers.h</text>
</a>
</g>
</g>
<!-- Node12&#45;&gt;Node16 -->
<g id="edge26" class="edge">
<title>Node12&#45;&gt;Node16</title>
<path fill="none" stroke="#191970" d="M313.9265,-190.3949C301.0546,-172.1397 277.1618,-141.567 250,-123 229.2589,-108.822 204.1027,-97.9135 181.0358,-89.8639"/>
<polygon fill="#191970" stroke="#191970" points="181.891,-86.4589 171.2969,-86.5879 179.6592,-93.0936 181.891,-86.4589"/>
</g>
<!-- Node14&#45;&gt;Node3 -->
<g id="edge25" class="edge">
<title>Node14&#45;&gt;Node3</title>
<path fill="none" stroke="#191970" d="M424.5735,-123.428C459.4605,-114.067 504.1571,-101.1465 543,-87 544.6313,-86.4059 546.2942,-85.7716 547.9652,-85.1115"/>
<polygon fill="#191970" stroke="#191970" points="549.5801,-88.2302 557.4612,-81.1494 546.8846,-81.77 549.5801,-88.2302"/>
</g>
<!-- Node15 -->
<g id="node16" class="node">
<title>Node15</title>
<polygon fill="none" stroke="#bfbfbf" points="203,-62 203,-81 317,-81 317,-62 203,-62"/>
<text text-anchor="middle" x="260" y="-69" font-family="Helvetica,sans-Serif" font-size="10.00" fill="#000000">iDynTree/Core/Span.h</text>
</g>
<!-- Node14&#45;&gt;Node15 -->
<g id="edge17" class="edge">
<title>Node14&#45;&gt;Node15</title>
<path fill="none" stroke="#191970" d="M341.436,-123.4639C324.2944,-112.526 301.1679,-97.769 283.9398,-86.7759"/>
<polygon fill="#191970" stroke="#191970" points="285.3636,-83.5326 275.0509,-81.1039 281.5982,-89.4336 285.3636,-83.5326"/>
</g>
<!-- Node14&#45;&gt;Node16 -->
<g id="edge18" class="edge">
<title>Node14&#45;&gt;Node16</title>
<path fill="none" stroke="#191970" d="M308.4463,-123.4639C270.2393,-113.3057 219.643,-99.8535 179.5032,-89.1814"/>
<polygon fill="#191970" stroke="#191970" points="180.364,-85.7887 169.8004,-86.6017 178.5653,-92.5537 180.364,-85.7887"/>
</g>
<!-- Node20 -->
<g id="node21" class="node">
<title>Node20</title>
<polygon fill="none" stroke="#bfbfbf" points="335.5,-62 335.5,-81 394.5,-81 394.5,-62 335.5,-62"/>
<text text-anchor="middle" x="365" y="-69" font-family="Helvetica,sans-Serif" font-size="10.00" fill="#000000">functional</text>
</g>
<!-- Node14&#45;&gt;Node20 -->
<g id="edge22" class="edge">
<title>Node14&#45;&gt;Node20</title>
<path fill="none" stroke="#191970" d="M365,-123.2967C365,-113.7699 365,-101.3954 365,-91.1306"/>
<polygon fill="#191970" stroke="#191970" points="368.5001,-91.0549 365,-81.055 361.5001,-91.055 368.5001,-91.0549"/>
</g>
<!-- Node21 -->
<g id="node22" class="node">
<title>Node21</title>
<polygon fill="none" stroke="#bfbfbf" points="412.5,-62 412.5,-81 461.5,-81 461.5,-62 412.5,-62"/>
<text text-anchor="middle" x="437" y="-69" font-family="Helvetica,sans-Serif" font-size="10.00" fill="#000000">cassert</text>
</g>
<!-- Node14&#45;&gt;Node21 -->
<g id="edge23" class="edge">
<title>Node14&#45;&gt;Node21</title>
<path fill="none" stroke="#191970" d="M381.3379,-123.2967C392.6648,-112.7564 407.7376,-98.7303 419.3414,-87.9323"/>
<polygon fill="#191970" stroke="#191970" points="421.7956,-90.4296 426.732,-81.055 417.0269,-85.3051 421.7956,-90.4296"/>
</g>
<!-- Node22 -->
<g id="node23" class="node">
<title>Node22</title>
<polygon fill="none" stroke="#bfbfbf" points="480,-62 480,-81 534,-81 534,-62 480,-62"/>
<text text-anchor="middle" x="507" y="-69" font-family="Helvetica,sans-Serif" font-size="10.00" fill="#000000">iostream</text>
</g>
<!-- Node14&#45;&gt;Node22 -->
<g id="edge24" class="edge">
<title>Node14&#45;&gt;Node22</title>
<path fill="none" stroke="#191970" d="M396.8676,-123.4639C421.0153,-112.0702 453.9457,-96.5327 477.4939,-85.4219"/>
<polygon fill="#191970" stroke="#191970" points="479.0951,-88.5365 486.6454,-81.1039 476.108,-82.2058 479.0951,-88.5365"/>
</g>
<!-- Node17 -->
<g id="node18" class="node">
<title>Node17</title>
<polygon fill="none" stroke="#bfbfbf" points="0,-.5 0,-19.5 62,-19.5 62,-.5 0,-.5"/>
<text text-anchor="middle" x="31" y="-7.5" font-family="Helvetica,sans-Serif" font-size="10.00" fill="#000000">type_traits</text>
</g>
<!-- Node16&#45;&gt;Node17 -->
<g id="edge19" class="edge">
<title>Node16&#45;&gt;Node17</title>
<path fill="none" stroke="#191970" d="M92.7303,-56.2977C80.3994,-47.0495 64.6734,-35.2551 52.1803,-25.8853"/>
<polygon fill="#191970" stroke="#191970" points="54.2293,-23.047 44.1292,-19.8469 50.0292,-28.647 54.2293,-23.047"/>
</g>
<!-- Node18 -->
<g id="node19" class="node">
<title>Node18</title>
<polygon fill="none" stroke="#bfbfbf" points="80,-.5 80,-19.5 146,-19.5 146,-.5 80,-.5"/>
<text text-anchor="middle" x="113" y="-7.5" font-family="Helvetica,sans-Serif" font-size="10.00" fill="#000000">string_view</text>
</g>
<!-- Node16&#45;&gt;Node18 -->
<g id="edge20" class="edge">
<title>Node16&#45;&gt;Node18</title>
<path fill="none" stroke="#191970" d="M113,-56.2977C113,-48.3834 113,-38.6043 113,-30.0759"/>
<polygon fill="#191970" stroke="#191970" points="116.5001,-29.8469 113,-19.8469 109.5001,-29.847 116.5001,-29.8469"/>
</g>
<!-- Node19 -->
<g id="node20" class="node">
<title>Node19</title>
<polygon fill="none" stroke="#bfbfbf" points="164.5,-.5 164.5,-19.5 229.5,-19.5 229.5,-.5 164.5,-.5"/>
<text text-anchor="middle" x="197" y="-7.5" font-family="Helvetica,sans-Serif" font-size="10.00" fill="#000000">Eigen/Core</text>
</g>
<!-- Node16&#45;&gt;Node19 -->
<g id="edge21" class="edge">
<title>Node16&#45;&gt;Node19</title>
<path fill="none" stroke="#191970" d="M133.7641,-56.2977C146.3958,-47.0495 162.5053,-35.2551 175.3031,-25.8853"/>
<polygon fill="#191970" stroke="#191970" points="177.5495,-28.5784 183.5505,-19.8469 173.4143,-22.9303 177.5495,-28.5784"/>
</g>
</g>
</svg>
        <g id="navigator" transform="translate(0 0)" fill="#404254">
                <rect fill="#f2f5e9" fill-opacity="0.5" stroke="#606060" stroke-width=".5" x="0" y="0" width="60" height="60"/>
                <use id="zoomplus" xlink:href="#zoomPlus" x="17" y="9" onmousedown="handleZoom(evt,'in')"/>
                <use id="zoomminus" xlink:href="#zoomMin" x="42" y="9" onmousedown="handleZoom(evt,'out')"/>
                <use id="reset" xlink:href="#resetDef" x="30" y="36" onmousedown="handleReset()"/>
                <g id="arrowUp" xlink:href="#dirArrow" transform="translate(30 24)" onmousedown="handlePan(0,-1)">
                  <use xlink:href="#rim" fill="#404040">
                        <set attributeName="fill" to="#808080" begin="arrowUp.mouseover" end="arrowUp.mouseout"/>
                  </use>
                  <path fill="none" stroke="white" stroke-width="1.5" d="M0,-3.0v7 M-2.5,-0.5L0,-3.0L2.5,-0.5"/>
                </g>
                <g id="arrowRight" xlink:href="#dirArrow" transform="rotate(90) translate(36 -43)" onmousedown="handlePan(1,0)">
                  <use xlink:href="#rim" fill="#404040">
                        <set attributeName="fill" to="#808080" begin="arrowRight.mouseover" end="arrowRight.mouseout"/>
                  </use>
                  <path fill="none" stroke="white" stroke-width="1.5" d="M0,-3.0v7 M-2.5,-0.5L0,-3.0L2.5,-0.5"/>
                </g>
                <g id="arrowDown" xlink:href="#dirArrow" transform="rotate(180) translate(-30 -48)" onmousedown="handlePan(0,1)">
                  <use xlink:href="#rim" fill="#404040">
                        <set attributeName="fill" to="#808080" begin="arrowDown.mouseover" end="arrowDown.mouseout"/>
                  </use>
                  <path fill="none" stroke="white" stroke-width="1.5" d="M0,-3.0v7 M-2.5,-0.5L0,-3.0L2.5,-0.5"/>
                </g>
                <g id="arrowLeft" xlink:href="#dirArrow" transform="rotate(270) translate(-36 17)" onmousedown="handlePan(-1,0)">
                  <use xlink:href="#rim" fill="#404040">
                        <set attributeName="fill" to="#808080" begin="arrowLeft.mouseover" end="arrowLeft.mouseout"/>
                  </use>
                  <path fill="none" stroke="white" stroke-width="1.5" d="M0,-3.0v7 M-2.5,-0.5L0,-3.0L2.5,-0.5"/>
                </g>
        </g>
        <svg viewBox="0 0 15 15" width="100%" height="30px" preserveAspectRatio="xMaxYMin meet">
         <g id="arrow_out" transform="scale(0.3 0.3)">
          <a xlink:href="ContactModel_8cpp__incl_org.svg" target="_base">
           <rect id="button" ry="5" rx="5" y="6" x="6" height="38" width="38"
                fill="#f2f5e9" fill-opacity="0.5" stroke="#606060" stroke-width="1.0"/>
           <path id="arrow"
             d="M 11.500037,31.436501 C 11.940474,20.09759 22.043105,11.32322 32.158766,21.979434 L 37.068811,17.246167 C 37.068811,17.246167 37.088388,32 37.088388,32 L 22.160133,31.978069 C 22.160133,31.978069 26.997745,27.140456 26.997745,27.140456 C 18.528582,18.264221 13.291696,25.230495 11.500037,31.436501 z"
             style="fill:#404040;"/>
          </a>
         </g>
        </svg>
</svg>
