<?xml version="1.0" encoding="UTF-8" standalone="no"?>
<!DOCTYPE svg PUBLIC "-//W3C//DTD SVG 1.1//EN"
 "http://www.w3.org/Graphics/SVG/1.1/DTD/svg11.dtd">
<!-- Generated by graphviz version 2.40.1 (20161225.0304)
 -->
<!-- Title: Contacts/include/BipedalLocomotion/Contacts/ContactPhase.h Pages: 1 -->
<svg width="450pt" height="229pt"
 viewBox="0.00 0.00 449.50 229.00" xmlns="http://www.w3.org/2000/svg" xmlns:xlink="http://www.w3.org/1999/xlink">
<g id="graph0" class="graph" transform="scale(1 1) rotate(0) translate(4 225)">
<title>Contacts/include/BipedalLocomotion/Contacts/ContactPhase.h</title>
<!-- Node0 -->
<g id="node1" class="node">
<title>Node0</title>
<polygon fill="#bfbfbf" stroke="#000000" points="127.5,-190.5 127.5,-220.5 310.5,-220.5 310.5,-190.5 127.5,-190.5"/>
<text text-anchor="start" x="135.5" y="-208.5" font-family="Helvetica,sans-Serif" font-size="10.00" fill="#000000">Contacts/include/Bipedal</text>
<text text-anchor="middle" x="219" y="-197.5" font-family="Helvetica,sans-Serif" font-size="10.00" fill="#000000">Locomotion/Contacts/ContactPhase.h</text>
</g>
<!-- Node1 -->
<g id="node2" class="node">
<title>Node1</title>
<g id="a_node2"><a xlink:href="Contact_8h.html" target="_top" xlink:title="BipedalLocomotion/Contacts\l/Contact.h">
<polygon fill="none" stroke="#000000" points="0,-56.5 0,-86.5 142,-86.5 142,-56.5 0,-56.5"/>
<text text-anchor="start" x="8" y="-74.5" font-family="Helvetica,sans-Serif" font-size="10.00" fill="#000000">BipedalLocomotion/Contacts</text>
<text text-anchor="middle" x="71" y="-63.5" font-family="Helvetica,sans-Serif" font-size="10.00" fill="#000000">/Contact.h</text>
</a>
</g>
</g>
<!-- Node0&#45;&gt;Node1 -->
<g id="edge1" class="edge">
<title>Node0&#45;&gt;Node1</title>
<path fill="none" stroke="#191970" d="M199.6241,-190.3639C186.9794,-180.3159 170.2383,-166.688 156,-154 134.0315,-134.4235 110.0665,-110.9576 93.1998,-94.0658"/>
<polygon fill="#191970" stroke="#191970" points="95.5145,-91.4298 85.9824,-86.8049 90.5499,-96.3647 95.5145,-91.4298"/>
</g>
<!-- Node3 -->
<g id="node4" class="node">
<title>Node3</title>
<polygon fill="none" stroke="#bfbfbf" points="149.5,-.5 149.5,-19.5 190.5,-19.5 190.5,-.5 149.5,-.5"/>
<text text-anchor="middle" x="170" y="-7.5" font-family="Helvetica,sans-Serif" font-size="10.00" fill="#000000">string</text>
</g>
<!-- Node0&#45;&gt;Node3 -->
<g id="edge11" class="edge">
<title>Node0&#45;&gt;Node3</title>
<path fill="none" stroke="#191970" d="M208.1092,-190.4986C201.4936,-180.6156 193.4842,-167.1203 189,-154 174.4495,-111.4268 170.9519,-58.2504 170.1683,-29.9298"/>
<polygon fill="#191970" stroke="#191970" points="173.664,-29.6648 169.9772,-19.7322 166.6653,-29.796 173.664,-29.6648"/>
</g>
<!-- Node4 -->
<g id="node5" class="node">
<title>Node4</title>
<g id="a_node5"><a xlink:href="ContactList_8h.html" target="_top" xlink:title="BipedalLocomotion/Contacts\l/ContactList.h">
<polygon fill="none" stroke="#000000" points="198,-123.5 198,-153.5 340,-153.5 340,-123.5 198,-123.5"/>
<text text-anchor="start" x="206" y="-141.5" font-family="Helvetica,sans-Serif" font-size="10.00" fill="#000000">BipedalLocomotion/Contacts</text>
<text text-anchor="middle" x="269" y="-130.5" font-family="Helvetica,sans-Serif" font-size="10.00" fill="#000000">/ContactList.h</text>
</a>
</g>
</g>
<!-- Node0&#45;&gt;Node4 -->
<g id="edge4" class="edge">
<title>Node0&#45;&gt;Node4</title>
<path fill="none" stroke="#191970" d="M230.3458,-190.2967C236.6107,-181.9016 244.5259,-171.2952 251.5598,-161.8698"/>
<polygon fill="#191970" stroke="#191970" points="254.5233,-163.7508 257.6991,-153.6432 248.9132,-159.5642 254.5233,-163.7508"/>
</g>
<!-- Node8 -->
<g id="node9" class="node">
<title>Node8</title>
<polygon fill="none" stroke="#bfbfbf" points="358.5,-129 358.5,-148 441.5,-148 441.5,-129 358.5,-129"/>
<text text-anchor="middle" x="400" y="-136" font-family="Helvetica,sans-Serif" font-size="10.00" fill="#000000">unordered_map</text>
</g>
<!-- Node0&#45;&gt;Node8 -->
<g id="edge10" class="edge">
<title>Node0&#45;&gt;Node8</title>
<path fill="none" stroke="#191970" d="M259.6199,-190.4639C291.1775,-178.7824 334.5025,-162.7449 364.6419,-151.5884"/>
<polygon fill="#191970" stroke="#191970" points="366.1585,-154.7591 374.3215,-148.0053 363.7284,-148.1945 366.1585,-154.7591"/>
</g>
<!-- Node2 -->
<g id="node3" class="node">
<title>Node2</title>
<polygon fill="none" stroke="#bfbfbf" points="35.5,-.5 35.5,-19.5 106.5,-19.5 106.5,-.5 35.5,-.5"/>
<text text-anchor="middle" x="71" y="-7.5" font-family="Helvetica,sans-Serif" font-size="10.00" fill="#000000">manif/SE3.h</text>
</g>
<!-- Node1&#45;&gt;Node2 -->
<g id="edge2" class="edge">
<title>Node1&#45;&gt;Node2</title>
<path fill="none" stroke="#191970" d="M71,-56.2977C71,-48.3834 71,-38.6043 71,-30.0759"/>
<polygon fill="#191970" stroke="#191970" points="74.5001,-29.8469 71,-19.8469 67.5001,-29.847 74.5001,-29.8469"/>
</g>
<!-- Node1&#45;&gt;Node3 -->
<g id="edge3" class="edge">
<title>Node1&#45;&gt;Node3</title>
<path fill="none" stroke="#191970" d="M95.2181,-56.4554C110.5773,-46.9141 130.3757,-34.6151 145.7425,-25.0691"/>
<polygon fill="#191970" stroke="#191970" points="148.011,-27.7802 154.6585,-19.5303 144.3172,-21.8341 148.011,-27.7802"/>
</g>
<!-- Node4&#45;&gt;Node1 -->
<g id="edge5" class="edge">
<title>Node4&#45;&gt;Node1</title>
<path fill="none" stroke="#191970" d="M224.5649,-123.4639C195.2433,-113.5419 156.6347,-100.4774 125.466,-89.9304"/>
<polygon fill="#191970" stroke="#191970" points="126.2231,-86.4917 115.6289,-86.6017 123.9794,-93.1224 126.2231,-86.4917"/>
</g>
<!-- Node4&#45;&gt;Node3 -->
<g id="edge8" class="edge">
<title>Node4&#45;&gt;Node3</title>
<path fill="none" stroke="#191970" d="M288.02,-123.2247C306.9627,-106.1347 331.0773,-77.9674 315,-56 301.42,-37.4448 239.2283,-22.8494 200.8383,-15.4117"/>
<polygon fill="#191970" stroke="#191970" points="201.1762,-11.914 190.7017,-13.5064 199.883,-18.7935 201.1762,-11.914"/>
</g>
<!-- Node5 -->
<g id="node6" class="node">
<title>Node5</title>
<polygon fill="none" stroke="#bfbfbf" points="362,-62 362,-81 438,-81 438,-62 362,-62"/>
<text text-anchor="middle" x="400" y="-69" font-family="Helvetica,sans-Serif" font-size="10.00" fill="#000000">manif/manif.h</text>
</g>
<!-- Node4&#45;&gt;Node5 -->
<g id="edge6" class="edge">
<title>Node4&#45;&gt;Node5</title>
<path fill="none" stroke="#191970" d="M298.399,-123.4639C320.4781,-112.1715 350.5161,-96.8086 372.1983,-85.7192"/>
<polygon fill="#191970" stroke="#191970" points="373.9128,-88.7736 381.2222,-81.1039 370.7253,-82.5414 373.9128,-88.7736"/>
</g>
<!-- Node6 -->
<g id="node7" class="node">
<title>Node6</title>
<polygon fill="none" stroke="#bfbfbf" points="198,-62 198,-81 228,-81 228,-62 198,-62"/>
<text text-anchor="middle" x="213" y="-69" font-family="Helvetica,sans-Serif" font-size="10.00" fill="#000000">set</text>
</g>
<!-- Node4&#45;&gt;Node6 -->
<g id="edge7" class="edge">
<title>Node4&#45;&gt;Node6</title>
<path fill="none" stroke="#191970" d="M256.2927,-123.2967C247.7371,-113.0605 236.4335,-99.5366 227.5221,-88.8746"/>
<polygon fill="#191970" stroke="#191970" points="230.0849,-86.4832 220.9862,-81.055 224.7139,-90.9724 230.0849,-86.4832"/>
</g>
<!-- Node7 -->
<g id="node8" class="node">
<title>Node7</title>
<polygon fill="none" stroke="#bfbfbf" points="246.5,-62 246.5,-81 305.5,-81 305.5,-62 246.5,-62"/>
<text text-anchor="middle" x="276" y="-69" font-family="Helvetica,sans-Serif" font-size="10.00" fill="#000000">functional</text>
</g>
<!-- Node4&#45;&gt;Node7 -->
<g id="edge9" class="edge">
<title>Node4&#45;&gt;Node7</title>
<path fill="none" stroke="#191970" d="M270.5884,-123.2967C271.5837,-113.7699 272.8766,-101.3954 273.949,-91.1306"/>
<polygon fill="#191970" stroke="#191970" points="277.4436,-91.3646 275.0017,-81.055 270.4815,-90.6371 277.4436,-91.3646"/>
</g>
</g>
</svg>
