<?xml version="1.0" encoding="UTF-8" standalone="no"?>
<!DOCTYPE svg PUBLIC "-//W3C//DTD SVG 1.1//EN"
 "http://www.w3.org/Graphics/SVG/1.1/DTD/svg11.dtd">
<!-- Generated by graphviz version 2.40.1 (20161225.0304)
 -->
<!-- Title: ContactModels/include/BipedalLocomotion/ContactModels/ContactModel.h Pages: 1 -->
<svg width="776pt" height="262pt"
 viewBox="0.00 0.00 775.50 262.00" xmlns="http://www.w3.org/2000/svg" xmlns:xlink="http://www.w3.org/1999/xlink">
<g id="graph0" class="graph" transform="scale(1 1) rotate(0) translate(4 258)">
<title>ContactModels/include/BipedalLocomotion/ContactModels/ContactModel.h</title>
<!-- Node22 -->
<g id="node1" class="node">
<title>Node22</title>
<polygon fill="#bfbfbf" stroke="#000000" points="214.5,-212.5 214.5,-253.5 385.5,-253.5 385.5,-212.5 214.5,-212.5"/>
<text text-anchor="start" x="222.5" y="-241.5" font-family="Helvetica,sans-Serif" font-size="10.00" fill="#000000">ContactModels/include</text>
<text text-anchor="start" x="222.5" y="-230.5" font-family="Helvetica,sans-Serif" font-size="10.00" fill="#000000">/BipedalLocomotion/ContactModels</text>
<text text-anchor="middle" x="300" y="-219.5" font-family="Helvetica,sans-Serif" font-size="10.00" fill="#000000">/ContactModel.h</text>
</g>
<!-- Node23 -->
<g id="node2" class="node">
<title>Node23</title>
<g id="a_node2"><a xlink:href="ContinuousContactModel_8h.html" target="_top" xlink:title="ContactModels/include\l/BipedalLocomotion/ContactModels\l/ContinuousContactModel.h">
<polygon fill="none" stroke="#000000" points="25.5,-134.5 25.5,-175.5 196.5,-175.5 196.5,-134.5 25.5,-134.5"/>
<text text-anchor="start" x="33.5" y="-163.5" font-family="Helvetica,sans-Serif" font-size="10.00" fill="#000000">ContactModels/include</text>
<text text-anchor="start" x="33.5" y="-152.5" font-family="Helvetica,sans-Serif" font-size="10.00" fill="#000000">/BipedalLocomotion/ContactModels</text>
<text text-anchor="middle" x="111" y="-141.5" font-family="Helvetica,sans-Serif" font-size="10.00" fill="#000000">/ContinuousContactModel.h</text>
</a>
</g>
</g>
<!-- Node22&#45;&gt;Node23 -->
<g id="edge1" class="edge">
<title>Node22&#45;&gt;Node23</title>
<path fill="none" stroke="#191970" d="M240.5886,-208.481C214.9157,-197.8858 185.2158,-185.6288 160.7309,-175.5239"/>
<polygon fill="#191970" stroke="#191970" points="239.2687,-211.7226 249.8477,-212.3022 241.9392,-205.252 239.2687,-211.7226"/>
</g>
<!-- Node25 -->
<g id="node4" class="node">
<title>Node25</title>
<g id="a_node4"><a xlink:href="ContactModel_8cpp.html" target="_top" xlink:title="ContactModels/src/Contact\lModel.cpp">
<polygon fill="none" stroke="#000000" points="231.5,-140 231.5,-170 368.5,-170 368.5,-140 231.5,-140"/>
<text text-anchor="start" x="239.5" y="-158" font-family="Helvetica,sans-Serif" font-size="10.00" fill="#000000">ContactModels/src/Contact</text>
<text text-anchor="middle" x="300" y="-147" font-family="Helvetica,sans-Serif" font-size="10.00" fill="#000000">Model.cpp</text>
</a>
</g>
</g>
<!-- Node22&#45;&gt;Node25 -->
<g id="edge3" class="edge">
<title>Node22&#45;&gt;Node25</title>
<path fill="none" stroke="#191970" d="M300,-202.0187C300,-191.1033 300,-179.3119 300,-170.2679"/>
<polygon fill="#191970" stroke="#191970" points="296.5001,-202.0974 300,-212.0974 303.5001,-202.0975 296.5001,-202.0974"/>
</g>
<!-- Node26 -->
<g id="node5" class="node">
<title>Node26</title>
<g id="a_node5"><a xlink:href="ContactWrench_8h.html" target="_top" xlink:title="System/include/BipedalLocomotion\l/System/ContactWrench.h">
<polygon fill="none" stroke="#000000" points="396,-140 396,-170 566,-170 566,-140 396,-140"/>
<text text-anchor="start" x="404" y="-158" font-family="Helvetica,sans-Serif" font-size="10.00" fill="#000000">System/include/BipedalLocomotion</text>
<text text-anchor="middle" x="481" y="-147" font-family="Helvetica,sans-Serif" font-size="10.00" fill="#000000">/System/ContactWrench.h</text>
</a>
</g>
</g>
<!-- Node22&#45;&gt;Node26 -->
<g id="edge4" class="edge">
<title>Node22&#45;&gt;Node26</title>
<path fill="none" stroke="#191970" d="M357.2744,-208.3182C386.3821,-195.7746 420.8147,-180.9362 445.9556,-170.102"/>
<polygon fill="#191970" stroke="#191970" points="355.8279,-205.1304 348.0295,-212.3022 358.5982,-211.5588 355.8279,-205.1304"/>
</g>
<!-- Node24 -->
<g id="node3" class="node">
<title>Node24</title>
<g id="a_node3"><a xlink:href="ContinuousContactModel_8cpp.html" target="_top" xlink:title="ContactModels/src/Continuous\lContactModel.cpp">
<polygon fill="none" stroke="#000000" points="0,-67.5 0,-97.5 152,-97.5 152,-67.5 0,-67.5"/>
<text text-anchor="start" x="8" y="-85.5" font-family="Helvetica,sans-Serif" font-size="10.00" fill="#000000">ContactModels/src/Continuous</text>
<text text-anchor="middle" x="76" y="-74.5" font-family="Helvetica,sans-Serif" font-size="10.00" fill="#000000">ContactModel.cpp</text>
</a>
</g>
</g>
<!-- Node23&#45;&gt;Node24 -->
<g id="edge2" class="edge">
<title>Node23&#45;&gt;Node24</title>
<path fill="none" stroke="#191970" d="M96.6237,-125.2205C92.0359,-115.7173 87.1521,-105.6009 83.2892,-97.5991"/>
<polygon fill="#191970" stroke="#191970" points="93.5645,-126.9345 101.064,-134.4183 99.8684,-123.8912 93.5645,-126.9345"/>
</g>
<!-- Node27 -->
<g id="node6" class="node">
<title>Node27</title>
<g id="a_node6"><a xlink:href="FloatingBaseSystemDynamics_8h.html" target="_top" xlink:title="System/include/BipedalLocomotion\l/System/FloatingBaseSystemDynamics.h">
<polygon fill="none" stroke="#000000" points="170,-67.5 170,-97.5 370,-97.5 370,-67.5 170,-67.5"/>
<text text-anchor="start" x="178" y="-85.5" font-family="Helvetica,sans-Serif" font-size="10.00" fill="#000000">System/include/BipedalLocomotion</text>
<text text-anchor="middle" x="270" y="-74.5" font-family="Helvetica,sans-Serif" font-size="10.00" fill="#000000">/System/FloatingBaseSystemDynamics.h</text>
</a>
</g>
</g>
<!-- Node26&#45;&gt;Node27 -->
<g id="edge5" class="edge">
<title>Node26&#45;&gt;Node27</title>
<path fill="none" stroke="#191970" d="M427.6314,-136.6624C392.3775,-124.5491 346.75,-108.8714 313.6633,-97.5028"/>
<polygon fill="#191970" stroke="#191970" points="426.686,-140.0384 437.2807,-139.978 428.9607,-133.4183 426.686,-140.0384"/>
</g>
<!-- Node29 -->
<g id="node8" class="node">
<title>Node29</title>
<g id="a_node8"><a xlink:href="FloatingBaseSystemKinematics_8h.html" target="_top" xlink:title="System/include/BipedalLocomotion\l/System/FloatingBaseSystemKinematics.h">
<polygon fill="none" stroke="#000000" points="388,-67.5 388,-97.5 592,-97.5 592,-67.5 388,-67.5"/>
<text text-anchor="start" x="396" y="-85.5" font-family="Helvetica,sans-Serif" font-size="10.00" fill="#000000">System/include/BipedalLocomotion</text>
<text text-anchor="middle" x="490" y="-74.5" font-family="Helvetica,sans-Serif" font-size="10.00" fill="#000000">/System/FloatingBaseSystemKinematics.h</text>
</a>
</g>
</g>
<!-- Node26&#45;&gt;Node29 -->
<g id="edge7" class="edge">
<title>Node26&#45;&gt;Node29</title>
<path fill="none" stroke="#191970" d="M484.1232,-129.8409C485.4615,-119.0601 486.9796,-106.8309 488.1376,-97.5028"/>
<polygon fill="#191970" stroke="#191970" points="480.6235,-129.6229 482.8648,-139.978 487.5702,-130.4853 480.6235,-129.6229"/>
</g>
<!-- Node31 -->
<g id="node10" class="node">
<title>Node31</title>
<g id="a_node10"><a xlink:href="ContactWrench_8cpp.html" target="_top" xlink:title="System/src/ContactWrench.cpp">
<polygon fill="none" stroke="#000000" points="610.5,-73 610.5,-92 767.5,-92 767.5,-73 610.5,-73"/>
<text text-anchor="middle" x="689" y="-80" font-family="Helvetica,sans-Serif" font-size="10.00" fill="#000000">System/src/ContactWrench.cpp</text>
</a>
</g>
</g>
<!-- Node26&#45;&gt;Node31 -->
<g id="edge9" class="edge">
<title>Node26&#45;&gt;Node31</title>
<path fill="none" stroke="#191970" d="M533.5994,-136.6661C574.3096,-122.4762 629.0573,-103.3935 661.5251,-92.0766"/>
<polygon fill="#191970" stroke="#191970" points="532.3886,-133.3815 524.0977,-139.978 534.6926,-139.9915 532.3886,-133.3815"/>
</g>
<!-- Node28 -->
<g id="node7" class="node">
<title>Node28</title>
<g id="a_node7"><a xlink:href="FloatingBaseSystemDynamics_8cpp.html" target="_top" xlink:title="System/src/FloatingBaseSystem\lDynamics.cpp">
<polygon fill="none" stroke="#000000" points="189.5,-.5 189.5,-30.5 350.5,-30.5 350.5,-.5 189.5,-.5"/>
<text text-anchor="start" x="197.5" y="-18.5" font-family="Helvetica,sans-Serif" font-size="10.00" fill="#000000">System/src/FloatingBaseSystem</text>
<text text-anchor="middle" x="270" y="-7.5" font-family="Helvetica,sans-Serif" font-size="10.00" fill="#000000">Dynamics.cpp</text>
</a>
</g>
</g>
<!-- Node27&#45;&gt;Node28 -->
<g id="edge6" class="edge">
<title>Node27&#45;&gt;Node28</title>
<path fill="none" stroke="#191970" d="M270,-57.0249C270,-48.128 270,-38.4287 270,-30.6432"/>
<polygon fill="#191970" stroke="#191970" points="266.5001,-57.2966 270,-67.2967 273.5001,-57.2967 266.5001,-57.2966"/>
</g>
<!-- Node30 -->
<g id="node9" class="node">
<title>Node30</title>
<g id="a_node9"><a xlink:href="FloatingBaseSystemKinematics_8cpp.html" target="_top" xlink:title="System/src/FloatingBaseSystem\lKinematics.cpp">
<polygon fill="none" stroke="#000000" points="409.5,-.5 409.5,-30.5 570.5,-30.5 570.5,-.5 409.5,-.5"/>
<text text-anchor="start" x="417.5" y="-18.5" font-family="Helvetica,sans-Serif" font-size="10.00" fill="#000000">System/src/FloatingBaseSystem</text>
<text text-anchor="middle" x="490" y="-7.5" font-family="Helvetica,sans-Serif" font-size="10.00" fill="#000000">Kinematics.cpp</text>
</a>
</g>
</g>
<!-- Node29&#45;&gt;Node30 -->
<g id="edge8" class="edge">
<title>Node29&#45;&gt;Node30</title>
<path fill="none" stroke="#191970" d="M490,-57.0249C490,-48.128 490,-38.4287 490,-30.6432"/>
<polygon fill="#191970" stroke="#191970" points="486.5001,-57.2966 490,-67.2967 493.5001,-57.2967 486.5001,-57.2966"/>
</g>
</g>
</svg>
