<?xml version="1.0" encoding="UTF-8" standalone="no"?>
<!DOCTYPE svg PUBLIC "-//W3C//DTD SVG 1.1//EN"
 "http://www.w3.org/Graphics/SVG/1.1/DTD/svg11.dtd">
<!-- Generated by graphviz version 2.40.1 (20161225.0304)
 -->
<!-- Title: System/include/BipedalLocomotion/System/ContactWrench.h Pages: 1 -->
<!--zoomable 363 -->
<svg id="main" version="1.1" xmlns="http://www.w3.org/2000/svg" xmlns:xlink="http://www.w3.org/1999/xlink" xml:space="preserve" onload="init(evt)">
<style type="text/css"><![CDATA[
.edge:hover path { stroke: red; }
.edge:hover polygon { stroke: red; fill: red; }
]]></style>
<script type="text/javascript"><![CDATA[
var edges = document.getElementsByTagName('g');
if (edges && edges.length) {
  for (var i=0;i<edges.length;i++) {
    if (edges[i].id.substr(0,4)=='edge') {
      edges[i].setAttribute('class','edge');
    }
  }
}
]]></script>
        <defs>
                <circle id="rim" cx="0" cy="0" r="7"/>
                <circle id="rim2" cx="0" cy="0" r="3.5"/>
                <g id="zoomPlus">
                        <use xlink:href="#rim" fill="#404040">
                                <set attributeName="fill" to="#808080" begin="zoomplus.mouseover" end="zoomplus.mouseout"/>
                        </use>
                        <path d="M-4,0h8M0,-4v8" fill="none" stroke="white" stroke-width="1.5" pointer-events="none"/>
                </g>
                <g id="zoomMin">
                        <use xlink:href="#rim" fill="#404040">
                                <set attributeName="fill" to="#808080" begin="zoomminus.mouseover" end="zoomminus.mouseout"/>
                        </use>
                        <path d="M-4,0h8" fill="none" stroke="white" stroke-width="1.5" pointer-events="none"/>
                </g>
                <g id="dirArrow">
                        <path fill="none" stroke="white" stroke-width="1.5" d="M0,-3.0v7 M-2.5,-0.5L0,-3.0L2.5,-0.5"/>
                </g>
               <g id="resetDef">
                       <use xlink:href="#rim2" fill="#404040">
                               <set attributeName="fill" to="#808080" begin="reset.mouseover" end="reset.mouseout"/>
                       </use>
               </g>
        </defs>

<script type="text/javascript">
var viewWidth = 1402;
var viewHeight = 363;
var sectionId = 'dynsection-0';
</script>
<script xlink:href="svgpan.js"/>
<svg id="graph" class="graph">
<g id="viewport">
<title>System/include/BipedalLocomotion/System/ContactWrench.h</title>
<!-- Node0 -->
<g id="node1" class="node">
<title>Node0</title>
<polygon fill="#bfbfbf" stroke="#000000" points="392,-324.5 392,-354.5 562,-354.5 562,-324.5 392,-324.5"/>
<text text-anchor="start" x="400" y="-342.5" font-family="Helvetica,sans-Serif" font-size="10.00" fill="#000000">System/include/BipedalLocomotion</text>
<text text-anchor="middle" x="477" y="-331.5" font-family="Helvetica,sans-Serif" font-size="10.00" fill="#000000">/System/ContactWrench.h</text>
</g>
<!-- Node1 -->
<g id="node2" class="node">
<title>Node1</title>
<polygon fill="none" stroke="#bfbfbf" points="66.5,-196 66.5,-215 191.5,-215 191.5,-196 66.5,-196"/>
<text text-anchor="middle" x="129" y="-203" font-family="Helvetica,sans-Serif" font-size="10.00" fill="#000000">iDynTree/Core/Wrench.h</text>
</g>
<!-- Node0&#45;&gt;Node1 -->
<g id="edge1" class="edge">
<title>Node0&#45;&gt;Node1</title>
<path fill="none" stroke="#191970" d="M437.7564,-324.389C369.1115,-297.9567 228.3682,-243.7625 163.3384,-218.7223"/>
<polygon fill="#191970" stroke="#191970" points="164.5319,-215.4314 153.9422,-215.1042 162.0165,-221.9638 164.5319,-215.4314"/>
</g>
<!-- Node2 -->
<g id="node3" class="node">
<title>Node2</title>
<polygon fill="none" stroke="#bfbfbf" points="413,-263 413,-282 541,-282 541,-263 413,-263"/>
<text text-anchor="middle" x="477" y="-270" font-family="Helvetica,sans-Serif" font-size="10.00" fill="#000000">iDynTree/Model/Indices.h</text>
</g>
<!-- Node0&#45;&gt;Node2 -->
<g id="edge2" class="edge">
<title>Node0&#45;&gt;Node2</title>
<path fill="none" stroke="#191970" d="M477,-324.2967C477,-314.7699 477,-302.3954 477,-292.1306"/>
<polygon fill="#191970" stroke="#191970" points="480.5001,-292.0549 477,-282.055 473.5001,-292.055 480.5001,-292.0549"/>
</g>
<!-- Node3 -->
<g id="node4" class="node">
<title>Node3</title>
<g id="a_node4"><a xlink:href="ContactModel_8h.html" target="_top" xlink:title="BipedalLocomotion/Contact\lModels/ContactModel.h">
<polygon fill="none" stroke="#000000" points="615.5,-257.5 615.5,-287.5 752.5,-287.5 752.5,-257.5 615.5,-257.5"/>
<text text-anchor="start" x="623.5" y="-275.5" font-family="Helvetica,sans-Serif" font-size="10.00" fill="#000000">BipedalLocomotion/Contact</text>
<text text-anchor="middle" x="684" y="-264.5" font-family="Helvetica,sans-Serif" font-size="10.00" fill="#000000">Models/ContactModel.h</text>
</a>
</g>
</g>
<!-- Node0&#45;&gt;Node3 -->
<g id="edge3" class="edge">
<title>Node0&#45;&gt;Node3</title>
<path fill="none" stroke="#191970" d="M523.4548,-324.4639C554.242,-314.499 594.8225,-301.3642 627.4811,-290.7936"/>
<polygon fill="#191970" stroke="#191970" points="628.9063,-294.0111 637.3425,-287.6017 626.7507,-287.3513 628.9063,-294.0111"/>
</g>
<!-- Node3&#45;&gt;Node1 -->
<g id="edge13" class="edge">
<title>Node3&#45;&gt;Node1</title>
<path fill="none" stroke="#191970" d="M615.1581,-264.3914C594.2384,-261.9666 571.1832,-259.3335 550,-257 397.2005,-240.1679 357.964,-244.1938 206,-221 198.5017,-219.8556 190.6265,-218.4767 182.8923,-217.0192"/>
<polygon fill="#191970" stroke="#191970" points="183.3332,-213.5396 172.8496,-215.0711 182.0001,-220.4115 183.3332,-213.5396"/>
</g>
<!-- Node4 -->
<g id="node5" class="node">
<title>Node4</title>
<polygon fill="none" stroke="#bfbfbf" points="1362,-196 1362,-215 1394,-215 1394,-196 1362,-196"/>
<text text-anchor="middle" x="1378" y="-203" font-family="Helvetica,sans-Serif" font-size="10.00" fill="#000000">any</text>
</g>
<!-- Node3&#45;&gt;Node4 -->
<g id="edge4" class="edge">
<title>Node3&#45;&gt;Node4</title>
<path fill="none" stroke="#191970" d="M752.7416,-270.6249C899.1992,-266.0684 1237.6224,-252.3991 1348,-221 1349.6669,-220.5258 1351.349,-219.9544 1353.0203,-219.3146"/>
<polygon fill="#191970" stroke="#191970" points="1354.639,-222.4237 1362.2975,-215.1026 1351.745,-216.0498 1354.639,-222.4237"/>
</g>
<!-- Node5 -->
<g id="node6" class="node">
<title>Node5</title>
<polygon fill="none" stroke="#bfbfbf" points="552,-62 552,-81 604,-81 604,-62 552,-62"/>
<text text-anchor="middle" x="578" y="-69" font-family="Helvetica,sans-Serif" font-size="10.00" fill="#000000">memory</text>
</g>
<!-- Node3&#45;&gt;Node5 -->
<g id="edge5" class="edge">
<title>Node3&#45;&gt;Node5</title>
<path fill="none" stroke="#191970" d="M752.6866,-269.3728C912.2986,-261.7744 1296.1442,-241.4574 1315,-221 1324.3377,-210.8691 1323.9357,-200.4872 1315,-190 1268.7177,-135.6817 756.4887,-87.1104 614.3737,-74.6077"/>
<polygon fill="#191970" stroke="#191970" points="614.3016,-71.0881 604.0349,-73.7045 613.6923,-78.0616 614.3016,-71.0881"/>
</g>
<!-- Node6 -->
<g id="node7" class="node">
<title>Node6</title>
<polygon fill="none" stroke="#bfbfbf" points="199.5,-129 199.5,-148 240.5,-148 240.5,-129 199.5,-129"/>
<text text-anchor="middle" x="220" y="-136" font-family="Helvetica,sans-Serif" font-size="10.00" fill="#000000">string</text>
</g>
<!-- Node3&#45;&gt;Node6 -->
<g id="edge6" class="edge">
<title>Node3&#45;&gt;Node6</title>
<path fill="none" stroke="#191970" d="M615.444,-264.566C490.6179,-250.1198 239,-221 239,-221 221.5919,-205.4266 218.4749,-177.3961 218.6144,-158.376"/>
<polygon fill="#191970" stroke="#191970" points="222.1212,-158.2615 219.0062,-148.135 215.1263,-157.9939 222.1212,-158.2615"/>
</g>
<!-- Node7 -->
<g id="node8" class="node">
<title>Node7</title>
<polygon fill="none" stroke="#bfbfbf" points="418.5,-196 418.5,-215 501.5,-215 501.5,-196 418.5,-196"/>
<text text-anchor="middle" x="460" y="-203" font-family="Helvetica,sans-Serif" font-size="10.00" fill="#000000">unordered_map</text>
</g>
<!-- Node3&#45;&gt;Node7 -->
<g id="edge7" class="edge">
<title>Node3&#45;&gt;Node7</title>
<path fill="none" stroke="#191970" d="M633.2587,-257.4779C598.7675,-247.2464 552.1124,-233.3667 511,-221 507.71,-220.0104 504.3017,-218.9818 500.8786,-217.9464"/>
<polygon fill="#191970" stroke="#191970" points="501.8634,-214.5877 491.2781,-215.0369 499.8332,-221.2869 501.8634,-214.5877"/>
</g>
<!-- Node8 -->
<g id="node9" class="node">
<title>Node8</title>
<polygon fill="none" stroke="#bfbfbf" points="520,-196 520,-215 676,-215 676,-196 520,-196"/>
<text text-anchor="middle" x="598" y="-203" font-family="Helvetica,sans-Serif" font-size="10.00" fill="#000000">iDynTree/Core/MatrixDynSize.h</text>
</g>
<!-- Node3&#45;&gt;Node8 -->
<g id="edge8" class="edge">
<title>Node3&#45;&gt;Node8</title>
<path fill="none" stroke="#191970" d="M664.4853,-257.2967C650.6958,-246.5537 632.2582,-232.1895 618.2972,-221.3129"/>
<polygon fill="#191970" stroke="#191970" points="620.3042,-218.4398 610.2646,-215.055 616.0022,-223.9618 620.3042,-218.4398"/>
</g>
<!-- Node9 -->
<g id="node10" class="node">
<title>Node9</title>
<polygon fill="none" stroke="#bfbfbf" points="694,-196 694,-215 846,-215 846,-196 694,-196"/>
<text text-anchor="middle" x="770" y="-203" font-family="Helvetica,sans-Serif" font-size="10.00" fill="#000000">iDynTree/Core/MatrixFixSize.h</text>
</g>
<!-- Node3&#45;&gt;Node9 -->
<g id="edge9" class="edge">
<title>Node3&#45;&gt;Node9</title>
<path fill="none" stroke="#191970" d="M703.5147,-257.2967C717.3042,-246.5537 735.7418,-232.1895 749.7028,-221.3129"/>
<polygon fill="#191970" stroke="#191970" points="751.9978,-223.9618 757.7354,-215.055 747.6958,-218.4398 751.9978,-223.9618"/>
</g>
<!-- Node10 -->
<g id="node11" class="node">
<title>Node10</title>
<polygon fill="none" stroke="#bfbfbf" points="864,-196 864,-215 1000,-215 1000,-196 864,-196"/>
<text text-anchor="middle" x="932" y="-203" font-family="Helvetica,sans-Serif" font-size="10.00" fill="#000000">iDynTree/Core/Transform.h</text>
</g>
<!-- Node3&#45;&gt;Node10 -->
<g id="edge10" class="edge">
<title>Node3&#45;&gt;Node10</title>
<path fill="none" stroke="#191970" d="M739.656,-257.4639C784.117,-245.4522 845.6258,-228.835 887.0107,-217.6544"/>
<polygon fill="#191970" stroke="#191970" points="888.0752,-220.9923 896.8163,-215.0053 886.2495,-214.2346 888.0752,-220.9923"/>
</g>
<!-- Node11 -->
<g id="node12" class="node">
<title>Node11</title>
<polygon fill="none" stroke="#bfbfbf" points="1018,-196 1018,-215 1134,-215 1134,-196 1018,-196"/>
<text text-anchor="middle" x="1076" y="-203" font-family="Helvetica,sans-Serif" font-size="10.00" fill="#000000">iDynTree/Core/Twist.h</text>
</g>
<!-- Node3&#45;&gt;Node11 -->
<g id="edge11" class="edge">
<title>Node3&#45;&gt;Node11</title>
<path fill="none" stroke="#191970" d="M752.7217,-263.0398C818.6711,-253.6242 920.962,-238.1369 1009,-221 1014.7809,-219.8747 1020.8215,-218.6076 1026.8073,-217.2951"/>
<polygon fill="#191970" stroke="#191970" points="1027.7815,-220.6637 1036.7734,-215.0604 1026.2499,-213.8333 1027.7815,-220.6637"/>
</g>
<!-- Node12 -->
<g id="node13" class="node">
<title>Node12</title>
<polygon fill="none" stroke="#bfbfbf" points="1152.5,-196 1152.5,-215 1305.5,-215 1305.5,-196 1152.5,-196"/>
<text text-anchor="middle" x="1229" y="-203" font-family="Helvetica,sans-Serif" font-size="10.00" fill="#000000">iDynTree/Core/VectorFixSize.h</text>
</g>
<!-- Node3&#45;&gt;Node12 -->
<g id="edge12" class="edge">
<title>Node3&#45;&gt;Node12</title>
<path fill="none" stroke="#191970" d="M752.6157,-266.2398C842.5077,-257.7093 1004.9384,-241.164 1143,-221 1151.416,-219.7708 1160.2703,-218.3367 1168.9674,-216.8462"/>
<polygon fill="#191970" stroke="#191970" points="1169.8215,-220.2501 1179.069,-215.0797 1168.6156,-213.3547 1169.8215,-220.2501"/>
</g>
<!-- Node13 -->
<g id="node14" class="node">
<title>Node13</title>
<g id="a_node14"><a xlink:href="IParametersHandler_8h.html" target="_top" xlink:title="BipedalLocomotion/Parameters\lHandler/IParametersHandler.h">
<polygon fill="none" stroke="#000000" points="248,-190.5 248,-220.5 400,-220.5 400,-190.5 248,-190.5"/>
<text text-anchor="start" x="256" y="-208.5" font-family="Helvetica,sans-Serif" font-size="10.00" fill="#000000">BipedalLocomotion/Parameters</text>
<text text-anchor="middle" x="324" y="-197.5" font-family="Helvetica,sans-Serif" font-size="10.00" fill="#000000">Handler/IParametersHandler.h</text>
</a>
</g>
</g>
<!-- Node3&#45;&gt;Node13 -->
<g id="edge14" class="edge">
<title>Node3&#45;&gt;Node13</title>
<path fill="none" stroke="#191970" d="M615.4394,-259.7401C557.0552,-248.8742 472.8829,-233.2088 409.9932,-221.5043"/>
<polygon fill="#191970" stroke="#191970" points="410.5614,-218.05 400.0897,-219.6611 409.2805,-224.9318 410.5614,-218.05"/>
</g>
<!-- Node13&#45;&gt;Node5 -->
<g id="edge15" class="edge">
<title>Node13&#45;&gt;Node5</title>
<path fill="none" stroke="#191970" d="M365.784,-190.496C388.998,-181.3756 417.9589,-168.6706 442,-154 460.6053,-142.6465 461.8173,-135.0188 480,-123 501.771,-108.6093 528.0169,-94.9962 547.866,-85.3842"/>
<polygon fill="#191970" stroke="#191970" points="549.5317,-88.4674 557.0487,-81.0011 546.5163,-82.1502 549.5317,-88.4674"/>
</g>
<!-- Node13&#45;&gt;Node6 -->
<g id="edge16" class="edge">
<title>Node13&#45;&gt;Node6</title>
<path fill="none" stroke="#191970" d="M300.6604,-190.4639C283.6821,-179.526 260.7758,-164.769 243.7118,-153.7759"/>
<polygon fill="#191970" stroke="#191970" points="245.2096,-150.5774 234.9076,-148.1039 241.4186,-156.462 245.2096,-150.5774"/>
</g>
<!-- Node14 -->
<g id="node15" class="node">
<title>Node14</title>
<polygon fill="none" stroke="#bfbfbf" points="489,-129 489,-148 533,-148 533,-129 489,-129"/>
<text text-anchor="middle" x="511" y="-136" font-family="Helvetica,sans-Serif" font-size="10.00" fill="#000000">vector</text>
</g>
<!-- Node13&#45;&gt;Node14 -->
<g id="edge17" class="edge">
<title>Node13&#45;&gt;Node14</title>
<path fill="none" stroke="#191970" d="M371.2706,-190.4273C401.2091,-180.6231 440.623,-167.2398 475,-154 476.6153,-153.3779 478.265,-152.7264 479.9264,-152.0574"/>
<polygon fill="#191970" stroke="#191970" points="481.5171,-155.1867 489.4102,-148.1192 478.8326,-148.7219 481.5171,-155.1867"/>
</g>
<!-- Node15 -->
<g id="node16" class="node">
<title>Node15</title>
<g id="a_node16"><a xlink:href="Vector_8h_source.html" target="_top" xlink:title="BipedalLocomotion/Generic\lContainer/Vector.h">
<polygon fill="none" stroke="#000000" points="297,-123.5 297,-153.5 433,-153.5 433,-123.5 297,-123.5"/>
<text text-anchor="start" x="305" y="-141.5" font-family="Helvetica,sans-Serif" font-size="10.00" fill="#000000">BipedalLocomotion/Generic</text>
<text text-anchor="middle" x="365" y="-130.5" font-family="Helvetica,sans-Serif" font-size="10.00" fill="#000000">Container/Vector.h</text>
</a>
</g>
</g>
<!-- Node13&#45;&gt;Node15 -->
<g id="edge18" class="edge">
<title>Node13&#45;&gt;Node15</title>
<path fill="none" stroke="#191970" d="M333.3035,-190.2967C338.336,-182.0729 344.6669,-171.7272 350.345,-162.4483"/>
<polygon fill="#191970" stroke="#191970" points="353.499,-163.9997 355.7333,-153.6432 347.5282,-160.346 353.499,-163.9997"/>
</g>
<!-- Node17 -->
<g id="node18" class="node">
<title>Node17</title>
<g id="a_node18"><a xlink:href="TemplateHelpers_8h_source.html" target="_top" xlink:title="BipedalLocomotion/Generic\lContainer/TemplateHelpers.h">
<polygon fill="none" stroke="#000000" points="41,-56.5 41,-86.5 185,-86.5 185,-56.5 41,-56.5"/>
<text text-anchor="start" x="49" y="-74.5" font-family="Helvetica,sans-Serif" font-size="10.00" fill="#000000">BipedalLocomotion/Generic</text>
<text text-anchor="middle" x="113" y="-63.5" font-family="Helvetica,sans-Serif" font-size="10.00" fill="#000000">Container/TemplateHelpers.h</text>
</a>
</g>
</g>
<!-- Node13&#45;&gt;Node17 -->
<g id="edge28" class="edge">
<title>Node13&#45;&gt;Node17</title>
<path fill="none" stroke="#191970" d="M313.9265,-190.3949C301.0546,-172.1397 277.1618,-141.567 250,-123 229.2589,-108.822 204.1027,-97.9135 181.0358,-89.8639"/>
<polygon fill="#191970" stroke="#191970" points="181.891,-86.4589 171.2969,-86.5879 179.6592,-93.0936 181.891,-86.4589"/>
</g>
<!-- Node15&#45;&gt;Node5 -->
<g id="edge27" class="edge">
<title>Node15&#45;&gt;Node5</title>
<path fill="none" stroke="#191970" d="M424.5735,-123.428C459.4605,-114.067 504.1571,-101.1465 543,-87 544.6313,-86.4059 546.2942,-85.7716 547.9652,-85.1115"/>
<polygon fill="#191970" stroke="#191970" points="549.5801,-88.2302 557.4612,-81.1494 546.8846,-81.77 549.5801,-88.2302"/>
</g>
<!-- Node16 -->
<g id="node17" class="node">
<title>Node16</title>
<polygon fill="none" stroke="#bfbfbf" points="203,-62 203,-81 317,-81 317,-62 203,-62"/>
<text text-anchor="middle" x="260" y="-69" font-family="Helvetica,sans-Serif" font-size="10.00" fill="#000000">iDynTree/Core/Span.h</text>
</g>
<!-- Node15&#45;&gt;Node16 -->
<g id="edge19" class="edge">
<title>Node15&#45;&gt;Node16</title>
<path fill="none" stroke="#191970" d="M341.436,-123.4639C324.2944,-112.526 301.1679,-97.769 283.9398,-86.7759"/>
<polygon fill="#191970" stroke="#191970" points="285.3636,-83.5326 275.0509,-81.1039 281.5982,-89.4336 285.3636,-83.5326"/>
</g>
<!-- Node15&#45;&gt;Node17 -->
<g id="edge20" class="edge">
<title>Node15&#45;&gt;Node17</title>
<path fill="none" stroke="#191970" d="M308.4463,-123.4639C270.2393,-113.3057 219.643,-99.8535 179.5032,-89.1814"/>
<polygon fill="#191970" stroke="#191970" points="180.364,-85.7887 169.8004,-86.6017 178.5653,-92.5537 180.364,-85.7887"/>
</g>
<!-- Node21 -->
<g id="node22" class="node">
<title>Node21</title>
<polygon fill="none" stroke="#bfbfbf" points="335.5,-62 335.5,-81 394.5,-81 394.5,-62 335.5,-62"/>
<text text-anchor="middle" x="365" y="-69" font-family="Helvetica,sans-Serif" font-size="10.00" fill="#000000">functional</text>
</g>
<!-- Node15&#45;&gt;Node21 -->
<g id="edge24" class="edge">
<title>Node15&#45;&gt;Node21</title>
<path fill="none" stroke="#191970" d="M365,-123.2967C365,-113.7699 365,-101.3954 365,-91.1306"/>
<polygon fill="#191970" stroke="#191970" points="368.5001,-91.0549 365,-81.055 361.5001,-91.055 368.5001,-91.0549"/>
</g>
<!-- Node22 -->
<g id="node23" class="node">
<title>Node22</title>
<polygon fill="none" stroke="#bfbfbf" points="412.5,-62 412.5,-81 461.5,-81 461.5,-62 412.5,-62"/>
<text text-anchor="middle" x="437" y="-69" font-family="Helvetica,sans-Serif" font-size="10.00" fill="#000000">cassert</text>
</g>
<!-- Node15&#45;&gt;Node22 -->
<g id="edge25" class="edge">
<title>Node15&#45;&gt;Node22</title>
<path fill="none" stroke="#191970" d="M381.3379,-123.2967C392.6648,-112.7564 407.7376,-98.7303 419.3414,-87.9323"/>
<polygon fill="#191970" stroke="#191970" points="421.7956,-90.4296 426.732,-81.055 417.0269,-85.3051 421.7956,-90.4296"/>
</g>
<!-- Node23 -->
<g id="node24" class="node">
<title>Node23</title>
<polygon fill="none" stroke="#bfbfbf" points="480,-62 480,-81 534,-81 534,-62 480,-62"/>
<text text-anchor="middle" x="507" y="-69" font-family="Helvetica,sans-Serif" font-size="10.00" fill="#000000">iostream</text>
</g>
<!-- Node15&#45;&gt;Node23 -->
<g id="edge26" class="edge">
<title>Node15&#45;&gt;Node23</title>
<path fill="none" stroke="#191970" d="M396.8676,-123.4639C421.0153,-112.0702 453.9457,-96.5327 477.4939,-85.4219"/>
<polygon fill="#191970" stroke="#191970" points="479.0951,-88.5365 486.6454,-81.1039 476.108,-82.2058 479.0951,-88.5365"/>
</g>
<!-- Node18 -->
<g id="node19" class="node">
<title>Node18</title>
<polygon fill="none" stroke="#bfbfbf" points="0,-.5 0,-19.5 62,-19.5 62,-.5 0,-.5"/>
<text text-anchor="middle" x="31" y="-7.5" font-family="Helvetica,sans-Serif" font-size="10.00" fill="#000000">type_traits</text>
</g>
<!-- Node17&#45;&gt;Node18 -->
<g id="edge21" class="edge">
<title>Node17&#45;&gt;Node18</title>
<path fill="none" stroke="#191970" d="M92.7303,-56.2977C80.3994,-47.0495 64.6734,-35.2551 52.1803,-25.8853"/>
<polygon fill="#191970" stroke="#191970" points="54.2293,-23.047 44.1292,-19.8469 50.0292,-28.647 54.2293,-23.047"/>
</g>
<!-- Node19 -->
<g id="node20" class="node">
<title>Node19</title>
<polygon fill="none" stroke="#bfbfbf" points="80,-.5 80,-19.5 146,-19.5 146,-.5 80,-.5"/>
<text text-anchor="middle" x="113" y="-7.5" font-family="Helvetica,sans-Serif" font-size="10.00" fill="#000000">string_view</text>
</g>
<!-- Node17&#45;&gt;Node19 -->
<g id="edge22" class="edge">
<title>Node17&#45;&gt;Node19</title>
<path fill="none" stroke="#191970" d="M113,-56.2977C113,-48.3834 113,-38.6043 113,-30.0759"/>
<polygon fill="#191970" stroke="#191970" points="116.5001,-29.8469 113,-19.8469 109.5001,-29.847 116.5001,-29.8469"/>
</g>
<!-- Node20 -->
<g id="node21" class="node">
<title>Node20</title>
<polygon fill="none" stroke="#bfbfbf" points="164.5,-.5 164.5,-19.5 229.5,-19.5 229.5,-.5 164.5,-.5"/>
<text text-anchor="middle" x="197" y="-7.5" font-family="Helvetica,sans-Serif" font-size="10.00" fill="#000000">Eigen/Core</text>
</g>
<!-- Node17&#45;&gt;Node20 -->
<g id="edge23" class="edge">
<title>Node17&#45;&gt;Node20</title>
<path fill="none" stroke="#191970" d="M133.7641,-56.2977C146.3958,-47.0495 162.5053,-35.2551 175.3031,-25.8853"/>
<polygon fill="#191970" stroke="#191970" points="177.5495,-28.5784 183.5505,-19.8469 173.4143,-22.9303 177.5495,-28.5784"/>
</g>
</g>
</svg>
        <g id="navigator" transform="translate(0 0)" fill="#404254">
                <rect fill="#f2f5e9" fill-opacity="0.5" stroke="#606060" stroke-width=".5" x="0" y="0" width="60" height="60"/>
                <use id="zoomplus" xlink:href="#zoomPlus" x="17" y="9" onmousedown="handleZoom(evt,'in')"/>
                <use id="zoomminus" xlink:href="#zoomMin" x="42" y="9" onmousedown="handleZoom(evt,'out')"/>
                <use id="reset" xlink:href="#resetDef" x="30" y="36" onmousedown="handleReset()"/>
                <g id="arrowUp" xlink:href="#dirArrow" transform="translate(30 24)" onmousedown="handlePan(0,-1)">
                  <use xlink:href="#rim" fill="#404040">
                        <set attributeName="fill" to="#808080" begin="arrowUp.mouseover" end="arrowUp.mouseout"/>
                  </use>
                  <path fill="none" stroke="white" stroke-width="1.5" d="M0,-3.0v7 M-2.5,-0.5L0,-3.0L2.5,-0.5"/>
                </g>
                <g id="arrowRight" xlink:href="#dirArrow" transform="rotate(90) translate(36 -43)" onmousedown="handlePan(1,0)">
                  <use xlink:href="#rim" fill="#404040">
                        <set attributeName="fill" to="#808080" begin="arrowRight.mouseover" end="arrowRight.mouseout"/>
                  </use>
                  <path fill="none" stroke="white" stroke-width="1.5" d="M0,-3.0v7 M-2.5,-0.5L0,-3.0L2.5,-0.5"/>
                </g>
                <g id="arrowDown" xlink:href="#dirArrow" transform="rotate(180) translate(-30 -48)" onmousedown="handlePan(0,1)">
                  <use xlink:href="#rim" fill="#404040">
                        <set attributeName="fill" to="#808080" begin="arrowDown.mouseover" end="arrowDown.mouseout"/>
                  </use>
                  <path fill="none" stroke="white" stroke-width="1.5" d="M0,-3.0v7 M-2.5,-0.5L0,-3.0L2.5,-0.5"/>
                </g>
                <g id="arrowLeft" xlink:href="#dirArrow" transform="rotate(270) translate(-36 17)" onmousedown="handlePan(-1,0)">
                  <use xlink:href="#rim" fill="#404040">
                        <set attributeName="fill" to="#808080" begin="arrowLeft.mouseover" end="arrowLeft.mouseout"/>
                  </use>
                  <path fill="none" stroke="white" stroke-width="1.5" d="M0,-3.0v7 M-2.5,-0.5L0,-3.0L2.5,-0.5"/>
                </g>
        </g>
        <svg viewBox="0 0 15 15" width="100%" height="30px" preserveAspectRatio="xMaxYMin meet">
         <g id="arrow_out" transform="scale(0.3 0.3)">
          <a xlink:href="ContactWrench_8h__incl_org.svg" target="_base">
           <rect id="button" ry="5" rx="5" y="6" x="6" height="38" width="38"
                fill="#f2f5e9" fill-opacity="0.5" stroke="#606060" stroke-width="1.0"/>
           <path id="arrow"
             d="M 11.500037,31.436501 C 11.940474,20.09759 22.043105,11.32322 32.158766,21.979434 L 37.068811,17.246167 C 37.068811,17.246167 37.088388,32 37.088388,32 L 22.160133,31.978069 C 22.160133,31.978069 26.997745,27.140456 26.997745,27.140456 C 18.528582,18.264221 13.291696,25.230495 11.500037,31.436501 z"
             style="fill:#404040;"/>
          </a>
         </g>
        </svg>
</svg>
