<?xml version="1.0" encoding="UTF-8" standalone="no"?>
<!DOCTYPE svg PUBLIC "-//W3C//DTD SVG 1.1//EN"
 "http://www.w3.org/Graphics/SVG/1.1/DTD/svg11.dtd">
<!-- Generated by graphviz version 2.40.1 (20161225.0304)
 -->
<!-- Title: ContactModels/include/BipedalLocomotion/ContactModels/ContinuousContactModel.h Pages: 1 -->
<!--zoomable 374 -->
<svg id="main" version="1.1" xmlns="http://www.w3.org/2000/svg" xmlns:xlink="http://www.w3.org/1999/xlink" xml:space="preserve" onload="init(evt)">
<style type="text/css"><![CDATA[
.edge:hover path { stroke: red; }
.edge:hover polygon { stroke: red; fill: red; }
]]></style>
<script type="text/javascript"><![CDATA[
var edges = document.getElementsByTagName('g');
if (edges && edges.length) {
  for (var i=0;i<edges.length;i++) {
    if (edges[i].id.substr(0,4)=='edge') {
      edges[i].setAttribute('class','edge');
    }
  }
}
]]></script>
        <defs>
                <circle id="rim" cx="0" cy="0" r="7"/>
                <circle id="rim2" cx="0" cy="0" r="3.5"/>
                <g id="zoomPlus">
                        <use xlink:href="#rim" fill="#404040">
                                <set attributeName="fill" to="#808080" begin="zoomplus.mouseover" end="zoomplus.mouseout"/>
                        </use>
                        <path d="M-4,0h8M0,-4v8" fill="none" stroke="white" stroke-width="1.5" pointer-events="none"/>
                </g>
                <g id="zoomMin">
                        <use xlink:href="#rim" fill="#404040">
                                <set attributeName="fill" to="#808080" begin="zoomminus.mouseover" end="zoomminus.mouseout"/>
                        </use>
                        <path d="M-4,0h8" fill="none" stroke="white" stroke-width="1.5" pointer-events="none"/>
                </g>
                <g id="dirArrow">
                        <path fill="none" stroke="white" stroke-width="1.5" d="M0,-3.0v7 M-2.5,-0.5L0,-3.0L2.5,-0.5"/>
                </g>
               <g id="resetDef">
                       <use xlink:href="#rim2" fill="#404040">
                               <set attributeName="fill" to="#808080" begin="reset.mouseover" end="reset.mouseout"/>
                       </use>
               </g>
        </defs>

<script type="text/javascript">
var viewWidth = 1442;
var viewHeight = 374;
var sectionId = 'dynsection-0';
</script>
<script xlink:href="svgpan.js"/>
<svg id="graph" class="graph">
<g id="viewport">
<title>ContactModels/include/BipedalLocomotion/ContactModels/ContinuousContactModel.h</title>
<!-- Node0 -->
<g id="node1" class="node">
<title>Node0</title>
<polygon fill="#bfbfbf" stroke="#000000" points="265.5,-324.5 265.5,-365.5 436.5,-365.5 436.5,-324.5 265.5,-324.5"/>
<text text-anchor="start" x="273.5" y="-353.5" font-family="Helvetica,sans-Serif" font-size="10.00" fill="#000000">ContactModels/include</text>
<text text-anchor="start" x="273.5" y="-342.5" font-family="Helvetica,sans-Serif" font-size="10.00" fill="#000000">/BipedalLocomotion/ContactModels</text>
<text text-anchor="middle" x="351" y="-331.5" font-family="Helvetica,sans-Serif" font-size="10.00" fill="#000000">/ContinuousContactModel.h</text>
</g>
<!-- Node1 -->
<g id="node2" class="node">
<title>Node1</title>
<polygon fill="none" stroke="#bfbfbf" points="0,-196 0,-215 136,-215 136,-196 0,-196"/>
<text text-anchor="middle" x="68" y="-203" font-family="Helvetica,sans-Serif" font-size="10.00" fill="#000000">iDynTree/Core/Transform.h</text>
</g>
<!-- Node0&#45;&gt;Node1 -->
<g id="edge1" class="edge">
<title>Node0&#45;&gt;Node1</title>
<path fill="none" stroke="#191970" d="M309.2424,-324.4163C250.8874,-295.6512 146.4837,-244.1872 96.3684,-219.4837"/>
<polygon fill="#191970" stroke="#191970" points="97.8991,-216.3362 87.3821,-215.0541 94.8041,-222.6148 97.8991,-216.3362"/>
</g>
<!-- Node2 -->
<g id="node3" class="node">
<title>Node2</title>
<polygon fill="none" stroke="#bfbfbf" points="154,-196 154,-215 270,-215 270,-196 154,-196"/>
<text text-anchor="middle" x="212" y="-203" font-family="Helvetica,sans-Serif" font-size="10.00" fill="#000000">iDynTree/Core/Twist.h</text>
</g>
<!-- Node0&#45;&gt;Node2 -->
<g id="edge2" class="edge">
<title>Node0&#45;&gt;Node2</title>
<path fill="none" stroke="#191970" d="M330.4901,-324.4163C302.8411,-296.6678 254.145,-247.7966 228.6412,-222.2011"/>
<polygon fill="#191970" stroke="#191970" points="231.0575,-219.6674 221.5198,-215.0541 226.0989,-224.6083 231.0575,-219.6674"/>
</g>
<!-- Node3 -->
<g id="node4" class="node">
<title>Node3</title>
<polygon fill="none" stroke="#bfbfbf" points="288.5,-196 288.5,-215 413.5,-215 413.5,-196 288.5,-196"/>
<text text-anchor="middle" x="351" y="-203" font-family="Helvetica,sans-Serif" font-size="10.00" fill="#000000">iDynTree/Core/Wrench.h</text>
</g>
<!-- Node0&#45;&gt;Node3 -->
<g id="edge3" class="edge">
<title>Node0&#45;&gt;Node3</title>
<path fill="none" stroke="#191970" d="M351,-324.4163C351,-297.7443 351,-251.5566 351,-225.2824"/>
<polygon fill="#191970" stroke="#191970" points="354.5001,-225.054 351,-215.0541 347.5001,-225.0541 354.5001,-225.054"/>
</g>
<!-- Node4 -->
<g id="node5" class="node">
<title>Node4</title>
<g id="a_node5"><a xlink:href="ContactModel_8h.html" target="_top" xlink:title="BipedalLocomotion/Contact\lModels/ContactModel.h">
<polygon fill="none" stroke="#000000" points="442.5,-257.5 442.5,-287.5 579.5,-287.5 579.5,-257.5 442.5,-257.5"/>
<text text-anchor="start" x="450.5" y="-275.5" font-family="Helvetica,sans-Serif" font-size="10.00" fill="#000000">BipedalLocomotion/Contact</text>
<text text-anchor="middle" x="511" y="-264.5" font-family="Helvetica,sans-Serif" font-size="10.00" fill="#000000">Models/ContactModel.h</text>
</a>
</g>
</g>
<!-- Node0&#45;&gt;Node4 -->
<g id="edge4" class="edge">
<title>Node0&#45;&gt;Node4</title>
<path fill="none" stroke="#191970" d="M396.4216,-324.4183C419.0568,-314.1617 446.2653,-301.8329 468.4873,-291.7636"/>
<polygon fill="#191970" stroke="#191970" points="470.0139,-294.9145 477.6778,-287.5991 467.1247,-288.5385 470.0139,-294.9145"/>
</g>
<!-- Node12 -->
<g id="node13" class="node">
<title>Node12</title>
<g id="a_node13"><a xlink:href="IParametersHandler_8h.html" target="_top" xlink:title="BipedalLocomotion/Parameters\lHandler/IParametersHandler.h">
<polygon fill="none" stroke="#000000" points="1176,-190.5 1176,-220.5 1328,-220.5 1328,-190.5 1176,-190.5"/>
<text text-anchor="start" x="1184" y="-208.5" font-family="Helvetica,sans-Serif" font-size="10.00" fill="#000000">BipedalLocomotion/Parameters</text>
<text text-anchor="middle" x="1252" y="-197.5" font-family="Helvetica,sans-Serif" font-size="10.00" fill="#000000">Handler/IParametersHandler.h</text>
</a>
</g>
</g>
<!-- Node0&#45;&gt;Node12 -->
<g id="edge30" class="edge">
<title>Node0&#45;&gt;Node12</title>
<path fill="none" stroke="#191970" d="M436.7788,-332.7362C583.641,-311.5655 892.9025,-266.2274 1165.4974,-221.0585"/>
<polygon fill="#191970" stroke="#191970" points="1166.2943,-224.4742 1175.5863,-219.3841 1165.1481,-217.5687 1166.2943,-224.4742"/>
</g>
<!-- Node4&#45;&gt;Node1 -->
<g id="edge11" class="edge">
<title>Node4&#45;&gt;Node1</title>
<path fill="none" stroke="#191970" d="M442.3459,-264.0653C368.6571,-254.7261 248.2574,-238.6418 145,-221 137.8844,-219.7843 130.4191,-218.4086 123.0529,-216.991"/>
<polygon fill="#191970" stroke="#191970" points="123.5981,-213.5314 113.1117,-215.0431 122.2521,-220.4007 123.5981,-213.5314"/>
</g>
<!-- Node4&#45;&gt;Node2 -->
<g id="edge12" class="edge">
<title>Node4&#45;&gt;Node2</title>
<path fill="none" stroke="#191970" d="M442.4416,-257.4491C396.2359,-247.2641 333.9243,-233.449 279,-221 273.7603,-219.8124 268.2924,-218.5633 262.8385,-217.3112"/>
<polygon fill="#191970" stroke="#191970" points="263.6192,-213.8994 253.0889,-215.0665 262.0486,-220.721 263.6192,-213.8994"/>
</g>
<!-- Node4&#45;&gt;Node3 -->
<g id="edge14" class="edge">
<title>Node4&#45;&gt;Node3</title>
<path fill="none" stroke="#191970" d="M475.0929,-257.4639C447.5214,-245.9183 409.7883,-230.1176 383.1906,-218.9798"/>
<polygon fill="#191970" stroke="#191970" points="384.5106,-215.7381 373.9347,-215.1039 381.8068,-222.1949 384.5106,-215.7381"/>
</g>
<!-- Node5 -->
<g id="node6" class="node">
<title>Node5</title>
<polygon fill="none" stroke="#bfbfbf" points="432,-196 432,-215 464,-215 464,-196 432,-196"/>
<text text-anchor="middle" x="448" y="-203" font-family="Helvetica,sans-Serif" font-size="10.00" fill="#000000">any</text>
</g>
<!-- Node4&#45;&gt;Node5 -->
<g id="edge5" class="edge">
<title>Node4&#45;&gt;Node5</title>
<path fill="none" stroke="#191970" d="M496.7043,-257.2967C486.9839,-246.9591 474.1106,-233.2684 464.0403,-222.5588"/>
<polygon fill="#191970" stroke="#191970" points="466.3846,-219.9426 456.9845,-215.055 461.285,-224.7378 466.3846,-219.9426"/>
</g>
<!-- Node6 -->
<g id="node7" class="node">
<title>Node6</title>
<polygon fill="none" stroke="#bfbfbf" points="826,-62 826,-81 878,-81 878,-62 826,-62"/>
<text text-anchor="middle" x="852" y="-69" font-family="Helvetica,sans-Serif" font-size="10.00" fill="#000000">memory</text>
</g>
<!-- Node4&#45;&gt;Node6 -->
<g id="edge6" class="edge">
<title>Node4&#45;&gt;Node6</title>
<path fill="none" stroke="#191970" d="M509.9773,-257.432C509.5327,-239.7653 511.2201,-210.32 525,-190 557.1286,-142.6229 582.0558,-144.7659 635,-123 696.0032,-97.921 771.9025,-83.415 815.864,-76.5155"/>
<polygon fill="#191970" stroke="#191970" points="816.4388,-79.9684 825.7971,-75.0012 815.3838,-73.0483 816.4388,-79.9684"/>
</g>
<!-- Node7 -->
<g id="node8" class="node">
<title>Node7</title>
<polygon fill="none" stroke="#bfbfbf" points="644.5,-129 644.5,-148 685.5,-148 685.5,-129 644.5,-129"/>
<text text-anchor="middle" x="665" y="-136" font-family="Helvetica,sans-Serif" font-size="10.00" fill="#000000">string</text>
</g>
<!-- Node4&#45;&gt;Node7 -->
<g id="edge7" class="edge">
<title>Node4&#45;&gt;Node7</title>
<path fill="none" stroke="#191970" d="M514.5221,-257.1974C519.4191,-239.0285 529.9136,-208.8245 549,-190 572.7157,-166.6096 608.8726,-152.8855 634.5074,-145.5679"/>
<polygon fill="#191970" stroke="#191970" points="635.6937,-148.8735 644.4438,-142.8997 633.8783,-142.113 635.6937,-148.8735"/>
</g>
<!-- Node8 -->
<g id="node9" class="node">
<title>Node8</title>
<polygon fill="none" stroke="#bfbfbf" points="558.5,-196 558.5,-215 641.5,-215 641.5,-196 558.5,-196"/>
<text text-anchor="middle" x="600" y="-203" font-family="Helvetica,sans-Serif" font-size="10.00" fill="#000000">unordered_map</text>
</g>
<!-- Node4&#45;&gt;Node8 -->
<g id="edge8" class="edge">
<title>Node4&#45;&gt;Node8</title>
<path fill="none" stroke="#191970" d="M531.1955,-257.2967C545.466,-246.5537 564.5468,-232.1895 578.9948,-221.3129"/>
<polygon fill="#191970" stroke="#191970" points="581.4234,-223.8656 587.3076,-215.055 577.2133,-218.2731 581.4234,-223.8656"/>
</g>
<!-- Node9 -->
<g id="node10" class="node">
<title>Node9</title>
<polygon fill="none" stroke="#bfbfbf" points="660,-196 660,-215 816,-215 816,-196 660,-196"/>
<text text-anchor="middle" x="738" y="-203" font-family="Helvetica,sans-Serif" font-size="10.00" fill="#000000">iDynTree/Core/MatrixDynSize.h</text>
</g>
<!-- Node4&#45;&gt;Node9 -->
<g id="edge9" class="edge">
<title>Node4&#45;&gt;Node9</title>
<path fill="none" stroke="#191970" d="M561.9432,-257.4639C602.3813,-245.5284 658.2262,-229.0456 696.0973,-217.8678"/>
<polygon fill="#191970" stroke="#191970" points="697.1954,-221.193 705.7955,-215.0053 695.2137,-214.4793 697.1954,-221.193"/>
</g>
<!-- Node10 -->
<g id="node11" class="node">
<title>Node10</title>
<polygon fill="none" stroke="#bfbfbf" points="834,-196 834,-215 986,-215 986,-196 834,-196"/>
<text text-anchor="middle" x="910" y="-203" font-family="Helvetica,sans-Serif" font-size="10.00" fill="#000000">iDynTree/Core/MatrixFixSize.h</text>
</g>
<!-- Node4&#45;&gt;Node10 -->
<g id="edge10" class="edge">
<title>Node4&#45;&gt;Node10</title>
<path fill="none" stroke="#191970" d="M579.6633,-261.5991C643.3169,-251.4079 740.6302,-235.6102 825,-221 832.5865,-219.6863 840.5478,-218.2762 848.4287,-216.8613"/>
<polygon fill="#191970" stroke="#191970" points="849.1146,-220.2942 858.3338,-215.0734 847.8711,-213.4055 849.1146,-220.2942"/>
</g>
<!-- Node11 -->
<g id="node12" class="node">
<title>Node11</title>
<polygon fill="none" stroke="#bfbfbf" points="1004.5,-196 1004.5,-215 1157.5,-215 1157.5,-196 1004.5,-196"/>
<text text-anchor="middle" x="1081" y="-203" font-family="Helvetica,sans-Serif" font-size="10.00" fill="#000000">iDynTree/Core/VectorFixSize.h</text>
</g>
<!-- Node4&#45;&gt;Node11 -->
<g id="edge13" class="edge">
<title>Node4&#45;&gt;Node11</title>
<path fill="none" stroke="#191970" d="M579.7235,-266.7637C673.7266,-258.5583 847.5675,-242.1017 995,-221 1003.6201,-219.7662 1012.6981,-218.3065 1021.5953,-216.7842"/>
<polygon fill="#191970" stroke="#191970" points="1022.2817,-220.2173 1031.5296,-215.0475 1021.0763,-213.3219 1022.2817,-220.2173"/>
</g>
<!-- Node4&#45;&gt;Node12 -->
<g id="edge15" class="edge">
<title>Node4&#45;&gt;Node12</title>
<path fill="none" stroke="#191970" d="M579.5977,-269.3651C697.285,-263.4909 945.3808,-248.943 1165.5,-220.9722"/>
<polygon fill="#191970" stroke="#191970" points="1166.1555,-224.4169 1175.6289,-219.673 1165.2649,-217.4738 1166.1555,-224.4169"/>
</g>
<!-- Node12&#45;&gt;Node6 -->
<g id="edge16" class="edge">
<title>Node12&#45;&gt;Node6</title>
<path fill="none" stroke="#191970" d="M1185.0371,-190.4757C1146.1328,-181.1759 1096.3828,-168.3009 1053,-154 977.4391,-129.0917 960.2721,-118.0012 887,-87 885.6229,-86.4174 884.2176,-85.8174 882.7995,-85.2077"/>
<polygon fill="#191970" stroke="#191970" points="883.9879,-81.9077 873.4222,-81.1219 881.1918,-88.3251 883.9879,-81.9077"/>
</g>
<!-- Node12&#45;&gt;Node7 -->
<g id="edge17" class="edge">
<title>Node12&#45;&gt;Node7</title>
<path fill="none" stroke="#191970" d="M1175.616,-191.4227C1172.3703,-190.9227 1169.1546,-190.4458 1166,-190 988.6338,-164.9371 774.3013,-147.0067 695.7528,-140.8436"/>
<polygon fill="#191970" stroke="#191970" points="695.8298,-137.3391 685.5884,-140.0525 695.2866,-144.318 695.8298,-137.3391"/>
</g>
<!-- Node13 -->
<g id="node14" class="node">
<title>Node13</title>
<polygon fill="none" stroke="#bfbfbf" points="1230,-129 1230,-148 1274,-148 1274,-129 1230,-129"/>
<text text-anchor="middle" x="1252" y="-136" font-family="Helvetica,sans-Serif" font-size="10.00" fill="#000000">vector</text>
</g>
<!-- Node12&#45;&gt;Node13 -->
<g id="edge18" class="edge">
<title>Node12&#45;&gt;Node13</title>
<path fill="none" stroke="#191970" d="M1252,-190.2967C1252,-180.7699 1252,-168.3954 1252,-158.1306"/>
<polygon fill="#191970" stroke="#191970" points="1255.5001,-158.0549 1252,-148.055 1248.5001,-158.055 1255.5001,-158.0549"/>
</g>
<!-- Node14 -->
<g id="node15" class="node">
<title>Node14</title>
<g id="a_node15"><a xlink:href="Vector_8h_source.html" target="_top" xlink:title="BipedalLocomotion/Generic\lContainer/Vector.h">
<polygon fill="none" stroke="#000000" points="1062,-123.5 1062,-153.5 1198,-153.5 1198,-123.5 1062,-123.5"/>
<text text-anchor="start" x="1070" y="-141.5" font-family="Helvetica,sans-Serif" font-size="10.00" fill="#000000">BipedalLocomotion/Generic</text>
<text text-anchor="middle" x="1130" y="-130.5" font-family="Helvetica,sans-Serif" font-size="10.00" fill="#000000">Container/Vector.h</text>
</a>
</g>
</g>
<!-- Node12&#45;&gt;Node14 -->
<g id="edge19" class="edge">
<title>Node12&#45;&gt;Node14</title>
<path fill="none" stroke="#191970" d="M1224.6208,-190.4639C1207.4746,-181.0475 1185.1746,-168.8008 1166.5303,-158.5617"/>
<polygon fill="#191970" stroke="#191970" points="1168.1599,-155.4636 1157.7099,-153.7177 1164.7903,-161.5993 1168.1599,-155.4636"/>
</g>
<!-- Node16 -->
<g id="node17" class="node">
<title>Node16</title>
<g id="a_node17"><a xlink:href="TemplateHelpers_8h_source.html" target="_top" xlink:title="BipedalLocomotion/Generic\lContainer/TemplateHelpers.h">
<polygon fill="none" stroke="#000000" points="1245,-56.5 1245,-86.5 1389,-86.5 1389,-56.5 1245,-56.5"/>
<text text-anchor="start" x="1253" y="-74.5" font-family="Helvetica,sans-Serif" font-size="10.00" fill="#000000">BipedalLocomotion/Generic</text>
<text text-anchor="middle" x="1317" y="-63.5" font-family="Helvetica,sans-Serif" font-size="10.00" fill="#000000">Container/TemplateHelpers.h</text>
</a>
</g>
</g>
<!-- Node12&#45;&gt;Node16 -->
<g id="edge29" class="edge">
<title>Node12&#45;&gt;Node16</title>
<path fill="none" stroke="#191970" d="M1262.1267,-190.0695C1268.5132,-180.0154 1276.712,-166.4905 1283,-154 1292.5182,-135.0929 1301.562,-112.8657 1307.9261,-96.249"/>
<polygon fill="#191970" stroke="#191970" points="1311.2705,-97.2995 1311.5227,-86.7077 1304.7204,-94.8304 1311.2705,-97.2995"/>
</g>
<!-- Node14&#45;&gt;Node6 -->
<g id="edge28" class="edge">
<title>Node14&#45;&gt;Node6</title>
<path fill="none" stroke="#191970" d="M1061.9703,-127.9896C1012.6944,-119.4377 944.8537,-105.7154 887,-87 885.1031,-86.3864 883.1702,-85.7037 881.2356,-84.9766"/>
<polygon fill="#191970" stroke="#191970" points="882.2907,-81.6268 871.7097,-81.0847 879.6432,-88.1069 882.2907,-81.6268"/>
</g>
<!-- Node15 -->
<g id="node16" class="node">
<title>Node15</title>
<polygon fill="none" stroke="#bfbfbf" points="896,-62 896,-81 1010,-81 1010,-62 896,-62"/>
<text text-anchor="middle" x="953" y="-69" font-family="Helvetica,sans-Serif" font-size="10.00" fill="#000000">iDynTree/Core/Span.h</text>
</g>
<!-- Node14&#45;&gt;Node15 -->
<g id="edge20" class="edge">
<title>Node14&#45;&gt;Node15</title>
<path fill="none" stroke="#191970" d="M1090.2777,-123.4639C1059.4176,-111.7824 1017.05,-95.7449 987.5767,-84.5884"/>
<polygon fill="#191970" stroke="#191970" points="988.7025,-81.2722 978.111,-81.0053 986.2243,-87.8189 988.7025,-81.2722"/>
</g>
<!-- Node14&#45;&gt;Node16 -->
<g id="edge21" class="edge">
<title>Node14&#45;&gt;Node16</title>
<path fill="none" stroke="#191970" d="M1171.9665,-123.4639C1199.5392,-113.5849 1235.8072,-100.5905 1265.1772,-90.0675"/>
<polygon fill="#191970" stroke="#191970" points="1266.6171,-93.2696 1274.8505,-86.6017 1264.256,-86.6798 1266.6171,-93.2696"/>
</g>
<!-- Node20 -->
<g id="node21" class="node">
<title>Node20</title>
<polygon fill="none" stroke="#bfbfbf" points="1028.5,-62 1028.5,-81 1087.5,-81 1087.5,-62 1028.5,-62"/>
<text text-anchor="middle" x="1058" y="-69" font-family="Helvetica,sans-Serif" font-size="10.00" fill="#000000">functional</text>
</g>
<!-- Node14&#45;&gt;Node20 -->
<g id="edge25" class="edge">
<title>Node14&#45;&gt;Node20</title>
<path fill="none" stroke="#191970" d="M1113.6621,-123.2967C1102.3352,-112.7564 1087.2624,-98.7303 1075.6586,-87.9323"/>
<polygon fill="#191970" stroke="#191970" points="1077.9731,-85.3051 1068.268,-81.055 1073.2044,-90.4296 1077.9731,-85.3051"/>
</g>
<!-- Node21 -->
<g id="node22" class="node">
<title>Node21</title>
<polygon fill="none" stroke="#bfbfbf" points="1105.5,-62 1105.5,-81 1154.5,-81 1154.5,-62 1105.5,-62"/>
<text text-anchor="middle" x="1130" y="-69" font-family="Helvetica,sans-Serif" font-size="10.00" fill="#000000">cassert</text>
</g>
<!-- Node14&#45;&gt;Node21 -->
<g id="edge26" class="edge">
<title>Node14&#45;&gt;Node21</title>
<path fill="none" stroke="#191970" d="M1130,-123.2967C1130,-113.7699 1130,-101.3954 1130,-91.1306"/>
<polygon fill="#191970" stroke="#191970" points="1133.5001,-91.0549 1130,-81.055 1126.5001,-91.055 1133.5001,-91.0549"/>
</g>
<!-- Node22 -->
<g id="node23" class="node">
<title>Node22</title>
<polygon fill="none" stroke="#bfbfbf" points="1173,-62 1173,-81 1227,-81 1227,-62 1173,-62"/>
<text text-anchor="middle" x="1200" y="-69" font-family="Helvetica,sans-Serif" font-size="10.00" fill="#000000">iostream</text>
</g>
<!-- Node14&#45;&gt;Node22 -->
<g id="edge27" class="edge">
<title>Node14&#45;&gt;Node22</title>
<path fill="none" stroke="#191970" d="M1145.8841,-123.2967C1156.7904,-112.8578 1171.269,-98.9997 1182.5056,-88.2446"/>
<polygon fill="#191970" stroke="#191970" points="1185.2131,-90.498 1190.0172,-81.055 1180.3729,-85.4411 1185.2131,-90.498"/>
</g>
<!-- Node17 -->
<g id="node18" class="node">
<title>Node17</title>
<polygon fill="none" stroke="#bfbfbf" points="1204,-.5 1204,-19.5 1266,-19.5 1266,-.5 1204,-.5"/>
<text text-anchor="middle" x="1235" y="-7.5" font-family="Helvetica,sans-Serif" font-size="10.00" fill="#000000">type_traits</text>
</g>
<!-- Node16&#45;&gt;Node17 -->
<g id="edge22" class="edge">
<title>Node16&#45;&gt;Node17</title>
<path fill="none" stroke="#191970" d="M1296.7303,-56.2977C1284.3994,-47.0495 1268.6734,-35.2551 1256.1803,-25.8853"/>
<polygon fill="#191970" stroke="#191970" points="1258.2293,-23.047 1248.1292,-19.8469 1254.0292,-28.647 1258.2293,-23.047"/>
</g>
<!-- Node18 -->
<g id="node19" class="node">
<title>Node18</title>
<polygon fill="none" stroke="#bfbfbf" points="1284,-.5 1284,-19.5 1350,-19.5 1350,-.5 1284,-.5"/>
<text text-anchor="middle" x="1317" y="-7.5" font-family="Helvetica,sans-Serif" font-size="10.00" fill="#000000">string_view</text>
</g>
<!-- Node16&#45;&gt;Node18 -->
<g id="edge23" class="edge">
<title>Node16&#45;&gt;Node18</title>
<path fill="none" stroke="#191970" d="M1317,-56.2977C1317,-48.3834 1317,-38.6043 1317,-30.0759"/>
<polygon fill="#191970" stroke="#191970" points="1320.5001,-29.8469 1317,-19.8469 1313.5001,-29.847 1320.5001,-29.8469"/>
</g>
<!-- Node19 -->
<g id="node20" class="node">
<title>Node19</title>
<polygon fill="none" stroke="#bfbfbf" points="1368.5,-.5 1368.5,-19.5 1433.5,-19.5 1433.5,-.5 1368.5,-.5"/>
<text text-anchor="middle" x="1401" y="-7.5" font-family="Helvetica,sans-Serif" font-size="10.00" fill="#000000">Eigen/Core</text>
</g>
<!-- Node16&#45;&gt;Node19 -->
<g id="edge24" class="edge">
<title>Node16&#45;&gt;Node19</title>
<path fill="none" stroke="#191970" d="M1337.7641,-56.2977C1350.3958,-47.0495 1366.5053,-35.2551 1379.3031,-25.8853"/>
<polygon fill="#191970" stroke="#191970" points="1381.5495,-28.5784 1387.5505,-19.8469 1377.4143,-22.9303 1381.5495,-28.5784"/>
</g>
</g>
</svg>
        <g id="navigator" transform="translate(0 0)" fill="#404254">
                <rect fill="#f2f5e9" fill-opacity="0.5" stroke="#606060" stroke-width=".5" x="0" y="0" width="60" height="60"/>
                <use id="zoomplus" xlink:href="#zoomPlus" x="17" y="9" onmousedown="handleZoom(evt,'in')"/>
                <use id="zoomminus" xlink:href="#zoomMin" x="42" y="9" onmousedown="handleZoom(evt,'out')"/>
                <use id="reset" xlink:href="#resetDef" x="30" y="36" onmousedown="handleReset()"/>
                <g id="arrowUp" xlink:href="#dirArrow" transform="translate(30 24)" onmousedown="handlePan(0,-1)">
                  <use xlink:href="#rim" fill="#404040">
                        <set attributeName="fill" to="#808080" begin="arrowUp.mouseover" end="arrowUp.mouseout"/>
                  </use>
                  <path fill="none" stroke="white" stroke-width="1.5" d="M0,-3.0v7 M-2.5,-0.5L0,-3.0L2.5,-0.5"/>
                </g>
                <g id="arrowRight" xlink:href="#dirArrow" transform="rotate(90) translate(36 -43)" onmousedown="handlePan(1,0)">
                  <use xlink:href="#rim" fill="#404040">
                        <set attributeName="fill" to="#808080" begin="arrowRight.mouseover" end="arrowRight.mouseout"/>
                  </use>
                  <path fill="none" stroke="white" stroke-width="1.5" d="M0,-3.0v7 M-2.5,-0.5L0,-3.0L2.5,-0.5"/>
                </g>
                <g id="arrowDown" xlink:href="#dirArrow" transform="rotate(180) translate(-30 -48)" onmousedown="handlePan(0,1)">
                  <use xlink:href="#rim" fill="#404040">
                        <set attributeName="fill" to="#808080" begin="arrowDown.mouseover" end="arrowDown.mouseout"/>
                  </use>
                  <path fill="none" stroke="white" stroke-width="1.5" d="M0,-3.0v7 M-2.5,-0.5L0,-3.0L2.5,-0.5"/>
                </g>
                <g id="arrowLeft" xlink:href="#dirArrow" transform="rotate(270) translate(-36 17)" onmousedown="handlePan(-1,0)">
                  <use xlink:href="#rim" fill="#404040">
                        <set attributeName="fill" to="#808080" begin="arrowLeft.mouseover" end="arrowLeft.mouseout"/>
                  </use>
                  <path fill="none" stroke="white" stroke-width="1.5" d="M0,-3.0v7 M-2.5,-0.5L0,-3.0L2.5,-0.5"/>
                </g>
        </g>
        <svg viewBox="0 0 15 15" width="100%" height="30px" preserveAspectRatio="xMaxYMin meet">
         <g id="arrow_out" transform="scale(0.3 0.3)">
          <a xlink:href="ContinuousContactModel_8h__incl_org.svg" target="_base">
           <rect id="button" ry="5" rx="5" y="6" x="6" height="38" width="38"
                fill="#f2f5e9" fill-opacity="0.5" stroke="#606060" stroke-width="1.0"/>
           <path id="arrow"
             d="M 11.500037,31.436501 C 11.940474,20.09759 22.043105,11.32322 32.158766,21.979434 L 37.068811,17.246167 C 37.068811,17.246167 37.088388,32 37.088388,32 L 22.160133,31.978069 C 22.160133,31.978069 26.997745,27.140456 26.997745,27.140456 C 18.528582,18.264221 13.291696,25.230495 11.500037,31.436501 z"
             style="fill:#404040;"/>
          </a>
         </g>
        </svg>
</svg>
