<?xml version="1.0" encoding="UTF-8" standalone="no"?>
<!DOCTYPE svg PUBLIC "-//W3C//DTD SVG 1.1//EN"
 "http://www.w3.org/Graphics/SVG/1.1/DTD/svg11.dtd">
<!-- Generated by graphviz version 2.40.1 (20161225.0304)
 -->
<!-- Title: ContactModels/include/BipedalLocomotion/ContactModels/ContactModel.h Pages: 1 -->
<svg width="1473pt" height="307pt"
 viewBox="0.00 0.00 1472.92 307.00" xmlns="http://www.w3.org/2000/svg" xmlns:xlink="http://www.w3.org/1999/xlink">
<g id="graph0" class="graph" transform="scale(1 1) rotate(0) translate(4 303)">
<title>ContactModels/include/BipedalLocomotion/ContactModels/ContactModel.h</title>
<!-- Node0 -->
<g id="node1" class="node">
<title>Node0</title>
<polygon fill="#bfbfbf" stroke="#000000" points="684.5,-257.5 684.5,-298.5 855.5,-298.5 855.5,-257.5 684.5,-257.5"/>
<text text-anchor="start" x="692.5" y="-286.5" font-family="Helvetica,sans-Serif" font-size="10.00" fill="#000000">ContactModels/include</text>
<text text-anchor="start" x="692.5" y="-275.5" font-family="Helvetica,sans-Serif" font-size="10.00" fill="#000000">/BipedalLocomotion/ContactModels</text>
<text text-anchor="middle" x="770" y="-264.5" font-family="Helvetica,sans-Serif" font-size="10.00" fill="#000000">/ContactModel.h</text>
</g>
<!-- Node1 -->
<g id="node2" class="node">
<title>Node1</title>
<polygon fill="none" stroke="#bfbfbf" points="160,-196 160,-215 192,-215 192,-196 160,-196"/>
<text text-anchor="middle" x="176" y="-203" font-family="Helvetica,sans-Serif" font-size="10.00" fill="#000000">any</text>
</g>
<!-- Node0&#45;&gt;Node1 -->
<g id="edge1" class="edge">
<title>Node0&#45;&gt;Node1</title>
<path fill="none" stroke="#191970" d="M684.3266,-273.2781C549.2887,-265.1734 293.323,-246.9449 206,-221 204.3387,-220.5064 202.661,-219.9201 200.9929,-219.2691"/>
<polygon fill="#191970" stroke="#191970" points="202.2738,-216.0063 191.7243,-215.0279 199.3612,-222.3715 202.2738,-216.0063"/>
</g>
<!-- Node2 -->
<g id="node3" class="node">
<title>Node2</title>
<polygon fill="none" stroke="#bfbfbf" points="552,-62 552,-81 604,-81 604,-62 552,-62"/>
<text text-anchor="middle" x="578" y="-69" font-family="Helvetica,sans-Serif" font-size="10.00" fill="#000000">memory</text>
</g>
<!-- Node0&#45;&gt;Node2 -->
<g id="edge2" class="edge">
<title>Node0&#45;&gt;Node2</title>
<path fill="none" stroke="#191970" d="M855.7482,-277.2422C1031.1736,-274.798 1417.9704,-264.4831 1458,-221 1467.3315,-210.8634 1467.069,-200.3721 1458,-190 1401.3365,-125.1948 773.6027,-83.2635 614.4889,-73.6265"/>
<polygon fill="#191970" stroke="#191970" points="614.4676,-70.119 604.2758,-73.0135 614.0481,-77.1065 614.4676,-70.119"/>
</g>
<!-- Node3 -->
<g id="node4" class="node">
<title>Node3</title>
<polygon fill="none" stroke="#bfbfbf" points="199.5,-129 199.5,-148 240.5,-148 240.5,-129 199.5,-129"/>
<text text-anchor="middle" x="220" y="-136" font-family="Helvetica,sans-Serif" font-size="10.00" fill="#000000">string</text>
</g>
<!-- Node0&#45;&gt;Node3 -->
<g id="edge3" class="edge">
<title>Node0&#45;&gt;Node3</title>
<path fill="none" stroke="#191970" d="M684.4068,-274.1928C542.6893,-267.1042 271.5975,-249.9199 239,-221 221.5276,-205.4988 218.4261,-177.4509 218.5866,-158.4071"/>
<polygon fill="#191970" stroke="#191970" points="222.0942,-158.282 218.9912,-148.1518 215.0996,-158.006 222.0942,-158.282"/>
</g>
<!-- Node4 -->
<g id="node5" class="node">
<title>Node4</title>
<polygon fill="none" stroke="#bfbfbf" points="418.5,-196 418.5,-215 501.5,-215 501.5,-196 418.5,-196"/>
<text text-anchor="middle" x="460" y="-203" font-family="Helvetica,sans-Serif" font-size="10.00" fill="#000000">unordered_map</text>
</g>
<!-- Node0&#45;&gt;Node4 -->
<g id="edge4" class="edge">
<title>Node0&#45;&gt;Node4</title>
<path fill="none" stroke="#191970" d="M684.4419,-260.9309C633.7769,-250.3859 568.4602,-236.0298 511,-221 507.3853,-220.0545 503.6422,-219.0217 499.9011,-217.9526"/>
<polygon fill="#191970" stroke="#191970" points="500.6736,-214.5318 490.0926,-215.0732 498.7018,-221.2483 500.6736,-214.5318"/>
</g>
<!-- Node5 -->
<g id="node6" class="node">
<title>Node5</title>
<polygon fill="none" stroke="#bfbfbf" points="520,-196 520,-215 676,-215 676,-196 520,-196"/>
<text text-anchor="middle" x="598" y="-203" font-family="Helvetica,sans-Serif" font-size="10.00" fill="#000000">iDynTree/Core/MatrixDynSize.h</text>
</g>
<!-- Node0&#45;&gt;Node5 -->
<g id="edge5" class="edge">
<title>Node0&#45;&gt;Node5</title>
<path fill="none" stroke="#191970" d="M721.1718,-257.4183C691.9335,-245.0941 655.5971,-229.7779 629.9915,-218.9848"/>
<polygon fill="#191970" stroke="#191970" points="631.3147,-215.7444 620.7404,-215.0853 628.5958,-222.1948 631.3147,-215.7444"/>
</g>
<!-- Node6 -->
<g id="node7" class="node">
<title>Node6</title>
<polygon fill="none" stroke="#bfbfbf" points="694,-196 694,-215 846,-215 846,-196 694,-196"/>
<text text-anchor="middle" x="770" y="-203" font-family="Helvetica,sans-Serif" font-size="10.00" fill="#000000">iDynTree/Core/MatrixFixSize.h</text>
</g>
<!-- Node0&#45;&gt;Node6 -->
<g id="edge6" class="edge">
<title>Node0&#45;&gt;Node6</title>
<path fill="none" stroke="#191970" d="M770,-257.4183C770,-247.32 770,-235.213 770,-225.2314"/>
<polygon fill="#191970" stroke="#191970" points="773.5001,-225.0853 770,-215.0853 766.5001,-225.0854 773.5001,-225.0853"/>
</g>
<!-- Node7 -->
<g id="node8" class="node">
<title>Node7</title>
<polygon fill="none" stroke="#bfbfbf" points="864,-196 864,-215 1000,-215 1000,-196 864,-196"/>
<text text-anchor="middle" x="932" y="-203" font-family="Helvetica,sans-Serif" font-size="10.00" fill="#000000">iDynTree/Core/Transform.h</text>
</g>
<!-- Node0&#45;&gt;Node7 -->
<g id="edge7" class="edge">
<title>Node0&#45;&gt;Node7</title>
<path fill="none" stroke="#191970" d="M815.9894,-257.4183C843.2851,-245.2027 877.149,-230.0475 901.2287,-219.2711"/>
<polygon fill="#191970" stroke="#191970" points="902.8838,-222.365 910.5817,-215.0853 900.0243,-215.9756 902.8838,-222.365"/>
</g>
<!-- Node8 -->
<g id="node9" class="node">
<title>Node8</title>
<polygon fill="none" stroke="#bfbfbf" points="1018,-196 1018,-215 1134,-215 1134,-196 1018,-196"/>
<text text-anchor="middle" x="1076" y="-203" font-family="Helvetica,sans-Serif" font-size="10.00" fill="#000000">iDynTree/Core/Twist.h</text>
</g>
<!-- Node0&#45;&gt;Node8 -->
<g id="edge8" class="edge">
<title>Node0&#45;&gt;Node8</title>
<path fill="none" stroke="#191970" d="M855.645,-257.7083C910.4972,-244.7123 979.7798,-228.2973 1025.8662,-217.3781"/>
<polygon fill="#191970" stroke="#191970" points="1026.6978,-220.7781 1035.6215,-215.0668 1025.0839,-213.9666 1026.6978,-220.7781"/>
</g>
<!-- Node9 -->
<g id="node10" class="node">
<title>Node9</title>
<polygon fill="none" stroke="#bfbfbf" points="1152.5,-196 1152.5,-215 1305.5,-215 1305.5,-196 1152.5,-196"/>
<text text-anchor="middle" x="1229" y="-203" font-family="Helvetica,sans-Serif" font-size="10.00" fill="#000000">iDynTree/Core/VectorFixSize.h</text>
</g>
<!-- Node0&#45;&gt;Node9 -->
<g id="edge9" class="edge">
<title>Node0&#45;&gt;Node9</title>
<path fill="none" stroke="#191970" d="M855.6575,-265.5733C931.3262,-254.4377 1044.6173,-237.3801 1143,-221 1150.8731,-219.6892 1159.1422,-218.2625 1167.3121,-216.823"/>
<polygon fill="#191970" stroke="#191970" points="1167.9613,-220.2626 1177.1951,-215.0676 1166.7371,-213.3704 1167.9613,-220.2626"/>
</g>
<!-- Node10 -->
<g id="node11" class="node">
<title>Node10</title>
<polygon fill="none" stroke="#bfbfbf" points="1323.5,-196 1323.5,-215 1448.5,-215 1448.5,-196 1323.5,-196"/>
<text text-anchor="middle" x="1386" y="-203" font-family="Helvetica,sans-Serif" font-size="10.00" fill="#000000">iDynTree/Core/Wrench.h</text>
</g>
<!-- Node0&#45;&gt;Node10 -->
<g id="edge10" class="edge">
<title>Node0&#45;&gt;Node10</title>
<path fill="none" stroke="#191970" d="M855.8154,-271.9787C963.5136,-263.7446 1153.683,-246.9626 1315,-221 1321.779,-219.909 1328.8845,-218.5813 1335.8712,-217.167"/>
<polygon fill="#191970" stroke="#191970" points="1336.9014,-220.5272 1345.9708,-215.0502 1335.4654,-213.6761 1336.9014,-220.5272"/>
</g>
<!-- Node11 -->
<g id="node12" class="node">
<title>Node11</title>
<g id="a_node12"><a xlink:href="IParametersHandler_8h.html" target="_top" xlink:title="BipedalLocomotion/Parameters\lHandler/IParametersHandler.h">
<polygon fill="none" stroke="#000000" points="248,-190.5 248,-220.5 400,-220.5 400,-190.5 248,-190.5"/>
<text text-anchor="start" x="256" y="-208.5" font-family="Helvetica,sans-Serif" font-size="10.00" fill="#000000">BipedalLocomotion/Parameters</text>
<text text-anchor="middle" x="324" y="-197.5" font-family="Helvetica,sans-Serif" font-size="10.00" fill="#000000">Handler/IParametersHandler.h</text>
</a>
</g>
</g>
<!-- Node0&#45;&gt;Node11 -->
<g id="edge11" class="edge">
<title>Node0&#45;&gt;Node11</title>
<path fill="none" stroke="#191970" d="M684.4496,-264.979C613.8084,-254.1058 510.6491,-237.9491 410.4195,-221.0505"/>
<polygon fill="#191970" stroke="#191970" points="410.8612,-217.5756 400.4177,-219.3601 409.6946,-224.4777 410.8612,-217.5756"/>
</g>
<!-- Node11&#45;&gt;Node2 -->
<g id="edge12" class="edge">
<title>Node11&#45;&gt;Node2</title>
<path fill="none" stroke="#191970" d="M365.784,-190.496C388.998,-181.3756 417.9589,-168.6706 442,-154 460.6053,-142.6465 461.8173,-135.0188 480,-123 501.771,-108.6093 528.0169,-94.9962 547.866,-85.3842"/>
<polygon fill="#191970" stroke="#191970" points="549.5317,-88.4674 557.0487,-81.0011 546.5163,-82.1502 549.5317,-88.4674"/>
</g>
<!-- Node11&#45;&gt;Node3 -->
<g id="edge13" class="edge">
<title>Node11&#45;&gt;Node3</title>
<path fill="none" stroke="#191970" d="M300.6604,-190.4639C283.6821,-179.526 260.7758,-164.769 243.7118,-153.7759"/>
<polygon fill="#191970" stroke="#191970" points="245.2096,-150.5774 234.9076,-148.1039 241.4186,-156.462 245.2096,-150.5774"/>
</g>
<!-- Node12 -->
<g id="node13" class="node">
<title>Node12</title>
<polygon fill="none" stroke="#bfbfbf" points="489,-129 489,-148 533,-148 533,-129 489,-129"/>
<text text-anchor="middle" x="511" y="-136" font-family="Helvetica,sans-Serif" font-size="10.00" fill="#000000">vector</text>
</g>
<!-- Node11&#45;&gt;Node12 -->
<g id="edge14" class="edge">
<title>Node11&#45;&gt;Node12</title>
<path fill="none" stroke="#191970" d="M371.2706,-190.4273C401.2091,-180.6231 440.623,-167.2398 475,-154 476.6153,-153.3779 478.265,-152.7264 479.9264,-152.0574"/>
<polygon fill="#191970" stroke="#191970" points="481.5171,-155.1867 489.4102,-148.1192 478.8326,-148.7219 481.5171,-155.1867"/>
</g>
<!-- Node13 -->
<g id="node14" class="node">
<title>Node13</title>
<g id="a_node14"><a xlink:href="Vector_8h_source.html" target="_top" xlink:title="BipedalLocomotion/Generic\lContainer/Vector.h">
<polygon fill="none" stroke="#000000" points="297,-123.5 297,-153.5 433,-153.5 433,-123.5 297,-123.5"/>
<text text-anchor="start" x="305" y="-141.5" font-family="Helvetica,sans-Serif" font-size="10.00" fill="#000000">BipedalLocomotion/Generic</text>
<text text-anchor="middle" x="365" y="-130.5" font-family="Helvetica,sans-Serif" font-size="10.00" fill="#000000">Container/Vector.h</text>
</a>
</g>
</g>
<!-- Node11&#45;&gt;Node13 -->
<g id="edge15" class="edge">
<title>Node11&#45;&gt;Node13</title>
<path fill="none" stroke="#191970" d="M333.3035,-190.2967C338.336,-182.0729 344.6669,-171.7272 350.345,-162.4483"/>
<polygon fill="#191970" stroke="#191970" points="353.499,-163.9997 355.7333,-153.6432 347.5282,-160.346 353.499,-163.9997"/>
</g>
<!-- Node15 -->
<g id="node16" class="node">
<title>Node15</title>
<g id="a_node16"><a xlink:href="TemplateHelpers_8h_source.html" target="_top" xlink:title="BipedalLocomotion/Generic\lContainer/TemplateHelpers.h">
<polygon fill="none" stroke="#000000" points="41,-56.5 41,-86.5 185,-86.5 185,-56.5 41,-56.5"/>
<text text-anchor="start" x="49" y="-74.5" font-family="Helvetica,sans-Serif" font-size="10.00" fill="#000000">BipedalLocomotion/Generic</text>
<text text-anchor="middle" x="113" y="-63.5" font-family="Helvetica,sans-Serif" font-size="10.00" fill="#000000">Container/TemplateHelpers.h</text>
</a>
</g>
</g>
<!-- Node11&#45;&gt;Node15 -->
<g id="edge25" class="edge">
<title>Node11&#45;&gt;Node15</title>
<path fill="none" stroke="#191970" d="M313.9265,-190.3949C301.0546,-172.1397 277.1618,-141.567 250,-123 229.2589,-108.822 204.1027,-97.9135 181.0358,-89.8639"/>
<polygon fill="#191970" stroke="#191970" points="181.891,-86.4589 171.2969,-86.5879 179.6592,-93.0936 181.891,-86.4589"/>
</g>
<!-- Node13&#45;&gt;Node2 -->
<g id="edge24" class="edge">
<title>Node13&#45;&gt;Node2</title>
<path fill="none" stroke="#191970" d="M424.5735,-123.428C459.4605,-114.067 504.1571,-101.1465 543,-87 544.6313,-86.4059 546.2942,-85.7716 547.9652,-85.1115"/>
<polygon fill="#191970" stroke="#191970" points="549.5801,-88.2302 557.4612,-81.1494 546.8846,-81.77 549.5801,-88.2302"/>
</g>
<!-- Node14 -->
<g id="node15" class="node">
<title>Node14</title>
<polygon fill="none" stroke="#bfbfbf" points="203,-62 203,-81 317,-81 317,-62 203,-62"/>
<text text-anchor="middle" x="260" y="-69" font-family="Helvetica,sans-Serif" font-size="10.00" fill="#000000">iDynTree/Core/Span.h</text>
</g>
<!-- Node13&#45;&gt;Node14 -->
<g id="edge16" class="edge">
<title>Node13&#45;&gt;Node14</title>
<path fill="none" stroke="#191970" d="M341.436,-123.4639C324.2944,-112.526 301.1679,-97.769 283.9398,-86.7759"/>
<polygon fill="#191970" stroke="#191970" points="285.3636,-83.5326 275.0509,-81.1039 281.5982,-89.4336 285.3636,-83.5326"/>
</g>
<!-- Node13&#45;&gt;Node15 -->
<g id="edge17" class="edge">
<title>Node13&#45;&gt;Node15</title>
<path fill="none" stroke="#191970" d="M308.4463,-123.4639C270.2393,-113.3057 219.643,-99.8535 179.5032,-89.1814"/>
<polygon fill="#191970" stroke="#191970" points="180.364,-85.7887 169.8004,-86.6017 178.5653,-92.5537 180.364,-85.7887"/>
</g>
<!-- Node19 -->
<g id="node20" class="node">
<title>Node19</title>
<polygon fill="none" stroke="#bfbfbf" points="335.5,-62 335.5,-81 394.5,-81 394.5,-62 335.5,-62"/>
<text text-anchor="middle" x="365" y="-69" font-family="Helvetica,sans-Serif" font-size="10.00" fill="#000000">functional</text>
</g>
<!-- Node13&#45;&gt;Node19 -->
<g id="edge21" class="edge">
<title>Node13&#45;&gt;Node19</title>
<path fill="none" stroke="#191970" d="M365,-123.2967C365,-113.7699 365,-101.3954 365,-91.1306"/>
<polygon fill="#191970" stroke="#191970" points="368.5001,-91.0549 365,-81.055 361.5001,-91.055 368.5001,-91.0549"/>
</g>
<!-- Node20 -->
<g id="node21" class="node">
<title>Node20</title>
<polygon fill="none" stroke="#bfbfbf" points="412.5,-62 412.5,-81 461.5,-81 461.5,-62 412.5,-62"/>
<text text-anchor="middle" x="437" y="-69" font-family="Helvetica,sans-Serif" font-size="10.00" fill="#000000">cassert</text>
</g>
<!-- Node13&#45;&gt;Node20 -->
<g id="edge22" class="edge">
<title>Node13&#45;&gt;Node20</title>
<path fill="none" stroke="#191970" d="M381.3379,-123.2967C392.6648,-112.7564 407.7376,-98.7303 419.3414,-87.9323"/>
<polygon fill="#191970" stroke="#191970" points="421.7956,-90.4296 426.732,-81.055 417.0269,-85.3051 421.7956,-90.4296"/>
</g>
<!-- Node21 -->
<g id="node22" class="node">
<title>Node21</title>
<polygon fill="none" stroke="#bfbfbf" points="480,-62 480,-81 534,-81 534,-62 480,-62"/>
<text text-anchor="middle" x="507" y="-69" font-family="Helvetica,sans-Serif" font-size="10.00" fill="#000000">iostream</text>
</g>
<!-- Node13&#45;&gt;Node21 -->
<g id="edge23" class="edge">
<title>Node13&#45;&gt;Node21</title>
<path fill="none" stroke="#191970" d="M396.8676,-123.4639C421.0153,-112.0702 453.9457,-96.5327 477.4939,-85.4219"/>
<polygon fill="#191970" stroke="#191970" points="479.0951,-88.5365 486.6454,-81.1039 476.108,-82.2058 479.0951,-88.5365"/>
</g>
<!-- Node16 -->
<g id="node17" class="node">
<title>Node16</title>
<polygon fill="none" stroke="#bfbfbf" points="0,-.5 0,-19.5 62,-19.5 62,-.5 0,-.5"/>
<text text-anchor="middle" x="31" y="-7.5" font-family="Helvetica,sans-Serif" font-size="10.00" fill="#000000">type_traits</text>
</g>
<!-- Node15&#45;&gt;Node16 -->
<g id="edge18" class="edge">
<title>Node15&#45;&gt;Node16</title>
<path fill="none" stroke="#191970" d="M92.7303,-56.2977C80.3994,-47.0495 64.6734,-35.2551 52.1803,-25.8853"/>
<polygon fill="#191970" stroke="#191970" points="54.2293,-23.047 44.1292,-19.8469 50.0292,-28.647 54.2293,-23.047"/>
</g>
<!-- Node17 -->
<g id="node18" class="node">
<title>Node17</title>
<polygon fill="none" stroke="#bfbfbf" points="80,-.5 80,-19.5 146,-19.5 146,-.5 80,-.5"/>
<text text-anchor="middle" x="113" y="-7.5" font-family="Helvetica,sans-Serif" font-size="10.00" fill="#000000">string_view</text>
</g>
<!-- Node15&#45;&gt;Node17 -->
<g id="edge19" class="edge">
<title>Node15&#45;&gt;Node17</title>
<path fill="none" stroke="#191970" d="M113,-56.2977C113,-48.3834 113,-38.6043 113,-30.0759"/>
<polygon fill="#191970" stroke="#191970" points="116.5001,-29.8469 113,-19.8469 109.5001,-29.847 116.5001,-29.8469"/>
</g>
<!-- Node18 -->
<g id="node19" class="node">
<title>Node18</title>
<polygon fill="none" stroke="#bfbfbf" points="164.5,-.5 164.5,-19.5 229.5,-19.5 229.5,-.5 164.5,-.5"/>
<text text-anchor="middle" x="197" y="-7.5" font-family="Helvetica,sans-Serif" font-size="10.00" fill="#000000">Eigen/Core</text>
</g>
<!-- Node15&#45;&gt;Node18 -->
<g id="edge20" class="edge">
<title>Node15&#45;&gt;Node18</title>
<path fill="none" stroke="#191970" d="M133.7641,-56.2977C146.3958,-47.0495 162.5053,-35.2551 175.3031,-25.8853"/>
<polygon fill="#191970" stroke="#191970" points="177.5495,-28.5784 183.5505,-19.8469 173.4143,-22.9303 177.5495,-28.5784"/>
</g>
</g>
</svg>
