<?xml version="1.0" encoding="UTF-8" standalone="no"?>
<!DOCTYPE svg PUBLIC "-//W3C//DTD SVG 1.1//EN"
 "http://www.w3.org/Graphics/SVG/1.1/DTD/svg11.dtd">
<!-- Generated by graphviz version 2.40.1 (20161225.0304)
 -->
<!-- Title: Contacts/include/BipedalLocomotion/ContactDetectors/ContactDetector.h Pages: 1 -->
<svg width="340pt" height="195pt"
 viewBox="0.00 0.00 340.00 195.00" xmlns="http://www.w3.org/2000/svg" xmlns:xlink="http://www.w3.org/1999/xlink">
<g id="graph0" class="graph" transform="scale(1 1) rotate(0) translate(4 191)">
<title>Contacts/include/BipedalLocomotion/ContactDetectors/ContactDetector.h</title>
<!-- Node18 -->
<g id="node1" class="node">
<title>Node18</title>
<polygon fill="#bfbfbf" stroke="#000000" points="87,-145.5 87,-186.5 234,-186.5 234,-145.5 87,-145.5"/>
<text text-anchor="start" x="95" y="-174.5" font-family="Helvetica,sans-Serif" font-size="10.00" fill="#000000">Contacts/include/Bipedal</text>
<text text-anchor="start" x="95" y="-163.5" font-family="Helvetica,sans-Serif" font-size="10.00" fill="#000000">Locomotion/ContactDetectors</text>
<text text-anchor="middle" x="160.5" y="-152.5" font-family="Helvetica,sans-Serif" font-size="10.00" fill="#000000">/ContactDetector.h</text>
</g>
<!-- Node19 -->
<g id="node2" class="node">
<title>Node19</title>
<g id="a_node2"><a xlink:href="SchmittTriggerDetector_8h.html" target="_top" xlink:title="Contacts/include/Bipedal\lLocomotion/ContactDetectors\l/SchmittTriggerDetector.h">
<polygon fill="none" stroke="#000000" points="0,-67.5 0,-108.5 147,-108.5 147,-67.5 0,-67.5"/>
<text text-anchor="start" x="8" y="-96.5" font-family="Helvetica,sans-Serif" font-size="10.00" fill="#000000">Contacts/include/Bipedal</text>
<text text-anchor="start" x="8" y="-85.5" font-family="Helvetica,sans-Serif" font-size="10.00" fill="#000000">Locomotion/ContactDetectors</text>
<text text-anchor="middle" x="73.5" y="-74.5" font-family="Helvetica,sans-Serif" font-size="10.00" fill="#000000">/SchmittTriggerDetector.h</text>
</a>
</g>
</g>
<!-- Node18&#45;&gt;Node19 -->
<g id="edge1" class="edge">
<title>Node18&#45;&gt;Node19</title>
<path fill="none" stroke="#191970" d="M129.5247,-138.229C118.6678,-128.4953 106.6731,-117.7414 96.5771,-108.6898"/>
<polygon fill="#191970" stroke="#191970" points="127.4035,-141.028 137.1856,-145.0974 132.0763,-135.8159 127.4035,-141.028"/>
</g>
<!-- Node21 -->
<g id="node4" class="node">
<title>Node21</title>
<g id="a_node4"><a xlink:href="ContactDetector_8cpp.html" target="_top" xlink:title="Contacts/src/ContactDetector.cpp">
<polygon fill="none" stroke="#000000" points="165,-78.5 165,-97.5 332,-97.5 332,-78.5 165,-78.5"/>
<text text-anchor="middle" x="248.5" y="-85.5" font-family="Helvetica,sans-Serif" font-size="10.00" fill="#000000">Contacts/src/ContactDetector.cpp</text>
</a>
</g>
</g>
<!-- Node18&#45;&gt;Node21 -->
<g id="edge3" class="edge">
<title>Node18&#45;&gt;Node21</title>
<path fill="none" stroke="#191970" d="M191.6651,-138.3764C207.5981,-124.2539 225.9919,-107.9504 237.4355,-97.8072"/>
<polygon fill="#191970" stroke="#191970" points="189.2443,-135.8451 184.0824,-145.0974 193.8875,-141.0835 189.2443,-135.8451"/>
</g>
<!-- Node20 -->
<g id="node3" class="node">
<title>Node20</title>
<g id="a_node3"><a xlink:href="SchmittTriggerDetector_8cpp.html" target="_top" xlink:title="Contacts/src/SchmittTrigger\lDetector.cpp">
<polygon fill="none" stroke="#000000" points="3.5,-.5 3.5,-30.5 143.5,-30.5 143.5,-.5 3.5,-.5"/>
<text text-anchor="start" x="11.5" y="-18.5" font-family="Helvetica,sans-Serif" font-size="10.00" fill="#000000">Contacts/src/SchmittTrigger</text>
<text text-anchor="middle" x="73.5" y="-7.5" font-family="Helvetica,sans-Serif" font-size="10.00" fill="#000000">Detector.cpp</text>
</a>
</g>
</g>
<!-- Node19&#45;&gt;Node20 -->
<g id="edge2" class="edge">
<title>Node19&#45;&gt;Node20</title>
<path fill="none" stroke="#191970" d="M73.5,-57.3279C73.5,-48.0871 73.5,-38.3508 73.5,-30.5991"/>
<polygon fill="#191970" stroke="#191970" points="70.0001,-57.4183 73.5,-67.4183 77.0001,-57.4184 70.0001,-57.4183"/>
</g>
</g>
</svg>
