<?xml version="1.0" encoding="UTF-8" standalone="no"?>
<!DOCTYPE svg PUBLIC "-//W3C//DTD SVG 1.1//EN"
 "http://www.w3.org/Graphics/SVG/1.1/DTD/svg11.dtd">
<!-- Generated by graphviz version 2.40.1 (20161225.0304)
 -->
<!-- Title: Contacts/src/Contact.cpp Pages: 1 -->
<svg width="152pt" height="151pt"
 viewBox="0.00 0.00 151.50 151.00" xmlns="http://www.w3.org/2000/svg" xmlns:xlink="http://www.w3.org/1999/xlink">
<g id="graph0" class="graph" transform="scale(1 1) rotate(0) translate(4 147)">
<title>Contacts/src/Contact.cpp</title>
<!-- Node0 -->
<g id="node1" class="node">
<title>Node0</title>
<polygon fill="#bfbfbf" stroke="#000000" points="8,-123.5 8,-142.5 137,-142.5 137,-123.5 8,-123.5"/>
<text text-anchor="middle" x="72.5" y="-130.5" font-family="Helvetica,sans-Serif" font-size="10.00" fill="#000000">Contacts/src/Contact.cpp</text>
</g>
<!-- Node1 -->
<g id="node2" class="node">
<title>Node1</title>
<g id="a_node2"><a xlink:href="Contact_8h.html" target="_top" xlink:title="BipedalLocomotion/Contacts\l/Contact.h">
<polygon fill="none" stroke="#000000" points="1.5,-56.5 1.5,-86.5 143.5,-86.5 143.5,-56.5 1.5,-56.5"/>
<text text-anchor="start" x="9.5" y="-74.5" font-family="Helvetica,sans-Serif" font-size="10.00" fill="#000000">BipedalLocomotion/Contacts</text>
<text text-anchor="middle" x="72.5" y="-63.5" font-family="Helvetica,sans-Serif" font-size="10.00" fill="#000000">/Contact.h</text>
</a>
</g>
</g>
<!-- Node0&#45;&gt;Node1 -->
<g id="edge1" class="edge">
<title>Node0&#45;&gt;Node1</title>
<path fill="none" stroke="#191970" d="M72.5,-123.3906C72.5,-116.2234 72.5,-106.0862 72.5,-96.671"/>
<polygon fill="#191970" stroke="#191970" points="76.0001,-96.5446 72.5,-86.5446 69.0001,-96.5446 76.0001,-96.5446"/>
</g>
<!-- Node2 -->
<g id="node3" class="node">
<title>Node2</title>
<polygon fill="none" stroke="#bfbfbf" points="0,-.5 0,-19.5 71,-19.5 71,-.5 0,-.5"/>
<text text-anchor="middle" x="35.5" y="-7.5" font-family="Helvetica,sans-Serif" font-size="10.00" fill="#000000">manif/SE3.h</text>
</g>
<!-- Node1&#45;&gt;Node2 -->
<g id="edge2" class="edge">
<title>Node1&#45;&gt;Node2</title>
<path fill="none" stroke="#191970" d="M63.3539,-56.2977C58.3249,-47.9388 52.0445,-37.4997 46.7209,-28.6509"/>
<polygon fill="#191970" stroke="#191970" points="49.5785,-26.6114 41.4242,-19.8469 43.5803,-30.2201 49.5785,-26.6114"/>
</g>
<!-- Node3 -->
<g id="node4" class="node">
<title>Node3</title>
<polygon fill="none" stroke="#bfbfbf" points="89,-.5 89,-19.5 130,-19.5 130,-.5 89,-.5"/>
<text text-anchor="middle" x="109.5" y="-7.5" font-family="Helvetica,sans-Serif" font-size="10.00" fill="#000000">string</text>
</g>
<!-- Node1&#45;&gt;Node3 -->
<g id="edge3" class="edge">
<title>Node1&#45;&gt;Node3</title>
<path fill="none" stroke="#191970" d="M81.6461,-56.2977C86.6751,-47.9388 92.9555,-37.4997 98.2791,-28.6509"/>
<polygon fill="#191970" stroke="#191970" points="101.4197,-30.2201 103.5758,-19.8469 95.4215,-26.6114 101.4197,-30.2201"/>
</g>
</g>
</svg>
