<?xml version="1.0" encoding="UTF-8" standalone="no"?>
<!DOCTYPE svg PUBLIC "-//W3C//DTD SVG 1.1//EN"
 "http://www.w3.org/Graphics/SVG/1.1/DTD/svg11.dtd">
<!-- Generated by graphviz version 2.40.1 (20161225.0304)
 -->
<!-- Title: Planners/src/ConvexHullHelper.cpp Pages: 1 -->
<svg width="608pt" height="151pt"
 viewBox="0.00 0.00 607.50 151.00" xmlns="http://www.w3.org/2000/svg" xmlns:xlink="http://www.w3.org/1999/xlink">
<g id="graph0" class="graph" transform="scale(1 1) rotate(0) translate(4 147)">
<title>Planners/src/ConvexHullHelper.cpp</title>
<!-- Node0 -->
<g id="node1" class="node">
<title>Node0</title>
<polygon fill="#bfbfbf" stroke="#000000" points="196,-123.5 196,-142.5 369,-142.5 369,-123.5 196,-123.5"/>
<text text-anchor="middle" x="282.5" y="-130.5" font-family="Helvetica,sans-Serif" font-size="10.00" fill="#000000">Planners/src/ConvexHullHelper.cpp</text>
</g>
<!-- Node1 -->
<g id="node2" class="node">
<title>Node1</title>
<polygon fill="none" stroke="#bfbfbf" points="0,-62 0,-81 149,-81 149,-62 0,-62"/>
<text text-anchor="middle" x="74.5" y="-69" font-family="Helvetica,sans-Serif" font-size="10.00" fill="#000000">libqhullcpp/PointCoordinates.h</text>
</g>
<!-- Node0&#45;&gt;Node1 -->
<g id="edge1" class="edge">
<title>Node0&#45;&gt;Node1</title>
<path fill="none" stroke="#191970" d="M250,-123.3906C214.053,-112.7621 156.0173,-95.6025 116.612,-83.9514"/>
<polygon fill="#191970" stroke="#191970" points="117.3538,-80.521 106.7718,-81.0419 115.369,-87.2337 117.3538,-80.521"/>
</g>
<!-- Node2 -->
<g id="node3" class="node">
<title>Node2</title>
<polygon fill="none" stroke="#bfbfbf" points="167.5,-62 167.5,-81 263.5,-81 263.5,-62 167.5,-62"/>
<text text-anchor="middle" x="215.5" y="-69" font-family="Helvetica,sans-Serif" font-size="10.00" fill="#000000">libqhullcpp/Qhull.h</text>
</g>
<!-- Node0&#45;&gt;Node2 -->
<g id="edge2" class="edge">
<title>Node0&#45;&gt;Node2</title>
<path fill="none" stroke="#191970" d="M272.0313,-123.3906C261.7663,-113.9683 245.9097,-99.4134 233.5994,-88.1137"/>
<polygon fill="#191970" stroke="#191970" points="235.8501,-85.4287 226.1163,-81.2449 231.1166,-90.5856 235.8501,-85.4287"/>
</g>
<!-- Node3 -->
<g id="node4" class="node">
<title>Node3</title>
<polygon fill="none" stroke="#bfbfbf" points="282,-62 282,-81 419,-81 419,-62 282,-62"/>
<text text-anchor="middle" x="350.5" y="-69" font-family="Helvetica,sans-Serif" font-size="10.00" fill="#000000">libqhullcpp/QhullFacetList.h</text>
</g>
<!-- Node0&#45;&gt;Node3 -->
<g id="edge3" class="edge">
<title>Node0&#45;&gt;Node3</title>
<path fill="none" stroke="#191970" d="M293.125,-123.3906C303.5431,-113.9683 319.6364,-99.4134 332.1304,-88.1137"/>
<polygon fill="#191970" stroke="#191970" points="334.6562,-90.5484 339.7252,-81.2449 329.9608,-85.3568 334.6562,-90.5484"/>
</g>
<!-- Node4 -->
<g id="node5" class="node">
<title>Node4</title>
<g id="a_node5"><a xlink:href="ConvexHullHelper_8h.html" target="_top" xlink:title="BipedalLocomotion/Planners\l/ConvexHullHelper.h">
<polygon fill="none" stroke="#000000" points="437.5,-56.5 437.5,-86.5 577.5,-86.5 577.5,-56.5 437.5,-56.5"/>
<text text-anchor="start" x="445.5" y="-74.5" font-family="Helvetica,sans-Serif" font-size="10.00" fill="#000000">BipedalLocomotion/Planners</text>
<text text-anchor="middle" x="507.5" y="-63.5" font-family="Helvetica,sans-Serif" font-size="10.00" fill="#000000">/ConvexHullHelper.h</text>
</a>
</g>
</g>
<!-- Node0&#45;&gt;Node4 -->
<g id="edge4" class="edge">
<title>Node0&#45;&gt;Node4</title>
<path fill="none" stroke="#191970" d="M317.6563,-123.3906C350.9973,-114.2774 401.9047,-100.3627 442.6129,-89.2358"/>
<polygon fill="#191970" stroke="#191970" points="443.7355,-92.5574 452.4588,-86.5446 441.8898,-85.8051 443.7355,-92.5574"/>
</g>
<!-- Node5 -->
<g id="node6" class="node">
<title>Node5</title>
<polygon fill="none" stroke="#bfbfbf" points="394,-.5 394,-19.5 467,-19.5 467,-.5 394,-.5"/>
<text text-anchor="middle" x="430.5" y="-7.5" font-family="Helvetica,sans-Serif" font-size="10.00" fill="#000000">Eigen/Dense</text>
</g>
<!-- Node4&#45;&gt;Node5 -->
<g id="edge5" class="edge">
<title>Node4&#45;&gt;Node5</title>
<path fill="none" stroke="#191970" d="M488.4663,-56.2977C476.9985,-47.1384 462.4038,-35.4816 450.7281,-26.1562"/>
<polygon fill="#191970" stroke="#191970" points="452.8266,-23.3529 442.8287,-19.8469 448.4581,-28.8225 452.8266,-23.3529"/>
</g>
<!-- Node6 -->
<g id="node7" class="node">
<title>Node6</title>
<polygon fill="none" stroke="#bfbfbf" points="485.5,-.5 485.5,-19.5 529.5,-19.5 529.5,-.5 485.5,-.5"/>
<text text-anchor="middle" x="507.5" y="-7.5" font-family="Helvetica,sans-Serif" font-size="10.00" fill="#000000">vector</text>
</g>
<!-- Node4&#45;&gt;Node6 -->
<g id="edge6" class="edge">
<title>Node4&#45;&gt;Node6</title>
<path fill="none" stroke="#191970" d="M507.5,-56.2977C507.5,-48.3834 507.5,-38.6043 507.5,-30.0759"/>
<polygon fill="#191970" stroke="#191970" points="511.0001,-29.8469 507.5,-19.8469 504.0001,-29.847 511.0001,-29.8469"/>
</g>
<!-- Node7 -->
<g id="node8" class="node">
<title>Node7</title>
<polygon fill="none" stroke="#bfbfbf" points="547.5,-.5 547.5,-19.5 599.5,-19.5 599.5,-.5 547.5,-.5"/>
<text text-anchor="middle" x="573.5" y="-7.5" font-family="Helvetica,sans-Serif" font-size="10.00" fill="#000000">memory</text>
</g>
<!-- Node4&#45;&gt;Node7 -->
<g id="edge7" class="edge">
<title>Node4&#45;&gt;Node7</title>
<path fill="none" stroke="#191970" d="M523.8146,-56.2977C533.4533,-47.3163 545.6691,-35.9334 555.5759,-26.702"/>
<polygon fill="#191970" stroke="#191970" points="558.0025,-29.2249 562.9326,-19.8469 553.2304,-24.1036 558.0025,-29.2249"/>
</g>
</g>
</svg>
