<?xml version="1.0" encoding="UTF-8" standalone="no"?>
<!DOCTYPE svg PUBLIC "-//W3C//DTD SVG 1.1//EN"
 "http://www.w3.org/Graphics/SVG/1.1/DTD/svg11.dtd">
<!-- Generated by graphviz version 2.40.1 (20161225.0304)
 -->
<!-- Title: Planners/include/BipedalLocomotion/Planners/ConvexHullHelper.h Pages: 1 -->
<svg width="328pt" height="117pt"
 viewBox="0.00 0.00 328.00 117.00" xmlns="http://www.w3.org/2000/svg" xmlns:xlink="http://www.w3.org/1999/xlink">
<g id="graph0" class="graph" transform="scale(1 1) rotate(0) translate(4 113)">
<title>Planners/include/BipedalLocomotion/Planners/ConvexHullHelper.h</title>
<!-- Node4 -->
<g id="node1" class="node">
<title>Node4</title>
<polygon fill="#bfbfbf" stroke="#000000" points="89.5,-67.5 89.5,-108.5 251.5,-108.5 251.5,-67.5 89.5,-67.5"/>
<text text-anchor="start" x="97.5" y="-96.5" font-family="Helvetica,sans-Serif" font-size="10.00" fill="#000000">Planners/include/Bipedal</text>
<text text-anchor="start" x="97.5" y="-85.5" font-family="Helvetica,sans-Serif" font-size="10.00" fill="#000000">Locomotion/Planners/ConvexHull</text>
<text text-anchor="middle" x="170.5" y="-74.5" font-family="Helvetica,sans-Serif" font-size="10.00" fill="#000000">Helper.h</text>
</g>
<!-- Node5 -->
<g id="node2" class="node">
<title>Node5</title>
<g id="a_node2"><a xlink:href="ConvexHullHelper_8cpp.html" target="_top" xlink:title="Planners/src/ConvexHullHelper.cpp">
<polygon fill="none" stroke="#000000" points="0,-6 0,-25 173,-25 173,-6 0,-6"/>
<text text-anchor="middle" x="86.5" y="-13" font-family="Helvetica,sans-Serif" font-size="10.00" fill="#000000">Planners/src/ConvexHullHelper.cpp</text>
</a>
</g>
</g>
<!-- Node4&#45;&gt;Node5 -->
<g id="edge1" class="edge">
<title>Node4&#45;&gt;Node5</title>
<path fill="none" stroke="#191970" d="M138.8299,-60.6657C124.3375,-48.1574 108.0956,-34.139 97.6058,-25.0853"/>
<polygon fill="#191970" stroke="#191970" points="136.7965,-63.534 146.6537,-67.4183 141.3702,-58.2349 136.7965,-63.534"/>
</g>
<!-- Node6 -->
<g id="node3" class="node">
<title>Node6</title>
<g id="a_node3"><a xlink:href="TimeVaryingDCMPlanner_8cpp.html" target="_top" xlink:title="Planners/src/TimeVarying\lDCMPlanner.cpp">
<polygon fill="none" stroke="#000000" points="191,-.5 191,-30.5 320,-30.5 320,-.5 191,-.5"/>
<text text-anchor="start" x="199" y="-18.5" font-family="Helvetica,sans-Serif" font-size="10.00" fill="#000000">Planners/src/TimeVarying</text>
<text text-anchor="middle" x="255.5" y="-7.5" font-family="Helvetica,sans-Serif" font-size="10.00" fill="#000000">DCMPlanner.cpp</text>
</a>
</g>
</g>
<!-- Node4&#45;&gt;Node6 -->
<g id="edge2" class="edge">
<title>Node4&#45;&gt;Node6</title>
<path fill="none" stroke="#191970" d="M202.3019,-60.8749C214.3099,-50.6327 227.5367,-39.351 237.7976,-30.5991"/>
<polygon fill="#191970" stroke="#191970" points="199.9673,-58.2659 194.6302,-67.4183 204.5099,-63.5918 199.9673,-58.2659"/>
</g>
</g>
</svg>
