<?xml version="1.0" encoding="UTF-8" standalone="no"?>
<!DOCTYPE svg PUBLIC "-//W3C//DTD SVG 1.1//EN"
 "http://www.w3.org/Graphics/SVG/1.1/DTD/svg11.dtd">
<!-- Generated by graphviz version 2.40.1 (20161225.0304)
 -->
<!-- Title: AutoDiff/include/BipedalLocomotion/AutoDiff/CppAD.h Pages: 1 -->
<svg width="321pt" height="106pt"
 viewBox="0.00 0.00 320.50 106.00" xmlns="http://www.w3.org/2000/svg" xmlns:xlink="http://www.w3.org/1999/xlink">
<g id="graph0" class="graph" transform="scale(1 1) rotate(0) translate(4 102)">
<title>AutoDiff/include/BipedalLocomotion/AutoDiff/CppAD.h</title>
<!-- Node0 -->
<g id="node1" class="node">
<title>Node0</title>
<polygon fill="#bfbfbf" stroke="#000000" points="62,-67.5 62,-97.5 211,-97.5 211,-67.5 62,-67.5"/>
<text text-anchor="start" x="70" y="-85.5" font-family="Helvetica,sans-Serif" font-size="10.00" fill="#000000">AutoDiff/include/Bipedal</text>
<text text-anchor="middle" x="136.5" y="-74.5" font-family="Helvetica,sans-Serif" font-size="10.00" fill="#000000">Locomotion/AutoDiff/CppAD.h</text>
</g>
<!-- Node1 -->
<g id="node2" class="node">
<title>Node1</title>
<polygon fill="none" stroke="#bfbfbf" points="0,-6 0,-25 73,-25 73,-6 0,-6"/>
<text text-anchor="middle" x="36.5" y="-13" font-family="Helvetica,sans-Serif" font-size="10.00" fill="#000000">Eigen/Dense</text>
</g>
<!-- Node0&#45;&gt;Node1 -->
<g id="edge1" class="edge">
<title>Node0&#45;&gt;Node1</title>
<path fill="none" stroke="#191970" d="M113.8085,-67.2967C97.4717,-56.351 75.5241,-41.6462 59.1881,-30.701"/>
<polygon fill="#191970" stroke="#191970" points="61.017,-27.7135 50.7612,-25.055 57.1207,-33.5289 61.017,-27.7135"/>
</g>
<!-- Node2 -->
<g id="node3" class="node">
<title>Node2</title>
<polygon fill="none" stroke="#bfbfbf" points="91,-6 91,-25 182,-25 182,-6 91,-6"/>
<text text-anchor="middle" x="136.5" y="-13" font-family="Helvetica,sans-Serif" font-size="10.00" fill="#000000">cppad/cppad.hpp</text>
</g>
<!-- Node0&#45;&gt;Node2 -->
<g id="edge2" class="edge">
<title>Node0&#45;&gt;Node2</title>
<path fill="none" stroke="#191970" d="M136.5,-67.2967C136.5,-57.7699 136.5,-45.3954 136.5,-35.1306"/>
<polygon fill="#191970" stroke="#191970" points="140.0001,-35.0549 136.5,-25.055 133.0001,-35.055 140.0001,-35.0549"/>
</g>
<!-- Node3 -->
<g id="node4" class="node">
<title>Node3</title>
<polygon fill="none" stroke="#bfbfbf" points="200.5,-.5 200.5,-30.5 312.5,-30.5 312.5,-.5 200.5,-.5"/>
<text text-anchor="start" x="208.5" y="-18.5" font-family="Helvetica,sans-Serif" font-size="10.00" fill="#000000">cppad/example/cppad</text>
<text text-anchor="middle" x="256.5" y="-7.5" font-family="Helvetica,sans-Serif" font-size="10.00" fill="#000000">_eigen.hpp</text>
</g>
<!-- Node0&#45;&gt;Node3 -->
<g id="edge3" class="edge">
<title>Node0&#45;&gt;Node3</title>
<path fill="none" stroke="#191970" d="M163.4303,-67.4639C180.2188,-58.0903 202.0306,-45.9121 220.3183,-35.7015"/>
<polygon fill="#191970" stroke="#191970" points="222.2193,-38.6487 229.2444,-30.7177 218.8068,-32.5368 222.2193,-38.6487"/>
</g>
</g>
</svg>
