<?xml version="1.0" encoding="UTF-8" standalone="no"?>
<!DOCTYPE svg PUBLIC "-//W3C//DTD SVG 1.1//EN"
 "http://www.w3.org/Graphics/SVG/1.1/DTD/svg11.dtd">
<!-- Generated by graphviz version 2.40.1 (20161225.0304)
 -->
<!-- Title: Planners/include/BipedalLocomotion/Planners/DCMPlanner.h Pages: 1 -->
<!--zoomable 363 -->
<svg id="main" version="1.1" xmlns="http://www.w3.org/2000/svg" xmlns:xlink="http://www.w3.org/1999/xlink" xml:space="preserve" onload="init(evt)">
<style type="text/css"><![CDATA[
.edge:hover path { stroke: red; }
.edge:hover polygon { stroke: red; fill: red; }
]]></style>
<script type="text/javascript"><![CDATA[
var edges = document.getElementsByTagName('g');
if (edges && edges.length) {
  for (var i=0;i<edges.length;i++) {
    if (edges[i].id.substr(0,4)=='edge') {
      edges[i].setAttribute('class','edge');
    }
  }
}
]]></script>
        <defs>
                <circle id="rim" cx="0" cy="0" r="7"/>
                <circle id="rim2" cx="0" cy="0" r="3.5"/>
                <g id="zoomPlus">
                        <use xlink:href="#rim" fill="#404040">
                                <set attributeName="fill" to="#808080" begin="zoomplus.mouseover" end="zoomplus.mouseout"/>
                        </use>
                        <path d="M-4,0h8M0,-4v8" fill="none" stroke="white" stroke-width="1.5" pointer-events="none"/>
                </g>
                <g id="zoomMin">
                        <use xlink:href="#rim" fill="#404040">
                                <set attributeName="fill" to="#808080" begin="zoomminus.mouseover" end="zoomminus.mouseout"/>
                        </use>
                        <path d="M-4,0h8" fill="none" stroke="white" stroke-width="1.5" pointer-events="none"/>
                </g>
                <g id="dirArrow">
                        <path fill="none" stroke="white" stroke-width="1.5" d="M0,-3.0v7 M-2.5,-0.5L0,-3.0L2.5,-0.5"/>
                </g>
               <g id="resetDef">
                       <use xlink:href="#rim2" fill="#404040">
                               <set attributeName="fill" to="#808080" begin="reset.mouseover" end="reset.mouseout"/>
                       </use>
               </g>
        </defs>

<script type="text/javascript">
var viewWidth = 974;
var viewHeight = 363;
var sectionId = 'dynsection-0';
</script>
<script xlink:href="svgpan.js"/>
<svg id="graph" class="graph">
<g id="viewport">
<title>Planners/include/BipedalLocomotion/Planners/DCMPlanner.h</title>
<!-- Node0 -->
<g id="node1" class="node">
<title>Node0</title>
<polygon fill="#bfbfbf" stroke="#000000" points="561,-324.5 561,-354.5 737,-354.5 737,-324.5 561,-324.5"/>
<text text-anchor="start" x="569" y="-342.5" font-family="Helvetica,sans-Serif" font-size="10.00" fill="#000000">Planners/include/Bipedal</text>
<text text-anchor="middle" x="649" y="-331.5" font-family="Helvetica,sans-Serif" font-size="10.00" fill="#000000">Locomotion/Planners/DCMPlanner.h</text>
</g>
<!-- Node1 -->
<g id="node2" class="node">
<title>Node1</title>
<polygon fill="none" stroke="#bfbfbf" points="0,-129 0,-148 52,-148 52,-129 0,-129"/>
<text text-anchor="middle" x="26" y="-136" font-family="Helvetica,sans-Serif" font-size="10.00" fill="#000000">memory</text>
</g>
<!-- Node0&#45;&gt;Node1 -->
<g id="edge1" class="edge">
<title>Node0&#45;&gt;Node1</title>
<path fill="none" stroke="#191970" d="M560.6791,-332.0901C454.8252,-320.3539 274.4149,-291.124 136,-221 100.4396,-202.9843 64.4659,-173.3676 43.7494,-154.9507"/>
<polygon fill="#191970" stroke="#191970" points="45.8628,-152.1432 36.0965,-148.0359 41.1698,-157.3371 45.8628,-152.1432"/>
</g>
<!-- Node2 -->
<g id="node3" class="node">
<title>Node2</title>
<polygon fill="none" stroke="#bfbfbf" points="738.5,-263 738.5,-282 811.5,-282 811.5,-263 738.5,-263"/>
<text text-anchor="middle" x="775" y="-270" font-family="Helvetica,sans-Serif" font-size="10.00" fill="#000000">Eigen/Dense</text>
</g>
<!-- Node0&#45;&gt;Node2 -->
<g id="edge2" class="edge">
<title>Node0&#45;&gt;Node2</title>
<path fill="none" stroke="#191970" d="M677.2769,-324.4639C698.418,-313.2222 727.1458,-297.9463 747.9784,-286.8686"/>
<polygon fill="#191970" stroke="#191970" points="749.7528,-289.8892 756.9389,-282.1039 746.4663,-283.7087 749.7528,-289.8892"/>
</g>
<!-- Node3 -->
<g id="node4" class="node">
<title>Node3</title>
<g id="a_node4"><a xlink:href="IParametersHandler_8h.html" target="_top" xlink:title="BipedalLocomotion/Parameters\lHandler/IParametersHandler.h">
<polygon fill="none" stroke="#000000" points="366,-257.5 366,-287.5 518,-287.5 518,-257.5 366,-257.5"/>
<text text-anchor="start" x="374" y="-275.5" font-family="Helvetica,sans-Serif" font-size="10.00" fill="#000000">BipedalLocomotion/Parameters</text>
<text text-anchor="middle" x="442" y="-264.5" font-family="Helvetica,sans-Serif" font-size="10.00" fill="#000000">Handler/IParametersHandler.h</text>
</a>
</g>
</g>
<!-- Node0&#45;&gt;Node3 -->
<g id="edge3" class="edge">
<title>Node0&#45;&gt;Node3</title>
<path fill="none" stroke="#191970" d="M602.5452,-324.4639C571.758,-314.499 531.1775,-301.3642 498.5189,-290.7936"/>
<polygon fill="#191970" stroke="#191970" points="499.2493,-287.3513 488.6575,-287.6017 497.0937,-294.0111 499.2493,-287.3513"/>
</g>
<!-- Node15 -->
<g id="node16" class="node">
<title>Node15</title>
<g id="a_node16"><a xlink:href="ContactPhaseList_8h_source.html" target="_top" xlink:title="BipedalLocomotion/Contacts\l/ContactPhaseList.h">
<polygon fill="none" stroke="#000000" points="578,-257.5 578,-287.5 720,-287.5 720,-257.5 578,-257.5"/>
<text text-anchor="start" x="586" y="-275.5" font-family="Helvetica,sans-Serif" font-size="10.00" fill="#000000">BipedalLocomotion/Contacts</text>
<text text-anchor="middle" x="649" y="-264.5" font-family="Helvetica,sans-Serif" font-size="10.00" fill="#000000">/ContactPhaseList.h</text>
</a>
</g>
</g>
<!-- Node0&#45;&gt;Node15 -->
<g id="edge18" class="edge">
<title>Node0&#45;&gt;Node15</title>
<path fill="none" stroke="#191970" d="M649,-324.2967C649,-316.5013 649,-306.7991 649,-297.9064"/>
<polygon fill="#191970" stroke="#191970" points="652.5001,-297.6431 649,-287.6432 645.5001,-297.6432 652.5001,-297.6431"/>
</g>
<!-- Node24 -->
<g id="node25" class="node">
<title>Node24</title>
<g id="a_node25"><a xlink:href="Advanceable_8h.html" target="_top" xlink:title="BipedalLocomotion/System\l/Advanceable.h">
<polygon fill="none" stroke="#000000" points="830,-257.5 830,-287.5 966,-287.5 966,-257.5 830,-257.5"/>
<text text-anchor="start" x="838" y="-275.5" font-family="Helvetica,sans-Serif" font-size="10.00" fill="#000000">BipedalLocomotion/System</text>
<text text-anchor="middle" x="898" y="-264.5" font-family="Helvetica,sans-Serif" font-size="10.00" fill="#000000">/Advanceable.h</text>
</a>
</g>
</g>
<!-- Node0&#45;&gt;Node24 -->
<g id="edge36" class="edge">
<title>Node0&#45;&gt;Node24</title>
<path fill="none" stroke="#191970" d="M704.8805,-324.4639C742.5528,-314.3272 792.4152,-300.9104 832.0368,-290.2491"/>
<polygon fill="#191970" stroke="#191970" points="833.1287,-293.5799 841.8758,-287.6017 831.3098,-286.8203 833.1287,-293.5799"/>
</g>
<!-- Node3&#45;&gt;Node1 -->
<g id="edge4" class="edge">
<title>Node3&#45;&gt;Node1</title>
<path fill="none" stroke="#191970" d="M365.8562,-258.195C322.5937,-249.2352 267.7065,-236.4595 220,-221 147.0503,-197.3603 131.3944,-184.4159 61,-154 59.6274,-153.4069 58.2257,-152.7984 56.8106,-152.1816"/>
<polygon fill="#191970" stroke="#191970" points="58.0078,-148.8848 47.4444,-148.0702 55.1942,-155.2945 58.0078,-148.8848"/>
</g>
<!-- Node4 -->
<g id="node5" class="node">
<title>Node4</title>
<polygon fill="none" stroke="#bfbfbf" points="659.5,-.5 659.5,-19.5 700.5,-19.5 700.5,-.5 659.5,-.5"/>
<text text-anchor="middle" x="680" y="-7.5" font-family="Helvetica,sans-Serif" font-size="10.00" fill="#000000">string</text>
</g>
<!-- Node3&#45;&gt;Node4 -->
<g id="edge5" class="edge">
<title>Node3&#45;&gt;Node4</title>
<path fill="none" stroke="#191970" d="M450.3569,-257.2324C471.6283,-219.4135 531.1813,-119.8373 602,-56 616.3119,-43.099 634.7983,-32.0073 650.1816,-23.9494"/>
<polygon fill="#191970" stroke="#191970" points="651.9536,-26.9754 659.2938,-19.3353 648.7913,-20.7304 651.9536,-26.9754"/>
</g>
<!-- Node5 -->
<g id="node6" class="node">
<title>Node5</title>
<polygon fill="none" stroke="#bfbfbf" points="545,-196 545,-215 589,-215 589,-196 545,-196"/>
<text text-anchor="middle" x="567" y="-203" font-family="Helvetica,sans-Serif" font-size="10.00" fill="#000000">vector</text>
</g>
<!-- Node3&#45;&gt;Node5 -->
<g id="edge6" class="edge">
<title>Node3&#45;&gt;Node5</title>
<path fill="none" stroke="#191970" d="M470.0524,-257.4639C491.0258,-246.2222 519.5256,-230.9463 540.1928,-219.8686"/>
<polygon fill="#191970" stroke="#191970" points="541.922,-222.913 549.0822,-215.1039 538.615,-216.7433 541.922,-222.913"/>
</g>
<!-- Node6 -->
<g id="node7" class="node">
<title>Node6</title>
<g id="a_node7"><a xlink:href="Vector_8h_source.html" target="_top" xlink:title="BipedalLocomotion/Generic\lContainer/Vector.h">
<polygon fill="none" stroke="#000000" points="229,-190.5 229,-220.5 365,-220.5 365,-190.5 229,-190.5"/>
<text text-anchor="start" x="237" y="-208.5" font-family="Helvetica,sans-Serif" font-size="10.00" fill="#000000">BipedalLocomotion/Generic</text>
<text text-anchor="middle" x="297" y="-197.5" font-family="Helvetica,sans-Serif" font-size="10.00" fill="#000000">Container/Vector.h</text>
</a>
</g>
</g>
<!-- Node3&#45;&gt;Node6 -->
<g id="edge7" class="edge">
<title>Node3&#45;&gt;Node6</title>
<path fill="none" stroke="#191970" d="M409.4592,-257.4639C388.6369,-247.8426 361.4196,-235.2663 338.9764,-224.896"/>
<polygon fill="#191970" stroke="#191970" points="340.2286,-221.6191 329.6828,-220.6017 337.2924,-227.9735 340.2286,-221.6191"/>
</g>
<!-- Node8 -->
<g id="node9" class="node">
<title>Node8</title>
<g id="a_node9"><a xlink:href="TemplateHelpers_8h_source.html" target="_top" xlink:title="BipedalLocomotion/Generic\lContainer/TemplateHelpers.h">
<polygon fill="none" stroke="#000000" points="342,-123.5 342,-153.5 486,-153.5 486,-123.5 342,-123.5"/>
<text text-anchor="start" x="350" y="-141.5" font-family="Helvetica,sans-Serif" font-size="10.00" fill="#000000">BipedalLocomotion/Generic</text>
<text text-anchor="middle" x="414" y="-130.5" font-family="Helvetica,sans-Serif" font-size="10.00" fill="#000000">Container/TemplateHelpers.h</text>
</a>
</g>
</g>
<!-- Node3&#45;&gt;Node8 -->
<g id="edge17" class="edge">
<title>Node3&#45;&gt;Node8</title>
<path fill="none" stroke="#191970" d="M438.8425,-257.389C434.095,-234.6691 425.0617,-191.438 419.295,-163.8405"/>
<polygon fill="#191970" stroke="#191970" points="422.6604,-162.8341 417.1889,-153.7614 415.8084,-164.2659 422.6604,-162.8341"/>
</g>
<!-- Node6&#45;&gt;Node1 -->
<g id="edge16" class="edge">
<title>Node6&#45;&gt;Node1</title>
<path fill="none" stroke="#191970" d="M228.8937,-194.4084C181.2224,-185.735 116.4076,-172.1082 61,-154 59.105,-153.3807 57.1734,-152.6936 55.24,-151.9633"/>
<polygon fill="#191970" stroke="#191970" points="56.2972,-148.6142 45.7167,-148.0632 53.6443,-155.092 56.2972,-148.6142"/>
</g>
<!-- Node7 -->
<g id="node8" class="node">
<title>Node7</title>
<polygon fill="none" stroke="#bfbfbf" points="70,-129 70,-148 184,-148 184,-129 70,-129"/>
<text text-anchor="middle" x="127" y="-136" font-family="Helvetica,sans-Serif" font-size="10.00" fill="#000000">iDynTree/Core/Span.h</text>
</g>
<!-- Node6&#45;&gt;Node7 -->
<g id="edge8" class="edge">
<title>Node6&#45;&gt;Node7</title>
<path fill="none" stroke="#191970" d="M258.8487,-190.4639C229.4255,-178.8677 189.1107,-162.9789 160.8314,-151.8335"/>
<polygon fill="#191970" stroke="#191970" points="161.955,-148.5144 151.3682,-148.1039 159.3883,-155.0269 161.955,-148.5144"/>
</g>
<!-- Node6&#45;&gt;Node8 -->
<g id="edge9" class="edge">
<title>Node6&#45;&gt;Node8</title>
<path fill="none" stroke="#191970" d="M323.2571,-190.4639C339.5511,-181.1332 360.6982,-169.0232 378.4784,-158.8415"/>
<polygon fill="#191970" stroke="#191970" points="380.4872,-161.7244 387.4257,-153.7177 377.0086,-155.6499 380.4872,-161.7244"/>
</g>
<!-- Node12 -->
<g id="node13" class="node">
<title>Node12</title>
<polygon fill="none" stroke="#bfbfbf" points="464.5,-62 464.5,-81 523.5,-81 523.5,-62 464.5,-62"/>
<text text-anchor="middle" x="494" y="-69" font-family="Helvetica,sans-Serif" font-size="10.00" fill="#000000">functional</text>
</g>
<!-- Node6&#45;&gt;Node12 -->
<g id="edge13" class="edge">
<title>Node6&#45;&gt;Node12</title>
<path fill="none" stroke="#191970" d="M365.1758,-196.7152C415.9018,-188.6156 479.0045,-174.6882 495,-154 508.7778,-136.1801 505.2516,-109.123 500.4814,-90.9009"/>
<polygon fill="#191970" stroke="#191970" points="503.7717,-89.6857 497.5724,-81.094 497.0607,-91.6764 503.7717,-89.6857"/>
</g>
<!-- Node13 -->
<g id="node14" class="node">
<title>Node13</title>
<polygon fill="none" stroke="#bfbfbf" points="202.5,-129 202.5,-148 251.5,-148 251.5,-129 202.5,-129"/>
<text text-anchor="middle" x="227" y="-136" font-family="Helvetica,sans-Serif" font-size="10.00" fill="#000000">cassert</text>
</g>
<!-- Node6&#45;&gt;Node13 -->
<g id="edge14" class="edge">
<title>Node6&#45;&gt;Node13</title>
<path fill="none" stroke="#191970" d="M281.1159,-190.2967C270.2096,-179.8578 255.731,-165.9997 244.4944,-155.2446"/>
<polygon fill="#191970" stroke="#191970" points="246.6271,-152.4411 236.9828,-148.055 241.7869,-157.498 246.6271,-152.4411"/>
</g>
<!-- Node14 -->
<g id="node15" class="node">
<title>Node14</title>
<polygon fill="none" stroke="#bfbfbf" points="270,-129 270,-148 324,-148 324,-129 270,-129"/>
<text text-anchor="middle" x="297" y="-136" font-family="Helvetica,sans-Serif" font-size="10.00" fill="#000000">iostream</text>
</g>
<!-- Node6&#45;&gt;Node14 -->
<g id="edge15" class="edge">
<title>Node6&#45;&gt;Node14</title>
<path fill="none" stroke="#191970" d="M297,-190.2967C297,-180.7699 297,-168.3954 297,-158.1306"/>
<polygon fill="#191970" stroke="#191970" points="300.5001,-158.0549 297,-148.055 293.5001,-158.055 300.5001,-158.0549"/>
</g>
<!-- Node9 -->
<g id="node10" class="node">
<title>Node9</title>
<polygon fill="none" stroke="#bfbfbf" points="384,-62 384,-81 446,-81 446,-62 384,-62"/>
<text text-anchor="middle" x="415" y="-69" font-family="Helvetica,sans-Serif" font-size="10.00" fill="#000000">type_traits</text>
</g>
<!-- Node8&#45;&gt;Node9 -->
<g id="edge10" class="edge">
<title>Node8&#45;&gt;Node9</title>
<path fill="none" stroke="#191970" d="M414.2269,-123.2967C414.3691,-113.7699 414.5538,-101.3954 414.707,-91.1306"/>
<polygon fill="#191970" stroke="#191970" points="418.2077,-91.1061 414.8574,-81.055 411.2084,-91.0016 418.2077,-91.1061"/>
</g>
<!-- Node10 -->
<g id="node11" class="node">
<title>Node10</title>
<polygon fill="none" stroke="#bfbfbf" points="216,-62 216,-81 282,-81 282,-62 216,-62"/>
<text text-anchor="middle" x="249" y="-69" font-family="Helvetica,sans-Serif" font-size="10.00" fill="#000000">string_view</text>
</g>
<!-- Node8&#45;&gt;Node10 -->
<g id="edge11" class="edge">
<title>Node8&#45;&gt;Node10</title>
<path fill="none" stroke="#191970" d="M376.9708,-123.4639C348.5377,-111.9183 309.6254,-96.1176 282.1966,-84.9798"/>
<polygon fill="#191970" stroke="#191970" points="283.2335,-81.6234 272.6514,-81.1039 280.5999,-88.1091 283.2335,-81.6234"/>
</g>
<!-- Node11 -->
<g id="node12" class="node">
<title>Node11</title>
<polygon fill="none" stroke="#bfbfbf" points="300.5,-62 300.5,-81 365.5,-81 365.5,-62 300.5,-62"/>
<text text-anchor="middle" x="333" y="-69" font-family="Helvetica,sans-Serif" font-size="10.00" fill="#000000">Eigen/Core</text>
</g>
<!-- Node8&#45;&gt;Node11 -->
<g id="edge12" class="edge">
<title>Node8&#45;&gt;Node11</title>
<path fill="none" stroke="#191970" d="M395.6198,-123.2967C382.7546,-112.6551 365.5937,-98.4602 352.4904,-87.6217"/>
<polygon fill="#191970" stroke="#191970" points="354.4879,-84.7318 344.5515,-81.055 350.0263,-90.1257 354.4879,-84.7318"/>
</g>
<!-- Node15&#45;&gt;Node5 -->
<g id="edge35" class="edge">
<title>Node15&#45;&gt;Node5</title>
<path fill="none" stroke="#191970" d="M630.3929,-257.2967C617.3689,-246.6551 599.9961,-232.4602 586.731,-221.6217"/>
<polygon fill="#191970" stroke="#191970" points="588.6525,-218.6719 578.6941,-215.055 584.2234,-224.0926 588.6525,-218.6719"/>
</g>
<!-- Node16 -->
<g id="node17" class="node">
<title>Node16</title>
<g id="a_node17"><a xlink:href="Contact_8h.html" target="_top" xlink:title="BipedalLocomotion/Contacts\l/Contact.h">
<polygon fill="none" stroke="#000000" points="798,-56.5 798,-86.5 940,-86.5 940,-56.5 798,-56.5"/>
<text text-anchor="start" x="806" y="-74.5" font-family="Helvetica,sans-Serif" font-size="10.00" fill="#000000">BipedalLocomotion/Contacts</text>
<text text-anchor="middle" x="869" y="-63.5" font-family="Helvetica,sans-Serif" font-size="10.00" fill="#000000">/Contact.h</text>
</a>
</g>
</g>
<!-- Node15&#45;&gt;Node16 -->
<g id="edge19" class="edge">
<title>Node15&#45;&gt;Node16</title>
<path fill="none" stroke="#191970" d="M720.2799,-258.6553C795.7161,-243.9393 904.2156,-222.5617 906,-221 939.6662,-191.5353 947.6806,-163.6524 929,-123 923.4821,-110.9921 913.6299,-100.7327 903.4832,-92.6048"/>
<polygon fill="#191970" stroke="#191970" points="905.4696,-89.7201 895.3599,-86.5507 901.2866,-95.3328 905.4696,-89.7201"/>
</g>
<!-- Node18 -->
<g id="node19" class="node">
<title>Node18</title>
<g id="a_node19"><a xlink:href="ContactList_8h.html" target="_top" xlink:title="BipedalLocomotion/Contacts\l/ContactList.h">
<polygon fill="none" stroke="#000000" points="585,-123.5 585,-153.5 727,-153.5 727,-123.5 585,-123.5"/>
<text text-anchor="start" x="593" y="-141.5" font-family="Helvetica,sans-Serif" font-size="10.00" fill="#000000">BipedalLocomotion/Contacts</text>
<text text-anchor="middle" x="656" y="-130.5" font-family="Helvetica,sans-Serif" font-size="10.00" fill="#000000">/ContactList.h</text>
</a>
</g>
</g>
<!-- Node15&#45;&gt;Node18 -->
<g id="edge22" class="edge">
<title>Node15&#45;&gt;Node18</title>
<path fill="none" stroke="#191970" d="M643.4732,-257.2493C638.1877,-240.6572 631.6209,-213.3727 636,-190 637.7012,-180.9202 640.9532,-171.3829 644.3483,-163.0177"/>
<polygon fill="#191970" stroke="#191970" points="647.563,-164.4017 648.3152,-153.8336 641.1368,-161.6259 647.563,-164.4017"/>
</g>
<!-- Node21 -->
<g id="node22" class="node">
<title>Node21</title>
<g id="a_node22"><a xlink:href="ContactPhase_8h.html" target="_top" xlink:title="BipedalLocomotion/Contacts\l/ContactPhase.h">
<polygon fill="none" stroke="#000000" points="737,-190.5 737,-220.5 879,-220.5 879,-190.5 737,-190.5"/>
<text text-anchor="start" x="745" y="-208.5" font-family="Helvetica,sans-Serif" font-size="10.00" fill="#000000">BipedalLocomotion/Contacts</text>
<text text-anchor="middle" x="808" y="-197.5" font-family="Helvetica,sans-Serif" font-size="10.00" fill="#000000">/ContactPhase.h</text>
</a>
</g>
</g>
<!-- Node15&#45;&gt;Node21 -->
<g id="edge28" class="edge">
<title>Node15&#45;&gt;Node21</title>
<path fill="none" stroke="#191970" d="M684.6827,-257.4639C707.7192,-247.7567 737.8941,-235.0415 762.6286,-224.6188"/>
<polygon fill="#191970" stroke="#191970" points="764.3055,-227.7103 772.1617,-220.6017 761.5873,-221.2596 764.3055,-227.7103"/>
</g>
<!-- Node22 -->
<g id="node23" class="node">
<title>Node22</title>
<polygon fill="none" stroke="#bfbfbf" points="836.5,-129 836.5,-148 919.5,-148 919.5,-129 836.5,-129"/>
<text text-anchor="middle" x="878" y="-136" font-family="Helvetica,sans-Serif" font-size="10.00" fill="#000000">unordered_map</text>
</g>
<!-- Node15&#45;&gt;Node22 -->
<g id="edge33" class="edge">
<title>Node15&#45;&gt;Node22</title>
<path fill="none" stroke="#191970" d="M720.2727,-258.2508C789.7221,-244.2007 885.2918,-224.354 888,-221 902.3873,-203.1823 895.0887,-175.7428 887.4652,-157.4634"/>
<polygon fill="#191970" stroke="#191970" points="890.5469,-155.7851 883.2166,-148.1354 884.1765,-158.6867 890.5469,-155.7851"/>
</g>
<!-- Node23 -->
<g id="node24" class="node">
<title>Node23</title>
<polygon fill="none" stroke="#bfbfbf" points="645.5,-196 645.5,-215 718.5,-215 718.5,-196 645.5,-196"/>
<text text-anchor="middle" x="682" y="-203" font-family="Helvetica,sans-Serif" font-size="10.00" fill="#000000">initializer_list</text>
</g>
<!-- Node15&#45;&gt;Node23 -->
<g id="edge34" class="edge">
<title>Node15&#45;&gt;Node23</title>
<path fill="none" stroke="#191970" d="M656.4882,-257.2967C661.3303,-247.4658 667.6659,-234.6026 672.812,-224.1545"/>
<polygon fill="#191970" stroke="#191970" points="676.0151,-225.5724 677.2938,-215.055 669.7355,-222.4794 676.0151,-225.5724"/>
</g>
<!-- Node16&#45;&gt;Node4 -->
<g id="edge21" class="edge">
<title>Node16&#45;&gt;Node4</title>
<path fill="none" stroke="#191970" d="M822.7654,-56.4554C787.8117,-45.0816 740.8155,-29.7892 710.4631,-19.9126"/>
<polygon fill="#191970" stroke="#191970" points="711.4414,-16.5503 700.8491,-16.7842 709.2753,-23.2068 711.4414,-16.5503"/>
</g>
<!-- Node17 -->
<g id="node18" class="node">
<title>Node17</title>
<polygon fill="none" stroke="#bfbfbf" points="833.5,-.5 833.5,-19.5 904.5,-19.5 904.5,-.5 833.5,-.5"/>
<text text-anchor="middle" x="869" y="-7.5" font-family="Helvetica,sans-Serif" font-size="10.00" fill="#000000">manif/SE3.h</text>
</g>
<!-- Node16&#45;&gt;Node17 -->
<g id="edge20" class="edge">
<title>Node16&#45;&gt;Node17</title>
<path fill="none" stroke="#191970" d="M869,-56.2977C869,-48.3834 869,-38.6043 869,-30.0759"/>
<polygon fill="#191970" stroke="#191970" points="872.5001,-29.8469 869,-19.8469 865.5001,-29.847 872.5001,-29.8469"/>
</g>
<!-- Node18&#45;&gt;Node4 -->
<g id="edge26" class="edge">
<title>Node18&#45;&gt;Node4</title>
<path fill="none" stroke="#191970" d="M637.1498,-123.3959C619.0082,-106.9291 596.0878,-79.751 609,-56 617.7722,-39.8643 634.915,-28.5165 650.1579,-21.1292"/>
<polygon fill="#191970" stroke="#191970" points="651.6127,-24.3127 659.3114,-17.0339 648.7539,-17.923 651.6127,-24.3127"/>
</g>
<!-- Node18&#45;&gt;Node12 -->
<g id="edge27" class="edge">
<title>Node18&#45;&gt;Node12</title>
<path fill="none" stroke="#191970" d="M619.644,-123.4639C591.7279,-111.9183 553.5231,-96.1176 526.593,-84.9798"/>
<polygon fill="#191970" stroke="#191970" points="527.8,-81.6915 517.2214,-81.1039 525.1246,-88.1601 527.8,-81.6915"/>
</g>
<!-- Node18&#45;&gt;Node16 -->
<g id="edge23" class="edge">
<title>Node18&#45;&gt;Node16</title>
<path fill="none" stroke="#191970" d="M703.8014,-123.4639C735.6175,-113.456 777.5978,-100.2509 811.2769,-89.657"/>
<polygon fill="#191970" stroke="#191970" points="812.5012,-92.9411 820.9902,-86.6017 810.4007,-86.2636 812.5012,-92.9411"/>
</g>
<!-- Node19 -->
<g id="node20" class="node">
<title>Node19</title>
<polygon fill="none" stroke="#bfbfbf" points="618,-62 618,-81 694,-81 694,-62 618,-62"/>
<text text-anchor="middle" x="656" y="-69" font-family="Helvetica,sans-Serif" font-size="10.00" fill="#000000">manif/manif.h</text>
</g>
<!-- Node18&#45;&gt;Node19 -->
<g id="edge24" class="edge">
<title>Node18&#45;&gt;Node19</title>
<path fill="none" stroke="#191970" d="M656,-123.2967C656,-113.7699 656,-101.3954 656,-91.1306"/>
<polygon fill="#191970" stroke="#191970" points="659.5001,-91.0549 656,-81.055 652.5001,-91.055 659.5001,-91.0549"/>
</g>
<!-- Node20 -->
<g id="node21" class="node">
<title>Node20</title>
<polygon fill="none" stroke="#bfbfbf" points="712,-62 712,-81 742,-81 742,-62 712,-62"/>
<text text-anchor="middle" x="727" y="-69" font-family="Helvetica,sans-Serif" font-size="10.00" fill="#000000">set</text>
</g>
<!-- Node18&#45;&gt;Node20 -->
<g id="edge25" class="edge">
<title>Node18&#45;&gt;Node20</title>
<path fill="none" stroke="#191970" d="M672.111,-123.2967C683.2805,-112.7564 698.144,-98.7303 709.5867,-87.9323"/>
<polygon fill="#191970" stroke="#191970" points="712.0037,-90.4638 716.8746,-81.055 707.1994,-85.3727 712.0037,-90.4638"/>
</g>
<!-- Node21&#45;&gt;Node4 -->
<g id="edge32" class="edge">
<title>Node21&#45;&gt;Node4</title>
<path fill="none" stroke="#191970" d="M805.4682,-190.3674C799.9906,-161.4879 784.7132,-97.6831 751,-56 739.9382,-42.3231 723.6868,-31.3753 709.5228,-23.5965"/>
<polygon fill="#191970" stroke="#191970" points="711.0779,-20.4602 700.5919,-18.9455 707.8446,-26.6687 711.0779,-20.4602"/>
</g>
<!-- Node21&#45;&gt;Node16 -->
<g id="edge29" class="edge">
<title>Node21&#45;&gt;Node16</title>
<path fill="none" stroke="#191970" d="M809.4161,-190.2048C811.4682,-173.0968 816.2724,-144.9135 827,-123 831.9975,-112.7916 839.3685,-102.8134 846.5461,-94.4"/>
<polygon fill="#191970" stroke="#191970" points="849.2329,-96.646 853.2848,-86.8566 844.0125,-91.9826 849.2329,-96.646"/>
</g>
<!-- Node21&#45;&gt;Node18 -->
<g id="edge30" class="edge">
<title>Node21&#45;&gt;Node18</title>
<path fill="none" stroke="#191970" d="M773.8882,-190.4639C751.9633,-180.7996 723.2746,-168.154 699.6881,-157.7572"/>
<polygon fill="#191970" stroke="#191970" points="700.8228,-154.4325 690.2605,-153.6017 697.9993,-160.8379 700.8228,-154.4325"/>
</g>
<!-- Node21&#45;&gt;Node22 -->
<g id="edge31" class="edge">
<title>Node21&#45;&gt;Node22</title>
<path fill="none" stroke="#191970" d="M823.8841,-190.2967C834.7904,-179.8578 849.269,-165.9997 860.5056,-155.2446"/>
<polygon fill="#191970" stroke="#191970" points="863.2131,-157.498 868.0172,-148.055 858.3729,-152.4411 863.2131,-157.498"/>
</g>
</g>
</svg>
        <g id="navigator" transform="translate(0 0)" fill="#404254">
                <rect fill="#f2f5e9" fill-opacity="0.5" stroke="#606060" stroke-width=".5" x="0" y="0" width="60" height="60"/>
                <use id="zoomplus" xlink:href="#zoomPlus" x="17" y="9" onmousedown="handleZoom(evt,'in')"/>
                <use id="zoomminus" xlink:href="#zoomMin" x="42" y="9" onmousedown="handleZoom(evt,'out')"/>
                <use id="reset" xlink:href="#resetDef" x="30" y="36" onmousedown="handleReset()"/>
                <g id="arrowUp" xlink:href="#dirArrow" transform="translate(30 24)" onmousedown="handlePan(0,-1)">
                  <use xlink:href="#rim" fill="#404040">
                        <set attributeName="fill" to="#808080" begin="arrowUp.mouseover" end="arrowUp.mouseout"/>
                  </use>
                  <path fill="none" stroke="white" stroke-width="1.5" d="M0,-3.0v7 M-2.5,-0.5L0,-3.0L2.5,-0.5"/>
                </g>
                <g id="arrowRight" xlink:href="#dirArrow" transform="rotate(90) translate(36 -43)" onmousedown="handlePan(1,0)">
                  <use xlink:href="#rim" fill="#404040">
                        <set attributeName="fill" to="#808080" begin="arrowRight.mouseover" end="arrowRight.mouseout"/>
                  </use>
                  <path fill="none" stroke="white" stroke-width="1.5" d="M0,-3.0v7 M-2.5,-0.5L0,-3.0L2.5,-0.5"/>
                </g>
                <g id="arrowDown" xlink:href="#dirArrow" transform="rotate(180) translate(-30 -48)" onmousedown="handlePan(0,1)">
                  <use xlink:href="#rim" fill="#404040">
                        <set attributeName="fill" to="#808080" begin="arrowDown.mouseover" end="arrowDown.mouseout"/>
                  </use>
                  <path fill="none" stroke="white" stroke-width="1.5" d="M0,-3.0v7 M-2.5,-0.5L0,-3.0L2.5,-0.5"/>
                </g>
                <g id="arrowLeft" xlink:href="#dirArrow" transform="rotate(270) translate(-36 17)" onmousedown="handlePan(-1,0)">
                  <use xlink:href="#rim" fill="#404040">
                        <set attributeName="fill" to="#808080" begin="arrowLeft.mouseover" end="arrowLeft.mouseout"/>
                  </use>
                  <path fill="none" stroke="white" stroke-width="1.5" d="M0,-3.0v7 M-2.5,-0.5L0,-3.0L2.5,-0.5"/>
                </g>
        </g>
        <svg viewBox="0 0 15 15" width="100%" height="30px" preserveAspectRatio="xMaxYMin meet">
         <g id="arrow_out" transform="scale(0.3 0.3)">
          <a xlink:href="DCMPlanner_8h__incl_org.svg" target="_base">
           <rect id="button" ry="5" rx="5" y="6" x="6" height="38" width="38"
                fill="#f2f5e9" fill-opacity="0.5" stroke="#606060" stroke-width="1.0"/>
           <path id="arrow"
             d="M 11.500037,31.436501 C 11.940474,20.09759 22.043105,11.32322 32.158766,21.979434 L 37.068811,17.246167 C 37.068811,17.246167 37.088388,32 37.088388,32 L 22.160133,31.978069 C 22.160133,31.978069 26.997745,27.140456 26.997745,27.140456 C 18.528582,18.264221 13.291696,25.230495 11.500037,31.436501 z"
             style="fill:#404040;"/>
          </a>
         </g>
        </svg>
</svg>
