<?xml version="1.0" encoding="UTF-8" standalone="no"?>
<!DOCTYPE svg PUBLIC "-//W3C//DTD SVG 1.1//EN"
 "http://www.w3.org/Graphics/SVG/1.1/DTD/svg11.dtd">
<!-- Generated by graphviz version 2.40.1 (20161225.0304)
 -->
<!-- Title: Planners/include/BipedalLocomotion/Planners/DCMPlanner.h Pages: 1 -->
<svg width="342pt" height="184pt"
 viewBox="0.00 0.00 341.50 184.00" xmlns="http://www.w3.org/2000/svg" xmlns:xlink="http://www.w3.org/1999/xlink">
<g id="graph0" class="graph" transform="scale(1 1) rotate(0) translate(4 180)">
<title>Planners/include/BipedalLocomotion/Planners/DCMPlanner.h</title>
<!-- Node25 -->
<g id="node1" class="node">
<title>Node25</title>
<polygon fill="#bfbfbf" stroke="#000000" points="83,-145.5 83,-175.5 259,-175.5 259,-145.5 83,-145.5"/>
<text text-anchor="start" x="91" y="-163.5" font-family="Helvetica,sans-Serif" font-size="10.00" fill="#000000">Planners/include/Bipedal</text>
<text text-anchor="middle" x="171" y="-152.5" font-family="Helvetica,sans-Serif" font-size="10.00" fill="#000000">Locomotion/Planners/DCMPlanner.h</text>
</g>
<!-- Node26 -->
<g id="node2" class="node">
<title>Node26</title>
<g id="a_node2"><a xlink:href="TimeVaryingDCMPlanner_8h.html" target="_top" xlink:title="Planners/include/Bipedal\lLocomotion/Planners/TimeVarying\lDCMPlanner.h">
<polygon fill="none" stroke="#000000" points="0,-67.5 0,-108.5 166,-108.5 166,-67.5 0,-67.5"/>
<text text-anchor="start" x="8" y="-96.5" font-family="Helvetica,sans-Serif" font-size="10.00" fill="#000000">Planners/include/Bipedal</text>
<text text-anchor="start" x="8" y="-85.5" font-family="Helvetica,sans-Serif" font-size="10.00" fill="#000000">Locomotion/Planners/TimeVarying</text>
<text text-anchor="middle" x="83" y="-74.5" font-family="Helvetica,sans-Serif" font-size="10.00" fill="#000000">DCMPlanner.h</text>
</a>
</g>
</g>
<!-- Node25&#45;&gt;Node26 -->
<g id="edge1" class="edge">
<title>Node25&#45;&gt;Node26</title>
<path fill="none" stroke="#191970" d="M145.0249,-139.1001C133.2899,-129.432 119.4867,-118.06 107.8846,-108.5015"/>
<polygon fill="#191970" stroke="#191970" points="142.8228,-141.8206 152.7663,-145.478 147.2738,-136.418 142.8228,-141.8206"/>
</g>
<!-- Node28 -->
<g id="node4" class="node">
<title>Node28</title>
<g id="a_node4"><a xlink:href="DCMPlanner_8cpp.html" target="_top" xlink:title="Planners/src/DCMPlanner.cpp">
<polygon fill="none" stroke="#000000" points="184.5,-78.5 184.5,-97.5 333.5,-97.5 333.5,-78.5 184.5,-78.5"/>
<text text-anchor="middle" x="259" y="-85.5" font-family="Helvetica,sans-Serif" font-size="10.00" fill="#000000">Planners/src/DCMPlanner.cpp</text>
</a>
</g>
</g>
<!-- Node25&#45;&gt;Node28 -->
<g id="edge3" class="edge">
<title>Node25&#45;&gt;Node28</title>
<path fill="none" stroke="#191970" d="M197.0223,-139.0612C213.6758,-125.3409 234.4789,-108.202 247.2474,-97.6825"/>
<polygon fill="#191970" stroke="#191970" points="194.7262,-136.418 189.2337,-145.478 199.1772,-141.8206 194.7262,-136.418"/>
</g>
<!-- Node27 -->
<g id="node3" class="node">
<title>Node27</title>
<g id="a_node3"><a xlink:href="TimeVaryingDCMPlanner_8cpp.html" target="_top" xlink:title="Planners/src/TimeVarying\lDCMPlanner.cpp">
<polygon fill="none" stroke="#000000" points="18.5,-.5 18.5,-30.5 147.5,-30.5 147.5,-.5 18.5,-.5"/>
<text text-anchor="start" x="26.5" y="-18.5" font-family="Helvetica,sans-Serif" font-size="10.00" fill="#000000">Planners/src/TimeVarying</text>
<text text-anchor="middle" x="83" y="-7.5" font-family="Helvetica,sans-Serif" font-size="10.00" fill="#000000">DCMPlanner.cpp</text>
</a>
</g>
</g>
<!-- Node26&#45;&gt;Node27 -->
<g id="edge2" class="edge">
<title>Node26&#45;&gt;Node27</title>
<path fill="none" stroke="#191970" d="M83,-57.3279C83,-48.0871 83,-38.3508 83,-30.5991"/>
<polygon fill="#191970" stroke="#191970" points="79.5001,-57.4183 83,-67.4183 86.5001,-57.4184 79.5001,-57.4183"/>
</g>
</g>
</svg>
