<?xml version="1.0" encoding="UTF-8" standalone="no"?>
<!DOCTYPE svg PUBLIC "-//W3C//DTD SVG 1.1//EN"
 "http://www.w3.org/Graphics/SVG/1.1/DTD/svg11.dtd">
<!-- Generated by graphviz version 2.40.1 (20161225.0304)
 -->
<!-- Title: TSID Pages: 1 -->
<svg width="226pt" height="276pt"
 viewBox="0.00 0.00 225.50 276.00" xmlns="http://www.w3.org/2000/svg" xmlns:xlink="http://www.w3.org/1999/xlink">
<g id="graph0" class="graph" transform="scale(1 1) rotate(0) translate(4 272)">
<title>TSID</title>
<g id="clust1" class="cluster">
<title>clusterdir_60eb704e68d0f246e1a9db6678e8e135</title>
<g id="a_clust1"><a xlink:href="dir_60eb704e68d0f246e1a9db6678e8e135.html" target="_top">
<polygon fill="#eeeeff" stroke="#000000" points="67.5,-136 67.5,-260 209.5,-260 209.5,-136 67.5,-136"/>
</a>
</g>
</g>
<!-- dir_60eb704e68d0f246e1a9db6678e8e135 -->
<g id="node1" class="node">
<title>dir_60eb704e68d0f246e1a9db6678e8e135</title>
<text text-anchor="middle" x="174.5" y="-231.5" font-family="Helvetica,sans-Serif" font-size="10.00" fill="#000000">TSID</text>
</g>
<!-- dir_c71ab3320c8509a09c0dd382264c1c8c -->
<g id="node2" class="node">
<title>dir_c71ab3320c8509a09c0dd382264c1c8c</title>
<g id="a_node2"><a xlink:href="dir_c71ab3320c8509a09c0dd382264c1c8c.html" target="_top" xlink:title="include">
<polygon fill="#ffffff" stroke="#ff0000" points="129.5,-180 75.5,-180 75.5,-144 129.5,-144 129.5,-180"/>
<text text-anchor="middle" x="102.5" y="-159.5" font-family="Helvetica,sans-Serif" font-size="10.00" fill="#000000">include</text>
</a>
</g>
</g>
<!-- dir_967a94bae6ec677146d0e6dc30a32242 -->
<g id="node5" class="node">
<title>dir_967a94bae6ec677146d0e6dc30a32242</title>
<g id="a_node5"><a xlink:href="dir_967a94bae6ec677146d0e6dc30a32242.html" target="_top" xlink:title="ParametersHandler">
<polygon fill="none" stroke="#ff0000" points="101,-36 0,-36 0,0 101,0 101,-36"/>
<text text-anchor="middle" x="50.5" y="-15.5" font-family="Helvetica,sans-Serif" font-size="10.00" fill="#000000">ParametersHandler</text>
</a>
</g>
</g>
<!-- dir_c71ab3320c8509a09c0dd382264c1c8c&#45;&gt;dir_967a94bae6ec677146d0e6dc30a32242 -->
<g id="edge3" class="edge">
<title>dir_c71ab3320c8509a09c0dd382264c1c8c&#45;&gt;dir_967a94bae6ec677146d0e6dc30a32242</title>
<path fill="none" stroke="#000000" d="M87.4469,-143.5875C80.0401,-133.6175 71.6239,-120.7555 66.5,-108 58.5385,-88.1805 54.5259,-64.3253 52.5106,-46.1557"/>
<polygon fill="#000000" stroke="#000000" points="55.9928,-45.8019 51.5401,-36.1882 49.0258,-46.4803 55.9928,-45.8019"/>
<g id="a_edge3&#45;headlabel"><a xlink:href="dir_000065_000034.html" target="_top" xlink:title="1">
<text text-anchor="middle" x="59.167" y="-46.6044" font-family="Helvetica,sans-Serif" font-size="10.00" fill="#000000">1</text>
</a>
</g>
</g>
<!-- dir_9af51e3826d4f9e80d9103b2de543e84 -->
<g id="node6" class="node">
<title>dir_9af51e3826d4f9e80d9103b2de543e84</title>
<g id="a_node6"><a xlink:href="dir_9af51e3826d4f9e80d9103b2de543e84.html" target="_top" xlink:title="System">
<polygon fill="none" stroke="#ff0000" points="129.5,-108 75.5,-108 75.5,-72 129.5,-72 129.5,-108"/>
<text text-anchor="middle" x="102.5" y="-87.5" font-family="Helvetica,sans-Serif" font-size="10.00" fill="#000000">System</text>
</a>
</g>
</g>
<!-- dir_c71ab3320c8509a09c0dd382264c1c8c&#45;&gt;dir_9af51e3826d4f9e80d9103b2de543e84 -->
<g id="edge4" class="edge">
<title>dir_c71ab3320c8509a09c0dd382264c1c8c&#45;&gt;dir_9af51e3826d4f9e80d9103b2de543e84</title>
<path fill="none" stroke="#000000" d="M102.5,-143.8314C102.5,-136.131 102.5,-126.9743 102.5,-118.4166"/>
<polygon fill="#000000" stroke="#000000" points="106.0001,-118.4132 102.5,-108.4133 99.0001,-118.4133 106.0001,-118.4132"/>
<g id="a_edge4&#45;headlabel"><a xlink:href="dir_000065_000059.html" target="_top" xlink:title="1">
<text text-anchor="middle" x="108.8393" y="-119.5079" font-family="Helvetica,sans-Serif" font-size="10.00" fill="#000000">1</text>
</a>
</g>
</g>
<!-- dir_7c82ce1fce8d15bcafbaeb468baadb31 -->
<g id="node3" class="node">
<title>dir_7c82ce1fce8d15bcafbaeb468baadb31</title>
<g id="a_node3"><a xlink:href="dir_7c82ce1fce8d15bcafbaeb468baadb31.html" target="_top" xlink:title="src">
<polygon fill="#ffffff" stroke="#000000" points="129.5,-252 75.5,-252 75.5,-216 129.5,-216 129.5,-252"/>
<text text-anchor="middle" x="102.5" y="-231.5" font-family="Helvetica,sans-Serif" font-size="10.00" fill="#000000">src</text>
</a>
</g>
</g>
<!-- dir_7c82ce1fce8d15bcafbaeb468baadb31&#45;&gt;dir_c71ab3320c8509a09c0dd382264c1c8c -->
<g id="edge2" class="edge">
<title>dir_7c82ce1fce8d15bcafbaeb468baadb31&#45;&gt;dir_c71ab3320c8509a09c0dd382264c1c8c</title>
<path fill="none" stroke="#000000" d="M102.5,-215.8314C102.5,-208.131 102.5,-198.9743 102.5,-190.4166"/>
<polygon fill="#000000" stroke="#000000" points="106.0001,-190.4132 102.5,-180.4133 99.0001,-190.4133 106.0001,-190.4132"/>
<g id="a_edge2&#45;headlabel"><a xlink:href="dir_000068_000065.html" target="_top" xlink:title="5">
<text text-anchor="middle" x="108.8393" y="-191.5079" font-family="Helvetica,sans-Serif" font-size="10.00" fill="#000000">5</text>
</a>
</g>
</g>
<!-- dir_c0f0fcf6fc0109eca0321acba0536c3b -->
<g id="node4" class="node">
<title>dir_c0f0fcf6fc0109eca0321acba0536c3b</title>
<g id="a_node4"><a xlink:href="dir_c0f0fcf6fc0109eca0321acba0536c3b.html" target="_top" xlink:title="Conversions">
<polygon fill="none" stroke="#ff0000" points="191,-36 120,-36 120,0 191,0 191,-36"/>
<text text-anchor="middle" x="155.5" y="-15.5" font-family="Helvetica,sans-Serif" font-size="10.00" fill="#000000">Conversions</text>
</a>
</g>
</g>
<!-- dir_7c82ce1fce8d15bcafbaeb468baadb31&#45;&gt;dir_c0f0fcf6fc0109eca0321acba0536c3b -->
<g id="edge1" class="edge">
<title>dir_7c82ce1fce8d15bcafbaeb468baadb31&#45;&gt;dir_c0f0fcf6fc0109eca0321acba0536c3b</title>
<path fill="none" stroke="#000000" d="M117.9299,-215.7311C125.4398,-205.8004 133.8346,-192.9302 138.5,-180 154.6255,-135.3085 156.9072,-79.5033 156.5707,-46.4206"/>
<polygon fill="#000000" stroke="#000000" points="160.0644,-46.0519 156.3724,-36.1212 153.0657,-46.1867 160.0644,-46.0519"/>
<g id="a_edge1&#45;headlabel"><a xlink:href="dir_000068_000015.html" target="_top" xlink:title="1">
<text text-anchor="middle" x="162.9722" y="-47.0913" font-family="Helvetica,sans-Serif" font-size="10.00" fill="#000000">1</text>
</a>
</g>
</g>
<!-- dir_9af51e3826d4f9e80d9103b2de543e84&#45;&gt;dir_c0f0fcf6fc0109eca0321acba0536c3b -->
<g id="edge5" class="edge">
<title>dir_9af51e3826d4f9e80d9103b2de543e84&#45;&gt;dir_c0f0fcf6fc0109eca0321acba0536c3b</title>
<path fill="none" stroke="#000000" d="M115.8741,-71.8314C121.9162,-63.6232 129.1763,-53.7606 135.8221,-44.7323"/>
<polygon fill="#000000" stroke="#000000" points="138.8363,-46.5415 141.9458,-36.4133 133.1989,-42.3918 138.8363,-46.5415"/>
<g id="a_edge5&#45;headlabel"><a xlink:href="dir_000059_000015.html" target="_top" xlink:title="1">
<text text-anchor="middle" x="138.9919" y="-48.6195" font-family="Helvetica,sans-Serif" font-size="10.00" fill="#000000">1</text>
</a>
</g>
</g>
<!-- dir_9af51e3826d4f9e80d9103b2de543e84&#45;&gt;dir_967a94bae6ec677146d0e6dc30a32242 -->
<g id="edge6" class="edge">
<title>dir_9af51e3826d4f9e80d9103b2de543e84&#45;&gt;dir_967a94bae6ec677146d0e6dc30a32242</title>
<path fill="none" stroke="#000000" d="M89.3782,-71.8314C83.4501,-63.6232 76.3271,-53.7606 69.8067,-44.7323"/>
<polygon fill="#000000" stroke="#000000" points="72.4908,-42.4708 63.7985,-36.4133 66.816,-46.5693 72.4908,-42.4708"/>
<g id="a_edge6&#45;headlabel"><a xlink:href="dir_000059_000034.html" target="_top" xlink:title="3">
<text text-anchor="middle" x="76.8971" y="-41.2226" font-family="Helvetica,sans-Serif" font-size="10.00" fill="#000000">3</text>
</a>
</g>
</g>
</g>
</svg>
