<?xml version="1.0" encoding="UTF-8" standalone="no"?>
<!DOCTYPE svg PUBLIC "-//W3C//DTD SVG 1.1//EN"
 "http://www.w3.org/Graphics/SVG/1.1/DTD/svg11.dtd">
<!-- Generated by graphviz version 2.40.1 (20161225.0304)
 -->
<!-- Title: Planners Pages: 1 -->
<svg width="219pt" height="420pt"
 viewBox="0.00 0.00 219.00 420.00" xmlns="http://www.w3.org/2000/svg" xmlns:xlink="http://www.w3.org/1999/xlink">
<g id="graph0" class="graph" transform="scale(1 1) rotate(0) translate(4 416)">
<title>Planners</title>
<g id="clust1" class="cluster">
<title>clusterdir_a348f6be41c750b1a06d8a5ec33f4f95</title>
<g id="a_clust1"><a xlink:href="dir_a348f6be41c750b1a06d8a5ec33f4f95.html" target="_top">
<polygon fill="#eeeeff" stroke="#000000" points="59,-280 59,-404 203,-404 203,-280 59,-280"/>
</a>
</g>
</g>
<!-- dir_a348f6be41c750b1a06d8a5ec33f4f95 -->
<g id="node1" class="node">
<title>dir_a348f6be41c750b1a06d8a5ec33f4f95</title>
<text text-anchor="middle" x="167" y="-375.5" font-family="Helvetica,sans-Serif" font-size="10.00" fill="#000000">Planners</text>
</g>
<!-- dir_6304edfde60406afeb48b5b2adc90484 -->
<g id="node2" class="node">
<title>dir_6304edfde60406afeb48b5b2adc90484</title>
<g id="a_node2"><a xlink:href="dir_6304edfde60406afeb48b5b2adc90484.html" target="_top" xlink:title="include">
<polygon fill="#ffffff" stroke="#ff0000" points="121,-324 67,-324 67,-288 121,-288 121,-324"/>
<text text-anchor="middle" x="94" y="-303.5" font-family="Helvetica,sans-Serif" font-size="10.00" fill="#000000">include</text>
</a>
</g>
</g>
<!-- dir_6d28a1f3fea9cd50f0f51ef4779c2863 -->
<g id="node5" class="node">
<title>dir_6d28a1f3fea9cd50f0f51ef4779c2863</title>
<g id="a_node5"><a xlink:href="dir_6d28a1f3fea9cd50f0f51ef4779c2863.html" target="_top" xlink:title="Contacts">
<polygon fill="none" stroke="#ff0000" points="56,-252 0,-252 0,-216 56,-216 56,-252"/>
<text text-anchor="middle" x="28" y="-231.5" font-family="Helvetica,sans-Serif" font-size="10.00" fill="#000000">Contacts</text>
</a>
</g>
</g>
<!-- dir_6304edfde60406afeb48b5b2adc90484&#45;&gt;dir_6d28a1f3fea9cd50f0f51ef4779c2863 -->
<g id="edge1" class="edge">
<title>dir_6304edfde60406afeb48b5b2adc90484&#45;&gt;dir_6d28a1f3fea9cd50f0f51ef4779c2863</title>
<path fill="none" stroke="#000000" d="M77.3454,-287.8314C69.5886,-279.3694 60.2198,-269.1489 51.739,-259.8971"/>
<polygon fill="#000000" stroke="#000000" points="54.2162,-257.4198 44.8788,-252.4133 49.0561,-262.1499 54.2162,-257.4198"/>
<g id="a_edge1&#45;headlabel"><a xlink:href="dir_000045_000009.html" target="_top" xlink:title="1">
<text text-anchor="middle" x="58.7381" y="-255.651" font-family="Helvetica,sans-Serif" font-size="10.00" fill="#000000">1</text>
</a>
</g>
</g>
<!-- dir_967a94bae6ec677146d0e6dc30a32242 -->
<g id="node6" class="node">
<title>dir_967a94bae6ec677146d0e6dc30a32242</title>
<g id="a_node6"><a xlink:href="dir_967a94bae6ec677146d0e6dc30a32242.html" target="_top" xlink:title="ParametersHandler">
<polygon fill="none" stroke="#ff0000" points="153.5,-36 52.5,-36 52.5,0 153.5,0 153.5,-36"/>
<text text-anchor="middle" x="103" y="-15.5" font-family="Helvetica,sans-Serif" font-size="10.00" fill="#000000">ParametersHandler</text>
</a>
</g>
</g>
<!-- dir_6304edfde60406afeb48b5b2adc90484&#45;&gt;dir_967a94bae6ec677146d0e6dc30a32242 -->
<g id="edge2" class="edge">
<title>dir_6304edfde60406afeb48b5b2adc90484&#45;&gt;dir_967a94bae6ec677146d0e6dc30a32242</title>
<path fill="none" stroke="#000000" d="M94.563,-287.9843C96.0846,-239.2939 100.2876,-104.7961 102.1232,-46.0573"/>
<polygon fill="#000000" stroke="#000000" points="105.6231,-46.1134 102.4372,-36.0089 98.6265,-45.8946 105.6231,-46.1134"/>
<g id="a_edge2&#45;headlabel"><a xlink:href="dir_000045_000034.html" target="_top" xlink:title="2">
<text text-anchor="middle" x="108.3488" y="-47.2949" font-family="Helvetica,sans-Serif" font-size="10.00" fill="#000000">2</text>
</a>
</g>
</g>
<!-- dir_9af51e3826d4f9e80d9103b2de543e84 -->
<g id="node7" class="node">
<title>dir_9af51e3826d4f9e80d9103b2de543e84</title>
<g id="a_node7"><a xlink:href="dir_9af51e3826d4f9e80d9103b2de543e84.html" target="_top" xlink:title="System">
<polygon fill="none" stroke="#ff0000" points="166,-180 112,-180 112,-144 166,-144 166,-180"/>
<text text-anchor="middle" x="139" y="-159.5" font-family="Helvetica,sans-Serif" font-size="10.00" fill="#000000">System</text>
</a>
</g>
</g>
<!-- dir_6304edfde60406afeb48b5b2adc90484&#45;&gt;dir_9af51e3826d4f9e80d9103b2de543e84 -->
<g id="edge3" class="edge">
<title>dir_6304edfde60406afeb48b5b2adc90484&#45;&gt;dir_9af51e3826d4f9e80d9103b2de543e84</title>
<path fill="none" stroke="#000000" d="M99.6993,-287.7623C107.4085,-263.0928 121.2313,-218.8598 130.2584,-189.9731"/>
<polygon fill="#000000" stroke="#000000" points="133.7049,-190.6784 133.347,-180.0896 127.0235,-188.5904 133.7049,-190.6784"/>
<g id="a_edge3&#45;headlabel"><a xlink:href="dir_000045_000059.html" target="_top" xlink:title="4">
<text text-anchor="middle" x="135.3428" y="-192.4563" font-family="Helvetica,sans-Serif" font-size="10.00" fill="#000000">4</text>
</a>
</g>
</g>
<!-- dir_05f49592e9e614afb25d33cbec8afaa6 -->
<g id="node3" class="node">
<title>dir_05f49592e9e614afb25d33cbec8afaa6</title>
<g id="a_node3"><a xlink:href="dir_05f49592e9e614afb25d33cbec8afaa6.html" target="_top" xlink:title="src">
<polygon fill="#ffffff" stroke="#000000" points="121,-396 67,-396 67,-360 121,-360 121,-396"/>
<text text-anchor="middle" x="94" y="-375.5" font-family="Helvetica,sans-Serif" font-size="10.00" fill="#000000">src</text>
</a>
</g>
</g>
<!-- dir_05f49592e9e614afb25d33cbec8afaa6&#45;&gt;dir_6304edfde60406afeb48b5b2adc90484 -->
<g id="edge4" class="edge">
<title>dir_05f49592e9e614afb25d33cbec8afaa6&#45;&gt;dir_6304edfde60406afeb48b5b2adc90484</title>
<path fill="none" stroke="#000000" d="M94,-359.8314C94,-352.131 94,-342.9743 94,-334.4166"/>
<polygon fill="#000000" stroke="#000000" points="97.5001,-334.4132 94,-324.4133 90.5001,-334.4133 97.5001,-334.4132"/>
<g id="a_edge4&#45;headlabel"><a xlink:href="dir_000048_000045.html" target="_top" xlink:title="7">
<text text-anchor="middle" x="100.3393" y="-335.5079" font-family="Helvetica,sans-Serif" font-size="10.00" fill="#000000">7</text>
</a>
</g>
</g>
<!-- dir_5bce4665f02041fc00c7e7e07b63c945 -->
<g id="node4" class="node">
<title>dir_5bce4665f02041fc00c7e7e07b63c945</title>
<g id="a_node4"><a xlink:href="dir_5bce4665f02041fc00c7e7e07b63c945.html" target="_top" xlink:title="Math">
<polygon fill="none" stroke="#ff0000" points="204,-108 150,-108 150,-72 204,-72 204,-108"/>
<text text-anchor="middle" x="177" y="-87.5" font-family="Helvetica,sans-Serif" font-size="10.00" fill="#000000">Math</text>
</a>
</g>
</g>
<!-- dir_05f49592e9e614afb25d33cbec8afaa6&#45;&gt;dir_5bce4665f02041fc00c7e7e07b63c945 -->
<g id="edge5" class="edge">
<title>dir_05f49592e9e614afb25d33cbec8afaa6&#45;&gt;dir_5bce4665f02041fc00c7e7e07b63c945</title>
<path fill="none" stroke="#000000" d="M117.7947,-359.9057C128.6579,-350.3919 140.7011,-337.8378 148,-324 183.3614,-256.9591 182.7417,-164.4863 179.6907,-118.4397"/>
<polygon fill="#000000" stroke="#000000" points="183.168,-118.0065 178.9273,-108.2974 176.1878,-118.5319 183.168,-118.0065"/>
<g id="a_edge5&#45;headlabel"><a xlink:href="dir_000048_000029.html" target="_top" xlink:title="1">
<text text-anchor="middle" x="186.269" y="-118.8779" font-family="Helvetica,sans-Serif" font-size="10.00" fill="#000000">1</text>
</a>
</g>
</g>
<!-- dir_05f49592e9e614afb25d33cbec8afaa6&#45;&gt;dir_6d28a1f3fea9cd50f0f51ef4779c2863 -->
<g id="edge6" class="edge">
<title>dir_05f49592e9e614afb25d33cbec8afaa6&#45;&gt;dir_6d28a1f3fea9cd50f0f51ef4779c2863</title>
<path fill="none" stroke="#000000" d="M80.0526,-359.7454C72.7765,-349.6125 64.1384,-336.5508 58,-324 48.2156,-303.9944 40.3978,-280.0141 35.1987,-261.8389"/>
<polygon fill="#000000" stroke="#000000" points="38.5556,-260.846 32.5146,-252.1422 31.8093,-262.7135 38.5556,-260.846"/>
<g id="a_edge6&#45;headlabel"><a xlink:href="dir_000048_000009.html" target="_top" xlink:title="1">
<text text-anchor="middle" x="42.2508" y="-261.0529" font-family="Helvetica,sans-Serif" font-size="10.00" fill="#000000">1</text>
</a>
</g>
</g>
<!-- dir_05f49592e9e614afb25d33cbec8afaa6&#45;&gt;dir_9af51e3826d4f9e80d9103b2de543e84 -->
<g id="edge7" class="edge">
<title>dir_05f49592e9e614afb25d33cbec8afaa6&#45;&gt;dir_9af51e3826d4f9e80d9103b2de543e84</title>
<path fill="none" stroke="#000000" d="M109.6917,-359.8219C117.2733,-349.9161 125.6531,-337.0408 130,-324 144.9655,-279.1035 144.1642,-223.3623 141.8453,-190.3479"/>
<polygon fill="#000000" stroke="#000000" points="145.3095,-189.7597 141.0213,-180.0714 138.3318,-190.3192 145.3095,-189.7597"/>
<g id="a_edge7&#45;headlabel"><a xlink:href="dir_000048_000059.html" target="_top" xlink:title="1">
<text text-anchor="middle" x="148.4269" y="-190.6159" font-family="Helvetica,sans-Serif" font-size="10.00" fill="#000000">1</text>
</a>
</g>
</g>
<!-- dir_5bce4665f02041fc00c7e7e07b63c945&#45;&gt;dir_967a94bae6ec677146d0e6dc30a32242 -->
<g id="edge8" class="edge">
<title>dir_5bce4665f02041fc00c7e7e07b63c945&#45;&gt;dir_967a94bae6ec677146d0e6dc30a32242</title>
<path fill="none" stroke="#000000" d="M158.3267,-71.8314C149.4751,-63.219 138.7514,-52.7851 129.1105,-43.4048"/>
<polygon fill="#000000" stroke="#000000" points="131.2754,-40.6279 121.6674,-36.1628 126.3939,-45.645 131.2754,-40.6279"/>
<g id="a_edge8&#45;headlabel"><a xlink:href="dir_000029_000034.html" target="_top" xlink:title="1">
<text text-anchor="middle" x="135.8317" y="-38.5996" font-family="Helvetica,sans-Serif" font-size="10.00" fill="#000000">1</text>
</a>
</g>
</g>
<!-- dir_6d28a1f3fea9cd50f0f51ef4779c2863&#45;&gt;dir_967a94bae6ec677146d0e6dc30a32242 -->
<g id="edge9" class="edge">
<title>dir_6d28a1f3fea9cd50f0f51ef4779c2863&#45;&gt;dir_967a94bae6ec677146d0e6dc30a32242</title>
<path fill="none" stroke="#000000" d="M30.8854,-215.9391C36.1539,-185.4046 48.7863,-122.02 70,-72 73.9064,-62.7891 79.2092,-53.2984 84.4207,-44.8923"/>
<polygon fill="#000000" stroke="#000000" points="87.5059,-46.5656 89.9696,-36.2612 81.6177,-42.7802 87.5059,-46.5656"/>
<g id="a_edge9&#45;headlabel"><a xlink:href="dir_000009_000034.html" target="_top" xlink:title="1">
<text text-anchor="middle" x="87.9503" y="-48.6247" font-family="Helvetica,sans-Serif" font-size="10.00" fill="#000000">1</text>
</a>
</g>
</g>
<!-- dir_6d28a1f3fea9cd50f0f51ef4779c2863&#45;&gt;dir_9af51e3826d4f9e80d9103b2de543e84 -->
<g id="edge10" class="edge">
<title>dir_6d28a1f3fea9cd50f0f51ef4779c2863&#45;&gt;dir_9af51e3826d4f9e80d9103b2de543e84</title>
<path fill="none" stroke="#000000" d="M56.01,-215.8314C70.2909,-206.5681 87.8205,-195.1975 103.0834,-185.2972"/>
<polygon fill="#000000" stroke="#000000" points="105.2815,-188.0434 111.7664,-179.665 101.4721,-182.1706 105.2815,-188.0434"/>
<g id="a_edge10&#45;headlabel"><a xlink:href="dir_000009_000059.html" target="_top" xlink:title="1">
<text text-anchor="middle" x="103.8108" y="-189.8815" font-family="Helvetica,sans-Serif" font-size="10.00" fill="#000000">1</text>
</a>
</g>
</g>
<!-- dir_9af51e3826d4f9e80d9103b2de543e84&#45;&gt;dir_5bce4665f02041fc00c7e7e07b63c945 -->
<g id="edge11" class="edge">
<title>dir_9af51e3826d4f9e80d9103b2de543e84&#45;&gt;dir_5bce4665f02041fc00c7e7e07b63c945</title>
<path fill="none" stroke="#000000" d="M148.589,-143.8314C152.8317,-135.7925 157.9121,-126.1666 162.596,-117.2918"/>
<polygon fill="#000000" stroke="#000000" points="165.7096,-118.8908 167.2819,-108.4133 159.5189,-115.6235 165.7096,-118.8908"/>
<g id="a_edge11&#45;headlabel"><a xlink:href="dir_000059_000029.html" target="_top" xlink:title="1">
<text text-anchor="middle" x="166.5428" y="-120.895" font-family="Helvetica,sans-Serif" font-size="10.00" fill="#000000">1</text>
</a>
</g>
</g>
<!-- dir_9af51e3826d4f9e80d9103b2de543e84&#45;&gt;dir_967a94bae6ec677146d0e6dc30a32242 -->
<g id="edge12" class="edge">
<title>dir_9af51e3826d4f9e80d9103b2de543e84&#45;&gt;dir_967a94bae6ec677146d0e6dc30a32242</title>
<path fill="none" stroke="#000000" d="M134.4406,-143.7623C128.2732,-119.0928 117.2149,-74.8598 109.9933,-45.9731"/>
<polygon fill="#000000" stroke="#000000" points="113.3433,-44.9421 107.5224,-36.0896 106.5523,-46.6399 113.3433,-44.9421"/>
<g id="a_edge12&#45;headlabel"><a xlink:href="dir_000059_000034.html" target="_top" xlink:title="3">
<text text-anchor="middle" x="116.9696" y="-45.2408" font-family="Helvetica,sans-Serif" font-size="10.00" fill="#000000">3</text>
</a>
</g>
</g>
</g>
</svg>
