<?xml version="1.0" encoding="UTF-8" standalone="no"?>
<!DOCTYPE svg PUBLIC "-//W3C//DTD SVG 1.1//EN"
 "http://www.w3.org/Graphics/SVG/1.1/DTD/svg11.dtd">
<!-- Generated by graphviz version 2.40.1 (20161225.0304)
 -->
<!-- Title: RobotInterface/YarpImplementation Pages: 1 -->
<svg width="232pt" height="303pt"
 viewBox="0.00 0.00 232.00 303.00" xmlns="http://www.w3.org/2000/svg" xmlns:xlink="http://www.w3.org/1999/xlink">
<g id="graph0" class="graph" transform="scale(1 1) rotate(0) translate(4 299)">
<title>RobotInterface/YarpImplementation</title>
<g id="clust1" class="cluster">
<title>clusterdir_183a93f204ba427687a375eee3cb506f</title>
<g id="a_clust1"><a xlink:href="dir_183a93f204ba427687a375eee3cb506f.html" target="_top" xlink:title="RobotInterface">
<polygon fill="#ddddee" stroke="#000000" points="8,-128 8,-287 216,-287 216,-128 8,-128"/>
<text text-anchor="middle" x="112" y="-275" font-family="Helvetica,sans-Serif" font-size="10.00" fill="#000000">RobotInterface</text>
</a>
</g>
</g>
<g id="clust2" class="cluster">
<title>clusterdir_eb3edf255354662b8fa1ba982f84794b</title>
<g id="a_clust2"><a xlink:href="dir_eb3edf255354662b8fa1ba982f84794b.html" target="_top">
<polygon fill="#eeeeff" stroke="#000000" points="16,-136 16,-260 208,-260 208,-136 16,-136"/>
</a>
</g>
</g>
<!-- dir_eb3edf255354662b8fa1ba982f84794b -->
<g id="node1" class="node">
<title>dir_eb3edf255354662b8fa1ba982f84794b</title>
<text text-anchor="middle" x="148" y="-231.5" font-family="Helvetica,sans-Serif" font-size="10.00" fill="#000000">YarpImplementation</text>
</g>
<!-- dir_28664388ac6feebf5d87807ba2a08c78 -->
<g id="node2" class="node">
<title>dir_28664388ac6feebf5d87807ba2a08c78</title>
<g id="a_node2"><a xlink:href="dir_28664388ac6feebf5d87807ba2a08c78.html" target="_top" xlink:title="include">
<polygon fill="#ffffff" stroke="#ff0000" points="78,-180 24,-180 24,-144 78,-144 78,-180"/>
<text text-anchor="middle" x="51" y="-159.5" font-family="Helvetica,sans-Serif" font-size="10.00" fill="#000000">include</text>
</a>
</g>
</g>
<!-- dir_967a94bae6ec677146d0e6dc30a32242 -->
<g id="node4" class="node">
<title>dir_967a94bae6ec677146d0e6dc30a32242</title>
<g id="a_node4"><a xlink:href="dir_967a94bae6ec677146d0e6dc30a32242.html" target="_top" xlink:title="ParametersHandler">
<polygon fill="none" stroke="#ff0000" points="101.5,-36 .5,-36 .5,0 101.5,0 101.5,-36"/>
<text text-anchor="middle" x="51" y="-15.5" font-family="Helvetica,sans-Serif" font-size="10.00" fill="#000000">ParametersHandler</text>
</a>
</g>
</g>
<!-- dir_28664388ac6feebf5d87807ba2a08c78&#45;&gt;dir_967a94bae6ec677146d0e6dc30a32242 -->
<g id="edge1" class="edge">
<title>dir_28664388ac6feebf5d87807ba2a08c78&#45;&gt;dir_967a94bae6ec677146d0e6dc30a32242</title>
<path fill="none" stroke="#000000" d="M35.0095,-143.9169C27.3462,-134.0371 18.9834,-121.1563 15,-108 10.3635,-92.6865 10.3635,-87.3135 15,-72 17.9564,-62.2355 23.3252,-52.6229 29.03,-44.2762"/>
<polygon fill="#000000" stroke="#000000" points="31.9414,-46.2239 35.0095,-36.0831 26.2871,-42.0973 31.9414,-46.2239"/>
<g id="a_edge1&#45;headlabel"><a xlink:href="dir_000055_000034.html" target="_top" xlink:title="1">
<text text-anchor="middle" x="32.1158" y="-48.3013" font-family="Helvetica,sans-Serif" font-size="10.00" fill="#000000">1</text>
</a>
</g>
</g>
<!-- dir_9af51e3826d4f9e80d9103b2de543e84 -->
<g id="node5" class="node">
<title>dir_9af51e3826d4f9e80d9103b2de543e84</title>
<g id="a_node5"><a xlink:href="dir_9af51e3826d4f9e80d9103b2de543e84.html" target="_top" xlink:title="System">
<polygon fill="none" stroke="#ff0000" points="78,-108 24,-108 24,-72 78,-72 78,-108"/>
<text text-anchor="middle" x="51" y="-87.5" font-family="Helvetica,sans-Serif" font-size="10.00" fill="#000000">System</text>
</a>
</g>
</g>
<!-- dir_28664388ac6feebf5d87807ba2a08c78&#45;&gt;dir_9af51e3826d4f9e80d9103b2de543e84 -->
<g id="edge2" class="edge">
<title>dir_28664388ac6feebf5d87807ba2a08c78&#45;&gt;dir_9af51e3826d4f9e80d9103b2de543e84</title>
<path fill="none" stroke="#000000" d="M51,-143.8314C51,-136.131 51,-126.9743 51,-118.4166"/>
<polygon fill="#000000" stroke="#000000" points="54.5001,-118.4132 51,-108.4133 47.5001,-118.4133 54.5001,-118.4132"/>
<g id="a_edge2&#45;headlabel"><a xlink:href="dir_000055_000059.html" target="_top" xlink:title="1">
<text text-anchor="middle" x="57.3393" y="-119.5079" font-family="Helvetica,sans-Serif" font-size="10.00" fill="#000000">1</text>
</a>
</g>
</g>
<!-- dir_67bdeb3466b925f8e20a99baf7fc4e99 -->
<g id="node6" class="node">
<title>dir_67bdeb3466b925f8e20a99baf7fc4e99</title>
<g id="a_node6"><a xlink:href="dir_67bdeb3466b925f8e20a99baf7fc4e99.html" target="_top" xlink:title="include">
<polygon fill="none" stroke="#ff0000" points="150,-108 96,-108 96,-72 150,-72 150,-108"/>
<text text-anchor="middle" x="123" y="-87.5" font-family="Helvetica,sans-Serif" font-size="10.00" fill="#000000">include</text>
</a>
</g>
</g>
<!-- dir_28664388ac6feebf5d87807ba2a08c78&#45;&gt;dir_67bdeb3466b925f8e20a99baf7fc4e99 -->
<g id="edge3" class="edge">
<title>dir_28664388ac6feebf5d87807ba2a08c78&#45;&gt;dir_67bdeb3466b925f8e20a99baf7fc4e99</title>
<path fill="none" stroke="#000000" d="M69.1686,-143.8314C77.7152,-135.2848 88.0557,-124.9443 97.3802,-115.6198"/>
<polygon fill="#000000" stroke="#000000" points="99.9905,-117.9592 104.5867,-108.4133 95.0408,-113.0095 99.9905,-117.9592"/>
<g id="a_edge3&#45;headlabel"><a xlink:href="dir_000055_000050.html" target="_top" xlink:title="2">
<text text-anchor="middle" x="99.4564" y="-120.0087" font-family="Helvetica,sans-Serif" font-size="10.00" fill="#000000">2</text>
</a>
</g>
</g>
<!-- dir_20da31e6ff273447e737d39fa1a6d921 -->
<g id="node3" class="node">
<title>dir_20da31e6ff273447e737d39fa1a6d921</title>
<g id="a_node3"><a xlink:href="dir_20da31e6ff273447e737d39fa1a6d921.html" target="_top" xlink:title="src">
<polygon fill="#ffffff" stroke="#000000" points="78,-252 24,-252 24,-216 78,-216 78,-252"/>
<text text-anchor="middle" x="51" y="-231.5" font-family="Helvetica,sans-Serif" font-size="10.00" fill="#000000">src</text>
</a>
</g>
</g>
<!-- dir_20da31e6ff273447e737d39fa1a6d921&#45;&gt;dir_28664388ac6feebf5d87807ba2a08c78 -->
<g id="edge4" class="edge">
<title>dir_20da31e6ff273447e737d39fa1a6d921&#45;&gt;dir_28664388ac6feebf5d87807ba2a08c78</title>
<path fill="none" stroke="#000000" d="M51,-215.8314C51,-208.131 51,-198.9743 51,-190.4166"/>
<polygon fill="#000000" stroke="#000000" points="54.5001,-190.4132 51,-180.4133 47.5001,-190.4133 54.5001,-190.4132"/>
<g id="a_edge4&#45;headlabel"><a xlink:href="dir_000058_000055.html" target="_top" xlink:title="3">
<text text-anchor="middle" x="57.3393" y="-191.5079" font-family="Helvetica,sans-Serif" font-size="10.00" fill="#000000">3</text>
</a>
</g>
</g>
<!-- dir_9af51e3826d4f9e80d9103b2de543e84&#45;&gt;dir_967a94bae6ec677146d0e6dc30a32242 -->
<g id="edge5" class="edge">
<title>dir_9af51e3826d4f9e80d9103b2de543e84&#45;&gt;dir_967a94bae6ec677146d0e6dc30a32242</title>
<path fill="none" stroke="#000000" d="M51,-71.8314C51,-64.131 51,-54.9743 51,-46.4166"/>
<polygon fill="#000000" stroke="#000000" points="54.5001,-46.4132 51,-36.4133 47.5001,-46.4133 54.5001,-46.4132"/>
<g id="a_edge5&#45;headlabel"><a xlink:href="dir_000059_000034.html" target="_top" xlink:title="3">
<text text-anchor="middle" x="57.3393" y="-47.5079" font-family="Helvetica,sans-Serif" font-size="10.00" fill="#000000">3</text>
</a>
</g>
</g>
<!-- dir_67bdeb3466b925f8e20a99baf7fc4e99&#45;&gt;dir_967a94bae6ec677146d0e6dc30a32242 -->
<g id="edge6" class="edge">
<title>dir_67bdeb3466b925f8e20a99baf7fc4e99&#45;&gt;dir_967a94bae6ec677146d0e6dc30a32242</title>
<path fill="none" stroke="#000000" d="M104.8314,-71.8314C96.2848,-63.2848 85.9443,-52.9443 76.6198,-43.6198"/>
<polygon fill="#000000" stroke="#000000" points="78.9592,-41.0095 69.4133,-36.4133 74.0095,-45.9592 78.9592,-41.0095"/>
<g id="a_edge6&#45;headlabel"><a xlink:href="dir_000050_000034.html" target="_top" xlink:title="2">
<text text-anchor="middle" x="83.5087" y="-39.0436" font-family="Helvetica,sans-Serif" font-size="10.00" fill="#000000">2</text>
</a>
</g>
</g>
</g>
</svg>
