<?xml version="1.0" encoding="UTF-8" standalone="no"?>
<!DOCTYPE svg PUBLIC "-//W3C//DTD SVG 1.1//EN"
 "http://www.w3.org/Graphics/SVG/1.1/DTD/svg11.dtd">
<!-- Generated by graphviz version 2.40.1 (20161225.0304)
 -->
<!-- Title: Contacts/include/BipedalLocomotion Pages: 1 -->
<svg width="322pt" height="231pt"
 viewBox="0.00 0.00 322.00 231.00" xmlns="http://www.w3.org/2000/svg" xmlns:xlink="http://www.w3.org/1999/xlink">
<g id="graph0" class="graph" transform="scale(1 1) rotate(0) translate(4 227)">
<title>Contacts/include/BipedalLocomotion</title>
<g id="clust1" class="cluster">
<title>clusterdir_3b6bb2bdccd4d208f4ef8584a059477b</title>
<g id="a_clust1"><a xlink:href="dir_3b6bb2bdccd4d208f4ef8584a059477b.html" target="_top" xlink:title="include">
<polygon fill="#ddddee" stroke="#000000" points="8,-56 8,-215 252,-215 252,-56 8,-56"/>
<text text-anchor="middle" x="130" y="-203" font-family="Helvetica,sans-Serif" font-size="10.00" fill="#000000">include</text>
</a>
</g>
</g>
<g id="clust2" class="cluster">
<title>clusterdir_ddf391fe403635d3f89a3ec81913d0f7</title>
<g id="a_clust2"><a xlink:href="dir_ddf391fe403635d3f89a3ec81913d0f7.html" target="_top">
<polygon fill="#eeeeff" stroke="#000000" points="16,-64 16,-188 244,-188 244,-64 16,-64"/>
</a>
</g>
</g>
<!-- dir_ddf391fe403635d3f89a3ec81913d0f7 -->
<g id="node1" class="node">
<title>dir_ddf391fe403635d3f89a3ec81913d0f7</title>
<text text-anchor="middle" x="186" y="-159.5" font-family="Helvetica,sans-Serif" font-size="10.00" fill="#000000">BipedalLocomotion</text>
</g>
<!-- dir_ec7340a5f9111b1967f9f9c4d1051f42 -->
<g id="node2" class="node">
<title>dir_ec7340a5f9111b1967f9f9c4d1051f42</title>
<g id="a_node2"><a xlink:href="dir_ec7340a5f9111b1967f9f9c4d1051f42.html" target="_top" xlink:title="ContactDetectors">
<polygon fill="#ffffff" stroke="#000000" points="118,-180 24,-180 24,-144 118,-144 118,-180"/>
<text text-anchor="middle" x="71" y="-159.5" font-family="Helvetica,sans-Serif" font-size="10.00" fill="#000000">ContactDetectors</text>
</a>
</g>
</g>
<!-- dir_57e6714789f5382b0f176540fd7f5521 -->
<g id="node3" class="node">
<title>dir_57e6714789f5382b0f176540fd7f5521</title>
<g id="a_node3"><a xlink:href="dir_57e6714789f5382b0f176540fd7f5521.html" target="_top" xlink:title="Contacts">
<polygon fill="#ffffff" stroke="#000000" points="99,-108 43,-108 43,-72 99,-72 99,-108"/>
<text text-anchor="middle" x="71" y="-87.5" font-family="Helvetica,sans-Serif" font-size="10.00" fill="#000000">Contacts</text>
</a>
</g>
</g>
<!-- dir_ec7340a5f9111b1967f9f9c4d1051f42&#45;&gt;dir_57e6714789f5382b0f176540fd7f5521 -->
<g id="edge1" class="edge">
<title>dir_ec7340a5f9111b1967f9f9c4d1051f42&#45;&gt;dir_57e6714789f5382b0f176540fd7f5521</title>
<path fill="none" stroke="#000000" d="M71,-143.8314C71,-136.131 71,-126.9743 71,-118.4166"/>
<polygon fill="#000000" stroke="#000000" points="74.5001,-118.4132 71,-108.4133 67.5001,-118.4133 74.5001,-118.4132"/>
<g id="a_edge1&#45;headlabel"><a xlink:href="dir_000012_000013.html" target="_top" xlink:title="1">
<text text-anchor="middle" x="77.3393" y="-119.5079" font-family="Helvetica,sans-Serif" font-size="10.00" fill="#000000">1</text>
</a>
</g>
</g>
<!-- dir_967a94bae6ec677146d0e6dc30a32242 -->
<g id="node4" class="node">
<title>dir_967a94bae6ec677146d0e6dc30a32242</title>
<g id="a_node4"><a xlink:href="dir_967a94bae6ec677146d0e6dc30a32242.html" target="_top" xlink:title="ParametersHandler">
<polygon fill="none" stroke="#ff0000" points="283.5,-36 182.5,-36 182.5,0 283.5,0 283.5,-36"/>
<text text-anchor="middle" x="233" y="-15.5" font-family="Helvetica,sans-Serif" font-size="10.00" fill="#000000">ParametersHandler</text>
</a>
</g>
</g>
<!-- dir_ec7340a5f9111b1967f9f9c4d1051f42&#45;&gt;dir_967a94bae6ec677146d0e6dc30a32242 -->
<g id="edge2" class="edge">
<title>dir_ec7340a5f9111b1967f9f9c4d1051f42&#45;&gt;dir_967a94bae6ec677146d0e6dc30a32242</title>
<path fill="none" stroke="#000000" d="M91.5174,-143.7623C120.2443,-118.2272 172.5519,-71.7316 204.8856,-42.9906"/>
<polygon fill="#000000" stroke="#000000" points="207.5003,-45.3492 212.6492,-36.0896 202.8498,-40.1173 207.5003,-45.3492"/>
<g id="a_edge2&#45;headlabel"><a xlink:href="dir_000012_000034.html" target="_top" xlink:title="1">
<text text-anchor="middle" x="206.7" y="-47.3594" font-family="Helvetica,sans-Serif" font-size="10.00" fill="#000000">1</text>
</a>
</g>
</g>
<!-- dir_9af51e3826d4f9e80d9103b2de543e84 -->
<g id="node5" class="node">
<title>dir_9af51e3826d4f9e80d9103b2de543e84</title>
<g id="a_node5"><a xlink:href="dir_9af51e3826d4f9e80d9103b2de543e84.html" target="_top" xlink:title="System">
<polygon fill="none" stroke="#ff0000" points="314,-108 260,-108 260,-72 314,-72 314,-108"/>
<text text-anchor="middle" x="287" y="-87.5" font-family="Helvetica,sans-Serif" font-size="10.00" fill="#000000">System</text>
</a>
</g>
</g>
<!-- dir_ec7340a5f9111b1967f9f9c4d1051f42&#45;&gt;dir_9af51e3826d4f9e80d9103b2de543e84 -->
<g id="edge3" class="edge">
<title>dir_ec7340a5f9111b1967f9f9c4d1051f42&#45;&gt;dir_9af51e3826d4f9e80d9103b2de543e84</title>
<path fill="none" stroke="#000000" d="M118.261,-147.0178C121.5552,-145.9912 124.8262,-144.9771 128,-144 181.2166,-127.6158 195.9257,-127.7159 248,-108 248.8543,-107.6765 249.7162,-107.3428 250.5829,-107.0006"/>
<polygon fill="#000000" stroke="#000000" points="252.0611,-110.1761 259.9333,-103.0853 249.3575,-103.7193 252.0611,-110.1761"/>
<g id="a_edge3&#45;headlabel"><a xlink:href="dir_000012_000059.html" target="_top" xlink:title="1">
<text text-anchor="middle" x="249.842" y="-111.6834" font-family="Helvetica,sans-Serif" font-size="10.00" fill="#000000">1</text>
</a>
</g>
</g>
<!-- dir_9af51e3826d4f9e80d9103b2de543e84&#45;&gt;dir_967a94bae6ec677146d0e6dc30a32242 -->
<g id="edge4" class="edge">
<title>dir_9af51e3826d4f9e80d9103b2de543e84&#45;&gt;dir_967a94bae6ec677146d0e6dc30a32242</title>
<path fill="none" stroke="#000000" d="M273.3735,-71.8314C267.154,-63.5386 259.6678,-53.557 252.84,-44.4533"/>
<polygon fill="#000000" stroke="#000000" points="255.61,-42.3133 246.81,-36.4133 250.01,-46.5133 255.61,-42.3133"/>
<g id="a_edge4&#45;headlabel"><a xlink:href="dir_000059_000034.html" target="_top" xlink:title="3">
<text text-anchor="middle" x="260.0381" y="-40.9854" font-family="Helvetica,sans-Serif" font-size="10.00" fill="#000000">3</text>
</a>
</g>
</g>
</g>
</svg>
