<?xml version="1.0" encoding="UTF-8" standalone="no"?>
<!DOCTYPE svg PUBLIC "-//W3C//DTD SVG 1.1//EN"
 "http://www.w3.org/Graphics/SVG/1.1/DTD/svg11.dtd">
<!-- Generated by graphviz version 2.40.1 (20161225.0304)
 -->
<!-- Title: Estimators/include/BipedalLocomotion/Estimators Pages: 1 -->
<svg width="123pt" height="223pt"
 viewBox="0.00 0.00 123.00 223.00" xmlns="http://www.w3.org/2000/svg" xmlns:xlink="http://www.w3.org/1999/xlink">
<g id="graph0" class="graph" transform="scale(1 1) rotate(0) translate(4 219)">
<title>Estimators/include/BipedalLocomotion/Estimators</title>
<g id="clust1" class="cluster">
<title>clusterdir_d519c713466180a07e801187407a5df6</title>
<g id="a_clust1"><a xlink:href="dir_d519c713466180a07e801187407a5df6.html" target="_top" xlink:title="BipedalLocomotion">
<polygon fill="#ddddee" stroke="#000000" points="8,-136 8,-207 107,-207 107,-136 8,-136"/>
<text text-anchor="middle" x="57.5" y="-195" font-family="Helvetica,sans-Serif" font-size="10.00" fill="#000000">BipedalLocomotion</text>
</a>
</g>
</g>
<!-- dir_f166336a84a379978bdb386d14d5adc9 -->
<g id="node1" class="node">
<title>dir_f166336a84a379978bdb386d14d5adc9</title>
<g id="a_node1"><a xlink:href="dir_f166336a84a379978bdb386d14d5adc9.html" target="_top" xlink:title="Estimators">
<polygon fill="#eeeeff" stroke="#000000" points="89,-180 25,-180 25,-144 89,-144 89,-180"/>
<text text-anchor="middle" x="57" y="-159.5" font-family="Helvetica,sans-Serif" font-size="10.00" fill="#000000">Estimators</text>
</a>
</g>
</g>
<!-- dir_967a94bae6ec677146d0e6dc30a32242 -->
<g id="node2" class="node">
<title>dir_967a94bae6ec677146d0e6dc30a32242</title>
<g id="a_node2"><a xlink:href="dir_967a94bae6ec677146d0e6dc30a32242.html" target="_top" xlink:title="ParametersHandler">
<polygon fill="none" stroke="#ff0000" points="106.5,-36 5.5,-36 5.5,0 106.5,0 106.5,-36"/>
<text text-anchor="middle" x="56" y="-15.5" font-family="Helvetica,sans-Serif" font-size="10.00" fill="#000000">ParametersHandler</text>
</a>
</g>
</g>
<!-- dir_f166336a84a379978bdb386d14d5adc9&#45;&gt;dir_967a94bae6ec677146d0e6dc30a32242 -->
<g id="edge1" class="edge">
<title>dir_f166336a84a379978bdb386d14d5adc9&#45;&gt;dir_967a94bae6ec677146d0e6dc30a32242</title>
<path fill="none" stroke="#000000" d="M53.1587,-143.6001C51.1834,-133.2025 48.9877,-119.9346 48,-108 46.6803,-92.0545 46.8244,-87.9568 48,-72 48.6169,-63.6264 49.7649,-54.5812 51.0026,-46.3322"/>
<polygon fill="#000000" stroke="#000000" points="54.4648,-46.8463 52.585,-36.4196 47.5523,-45.7428 54.4648,-46.8463"/>
<g id="a_edge1&#45;headlabel"><a xlink:href="dir_000022_000034.html" target="_top" xlink:title="1">
<text text-anchor="middle" x="56.702" y="-48.3436" font-family="Helvetica,sans-Serif" font-size="10.00" fill="#000000">1</text>
</a>
</g>
</g>
<!-- dir_9af51e3826d4f9e80d9103b2de543e84 -->
<g id="node3" class="node">
<title>dir_9af51e3826d4f9e80d9103b2de543e84</title>
<g id="a_node3"><a xlink:href="dir_9af51e3826d4f9e80d9103b2de543e84.html" target="_top" xlink:title="System">
<polygon fill="none" stroke="#ff0000" points="111,-108 57,-108 57,-72 111,-72 111,-108"/>
<text text-anchor="middle" x="84" y="-87.5" font-family="Helvetica,sans-Serif" font-size="10.00" fill="#000000">System</text>
</a>
</g>
</g>
<!-- dir_f166336a84a379978bdb386d14d5adc9&#45;&gt;dir_9af51e3826d4f9e80d9103b2de543e84 -->
<g id="edge2" class="edge">
<title>dir_f166336a84a379978bdb386d14d5adc9&#45;&gt;dir_9af51e3826d4f9e80d9103b2de543e84</title>
<path fill="none" stroke="#000000" d="M63.8132,-143.8314C66.7644,-135.9617 70.2858,-126.5712 73.555,-117.8533"/>
<polygon fill="#000000" stroke="#000000" points="76.8609,-119.0055 77.095,-108.4133 70.3066,-116.5476 76.8609,-119.0055"/>
<g id="a_edge2&#45;headlabel"><a xlink:href="dir_000022_000059.html" target="_top" xlink:title="1">
<text text-anchor="middle" x="78.2573" y="-120.8682" font-family="Helvetica,sans-Serif" font-size="10.00" fill="#000000">1</text>
</a>
</g>
</g>
<!-- dir_9af51e3826d4f9e80d9103b2de543e84&#45;&gt;dir_967a94bae6ec677146d0e6dc30a32242 -->
<g id="edge3" class="edge">
<title>dir_9af51e3826d4f9e80d9103b2de543e84&#45;&gt;dir_967a94bae6ec677146d0e6dc30a32242</title>
<path fill="none" stroke="#000000" d="M76.9344,-71.8314C73.874,-63.9617 70.2221,-54.5712 66.8318,-45.8533"/>
<polygon fill="#000000" stroke="#000000" points="70.0473,-44.4647 63.1607,-36.4133 63.5232,-47.0019 70.0473,-44.4647"/>
<g id="a_edge3&#45;headlabel"><a xlink:href="dir_000059_000034.html" target="_top" xlink:title="3">
<text text-anchor="middle" x="73.9963" y="-44.2859" font-family="Helvetica,sans-Serif" font-size="10.00" fill="#000000">3</text>
</a>
</g>
</g>
</g>
</svg>
