<?xml version="1.0" encoding="UTF-8" standalone="no"?>
<!DOCTYPE svg PUBLIC "-//W3C//DTD SVG 1.1//EN"
 "http://www.w3.org/Graphics/SVG/1.1/DTD/svg11.dtd">
<!-- Generated by graphviz version 2.40.1 (20161225.0304)
 -->
<!-- Title: TSID/include/BipedalLocomotion Pages: 1 -->
<svg width="229pt" height="231pt"
 viewBox="0.00 0.00 228.50 231.00" xmlns="http://www.w3.org/2000/svg" xmlns:xlink="http://www.w3.org/1999/xlink">
<g id="graph0" class="graph" transform="scale(1 1) rotate(0) translate(4 227)">
<title>TSID/include/BipedalLocomotion</title>
<g id="clust1" class="cluster">
<title>clusterdir_c71ab3320c8509a09c0dd382264c1c8c</title>
<g id="a_clust1"><a xlink:href="dir_c71ab3320c8509a09c0dd382264c1c8c.html" target="_top" xlink:title="include">
<polygon fill="#ddddee" stroke="#000000" points="8.5,-128 8.5,-215 212.5,-215 212.5,-128 8.5,-128"/>
<text text-anchor="middle" x="110.5" y="-203" font-family="Helvetica,sans-Serif" font-size="10.00" fill="#000000">include</text>
</a>
</g>
</g>
<g id="clust2" class="cluster">
<title>clusterdir_c2b8344d5edfc50cd6fccee59bac7555</title>
<g id="a_clust2"><a xlink:href="dir_c2b8344d5edfc50cd6fccee59bac7555.html" target="_top">
<polygon fill="#eeeeff" stroke="#000000" points="16.5,-136 16.5,-188 204.5,-188 204.5,-136 16.5,-136"/>
</a>
</g>
</g>
<!-- dir_c2b8344d5edfc50cd6fccee59bac7555 -->
<g id="node1" class="node">
<title>dir_c2b8344d5edfc50cd6fccee59bac7555</title>
<text text-anchor="middle" x="146.5" y="-159.5" font-family="Helvetica,sans-Serif" font-size="10.00" fill="#000000">BipedalLocomotion</text>
</g>
<!-- dir_e2d866c591016485a2671ea115fc486e -->
<g id="node2" class="node">
<title>dir_e2d866c591016485a2671ea115fc486e</title>
<g id="a_node2"><a xlink:href="dir_e2d866c591016485a2671ea115fc486e.html" target="_top" xlink:title="TSID">
<polygon fill="#ffffff" stroke="#000000" points="78.5,-180 24.5,-180 24.5,-144 78.5,-144 78.5,-180"/>
<text text-anchor="middle" x="51.5" y="-159.5" font-family="Helvetica,sans-Serif" font-size="10.00" fill="#000000">TSID</text>
</a>
</g>
</g>
<!-- dir_967a94bae6ec677146d0e6dc30a32242 -->
<g id="node3" class="node">
<title>dir_967a94bae6ec677146d0e6dc30a32242</title>
<g id="a_node3"><a xlink:href="dir_967a94bae6ec677146d0e6dc30a32242.html" target="_top" xlink:title="ParametersHandler">
<polygon fill="none" stroke="#ff0000" points="101,-36 0,-36 0,0 101,0 101,-36"/>
<text text-anchor="middle" x="50.5" y="-15.5" font-family="Helvetica,sans-Serif" font-size="10.00" fill="#000000">ParametersHandler</text>
</a>
</g>
</g>
<!-- dir_e2d866c591016485a2671ea115fc486e&#45;&gt;dir_967a94bae6ec677146d0e6dc30a32242 -->
<g id="edge1" class="edge">
<title>dir_e2d866c591016485a2671ea115fc486e&#45;&gt;dir_967a94bae6ec677146d0e6dc30a32242</title>
<path fill="none" stroke="#000000" d="M47.6587,-143.6001C45.6834,-133.2025 43.4877,-119.9346 42.5,-108 41.1803,-92.0545 41.3244,-87.9568 42.5,-72 43.1169,-63.6264 44.2649,-54.5812 45.5026,-46.3322"/>
<polygon fill="#000000" stroke="#000000" points="48.9648,-46.8463 47.085,-36.4196 42.0523,-45.7428 48.9648,-46.8463"/>
<g id="a_edge1&#45;headlabel"><a xlink:href="dir_000067_000034.html" target="_top" xlink:title="1">
<text text-anchor="middle" x="51.202" y="-48.3436" font-family="Helvetica,sans-Serif" font-size="10.00" fill="#000000">1</text>
</a>
</g>
</g>
<!-- dir_9af51e3826d4f9e80d9103b2de543e84 -->
<g id="node4" class="node">
<title>dir_9af51e3826d4f9e80d9103b2de543e84</title>
<g id="a_node4"><a xlink:href="dir_9af51e3826d4f9e80d9103b2de543e84.html" target="_top" xlink:title="System">
<polygon fill="none" stroke="#ff0000" points="105.5,-108 51.5,-108 51.5,-72 105.5,-72 105.5,-108"/>
<text text-anchor="middle" x="78.5" y="-87.5" font-family="Helvetica,sans-Serif" font-size="10.00" fill="#000000">System</text>
</a>
</g>
</g>
<!-- dir_e2d866c591016485a2671ea115fc486e&#45;&gt;dir_9af51e3826d4f9e80d9103b2de543e84 -->
<g id="edge2" class="edge">
<title>dir_e2d866c591016485a2671ea115fc486e&#45;&gt;dir_9af51e3826d4f9e80d9103b2de543e84</title>
<path fill="none" stroke="#000000" d="M58.3132,-143.8314C61.2644,-135.9617 64.7858,-126.5712 68.055,-117.8533"/>
<polygon fill="#000000" stroke="#000000" points="71.3609,-119.0055 71.595,-108.4133 64.8066,-116.5476 71.3609,-119.0055"/>
<g id="a_edge2&#45;headlabel"><a xlink:href="dir_000067_000059.html" target="_top" xlink:title="1">
<text text-anchor="middle" x="72.7573" y="-120.8682" font-family="Helvetica,sans-Serif" font-size="10.00" fill="#000000">1</text>
</a>
</g>
</g>
<!-- dir_9af51e3826d4f9e80d9103b2de543e84&#45;&gt;dir_967a94bae6ec677146d0e6dc30a32242 -->
<g id="edge3" class="edge">
<title>dir_9af51e3826d4f9e80d9103b2de543e84&#45;&gt;dir_967a94bae6ec677146d0e6dc30a32242</title>
<path fill="none" stroke="#000000" d="M71.4344,-71.8314C68.374,-63.9617 64.7221,-54.5712 61.3318,-45.8533"/>
<polygon fill="#000000" stroke="#000000" points="64.5473,-44.4647 57.6607,-36.4133 58.0232,-47.0019 64.5473,-44.4647"/>
<g id="a_edge3&#45;headlabel"><a xlink:href="dir_000059_000034.html" target="_top" xlink:title="3">
<text text-anchor="middle" x="68.4963" y="-44.2859" font-family="Helvetica,sans-Serif" font-size="10.00" fill="#000000">3</text>
</a>
</g>
</g>
</g>
</svg>
