<?xml version="1.0" encoding="UTF-8" standalone="no"?>
<!DOCTYPE svg PUBLIC "-//W3C//DTD SVG 1.1//EN"
 "http://www.w3.org/Graphics/SVG/1.1/DTD/svg11.dtd">
<!-- Generated by graphviz version 2.40.1 (20161225.0304)
 -->
<!-- Title: System/include Pages: 1 -->
<svg width="231pt" height="231pt"
 viewBox="0.00 0.00 230.50 231.00" xmlns="http://www.w3.org/2000/svg" xmlns:xlink="http://www.w3.org/1999/xlink">
<g id="graph0" class="graph" transform="scale(1 1) rotate(0) translate(4 227)">
<title>System/include</title>
<g id="clust1" class="cluster">
<title>clusterdir_9af51e3826d4f9e80d9103b2de543e84</title>
<g id="a_clust1"><a xlink:href="dir_9af51e3826d4f9e80d9103b2de543e84.html" target="_top" xlink:title="System">
<polygon fill="#ddddee" stroke="#000000" points="10.5,-128 10.5,-215 214.5,-215 214.5,-128 10.5,-128"/>
<text text-anchor="middle" x="112.5" y="-203" font-family="Helvetica,sans-Serif" font-size="10.00" fill="#000000">System</text>
</a>
</g>
</g>
<g id="clust2" class="cluster">
<title>clusterdir_606f80137030ee7668cf70a8cd6432ec</title>
<g id="a_clust2"><a xlink:href="dir_606f80137030ee7668cf70a8cd6432ec.html" target="_top">
<polygon fill="#eeeeff" stroke="#000000" points="18.5,-136 18.5,-188 206.5,-188 206.5,-136 18.5,-136"/>
</a>
</g>
</g>
<!-- dir_606f80137030ee7668cf70a8cd6432ec -->
<g id="node1" class="node">
<title>dir_606f80137030ee7668cf70a8cd6432ec</title>
<text text-anchor="middle" x="171.5" y="-159.5" font-family="Helvetica,sans-Serif" font-size="10.00" fill="#000000">include</text>
</g>
<!-- dir_b36f497e16c17e10f888dbf0334f5146 -->
<g id="node2" class="node">
<title>dir_b36f497e16c17e10f888dbf0334f5146</title>
<g id="a_node2"><a xlink:href="dir_b36f497e16c17e10f888dbf0334f5146.html" target="_top" xlink:title="BipedalLocomotion">
<polygon fill="#ffffff" stroke="#ff0000" points="126,-180 27,-180 27,-144 126,-144 126,-180"/>
<text text-anchor="middle" x="76.5" y="-159.5" font-family="Helvetica,sans-Serif" font-size="10.00" fill="#000000">BipedalLocomotion</text>
</a>
</g>
</g>
<!-- dir_38f8d072ac46a001c980a8e9d40cc318 -->
<g id="node3" class="node">
<title>dir_38f8d072ac46a001c980a8e9d40cc318</title>
<g id="a_node3"><a xlink:href="dir_38f8d072ac46a001c980a8e9d40cc318.html" target="_top" xlink:title="ContactModels">
<polygon fill="none" stroke="#ff0000" points="83,-108 0,-108 0,-72 83,-72 83,-108"/>
<text text-anchor="middle" x="41.5" y="-87.5" font-family="Helvetica,sans-Serif" font-size="10.00" fill="#000000">ContactModels</text>
</a>
</g>
</g>
<!-- dir_b36f497e16c17e10f888dbf0334f5146&#45;&gt;dir_38f8d072ac46a001c980a8e9d40cc318 -->
<g id="edge2" class="edge">
<title>dir_b36f497e16c17e10f888dbf0334f5146&#45;&gt;dir_38f8d072ac46a001c980a8e9d40cc318</title>
<path fill="none" stroke="#000000" d="M67.668,-143.8314C63.8014,-135.8771 59.1794,-126.369 54.9032,-117.5723"/>
<polygon fill="#000000" stroke="#000000" points="57.9707,-115.8768 50.4509,-108.4133 51.6751,-118.9371 57.9707,-115.8768"/>
<g id="a_edge2&#45;headlabel"><a xlink:href="dir_000061_000004.html" target="_top" xlink:title="1">
<text text-anchor="middle" x="62.0957" y="-115.3683" font-family="Helvetica,sans-Serif" font-size="10.00" fill="#000000">1</text>
</a>
</g>
</g>
<!-- dir_967a94bae6ec677146d0e6dc30a32242 -->
<g id="node4" class="node">
<title>dir_967a94bae6ec677146d0e6dc30a32242</title>
<g id="a_node4"><a xlink:href="dir_967a94bae6ec677146d0e6dc30a32242.html" target="_top" xlink:title="ParametersHandler">
<polygon fill="none" stroke="#ff0000" points="127,-36 26,-36 26,0 127,0 127,-36"/>
<text text-anchor="middle" x="76.5" y="-15.5" font-family="Helvetica,sans-Serif" font-size="10.00" fill="#000000">ParametersHandler</text>
</a>
</g>
</g>
<!-- dir_b36f497e16c17e10f888dbf0334f5146&#45;&gt;dir_967a94bae6ec677146d0e6dc30a32242 -->
<g id="edge3" class="edge">
<title>dir_b36f497e16c17e10f888dbf0334f5146&#45;&gt;dir_967a94bae6ec677146d0e6dc30a32242</title>
<path fill="none" stroke="#000000" d="M83.3195,-143.7996C86.8281,-133.4645 90.7317,-120.1925 92.5,-108 94.7965,-92.1657 94.7965,-87.8343 92.5,-72 91.2428,-63.3319 88.9064,-54.1182 86.4,-45.802"/>
<polygon fill="#000000" stroke="#000000" points="89.7072,-44.6531 83.3195,-36.2004 83.0418,-46.7916 89.7072,-44.6531"/>
<g id="a_edge3&#45;headlabel"><a xlink:href="dir_000061_000034.html" target="_top" xlink:title="3">
<text text-anchor="middle" x="93.5088" y="-44.7085" font-family="Helvetica,sans-Serif" font-size="10.00" fill="#000000">3</text>
</a>
</g>
</g>
<!-- dir_38f8d072ac46a001c980a8e9d40cc318&#45;&gt;dir_967a94bae6ec677146d0e6dc30a32242 -->
<g id="edge1" class="edge">
<title>dir_38f8d072ac46a001c980a8e9d40cc318&#45;&gt;dir_967a94bae6ec677146d0e6dc30a32242</title>
<path fill="none" stroke="#000000" d="M50.332,-71.8314C54.1986,-63.8771 58.8206,-54.369 63.0968,-45.5723"/>
<polygon fill="#000000" stroke="#000000" points="66.3249,-46.9371 67.5491,-36.4133 60.0293,-43.8768 66.3249,-46.9371"/>
<g id="a_edge1&#45;headlabel"><a xlink:href="dir_000004_000034.html" target="_top" xlink:title="3">
<text text-anchor="middle" x="67.307" y="-48.9113" font-family="Helvetica,sans-Serif" font-size="10.00" fill="#000000">3</text>
</a>
</g>
</g>
</g>
</svg>
