<?xml version="1.0" encoding="UTF-8" standalone="no"?>
<!DOCTYPE svg PUBLIC "-//W3C//DTD SVG 1.1//EN"
 "http://www.w3.org/Graphics/SVG/1.1/DTD/svg11.dtd">
<!-- Generated by graphviz version 2.40.1 (20161225.0304)
 -->
<!-- Title: RobotInterface/YarpImplementation/include/BipedalLocomotion Pages: 1 -->
<svg width="255pt" height="231pt"
 viewBox="0.00 0.00 255.00 231.00" xmlns="http://www.w3.org/2000/svg" xmlns:xlink="http://www.w3.org/1999/xlink">
<g id="graph0" class="graph" transform="scale(1 1) rotate(0) translate(4 227)">
<title>RobotInterface/YarpImplementation/include/BipedalLocomotion</title>
<g id="clust1" class="cluster">
<title>clusterdir_28664388ac6feebf5d87807ba2a08c78</title>
<g id="a_clust1"><a xlink:href="dir_28664388ac6feebf5d87807ba2a08c78.html" target="_top" xlink:title="include">
<polygon fill="#ddddee" stroke="#000000" points="8,-128 8,-215 239,-215 239,-128 8,-128"/>
<text text-anchor="middle" x="123.5" y="-203" font-family="Helvetica,sans-Serif" font-size="10.00" fill="#000000">include</text>
</a>
</g>
</g>
<g id="clust2" class="cluster">
<title>clusterdir_5d7ce3e31a7a7d2a623b206abb047173</title>
<g id="a_clust2"><a xlink:href="dir_5d7ce3e31a7a7d2a623b206abb047173.html" target="_top">
<polygon fill="#eeeeff" stroke="#000000" points="16,-136 16,-188 231,-188 231,-136 16,-136"/>
</a>
</g>
</g>
<!-- dir_5d7ce3e31a7a7d2a623b206abb047173 -->
<g id="node1" class="node">
<title>dir_5d7ce3e31a7a7d2a623b206abb047173</title>
<text text-anchor="middle" x="173" y="-159.5" font-family="Helvetica,sans-Serif" font-size="10.00" fill="#000000">BipedalLocomotion</text>
</g>
<!-- dir_5caa57f5e0da1990e2de3fa4772b3a6e -->
<g id="node2" class="node">
<title>dir_5caa57f5e0da1990e2de3fa4772b3a6e</title>
<g id="a_node2"><a xlink:href="dir_5caa57f5e0da1990e2de3fa4772b3a6e.html" target="_top" xlink:title="RobotInterface">
<polygon fill="#ffffff" stroke="#000000" points="105.5,-180 24.5,-180 24.5,-144 105.5,-144 105.5,-180"/>
<text text-anchor="middle" x="65" y="-159.5" font-family="Helvetica,sans-Serif" font-size="10.00" fill="#000000">RobotInterface</text>
</a>
</g>
</g>
<!-- dir_967a94bae6ec677146d0e6dc30a32242 -->
<g id="node3" class="node">
<title>dir_967a94bae6ec677146d0e6dc30a32242</title>
<g id="a_node3"><a xlink:href="dir_967a94bae6ec677146d0e6dc30a32242.html" target="_top" xlink:title="ParametersHandler">
<polygon fill="none" stroke="#ff0000" points="115.5,-36 14.5,-36 14.5,0 115.5,0 115.5,-36"/>
<text text-anchor="middle" x="65" y="-15.5" font-family="Helvetica,sans-Serif" font-size="10.00" fill="#000000">ParametersHandler</text>
</a>
</g>
</g>
<!-- dir_5caa57f5e0da1990e2de3fa4772b3a6e&#45;&gt;dir_967a94bae6ec677146d0e6dc30a32242 -->
<g id="edge1" class="edge">
<title>dir_5caa57f5e0da1990e2de3fa4772b3a6e&#45;&gt;dir_967a94bae6ec677146d0e6dc30a32242</title>
<path fill="none" stroke="#000000" d="M49.0095,-143.9169C41.3462,-134.0371 32.9834,-121.1563 29,-108 24.3635,-92.6865 24.3635,-87.3135 29,-72 31.9564,-62.2355 37.3252,-52.6229 43.03,-44.2762"/>
<polygon fill="#000000" stroke="#000000" points="45.9414,-46.2239 49.0095,-36.0831 40.2871,-42.0973 45.9414,-46.2239"/>
<g id="a_edge1&#45;headlabel"><a xlink:href="dir_000057_000034.html" target="_top" xlink:title="1">
<text text-anchor="middle" x="46.1158" y="-48.3013" font-family="Helvetica,sans-Serif" font-size="10.00" fill="#000000">1</text>
</a>
</g>
</g>
<!-- dir_9af51e3826d4f9e80d9103b2de543e84 -->
<g id="node4" class="node">
<title>dir_9af51e3826d4f9e80d9103b2de543e84</title>
<g id="a_node4"><a xlink:href="dir_9af51e3826d4f9e80d9103b2de543e84.html" target="_top" xlink:title="System">
<polygon fill="none" stroke="#ff0000" points="92,-108 38,-108 38,-72 92,-72 92,-108"/>
<text text-anchor="middle" x="65" y="-87.5" font-family="Helvetica,sans-Serif" font-size="10.00" fill="#000000">System</text>
</a>
</g>
</g>
<!-- dir_5caa57f5e0da1990e2de3fa4772b3a6e&#45;&gt;dir_9af51e3826d4f9e80d9103b2de543e84 -->
<g id="edge2" class="edge">
<title>dir_5caa57f5e0da1990e2de3fa4772b3a6e&#45;&gt;dir_9af51e3826d4f9e80d9103b2de543e84</title>
<path fill="none" stroke="#000000" d="M65,-143.8314C65,-136.131 65,-126.9743 65,-118.4166"/>
<polygon fill="#000000" stroke="#000000" points="68.5001,-118.4132 65,-108.4133 61.5001,-118.4133 68.5001,-118.4132"/>
<g id="a_edge2&#45;headlabel"><a xlink:href="dir_000057_000059.html" target="_top" xlink:title="1">
<text text-anchor="middle" x="71.3393" y="-119.5079" font-family="Helvetica,sans-Serif" font-size="10.00" fill="#000000">1</text>
</a>
</g>
</g>
<!-- dir_67bdeb3466b925f8e20a99baf7fc4e99 -->
<g id="node5" class="node">
<title>dir_67bdeb3466b925f8e20a99baf7fc4e99</title>
<g id="a_node5"><a xlink:href="dir_67bdeb3466b925f8e20a99baf7fc4e99.html" target="_top" xlink:title="include">
<polygon fill="none" stroke="#ff0000" points="164,-108 110,-108 110,-72 164,-72 164,-108"/>
<text text-anchor="middle" x="137" y="-87.5" font-family="Helvetica,sans-Serif" font-size="10.00" fill="#000000">include</text>
</a>
</g>
</g>
<!-- dir_5caa57f5e0da1990e2de3fa4772b3a6e&#45;&gt;dir_67bdeb3466b925f8e20a99baf7fc4e99 -->
<g id="edge3" class="edge">
<title>dir_5caa57f5e0da1990e2de3fa4772b3a6e&#45;&gt;dir_67bdeb3466b925f8e20a99baf7fc4e99</title>
<path fill="none" stroke="#000000" d="M83.1686,-143.8314C91.7152,-135.2848 102.0557,-124.9443 111.3802,-115.6198"/>
<polygon fill="#000000" stroke="#000000" points="113.9905,-117.9592 118.5867,-108.4133 109.0408,-113.0095 113.9905,-117.9592"/>
<g id="a_edge3&#45;headlabel"><a xlink:href="dir_000057_000050.html" target="_top" xlink:title="2">
<text text-anchor="middle" x="113.4564" y="-120.0087" font-family="Helvetica,sans-Serif" font-size="10.00" fill="#000000">2</text>
</a>
</g>
</g>
<!-- dir_9af51e3826d4f9e80d9103b2de543e84&#45;&gt;dir_967a94bae6ec677146d0e6dc30a32242 -->
<g id="edge4" class="edge">
<title>dir_9af51e3826d4f9e80d9103b2de543e84&#45;&gt;dir_967a94bae6ec677146d0e6dc30a32242</title>
<path fill="none" stroke="#000000" d="M65,-71.8314C65,-64.131 65,-54.9743 65,-46.4166"/>
<polygon fill="#000000" stroke="#000000" points="68.5001,-46.4132 65,-36.4133 61.5001,-46.4133 68.5001,-46.4132"/>
<g id="a_edge4&#45;headlabel"><a xlink:href="dir_000059_000034.html" target="_top" xlink:title="3">
<text text-anchor="middle" x="71.3393" y="-47.5079" font-family="Helvetica,sans-Serif" font-size="10.00" fill="#000000">3</text>
</a>
</g>
</g>
<!-- dir_67bdeb3466b925f8e20a99baf7fc4e99&#45;&gt;dir_967a94bae6ec677146d0e6dc30a32242 -->
<g id="edge5" class="edge">
<title>dir_67bdeb3466b925f8e20a99baf7fc4e99&#45;&gt;dir_967a94bae6ec677146d0e6dc30a32242</title>
<path fill="none" stroke="#000000" d="M118.8314,-71.8314C110.2848,-63.2848 99.9443,-52.9443 90.6198,-43.6198"/>
<polygon fill="#000000" stroke="#000000" points="92.9592,-41.0095 83.4133,-36.4133 88.0095,-45.9592 92.9592,-41.0095"/>
<g id="a_edge5&#45;headlabel"><a xlink:href="dir_000050_000034.html" target="_top" xlink:title="2">
<text text-anchor="middle" x="97.5087" y="-39.0436" font-family="Helvetica,sans-Serif" font-size="10.00" fill="#000000">2</text>
</a>
</g>
</g>
</g>
</svg>
