<?xml version="1.0" encoding="UTF-8" standalone="no"?>
<!DOCTYPE svg PUBLIC "-//W3C//DTD SVG 1.1//EN"
 "http://www.w3.org/Graphics/SVG/1.1/DTD/svg11.dtd">
<!-- Generated by graphviz version 2.40.1 (20161225.0304)
 -->
<!-- Title: Estimators/include Pages: 1 -->
<svg width="238pt" height="303pt"
 viewBox="0.00 0.00 238.00 303.00" xmlns="http://www.w3.org/2000/svg" xmlns:xlink="http://www.w3.org/1999/xlink">
<g id="graph0" class="graph" transform="scale(1 1) rotate(0) translate(4 299)">
<title>Estimators/include</title>
<g id="clust1" class="cluster">
<title>clusterdir_f75a46c5c982618628beecbcb815a4c9</title>
<g id="a_clust1"><a xlink:href="dir_f75a46c5c982618628beecbcb815a4c9.html" target="_top" xlink:title="Estimators">
<polygon fill="#ddddee" stroke="#000000" points="18,-200 18,-287 222,-287 222,-200 18,-200"/>
<text text-anchor="middle" x="120" y="-275" font-family="Helvetica,sans-Serif" font-size="10.00" fill="#000000">Estimators</text>
</a>
</g>
</g>
<g id="clust2" class="cluster">
<title>clusterdir_5b73832fd25c530c2cca7878588bd52f</title>
<g id="a_clust2"><a xlink:href="dir_5b73832fd25c530c2cca7878588bd52f.html" target="_top">
<polygon fill="#eeeeff" stroke="#000000" points="26,-208 26,-260 214,-260 214,-208 26,-208"/>
</a>
</g>
</g>
<!-- dir_5b73832fd25c530c2cca7878588bd52f -->
<g id="node1" class="node">
<title>dir_5b73832fd25c530c2cca7878588bd52f</title>
<text text-anchor="middle" x="179" y="-231.5" font-family="Helvetica,sans-Serif" font-size="10.00" fill="#000000">include</text>
</g>
<!-- dir_d519c713466180a07e801187407a5df6 -->
<g id="node2" class="node">
<title>dir_d519c713466180a07e801187407a5df6</title>
<g id="a_node2"><a xlink:href="dir_d519c713466180a07e801187407a5df6.html" target="_top" xlink:title="BipedalLocomotion">
<polygon fill="#ffffff" stroke="#ff0000" points="133.5,-252 34.5,-252 34.5,-216 133.5,-216 133.5,-252"/>
<text text-anchor="middle" x="84" y="-231.5" font-family="Helvetica,sans-Serif" font-size="10.00" fill="#000000">BipedalLocomotion</text>
</a>
</g>
</g>
<!-- dir_6d28a1f3fea9cd50f0f51ef4779c2863 -->
<g id="node3" class="node">
<title>dir_6d28a1f3fea9cd50f0f51ef4779c2863</title>
<g id="a_node3"><a xlink:href="dir_6d28a1f3fea9cd50f0f51ef4779c2863.html" target="_top" xlink:title="Contacts">
<polygon fill="none" stroke="#ff0000" points="56,-180 0,-180 0,-144 56,-144 56,-180"/>
<text text-anchor="middle" x="28" y="-159.5" font-family="Helvetica,sans-Serif" font-size="10.00" fill="#000000">Contacts</text>
</a>
</g>
</g>
<!-- dir_d519c713466180a07e801187407a5df6&#45;&gt;dir_6d28a1f3fea9cd50f0f51ef4779c2863 -->
<g id="edge1" class="edge">
<title>dir_d519c713466180a07e801187407a5df6&#45;&gt;dir_6d28a1f3fea9cd50f0f51ef4779c2863</title>
<path fill="none" stroke="#000000" d="M69.8688,-215.8314C63.4189,-207.5386 55.6555,-197.557 48.5748,-188.4533"/>
<polygon fill="#000000" stroke="#000000" points="51.2236,-186.158 42.3214,-180.4133 45.6981,-190.4556 51.2236,-186.158"/>
<g id="a_edge1&#45;headlabel"><a xlink:href="dir_000021_000009.html" target="_top" xlink:title="1">
<text text-anchor="middle" x="55.6716" y="-184.7523" font-family="Helvetica,sans-Serif" font-size="10.00" fill="#000000">1</text>
</a>
</g>
</g>
<!-- dir_967a94bae6ec677146d0e6dc30a32242 -->
<g id="node4" class="node">
<title>dir_967a94bae6ec677146d0e6dc30a32242</title>
<g id="a_node4"><a xlink:href="dir_967a94bae6ec677146d0e6dc30a32242.html" target="_top" xlink:title="ParametersHandler">
<polygon fill="none" stroke="#ff0000" points="125.5,-36 24.5,-36 24.5,0 125.5,0 125.5,-36"/>
<text text-anchor="middle" x="75" y="-15.5" font-family="Helvetica,sans-Serif" font-size="10.00" fill="#000000">ParametersHandler</text>
</a>
</g>
</g>
<!-- dir_d519c713466180a07e801187407a5df6&#45;&gt;dir_967a94bae6ec677146d0e6dc30a32242 -->
<g id="edge2" class="edge">
<title>dir_d519c713466180a07e801187407a5df6&#45;&gt;dir_967a94bae6ec677146d0e6dc30a32242</title>
<path fill="none" stroke="#000000" d="M92.3994,-215.672C105.1515,-185.2772 126.3684,-122.7585 111,-72 108.0436,-62.2355 102.6748,-52.6229 96.97,-44.2762"/>
<polygon fill="#000000" stroke="#000000" points="99.7129,-42.0973 90.9905,-36.0831 94.0586,-46.2239 99.7129,-42.0973"/>
<g id="a_edge2&#45;headlabel"><a xlink:href="dir_000021_000034.html" target="_top" xlink:title="3">
<text text-anchor="middle" x="104.1253" y="-40.827" font-family="Helvetica,sans-Serif" font-size="10.00" fill="#000000">3</text>
</a>
</g>
</g>
<!-- dir_9af51e3826d4f9e80d9103b2de543e84 -->
<g id="node5" class="node">
<title>dir_9af51e3826d4f9e80d9103b2de543e84</title>
<g id="a_node5"><a xlink:href="dir_9af51e3826d4f9e80d9103b2de543e84.html" target="_top" xlink:title="System">
<polygon fill="none" stroke="#ff0000" points="102,-108 48,-108 48,-72 102,-72 102,-108"/>
<text text-anchor="middle" x="75" y="-87.5" font-family="Helvetica,sans-Serif" font-size="10.00" fill="#000000">System</text>
</a>
</g>
</g>
<!-- dir_d519c713466180a07e801187407a5df6&#45;&gt;dir_9af51e3826d4f9e80d9103b2de543e84 -->
<g id="edge3" class="edge">
<title>dir_d519c713466180a07e801187407a5df6&#45;&gt;dir_9af51e3826d4f9e80d9103b2de543e84</title>
<path fill="none" stroke="#000000" d="M82.8601,-215.7623C81.3251,-191.201 78.578,-147.2474 76.7721,-118.3541"/>
<polygon fill="#000000" stroke="#000000" points="80.2477,-117.8518 76.1306,-108.0896 73.2613,-118.2885 80.2477,-117.8518"/>
<g id="a_edge3&#45;headlabel"><a xlink:href="dir_000021_000059.html" target="_top" xlink:title="2">
<text text-anchor="middle" x="83.3055" y="-118.7623" font-family="Helvetica,sans-Serif" font-size="10.00" fill="#000000">2</text>
</a>
</g>
</g>
<!-- dir_6d28a1f3fea9cd50f0f51ef4779c2863&#45;&gt;dir_967a94bae6ec677146d0e6dc30a32242 -->
<g id="edge4" class="edge">
<title>dir_6d28a1f3fea9cd50f0f51ef4779c2863&#45;&gt;dir_967a94bae6ec677146d0e6dc30a32242</title>
<path fill="none" stroke="#000000" d="M27.7827,-143.8348C28.1146,-125.2351 30.1954,-95.7649 39,-72 42.5444,-62.4332 48.0852,-52.8784 53.7667,-44.524"/>
<polygon fill="#000000" stroke="#000000" points="56.679,-46.4687 59.6607,-36.302 50.9898,-42.3903 56.679,-46.4687"/>
<g id="a_edge4&#45;headlabel"><a xlink:href="dir_000009_000034.html" target="_top" xlink:title="1">
<text text-anchor="middle" x="56.8924" y="-48.5444" font-family="Helvetica,sans-Serif" font-size="10.00" fill="#000000">1</text>
</a>
</g>
</g>
<!-- dir_6d28a1f3fea9cd50f0f51ef4779c2863&#45;&gt;dir_9af51e3826d4f9e80d9103b2de543e84 -->
<g id="edge5" class="edge">
<title>dir_6d28a1f3fea9cd50f0f51ef4779c2863&#45;&gt;dir_9af51e3826d4f9e80d9103b2de543e84</title>
<path fill="none" stroke="#000000" d="M39.8601,-143.8314C45.1629,-135.7079 51.5237,-125.9637 57.3673,-117.0118"/>
<polygon fill="#000000" stroke="#000000" points="60.4448,-118.7003 62.9802,-108.4133 54.5831,-114.8739 60.4448,-118.7003"/>
<g id="a_edge5&#45;headlabel"><a xlink:href="dir_000009_000059.html" target="_top" xlink:title="1">
<text text-anchor="middle" x="60.8575" y="-120.7623" font-family="Helvetica,sans-Serif" font-size="10.00" fill="#000000">1</text>
</a>
</g>
</g>
<!-- dir_9af51e3826d4f9e80d9103b2de543e84&#45;&gt;dir_967a94bae6ec677146d0e6dc30a32242 -->
<g id="edge6" class="edge">
<title>dir_9af51e3826d4f9e80d9103b2de543e84&#45;&gt;dir_967a94bae6ec677146d0e6dc30a32242</title>
<path fill="none" stroke="#000000" d="M75,-71.8314C75,-64.131 75,-54.9743 75,-46.4166"/>
<polygon fill="#000000" stroke="#000000" points="78.5001,-46.4132 75,-36.4133 71.5001,-46.4133 78.5001,-46.4132"/>
<g id="a_edge6&#45;headlabel"><a xlink:href="dir_000059_000034.html" target="_top" xlink:title="3">
<text text-anchor="middle" x="81.3393" y="-47.5079" font-family="Helvetica,sans-Serif" font-size="10.00" fill="#000000">3</text>
</a>
</g>
</g>
</g>
</svg>
