<?xml version="1.0" encoding="UTF-8" standalone="no"?>
<!DOCTYPE svg PUBLIC "-//W3C//DTD SVG 1.1//EN"
 "http://www.w3.org/Graphics/SVG/1.1/DTD/svg11.dtd">
<!-- Generated by graphviz version 2.40.1 (20161225.0304)
 -->
<!-- Title: ParametersHandler/YarpImplementation/include Pages: 1 -->
<svg width="228pt" height="231pt"
 viewBox="0.00 0.00 228.00 231.00" xmlns="http://www.w3.org/2000/svg" xmlns:xlink="http://www.w3.org/1999/xlink">
<g id="graph0" class="graph" transform="scale(1 1) rotate(0) translate(4 227)">
<title>ParametersHandler/YarpImplementation/include</title>
<g id="clust1" class="cluster">
<title>clusterdir_a43c7cf9622d5a9cfeca0104ea0d73d4</title>
<g id="a_clust1"><a xlink:href="dir_a43c7cf9622d5a9cfeca0104ea0d73d4.html" target="_top" xlink:title="YarpImplementation">
<polygon fill="#ddddee" stroke="#000000" points="8,-128 8,-215 212,-215 212,-128 8,-128"/>
<text text-anchor="middle" x="110" y="-203" font-family="Helvetica,sans-Serif" font-size="10.00" fill="#000000">YarpImplementation</text>
</a>
</g>
</g>
<g id="clust2" class="cluster">
<title>clusterdir_eda1a916b7339bdea7202931b34c92e4</title>
<g id="a_clust2"><a xlink:href="dir_eda1a916b7339bdea7202931b34c92e4.html" target="_top">
<polygon fill="#eeeeff" stroke="#000000" points="16,-136 16,-188 204,-188 204,-136 16,-136"/>
</a>
</g>
</g>
<!-- dir_eda1a916b7339bdea7202931b34c92e4 -->
<g id="node1" class="node">
<title>dir_eda1a916b7339bdea7202931b34c92e4</title>
<text text-anchor="middle" x="169" y="-159.5" font-family="Helvetica,sans-Serif" font-size="10.00" fill="#000000">include</text>
</g>
<!-- dir_91c2441da59622c57293fb216bf9f982 -->
<g id="node2" class="node">
<title>dir_91c2441da59622c57293fb216bf9f982</title>
<g id="a_node2"><a xlink:href="dir_91c2441da59622c57293fb216bf9f982.html" target="_top" xlink:title="BipedalLocomotion">
<polygon fill="#ffffff" stroke="#ff0000" points="123.5,-180 24.5,-180 24.5,-144 123.5,-144 123.5,-180"/>
<text text-anchor="middle" x="74" y="-159.5" font-family="Helvetica,sans-Serif" font-size="10.00" fill="#000000">BipedalLocomotion</text>
</a>
</g>
</g>
<!-- dir_8216cdb11d6d7661d22001d596207527 -->
<g id="node3" class="node">
<title>dir_8216cdb11d6d7661d22001d596207527</title>
<g id="a_node3"><a xlink:href="dir_8216cdb11d6d7661d22001d596207527.html" target="_top" xlink:title="YarpUtilities">
<polygon fill="none" stroke="#ff0000" points="77,-108 7,-108 7,-72 77,-72 77,-108"/>
<text text-anchor="middle" x="42" y="-87.5" font-family="Helvetica,sans-Serif" font-size="10.00" fill="#000000">YarpUtilities</text>
</a>
</g>
</g>
<!-- dir_91c2441da59622c57293fb216bf9f982&#45;&gt;dir_8216cdb11d6d7661d22001d596207527 -->
<g id="edge2" class="edge">
<title>dir_91c2441da59622c57293fb216bf9f982&#45;&gt;dir_8216cdb11d6d7661d22001d596207527</title>
<path fill="none" stroke="#000000" d="M65.925,-143.8314C62.3898,-135.8771 58.164,-126.369 54.2544,-117.5723"/>
<polygon fill="#000000" stroke="#000000" points="57.4435,-116.1299 50.1837,-108.4133 51.0468,-118.9729 57.4435,-116.1299"/>
<g id="a_edge2&#45;headlabel"><a xlink:href="dir_000041_000069.html" target="_top" xlink:title="1">
<text text-anchor="middle" x="61.4979" y="-115.7616" font-family="Helvetica,sans-Serif" font-size="10.00" fill="#000000">1</text>
</a>
</g>
</g>
<!-- dir_225ae627ccbef5248fe039351b3daf41 -->
<g id="node4" class="node">
<title>dir_225ae627ccbef5248fe039351b3daf41</title>
<g id="a_node4"><a xlink:href="dir_225ae627ccbef5248fe039351b3daf41.html" target="_top" xlink:title="include">
<polygon fill="none" stroke="#ff0000" points="100,-36 46,-36 46,0 100,0 100,-36"/>
<text text-anchor="middle" x="73" y="-15.5" font-family="Helvetica,sans-Serif" font-size="10.00" fill="#000000">include</text>
</a>
</g>
</g>
<!-- dir_91c2441da59622c57293fb216bf9f982&#45;&gt;dir_225ae627ccbef5248fe039351b3daf41 -->
<g id="edge3" class="edge">
<title>dir_91c2441da59622c57293fb216bf9f982&#45;&gt;dir_225ae627ccbef5248fe039351b3daf41</title>
<path fill="none" stroke="#000000" d="M79.1191,-143.6727C81.752,-133.2978 84.6796,-120.0284 86,-108 87.7459,-92.0955 87.8856,-87.8885 86,-72 84.9932,-63.5166 83.1264,-54.4376 81.1153,-46.1913"/>
<polygon fill="#000000" stroke="#000000" points="84.4472,-45.0971 78.5446,-36.2988 77.6722,-46.8576 84.4472,-45.0971"/>
<g id="a_edge3&#45;headlabel"><a xlink:href="dir_000041_000035.html" target="_top" xlink:title="1">
<text text-anchor="middle" x="88.0992" y="-45.3621" font-family="Helvetica,sans-Serif" font-size="10.00" fill="#000000">1</text>
</a>
</g>
</g>
<!-- dir_8216cdb11d6d7661d22001d596207527&#45;&gt;dir_225ae627ccbef5248fe039351b3daf41 -->
<g id="edge1" class="edge">
<title>dir_8216cdb11d6d7661d22001d596207527&#45;&gt;dir_225ae627ccbef5248fe039351b3daf41</title>
<path fill="none" stroke="#000000" d="M49.8226,-71.8314C53.2109,-63.9617 57.2541,-54.5712 61.0076,-45.8533"/>
<polygon fill="#000000" stroke="#000000" points="64.3321,-46.9822 65.0721,-36.4133 57.9027,-44.214 64.3321,-46.9822"/>
<g id="a_edge1&#45;headlabel"><a xlink:href="dir_000069_000035.html" target="_top" xlink:title="1">
<text text-anchor="middle" x="65.5185" y="-48.9066" font-family="Helvetica,sans-Serif" font-size="10.00" fill="#000000">1</text>
</a>
</g>
</g>
</g>
</svg>
