<?xml version="1.0" encoding="UTF-8" standalone="no"?>
<!DOCTYPE svg PUBLIC "-//W3C//DTD SVG 1.1//EN"
 "http://www.w3.org/Graphics/SVG/1.1/DTD/svg11.dtd">
<!-- Generated by graphviz version 2.40.1 (20161225.0304)
 -->
<!-- Title: Estimators/include/BipedalLocomotion Pages: 1 -->
<svg width="377pt" height="303pt"
 viewBox="0.00 0.00 377.00 303.00" xmlns="http://www.w3.org/2000/svg" xmlns:xlink="http://www.w3.org/1999/xlink">
<g id="graph0" class="graph" transform="scale(1 1) rotate(0) translate(4 299)">
<title>Estimators/include/BipedalLocomotion</title>
<g id="clust1" class="cluster">
<title>clusterdir_5b73832fd25c530c2cca7878588bd52f</title>
<g id="a_clust1"><a xlink:href="dir_5b73832fd25c530c2cca7878588bd52f.html" target="_top" xlink:title="include">
<polygon fill="#ddddee" stroke="#000000" points="8,-200 8,-287 361,-287 361,-200 8,-200"/>
<text text-anchor="middle" x="184.5" y="-275" font-family="Helvetica,sans-Serif" font-size="10.00" fill="#000000">include</text>
</a>
</g>
</g>
<g id="clust2" class="cluster">
<title>clusterdir_d519c713466180a07e801187407a5df6</title>
<g id="a_clust2"><a xlink:href="dir_d519c713466180a07e801187407a5df6.html" target="_top">
<polygon fill="#eeeeff" stroke="#000000" points="16,-208 16,-260 353,-260 353,-208 16,-208"/>
</a>
</g>
</g>
<!-- dir_d519c713466180a07e801187407a5df6 -->
<g id="node1" class="node">
<title>dir_d519c713466180a07e801187407a5df6</title>
<text text-anchor="middle" x="295" y="-231.5" font-family="Helvetica,sans-Serif" font-size="10.00" fill="#000000">BipedalLocomotion</text>
</g>
<!-- dir_f166336a84a379978bdb386d14d5adc9 -->
<g id="node2" class="node">
<title>dir_f166336a84a379978bdb386d14d5adc9</title>
<g id="a_node2"><a xlink:href="dir_f166336a84a379978bdb386d14d5adc9.html" target="_top" xlink:title="Estimators">
<polygon fill="#ffffff" stroke="#000000" points="88,-252 24,-252 24,-216 88,-216 88,-252"/>
<text text-anchor="middle" x="56" y="-231.5" font-family="Helvetica,sans-Serif" font-size="10.00" fill="#000000">Estimators</text>
</a>
</g>
</g>
<!-- dir_967a94bae6ec677146d0e6dc30a32242 -->
<g id="node5" class="node">
<title>dir_967a94bae6ec677146d0e6dc30a32242</title>
<g id="a_node5"><a xlink:href="dir_967a94bae6ec677146d0e6dc30a32242.html" target="_top" xlink:title="ParametersHandler">
<polygon fill="none" stroke="#ff0000" points="189.5,-36 88.5,-36 88.5,0 189.5,0 189.5,-36"/>
<text text-anchor="middle" x="139" y="-15.5" font-family="Helvetica,sans-Serif" font-size="10.00" fill="#000000">ParametersHandler</text>
</a>
</g>
</g>
<!-- dir_f166336a84a379978bdb386d14d5adc9&#45;&gt;dir_967a94bae6ec677146d0e6dc30a32242 -->
<g id="edge3" class="edge">
<title>dir_f166336a84a379978bdb386d14d5adc9&#45;&gt;dir_967a94bae6ec677146d0e6dc30a32242</title>
<path fill="none" stroke="#000000" d="M53.9729,-215.7067C51.3593,-184.2775 49.788,-118.889 75,-72 81.1387,-60.5832 90.7651,-50.5686 100.7051,-42.3642"/>
<polygon fill="#000000" stroke="#000000" points="102.9236,-45.073 108.6832,-36.1804 98.6352,-39.5403 102.9236,-45.073"/>
<g id="a_edge3&#45;headlabel"><a xlink:href="dir_000022_000034.html" target="_top" xlink:title="1">
<text text-anchor="middle" x="101.8218" y="-47.0191" font-family="Helvetica,sans-Serif" font-size="10.00" fill="#000000">1</text>
</a>
</g>
</g>
<!-- dir_9af51e3826d4f9e80d9103b2de543e84 -->
<g id="node6" class="node">
<title>dir_9af51e3826d4f9e80d9103b2de543e84</title>
<g id="a_node6"><a xlink:href="dir_9af51e3826d4f9e80d9103b2de543e84.html" target="_top" xlink:title="System">
<polygon fill="none" stroke="#ff0000" points="138,-108 84,-108 84,-72 138,-72 138,-108"/>
<text text-anchor="middle" x="111" y="-87.5" font-family="Helvetica,sans-Serif" font-size="10.00" fill="#000000">System</text>
</a>
</g>
</g>
<!-- dir_f166336a84a379978bdb386d14d5adc9&#45;&gt;dir_9af51e3826d4f9e80d9103b2de543e84 -->
<g id="edge4" class="edge">
<title>dir_f166336a84a379978bdb386d14d5adc9&#45;&gt;dir_9af51e3826d4f9e80d9103b2de543e84</title>
<path fill="none" stroke="#000000" d="M62.9658,-215.7623C72.4295,-190.9846 89.4311,-146.4714 100.4607,-117.5939"/>
<polygon fill="#000000" stroke="#000000" points="103.7923,-118.6803 104.0908,-108.0896 97.253,-116.1826 103.7923,-118.6803"/>
<g id="a_edge4&#45;headlabel"><a xlink:href="dir_000022_000059.html" target="_top" xlink:title="1">
<text text-anchor="middle" x="105.1622" y="-120.5513" font-family="Helvetica,sans-Serif" font-size="10.00" fill="#000000">1</text>
</a>
</g>
</g>
<!-- dir_1ba5740042f71f7e986abdc01d70e168 -->
<g id="node3" class="node">
<title>dir_1ba5740042f71f7e986abdc01d70e168</title>
<g id="a_node3"><a xlink:href="dir_1ba5740042f71f7e986abdc01d70e168.html" target="_top" xlink:title="FloatingBaseEstimators">
<polygon fill="#ffffff" stroke="#000000" points="227.5,-252 106.5,-252 106.5,-216 227.5,-216 227.5,-252"/>
<text text-anchor="middle" x="167" y="-231.5" font-family="Helvetica,sans-Serif" font-size="10.00" fill="#000000">FloatingBaseEstimators</text>
</a>
</g>
</g>
<!-- dir_6d28a1f3fea9cd50f0f51ef4779c2863 -->
<g id="node4" class="node">
<title>dir_6d28a1f3fea9cd50f0f51ef4779c2863</title>
<g id="a_node4"><a xlink:href="dir_6d28a1f3fea9cd50f0f51ef4779c2863.html" target="_top" xlink:title="Contacts">
<polygon fill="none" stroke="#ff0000" points="195,-180 139,-180 139,-144 195,-144 195,-180"/>
<text text-anchor="middle" x="167" y="-159.5" font-family="Helvetica,sans-Serif" font-size="10.00" fill="#000000">Contacts</text>
</a>
</g>
</g>
<!-- dir_1ba5740042f71f7e986abdc01d70e168&#45;&gt;dir_6d28a1f3fea9cd50f0f51ef4779c2863 -->
<g id="edge6" class="edge">
<title>dir_1ba5740042f71f7e986abdc01d70e168&#45;&gt;dir_6d28a1f3fea9cd50f0f51ef4779c2863</title>
<path fill="none" stroke="#000000" d="M167,-215.8314C167,-208.131 167,-198.9743 167,-190.4166"/>
<polygon fill="#000000" stroke="#000000" points="170.5001,-190.4132 167,-180.4133 163.5001,-190.4133 170.5001,-190.4132"/>
<g id="a_edge6&#45;headlabel"><a xlink:href="dir_000023_000009.html" target="_top" xlink:title="1">
<text text-anchor="middle" x="173.3393" y="-191.5079" font-family="Helvetica,sans-Serif" font-size="10.00" fill="#000000">1</text>
</a>
</g>
</g>
<!-- dir_1ba5740042f71f7e986abdc01d70e168&#45;&gt;dir_967a94bae6ec677146d0e6dc30a32242 -->
<g id="edge7" class="edge">
<title>dir_1ba5740042f71f7e986abdc01d70e168&#45;&gt;dir_967a94bae6ec677146d0e6dc30a32242</title>
<path fill="none" stroke="#000000" d="M183.4281,-215.989C191.3025,-206.1289 199.898,-193.2441 204,-180 208.7338,-164.7163 207.762,-159.5514 204,-144 195.0828,-107.1381 173.3536,-69.0053 157.4649,-44.4845"/>
<polygon fill="#000000" stroke="#000000" points="160.3487,-42.5001 151.91,-36.094 154.512,-46.3643 160.3487,-42.5001"/>
<g id="a_edge7&#45;headlabel"><a xlink:href="dir_000023_000034.html" target="_top" xlink:title="2">
<text text-anchor="middle" x="164.7005" y="-41.43" font-family="Helvetica,sans-Serif" font-size="10.00" fill="#000000">2</text>
</a>
</g>
</g>
<!-- dir_1ba5740042f71f7e986abdc01d70e168&#45;&gt;dir_9af51e3826d4f9e80d9103b2de543e84 -->
<g id="edge8" class="edge">
<title>dir_1ba5740042f71f7e986abdc01d70e168&#45;&gt;dir_9af51e3826d4f9e80d9103b2de543e84</title>
<path fill="none" stroke="#000000" d="M151.6841,-215.5801C144.114,-205.608 135.4551,-192.7465 130,-180 121.5437,-160.2409 116.7274,-136.3827 114.0611,-118.1965"/>
<polygon fill="#000000" stroke="#000000" points="117.5215,-117.6666 112.7283,-108.218 110.5831,-118.5934 117.5215,-117.6666"/>
<g id="a_edge8&#45;headlabel"><a xlink:href="dir_000023_000059.html" target="_top" xlink:title="1">
<text text-anchor="middle" x="120.8115" y="-118.3538" font-family="Helvetica,sans-Serif" font-size="10.00" fill="#000000">1</text>
</a>
</g>
</g>
<!-- dir_6d28a1f3fea9cd50f0f51ef4779c2863&#45;&gt;dir_967a94bae6ec677146d0e6dc30a32242 -->
<g id="edge1" class="edge">
<title>dir_6d28a1f3fea9cd50f0f51ef4779c2863&#45;&gt;dir_967a94bae6ec677146d0e6dc30a32242</title>
<path fill="none" stroke="#000000" d="M163.4538,-143.7623C158.6569,-119.0928 150.0561,-74.8598 144.4392,-45.9731"/>
<polygon fill="#000000" stroke="#000000" points="147.8619,-45.2377 142.5174,-36.0896 140.9905,-46.5738 147.8619,-45.2377"/>
<g id="a_edge1&#45;headlabel"><a xlink:href="dir_000009_000034.html" target="_top" xlink:title="1">
<text text-anchor="middle" x="151.335" y="-45.7243" font-family="Helvetica,sans-Serif" font-size="10.00" fill="#000000">1</text>
</a>
</g>
</g>
<!-- dir_6d28a1f3fea9cd50f0f51ef4779c2863&#45;&gt;dir_9af51e3826d4f9e80d9103b2de543e84 -->
<g id="edge2" class="edge">
<title>dir_6d28a1f3fea9cd50f0f51ef4779c2863&#45;&gt;dir_9af51e3826d4f9e80d9103b2de543e84</title>
<path fill="none" stroke="#000000" d="M152.8688,-143.8314C146.4189,-135.5386 138.6555,-125.557 131.5748,-116.4533"/>
<polygon fill="#000000" stroke="#000000" points="134.2236,-114.158 125.3214,-108.4133 128.6981,-118.4556 134.2236,-114.158"/>
<g id="a_edge2&#45;headlabel"><a xlink:href="dir_000009_000059.html" target="_top" xlink:title="1">
<text text-anchor="middle" x="138.6716" y="-112.7523" font-family="Helvetica,sans-Serif" font-size="10.00" fill="#000000">1</text>
</a>
</g>
</g>
<!-- dir_9af51e3826d4f9e80d9103b2de543e84&#45;&gt;dir_967a94bae6ec677146d0e6dc30a32242 -->
<g id="edge5" class="edge">
<title>dir_9af51e3826d4f9e80d9103b2de543e84&#45;&gt;dir_967a94bae6ec677146d0e6dc30a32242</title>
<path fill="none" stroke="#000000" d="M118.0656,-71.8314C121.126,-63.9617 124.7779,-54.5712 128.1682,-45.8533"/>
<polygon fill="#000000" stroke="#000000" points="131.4768,-47.0019 131.8393,-36.4133 124.9527,-44.4647 131.4768,-47.0019"/>
<g id="a_edge5&#45;headlabel"><a xlink:href="dir_000059_000034.html" target="_top" xlink:title="3">
<text text-anchor="middle" x="132.8202" y="-48.8812" font-family="Helvetica,sans-Serif" font-size="10.00" fill="#000000">3</text>
</a>
</g>
</g>
</g>
</svg>
