<?xml version="1.0" encoding="UTF-8" standalone="no"?>
<!DOCTYPE svg PUBLIC "-//W3C//DTD SVG 1.1//EN"
 "http://www.w3.org/Graphics/SVG/1.1/DTD/svg11.dtd">
<!-- Generated by graphviz version 2.40.1 (20161225.0304)
 -->
<!-- Title: ParametersHandler/YarpImplementation/include/BipedalLocomotion/ParametersHandler Pages: 1 -->
<svg width="142pt" height="223pt"
 viewBox="0.00 0.00 142.00 223.00" xmlns="http://www.w3.org/2000/svg" xmlns:xlink="http://www.w3.org/1999/xlink">
<g id="graph0" class="graph" transform="scale(1 1) rotate(0) translate(4 219)">
<title>ParametersHandler/YarpImplementation/include/BipedalLocomotion/ParametersHandler</title>
<g id="clust1" class="cluster">
<title>clusterdir_91c2441da59622c57293fb216bf9f982</title>
<g id="a_clust1"><a xlink:href="dir_91c2441da59622c57293fb216bf9f982.html" target="_top" xlink:title="BipedalLocomotion">
<polygon fill="#ddddee" stroke="#000000" points="8,-136 8,-207 126,-207 126,-136 8,-136"/>
<text text-anchor="middle" x="67" y="-195" font-family="Helvetica,sans-Serif" font-size="10.00" fill="#000000">BipedalLocomotion</text>
</a>
</g>
</g>
<!-- dir_38fd987228b03343ff9ce6ff920521c7 -->
<g id="node1" class="node">
<title>dir_38fd987228b03343ff9ce6ff920521c7</title>
<g id="a_node1"><a xlink:href="dir_38fd987228b03343ff9ce6ff920521c7.html" target="_top" xlink:title="ParametersHandler">
<polygon fill="#eeeeff" stroke="#000000" points="117.5,-180 16.5,-180 16.5,-144 117.5,-144 117.5,-180"/>
<text text-anchor="middle" x="67" y="-159.5" font-family="Helvetica,sans-Serif" font-size="10.00" fill="#000000">ParametersHandler</text>
</a>
</g>
</g>
<!-- dir_8216cdb11d6d7661d22001d596207527 -->
<g id="node2" class="node">
<title>dir_8216cdb11d6d7661d22001d596207527</title>
<g id="a_node2"><a xlink:href="dir_8216cdb11d6d7661d22001d596207527.html" target="_top" xlink:title="YarpUtilities">
<polygon fill="none" stroke="#ff0000" points="70,-108 0,-108 0,-72 70,-72 70,-108"/>
<text text-anchor="middle" x="35" y="-87.5" font-family="Helvetica,sans-Serif" font-size="10.00" fill="#000000">YarpUtilities</text>
</a>
</g>
</g>
<!-- dir_38fd987228b03343ff9ce6ff920521c7&#45;&gt;dir_8216cdb11d6d7661d22001d596207527 -->
<g id="edge2" class="edge">
<title>dir_38fd987228b03343ff9ce6ff920521c7&#45;&gt;dir_8216cdb11d6d7661d22001d596207527</title>
<path fill="none" stroke="#000000" d="M58.925,-143.8314C55.3898,-135.8771 51.164,-126.369 47.2544,-117.5723"/>
<polygon fill="#000000" stroke="#000000" points="50.4435,-116.1299 43.1837,-108.4133 44.0468,-118.9729 50.4435,-116.1299"/>
<g id="a_edge2&#45;headlabel"><a xlink:href="dir_000042_000069.html" target="_top" xlink:title="1">
<text text-anchor="middle" x="54.4979" y="-115.7616" font-family="Helvetica,sans-Serif" font-size="10.00" fill="#000000">1</text>
</a>
</g>
</g>
<!-- dir_225ae627ccbef5248fe039351b3daf41 -->
<g id="node3" class="node">
<title>dir_225ae627ccbef5248fe039351b3daf41</title>
<g id="a_node3"><a xlink:href="dir_225ae627ccbef5248fe039351b3daf41.html" target="_top" xlink:title="include">
<polygon fill="none" stroke="#ff0000" points="93,-36 39,-36 39,0 93,0 93,-36"/>
<text text-anchor="middle" x="66" y="-15.5" font-family="Helvetica,sans-Serif" font-size="10.00" fill="#000000">include</text>
</a>
</g>
</g>
<!-- dir_38fd987228b03343ff9ce6ff920521c7&#45;&gt;dir_225ae627ccbef5248fe039351b3daf41 -->
<g id="edge3" class="edge">
<title>dir_38fd987228b03343ff9ce6ff920521c7&#45;&gt;dir_225ae627ccbef5248fe039351b3daf41</title>
<path fill="none" stroke="#000000" d="M72.1191,-143.6727C74.752,-133.2978 77.6796,-120.0284 79,-108 80.7459,-92.0955 80.8856,-87.8885 79,-72 77.9932,-63.5166 76.1264,-54.4376 74.1153,-46.1913"/>
<polygon fill="#000000" stroke="#000000" points="77.4472,-45.0971 71.5446,-36.2988 70.6722,-46.8576 77.4472,-45.0971"/>
<g id="a_edge3&#45;headlabel"><a xlink:href="dir_000042_000035.html" target="_top" xlink:title="1">
<text text-anchor="middle" x="81.0992" y="-45.3621" font-family="Helvetica,sans-Serif" font-size="10.00" fill="#000000">1</text>
</a>
</g>
</g>
<!-- dir_8216cdb11d6d7661d22001d596207527&#45;&gt;dir_225ae627ccbef5248fe039351b3daf41 -->
<g id="edge1" class="edge">
<title>dir_8216cdb11d6d7661d22001d596207527&#45;&gt;dir_225ae627ccbef5248fe039351b3daf41</title>
<path fill="none" stroke="#000000" d="M42.8226,-71.8314C46.2109,-63.9617 50.2541,-54.5712 54.0076,-45.8533"/>
<polygon fill="#000000" stroke="#000000" points="57.3321,-46.9822 58.0721,-36.4133 50.9027,-44.214 57.3321,-46.9822"/>
<g id="a_edge1&#45;headlabel"><a xlink:href="dir_000069_000035.html" target="_top" xlink:title="1">
<text text-anchor="middle" x="58.5185" y="-48.9066" font-family="Helvetica,sans-Serif" font-size="10.00" fill="#000000">1</text>
</a>
</g>
</g>
</g>
</svg>
