<?xml version="1.0" encoding="UTF-8" standalone="no"?>
<!DOCTYPE svg PUBLIC "-//W3C//DTD SVG 1.1//EN"
 "http://www.w3.org/Graphics/SVG/1.1/DTD/svg11.dtd">
<!-- Generated by graphviz version 2.40.1 (20161225.0304)
 -->
<!-- Title: System Pages: 1 -->
<svg width="310pt" height="276pt"
 viewBox="0.00 0.00 309.50 276.00" xmlns="http://www.w3.org/2000/svg" xmlns:xlink="http://www.w3.org/1999/xlink">
<g id="graph0" class="graph" transform="scale(1 1) rotate(0) translate(4 272)">
<title>System</title>
<g id="clust1" class="cluster">
<title>clusterdir_9af51e3826d4f9e80d9103b2de543e84</title>
<g id="a_clust1"><a xlink:href="dir_9af51e3826d4f9e80d9103b2de543e84.html" target="_top">
<polygon fill="#eeeeff" stroke="#000000" points="8,-136 8,-260 150,-260 150,-136 8,-136"/>
</a>
</g>
</g>
<!-- dir_9af51e3826d4f9e80d9103b2de543e84 -->
<g id="node1" class="node">
<title>dir_9af51e3826d4f9e80d9103b2de543e84</title>
<text text-anchor="middle" x="115" y="-231.5" font-family="Helvetica,sans-Serif" font-size="10.00" fill="#000000">System</text>
</g>
<!-- dir_606f80137030ee7668cf70a8cd6432ec -->
<g id="node2" class="node">
<title>dir_606f80137030ee7668cf70a8cd6432ec</title>
<g id="a_node2"><a xlink:href="dir_606f80137030ee7668cf70a8cd6432ec.html" target="_top" xlink:title="include">
<polygon fill="#ffffff" stroke="#ff0000" points="87,-180 33,-180 33,-144 87,-144 87,-180"/>
<text text-anchor="middle" x="60" y="-159.5" font-family="Helvetica,sans-Serif" font-size="10.00" fill="#000000">include</text>
</a>
</g>
</g>
<!-- dir_38f8d072ac46a001c980a8e9d40cc318 -->
<g id="node4" class="node">
<title>dir_38f8d072ac46a001c980a8e9d40cc318</title>
<g id="a_node4"><a xlink:href="dir_38f8d072ac46a001c980a8e9d40cc318.html" target="_top" xlink:title="ContactModels">
<polygon fill="none" stroke="#ff0000" points="101.5,-108 18.5,-108 18.5,-72 101.5,-72 101.5,-108"/>
<text text-anchor="middle" x="60" y="-87.5" font-family="Helvetica,sans-Serif" font-size="10.00" fill="#000000">ContactModels</text>
</a>
</g>
</g>
<!-- dir_606f80137030ee7668cf70a8cd6432ec&#45;&gt;dir_38f8d072ac46a001c980a8e9d40cc318 -->
<g id="edge1" class="edge">
<title>dir_606f80137030ee7668cf70a8cd6432ec&#45;&gt;dir_38f8d072ac46a001c980a8e9d40cc318</title>
<path fill="none" stroke="#000000" d="M60,-143.8314C60,-136.131 60,-126.9743 60,-118.4166"/>
<polygon fill="#000000" stroke="#000000" points="63.5001,-118.4132 60,-108.4133 56.5001,-118.4133 63.5001,-118.4132"/>
<g id="a_edge1&#45;headlabel"><a xlink:href="dir_000060_000004.html" target="_top" xlink:title="1">
<text text-anchor="middle" x="66.3393" y="-119.5079" font-family="Helvetica,sans-Serif" font-size="10.00" fill="#000000">1</text>
</a>
</g>
</g>
<!-- dir_967a94bae6ec677146d0e6dc30a32242 -->
<g id="node7" class="node">
<title>dir_967a94bae6ec677146d0e6dc30a32242</title>
<g id="a_node7"><a xlink:href="dir_967a94bae6ec677146d0e6dc30a32242.html" target="_top" xlink:title="ParametersHandler">
<polygon fill="none" stroke="#ff0000" points="180.5,-36 79.5,-36 79.5,0 180.5,0 180.5,-36"/>
<text text-anchor="middle" x="130" y="-15.5" font-family="Helvetica,sans-Serif" font-size="10.00" fill="#000000">ParametersHandler</text>
</a>
</g>
</g>
<!-- dir_606f80137030ee7668cf70a8cd6432ec&#45;&gt;dir_967a94bae6ec677146d0e6dc30a32242 -->
<g id="edge2" class="edge">
<title>dir_606f80137030ee7668cf70a8cd6432ec&#45;&gt;dir_967a94bae6ec677146d0e6dc30a32242</title>
<path fill="none" stroke="#000000" d="M81.3139,-143.9695C91.4506,-134.2934 102.8818,-121.5794 110,-108 120.0635,-88.8019 125.0766,-64.7301 127.5665,-46.3133"/>
<polygon fill="#000000" stroke="#000000" points="131.0635,-46.5441 128.76,-36.2027 124.1117,-45.7234 131.0635,-46.5441"/>
<g id="a_edge2&#45;headlabel"><a xlink:href="dir_000060_000034.html" target="_top" xlink:title="3">
<text text-anchor="middle" x="133.4618" y="-47.9468" font-family="Helvetica,sans-Serif" font-size="10.00" fill="#000000">3</text>
</a>
</g>
</g>
<!-- dir_0b2f528159b3fbdddc82166b8eb854cd -->
<g id="node3" class="node">
<title>dir_0b2f528159b3fbdddc82166b8eb854cd</title>
<g id="a_node3"><a xlink:href="dir_0b2f528159b3fbdddc82166b8eb854cd.html" target="_top" xlink:title="src">
<polygon fill="#ffffff" stroke="#000000" points="70,-252 16,-252 16,-216 70,-216 70,-252"/>
<text text-anchor="middle" x="43" y="-231.5" font-family="Helvetica,sans-Serif" font-size="10.00" fill="#000000">src</text>
</a>
</g>
</g>
<!-- dir_0b2f528159b3fbdddc82166b8eb854cd&#45;&gt;dir_606f80137030ee7668cf70a8cd6432ec -->
<g id="edge3" class="edge">
<title>dir_0b2f528159b3fbdddc82166b8eb854cd&#45;&gt;dir_606f80137030ee7668cf70a8cd6432ec</title>
<path fill="none" stroke="#000000" d="M47.2898,-215.8314C49.108,-208.131 51.2699,-198.9743 53.2905,-190.4166"/>
<polygon fill="#000000" stroke="#000000" points="56.7608,-190.95 55.6524,-180.4133 49.9481,-189.3414 56.7608,-190.95"/>
<g id="a_edge3&#45;headlabel"><a xlink:href="dir_000063_000060.html" target="_top" xlink:title="5">
<text text-anchor="middle" x="58.6981" y="-192.6008" font-family="Helvetica,sans-Serif" font-size="10.00" fill="#000000">5</text>
</a>
</g>
</g>
<!-- dir_5bce4665f02041fc00c7e7e07b63c945 -->
<g id="node5" class="node">
<title>dir_5bce4665f02041fc00c7e7e07b63c945</title>
<g id="a_node5"><a xlink:href="dir_5bce4665f02041fc00c7e7e07b63c945.html" target="_top" xlink:title="Math">
<polygon fill="none" stroke="#ff0000" points="212,-180 158,-180 158,-144 212,-144 212,-180"/>
<text text-anchor="middle" x="185" y="-159.5" font-family="Helvetica,sans-Serif" font-size="10.00" fill="#000000">Math</text>
</a>
</g>
</g>
<!-- dir_0b2f528159b3fbdddc82166b8eb854cd&#45;&gt;dir_5bce4665f02041fc00c7e7e07b63c945 -->
<g id="edge4" class="edge">
<title>dir_0b2f528159b3fbdddc82166b8eb854cd&#45;&gt;dir_5bce4665f02041fc00c7e7e07b63c945</title>
<path fill="none" stroke="#000000" d="M70.1036,-220.3897C73.102,-218.9015 76.1135,-217.4143 79,-216 109.2201,-201.1933 119.4879,-197.8457 148.503,-182.829"/>
<polygon fill="#000000" stroke="#000000" points="150.4483,-185.761 157.6807,-178.0187 147.1987,-179.561 150.4483,-185.761"/>
<g id="a_edge4&#45;headlabel"><a xlink:href="dir_000063_000029.html" target="_top" xlink:title="1">
<text text-anchor="middle" x="148.5826" y="-187.4445" font-family="Helvetica,sans-Serif" font-size="10.00" fill="#000000">1</text>
</a>
</g>
</g>
<!-- dir_c0f0fcf6fc0109eca0321acba0536c3b -->
<g id="node6" class="node">
<title>dir_c0f0fcf6fc0109eca0321acba0536c3b</title>
<g id="a_node6"><a xlink:href="dir_c0f0fcf6fc0109eca0321acba0536c3b.html" target="_top" xlink:title="Conversions">
<polygon fill="none" stroke="#ff0000" points="301.5,-180 230.5,-180 230.5,-144 301.5,-144 301.5,-180"/>
<text text-anchor="middle" x="266" y="-159.5" font-family="Helvetica,sans-Serif" font-size="10.00" fill="#000000">Conversions</text>
</a>
</g>
</g>
<!-- dir_0b2f528159b3fbdddc82166b8eb854cd&#45;&gt;dir_c0f0fcf6fc0109eca0321acba0536c3b -->
<g id="edge5" class="edge">
<title>dir_0b2f528159b3fbdddc82166b8eb854cd&#45;&gt;dir_c0f0fcf6fc0109eca0321acba0536c3b</title>
<path fill="none" stroke="#000000" d="M70.2461,-219.6169C73.1635,-218.3064 76.1182,-217.0715 79,-216 137.1655,-194.3737 157.2048,-199.5593 220.6152,-179.8687"/>
<polygon fill="#000000" stroke="#000000" points="221.8342,-183.1536 230.2952,-176.7768 219.7044,-176.4854 221.8342,-183.1536"/>
<g id="a_edge5&#45;headlabel"><a xlink:href="dir_000063_000015.html" target="_top" xlink:title="1">
<text text-anchor="middle" x="219.2739" y="-184.4518" font-family="Helvetica,sans-Serif" font-size="10.00" fill="#000000">1</text>
</a>
</g>
</g>
<!-- dir_38f8d072ac46a001c980a8e9d40cc318&#45;&gt;dir_967a94bae6ec677146d0e6dc30a32242 -->
<g id="edge6" class="edge">
<title>dir_38f8d072ac46a001c980a8e9d40cc318&#45;&gt;dir_967a94bae6ec677146d0e6dc30a32242</title>
<path fill="none" stroke="#000000" d="M77.664,-71.8314C85.9732,-63.2848 96.0264,-52.9443 105.0918,-43.6198"/>
<polygon fill="#000000" stroke="#000000" points="107.6369,-46.023 112.0982,-36.4133 102.6179,-41.1435 107.6369,-46.023"/>
<g id="a_edge6&#45;headlabel"><a xlink:href="dir_000004_000034.html" target="_top" xlink:title="3">
<text text-anchor="middle" x="107.1669" y="-48.0795" font-family="Helvetica,sans-Serif" font-size="10.00" fill="#000000">3</text>
</a>
</g>
</g>
<!-- dir_5bce4665f02041fc00c7e7e07b63c945&#45;&gt;dir_967a94bae6ec677146d0e6dc30a32242 -->
<g id="edge7" class="edge">
<title>dir_5bce4665f02041fc00c7e7e07b63c945&#45;&gt;dir_967a94bae6ec677146d0e6dc30a32242</title>
<path fill="none" stroke="#000000" d="M178.0342,-143.7623C168.5705,-118.9846 151.5689,-74.4714 140.5393,-45.5939"/>
<polygon fill="#000000" stroke="#000000" points="143.747,-44.1826 136.9092,-36.0896 137.2077,-46.6803 143.747,-44.1826"/>
<g id="a_edge7&#45;headlabel"><a xlink:href="dir_000029_000034.html" target="_top" xlink:title="1">
<text text-anchor="middle" x="147.6819" y="-44.0275" font-family="Helvetica,sans-Serif" font-size="10.00" fill="#000000">1</text>
</a>
</g>
</g>
</g>
</svg>
