<?xml version="1.0" encoding="UTF-8" standalone="no"?>
<!DOCTYPE svg PUBLIC "-//W3C//DTD SVG 1.1//EN"
 "http://www.w3.org/Graphics/SVG/1.1/DTD/svg11.dtd">
<!-- Generated by graphviz version 2.40.1 (20161225.0304)
 -->
<!-- Title: ParametersHandler/YarpImplementation/include/BipedalLocomotion Pages: 1 -->
<svg width="275pt" height="231pt"
 viewBox="0.00 0.00 275.00 231.00" xmlns="http://www.w3.org/2000/svg" xmlns:xlink="http://www.w3.org/1999/xlink">
<g id="graph0" class="graph" transform="scale(1 1) rotate(0) translate(4 227)">
<title>ParametersHandler/YarpImplementation/include/BipedalLocomotion</title>
<g id="clust1" class="cluster">
<title>clusterdir_eda1a916b7339bdea7202931b34c92e4</title>
<g id="a_clust1"><a xlink:href="dir_eda1a916b7339bdea7202931b34c92e4.html" target="_top" xlink:title="include">
<polygon fill="#ddddee" stroke="#000000" points="8,-128 8,-215 259,-215 259,-128 8,-128"/>
<text text-anchor="middle" x="133.5" y="-203" font-family="Helvetica,sans-Serif" font-size="10.00" fill="#000000">include</text>
</a>
</g>
</g>
<g id="clust2" class="cluster">
<title>clusterdir_91c2441da59622c57293fb216bf9f982</title>
<g id="a_clust2"><a xlink:href="dir_91c2441da59622c57293fb216bf9f982.html" target="_top">
<polygon fill="#eeeeff" stroke="#000000" points="16,-136 16,-188 251,-188 251,-136 16,-136"/>
</a>
</g>
</g>
<!-- dir_91c2441da59622c57293fb216bf9f982 -->
<g id="node1" class="node">
<title>dir_91c2441da59622c57293fb216bf9f982</title>
<text text-anchor="middle" x="193" y="-159.5" font-family="Helvetica,sans-Serif" font-size="10.00" fill="#000000">BipedalLocomotion</text>
</g>
<!-- dir_38fd987228b03343ff9ce6ff920521c7 -->
<g id="node2" class="node">
<title>dir_38fd987228b03343ff9ce6ff920521c7</title>
<g id="a_node2"><a xlink:href="dir_38fd987228b03343ff9ce6ff920521c7.html" target="_top" xlink:title="ParametersHandler">
<polygon fill="#ffffff" stroke="#000000" points="125.5,-180 24.5,-180 24.5,-144 125.5,-144 125.5,-180"/>
<text text-anchor="middle" x="75" y="-159.5" font-family="Helvetica,sans-Serif" font-size="10.00" fill="#000000">ParametersHandler</text>
</a>
</g>
</g>
<!-- dir_8216cdb11d6d7661d22001d596207527 -->
<g id="node3" class="node">
<title>dir_8216cdb11d6d7661d22001d596207527</title>
<g id="a_node3"><a xlink:href="dir_8216cdb11d6d7661d22001d596207527.html" target="_top" xlink:title="YarpUtilities">
<polygon fill="none" stroke="#ff0000" points="78,-108 8,-108 8,-72 78,-72 78,-108"/>
<text text-anchor="middle" x="43" y="-87.5" font-family="Helvetica,sans-Serif" font-size="10.00" fill="#000000">YarpUtilities</text>
</a>
</g>
</g>
<!-- dir_38fd987228b03343ff9ce6ff920521c7&#45;&gt;dir_8216cdb11d6d7661d22001d596207527 -->
<g id="edge2" class="edge">
<title>dir_38fd987228b03343ff9ce6ff920521c7&#45;&gt;dir_8216cdb11d6d7661d22001d596207527</title>
<path fill="none" stroke="#000000" d="M66.925,-143.8314C63.3898,-135.8771 59.164,-126.369 55.2544,-117.5723"/>
<polygon fill="#000000" stroke="#000000" points="58.4435,-116.1299 51.1837,-108.4133 52.0468,-118.9729 58.4435,-116.1299"/>
<g id="a_edge2&#45;headlabel"><a xlink:href="dir_000042_000069.html" target="_top" xlink:title="1">
<text text-anchor="middle" x="62.4979" y="-115.7616" font-family="Helvetica,sans-Serif" font-size="10.00" fill="#000000">1</text>
</a>
</g>
</g>
<!-- dir_225ae627ccbef5248fe039351b3daf41 -->
<g id="node4" class="node">
<title>dir_225ae627ccbef5248fe039351b3daf41</title>
<g id="a_node4"><a xlink:href="dir_225ae627ccbef5248fe039351b3daf41.html" target="_top" xlink:title="include">
<polygon fill="none" stroke="#ff0000" points="101,-36 47,-36 47,0 101,0 101,-36"/>
<text text-anchor="middle" x="74" y="-15.5" font-family="Helvetica,sans-Serif" font-size="10.00" fill="#000000">include</text>
</a>
</g>
</g>
<!-- dir_38fd987228b03343ff9ce6ff920521c7&#45;&gt;dir_225ae627ccbef5248fe039351b3daf41 -->
<g id="edge3" class="edge">
<title>dir_38fd987228b03343ff9ce6ff920521c7&#45;&gt;dir_225ae627ccbef5248fe039351b3daf41</title>
<path fill="none" stroke="#000000" d="M80.1191,-143.6727C82.752,-133.2978 85.6796,-120.0284 87,-108 88.7459,-92.0955 88.8856,-87.8885 87,-72 85.9932,-63.5166 84.1264,-54.4376 82.1153,-46.1913"/>
<polygon fill="#000000" stroke="#000000" points="85.4472,-45.0971 79.5446,-36.2988 78.6722,-46.8576 85.4472,-45.0971"/>
<g id="a_edge3&#45;headlabel"><a xlink:href="dir_000042_000035.html" target="_top" xlink:title="1">
<text text-anchor="middle" x="89.0992" y="-45.3621" font-family="Helvetica,sans-Serif" font-size="10.00" fill="#000000">1</text>
</a>
</g>
</g>
<!-- dir_8216cdb11d6d7661d22001d596207527&#45;&gt;dir_225ae627ccbef5248fe039351b3daf41 -->
<g id="edge1" class="edge">
<title>dir_8216cdb11d6d7661d22001d596207527&#45;&gt;dir_225ae627ccbef5248fe039351b3daf41</title>
<path fill="none" stroke="#000000" d="M50.8226,-71.8314C54.2109,-63.9617 58.2541,-54.5712 62.0076,-45.8533"/>
<polygon fill="#000000" stroke="#000000" points="65.3321,-46.9822 66.0721,-36.4133 58.9027,-44.214 65.3321,-46.9822"/>
<g id="a_edge1&#45;headlabel"><a xlink:href="dir_000069_000035.html" target="_top" xlink:title="1">
<text text-anchor="middle" x="66.5185" y="-48.9066" font-family="Helvetica,sans-Serif" font-size="10.00" fill="#000000">1</text>
</a>
</g>
</g>
</g>
</svg>
