<?xml version="1.0" encoding="UTF-8" standalone="no"?>
<!DOCTYPE svg PUBLIC "-//W3C//DTD SVG 1.1//EN"
 "http://www.w3.org/Graphics/SVG/1.1/DTD/svg11.dtd">
<!-- Generated by graphviz version 2.40.1 (20161225.0304)
 -->
<!-- Title: RobotInterface/YarpImplementation/include Pages: 1 -->
<svg width="228pt" height="231pt"
 viewBox="0.00 0.00 228.00 231.00" xmlns="http://www.w3.org/2000/svg" xmlns:xlink="http://www.w3.org/1999/xlink">
<g id="graph0" class="graph" transform="scale(1 1) rotate(0) translate(4 227)">
<title>RobotInterface/YarpImplementation/include</title>
<g id="clust1" class="cluster">
<title>clusterdir_eb3edf255354662b8fa1ba982f84794b</title>
<g id="a_clust1"><a xlink:href="dir_eb3edf255354662b8fa1ba982f84794b.html" target="_top" xlink:title="YarpImplementation">
<polygon fill="#ddddee" stroke="#000000" points="8,-128 8,-215 212,-215 212,-128 8,-128"/>
<text text-anchor="middle" x="110" y="-203" font-family="Helvetica,sans-Serif" font-size="10.00" fill="#000000">YarpImplementation</text>
</a>
</g>
</g>
<g id="clust2" class="cluster">
<title>clusterdir_28664388ac6feebf5d87807ba2a08c78</title>
<g id="a_clust2"><a xlink:href="dir_28664388ac6feebf5d87807ba2a08c78.html" target="_top">
<polygon fill="#eeeeff" stroke="#000000" points="16,-136 16,-188 204,-188 204,-136 16,-136"/>
</a>
</g>
</g>
<!-- dir_28664388ac6feebf5d87807ba2a08c78 -->
<g id="node1" class="node">
<title>dir_28664388ac6feebf5d87807ba2a08c78</title>
<text text-anchor="middle" x="169" y="-159.5" font-family="Helvetica,sans-Serif" font-size="10.00" fill="#000000">include</text>
</g>
<!-- dir_5d7ce3e31a7a7d2a623b206abb047173 -->
<g id="node2" class="node">
<title>dir_5d7ce3e31a7a7d2a623b206abb047173</title>
<g id="a_node2"><a xlink:href="dir_5d7ce3e31a7a7d2a623b206abb047173.html" target="_top" xlink:title="BipedalLocomotion">
<polygon fill="#ffffff" stroke="#ff0000" points="123.5,-180 24.5,-180 24.5,-144 123.5,-144 123.5,-180"/>
<text text-anchor="middle" x="74" y="-159.5" font-family="Helvetica,sans-Serif" font-size="10.00" fill="#000000">BipedalLocomotion</text>
</a>
</g>
</g>
<!-- dir_967a94bae6ec677146d0e6dc30a32242 -->
<g id="node3" class="node">
<title>dir_967a94bae6ec677146d0e6dc30a32242</title>
<g id="a_node3"><a xlink:href="dir_967a94bae6ec677146d0e6dc30a32242.html" target="_top" xlink:title="ParametersHandler">
<polygon fill="none" stroke="#ff0000" points="124.5,-36 23.5,-36 23.5,0 124.5,0 124.5,-36"/>
<text text-anchor="middle" x="74" y="-15.5" font-family="Helvetica,sans-Serif" font-size="10.00" fill="#000000">ParametersHandler</text>
</a>
</g>
</g>
<!-- dir_5d7ce3e31a7a7d2a623b206abb047173&#45;&gt;dir_967a94bae6ec677146d0e6dc30a32242 -->
<g id="edge1" class="edge">
<title>dir_5d7ce3e31a7a7d2a623b206abb047173&#45;&gt;dir_967a94bae6ec677146d0e6dc30a32242</title>
<path fill="none" stroke="#000000" d="M58.0095,-143.9169C50.3462,-134.0371 41.9834,-121.1563 38,-108 33.3635,-92.6865 33.3635,-87.3135 38,-72 40.9564,-62.2355 46.3252,-52.6229 52.03,-44.2762"/>
<polygon fill="#000000" stroke="#000000" points="54.9414,-46.2239 58.0095,-36.0831 49.2871,-42.0973 54.9414,-46.2239"/>
<g id="a_edge1&#45;headlabel"><a xlink:href="dir_000056_000034.html" target="_top" xlink:title="1">
<text text-anchor="middle" x="55.1158" y="-48.3013" font-family="Helvetica,sans-Serif" font-size="10.00" fill="#000000">1</text>
</a>
</g>
</g>
<!-- dir_9af51e3826d4f9e80d9103b2de543e84 -->
<g id="node4" class="node">
<title>dir_9af51e3826d4f9e80d9103b2de543e84</title>
<g id="a_node4"><a xlink:href="dir_9af51e3826d4f9e80d9103b2de543e84.html" target="_top" xlink:title="System">
<polygon fill="none" stroke="#ff0000" points="101,-108 47,-108 47,-72 101,-72 101,-108"/>
<text text-anchor="middle" x="74" y="-87.5" font-family="Helvetica,sans-Serif" font-size="10.00" fill="#000000">System</text>
</a>
</g>
</g>
<!-- dir_5d7ce3e31a7a7d2a623b206abb047173&#45;&gt;dir_9af51e3826d4f9e80d9103b2de543e84 -->
<g id="edge2" class="edge">
<title>dir_5d7ce3e31a7a7d2a623b206abb047173&#45;&gt;dir_9af51e3826d4f9e80d9103b2de543e84</title>
<path fill="none" stroke="#000000" d="M74,-143.8314C74,-136.131 74,-126.9743 74,-118.4166"/>
<polygon fill="#000000" stroke="#000000" points="77.5001,-118.4132 74,-108.4133 70.5001,-118.4133 77.5001,-118.4132"/>
<g id="a_edge2&#45;headlabel"><a xlink:href="dir_000056_000059.html" target="_top" xlink:title="1">
<text text-anchor="middle" x="80.3393" y="-119.5079" font-family="Helvetica,sans-Serif" font-size="10.00" fill="#000000">1</text>
</a>
</g>
</g>
<!-- dir_67bdeb3466b925f8e20a99baf7fc4e99 -->
<g id="node5" class="node">
<title>dir_67bdeb3466b925f8e20a99baf7fc4e99</title>
<g id="a_node5"><a xlink:href="dir_67bdeb3466b925f8e20a99baf7fc4e99.html" target="_top" xlink:title="include">
<polygon fill="none" stroke="#ff0000" points="173,-108 119,-108 119,-72 173,-72 173,-108"/>
<text text-anchor="middle" x="146" y="-87.5" font-family="Helvetica,sans-Serif" font-size="10.00" fill="#000000">include</text>
</a>
</g>
</g>
<!-- dir_5d7ce3e31a7a7d2a623b206abb047173&#45;&gt;dir_67bdeb3466b925f8e20a99baf7fc4e99 -->
<g id="edge3" class="edge">
<title>dir_5d7ce3e31a7a7d2a623b206abb047173&#45;&gt;dir_67bdeb3466b925f8e20a99baf7fc4e99</title>
<path fill="none" stroke="#000000" d="M92.1686,-143.8314C100.7152,-135.2848 111.0557,-124.9443 120.3802,-115.6198"/>
<polygon fill="#000000" stroke="#000000" points="122.9905,-117.9592 127.5867,-108.4133 118.0408,-113.0095 122.9905,-117.9592"/>
<g id="a_edge3&#45;headlabel"><a xlink:href="dir_000056_000050.html" target="_top" xlink:title="2">
<text text-anchor="middle" x="122.4564" y="-120.0087" font-family="Helvetica,sans-Serif" font-size="10.00" fill="#000000">2</text>
</a>
</g>
</g>
<!-- dir_9af51e3826d4f9e80d9103b2de543e84&#45;&gt;dir_967a94bae6ec677146d0e6dc30a32242 -->
<g id="edge4" class="edge">
<title>dir_9af51e3826d4f9e80d9103b2de543e84&#45;&gt;dir_967a94bae6ec677146d0e6dc30a32242</title>
<path fill="none" stroke="#000000" d="M74,-71.8314C74,-64.131 74,-54.9743 74,-46.4166"/>
<polygon fill="#000000" stroke="#000000" points="77.5001,-46.4132 74,-36.4133 70.5001,-46.4133 77.5001,-46.4132"/>
<g id="a_edge4&#45;headlabel"><a xlink:href="dir_000059_000034.html" target="_top" xlink:title="3">
<text text-anchor="middle" x="80.3393" y="-47.5079" font-family="Helvetica,sans-Serif" font-size="10.00" fill="#000000">3</text>
</a>
</g>
</g>
<!-- dir_67bdeb3466b925f8e20a99baf7fc4e99&#45;&gt;dir_967a94bae6ec677146d0e6dc30a32242 -->
<g id="edge5" class="edge">
<title>dir_67bdeb3466b925f8e20a99baf7fc4e99&#45;&gt;dir_967a94bae6ec677146d0e6dc30a32242</title>
<path fill="none" stroke="#000000" d="M127.8314,-71.8314C119.2848,-63.2848 108.9443,-52.9443 99.6198,-43.6198"/>
<polygon fill="#000000" stroke="#000000" points="101.9592,-41.0095 92.4133,-36.4133 97.0095,-45.9592 101.9592,-41.0095"/>
<g id="a_edge5&#45;headlabel"><a xlink:href="dir_000050_000034.html" target="_top" xlink:title="2">
<text text-anchor="middle" x="106.5087" y="-39.0436" font-family="Helvetica,sans-Serif" font-size="10.00" fill="#000000">2</text>
</a>
</g>
</g>
</g>
</svg>
