<?xml version="1.0" encoding="UTF-8" standalone="no"?>
<!DOCTYPE svg PUBLIC "-//W3C//DTD SVG 1.1//EN"
 "http://www.w3.org/Graphics/SVG/1.1/DTD/svg11.dtd">
<!-- Generated by graphviz version 2.40.1 (20161225.0304)
 -->
<!-- Title: ContactModels Pages: 1 -->
<svg width="196pt" height="204pt"
 viewBox="0.00 0.00 196.00 204.00" xmlns="http://www.w3.org/2000/svg" xmlns:xlink="http://www.w3.org/1999/xlink">
<g id="graph0" class="graph" transform="scale(1 1) rotate(0) translate(4 200)">
<title>ContactModels</title>
<g id="clust1" class="cluster">
<title>clusterdir_38f8d072ac46a001c980a8e9d40cc318</title>
<g id="a_clust1"><a xlink:href="dir_38f8d072ac46a001c980a8e9d40cc318.html" target="_top">
<polygon fill="#eeeeff" stroke="#000000" points="8,-64 8,-188 180,-188 180,-64 8,-64"/>
</a>
</g>
</g>
<!-- dir_38f8d072ac46a001c980a8e9d40cc318 -->
<g id="node1" class="node">
<title>dir_38f8d072ac46a001c980a8e9d40cc318</title>
<text text-anchor="middle" x="130" y="-159.5" font-family="Helvetica,sans-Serif" font-size="10.00" fill="#000000">ContactModels</text>
</g>
<!-- dir_9d793899dfef05d955d782ab5588e3fc -->
<g id="node2" class="node">
<title>dir_9d793899dfef05d955d782ab5588e3fc</title>
<g id="a_node2"><a xlink:href="dir_9d793899dfef05d955d782ab5588e3fc.html" target="_top" xlink:title="include">
<polygon fill="#ffffff" stroke="#ff0000" points="70,-108 16,-108 16,-72 70,-72 70,-108"/>
<text text-anchor="middle" x="43" y="-87.5" font-family="Helvetica,sans-Serif" font-size="10.00" fill="#000000">include</text>
</a>
</g>
</g>
<!-- dir_967a94bae6ec677146d0e6dc30a32242 -->
<g id="node4" class="node">
<title>dir_967a94bae6ec677146d0e6dc30a32242</title>
<g id="a_node4"><a xlink:href="dir_967a94bae6ec677146d0e6dc30a32242.html" target="_top" xlink:title="ParametersHandler">
<polygon fill="none" stroke="#ff0000" points="120.5,-36 19.5,-36 19.5,0 120.5,0 120.5,-36"/>
<text text-anchor="middle" x="70" y="-15.5" font-family="Helvetica,sans-Serif" font-size="10.00" fill="#000000">ParametersHandler</text>
</a>
</g>
</g>
<!-- dir_9d793899dfef05d955d782ab5588e3fc&#45;&gt;dir_967a94bae6ec677146d0e6dc30a32242 -->
<g id="edge3" class="edge">
<title>dir_9d793899dfef05d955d782ab5588e3fc&#45;&gt;dir_967a94bae6ec677146d0e6dc30a32242</title>
<path fill="none" stroke="#000000" d="M49.8132,-71.8314C52.7644,-63.9617 56.2858,-54.5712 59.555,-45.8533"/>
<polygon fill="#000000" stroke="#000000" points="62.8609,-47.0055 63.095,-36.4133 56.3066,-44.5476 62.8609,-47.0055"/>
<g id="a_edge3&#45;headlabel"><a xlink:href="dir_000005_000034.html" target="_top" xlink:title="2">
<text text-anchor="middle" x="64.2573" y="-48.8682" font-family="Helvetica,sans-Serif" font-size="10.00" fill="#000000">2</text>
</a>
</g>
</g>
<!-- dir_24a5470aa10ea63bd1c004e0b76f14e6 -->
<g id="node3" class="node">
<title>dir_24a5470aa10ea63bd1c004e0b76f14e6</title>
<g id="a_node3"><a xlink:href="dir_24a5470aa10ea63bd1c004e0b76f14e6.html" target="_top" xlink:title="src">
<polygon fill="#ffffff" stroke="#000000" points="70,-180 16,-180 16,-144 70,-144 70,-180"/>
<text text-anchor="middle" x="43" y="-159.5" font-family="Helvetica,sans-Serif" font-size="10.00" fill="#000000">src</text>
</a>
</g>
</g>
<!-- dir_24a5470aa10ea63bd1c004e0b76f14e6&#45;&gt;dir_9d793899dfef05d955d782ab5588e3fc -->
<g id="edge2" class="edge">
<title>dir_24a5470aa10ea63bd1c004e0b76f14e6&#45;&gt;dir_9d793899dfef05d955d782ab5588e3fc</title>
<path fill="none" stroke="#000000" d="M43,-143.8314C43,-136.131 43,-126.9743 43,-118.4166"/>
<polygon fill="#000000" stroke="#000000" points="46.5001,-118.4132 43,-108.4133 39.5001,-118.4133 46.5001,-118.4132"/>
<g id="a_edge2&#45;headlabel"><a xlink:href="dir_000008_000005.html" target="_top" xlink:title="2">
<text text-anchor="middle" x="49.3393" y="-119.5079" font-family="Helvetica,sans-Serif" font-size="10.00" fill="#000000">2</text>
</a>
</g>
</g>
<!-- dir_24a5470aa10ea63bd1c004e0b76f14e6&#45;&gt;dir_967a94bae6ec677146d0e6dc30a32242 -->
<g id="edge1" class="edge">
<title>dir_24a5470aa10ea63bd1c004e0b76f14e6&#45;&gt;dir_967a94bae6ec677146d0e6dc30a32242</title>
<path fill="none" stroke="#000000" d="M58.9905,-143.9169C66.6538,-134.0371 75.0166,-121.1563 79,-108 85.0862,-87.8985 82.3561,-64.2346 78.3608,-46.2178"/>
<polygon fill="#000000" stroke="#000000" points="81.7149,-45.201 75.9192,-36.3319 74.9191,-46.8794 81.7149,-45.201"/>
<g id="a_edge1&#45;headlabel"><a xlink:href="dir_000008_000034.html" target="_top" xlink:title="1">
<text text-anchor="middle" x="85.3331" y="-45.51" font-family="Helvetica,sans-Serif" font-size="10.00" fill="#000000">1</text>
</a>
</g>
</g>
</g>
</svg>
