<?xml version="1.0" encoding="UTF-8" standalone="no"?>
<!DOCTYPE svg PUBLIC "-//W3C//DTD SVG 1.1//EN"
 "http://www.w3.org/Graphics/SVG/1.1/DTD/svg11.dtd">
<!-- Generated by graphviz version 2.40.1 (20161225.0304)
 -->
<!-- Title: Planners/src Pages: 1 -->
<svg width="157pt" height="367pt"
 viewBox="0.00 0.00 157.00 367.00" xmlns="http://www.w3.org/2000/svg" xmlns:xlink="http://www.w3.org/1999/xlink">
<g id="graph0" class="graph" transform="scale(1 1) rotate(0) translate(4 363)">
<title>Planners/src</title>
<g id="clust1" class="cluster">
<title>clusterdir_a348f6be41c750b1a06d8a5ec33f4f95</title>
<g id="a_clust1"><a xlink:href="dir_a348f6be41c750b1a06d8a5ec33f4f95.html" target="_top" xlink:title="Planners">
<polygon fill="#ddddee" stroke="#000000" points="59,-280 59,-351 129,-351 129,-280 59,-280"/>
<text text-anchor="middle" x="94" y="-339" font-family="Helvetica,sans-Serif" font-size="10.00" fill="#000000">Planners</text>
</a>
</g>
</g>
<!-- dir_05f49592e9e614afb25d33cbec8afaa6 -->
<g id="node1" class="node">
<title>dir_05f49592e9e614afb25d33cbec8afaa6</title>
<g id="a_node1"><a xlink:href="dir_05f49592e9e614afb25d33cbec8afaa6.html" target="_top" xlink:title="src">
<polygon fill="#eeeeff" stroke="#000000" points="121,-324 67,-324 67,-288 121,-288 121,-324"/>
<text text-anchor="middle" x="94" y="-303.5" font-family="Helvetica,sans-Serif" font-size="10.00" fill="#000000">src</text>
</a>
</g>
</g>
<!-- dir_6304edfde60406afeb48b5b2adc90484 -->
<g id="node2" class="node">
<title>dir_6304edfde60406afeb48b5b2adc90484</title>
<g id="a_node2"><a xlink:href="dir_6304edfde60406afeb48b5b2adc90484.html" target="_top" xlink:title="include">
<polygon fill="none" stroke="#ff0000" points="94,-252 40,-252 40,-216 94,-216 94,-252"/>
<text text-anchor="middle" x="67" y="-231.5" font-family="Helvetica,sans-Serif" font-size="10.00" fill="#000000">include</text>
</a>
</g>
</g>
<!-- dir_05f49592e9e614afb25d33cbec8afaa6&#45;&gt;dir_6304edfde60406afeb48b5b2adc90484 -->
<g id="edge3" class="edge">
<title>dir_05f49592e9e614afb25d33cbec8afaa6&#45;&gt;dir_6304edfde60406afeb48b5b2adc90484</title>
<path fill="none" stroke="#000000" d="M87.1868,-287.8314C84.2356,-279.9617 80.7142,-270.5712 77.445,-261.8533"/>
<polygon fill="#000000" stroke="#000000" points="80.6934,-260.5476 73.905,-252.4133 74.1391,-263.0055 80.6934,-260.5476"/>
<g id="a_edge3&#45;headlabel"><a xlink:href="dir_000048_000045.html" target="_top" xlink:title="7">
<text text-anchor="middle" x="84.614" y="-260.4164" font-family="Helvetica,sans-Serif" font-size="10.00" fill="#000000">7</text>
</a>
</g>
</g>
<!-- dir_5bce4665f02041fc00c7e7e07b63c945 -->
<g id="node3" class="node">
<title>dir_5bce4665f02041fc00c7e7e07b63c945</title>
<g id="a_node3"><a xlink:href="dir_5bce4665f02041fc00c7e7e07b63c945.html" target="_top" xlink:title="Math">
<polygon fill="none" stroke="#ff0000" points="149,-36 95,-36 95,0 149,0 149,-36"/>
<text text-anchor="middle" x="122" y="-15.5" font-family="Helvetica,sans-Serif" font-size="10.00" fill="#000000">Math</text>
</a>
</g>
</g>
<!-- dir_05f49592e9e614afb25d33cbec8afaa6&#45;&gt;dir_5bce4665f02041fc00c7e7e07b63c945 -->
<g id="edge4" class="edge">
<title>dir_05f49592e9e614afb25d33cbec8afaa6&#45;&gt;dir_5bce4665f02041fc00c7e7e07b63c945</title>
<path fill="none" stroke="#000000" d="M103.3142,-287.9918C108.2048,-277.7167 113.8262,-264.4409 117,-252 136.8355,-174.2487 137.6184,-151.9682 131,-72 130.3055,-63.6085 129.0138,-54.5578 127.6214,-46.3092"/>
<polygon fill="#000000" stroke="#000000" points="131.0544,-45.6235 125.8413,-36.3999 124.1647,-46.8612 131.0544,-45.6235"/>
<g id="a_edge4&#45;headlabel"><a xlink:href="dir_000048_000029.html" target="_top" xlink:title="1">
<text text-anchor="middle" x="134.4844" y="-46.1595" font-family="Helvetica,sans-Serif" font-size="10.00" fill="#000000">1</text>
</a>
</g>
</g>
<!-- dir_6d28a1f3fea9cd50f0f51ef4779c2863 -->
<g id="node4" class="node">
<title>dir_6d28a1f3fea9cd50f0f51ef4779c2863</title>
<g id="a_node4"><a xlink:href="dir_6d28a1f3fea9cd50f0f51ef4779c2863.html" target="_top" xlink:title="Contacts">
<polygon fill="none" stroke="#ff0000" points="56,-180 0,-180 0,-144 56,-144 56,-180"/>
<text text-anchor="middle" x="28" y="-159.5" font-family="Helvetica,sans-Serif" font-size="10.00" fill="#000000">Contacts</text>
</a>
</g>
</g>
<!-- dir_05f49592e9e614afb25d33cbec8afaa6&#45;&gt;dir_6d28a1f3fea9cd50f0f51ef4779c2863 -->
<g id="edge5" class="edge">
<title>dir_05f49592e9e614afb25d33cbec8afaa6&#45;&gt;dir_6d28a1f3fea9cd50f0f51ef4779c2863</title>
<path fill="none" stroke="#000000" d="M66.8668,-290.3521C53.5143,-281.062 38.6711,-267.9722 31,-252 21.8342,-232.9155 21.5261,-208.8372 23.2694,-190.3889"/>
<polygon fill="#000000" stroke="#000000" points="26.7687,-190.6027 24.4814,-180.2577 19.8183,-189.7712 26.7687,-190.6027"/>
<g id="a_edge5&#45;headlabel"><a xlink:href="dir_000048_000009.html" target="_top" xlink:title="1">
<text text-anchor="middle" x="29.161" y="-192.0091" font-family="Helvetica,sans-Serif" font-size="10.00" fill="#000000">1</text>
</a>
</g>
</g>
<!-- dir_9af51e3826d4f9e80d9103b2de543e84 -->
<g id="node5" class="node">
<title>dir_9af51e3826d4f9e80d9103b2de543e84</title>
<g id="a_node5"><a xlink:href="dir_9af51e3826d4f9e80d9103b2de543e84.html" target="_top" xlink:title="System">
<polygon fill="none" stroke="#ff0000" points="122,-108 68,-108 68,-72 122,-72 122,-108"/>
<text text-anchor="middle" x="95" y="-87.5" font-family="Helvetica,sans-Serif" font-size="10.00" fill="#000000">System</text>
</a>
</g>
</g>
<!-- dir_05f49592e9e614afb25d33cbec8afaa6&#45;&gt;dir_9af51e3826d4f9e80d9103b2de543e84 -->
<g id="edge6" class="edge">
<title>dir_05f49592e9e614afb25d33cbec8afaa6&#45;&gt;dir_9af51e3826d4f9e80d9103b2de543e84</title>
<path fill="none" stroke="#000000" d="M97.8413,-287.6001C99.8166,-277.2025 102.0123,-263.9346 103,-252 106.8813,-205.1036 102.2865,-150.4026 98.6277,-118.0692"/>
<polygon fill="#000000" stroke="#000000" points="102.0877,-117.5243 97.4363,-108.0051 95.1362,-118.3473 102.0877,-117.5243"/>
<g id="a_edge6&#45;headlabel"><a xlink:href="dir_000048_000059.html" target="_top" xlink:title="1">
<text text-anchor="middle" x="105.3298" y="-118.2603" font-family="Helvetica,sans-Serif" font-size="10.00" fill="#000000">1</text>
</a>
</g>
</g>
<!-- dir_6304edfde60406afeb48b5b2adc90484&#45;&gt;dir_6d28a1f3fea9cd50f0f51ef4779c2863 -->
<g id="edge1" class="edge">
<title>dir_6304edfde60406afeb48b5b2adc90484&#45;&gt;dir_6d28a1f3fea9cd50f0f51ef4779c2863</title>
<path fill="none" stroke="#000000" d="M57.1587,-215.8314C52.8043,-207.7925 47.5902,-198.1666 42.7831,-189.2918"/>
<polygon fill="#000000" stroke="#000000" points="45.8143,-187.5392 37.9739,-180.4133 39.6592,-190.8732 45.8143,-187.5392"/>
<g id="a_edge1&#45;headlabel"><a xlink:href="dir_000045_000009.html" target="_top" xlink:title="1">
<text text-anchor="middle" x="50.0228" y="-186.8476" font-family="Helvetica,sans-Serif" font-size="10.00" fill="#000000">1</text>
</a>
</g>
</g>
<!-- dir_6304edfde60406afeb48b5b2adc90484&#45;&gt;dir_9af51e3826d4f9e80d9103b2de543e84 -->
<g id="edge2" class="edge">
<title>dir_6304edfde60406afeb48b5b2adc90484&#45;&gt;dir_9af51e3826d4f9e80d9103b2de543e84</title>
<path fill="none" stroke="#000000" d="M70.5462,-215.7623C75.3431,-191.0928 83.9439,-146.8598 89.5608,-117.9731"/>
<polygon fill="#000000" stroke="#000000" points="93.0095,-118.5738 91.4826,-108.0896 86.1381,-117.2377 93.0095,-118.5738"/>
<g id="a_edge2&#45;headlabel"><a xlink:href="dir_000045_000059.html" target="_top" xlink:title="4">
<text text-anchor="middle" x="95.1105" y="-120.1443" font-family="Helvetica,sans-Serif" font-size="10.00" fill="#000000">4</text>
</a>
</g>
</g>
<!-- dir_6d28a1f3fea9cd50f0f51ef4779c2863&#45;&gt;dir_9af51e3826d4f9e80d9103b2de543e84 -->
<g id="edge7" class="edge">
<title>dir_6d28a1f3fea9cd50f0f51ef4779c2863&#45;&gt;dir_9af51e3826d4f9e80d9103b2de543e84</title>
<path fill="none" stroke="#000000" d="M44.9069,-143.8314C52.7813,-135.3694 62.292,-125.1489 70.9013,-115.8971"/>
<polygon fill="#000000" stroke="#000000" points="73.6153,-118.1183 77.8654,-108.4133 68.4908,-113.3497 73.6153,-118.1183"/>
<g id="a_edge7&#45;headlabel"><a xlink:href="dir_000009_000059.html" target="_top" xlink:title="1">
<text text-anchor="middle" x="73.2451" y="-120.184" font-family="Helvetica,sans-Serif" font-size="10.00" fill="#000000">1</text>
</a>
</g>
</g>
<!-- dir_9af51e3826d4f9e80d9103b2de543e84&#45;&gt;dir_5bce4665f02041fc00c7e7e07b63c945 -->
<g id="edge8" class="edge">
<title>dir_9af51e3826d4f9e80d9103b2de543e84&#45;&gt;dir_5bce4665f02041fc00c7e7e07b63c945</title>
<path fill="none" stroke="#000000" d="M101.8132,-71.8314C104.7644,-63.9617 108.2858,-54.5712 111.555,-45.8533"/>
<polygon fill="#000000" stroke="#000000" points="114.8609,-47.0055 115.095,-36.4133 108.3066,-44.5476 114.8609,-47.0055"/>
<g id="a_edge8&#45;headlabel"><a xlink:href="dir_000059_000029.html" target="_top" xlink:title="1">
<text text-anchor="middle" x="116.2573" y="-48.8682" font-family="Helvetica,sans-Serif" font-size="10.00" fill="#000000">1</text>
</a>
</g>
</g>
</g>
</svg>
