<?xml version="1.0" encoding="UTF-8" standalone="no"?>
<!DOCTYPE svg PUBLIC "-//W3C//DTD SVG 1.1//EN"
 "http://www.w3.org/Graphics/SVG/1.1/DTD/svg11.dtd">
<!-- Generated by graphviz version 2.40.1 (20161225.0304)
 -->
<!-- Title: ContactModels/src Pages: 1 -->
<svg width="114pt" height="223pt"
 viewBox="0.00 0.00 113.50 223.00" xmlns="http://www.w3.org/2000/svg" xmlns:xlink="http://www.w3.org/1999/xlink">
<g id="graph0" class="graph" transform="scale(1 1) rotate(0) translate(4 219)">
<title>ContactModels/src</title>
<g id="clust1" class="cluster">
<title>clusterdir_38f8d072ac46a001c980a8e9d40cc318</title>
<g id="a_clust1"><a xlink:href="dir_38f8d072ac46a001c980a8e9d40cc318.html" target="_top" xlink:title="ContactModels">
<polygon fill="#ddddee" stroke="#000000" points="10.5,-136 10.5,-207 93.5,-207 93.5,-136 10.5,-136"/>
<text text-anchor="middle" x="52" y="-195" font-family="Helvetica,sans-Serif" font-size="10.00" fill="#000000">ContactModels</text>
</a>
</g>
</g>
<!-- dir_24a5470aa10ea63bd1c004e0b76f14e6 -->
<g id="node1" class="node">
<title>dir_24a5470aa10ea63bd1c004e0b76f14e6</title>
<g id="a_node1"><a xlink:href="dir_24a5470aa10ea63bd1c004e0b76f14e6.html" target="_top" xlink:title="src">
<polygon fill="#eeeeff" stroke="#000000" points="78.5,-180 24.5,-180 24.5,-144 78.5,-144 78.5,-180"/>
<text text-anchor="middle" x="51.5" y="-159.5" font-family="Helvetica,sans-Serif" font-size="10.00" fill="#000000">src</text>
</a>
</g>
</g>
<!-- dir_967a94bae6ec677146d0e6dc30a32242 -->
<g id="node2" class="node">
<title>dir_967a94bae6ec677146d0e6dc30a32242</title>
<g id="a_node2"><a xlink:href="dir_967a94bae6ec677146d0e6dc30a32242.html" target="_top" xlink:title="ParametersHandler">
<polygon fill="none" stroke="#ff0000" points="101,-36 0,-36 0,0 101,0 101,-36"/>
<text text-anchor="middle" x="50.5" y="-15.5" font-family="Helvetica,sans-Serif" font-size="10.00" fill="#000000">ParametersHandler</text>
</a>
</g>
</g>
<!-- dir_24a5470aa10ea63bd1c004e0b76f14e6&#45;&gt;dir_967a94bae6ec677146d0e6dc30a32242 -->
<g id="edge1" class="edge">
<title>dir_24a5470aa10ea63bd1c004e0b76f14e6&#45;&gt;dir_967a94bae6ec677146d0e6dc30a32242</title>
<path fill="none" stroke="#000000" d="M47.6587,-143.6001C45.6834,-133.2025 43.4877,-119.9346 42.5,-108 41.1803,-92.0545 41.3244,-87.9568 42.5,-72 43.1169,-63.6264 44.2649,-54.5812 45.5026,-46.3322"/>
<polygon fill="#000000" stroke="#000000" points="48.9648,-46.8463 47.085,-36.4196 42.0523,-45.7428 48.9648,-46.8463"/>
<g id="a_edge1&#45;headlabel"><a xlink:href="dir_000008_000034.html" target="_top" xlink:title="1">
<text text-anchor="middle" x="51.202" y="-48.3436" font-family="Helvetica,sans-Serif" font-size="10.00" fill="#000000">1</text>
</a>
</g>
</g>
<!-- dir_9d793899dfef05d955d782ab5588e3fc -->
<g id="node3" class="node">
<title>dir_9d793899dfef05d955d782ab5588e3fc</title>
<g id="a_node3"><a xlink:href="dir_9d793899dfef05d955d782ab5588e3fc.html" target="_top" xlink:title="include">
<polygon fill="none" stroke="#ff0000" points="105.5,-108 51.5,-108 51.5,-72 105.5,-72 105.5,-108"/>
<text text-anchor="middle" x="78.5" y="-87.5" font-family="Helvetica,sans-Serif" font-size="10.00" fill="#000000">include</text>
</a>
</g>
</g>
<!-- dir_24a5470aa10ea63bd1c004e0b76f14e6&#45;&gt;dir_9d793899dfef05d955d782ab5588e3fc -->
<g id="edge2" class="edge">
<title>dir_24a5470aa10ea63bd1c004e0b76f14e6&#45;&gt;dir_9d793899dfef05d955d782ab5588e3fc</title>
<path fill="none" stroke="#000000" d="M58.3132,-143.8314C61.2644,-135.9617 64.7858,-126.5712 68.055,-117.8533"/>
<polygon fill="#000000" stroke="#000000" points="71.3609,-119.0055 71.595,-108.4133 64.8066,-116.5476 71.3609,-119.0055"/>
<g id="a_edge2&#45;headlabel"><a xlink:href="dir_000008_000005.html" target="_top" xlink:title="2">
<text text-anchor="middle" x="72.7573" y="-120.8682" font-family="Helvetica,sans-Serif" font-size="10.00" fill="#000000">2</text>
</a>
</g>
</g>
<!-- dir_9d793899dfef05d955d782ab5588e3fc&#45;&gt;dir_967a94bae6ec677146d0e6dc30a32242 -->
<g id="edge3" class="edge">
<title>dir_9d793899dfef05d955d782ab5588e3fc&#45;&gt;dir_967a94bae6ec677146d0e6dc30a32242</title>
<path fill="none" stroke="#000000" d="M71.4344,-71.8314C68.374,-63.9617 64.7221,-54.5712 61.3318,-45.8533"/>
<polygon fill="#000000" stroke="#000000" points="64.5473,-44.4647 57.6607,-36.4133 58.0232,-47.0019 64.5473,-44.4647"/>
<g id="a_edge3&#45;headlabel"><a xlink:href="dir_000005_000034.html" target="_top" xlink:title="2">
<text text-anchor="middle" x="68.4963" y="-44.2859" font-family="Helvetica,sans-Serif" font-size="10.00" fill="#000000">2</text>
</a>
</g>
</g>
</g>
</svg>
