<?xml version="1.0" encoding="UTF-8" standalone="no"?>
<!DOCTYPE svg PUBLIC "-//W3C//DTD SVG 1.1//EN"
 "http://www.w3.org/Graphics/SVG/1.1/DTD/svg11.dtd">
<!-- Generated by graphviz version 2.40.1 (20161225.0304)
 -->
<!-- Title: RobotInterface/YarpImplementation/include/BipedalLocomotion/RobotInterface Pages: 1 -->
<svg width="164pt" height="223pt"
 viewBox="0.00 0.00 164.00 223.00" xmlns="http://www.w3.org/2000/svg" xmlns:xlink="http://www.w3.org/1999/xlink">
<g id="graph0" class="graph" transform="scale(1 1) rotate(0) translate(4 219)">
<title>RobotInterface/YarpImplementation/include/BipedalLocomotion/RobotInterface</title>
<g id="clust1" class="cluster">
<title>clusterdir_5d7ce3e31a7a7d2a623b206abb047173</title>
<g id="a_clust1"><a xlink:href="dir_5d7ce3e31a7a7d2a623b206abb047173.html" target="_top" xlink:title="BipedalLocomotion">
<polygon fill="#ddddee" stroke="#000000" points="8,-136 8,-207 107,-207 107,-136 8,-136"/>
<text text-anchor="middle" x="57.5" y="-195" font-family="Helvetica,sans-Serif" font-size="10.00" fill="#000000">BipedalLocomotion</text>
</a>
</g>
</g>
<!-- dir_5caa57f5e0da1990e2de3fa4772b3a6e -->
<g id="node1" class="node">
<title>dir_5caa57f5e0da1990e2de3fa4772b3a6e</title>
<g id="a_node1"><a xlink:href="dir_5caa57f5e0da1990e2de3fa4772b3a6e.html" target="_top" xlink:title="RobotInterface">
<polygon fill="#eeeeff" stroke="#000000" points="97.5,-180 16.5,-180 16.5,-144 97.5,-144 97.5,-180"/>
<text text-anchor="middle" x="57" y="-159.5" font-family="Helvetica,sans-Serif" font-size="10.00" fill="#000000">RobotInterface</text>
</a>
</g>
</g>
<!-- dir_967a94bae6ec677146d0e6dc30a32242 -->
<g id="node2" class="node">
<title>dir_967a94bae6ec677146d0e6dc30a32242</title>
<g id="a_node2"><a xlink:href="dir_967a94bae6ec677146d0e6dc30a32242.html" target="_top" xlink:title="ParametersHandler">
<polygon fill="none" stroke="#ff0000" points="107.5,-36 6.5,-36 6.5,0 107.5,0 107.5,-36"/>
<text text-anchor="middle" x="57" y="-15.5" font-family="Helvetica,sans-Serif" font-size="10.00" fill="#000000">ParametersHandler</text>
</a>
</g>
</g>
<!-- dir_5caa57f5e0da1990e2de3fa4772b3a6e&#45;&gt;dir_967a94bae6ec677146d0e6dc30a32242 -->
<g id="edge1" class="edge">
<title>dir_5caa57f5e0da1990e2de3fa4772b3a6e&#45;&gt;dir_967a94bae6ec677146d0e6dc30a32242</title>
<path fill="none" stroke="#000000" d="M41.0095,-143.9169C33.3462,-134.0371 24.9834,-121.1563 21,-108 16.3635,-92.6865 16.3635,-87.3135 21,-72 23.9564,-62.2355 29.3252,-52.6229 35.03,-44.2762"/>
<polygon fill="#000000" stroke="#000000" points="37.9414,-46.2239 41.0095,-36.0831 32.2871,-42.0973 37.9414,-46.2239"/>
<g id="a_edge1&#45;headlabel"><a xlink:href="dir_000057_000034.html" target="_top" xlink:title="1">
<text text-anchor="middle" x="38.1158" y="-48.3013" font-family="Helvetica,sans-Serif" font-size="10.00" fill="#000000">1</text>
</a>
</g>
</g>
<!-- dir_9af51e3826d4f9e80d9103b2de543e84 -->
<g id="node3" class="node">
<title>dir_9af51e3826d4f9e80d9103b2de543e84</title>
<g id="a_node3"><a xlink:href="dir_9af51e3826d4f9e80d9103b2de543e84.html" target="_top" xlink:title="System">
<polygon fill="none" stroke="#ff0000" points="84,-108 30,-108 30,-72 84,-72 84,-108"/>
<text text-anchor="middle" x="57" y="-87.5" font-family="Helvetica,sans-Serif" font-size="10.00" fill="#000000">System</text>
</a>
</g>
</g>
<!-- dir_5caa57f5e0da1990e2de3fa4772b3a6e&#45;&gt;dir_9af51e3826d4f9e80d9103b2de543e84 -->
<g id="edge2" class="edge">
<title>dir_5caa57f5e0da1990e2de3fa4772b3a6e&#45;&gt;dir_9af51e3826d4f9e80d9103b2de543e84</title>
<path fill="none" stroke="#000000" d="M57,-143.8314C57,-136.131 57,-126.9743 57,-118.4166"/>
<polygon fill="#000000" stroke="#000000" points="60.5001,-118.4132 57,-108.4133 53.5001,-118.4133 60.5001,-118.4132"/>
<g id="a_edge2&#45;headlabel"><a xlink:href="dir_000057_000059.html" target="_top" xlink:title="1">
<text text-anchor="middle" x="63.3393" y="-119.5079" font-family="Helvetica,sans-Serif" font-size="10.00" fill="#000000">1</text>
</a>
</g>
</g>
<!-- dir_67bdeb3466b925f8e20a99baf7fc4e99 -->
<g id="node4" class="node">
<title>dir_67bdeb3466b925f8e20a99baf7fc4e99</title>
<g id="a_node4"><a xlink:href="dir_67bdeb3466b925f8e20a99baf7fc4e99.html" target="_top" xlink:title="include">
<polygon fill="none" stroke="#ff0000" points="156,-108 102,-108 102,-72 156,-72 156,-108"/>
<text text-anchor="middle" x="129" y="-87.5" font-family="Helvetica,sans-Serif" font-size="10.00" fill="#000000">include</text>
</a>
</g>
</g>
<!-- dir_5caa57f5e0da1990e2de3fa4772b3a6e&#45;&gt;dir_67bdeb3466b925f8e20a99baf7fc4e99 -->
<g id="edge3" class="edge">
<title>dir_5caa57f5e0da1990e2de3fa4772b3a6e&#45;&gt;dir_67bdeb3466b925f8e20a99baf7fc4e99</title>
<path fill="none" stroke="#000000" d="M75.1686,-143.8314C83.7152,-135.2848 94.0557,-124.9443 103.3802,-115.6198"/>
<polygon fill="#000000" stroke="#000000" points="105.9905,-117.9592 110.5867,-108.4133 101.0408,-113.0095 105.9905,-117.9592"/>
<g id="a_edge3&#45;headlabel"><a xlink:href="dir_000057_000050.html" target="_top" xlink:title="2">
<text text-anchor="middle" x="105.4564" y="-120.0087" font-family="Helvetica,sans-Serif" font-size="10.00" fill="#000000">2</text>
</a>
</g>
</g>
<!-- dir_9af51e3826d4f9e80d9103b2de543e84&#45;&gt;dir_967a94bae6ec677146d0e6dc30a32242 -->
<g id="edge4" class="edge">
<title>dir_9af51e3826d4f9e80d9103b2de543e84&#45;&gt;dir_967a94bae6ec677146d0e6dc30a32242</title>
<path fill="none" stroke="#000000" d="M57,-71.8314C57,-64.131 57,-54.9743 57,-46.4166"/>
<polygon fill="#000000" stroke="#000000" points="60.5001,-46.4132 57,-36.4133 53.5001,-46.4133 60.5001,-46.4132"/>
<g id="a_edge4&#45;headlabel"><a xlink:href="dir_000059_000034.html" target="_top" xlink:title="3">
<text text-anchor="middle" x="63.3393" y="-47.5079" font-family="Helvetica,sans-Serif" font-size="10.00" fill="#000000">3</text>
</a>
</g>
</g>
<!-- dir_67bdeb3466b925f8e20a99baf7fc4e99&#45;&gt;dir_967a94bae6ec677146d0e6dc30a32242 -->
<g id="edge5" class="edge">
<title>dir_67bdeb3466b925f8e20a99baf7fc4e99&#45;&gt;dir_967a94bae6ec677146d0e6dc30a32242</title>
<path fill="none" stroke="#000000" d="M110.8314,-71.8314C102.2848,-63.2848 91.9443,-52.9443 82.6198,-43.6198"/>
<polygon fill="#000000" stroke="#000000" points="84.9592,-41.0095 75.4133,-36.4133 80.0095,-45.9592 84.9592,-41.0095"/>
<g id="a_edge5&#45;headlabel"><a xlink:href="dir_000050_000034.html" target="_top" xlink:title="2">
<text text-anchor="middle" x="89.5087" y="-39.0436" font-family="Helvetica,sans-Serif" font-size="10.00" fill="#000000">2</text>
</a>
</g>
</g>
</g>
</svg>
