<?xml version="1.0" encoding="UTF-8" standalone="no"?>
<!DOCTYPE svg PUBLIC "-//W3C//DTD SVG 1.1//EN"
 "http://www.w3.org/Graphics/SVG/1.1/DTD/svg11.dtd">
<!-- Generated by graphviz version 2.40.1 (20161225.0304)
 -->
<!-- Title: Estimators Pages: 1 -->
<svg width="219pt" height="348pt"
 viewBox="0.00 0.00 218.50 348.00" xmlns="http://www.w3.org/2000/svg" xmlns:xlink="http://www.w3.org/1999/xlink">
<g id="graph0" class="graph" transform="scale(1 1) rotate(0) translate(4 344)">
<title>Estimators</title>
<g id="clust1" class="cluster">
<title>clusterdir_f75a46c5c982618628beecbcb815a4c9</title>
<g id="a_clust1"><a xlink:href="dir_f75a46c5c982618628beecbcb815a4c9.html" target="_top">
<polygon fill="#eeeeff" stroke="#000000" points="50.5,-208 50.5,-332 202.5,-332 202.5,-208 50.5,-208"/>
</a>
</g>
</g>
<!-- dir_f75a46c5c982618628beecbcb815a4c9 -->
<g id="node1" class="node">
<title>dir_f75a46c5c982618628beecbcb815a4c9</title>
<text text-anchor="middle" x="162.5" y="-303.5" font-family="Helvetica,sans-Serif" font-size="10.00" fill="#000000">Estimators</text>
</g>
<!-- dir_5b73832fd25c530c2cca7878588bd52f -->
<g id="node2" class="node">
<title>dir_5b73832fd25c530c2cca7878588bd52f</title>
<g id="a_node2"><a xlink:href="dir_5b73832fd25c530c2cca7878588bd52f.html" target="_top" xlink:title="include">
<polygon fill="#ffffff" stroke="#ff0000" points="112.5,-252 58.5,-252 58.5,-216 112.5,-216 112.5,-252"/>
<text text-anchor="middle" x="85.5" y="-231.5" font-family="Helvetica,sans-Serif" font-size="10.00" fill="#000000">include</text>
</a>
</g>
</g>
<!-- dir_6d28a1f3fea9cd50f0f51ef4779c2863 -->
<g id="node5" class="node">
<title>dir_6d28a1f3fea9cd50f0f51ef4779c2863</title>
<g id="a_node5"><a xlink:href="dir_6d28a1f3fea9cd50f0f51ef4779c2863.html" target="_top" xlink:title="Contacts">
<polygon fill="none" stroke="#ff0000" points="94.5,-180 38.5,-180 38.5,-144 94.5,-144 94.5,-180"/>
<text text-anchor="middle" x="66.5" y="-159.5" font-family="Helvetica,sans-Serif" font-size="10.00" fill="#000000">Contacts</text>
</a>
</g>
</g>
<!-- dir_5b73832fd25c530c2cca7878588bd52f&#45;&gt;dir_6d28a1f3fea9cd50f0f51ef4779c2863 -->
<g id="edge1" class="edge">
<title>dir_5b73832fd25c530c2cca7878588bd52f&#45;&gt;dir_6d28a1f3fea9cd50f0f51ef4779c2863</title>
<path fill="none" stroke="#000000" d="M80.7055,-215.8314C78.6511,-208.0463 76.204,-198.7729 73.9244,-190.1347"/>
<polygon fill="#000000" stroke="#000000" points="77.2948,-189.1892 71.3591,-180.4133 70.5265,-190.9753 77.2948,-189.1892"/>
<g id="a_edge1&#45;headlabel"><a xlink:href="dir_000020_000009.html" target="_top" xlink:title="1">
<text text-anchor="middle" x="80.9572" y="-189.4404" font-family="Helvetica,sans-Serif" font-size="10.00" fill="#000000">1</text>
</a>
</g>
</g>
<!-- dir_967a94bae6ec677146d0e6dc30a32242 -->
<g id="node6" class="node">
<title>dir_967a94bae6ec677146d0e6dc30a32242</title>
<g id="a_node6"><a xlink:href="dir_967a94bae6ec677146d0e6dc30a32242.html" target="_top" xlink:title="ParametersHandler">
<polygon fill="none" stroke="#ff0000" points="101,-36 0,-36 0,0 101,0 101,-36"/>
<text text-anchor="middle" x="50.5" y="-15.5" font-family="Helvetica,sans-Serif" font-size="10.00" fill="#000000">ParametersHandler</text>
</a>
</g>
</g>
<!-- dir_5b73832fd25c530c2cca7878588bd52f&#45;&gt;dir_967a94bae6ec677146d0e6dc30a32242 -->
<g id="edge2" class="edge">
<title>dir_5b73832fd25c530c2cca7878588bd52f&#45;&gt;dir_967a94bae6ec677146d0e6dc30a32242</title>
<path fill="none" stroke="#000000" d="M58.7769,-215.9104C47.4915,-206.6439 35.574,-194.295 29.5,-180 10.7047,-135.7656 25.9966,-79.1036 38.4818,-45.8526"/>
<polygon fill="#000000" stroke="#000000" points="41.826,-46.9119 42.2256,-36.3246 35.3109,-44.3519 41.826,-46.9119"/>
<g id="a_edge2&#45;headlabel"><a xlink:href="dir_000020_000034.html" target="_top" xlink:title="3">
<text text-anchor="middle" x="43.1541" y="-48.7958" font-family="Helvetica,sans-Serif" font-size="10.00" fill="#000000">3</text>
</a>
</g>
</g>
<!-- dir_9af51e3826d4f9e80d9103b2de543e84 -->
<g id="node7" class="node">
<title>dir_9af51e3826d4f9e80d9103b2de543e84</title>
<g id="a_node7"><a xlink:href="dir_9af51e3826d4f9e80d9103b2de543e84.html" target="_top" xlink:title="System">
<polygon fill="none" stroke="#ff0000" points="132.5,-108 78.5,-108 78.5,-72 132.5,-72 132.5,-108"/>
<text text-anchor="middle" x="105.5" y="-87.5" font-family="Helvetica,sans-Serif" font-size="10.00" fill="#000000">System</text>
</a>
</g>
</g>
<!-- dir_5b73832fd25c530c2cca7878588bd52f&#45;&gt;dir_9af51e3826d4f9e80d9103b2de543e84 -->
<g id="edge3" class="edge">
<title>dir_5b73832fd25c530c2cca7878588bd52f&#45;&gt;dir_9af51e3826d4f9e80d9103b2de543e84</title>
<path fill="none" stroke="#000000" d="M93.0624,-215.8578C96.9753,-205.5409 101.3691,-192.2678 103.5,-180 107.0607,-159.501 107.459,-135.984 107.021,-118.1311"/>
<polygon fill="#000000" stroke="#000000" points="110.5171,-117.9554 106.6726,-108.0827 103.5213,-118.198 110.5171,-117.9554"/>
<g id="a_edge3&#45;headlabel"><a xlink:href="dir_000020_000059.html" target="_top" xlink:title="2">
<text text-anchor="middle" x="113.4791" y="-118.9495" font-family="Helvetica,sans-Serif" font-size="10.00" fill="#000000">2</text>
</a>
</g>
</g>
<!-- dir_fbc1483a0770eae68a03934898dd02fd -->
<g id="node3" class="node">
<title>dir_fbc1483a0770eae68a03934898dd02fd</title>
<g id="a_node3"><a xlink:href="dir_fbc1483a0770eae68a03934898dd02fd.html" target="_top" xlink:title="src">
<polygon fill="#ffffff" stroke="#000000" points="112.5,-324 58.5,-324 58.5,-288 112.5,-288 112.5,-324"/>
<text text-anchor="middle" x="85.5" y="-303.5" font-family="Helvetica,sans-Serif" font-size="10.00" fill="#000000">src</text>
</a>
</g>
</g>
<!-- dir_fbc1483a0770eae68a03934898dd02fd&#45;&gt;dir_5b73832fd25c530c2cca7878588bd52f -->
<g id="edge6" class="edge">
<title>dir_fbc1483a0770eae68a03934898dd02fd&#45;&gt;dir_5b73832fd25c530c2cca7878588bd52f</title>
<path fill="none" stroke="#000000" d="M85.5,-287.8314C85.5,-280.131 85.5,-270.9743 85.5,-262.4166"/>
<polygon fill="#000000" stroke="#000000" points="89.0001,-262.4132 85.5,-252.4133 82.0001,-262.4133 89.0001,-262.4132"/>
<g id="a_edge6&#45;headlabel"><a xlink:href="dir_000024_000020.html" target="_top" xlink:title="5">
<text text-anchor="middle" x="91.8393" y="-263.5079" font-family="Helvetica,sans-Serif" font-size="10.00" fill="#000000">5</text>
</a>
</g>
</g>
<!-- dir_c0f0fcf6fc0109eca0321acba0536c3b -->
<g id="node4" class="node">
<title>dir_c0f0fcf6fc0109eca0321acba0536c3b</title>
<g id="a_node4"><a xlink:href="dir_c0f0fcf6fc0109eca0321acba0536c3b.html" target="_top" xlink:title="Conversions">
<polygon fill="none" stroke="#ff0000" points="193,-36 122,-36 122,0 193,0 193,-36"/>
<text text-anchor="middle" x="157.5" y="-15.5" font-family="Helvetica,sans-Serif" font-size="10.00" fill="#000000">Conversions</text>
</a>
</g>
</g>
<!-- dir_fbc1483a0770eae68a03934898dd02fd&#45;&gt;dir_c0f0fcf6fc0109eca0321acba0536c3b -->
<g id="edge7" class="edge">
<title>dir_fbc1483a0770eae68a03934898dd02fd&#45;&gt;dir_c0f0fcf6fc0109eca0321acba0536c3b</title>
<path fill="none" stroke="#000000" d="M100.6754,-287.6358C108.1158,-277.679 116.525,-264.8143 121.5,-252 148.8482,-181.5581 155.4829,-91.6124 157.0502,-46.5033"/>
<polygon fill="#000000" stroke="#000000" points="160.5548,-46.3922 157.3434,-36.2958 153.5577,-46.1912 160.5548,-46.3922"/>
<g id="a_edge7&#45;headlabel"><a xlink:href="dir_000024_000015.html" target="_top" xlink:title="2">
<text text-anchor="middle" x="163.2898" y="-47.5668" font-family="Helvetica,sans-Serif" font-size="10.00" fill="#000000">2</text>
</a>
</g>
</g>
<!-- dir_6d28a1f3fea9cd50f0f51ef4779c2863&#45;&gt;dir_967a94bae6ec677146d0e6dc30a32242 -->
<g id="edge4" class="edge">
<title>dir_6d28a1f3fea9cd50f0f51ef4779c2863&#45;&gt;dir_967a94bae6ec677146d0e6dc30a32242</title>
<path fill="none" stroke="#000000" d="M64.4736,-143.7623C61.7446,-119.201 56.8608,-75.2474 53.6505,-46.3541"/>
<polygon fill="#000000" stroke="#000000" points="57.093,-45.6419 52.51,-36.0896 50.1358,-46.415 57.093,-45.6419"/>
<g id="a_edge4&#45;headlabel"><a xlink:href="dir_000009_000034.html" target="_top" xlink:title="1">
<text text-anchor="middle" x="60.3117" y="-46.401" font-family="Helvetica,sans-Serif" font-size="10.00" fill="#000000">1</text>
</a>
</g>
</g>
<!-- dir_6d28a1f3fea9cd50f0f51ef4779c2863&#45;&gt;dir_9af51e3826d4f9e80d9103b2de543e84 -->
<g id="edge5" class="edge">
<title>dir_6d28a1f3fea9cd50f0f51ef4779c2863&#45;&gt;dir_9af51e3826d4f9e80d9103b2de543e84</title>
<path fill="none" stroke="#000000" d="M76.3413,-143.8314C80.6957,-135.7925 85.9098,-126.1666 90.7169,-117.2918"/>
<polygon fill="#000000" stroke="#000000" points="93.8408,-118.8732 95.5261,-108.4133 87.6857,-115.5392 93.8408,-118.8732"/>
<g id="a_edge5&#45;headlabel"><a xlink:href="dir_000009_000059.html" target="_top" xlink:title="1">
<text text-anchor="middle" x="94.6253" y="-120.8862" font-family="Helvetica,sans-Serif" font-size="10.00" fill="#000000">1</text>
</a>
</g>
</g>
<!-- dir_9af51e3826d4f9e80d9103b2de543e84&#45;&gt;dir_c0f0fcf6fc0109eca0321acba0536c3b -->
<g id="edge8" class="edge">
<title>dir_9af51e3826d4f9e80d9103b2de543e84&#45;&gt;dir_c0f0fcf6fc0109eca0321acba0536c3b</title>
<path fill="none" stroke="#000000" d="M118.6218,-71.8314C124.5499,-63.6232 131.6729,-53.7606 138.1933,-44.7323"/>
<polygon fill="#000000" stroke="#000000" points="141.184,-46.5693 144.2015,-36.4133 135.5092,-42.4708 141.184,-46.5693"/>
<g id="a_edge8&#45;headlabel"><a xlink:href="dir_000059_000015.html" target="_top" xlink:title="1">
<text text-anchor="middle" x="141.3811" y="-48.6457" font-family="Helvetica,sans-Serif" font-size="10.00" fill="#000000">1</text>
</a>
</g>
</g>
<!-- dir_9af51e3826d4f9e80d9103b2de543e84&#45;&gt;dir_967a94bae6ec677146d0e6dc30a32242 -->
<g id="edge9" class="edge">
<title>dir_9af51e3826d4f9e80d9103b2de543e84&#45;&gt;dir_967a94bae6ec677146d0e6dc30a32242</title>
<path fill="none" stroke="#000000" d="M91.6212,-71.8314C85.2864,-63.5386 77.6616,-53.557 70.7074,-44.4533"/>
<polygon fill="#000000" stroke="#000000" points="73.4175,-42.2353 64.5657,-36.4133 67.8548,-46.4847 73.4175,-42.2353"/>
<g id="a_edge9&#45;headlabel"><a xlink:href="dir_000059_000034.html" target="_top" xlink:title="3">
<text text-anchor="middle" x="77.8558" y="-40.8683" font-family="Helvetica,sans-Serif" font-size="10.00" fill="#000000">3</text>
</a>
</g>
</g>
</g>
</svg>
