<?xml version="1.0" encoding="UTF-8" standalone="no"?>
<!DOCTYPE svg PUBLIC "-//W3C//DTD SVG 1.1//EN"
 "http://www.w3.org/Graphics/SVG/1.1/DTD/svg11.dtd">
<!-- Generated by graphviz version 2.40.1 (20161225.0304)
 -->
<!-- Title: Contacts/include Pages: 1 -->
<svg width="228pt" height="231pt"
 viewBox="0.00 0.00 228.00 231.00" xmlns="http://www.w3.org/2000/svg" xmlns:xlink="http://www.w3.org/1999/xlink">
<g id="graph0" class="graph" transform="scale(1 1) rotate(0) translate(4 227)">
<title>Contacts/include</title>
<g id="clust1" class="cluster">
<title>clusterdir_6d28a1f3fea9cd50f0f51ef4779c2863</title>
<g id="a_clust1"><a xlink:href="dir_6d28a1f3fea9cd50f0f51ef4779c2863.html" target="_top" xlink:title="Contacts">
<polygon fill="#ddddee" stroke="#000000" points="8,-128 8,-215 212,-215 212,-128 8,-128"/>
<text text-anchor="middle" x="110" y="-203" font-family="Helvetica,sans-Serif" font-size="10.00" fill="#000000">Contacts</text>
</a>
</g>
</g>
<g id="clust2" class="cluster">
<title>clusterdir_3b6bb2bdccd4d208f4ef8584a059477b</title>
<g id="a_clust2"><a xlink:href="dir_3b6bb2bdccd4d208f4ef8584a059477b.html" target="_top">
<polygon fill="#eeeeff" stroke="#000000" points="16,-136 16,-188 204,-188 204,-136 16,-136"/>
</a>
</g>
</g>
<!-- dir_3b6bb2bdccd4d208f4ef8584a059477b -->
<g id="node1" class="node">
<title>dir_3b6bb2bdccd4d208f4ef8584a059477b</title>
<text text-anchor="middle" x="169" y="-159.5" font-family="Helvetica,sans-Serif" font-size="10.00" fill="#000000">include</text>
</g>
<!-- dir_ddf391fe403635d3f89a3ec81913d0f7 -->
<g id="node2" class="node">
<title>dir_ddf391fe403635d3f89a3ec81913d0f7</title>
<g id="a_node2"><a xlink:href="dir_ddf391fe403635d3f89a3ec81913d0f7.html" target="_top" xlink:title="BipedalLocomotion">
<polygon fill="#ffffff" stroke="#ff0000" points="123.5,-180 24.5,-180 24.5,-144 123.5,-144 123.5,-180"/>
<text text-anchor="middle" x="74" y="-159.5" font-family="Helvetica,sans-Serif" font-size="10.00" fill="#000000">BipedalLocomotion</text>
</a>
</g>
</g>
<!-- dir_967a94bae6ec677146d0e6dc30a32242 -->
<g id="node3" class="node">
<title>dir_967a94bae6ec677146d0e6dc30a32242</title>
<g id="a_node3"><a xlink:href="dir_967a94bae6ec677146d0e6dc30a32242.html" target="_top" xlink:title="ParametersHandler">
<polygon fill="none" stroke="#ff0000" points="123.5,-36 22.5,-36 22.5,0 123.5,0 123.5,-36"/>
<text text-anchor="middle" x="73" y="-15.5" font-family="Helvetica,sans-Serif" font-size="10.00" fill="#000000">ParametersHandler</text>
</a>
</g>
</g>
<!-- dir_ddf391fe403635d3f89a3ec81913d0f7&#45;&gt;dir_967a94bae6ec677146d0e6dc30a32242 -->
<g id="edge1" class="edge">
<title>dir_ddf391fe403635d3f89a3ec81913d0f7&#45;&gt;dir_967a94bae6ec677146d0e6dc30a32242</title>
<path fill="none" stroke="#000000" d="M70.1587,-143.6001C68.1834,-133.2025 65.9877,-119.9346 65,-108 63.6803,-92.0545 63.8244,-87.9568 65,-72 65.6169,-63.6264 66.7649,-54.5812 68.0026,-46.3322"/>
<polygon fill="#000000" stroke="#000000" points="71.4648,-46.8463 69.585,-36.4196 64.5523,-45.7428 71.4648,-46.8463"/>
<g id="a_edge1&#45;headlabel"><a xlink:href="dir_000011_000034.html" target="_top" xlink:title="1">
<text text-anchor="middle" x="73.702" y="-48.3436" font-family="Helvetica,sans-Serif" font-size="10.00" fill="#000000">1</text>
</a>
</g>
</g>
<!-- dir_9af51e3826d4f9e80d9103b2de543e84 -->
<g id="node4" class="node">
<title>dir_9af51e3826d4f9e80d9103b2de543e84</title>
<g id="a_node4"><a xlink:href="dir_9af51e3826d4f9e80d9103b2de543e84.html" target="_top" xlink:title="System">
<polygon fill="none" stroke="#ff0000" points="128,-108 74,-108 74,-72 128,-72 128,-108"/>
<text text-anchor="middle" x="101" y="-87.5" font-family="Helvetica,sans-Serif" font-size="10.00" fill="#000000">System</text>
</a>
</g>
</g>
<!-- dir_ddf391fe403635d3f89a3ec81913d0f7&#45;&gt;dir_9af51e3826d4f9e80d9103b2de543e84 -->
<g id="edge2" class="edge">
<title>dir_ddf391fe403635d3f89a3ec81913d0f7&#45;&gt;dir_9af51e3826d4f9e80d9103b2de543e84</title>
<path fill="none" stroke="#000000" d="M80.8132,-143.8314C83.7644,-135.9617 87.2858,-126.5712 90.555,-117.8533"/>
<polygon fill="#000000" stroke="#000000" points="93.8609,-119.0055 94.095,-108.4133 87.3066,-116.5476 93.8609,-119.0055"/>
<g id="a_edge2&#45;headlabel"><a xlink:href="dir_000011_000059.html" target="_top" xlink:title="1">
<text text-anchor="middle" x="95.2573" y="-120.8682" font-family="Helvetica,sans-Serif" font-size="10.00" fill="#000000">1</text>
</a>
</g>
</g>
<!-- dir_9af51e3826d4f9e80d9103b2de543e84&#45;&gt;dir_967a94bae6ec677146d0e6dc30a32242 -->
<g id="edge3" class="edge">
<title>dir_9af51e3826d4f9e80d9103b2de543e84&#45;&gt;dir_967a94bae6ec677146d0e6dc30a32242</title>
<path fill="none" stroke="#000000" d="M93.9344,-71.8314C90.874,-63.9617 87.2221,-54.5712 83.8318,-45.8533"/>
<polygon fill="#000000" stroke="#000000" points="87.0473,-44.4647 80.1607,-36.4133 80.5232,-47.0019 87.0473,-44.4647"/>
<g id="a_edge3&#45;headlabel"><a xlink:href="dir_000059_000034.html" target="_top" xlink:title="3">
<text text-anchor="middle" x="90.9963" y="-44.2859" font-family="Helvetica,sans-Serif" font-size="10.00" fill="#000000">3</text>
</a>
</g>
</g>
</g>
</svg>
