<?xml version="1.0" encoding="UTF-8" standalone="no"?>
<!DOCTYPE svg PUBLIC "-//W3C//DTD SVG 1.1//EN"
 "http://www.w3.org/Graphics/SVG/1.1/DTD/svg11.dtd">
<!-- Generated by graphviz version 2.40.1 (20161225.0304)
 -->
<!-- Title: System/include/BipedalLocomotion/System/DynamicalSystem.tpp Pages: 1 -->
<!--zoomable 374 -->
<svg id="main" version="1.1" xmlns="http://www.w3.org/2000/svg" xmlns:xlink="http://www.w3.org/1999/xlink" xml:space="preserve" onload="init(evt)">
<style type="text/css"><![CDATA[
.edge:hover path { stroke: red; }
.edge:hover polygon { stroke: red; fill: red; }
]]></style>
<script type="text/javascript"><![CDATA[
var edges = document.getElementsByTagName('g');
if (edges && edges.length) {
  for (var i=0;i<edges.length;i++) {
    if (edges[i].id.substr(0,4)=='edge') {
      edges[i].setAttribute('class','edge');
    }
  }
}
]]></script>
        <defs>
                <circle id="rim" cx="0" cy="0" r="7"/>
                <circle id="rim2" cx="0" cy="0" r="3.5"/>
                <g id="zoomPlus">
                        <use xlink:href="#rim" fill="#404040">
                                <set attributeName="fill" to="#808080" begin="zoomplus.mouseover" end="zoomplus.mouseout"/>
                        </use>
                        <path d="M-4,0h8M0,-4v8" fill="none" stroke="white" stroke-width="1.5" pointer-events="none"/>
                </g>
                <g id="zoomMin">
                        <use xlink:href="#rim" fill="#404040">
                                <set attributeName="fill" to="#808080" begin="zoomminus.mouseover" end="zoomminus.mouseout"/>
                        </use>
                        <path d="M-4,0h8" fill="none" stroke="white" stroke-width="1.5" pointer-events="none"/>
                </g>
                <g id="dirArrow">
                        <path fill="none" stroke="white" stroke-width="1.5" d="M0,-3.0v7 M-2.5,-0.5L0,-3.0L2.5,-0.5"/>
                </g>
               <g id="resetDef">
                       <use xlink:href="#rim2" fill="#404040">
                               <set attributeName="fill" to="#808080" begin="reset.mouseover" end="reset.mouseout"/>
                       </use>
               </g>
        </defs>

<script type="text/javascript">
var viewWidth = 1052;
var viewHeight = 374;
var sectionId = 'dynsection-1';
</script>
<script xlink:href="svgpan.js"/>
<svg id="graph" class="graph">
<g id="viewport">
<title>System/include/BipedalLocomotion/System/DynamicalSystem.tpp</title>
<!-- Node16 -->
<g id="node1" class="node">
<title>Node16</title>
<polygon fill="#bfbfbf" stroke="#000000" points="382.5,-335.5 382.5,-365.5 552.5,-365.5 552.5,-335.5 382.5,-335.5"/>
<text text-anchor="start" x="390.5" y="-353.5" font-family="Helvetica,sans-Serif" font-size="10.00" fill="#000000">System/include/BipedalLocomotion</text>
<text text-anchor="middle" x="467.5" y="-342.5" font-family="Helvetica,sans-Serif" font-size="10.00" fill="#000000">/System/DynamicalSystem.tpp</text>
</g>
<!-- Node17 -->
<g id="node2" class="node">
<title>Node17</title>
<g id="a_node2"><a xlink:href="DynamicalSystem_8h.html" target="_top" xlink:title="System/include/BipedalLocomotion\l/System/DynamicalSystem.h">
<polygon fill="none" stroke="#000000" points="382.5,-268.5 382.5,-298.5 552.5,-298.5 552.5,-268.5 382.5,-268.5"/>
<text text-anchor="start" x="390.5" y="-286.5" font-family="Helvetica,sans-Serif" font-size="10.00" fill="#000000">System/include/BipedalLocomotion</text>
<text text-anchor="middle" x="467.5" y="-275.5" font-family="Helvetica,sans-Serif" font-size="10.00" fill="#000000">/System/DynamicalSystem.h</text>
</a>
</g>
</g>
<!-- Node16&#45;&gt;Node17 -->
<g id="edge1" class="edge">
<title>Node16&#45;&gt;Node17</title>
<path fill="none" stroke="#191970" d="M460.9384,-325.3179C460.5239,-316.3414 460.7933,-306.5143 461.7464,-298.6432"/>
<polygon fill="#191970" stroke="#191970" points="457.4504,-325.6087 461.7392,-335.2967 464.428,-325.0487 457.4504,-325.6087"/>
</g>
<!-- Node17&#45;&gt;Node16 -->
<g id="edge3" class="edge">
<title>Node17&#45;&gt;Node16</title>
<path fill="none" stroke="#191970" d="M474.0584,-308.6135C474.4764,-317.5857 474.2105,-327.4156 473.2608,-335.2967"/>
<polygon fill="#191970" stroke="#191970" points="477.5469,-308.3291 473.2536,-298.6432 470.5696,-308.8924 477.5469,-308.3291"/>
</g>
<!-- Node18 -->
<g id="node3" class="node">
<title>Node18</title>
<g id="a_node3"><a xlink:href="TimeVaryingDCMPlanner_8cpp.html" target="_top" xlink:title="Planners/src/TimeVarying\lDCMPlanner.cpp">
<polygon fill="none" stroke="#000000" points="0,-201.5 0,-231.5 129,-231.5 129,-201.5 0,-201.5"/>
<text text-anchor="start" x="8" y="-219.5" font-family="Helvetica,sans-Serif" font-size="10.00" fill="#000000">Planners/src/TimeVarying</text>
<text text-anchor="middle" x="64.5" y="-208.5" font-family="Helvetica,sans-Serif" font-size="10.00" fill="#000000">DCMPlanner.cpp</text>
</a>
</g>
</g>
<!-- Node17&#45;&gt;Node18 -->
<g id="edge2" class="edge">
<title>Node17&#45;&gt;Node18</title>
<path fill="none" stroke="#191970" d="M372.4868,-269.9426C306.658,-260.2278 217.071,-246.3685 138.5,-232 135.4011,-231.4333 132.2329,-230.8366 129.0356,-230.2206"/>
<polygon fill="#191970" stroke="#191970" points="372.0293,-273.4129 382.4322,-271.4055 373.048,-266.4874 372.0293,-273.4129"/>
</g>
<!-- Node19 -->
<g id="node4" class="node">
<title>Node19</title>
<g id="a_node4"><a xlink:href="FloatingBaseSystemDynamics_8h.html" target="_top" xlink:title="System/include/BipedalLocomotion\l/System/FloatingBaseSystemDynamics.h">
<polygon fill="none" stroke="#000000" points="147.5,-201.5 147.5,-231.5 347.5,-231.5 347.5,-201.5 147.5,-201.5"/>
<text text-anchor="start" x="155.5" y="-219.5" font-family="Helvetica,sans-Serif" font-size="10.00" fill="#000000">System/include/BipedalLocomotion</text>
<text text-anchor="middle" x="247.5" y="-208.5" font-family="Helvetica,sans-Serif" font-size="10.00" fill="#000000">/System/FloatingBaseSystemDynamics.h</text>
</a>
</g>
</g>
<!-- Node17&#45;&gt;Node19 -->
<g id="edge4" class="edge">
<title>Node17&#45;&gt;Node19</title>
<path fill="none" stroke="#191970" d="M408.5545,-265.5484C373.7315,-254.9432 330.1363,-241.6665 297.0876,-231.6017"/>
<polygon fill="#191970" stroke="#191970" points="407.5418,-268.8987 418.1277,-268.4639 409.5812,-262.2023 407.5418,-268.8987"/>
</g>
<!-- Node21 -->
<g id="node6" class="node">
<title>Node21</title>
<g id="a_node6"><a xlink:href="FloatingBaseSystemKinematics_8h.html" target="_top" xlink:title="System/include/BipedalLocomotion\l/System/FloatingBaseSystemKinematics.h">
<polygon fill="none" stroke="#000000" points="365.5,-201.5 365.5,-231.5 569.5,-231.5 569.5,-201.5 365.5,-201.5"/>
<text text-anchor="start" x="373.5" y="-219.5" font-family="Helvetica,sans-Serif" font-size="10.00" fill="#000000">System/include/BipedalLocomotion</text>
<text text-anchor="middle" x="467.5" y="-208.5" font-family="Helvetica,sans-Serif" font-size="10.00" fill="#000000">/System/FloatingBaseSystemKinematics.h</text>
</a>
</g>
</g>
<!-- Node17&#45;&gt;Node21 -->
<g id="edge6" class="edge">
<title>Node17&#45;&gt;Node21</title>
<path fill="none" stroke="#191970" d="M467.5,-258.0249C467.5,-249.128 467.5,-239.4287 467.5,-231.6432"/>
<polygon fill="#191970" stroke="#191970" points="464.0001,-258.2966 467.5,-268.2967 471.0001,-258.2967 464.0001,-258.2966"/>
</g>
<!-- Node23 -->
<g id="node8" class="node">
<title>Node23</title>
<g id="a_node8"><a xlink:href="Integrator_8h.html" target="_top" xlink:title="System/include/BipedalLocomotion\l/System/Integrator.h">
<polygon fill="none" stroke="#000000" points="643.5,-201.5 643.5,-231.5 813.5,-231.5 813.5,-201.5 643.5,-201.5"/>
<text text-anchor="start" x="651.5" y="-219.5" font-family="Helvetica,sans-Serif" font-size="10.00" fill="#000000">System/include/BipedalLocomotion</text>
<text text-anchor="middle" x="728.5" y="-208.5" font-family="Helvetica,sans-Serif" font-size="10.00" fill="#000000">/System/Integrator.h</text>
</a>
</g>
</g>
<!-- Node17&#45;&gt;Node23 -->
<g id="edge8" class="edge">
<title>Node17&#45;&gt;Node23</title>
<path fill="none" stroke="#191970" d="M535.847,-265.955C577.4153,-255.2842 629.9606,-241.7955 669.671,-231.6017"/>
<polygon fill="#191970" stroke="#191970" points="534.8892,-262.5873 526.0735,-268.4639 536.6297,-269.3675 534.8892,-262.5873"/>
</g>
<!-- Node29 -->
<g id="node14" class="node">
<title>Node29</title>
<g id="a_node14"><a xlink:href="LinearTimeInvariantSystem_8h.html" target="_top" xlink:title="System/include/BipedalLocomotion\l/System/LinearTimeInvariantSystem.h">
<polygon fill="none" stroke="#000000" points="859.5,-201.5 859.5,-231.5 1043.5,-231.5 1043.5,-201.5 859.5,-201.5"/>
<text text-anchor="start" x="867.5" y="-219.5" font-family="Helvetica,sans-Serif" font-size="10.00" fill="#000000">System/include/BipedalLocomotion</text>
<text text-anchor="middle" x="951.5" y="-208.5" font-family="Helvetica,sans-Serif" font-size="10.00" fill="#000000">/System/LinearTimeInvariantSystem.h</text>
</a>
</g>
</g>
<!-- Node17&#45;&gt;Node29 -->
<g id="edge17" class="edge">
<title>Node17&#45;&gt;Node29</title>
<path fill="none" stroke="#191970" d="M562.6591,-270.3271C648.6448,-258.4242 774.3984,-241.0161 859.4183,-229.2469"/>
<polygon fill="#191970" stroke="#191970" points="562.0632,-266.8762 552.6376,-271.7144 563.0231,-273.8101 562.0632,-266.8762"/>
</g>
<!-- Node20 -->
<g id="node5" class="node">
<title>Node20</title>
<g id="a_node5"><a xlink:href="FloatingBaseSystemDynamics_8cpp.html" target="_top" xlink:title="System/src/FloatingBaseSystem\lDynamics.cpp">
<polygon fill="none" stroke="#000000" points="153,-134.5 153,-164.5 314,-164.5 314,-134.5 153,-134.5"/>
<text text-anchor="start" x="161" y="-152.5" font-family="Helvetica,sans-Serif" font-size="10.00" fill="#000000">System/src/FloatingBaseSystem</text>
<text text-anchor="middle" x="233.5" y="-141.5" font-family="Helvetica,sans-Serif" font-size="10.00" fill="#000000">Dynamics.cpp</text>
</a>
</g>
</g>
<!-- Node19&#45;&gt;Node20 -->
<g id="edge5" class="edge">
<title>Node19&#45;&gt;Node20</title>
<path fill="none" stroke="#191970" d="M242.2381,-191.3179C240.3624,-182.3414 238.309,-172.5143 236.6642,-164.6432"/>
<polygon fill="#191970" stroke="#191970" points="238.8517,-192.224 244.3232,-201.2967 245.7037,-190.7922 238.8517,-192.224"/>
</g>
<!-- Node22 -->
<g id="node7" class="node">
<title>Node22</title>
<g id="a_node7"><a xlink:href="FloatingBaseSystemKinematics_8cpp.html" target="_top" xlink:title="System/src/FloatingBaseSystem\lKinematics.cpp">
<polygon fill="none" stroke="#000000" points="332,-134.5 332,-164.5 493,-164.5 493,-134.5 332,-134.5"/>
<text text-anchor="start" x="340" y="-152.5" font-family="Helvetica,sans-Serif" font-size="10.00" fill="#000000">System/src/FloatingBaseSystem</text>
<text text-anchor="middle" x="412.5" y="-141.5" font-family="Helvetica,sans-Serif" font-size="10.00" fill="#000000">Kinematics.cpp</text>
</a>
</g>
</g>
<!-- Node21&#45;&gt;Node22 -->
<g id="edge7" class="edge">
<title>Node21&#45;&gt;Node22</title>
<path fill="none" stroke="#191970" d="M448.497,-193.3509C440.6963,-183.8482 431.884,-173.1132 424.931,-164.6432"/>
<polygon fill="#191970" stroke="#191970" points="445.9694,-195.7881 455.0196,-201.2967 451.3799,-191.3466 445.9694,-195.7881"/>
</g>
<!-- Node24 -->
<g id="node9" class="node">
<title>Node24</title>
<g id="a_node9"><a xlink:href="FixedStepIntegrator_8h.html" target="_top" xlink:title="System/include/BipedalLocomotion\l/System/FixedStepIntegrator.h">
<polygon fill="none" stroke="#000000" points="511.5,-134.5 511.5,-164.5 681.5,-164.5 681.5,-134.5 511.5,-134.5"/>
<text text-anchor="start" x="519.5" y="-152.5" font-family="Helvetica,sans-Serif" font-size="10.00" fill="#000000">System/include/BipedalLocomotion</text>
<text text-anchor="middle" x="596.5" y="-141.5" font-family="Helvetica,sans-Serif" font-size="10.00" fill="#000000">/System/FixedStepIntegrator.h</text>
</a>
</g>
</g>
<!-- Node23&#45;&gt;Node24 -->
<g id="edge9" class="edge">
<title>Node23&#45;&gt;Node24</title>
<path fill="none" stroke="#191970" d="M689.911,-196.9132C669.6813,-186.645 645.2733,-174.2561 626.4812,-164.7177"/>
<polygon fill="#191970" stroke="#191970" points="688.3754,-200.0587 698.8766,-201.4639 691.5437,-193.8168 688.3754,-200.0587"/>
</g>
<!-- Node28 -->
<g id="node13" class="node">
<title>Node28</title>
<g id="a_node13"><a xlink:href="Integrator_8tpp.html" target="_top" xlink:title="System/include/BipedalLocomotion\l/System/Integrator.tpp">
<polygon fill="none" stroke="#000000" points="699.5,-134.5 699.5,-164.5 869.5,-164.5 869.5,-134.5 699.5,-134.5"/>
<text text-anchor="start" x="707.5" y="-152.5" font-family="Helvetica,sans-Serif" font-size="10.00" fill="#000000">System/include/BipedalLocomotion</text>
<text text-anchor="middle" x="784.5" y="-141.5" font-family="Helvetica,sans-Serif" font-size="10.00" fill="#000000">/System/Integrator.tpp</text>
</a>
</g>
</g>
<!-- Node23&#45;&gt;Node28 -->
<g id="edge15" class="edge">
<title>Node23&#45;&gt;Node28</title>
<path fill="none" stroke="#191970" d="M741.6178,-193.0626C748.9639,-183.6315 758.0662,-173.0276 766.0895,-164.6432"/>
<polygon fill="#191970" stroke="#191970" points="738.6431,-191.1956 735.4464,-201.2967 744.2445,-195.3937 738.6431,-191.1956"/>
</g>
<!-- Node25 -->
<g id="node10" class="node">
<title>Node25</title>
<g id="a_node10"><a xlink:href="FixedStepIntegrator_8tpp.html" target="_top" xlink:title="System/include/BipedalLocomotion\l/System/FixedStepIntegrator.tpp">
<polygon fill="none" stroke="#000000" points="511.5,-67.5 511.5,-97.5 681.5,-97.5 681.5,-67.5 511.5,-67.5"/>
<text text-anchor="start" x="519.5" y="-85.5" font-family="Helvetica,sans-Serif" font-size="10.00" fill="#000000">System/include/BipedalLocomotion</text>
<text text-anchor="middle" x="596.5" y="-74.5" font-family="Helvetica,sans-Serif" font-size="10.00" fill="#000000">/System/FixedStepIntegrator.tpp</text>
</a>
</g>
</g>
<!-- Node24&#45;&gt;Node25 -->
<g id="edge10" class="edge">
<title>Node24&#45;&gt;Node25</title>
<path fill="none" stroke="#191970" d="M589.9384,-124.3179C589.5239,-115.3414 589.7933,-105.5143 590.7464,-97.6432"/>
<polygon fill="#191970" stroke="#191970" points="586.4504,-124.6087 590.7392,-134.2967 593.428,-124.0487 586.4504,-124.6087"/>
</g>
<!-- Node26 -->
<g id="node11" class="node">
<title>Node26</title>
<g id="a_node11"><a xlink:href="ForwardEuler_8h.html" target="_top" xlink:title="System/include/BipedalLocomotion\l/System/ForwardEuler.h">
<polygon fill="none" stroke="#000000" points="699.5,-67.5 699.5,-97.5 869.5,-97.5 869.5,-67.5 699.5,-67.5"/>
<text text-anchor="start" x="707.5" y="-85.5" font-family="Helvetica,sans-Serif" font-size="10.00" fill="#000000">System/include/BipedalLocomotion</text>
<text text-anchor="middle" x="784.5" y="-74.5" font-family="Helvetica,sans-Serif" font-size="10.00" fill="#000000">/System/ForwardEuler.h</text>
</a>
</g>
</g>
<!-- Node24&#45;&gt;Node26 -->
<g id="edge12" class="edge">
<title>Node24&#45;&gt;Node26</title>
<path fill="none" stroke="#191970" d="M648.4041,-131.0023C677.9004,-120.4903 714.3663,-107.4945 742.1251,-97.6017"/>
<polygon fill="#191970" stroke="#191970" points="646.9356,-127.8099 638.6909,-134.4639 649.2855,-134.4037 646.9356,-127.8099"/>
</g>
<!-- Node25&#45;&gt;Node24 -->
<g id="edge11" class="edge">
<title>Node25&#45;&gt;Node24</title>
<path fill="none" stroke="#191970" d="M603.0584,-107.6135C603.4764,-116.5857 603.2105,-126.4156 602.2608,-134.2967"/>
<polygon fill="#191970" stroke="#191970" points="606.5469,-107.3291 602.2536,-97.6432 599.5696,-107.8924 606.5469,-107.3291"/>
</g>
<!-- Node27 -->
<g id="node12" class="node">
<title>Node27</title>
<g id="a_node12"><a xlink:href="ForwardEuler_8tpp.html" target="_top" xlink:title="System/include/BipedalLocomotion\l/System/ForwardEuler.tpp">
<polygon fill="none" stroke="#000000" points="699.5,-.5 699.5,-30.5 869.5,-30.5 869.5,-.5 699.5,-.5"/>
<text text-anchor="start" x="707.5" y="-18.5" font-family="Helvetica,sans-Serif" font-size="10.00" fill="#000000">System/include/BipedalLocomotion</text>
<text text-anchor="middle" x="784.5" y="-7.5" font-family="Helvetica,sans-Serif" font-size="10.00" fill="#000000">/System/ForwardEuler.tpp</text>
</a>
</g>
</g>
<!-- Node26&#45;&gt;Node27 -->
<g id="edge13" class="edge">
<title>Node26&#45;&gt;Node27</title>
<path fill="none" stroke="#191970" d="M777.9384,-57.3179C777.5239,-48.3414 777.7933,-38.5143 778.7464,-30.6432"/>
<polygon fill="#191970" stroke="#191970" points="774.4504,-57.6087 778.7392,-67.2967 781.428,-57.0487 774.4504,-57.6087"/>
</g>
<!-- Node27&#45;&gt;Node26 -->
<g id="edge14" class="edge">
<title>Node27&#45;&gt;Node26</title>
<path fill="none" stroke="#191970" d="M791.0584,-40.6135C791.4764,-49.5857 791.2105,-59.4156 790.2608,-67.2967"/>
<polygon fill="#191970" stroke="#191970" points="794.5469,-40.3291 790.2536,-30.6432 787.5696,-40.8924 794.5469,-40.3291"/>
</g>
<!-- Node28&#45;&gt;Node23 -->
<g id="edge16" class="edge">
<title>Node28&#45;&gt;Node23</title>
<path fill="none" stroke="#191970" d="M771.4349,-172.8698C764.0972,-182.2952 754.9965,-192.9016 746.9681,-201.2967"/>
<polygon fill="#191970" stroke="#191970" points="774.4031,-174.7453 777.5966,-164.6432 768.8003,-170.5489 774.4031,-174.7453"/>
</g>
<!-- Node30 -->
<g id="node15" class="node">
<title>Node30</title>
<g id="a_node15"><a xlink:href="LinearTimeInvariantSystem_8cpp.html" target="_top" xlink:title="System/src/LinearTimeInvariant\lSystem.cpp">
<polygon fill="none" stroke="#000000" points="888,-134.5 888,-164.5 1043,-164.5 1043,-134.5 888,-134.5"/>
<text text-anchor="start" x="896" y="-152.5" font-family="Helvetica,sans-Serif" font-size="10.00" fill="#000000">System/src/LinearTimeInvariant</text>
<text text-anchor="middle" x="965.5" y="-141.5" font-family="Helvetica,sans-Serif" font-size="10.00" fill="#000000">System.cpp</text>
</a>
</g>
</g>
<!-- Node29&#45;&gt;Node30 -->
<g id="edge18" class="edge">
<title>Node29&#45;&gt;Node30</title>
<path fill="none" stroke="#191970" d="M956.7619,-191.3179C958.6376,-182.3414 960.691,-172.5143 962.3358,-164.6432"/>
<polygon fill="#191970" stroke="#191970" points="953.2963,-190.7922 954.6768,-201.2967 960.1483,-192.224 953.2963,-190.7922"/>
</g>
</g>
</svg>
        <g id="navigator" transform="translate(0 0)" fill="#404254">
                <rect fill="#f2f5e9" fill-opacity="0.5" stroke="#606060" stroke-width=".5" x="0" y="0" width="60" height="60"/>
                <use id="zoomplus" xlink:href="#zoomPlus" x="17" y="9" onmousedown="handleZoom(evt,'in')"/>
                <use id="zoomminus" xlink:href="#zoomMin" x="42" y="9" onmousedown="handleZoom(evt,'out')"/>
                <use id="reset" xlink:href="#resetDef" x="30" y="36" onmousedown="handleReset()"/>
                <g id="arrowUp" xlink:href="#dirArrow" transform="translate(30 24)" onmousedown="handlePan(0,-1)">
                  <use xlink:href="#rim" fill="#404040">
                        <set attributeName="fill" to="#808080" begin="arrowUp.mouseover" end="arrowUp.mouseout"/>
                  </use>
                  <path fill="none" stroke="white" stroke-width="1.5" d="M0,-3.0v7 M-2.5,-0.5L0,-3.0L2.5,-0.5"/>
                </g>
                <g id="arrowRight" xlink:href="#dirArrow" transform="rotate(90) translate(36 -43)" onmousedown="handlePan(1,0)">
                  <use xlink:href="#rim" fill="#404040">
                        <set attributeName="fill" to="#808080" begin="arrowRight.mouseover" end="arrowRight.mouseout"/>
                  </use>
                  <path fill="none" stroke="white" stroke-width="1.5" d="M0,-3.0v7 M-2.5,-0.5L0,-3.0L2.5,-0.5"/>
                </g>
                <g id="arrowDown" xlink:href="#dirArrow" transform="rotate(180) translate(-30 -48)" onmousedown="handlePan(0,1)">
                  <use xlink:href="#rim" fill="#404040">
                        <set attributeName="fill" to="#808080" begin="arrowDown.mouseover" end="arrowDown.mouseout"/>
                  </use>
                  <path fill="none" stroke="white" stroke-width="1.5" d="M0,-3.0v7 M-2.5,-0.5L0,-3.0L2.5,-0.5"/>
                </g>
                <g id="arrowLeft" xlink:href="#dirArrow" transform="rotate(270) translate(-36 17)" onmousedown="handlePan(-1,0)">
                  <use xlink:href="#rim" fill="#404040">
                        <set attributeName="fill" to="#808080" begin="arrowLeft.mouseover" end="arrowLeft.mouseout"/>
                  </use>
                  <path fill="none" stroke="white" stroke-width="1.5" d="M0,-3.0v7 M-2.5,-0.5L0,-3.0L2.5,-0.5"/>
                </g>
        </g>
        <svg viewBox="0 0 15 15" width="100%" height="30px" preserveAspectRatio="xMaxYMin meet">
         <g id="arrow_out" transform="scale(0.3 0.3)">
          <a xlink:href="DynamicalSystem_8tpp__dep__incl_org.svg" target="_base">
           <rect id="button" ry="5" rx="5" y="6" x="6" height="38" width="38"
                fill="#f2f5e9" fill-opacity="0.5" stroke="#606060" stroke-width="1.0"/>
           <path id="arrow"
             d="M 11.500037,31.436501 C 11.940474,20.09759 22.043105,11.32322 32.158766,21.979434 L 37.068811,17.246167 C 37.068811,17.246167 37.088388,32 37.088388,32 L 22.160133,31.978069 C 22.160133,31.978069 26.997745,27.140456 26.997745,27.140456 C 18.528582,18.264221 13.291696,25.230495 11.500037,31.436501 z"
             style="fill:#404040;"/>
          </a>
         </g>
        </svg>
</svg>
