<?xml version="1.0" encoding="UTF-8" standalone="no"?>
<!DOCTYPE svg PUBLIC "-//W3C//DTD SVG 1.1//EN"
 "http://www.w3.org/Graphics/SVG/1.1/DTD/svg11.dtd">
<!-- Generated by graphviz version 2.40.1 (20161225.0304)
 -->
<!-- Title: System/include/BipedalLocomotion/System/DynamicalSystem.h Pages: 1 -->
<!--zoomable 307 -->
<svg id="main" version="1.1" xmlns="http://www.w3.org/2000/svg" xmlns:xlink="http://www.w3.org/1999/xlink" xml:space="preserve" onload="init(evt)">
<style type="text/css"><![CDATA[
.edge:hover path { stroke: red; }
.edge:hover polygon { stroke: red; fill: red; }
]]></style>
<script type="text/javascript"><![CDATA[
var edges = document.getElementsByTagName('g');
if (edges && edges.length) {
  for (var i=0;i<edges.length;i++) {
    if (edges[i].id.substr(0,4)=='edge') {
      edges[i].setAttribute('class','edge');
    }
  }
}
]]></script>
        <defs>
                <circle id="rim" cx="0" cy="0" r="7"/>
                <circle id="rim2" cx="0" cy="0" r="3.5"/>
                <g id="zoomPlus">
                        <use xlink:href="#rim" fill="#404040">
                                <set attributeName="fill" to="#808080" begin="zoomplus.mouseover" end="zoomplus.mouseout"/>
                        </use>
                        <path d="M-4,0h8M0,-4v8" fill="none" stroke="white" stroke-width="1.5" pointer-events="none"/>
                </g>
                <g id="zoomMin">
                        <use xlink:href="#rim" fill="#404040">
                                <set attributeName="fill" to="#808080" begin="zoomminus.mouseover" end="zoomminus.mouseout"/>
                        </use>
                        <path d="M-4,0h8" fill="none" stroke="white" stroke-width="1.5" pointer-events="none"/>
                </g>
                <g id="dirArrow">
                        <path fill="none" stroke="white" stroke-width="1.5" d="M0,-3.0v7 M-2.5,-0.5L0,-3.0L2.5,-0.5"/>
                </g>
               <g id="resetDef">
                       <use xlink:href="#rim2" fill="#404040">
                               <set attributeName="fill" to="#808080" begin="reset.mouseover" end="reset.mouseout"/>
                       </use>
               </g>
        </defs>

<script type="text/javascript">
var viewWidth = 1240;
var viewHeight = 307;
var sectionId = 'dynsection-1';
</script>
<script xlink:href="svgpan.js"/>
<svg id="graph" class="graph">
<g id="viewport">
<title>System/include/BipedalLocomotion/System/DynamicalSystem.h</title>
<!-- Node16 -->
<g id="node1" class="node">
<title>Node16</title>
<polygon fill="#bfbfbf" stroke="#000000" points="350.5,-268.5 350.5,-298.5 520.5,-298.5 520.5,-268.5 350.5,-268.5"/>
<text text-anchor="start" x="358.5" y="-286.5" font-family="Helvetica,sans-Serif" font-size="10.00" fill="#000000">System/include/BipedalLocomotion</text>
<text text-anchor="middle" x="435.5" y="-275.5" font-family="Helvetica,sans-Serif" font-size="10.00" fill="#000000">/System/DynamicalSystem.h</text>
</g>
<!-- Node17 -->
<g id="node2" class="node">
<title>Node17</title>
<g id="a_node2"><a xlink:href="TimeVaryingDCMPlanner_8cpp.html" target="_top" xlink:title="Planners/src/TimeVarying\lDCMPlanner.cpp">
<polygon fill="none" stroke="#000000" points="0,-201.5 0,-231.5 129,-231.5 129,-201.5 0,-201.5"/>
<text text-anchor="start" x="8" y="-219.5" font-family="Helvetica,sans-Serif" font-size="10.00" fill="#000000">Planners/src/TimeVarying</text>
<text text-anchor="middle" x="64.5" y="-208.5" font-family="Helvetica,sans-Serif" font-size="10.00" fill="#000000">DCMPlanner.cpp</text>
</a>
</g>
</g>
<!-- Node16&#45;&gt;Node17 -->
<g id="edge1" class="edge">
<title>Node16&#45;&gt;Node17</title>
<path fill="none" stroke="#191970" d="M340.2808,-267.8549C281.9398,-258.0542 205.7948,-244.8782 138.5,-232 135.4059,-231.4079 132.2416,-230.7906 129.0473,-230.158"/>
<polygon fill="#191970" stroke="#191970" points="339.7812,-271.3199 350.2222,-269.5212 340.9384,-264.4162 339.7812,-271.3199"/>
</g>
<!-- Node18 -->
<g id="node3" class="node">
<title>Node18</title>
<g id="a_node3"><a xlink:href="DynamicalSystem_8tpp.html" target="_top" xlink:title="System/include/BipedalLocomotion\l/System/DynamicalSystem.tpp">
<polygon fill="none" stroke="#000000" points="147.5,-201.5 147.5,-231.5 317.5,-231.5 317.5,-201.5 147.5,-201.5"/>
<text text-anchor="start" x="155.5" y="-219.5" font-family="Helvetica,sans-Serif" font-size="10.00" fill="#000000">System/include/BipedalLocomotion</text>
<text text-anchor="middle" x="232.5" y="-208.5" font-family="Helvetica,sans-Serif" font-size="10.00" fill="#000000">/System/DynamicalSystem.tpp</text>
</a>
</g>
</g>
<!-- Node16&#45;&gt;Node18 -->
<g id="edge2" class="edge">
<title>Node16&#45;&gt;Node18</title>
<path fill="none" stroke="#191970" d="M374.6269,-265.4123C341.5602,-254.8298 301.6542,-241.6235 272.5073,-231.6017"/>
<polygon fill="#191970" stroke="#191970" points="373.6117,-268.7622 384.2023,-268.4639 375.7372,-262.0926 373.6117,-268.7622"/>
</g>
<!-- Node19 -->
<g id="node4" class="node">
<title>Node19</title>
<g id="a_node4"><a xlink:href="FloatingBaseSystemDynamics_8h.html" target="_top" xlink:title="System/include/BipedalLocomotion\l/System/FloatingBaseSystemDynamics.h">
<polygon fill="none" stroke="#000000" points="335.5,-201.5 335.5,-231.5 535.5,-231.5 535.5,-201.5 335.5,-201.5"/>
<text text-anchor="start" x="343.5" y="-219.5" font-family="Helvetica,sans-Serif" font-size="10.00" fill="#000000">System/include/BipedalLocomotion</text>
<text text-anchor="middle" x="435.5" y="-208.5" font-family="Helvetica,sans-Serif" font-size="10.00" fill="#000000">/System/FloatingBaseSystemDynamics.h</text>
</a>
</g>
</g>
<!-- Node16&#45;&gt;Node19 -->
<g id="edge4" class="edge">
<title>Node16&#45;&gt;Node19</title>
<path fill="none" stroke="#191970" d="M435.5,-258.0249C435.5,-249.128 435.5,-239.4287 435.5,-231.6432"/>
<polygon fill="#191970" stroke="#191970" points="432.0001,-258.2966 435.5,-268.2967 439.0001,-258.2967 432.0001,-258.2966"/>
</g>
<!-- Node21 -->
<g id="node6" class="node">
<title>Node21</title>
<g id="a_node6"><a xlink:href="FloatingBaseSystemKinematics_8h.html" target="_top" xlink:title="System/include/BipedalLocomotion\l/System/FloatingBaseSystemKinematics.h">
<polygon fill="none" stroke="#000000" points="553.5,-201.5 553.5,-231.5 757.5,-231.5 757.5,-201.5 553.5,-201.5"/>
<text text-anchor="start" x="561.5" y="-219.5" font-family="Helvetica,sans-Serif" font-size="10.00" fill="#000000">System/include/BipedalLocomotion</text>
<text text-anchor="middle" x="655.5" y="-208.5" font-family="Helvetica,sans-Serif" font-size="10.00" fill="#000000">/System/FloatingBaseSystemKinematics.h</text>
</a>
</g>
</g>
<!-- Node16&#45;&gt;Node21 -->
<g id="edge6" class="edge">
<title>Node16&#45;&gt;Node21</title>
<path fill="none" stroke="#191970" d="M494.4455,-265.5484C529.2685,-254.9432 572.8637,-241.6665 605.9124,-231.6017"/>
<polygon fill="#191970" stroke="#191970" points="493.4188,-262.2023 484.8723,-268.4639 495.4582,-268.8987 493.4188,-262.2023"/>
</g>
<!-- Node23 -->
<g id="node8" class="node">
<title>Node23</title>
<g id="a_node8"><a xlink:href="Integrator_8h.html" target="_top" xlink:title="System/include/BipedalLocomotion\l/System/Integrator.h">
<polygon fill="none" stroke="#000000" points="831.5,-201.5 831.5,-231.5 1001.5,-231.5 1001.5,-201.5 831.5,-201.5"/>
<text text-anchor="start" x="839.5" y="-219.5" font-family="Helvetica,sans-Serif" font-size="10.00" fill="#000000">System/include/BipedalLocomotion</text>
<text text-anchor="middle" x="916.5" y="-208.5" font-family="Helvetica,sans-Serif" font-size="10.00" fill="#000000">/System/Integrator.h</text>
</a>
</g>
</g>
<!-- Node16&#45;&gt;Node23 -->
<g id="edge8" class="edge">
<title>Node16&#45;&gt;Node23</title>
<path fill="none" stroke="#191970" d="M530.6036,-270.2527C618.2182,-258.0486 747.0457,-240.1038 831.3515,-228.3606"/>
<polygon fill="#191970" stroke="#191970" points="530.0837,-266.7913 520.6623,-271.6375 531.0495,-273.7243 530.0837,-266.7913"/>
</g>
<!-- Node29 -->
<g id="node14" class="node">
<title>Node29</title>
<g id="a_node14"><a xlink:href="LinearTimeInvariantSystem_8h.html" target="_top" xlink:title="System/include/BipedalLocomotion\l/System/LinearTimeInvariantSystem.h">
<polygon fill="none" stroke="#000000" points="1047.5,-201.5 1047.5,-231.5 1231.5,-231.5 1231.5,-201.5 1047.5,-201.5"/>
<text text-anchor="start" x="1055.5" y="-219.5" font-family="Helvetica,sans-Serif" font-size="10.00" fill="#000000">System/include/BipedalLocomotion</text>
<text text-anchor="middle" x="1139.5" y="-208.5" font-family="Helvetica,sans-Serif" font-size="10.00" fill="#000000">/System/LinearTimeInvariantSystem.h</text>
</a>
</g>
</g>
<!-- Node16&#45;&gt;Node29 -->
<g id="edge17" class="edge">
<title>Node16&#45;&gt;Node29</title>
<path fill="none" stroke="#191970" d="M530.9279,-275.8421C645.0746,-266.4765 841.8967,-249.6757 1010.5,-232 1022.39,-230.7535 1034.886,-229.3588 1047.2274,-227.9306"/>
<polygon fill="#191970" stroke="#191970" points="530.5026,-272.3651 520.8216,-276.6696 531.0739,-279.3418 530.5026,-272.3651"/>
</g>
<!-- Node18&#45;&gt;Node16 -->
<g id="edge3" class="edge">
<title>Node18&#45;&gt;Node16</title>
<path fill="none" stroke="#191970" d="M293.5898,-234.657C326.6862,-245.2509 366.5836,-258.456 395.6834,-268.4639"/>
<polygon fill="#191970" stroke="#191970" points="294.595,-231.304 284.0044,-231.6017 292.4691,-237.9734 294.595,-231.304"/>
</g>
<!-- Node20 -->
<g id="node5" class="node">
<title>Node20</title>
<g id="a_node5"><a xlink:href="FloatingBaseSystemDynamics_8cpp.html" target="_top" xlink:title="System/src/FloatingBaseSystem\lDynamics.cpp">
<polygon fill="none" stroke="#000000" points="341,-134.5 341,-164.5 502,-164.5 502,-134.5 341,-134.5"/>
<text text-anchor="start" x="349" y="-152.5" font-family="Helvetica,sans-Serif" font-size="10.00" fill="#000000">System/src/FloatingBaseSystem</text>
<text text-anchor="middle" x="421.5" y="-141.5" font-family="Helvetica,sans-Serif" font-size="10.00" fill="#000000">Dynamics.cpp</text>
</a>
</g>
</g>
<!-- Node19&#45;&gt;Node20 -->
<g id="edge5" class="edge">
<title>Node19&#45;&gt;Node20</title>
<path fill="none" stroke="#191970" d="M430.2381,-191.3179C428.3624,-182.3414 426.309,-172.5143 424.6642,-164.6432"/>
<polygon fill="#191970" stroke="#191970" points="426.8517,-192.224 432.3232,-201.2967 433.7037,-190.7922 426.8517,-192.224"/>
</g>
<!-- Node22 -->
<g id="node7" class="node">
<title>Node22</title>
<g id="a_node7"><a xlink:href="FloatingBaseSystemKinematics_8cpp.html" target="_top" xlink:title="System/src/FloatingBaseSystem\lKinematics.cpp">
<polygon fill="none" stroke="#000000" points="520,-134.5 520,-164.5 681,-164.5 681,-134.5 520,-134.5"/>
<text text-anchor="start" x="528" y="-152.5" font-family="Helvetica,sans-Serif" font-size="10.00" fill="#000000">System/src/FloatingBaseSystem</text>
<text text-anchor="middle" x="600.5" y="-141.5" font-family="Helvetica,sans-Serif" font-size="10.00" fill="#000000">Kinematics.cpp</text>
</a>
</g>
</g>
<!-- Node21&#45;&gt;Node22 -->
<g id="edge7" class="edge">
<title>Node21&#45;&gt;Node22</title>
<path fill="none" stroke="#191970" d="M636.497,-193.3509C628.6963,-183.8482 619.884,-173.1132 612.931,-164.6432"/>
<polygon fill="#191970" stroke="#191970" points="633.9694,-195.7881 643.0196,-201.2967 639.3799,-191.3466 633.9694,-195.7881"/>
</g>
<!-- Node24 -->
<g id="node9" class="node">
<title>Node24</title>
<g id="a_node9"><a xlink:href="FixedStepIntegrator_8h.html" target="_top" xlink:title="System/include/BipedalLocomotion\l/System/FixedStepIntegrator.h">
<polygon fill="none" stroke="#000000" points="699.5,-134.5 699.5,-164.5 869.5,-164.5 869.5,-134.5 699.5,-134.5"/>
<text text-anchor="start" x="707.5" y="-152.5" font-family="Helvetica,sans-Serif" font-size="10.00" fill="#000000">System/include/BipedalLocomotion</text>
<text text-anchor="middle" x="784.5" y="-141.5" font-family="Helvetica,sans-Serif" font-size="10.00" fill="#000000">/System/FixedStepIntegrator.h</text>
</a>
</g>
</g>
<!-- Node23&#45;&gt;Node24 -->
<g id="edge9" class="edge">
<title>Node23&#45;&gt;Node24</title>
<path fill="none" stroke="#191970" d="M877.911,-196.9132C857.6813,-186.645 833.2733,-174.2561 814.4812,-164.7177"/>
<polygon fill="#191970" stroke="#191970" points="876.3754,-200.0587 886.8766,-201.4639 879.5437,-193.8168 876.3754,-200.0587"/>
</g>
<!-- Node28 -->
<g id="node13" class="node">
<title>Node28</title>
<g id="a_node13"><a xlink:href="Integrator_8tpp.html" target="_top" xlink:title="System/include/BipedalLocomotion\l/System/Integrator.tpp">
<polygon fill="none" stroke="#000000" points="887.5,-134.5 887.5,-164.5 1057.5,-164.5 1057.5,-134.5 887.5,-134.5"/>
<text text-anchor="start" x="895.5" y="-152.5" font-family="Helvetica,sans-Serif" font-size="10.00" fill="#000000">System/include/BipedalLocomotion</text>
<text text-anchor="middle" x="972.5" y="-141.5" font-family="Helvetica,sans-Serif" font-size="10.00" fill="#000000">/System/Integrator.tpp</text>
</a>
</g>
</g>
<!-- Node23&#45;&gt;Node28 -->
<g id="edge15" class="edge">
<title>Node23&#45;&gt;Node28</title>
<path fill="none" stroke="#191970" d="M929.6178,-193.0626C936.9639,-183.6315 946.0662,-173.0276 954.0895,-164.6432"/>
<polygon fill="#191970" stroke="#191970" points="926.6431,-191.1956 923.4464,-201.2967 932.2445,-195.3937 926.6431,-191.1956"/>
</g>
<!-- Node25 -->
<g id="node10" class="node">
<title>Node25</title>
<g id="a_node10"><a xlink:href="FixedStepIntegrator_8tpp.html" target="_top" xlink:title="System/include/BipedalLocomotion\l/System/FixedStepIntegrator.tpp">
<polygon fill="none" stroke="#000000" points="699.5,-67.5 699.5,-97.5 869.5,-97.5 869.5,-67.5 699.5,-67.5"/>
<text text-anchor="start" x="707.5" y="-85.5" font-family="Helvetica,sans-Serif" font-size="10.00" fill="#000000">System/include/BipedalLocomotion</text>
<text text-anchor="middle" x="784.5" y="-74.5" font-family="Helvetica,sans-Serif" font-size="10.00" fill="#000000">/System/FixedStepIntegrator.tpp</text>
</a>
</g>
</g>
<!-- Node24&#45;&gt;Node25 -->
<g id="edge10" class="edge">
<title>Node24&#45;&gt;Node25</title>
<path fill="none" stroke="#191970" d="M777.9384,-124.3179C777.5239,-115.3414 777.7933,-105.5143 778.7464,-97.6432"/>
<polygon fill="#191970" stroke="#191970" points="774.4504,-124.6087 778.7392,-134.2967 781.428,-124.0487 774.4504,-124.6087"/>
</g>
<!-- Node26 -->
<g id="node11" class="node">
<title>Node26</title>
<g id="a_node11"><a xlink:href="ForwardEuler_8h.html" target="_top" xlink:title="System/include/BipedalLocomotion\l/System/ForwardEuler.h">
<polygon fill="none" stroke="#000000" points="887.5,-67.5 887.5,-97.5 1057.5,-97.5 1057.5,-67.5 887.5,-67.5"/>
<text text-anchor="start" x="895.5" y="-85.5" font-family="Helvetica,sans-Serif" font-size="10.00" fill="#000000">System/include/BipedalLocomotion</text>
<text text-anchor="middle" x="972.5" y="-74.5" font-family="Helvetica,sans-Serif" font-size="10.00" fill="#000000">/System/ForwardEuler.h</text>
</a>
</g>
</g>
<!-- Node24&#45;&gt;Node26 -->
<g id="edge12" class="edge">
<title>Node24&#45;&gt;Node26</title>
<path fill="none" stroke="#191970" d="M836.4041,-131.0023C865.9004,-120.4903 902.3663,-107.4945 930.1251,-97.6017"/>
<polygon fill="#191970" stroke="#191970" points="834.9356,-127.8099 826.6909,-134.4639 837.2855,-134.4037 834.9356,-127.8099"/>
</g>
<!-- Node25&#45;&gt;Node24 -->
<g id="edge11" class="edge">
<title>Node25&#45;&gt;Node24</title>
<path fill="none" stroke="#191970" d="M791.0584,-107.6135C791.4764,-116.5857 791.2105,-126.4156 790.2608,-134.2967"/>
<polygon fill="#191970" stroke="#191970" points="794.5469,-107.3291 790.2536,-97.6432 787.5696,-107.8924 794.5469,-107.3291"/>
</g>
<!-- Node27 -->
<g id="node12" class="node">
<title>Node27</title>
<g id="a_node12"><a xlink:href="ForwardEuler_8tpp.html" target="_top" xlink:title="System/include/BipedalLocomotion\l/System/ForwardEuler.tpp">
<polygon fill="none" stroke="#000000" points="887.5,-.5 887.5,-30.5 1057.5,-30.5 1057.5,-.5 887.5,-.5"/>
<text text-anchor="start" x="895.5" y="-18.5" font-family="Helvetica,sans-Serif" font-size="10.00" fill="#000000">System/include/BipedalLocomotion</text>
<text text-anchor="middle" x="972.5" y="-7.5" font-family="Helvetica,sans-Serif" font-size="10.00" fill="#000000">/System/ForwardEuler.tpp</text>
</a>
</g>
</g>
<!-- Node26&#45;&gt;Node27 -->
<g id="edge13" class="edge">
<title>Node26&#45;&gt;Node27</title>
<path fill="none" stroke="#191970" d="M965.9384,-57.3179C965.5239,-48.3414 965.7933,-38.5143 966.7464,-30.6432"/>
<polygon fill="#191970" stroke="#191970" points="962.4504,-57.6087 966.7392,-67.2967 969.428,-57.0487 962.4504,-57.6087"/>
</g>
<!-- Node27&#45;&gt;Node26 -->
<g id="edge14" class="edge">
<title>Node27&#45;&gt;Node26</title>
<path fill="none" stroke="#191970" d="M979.0584,-40.6135C979.4764,-49.5857 979.2105,-59.4156 978.2608,-67.2967"/>
<polygon fill="#191970" stroke="#191970" points="982.5469,-40.3291 978.2536,-30.6432 975.5696,-40.8924 982.5469,-40.3291"/>
</g>
<!-- Node28&#45;&gt;Node23 -->
<g id="edge16" class="edge">
<title>Node28&#45;&gt;Node23</title>
<path fill="none" stroke="#191970" d="M959.4349,-172.8698C952.0972,-182.2952 942.9965,-192.9016 934.9681,-201.2967"/>
<polygon fill="#191970" stroke="#191970" points="962.4031,-174.7453 965.5966,-164.6432 956.8003,-170.5489 962.4031,-174.7453"/>
</g>
<!-- Node30 -->
<g id="node15" class="node">
<title>Node30</title>
<g id="a_node15"><a xlink:href="LinearTimeInvariantSystem_8cpp.html" target="_top" xlink:title="System/src/LinearTimeInvariant\lSystem.cpp">
<polygon fill="none" stroke="#000000" points="1076,-134.5 1076,-164.5 1231,-164.5 1231,-134.5 1076,-134.5"/>
<text text-anchor="start" x="1084" y="-152.5" font-family="Helvetica,sans-Serif" font-size="10.00" fill="#000000">System/src/LinearTimeInvariant</text>
<text text-anchor="middle" x="1153.5" y="-141.5" font-family="Helvetica,sans-Serif" font-size="10.00" fill="#000000">System.cpp</text>
</a>
</g>
</g>
<!-- Node29&#45;&gt;Node30 -->
<g id="edge18" class="edge">
<title>Node29&#45;&gt;Node30</title>
<path fill="none" stroke="#191970" d="M1144.7619,-191.3179C1146.6376,-182.3414 1148.691,-172.5143 1150.3358,-164.6432"/>
<polygon fill="#191970" stroke="#191970" points="1141.2963,-190.7922 1142.6768,-201.2967 1148.1483,-192.224 1141.2963,-190.7922"/>
</g>
</g>
</svg>
        <g id="navigator" transform="translate(0 0)" fill="#404254">
                <rect fill="#f2f5e9" fill-opacity="0.5" stroke="#606060" stroke-width=".5" x="0" y="0" width="60" height="60"/>
                <use id="zoomplus" xlink:href="#zoomPlus" x="17" y="9" onmousedown="handleZoom(evt,'in')"/>
                <use id="zoomminus" xlink:href="#zoomMin" x="42" y="9" onmousedown="handleZoom(evt,'out')"/>
                <use id="reset" xlink:href="#resetDef" x="30" y="36" onmousedown="handleReset()"/>
                <g id="arrowUp" xlink:href="#dirArrow" transform="translate(30 24)" onmousedown="handlePan(0,-1)">
                  <use xlink:href="#rim" fill="#404040">
                        <set attributeName="fill" to="#808080" begin="arrowUp.mouseover" end="arrowUp.mouseout"/>
                  </use>
                  <path fill="none" stroke="white" stroke-width="1.5" d="M0,-3.0v7 M-2.5,-0.5L0,-3.0L2.5,-0.5"/>
                </g>
                <g id="arrowRight" xlink:href="#dirArrow" transform="rotate(90) translate(36 -43)" onmousedown="handlePan(1,0)">
                  <use xlink:href="#rim" fill="#404040">
                        <set attributeName="fill" to="#808080" begin="arrowRight.mouseover" end="arrowRight.mouseout"/>
                  </use>
                  <path fill="none" stroke="white" stroke-width="1.5" d="M0,-3.0v7 M-2.5,-0.5L0,-3.0L2.5,-0.5"/>
                </g>
                <g id="arrowDown" xlink:href="#dirArrow" transform="rotate(180) translate(-30 -48)" onmousedown="handlePan(0,1)">
                  <use xlink:href="#rim" fill="#404040">
                        <set attributeName="fill" to="#808080" begin="arrowDown.mouseover" end="arrowDown.mouseout"/>
                  </use>
                  <path fill="none" stroke="white" stroke-width="1.5" d="M0,-3.0v7 M-2.5,-0.5L0,-3.0L2.5,-0.5"/>
                </g>
                <g id="arrowLeft" xlink:href="#dirArrow" transform="rotate(270) translate(-36 17)" onmousedown="handlePan(-1,0)">
                  <use xlink:href="#rim" fill="#404040">
                        <set attributeName="fill" to="#808080" begin="arrowLeft.mouseover" end="arrowLeft.mouseout"/>
                  </use>
                  <path fill="none" stroke="white" stroke-width="1.5" d="M0,-3.0v7 M-2.5,-0.5L0,-3.0L2.5,-0.5"/>
                </g>
        </g>
        <svg viewBox="0 0 15 15" width="100%" height="30px" preserveAspectRatio="xMaxYMin meet">
         <g id="arrow_out" transform="scale(0.3 0.3)">
          <a xlink:href="DynamicalSystem_8h__dep__incl_org.svg" target="_base">
           <rect id="button" ry="5" rx="5" y="6" x="6" height="38" width="38"
                fill="#f2f5e9" fill-opacity="0.5" stroke="#606060" stroke-width="1.0"/>
           <path id="arrow"
             d="M 11.500037,31.436501 C 11.940474,20.09759 22.043105,11.32322 32.158766,21.979434 L 37.068811,17.246167 C 37.068811,17.246167 37.088388,32 37.088388,32 L 22.160133,31.978069 C 22.160133,31.978069 26.997745,27.140456 26.997745,27.140456 C 18.528582,18.264221 13.291696,25.230495 11.500037,31.436501 z"
             style="fill:#404040;"/>
          </a>
         </g>
        </svg>
</svg>
