<?xml version="1.0" encoding="UTF-8" standalone="no"?>
<!DOCTYPE svg PUBLIC "-//W3C//DTD SVG 1.1//EN"
 "http://www.w3.org/Graphics/SVG/1.1/DTD/svg11.dtd">
<!-- Generated by graphviz version 2.40.1 (20161225.0304)
 -->
<!-- Title: System/include/BipedalLocomotion/System/FixedStepIntegrator.h Pages: 1 -->
<!--zoomable 430 -->
<svg id="main" version="1.1" xmlns="http://www.w3.org/2000/svg" xmlns:xlink="http://www.w3.org/1999/xlink" xml:space="preserve" onload="init(evt)">
<style type="text/css"><![CDATA[
.edge:hover path { stroke: red; }
.edge:hover polygon { stroke: red; fill: red; }
]]></style>
<script type="text/javascript"><![CDATA[
var edges = document.getElementsByTagName('g');
if (edges && edges.length) {
  for (var i=0;i<edges.length;i++) {
    if (edges[i].id.substr(0,4)=='edge') {
      edges[i].setAttribute('class','edge');
    }
  }
}
]]></script>
        <defs>
                <circle id="rim" cx="0" cy="0" r="7"/>
                <circle id="rim2" cx="0" cy="0" r="3.5"/>
                <g id="zoomPlus">
                        <use xlink:href="#rim" fill="#404040">
                                <set attributeName="fill" to="#808080" begin="zoomplus.mouseover" end="zoomplus.mouseout"/>
                        </use>
                        <path d="M-4,0h8M0,-4v8" fill="none" stroke="white" stroke-width="1.5" pointer-events="none"/>
                </g>
                <g id="zoomMin">
                        <use xlink:href="#rim" fill="#404040">
                                <set attributeName="fill" to="#808080" begin="zoomminus.mouseover" end="zoomminus.mouseout"/>
                        </use>
                        <path d="M-4,0h8" fill="none" stroke="white" stroke-width="1.5" pointer-events="none"/>
                </g>
                <g id="dirArrow">
                        <path fill="none" stroke="white" stroke-width="1.5" d="M0,-3.0v7 M-2.5,-0.5L0,-3.0L2.5,-0.5"/>
                </g>
               <g id="resetDef">
                       <use xlink:href="#rim2" fill="#404040">
                               <set attributeName="fill" to="#808080" begin="reset.mouseover" end="reset.mouseout"/>
                       </use>
               </g>
        </defs>

<script type="text/javascript">
var viewWidth = 930;
var viewHeight = 430;
var sectionId = 'dynsection-0';
</script>
<script xlink:href="svgpan.js"/>
<svg id="graph" class="graph">
<g id="viewport">
<title>System/include/BipedalLocomotion/System/FixedStepIntegrator.h</title>
<!-- Node0 -->
<g id="node1" class="node">
<title>Node0</title>
<polygon fill="#bfbfbf" stroke="#000000" points="740,-391.5 740,-421.5 910,-421.5 910,-391.5 740,-391.5"/>
<text text-anchor="start" x="748" y="-409.5" font-family="Helvetica,sans-Serif" font-size="10.00" fill="#000000">System/include/BipedalLocomotion</text>
<text text-anchor="middle" x="825" y="-398.5" font-family="Helvetica,sans-Serif" font-size="10.00" fill="#000000">/System/FixedStepIntegrator.h</text>
</g>
<!-- Node1 -->
<g id="node2" class="node">
<title>Node1</title>
<polygon fill="none" stroke="#bfbfbf" points="552,-62 552,-81 604,-81 604,-62 552,-62"/>
<text text-anchor="middle" x="578" y="-69" font-family="Helvetica,sans-Serif" font-size="10.00" fill="#000000">memory</text>
</g>
<!-- Node0&#45;&gt;Node1 -->
<g id="edge1" class="edge">
<title>Node0&#45;&gt;Node1</title>
<path fill="none" stroke="#191970" d="M858.6091,-391.3569C874.0233,-382.7838 891.2247,-370.6215 902,-355 923.3642,-324.027 921,-310.1265 921,-272.5 921,-272.5 921,-272.5 921,-205.5 921,-140.1493 702.2522,-93.7173 614.137,-77.6647"/>
<polygon fill="#191970" stroke="#191970" points="614.523,-74.1782 604.0623,-75.8585 613.2876,-81.0684 614.523,-74.1782"/>
</g>
<!-- Node2 -->
<g id="node3" class="node">
<title>Node2</title>
<polygon fill="none" stroke="#bfbfbf" points="648,-196 648,-215 686,-215 686,-196 648,-196"/>
<text text-anchor="middle" x="667" y="-203" font-family="Helvetica,sans-Serif" font-size="10.00" fill="#000000">tuple</text>
</g>
<!-- Node0&#45;&gt;Node2 -->
<g id="edge2" class="edge">
<title>Node0&#45;&gt;Node2</title>
<path fill="none" stroke="#191970" d="M793.4977,-391.3083C778.0371,-382.5208 760.1695,-370.1851 748,-355 718.7858,-318.5466 733.7289,-297.24 710,-257 702.6784,-244.5838 692.3873,-232.1373 683.7085,-222.5912"/>
<polygon fill="#191970" stroke="#191970" points="686.005,-219.9234 676.6119,-215.0225 680.8985,-224.7114 686.005,-219.9234"/>
</g>
<!-- Node3 -->
<g id="node4" class="node">
<title>Node3</title>
<g id="a_node4"><a xlink:href="Integrator_8h.html" target="_top" xlink:title="BipedalLocomotion/System\l/Integrator.h">
<polygon fill="none" stroke="#000000" points="450,-324.5 450,-354.5 586,-354.5 586,-324.5 450,-324.5"/>
<text text-anchor="start" x="458" y="-342.5" font-family="Helvetica,sans-Serif" font-size="10.00" fill="#000000">BipedalLocomotion/System</text>
<text text-anchor="middle" x="518" y="-331.5" font-family="Helvetica,sans-Serif" font-size="10.00" fill="#000000">/Integrator.h</text>
</a>
</g>
</g>
<!-- Node0&#45;&gt;Node3 -->
<g id="edge3" class="edge">
<title>Node0&#45;&gt;Node3</title>
<path fill="none" stroke="#191970" d="M756.1032,-391.4639C708.6361,-381.1046 645.4725,-367.3197 596.1295,-356.5511"/>
<polygon fill="#191970" stroke="#191970" points="596.6541,-353.0832 586.1377,-354.3704 595.1615,-359.9223 596.6541,-353.0832"/>
</g>
<!-- Node19 -->
<g id="node20" class="node">
<title>Node19</title>
<g id="a_node20"><a xlink:href="FixedStepIntegrator_8tpp.html" target="_top" xlink:title="BipedalLocomotion/System\l/FixedStepIntegrator.tpp">
<polygon fill="none" stroke="#000000" points="757,-324.5 757,-354.5 893,-354.5 893,-324.5 757,-324.5"/>
<text text-anchor="start" x="765" y="-342.5" font-family="Helvetica,sans-Serif" font-size="10.00" fill="#000000">BipedalLocomotion/System</text>
<text text-anchor="middle" x="825" y="-331.5" font-family="Helvetica,sans-Serif" font-size="10.00" fill="#000000">/FixedStepIntegrator.tpp</text>
</a>
</g>
</g>
<!-- Node0&#45;&gt;Node19 -->
<g id="edge31" class="edge">
<title>Node0&#45;&gt;Node19</title>
<path fill="none" stroke="#191970" d="M819.2392,-391.2967C818.2895,-383.4156 818.0236,-373.5857 818.4416,-364.6135"/>
<polygon fill="#191970" stroke="#191970" points="821.9304,-364.8924 819.2464,-354.6432 814.9531,-364.3291 821.9304,-364.8924"/>
</g>
<!-- Node3&#45;&gt;Node1 -->
<g id="edge4" class="edge">
<title>Node3&#45;&gt;Node1</title>
<path fill="none" stroke="#191970" d="M520.2403,-324.2303C522.7586,-307.6219 527.1363,-280.3237 532,-257 544.7187,-196.0083 563.5277,-124.6898 572.6498,-91.0077"/>
<polygon fill="#191970" stroke="#191970" points="576.0981,-91.6655 575.3493,-81.0972 569.3442,-89.8258 576.0981,-91.6655"/>
</g>
<!-- Node3&#45;&gt;Node2 -->
<g id="edge5" class="edge">
<title>Node3&#45;&gt;Node2</title>
<path fill="none" stroke="#191970" d="M521.5752,-324.2507C526.5244,-306.1344 537.0703,-275.9821 556,-257 578.7077,-234.2294 613.3716,-220.3809 637.9124,-212.8648"/>
<polygon fill="#191970" stroke="#191970" points="639.1102,-216.162 647.7457,-210.0237 637.1672,-209.437 639.1102,-216.162"/>
</g>
<!-- Node4 -->
<g id="node5" class="node">
<title>Node4</title>
<g id="a_node5"><a xlink:href="TemplateHelpers_8h_source.html" target="_top" xlink:title="BipedalLocomotion/Generic\lContainer/TemplateHelpers.h">
<polygon fill="none" stroke="#000000" points="41,-56.5 41,-86.5 185,-86.5 185,-56.5 41,-56.5"/>
<text text-anchor="start" x="49" y="-74.5" font-family="Helvetica,sans-Serif" font-size="10.00" fill="#000000">BipedalLocomotion/Generic</text>
<text text-anchor="middle" x="113" y="-63.5" font-family="Helvetica,sans-Serif" font-size="10.00" fill="#000000">Container/TemplateHelpers.h</text>
</a>
</g>
</g>
<!-- Node3&#45;&gt;Node4 -->
<g id="edge6" class="edge">
<title>Node3&#45;&gt;Node4</title>
<path fill="none" stroke="#191970" d="M449.7678,-329.3611C346.2039,-312.4039 157.1961,-274.7739 118,-221 91.4755,-184.6105 98.5891,-128.9284 105.9413,-96.7839"/>
<polygon fill="#191970" stroke="#191970" points="109.3956,-97.3945 108.3955,-86.847 102.5998,-95.716 109.3956,-97.3945"/>
</g>
<!-- Node8 -->
<g id="node9" class="node">
<title>Node8</title>
<g id="a_node9"><a xlink:href="IParametersHandler_8h.html" target="_top" xlink:title="BipedalLocomotion/Parameters\lHandler/IParametersHandler.h">
<polygon fill="none" stroke="#000000" points="127,-190.5 127,-220.5 279,-220.5 279,-190.5 127,-190.5"/>
<text text-anchor="start" x="135" y="-208.5" font-family="Helvetica,sans-Serif" font-size="10.00" fill="#000000">BipedalLocomotion/Parameters</text>
<text text-anchor="middle" x="203" y="-197.5" font-family="Helvetica,sans-Serif" font-size="10.00" fill="#000000">Handler/IParametersHandler.h</text>
</a>
</g>
</g>
<!-- Node3&#45;&gt;Node8 -->
<g id="edge10" class="edge">
<title>Node3&#45;&gt;Node8</title>
<path fill="none" stroke="#191970" d="M449.9294,-326.962C412.3468,-318.642 365.4333,-305.9151 326,-288 290.1908,-271.7314 253.2604,-245.4495 229.3336,-226.9289"/>
<polygon fill="#191970" stroke="#191970" points="231.4634,-224.1513 221.4359,-220.7308 227.1417,-229.658 231.4634,-224.1513"/>
</g>
<!-- Node16 -->
<g id="node17" class="node">
<title>Node16</title>
<g id="a_node17"><a xlink:href="DynamicalSystem_8h.html" target="_top" xlink:title="BipedalLocomotion/System\l/DynamicalSystem.h">
<polygon fill="none" stroke="#000000" points="335,-257.5 335,-287.5 471,-287.5 471,-257.5 335,-257.5"/>
<text text-anchor="start" x="343" y="-275.5" font-family="Helvetica,sans-Serif" font-size="10.00" fill="#000000">BipedalLocomotion/System</text>
<text text-anchor="middle" x="403" y="-264.5" font-family="Helvetica,sans-Serif" font-size="10.00" fill="#000000">/DynamicalSystem.h</text>
</a>
</g>
</g>
<!-- Node3&#45;&gt;Node16 -->
<g id="edge22" class="edge">
<title>Node3&#45;&gt;Node16</title>
<path fill="none" stroke="#191970" d="M492.1918,-324.4639C476.1763,-315.1332 455.3906,-303.0232 437.9144,-292.8415"/>
<polygon fill="#191970" stroke="#191970" points="439.5225,-289.7276 429.12,-287.7177 435.9986,-295.776 439.5225,-289.7276"/>
</g>
<!-- Node18 -->
<g id="node19" class="node">
<title>Node18</title>
<g id="a_node19"><a xlink:href="Integrator_8tpp.html" target="_top" xlink:title="BipedalLocomotion/System\l/Integrator.tpp">
<polygon fill="none" stroke="#000000" points="565,-257.5 565,-287.5 701,-287.5 701,-257.5 565,-257.5"/>
<text text-anchor="start" x="573" y="-275.5" font-family="Helvetica,sans-Serif" font-size="10.00" fill="#000000">BipedalLocomotion/System</text>
<text text-anchor="middle" x="633" y="-264.5" font-family="Helvetica,sans-Serif" font-size="10.00" fill="#000000">/Integrator.tpp</text>
</a>
</g>
</g>
<!-- Node3&#45;&gt;Node18 -->
<g id="edge29" class="edge">
<title>Node3&#45;&gt;Node18</title>
<path fill="none" stroke="#191970" d="M538.0677,-324.4639C553.0798,-315.0475 573.9331,-302.8008 592.3236,-292.5617"/>
<polygon fill="#191970" stroke="#191970" points="594.0471,-295.6083 601.1175,-287.7177 590.6697,-289.4769 594.0471,-295.6083"/>
</g>
<!-- Node5 -->
<g id="node6" class="node">
<title>Node5</title>
<polygon fill="none" stroke="#bfbfbf" points="0,-.5 0,-19.5 62,-19.5 62,-.5 0,-.5"/>
<text text-anchor="middle" x="31" y="-7.5" font-family="Helvetica,sans-Serif" font-size="10.00" fill="#000000">type_traits</text>
</g>
<!-- Node4&#45;&gt;Node5 -->
<g id="edge7" class="edge">
<title>Node4&#45;&gt;Node5</title>
<path fill="none" stroke="#191970" d="M92.7303,-56.2977C80.3994,-47.0495 64.6734,-35.2551 52.1803,-25.8853"/>
<polygon fill="#191970" stroke="#191970" points="54.2293,-23.047 44.1292,-19.8469 50.0292,-28.647 54.2293,-23.047"/>
</g>
<!-- Node6 -->
<g id="node7" class="node">
<title>Node6</title>
<polygon fill="none" stroke="#bfbfbf" points="80,-.5 80,-19.5 146,-19.5 146,-.5 80,-.5"/>
<text text-anchor="middle" x="113" y="-7.5" font-family="Helvetica,sans-Serif" font-size="10.00" fill="#000000">string_view</text>
</g>
<!-- Node4&#45;&gt;Node6 -->
<g id="edge8" class="edge">
<title>Node4&#45;&gt;Node6</title>
<path fill="none" stroke="#191970" d="M113,-56.2977C113,-48.3834 113,-38.6043 113,-30.0759"/>
<polygon fill="#191970" stroke="#191970" points="116.5001,-29.8469 113,-19.8469 109.5001,-29.847 116.5001,-29.8469"/>
</g>
<!-- Node7 -->
<g id="node8" class="node">
<title>Node7</title>
<polygon fill="none" stroke="#bfbfbf" points="164.5,-.5 164.5,-19.5 229.5,-19.5 229.5,-.5 164.5,-.5"/>
<text text-anchor="middle" x="197" y="-7.5" font-family="Helvetica,sans-Serif" font-size="10.00" fill="#000000">Eigen/Core</text>
</g>
<!-- Node4&#45;&gt;Node7 -->
<g id="edge9" class="edge">
<title>Node4&#45;&gt;Node7</title>
<path fill="none" stroke="#191970" d="M133.7641,-56.2977C146.3958,-47.0495 162.5053,-35.2551 175.3031,-25.8853"/>
<polygon fill="#191970" stroke="#191970" points="177.5495,-28.5784 183.5505,-19.8469 173.4143,-22.9303 177.5495,-28.5784"/>
</g>
<!-- Node8&#45;&gt;Node1 -->
<g id="edge11" class="edge">
<title>Node8&#45;&gt;Node1</title>
<path fill="none" stroke="#191970" d="M279.0892,-194.115C343.5855,-183.7914 430.6112,-168.0807 463,-154 484.6063,-144.6069 486.8632,-136.7421 506,-123 522.8505,-110.8996 541.949,-97.2415 556.2399,-87.0326"/>
<polygon fill="#191970" stroke="#191970" points="558.35,-89.8266 564.4537,-81.1666 554.2818,-84.1301 558.35,-89.8266"/>
</g>
<!-- Node8&#45;&gt;Node4 -->
<g id="edge21" class="edge">
<title>Node8&#45;&gt;Node4</title>
<path fill="none" stroke="#191970" d="M216.1253,-190.203C229.3375,-172.8426 245.9196,-144.1913 232,-123 222.4951,-108.5298 207.9614,-98.1059 192.2782,-90.603"/>
<polygon fill="#191970" stroke="#191970" points="193.5048,-87.3194 182.9406,-86.5145 190.6971,-93.7316 193.5048,-87.3194"/>
</g>
<!-- Node9 -->
<g id="node10" class="node">
<title>Node9</title>
<polygon fill="none" stroke="#bfbfbf" points="182.5,-129 182.5,-148 223.5,-148 223.5,-129 182.5,-129"/>
<text text-anchor="middle" x="203" y="-136" font-family="Helvetica,sans-Serif" font-size="10.00" fill="#000000">string</text>
</g>
<!-- Node8&#45;&gt;Node9 -->
<g id="edge12" class="edge">
<title>Node8&#45;&gt;Node9</title>
<path fill="none" stroke="#191970" d="M203,-190.2967C203,-180.7699 203,-168.3954 203,-158.1306"/>
<polygon fill="#191970" stroke="#191970" points="206.5001,-158.0549 203,-148.055 199.5001,-158.055 206.5001,-158.0549"/>
</g>
<!-- Node10 -->
<g id="node11" class="node">
<title>Node10</title>
<polygon fill="none" stroke="#bfbfbf" points="120,-129 120,-148 164,-148 164,-129 120,-129"/>
<text text-anchor="middle" x="142" y="-136" font-family="Helvetica,sans-Serif" font-size="10.00" fill="#000000">vector</text>
</g>
<!-- Node8&#45;&gt;Node10 -->
<g id="edge13" class="edge">
<title>Node8&#45;&gt;Node10</title>
<path fill="none" stroke="#191970" d="M189.1582,-190.2967C179.7463,-179.9591 167.2817,-166.2684 157.5311,-155.5588"/>
<polygon fill="#191970" stroke="#191970" points="160.0196,-153.0931 150.6993,-148.055 154.8435,-157.8057 160.0196,-153.0931"/>
</g>
<!-- Node11 -->
<g id="node12" class="node">
<title>Node11</title>
<g id="a_node12"><a xlink:href="Vector_8h_source.html" target="_top" xlink:title="BipedalLocomotion/Generic\lContainer/Vector.h">
<polygon fill="none" stroke="#000000" points="318,-123.5 318,-153.5 454,-153.5 454,-123.5 318,-123.5"/>
<text text-anchor="start" x="326" y="-141.5" font-family="Helvetica,sans-Serif" font-size="10.00" fill="#000000">BipedalLocomotion/Generic</text>
<text text-anchor="middle" x="386" y="-130.5" font-family="Helvetica,sans-Serif" font-size="10.00" fill="#000000">Container/Vector.h</text>
</a>
</g>
</g>
<!-- Node8&#45;&gt;Node11 -->
<g id="edge14" class="edge">
<title>Node8&#45;&gt;Node11</title>
<path fill="none" stroke="#191970" d="M244.0688,-190.4639C271.0518,-180.5849 306.544,-167.5905 335.2857,-157.0675"/>
<polygon fill="#191970" stroke="#191970" points="336.565,-160.3264 344.7521,-153.6017 334.1583,-153.7531 336.565,-160.3264"/>
</g>
<!-- Node11&#45;&gt;Node1 -->
<g id="edge20" class="edge">
<title>Node11&#45;&gt;Node1</title>
<path fill="none" stroke="#191970" d="M436.2973,-123.4081C467.326,-113.7516 507.7891,-100.5329 543,-87 544.6206,-86.3771 546.2749,-85.72 547.9392,-85.042"/>
<polygon fill="#191970" stroke="#191970" points="549.5738,-88.1507 557.4148,-81.0255 546.8419,-81.7058 549.5738,-88.1507"/>
</g>
<!-- Node11&#45;&gt;Node4 -->
<g id="edge16" class="edge">
<title>Node11&#45;&gt;Node4</title>
<path fill="none" stroke="#191970" d="M324.7335,-123.4639C283.1675,-113.2627 228.0662,-99.7397 184.4941,-89.0462"/>
<polygon fill="#191970" stroke="#191970" points="185.0798,-85.5861 174.5337,-86.6017 183.4113,-92.3844 185.0798,-85.5861"/>
</g>
<!-- Node12 -->
<g id="node13" class="node">
<title>Node12</title>
<polygon fill="none" stroke="#bfbfbf" points="203,-62 203,-81 317,-81 317,-62 203,-62"/>
<text text-anchor="middle" x="260" y="-69" font-family="Helvetica,sans-Serif" font-size="10.00" fill="#000000">iDynTree/Core/Span.h</text>
</g>
<!-- Node11&#45;&gt;Node12 -->
<g id="edge15" class="edge">
<title>Node11&#45;&gt;Node12</title>
<path fill="none" stroke="#191970" d="M357.7231,-123.4639C336.582,-112.2222 307.8542,-96.9463 287.0216,-85.8686"/>
<polygon fill="#191970" stroke="#191970" points="288.5337,-82.7087 278.0611,-81.1039 285.2472,-88.8892 288.5337,-82.7087"/>
</g>
<!-- Node13 -->
<g id="node14" class="node">
<title>Node13</title>
<polygon fill="none" stroke="#bfbfbf" points="335.5,-62 335.5,-81 394.5,-81 394.5,-62 335.5,-62"/>
<text text-anchor="middle" x="365" y="-69" font-family="Helvetica,sans-Serif" font-size="10.00" fill="#000000">functional</text>
</g>
<!-- Node11&#45;&gt;Node13 -->
<g id="edge17" class="edge">
<title>Node11&#45;&gt;Node13</title>
<path fill="none" stroke="#191970" d="M381.2348,-123.2967C378.217,-113.6685 374.2876,-101.1318 371.0504,-90.8038"/>
<polygon fill="#191970" stroke="#191970" points="374.3256,-89.5504 367.9948,-81.055 367.646,-91.6441 374.3256,-89.5504"/>
</g>
<!-- Node14 -->
<g id="node15" class="node">
<title>Node14</title>
<polygon fill="none" stroke="#bfbfbf" points="412.5,-62 412.5,-81 461.5,-81 461.5,-62 412.5,-62"/>
<text text-anchor="middle" x="437" y="-69" font-family="Helvetica,sans-Serif" font-size="10.00" fill="#000000">cassert</text>
</g>
<!-- Node11&#45;&gt;Node14 -->
<g id="edge18" class="edge">
<title>Node11&#45;&gt;Node14</title>
<path fill="none" stroke="#191970" d="M397.5727,-123.2967C405.2873,-113.1618 415.4551,-99.804 423.5329,-89.1921"/>
<polygon fill="#191970" stroke="#191970" points="426.4549,-91.1319 429.7268,-81.055 420.8849,-86.8921 426.4549,-91.1319"/>
</g>
<!-- Node15 -->
<g id="node16" class="node">
<title>Node15</title>
<polygon fill="none" stroke="#bfbfbf" points="480,-62 480,-81 534,-81 534,-62 480,-62"/>
<text text-anchor="middle" x="507" y="-69" font-family="Helvetica,sans-Serif" font-size="10.00" fill="#000000">iostream</text>
</g>
<!-- Node11&#45;&gt;Node15 -->
<g id="edge19" class="edge">
<title>Node11&#45;&gt;Node15</title>
<path fill="none" stroke="#191970" d="M413.1548,-123.4639C433.3656,-112.2728 460.7964,-97.0838 480.7799,-86.0186"/>
<polygon fill="#191970" stroke="#191970" points="482.6027,-89.0101 489.6556,-81.1039 479.2117,-82.8862 482.6027,-89.0101"/>
</g>
<!-- Node16&#45;&gt;Node1 -->
<g id="edge23" class="edge">
<title>Node16&#45;&gt;Node1</title>
<path fill="none" stroke="#191970" d="M431.3783,-257.2922C446.8743,-248.1081 465.7501,-235.4072 480,-221 516.5819,-184.0144 515.4471,-166.4845 544,-123 551.2192,-112.0055 559.3334,-99.7124 565.8241,-89.8946"/>
<polygon fill="#191970" stroke="#191970" points="568.8695,-91.6347 571.4674,-81.3633 563.0312,-87.7727 568.8695,-91.6347"/>
</g>
<!-- Node16&#45;&gt;Node2 -->
<g id="edge24" class="edge">
<title>Node16&#45;&gt;Node2</title>
<path fill="none" stroke="#191970" d="M462.2468,-257.4639C516.9039,-243.5926 595.763,-223.5791 637.883,-212.8895"/>
<polygon fill="#191970" stroke="#191970" points="638.9311,-216.2346 647.7628,-210.3822 637.2091,-209.4497 638.9311,-216.2346"/>
</g>
<!-- Node16&#45;&gt;Node4 -->
<g id="edge25" class="edge">
<title>Node16&#45;&gt;Node4</title>
<path fill="none" stroke="#191970" d="M376.1885,-257.461C360.653,-248.0652 341.22,-235.0984 326,-221 285.3635,-183.358 293.6466,-155.7861 249,-123 229.4134,-108.6166 205.3303,-97.7689 182.9005,-89.8314"/>
<polygon fill="#191970" stroke="#191970" points="184.0013,-86.509 173.4069,-86.606 181.7495,-93.1369 184.0013,-86.509"/>
</g>
<!-- Node16&#45;&gt;Node8 -->
<g id="edge26" class="edge">
<title>Node16&#45;&gt;Node8</title>
<path fill="none" stroke="#191970" d="M358.1161,-257.4639C328.37,-247.499 289.1619,-234.3642 257.6077,-223.7936"/>
<polygon fill="#191970" stroke="#191970" points="258.6735,-220.4595 248.0797,-220.6017 256.45,-227.097 258.6735,-220.4595"/>
</g>
<!-- Node17 -->
<g id="node18" class="node">
<title>Node17</title>
<g id="a_node18"><a xlink:href="DynamicalSystem_8tpp.html" target="_top" xlink:title="BipedalLocomotion/System\l/DynamicalSystem.tpp">
<polygon fill="none" stroke="#000000" points="335,-190.5 335,-220.5 471,-220.5 471,-190.5 335,-190.5"/>
<text text-anchor="start" x="343" y="-208.5" font-family="Helvetica,sans-Serif" font-size="10.00" fill="#000000">BipedalLocomotion/System</text>
<text text-anchor="middle" x="403" y="-197.5" font-family="Helvetica,sans-Serif" font-size="10.00" fill="#000000">/DynamicalSystem.tpp</text>
</a>
</g>
</g>
<!-- Node16&#45;&gt;Node17 -->
<g id="edge27" class="edge">
<title>Node16&#45;&gt;Node17</title>
<path fill="none" stroke="#191970" d="M397.2392,-257.2967C396.2895,-249.4156 396.0236,-239.5857 396.4416,-230.6135"/>
<polygon fill="#191970" stroke="#191970" points="399.9304,-230.8924 397.2464,-220.6432 392.9531,-230.3291 399.9304,-230.8924"/>
</g>
<!-- Node17&#45;&gt;Node16 -->
<g id="edge28" class="edge">
<title>Node17&#45;&gt;Node16</title>
<path fill="none" stroke="#191970" d="M408.7536,-220.6432C409.7067,-228.5143 409.9761,-238.3414 409.5616,-247.3179"/>
<polygon fill="#191970" stroke="#191970" points="406.072,-247.0487 408.7608,-257.2967 413.0496,-247.6087 406.072,-247.0487"/>
</g>
<!-- Node18&#45;&gt;Node3 -->
<g id="edge30" class="edge">
<title>Node18&#45;&gt;Node3</title>
<path fill="none" stroke="#191970" d="M612.6426,-287.7177C597.5559,-297.1702 576.6812,-309.422 558.3226,-319.6352"/>
<polygon fill="#191970" stroke="#191970" points="556.6221,-316.576 549.5488,-324.4639 559.9972,-322.7086 556.6221,-316.576"/>
</g>
<!-- Node19&#45;&gt;Node0 -->
<g id="edge35" class="edge">
<title>Node19&#45;&gt;Node0</title>
<path fill="none" stroke="#191970" d="M830.7536,-354.6432C831.7067,-362.5143 831.9761,-372.3414 831.5616,-381.3179"/>
<polygon fill="#191970" stroke="#191970" points="828.072,-381.0487 830.7608,-391.2967 835.0496,-381.6087 828.072,-381.0487"/>
</g>
<!-- Node19&#45;&gt;Node1 -->
<g id="edge33" class="edge">
<title>Node19&#45;&gt;Node1</title>
<path fill="none" stroke="#191970" d="M835.5997,-324.487C846.2527,-307.3872 859.5637,-278.9745 848,-257 798.075,-162.1273 675.2772,-106.3933 613.9965,-83.5996"/>
<polygon fill="#191970" stroke="#191970" points="614.9512,-80.2227 604.3571,-80.098 612.5612,-86.8021 614.9512,-80.2227"/>
</g>
<!-- Node19&#45;&gt;Node2 -->
<g id="edge34" class="edge">
<title>Node19&#45;&gt;Node2</title>
<path fill="none" stroke="#191970" d="M811.5739,-324.3218C795.9505,-307.0704 768.9671,-278.5189 743,-257 726.841,-243.609 707.1988,-230.3689 691.9314,-220.667"/>
<polygon fill="#191970" stroke="#191970" points="693.3941,-217.4535 683.0609,-215.1137 689.6797,-223.3867 693.3941,-217.4535"/>
</g>
<!-- Node20 -->
<g id="node21" class="node">
<title>Node20</title>
<polygon fill="none" stroke="#bfbfbf" points="795,-263 795,-282 839,-282 839,-263 795,-263"/>
<text text-anchor="middle" x="817" y="-270" font-family="Helvetica,sans-Serif" font-size="10.00" fill="#000000">cmath</text>
</g>
<!-- Node19&#45;&gt;Node20 -->
<g id="edge32" class="edge">
<title>Node19&#45;&gt;Node20</title>
<path fill="none" stroke="#191970" d="M823.1847,-324.2967C822.0472,-314.7699 820.5696,-302.3954 819.344,-292.1306"/>
<polygon fill="#191970" stroke="#191970" points="822.8019,-291.5694 818.1409,-282.055 815.8513,-292.3994 822.8019,-291.5694"/>
</g>
</g>
</svg>
        <g id="navigator" transform="translate(0 0)" fill="#404254">
                <rect fill="#f2f5e9" fill-opacity="0.5" stroke="#606060" stroke-width=".5" x="0" y="0" width="60" height="60"/>
                <use id="zoomplus" xlink:href="#zoomPlus" x="17" y="9" onmousedown="handleZoom(evt,'in')"/>
                <use id="zoomminus" xlink:href="#zoomMin" x="42" y="9" onmousedown="handleZoom(evt,'out')"/>
                <use id="reset" xlink:href="#resetDef" x="30" y="36" onmousedown="handleReset()"/>
                <g id="arrowUp" xlink:href="#dirArrow" transform="translate(30 24)" onmousedown="handlePan(0,-1)">
                  <use xlink:href="#rim" fill="#404040">
                        <set attributeName="fill" to="#808080" begin="arrowUp.mouseover" end="arrowUp.mouseout"/>
                  </use>
                  <path fill="none" stroke="white" stroke-width="1.5" d="M0,-3.0v7 M-2.5,-0.5L0,-3.0L2.5,-0.5"/>
                </g>
                <g id="arrowRight" xlink:href="#dirArrow" transform="rotate(90) translate(36 -43)" onmousedown="handlePan(1,0)">
                  <use xlink:href="#rim" fill="#404040">
                        <set attributeName="fill" to="#808080" begin="arrowRight.mouseover" end="arrowRight.mouseout"/>
                  </use>
                  <path fill="none" stroke="white" stroke-width="1.5" d="M0,-3.0v7 M-2.5,-0.5L0,-3.0L2.5,-0.5"/>
                </g>
                <g id="arrowDown" xlink:href="#dirArrow" transform="rotate(180) translate(-30 -48)" onmousedown="handlePan(0,1)">
                  <use xlink:href="#rim" fill="#404040">
                        <set attributeName="fill" to="#808080" begin="arrowDown.mouseover" end="arrowDown.mouseout"/>
                  </use>
                  <path fill="none" stroke="white" stroke-width="1.5" d="M0,-3.0v7 M-2.5,-0.5L0,-3.0L2.5,-0.5"/>
                </g>
                <g id="arrowLeft" xlink:href="#dirArrow" transform="rotate(270) translate(-36 17)" onmousedown="handlePan(-1,0)">
                  <use xlink:href="#rim" fill="#404040">
                        <set attributeName="fill" to="#808080" begin="arrowLeft.mouseover" end="arrowLeft.mouseout"/>
                  </use>
                  <path fill="none" stroke="white" stroke-width="1.5" d="M0,-3.0v7 M-2.5,-0.5L0,-3.0L2.5,-0.5"/>
                </g>
        </g>
        <svg viewBox="0 0 15 15" width="100%" height="30px" preserveAspectRatio="xMaxYMin meet">
         <g id="arrow_out" transform="scale(0.3 0.3)">
          <a xlink:href="FixedStepIntegrator_8h__incl_org.svg" target="_base">
           <rect id="button" ry="5" rx="5" y="6" x="6" height="38" width="38"
                fill="#f2f5e9" fill-opacity="0.5" stroke="#606060" stroke-width="1.0"/>
           <path id="arrow"
             d="M 11.500037,31.436501 C 11.940474,20.09759 22.043105,11.32322 32.158766,21.979434 L 37.068811,17.246167 C 37.068811,17.246167 37.088388,32 37.088388,32 L 22.160133,31.978069 C 22.160133,31.978069 26.997745,27.140456 26.997745,27.140456 C 18.528582,18.264221 13.291696,25.230495 11.500037,31.436501 z"
             style="fill:#404040;"/>
          </a>
         </g>
        </svg>
</svg>
