<?xml version="1.0" encoding="UTF-8" standalone="no"?>
<!DOCTYPE svg PUBLIC "-//W3C//DTD SVG 1.1//EN"
 "http://www.w3.org/Graphics/SVG/1.1/DTD/svg11.dtd">
<!-- Generated by graphviz version 2.40.1 (20161225.0304)
 -->
<!-- Title: System/include/BipedalLocomotion/System/FixedStepIntegrator.tpp Pages: 1 -->
<svg width="178pt" height="240pt"
 viewBox="0.00 0.00 178.00 240.00" xmlns="http://www.w3.org/2000/svg" xmlns:xlink="http://www.w3.org/1999/xlink">
<g id="graph0" class="graph" transform="scale(1 1) rotate(0) translate(4 236)">
<title>System/include/BipedalLocomotion/System/FixedStepIntegrator.tpp</title>
<!-- Node21 -->
<g id="node1" class="node">
<title>Node21</title>
<polygon fill="#bfbfbf" stroke="#000000" points="0,-201.5 0,-231.5 170,-231.5 170,-201.5 0,-201.5"/>
<text text-anchor="start" x="8" y="-219.5" font-family="Helvetica,sans-Serif" font-size="10.00" fill="#000000">System/include/BipedalLocomotion</text>
<text text-anchor="middle" x="85" y="-208.5" font-family="Helvetica,sans-Serif" font-size="10.00" fill="#000000">/System/FixedStepIntegrator.tpp</text>
</g>
<!-- Node22 -->
<g id="node2" class="node">
<title>Node22</title>
<g id="a_node2"><a xlink:href="FixedStepIntegrator_8h.html" target="_top" xlink:title="System/include/BipedalLocomotion\l/System/FixedStepIntegrator.h">
<polygon fill="none" stroke="#000000" points="0,-134.5 0,-164.5 170,-164.5 170,-134.5 0,-134.5"/>
<text text-anchor="start" x="8" y="-152.5" font-family="Helvetica,sans-Serif" font-size="10.00" fill="#000000">System/include/BipedalLocomotion</text>
<text text-anchor="middle" x="85" y="-141.5" font-family="Helvetica,sans-Serif" font-size="10.00" fill="#000000">/System/FixedStepIntegrator.h</text>
</a>
</g>
</g>
<!-- Node21&#45;&gt;Node22 -->
<g id="edge1" class="edge">
<title>Node21&#45;&gt;Node22</title>
<path fill="none" stroke="#191970" d="M78.4384,-191.3179C78.0239,-182.3414 78.2933,-172.5143 79.2464,-164.6432"/>
<polygon fill="#191970" stroke="#191970" points="74.9504,-191.6087 79.2392,-201.2967 81.928,-191.0487 74.9504,-191.6087"/>
</g>
<!-- Node22&#45;&gt;Node21 -->
<g id="edge2" class="edge">
<title>Node22&#45;&gt;Node21</title>
<path fill="none" stroke="#191970" d="M91.5584,-174.6135C91.9764,-183.5857 91.7105,-193.4156 90.7608,-201.2967"/>
<polygon fill="#191970" stroke="#191970" points="95.0469,-174.3291 90.7536,-164.6432 88.0696,-174.8924 95.0469,-174.3291"/>
</g>
<!-- Node23 -->
<g id="node3" class="node">
<title>Node23</title>
<g id="a_node3"><a xlink:href="ForwardEuler_8h.html" target="_top" xlink:title="System/include/BipedalLocomotion\l/System/ForwardEuler.h">
<polygon fill="none" stroke="#000000" points="0,-67.5 0,-97.5 170,-97.5 170,-67.5 0,-67.5"/>
<text text-anchor="start" x="8" y="-85.5" font-family="Helvetica,sans-Serif" font-size="10.00" fill="#000000">System/include/BipedalLocomotion</text>
<text text-anchor="middle" x="85" y="-74.5" font-family="Helvetica,sans-Serif" font-size="10.00" fill="#000000">/System/ForwardEuler.h</text>
</a>
</g>
</g>
<!-- Node22&#45;&gt;Node23 -->
<g id="edge3" class="edge">
<title>Node22&#45;&gt;Node23</title>
<path fill="none" stroke="#191970" d="M85,-124.0249C85,-115.128 85,-105.4287 85,-97.6432"/>
<polygon fill="#191970" stroke="#191970" points="81.5001,-124.2966 85,-134.2967 88.5001,-124.2967 81.5001,-124.2966"/>
</g>
<!-- Node24 -->
<g id="node4" class="node">
<title>Node24</title>
<g id="a_node4"><a xlink:href="ForwardEuler_8tpp.html" target="_top" xlink:title="System/include/BipedalLocomotion\l/System/ForwardEuler.tpp">
<polygon fill="none" stroke="#000000" points="0,-.5 0,-30.5 170,-30.5 170,-.5 0,-.5"/>
<text text-anchor="start" x="8" y="-18.5" font-family="Helvetica,sans-Serif" font-size="10.00" fill="#000000">System/include/BipedalLocomotion</text>
<text text-anchor="middle" x="85" y="-7.5" font-family="Helvetica,sans-Serif" font-size="10.00" fill="#000000">/System/ForwardEuler.tpp</text>
</a>
</g>
</g>
<!-- Node23&#45;&gt;Node24 -->
<g id="edge4" class="edge">
<title>Node23&#45;&gt;Node24</title>
<path fill="none" stroke="#191970" d="M78.4384,-57.3179C78.0239,-48.3414 78.2933,-38.5143 79.2464,-30.6432"/>
<polygon fill="#191970" stroke="#191970" points="74.9504,-57.6087 79.2392,-67.2967 81.928,-57.0487 74.9504,-57.6087"/>
</g>
<!-- Node24&#45;&gt;Node23 -->
<g id="edge5" class="edge">
<title>Node24&#45;&gt;Node23</title>
<path fill="none" stroke="#191970" d="M91.5584,-40.6135C91.9764,-49.5857 91.7105,-59.4156 90.7608,-67.2967"/>
<polygon fill="#191970" stroke="#191970" points="95.0469,-40.3291 90.7536,-30.6432 88.0696,-40.8924 95.0469,-40.3291"/>
</g>
</g>
</svg>
