<?xml version="1.0" encoding="UTF-8" standalone="no"?>
<!DOCTYPE svg PUBLIC "-//W3C//DTD SVG 1.1//EN"
 "http://www.w3.org/Graphics/SVG/1.1/DTD/svg11.dtd">
<!-- Generated by graphviz version 2.40.1 (20161225.0304)
 -->
<!-- Title: System/include/BipedalLocomotion/System/FixedStepIntegrator.tpp Pages: 1 -->
<!--zoomable 497 -->
<svg id="main" version="1.1" xmlns="http://www.w3.org/2000/svg" xmlns:xlink="http://www.w3.org/1999/xlink" xml:space="preserve" onload="init(evt)">
<style type="text/css"><![CDATA[
.edge:hover path { stroke: red; }
.edge:hover polygon { stroke: red; fill: red; }
]]></style>
<script type="text/javascript"><![CDATA[
var edges = document.getElementsByTagName('g');
if (edges && edges.length) {
  for (var i=0;i<edges.length;i++) {
    if (edges[i].id.substr(0,4)=='edge') {
      edges[i].setAttribute('class','edge');
    }
  }
}
]]></script>
        <defs>
                <circle id="rim" cx="0" cy="0" r="7"/>
                <circle id="rim2" cx="0" cy="0" r="3.5"/>
                <g id="zoomPlus">
                        <use xlink:href="#rim" fill="#404040">
                                <set attributeName="fill" to="#808080" begin="zoomplus.mouseover" end="zoomplus.mouseout"/>
                        </use>
                        <path d="M-4,0h8M0,-4v8" fill="none" stroke="white" stroke-width="1.5" pointer-events="none"/>
                </g>
                <g id="zoomMin">
                        <use xlink:href="#rim" fill="#404040">
                                <set attributeName="fill" to="#808080" begin="zoomminus.mouseover" end="zoomminus.mouseout"/>
                        </use>
                        <path d="M-4,0h8" fill="none" stroke="white" stroke-width="1.5" pointer-events="none"/>
                </g>
                <g id="dirArrow">
                        <path fill="none" stroke="white" stroke-width="1.5" d="M0,-3.0v7 M-2.5,-0.5L0,-3.0L2.5,-0.5"/>
                </g>
               <g id="resetDef">
                       <use xlink:href="#rim2" fill="#404040">
                               <set attributeName="fill" to="#808080" begin="reset.mouseover" end="reset.mouseout"/>
                       </use>
               </g>
        </defs>

<script type="text/javascript">
var viewWidth = 889;
var viewHeight = 497;
var sectionId = 'dynsection-0';
</script>
<script xlink:href="svgpan.js"/>
<svg id="graph" class="graph">
<g id="viewport">
<title>System/include/BipedalLocomotion/System/FixedStepIntegrator.tpp</title>
<!-- Node0 -->
<g id="node1" class="node">
<title>Node0</title>
<polygon fill="#bfbfbf" stroke="#000000" points="662,-458.5 662,-488.5 832,-488.5 832,-458.5 662,-458.5"/>
<text text-anchor="start" x="670" y="-476.5" font-family="Helvetica,sans-Serif" font-size="10.00" fill="#000000">System/include/BipedalLocomotion</text>
<text text-anchor="middle" x="747" y="-465.5" font-family="Helvetica,sans-Serif" font-size="10.00" fill="#000000">/System/FixedStepIntegrator.tpp</text>
</g>
<!-- Node1 -->
<g id="node2" class="node">
<title>Node1</title>
<polygon fill="none" stroke="#bfbfbf" points="617,-397 617,-416 661,-416 661,-397 617,-397"/>
<text text-anchor="middle" x="639" y="-404" font-family="Helvetica,sans-Serif" font-size="10.00" fill="#000000">cmath</text>
</g>
<!-- Node0&#45;&gt;Node1 -->
<g id="edge1" class="edge">
<title>Node0&#45;&gt;Node1</title>
<path fill="none" stroke="#191970" d="M722.7627,-458.4639C704.9682,-447.4247 680.9031,-432.4954 663.1331,-421.4715"/>
<polygon fill="#191970" stroke="#191970" points="664.8237,-418.4015 654.4809,-416.1039 661.1335,-424.3498 664.8237,-418.4015"/>
</g>
<!-- Node2 -->
<g id="node3" class="node">
<title>Node2</title>
<polygon fill="none" stroke="#bfbfbf" points="553,-62 553,-81 605,-81 605,-62 553,-62"/>
<text text-anchor="middle" x="579" y="-69" font-family="Helvetica,sans-Serif" font-size="10.00" fill="#000000">memory</text>
</g>
<!-- Node0&#45;&gt;Node2 -->
<g id="edge2" class="edge">
<title>Node0&#45;&gt;Node2</title>
<path fill="none" stroke="#191970" d="M785.3303,-458.3129C803.315,-449.7294 824.0311,-437.5711 839,-422 867.5145,-392.3384 881,-380.6447 881,-339.5 881,-339.5 881,-339.5 881,-205.5 881,-147.9285 695.3123,-98.2529 615.1435,-79.4887"/>
<polygon fill="#191970" stroke="#191970" points="615.5407,-75.9885 605.0097,-77.1503 613.9667,-82.8092 615.5407,-75.9885"/>
</g>
<!-- Node3 -->
<g id="node4" class="node">
<title>Node3</title>
<polygon fill="none" stroke="#bfbfbf" points="729,-196 729,-215 767,-215 767,-196 729,-196"/>
<text text-anchor="middle" x="748" y="-203" font-family="Helvetica,sans-Serif" font-size="10.00" fill="#000000">tuple</text>
</g>
<!-- Node0&#45;&gt;Node3 -->
<g id="edge3" class="edge">
<title>Node0&#45;&gt;Node3</title>
<path fill="none" stroke="#191970" d="M783.8172,-458.4687C799.1468,-450.1524 815.3611,-438.1711 824,-422 830.4921,-409.8476 826.6619,-404.5182 824,-391 811.3254,-326.6324 776.1105,-256.4819 758.4214,-223.9635"/>
<polygon fill="#191970" stroke="#191970" points="761.4388,-222.1874 753.5386,-215.1278 755.312,-225.5732 761.4388,-222.1874"/>
</g>
<!-- Node4 -->
<g id="node5" class="node">
<title>Node4</title>
<g id="a_node5"><a xlink:href="FixedStepIntegrator_8h.html" target="_top" xlink:title="BipedalLocomotion/System\l/FixedStepIntegrator.h">
<polygon fill="none" stroke="#000000" points="679,-391.5 679,-421.5 815,-421.5 815,-391.5 679,-391.5"/>
<text text-anchor="start" x="687" y="-409.5" font-family="Helvetica,sans-Serif" font-size="10.00" fill="#000000">BipedalLocomotion/System</text>
<text text-anchor="middle" x="747" y="-398.5" font-family="Helvetica,sans-Serif" font-size="10.00" fill="#000000">/FixedStepIntegrator.h</text>
</a>
</g>
</g>
<!-- Node0&#45;&gt;Node4 -->
<g id="edge4" class="edge">
<title>Node0&#45;&gt;Node4</title>
<path fill="none" stroke="#191970" d="M741.2392,-458.2967C740.2895,-450.4156 740.0236,-440.5857 740.4416,-431.6135"/>
<polygon fill="#191970" stroke="#191970" points="743.9304,-431.8924 741.2464,-421.6432 736.9531,-431.3291 743.9304,-431.8924"/>
</g>
<!-- Node4&#45;&gt;Node0 -->
<g id="edge35" class="edge">
<title>Node4&#45;&gt;Node0</title>
<path fill="none" stroke="#191970" d="M752.7536,-421.6432C753.7067,-429.5143 753.9761,-439.3414 753.5616,-448.3179"/>
<polygon fill="#191970" stroke="#191970" points="750.072,-448.0487 752.7608,-458.2967 757.0496,-448.6087 750.072,-448.0487"/>
</g>
<!-- Node4&#45;&gt;Node2 -->
<g id="edge5" class="edge">
<title>Node4&#45;&gt;Node2</title>
<path fill="none" stroke="#191970" d="M754.9513,-391.3943C773.2547,-354.3594 813.9851,-257.1766 776,-190 741.5002,-128.9871 661.6281,-95.9186 614.869,-81.1669"/>
<polygon fill="#191970" stroke="#191970" points="615.7276,-77.7699 605.1419,-78.2118 613.6927,-84.4676 615.7276,-77.7699"/>
</g>
<!-- Node4&#45;&gt;Node3 -->
<g id="edge6" class="edge">
<title>Node4&#45;&gt;Node3</title>
<path fill="none" stroke="#191970" d="M747.0752,-391.3923C747.2533,-355.5844 747.7012,-265.5545 747.9011,-225.386"/>
<polygon fill="#191970" stroke="#191970" points="751.4016,-225.2735 747.9515,-215.2562 744.4017,-225.2386 751.4016,-225.2735"/>
</g>
<!-- Node5 -->
<g id="node6" class="node">
<title>Node5</title>
<g id="a_node6"><a xlink:href="Integrator_8h.html" target="_top" xlink:title="BipedalLocomotion/System\l/Integrator.h">
<polygon fill="none" stroke="#000000" points="517,-324.5 517,-354.5 653,-354.5 653,-324.5 517,-324.5"/>
<text text-anchor="start" x="525" y="-342.5" font-family="Helvetica,sans-Serif" font-size="10.00" fill="#000000">BipedalLocomotion/System</text>
<text text-anchor="middle" x="585" y="-331.5" font-family="Helvetica,sans-Serif" font-size="10.00" fill="#000000">/Integrator.h</text>
</a>
</g>
</g>
<!-- Node4&#45;&gt;Node5 -->
<g id="edge7" class="edge">
<title>Node4&#45;&gt;Node5</title>
<path fill="none" stroke="#191970" d="M710.644,-391.4639C687.069,-381.7137 656.1565,-368.9289 630.8932,-358.4805"/>
<polygon fill="#191970" stroke="#191970" points="632.0931,-355.1893 621.5145,-354.6017 629.4177,-361.6579 632.0931,-355.1893"/>
</g>
<!-- Node5&#45;&gt;Node2 -->
<g id="edge8" class="edge">
<title>Node5&#45;&gt;Node2</title>
<path fill="none" stroke="#191970" d="M572.2246,-324.2457C559.5794,-307.1744 543.7486,-279.0239 556,-257 570.7489,-230.4865 599.2511,-247.5135 614,-221 620.6977,-208.9598 615.9717,-203.636 614,-190 608.8058,-154.0769 595.1879,-113.8733 586.5507,-90.7407"/>
<polygon fill="#191970" stroke="#191970" points="589.7134,-89.2119 582.8751,-81.1194 583.1744,-91.71 589.7134,-89.2119"/>
</g>
<!-- Node5&#45;&gt;Node3 -->
<g id="edge9" class="edge">
<title>Node5&#45;&gt;Node3</title>
<path fill="none" stroke="#191970" d="M646.2484,-324.4711C668.4592,-316.5736 692.3908,-304.9045 710,-288 727.889,-270.8269 738.1391,-243.6219 743.385,-225.1896"/>
<polygon fill="#191970" stroke="#191970" points="746.8393,-225.813 745.9719,-215.2537 740.0652,-224.0492 746.8393,-225.813"/>
</g>
<!-- Node6 -->
<g id="node7" class="node">
<title>Node6</title>
<g id="a_node7"><a xlink:href="TemplateHelpers_8h_source.html" target="_top" xlink:title="BipedalLocomotion/Generic\lContainer/TemplateHelpers.h">
<polygon fill="none" stroke="#000000" points="41,-56.5 41,-86.5 185,-86.5 185,-56.5 41,-56.5"/>
<text text-anchor="start" x="49" y="-74.5" font-family="Helvetica,sans-Serif" font-size="10.00" fill="#000000">BipedalLocomotion/Generic</text>
<text text-anchor="middle" x="113" y="-63.5" font-family="Helvetica,sans-Serif" font-size="10.00" fill="#000000">Container/TemplateHelpers.h</text>
</a>
</g>
</g>
<!-- Node5&#45;&gt;Node6 -->
<g id="edge10" class="edge">
<title>Node5&#45;&gt;Node6</title>
<path fill="none" stroke="#191970" d="M516.7275,-332.9896C433.6244,-322.0734 292.4661,-293.5847 196,-221 164.5285,-197.3197 157.0163,-188.4904 138,-154 128.1009,-136.0457 121.6374,-113.6824 117.7671,-96.7702"/>
<polygon fill="#191970" stroke="#191970" points="121.0955,-95.5957 115.5883,-86.5447 114.2492,-97.0546 121.0955,-95.5957"/>
</g>
<!-- Node10 -->
<g id="node11" class="node">
<title>Node10</title>
<g id="a_node11"><a xlink:href="IParametersHandler_8h.html" target="_top" xlink:title="BipedalLocomotion/Parameters\lHandler/IParametersHandler.h">
<polygon fill="none" stroke="#000000" points="261,-190.5 261,-220.5 413,-220.5 413,-190.5 261,-190.5"/>
<text text-anchor="start" x="269" y="-208.5" font-family="Helvetica,sans-Serif" font-size="10.00" fill="#000000">BipedalLocomotion/Parameters</text>
<text text-anchor="middle" x="337" y="-197.5" font-family="Helvetica,sans-Serif" font-size="10.00" fill="#000000">Handler/IParametersHandler.h</text>
</a>
</g>
</g>
<!-- Node5&#45;&gt;Node10 -->
<g id="edge14" class="edge">
<title>Node5&#45;&gt;Node10</title>
<path fill="none" stroke="#191970" d="M516.976,-331.045C460.5768,-322.7318 386.1845,-308.3268 364,-288 348.0238,-273.3616 341.4765,-249.1421 338.8063,-230.7215"/>
<polygon fill="#191970" stroke="#191970" points="342.2685,-230.1925 337.6402,-220.6621 335.3151,-230.9986 342.2685,-230.1925"/>
</g>
<!-- Node18 -->
<g id="node19" class="node">
<title>Node18</title>
<g id="a_node19"><a xlink:href="DynamicalSystem_8h.html" target="_top" xlink:title="BipedalLocomotion/System\l/DynamicalSystem.h">
<polygon fill="none" stroke="#000000" points="373,-257.5 373,-287.5 509,-287.5 509,-257.5 373,-257.5"/>
<text text-anchor="start" x="381" y="-275.5" font-family="Helvetica,sans-Serif" font-size="10.00" fill="#000000">BipedalLocomotion/System</text>
<text text-anchor="middle" x="441" y="-264.5" font-family="Helvetica,sans-Serif" font-size="10.00" fill="#000000">/DynamicalSystem.h</text>
</a>
</g>
</g>
<!-- Node5&#45;&gt;Node18 -->
<g id="edge26" class="edge">
<title>Node5&#45;&gt;Node18</title>
<path fill="none" stroke="#191970" d="M552.6836,-324.4639C532.0775,-314.8763 505.1649,-302.3545 482.9217,-292.0052"/>
<polygon fill="#191970" stroke="#191970" points="484.2499,-288.763 473.7068,-287.7177 481.2969,-295.1096 484.2499,-288.763"/>
</g>
<!-- Node20 -->
<g id="node21" class="node">
<title>Node20</title>
<g id="a_node21"><a xlink:href="Integrator_8tpp.html" target="_top" xlink:title="BipedalLocomotion/System\l/Integrator.tpp">
<polygon fill="none" stroke="#000000" points="565,-257.5 565,-287.5 701,-287.5 701,-257.5 565,-257.5"/>
<text text-anchor="start" x="573" y="-275.5" font-family="Helvetica,sans-Serif" font-size="10.00" fill="#000000">BipedalLocomotion/System</text>
<text text-anchor="middle" x="633" y="-264.5" font-family="Helvetica,sans-Serif" font-size="10.00" fill="#000000">/Integrator.tpp</text>
</a>
</g>
</g>
<!-- Node5&#45;&gt;Node20 -->
<g id="edge33" class="edge">
<title>Node5&#45;&gt;Node20</title>
<path fill="none" stroke="#191970" d="M590.1311,-324.2967C595.1849,-315.816 602.6473,-305.0785 610.0128,-295.5817"/>
<polygon fill="#191970" stroke="#191970" points="612.8576,-297.6291 616.3976,-287.6432 607.4029,-293.242 612.8576,-297.6291"/>
</g>
<!-- Node7 -->
<g id="node8" class="node">
<title>Node7</title>
<polygon fill="none" stroke="#bfbfbf" points="0,-.5 0,-19.5 62,-19.5 62,-.5 0,-.5"/>
<text text-anchor="middle" x="31" y="-7.5" font-family="Helvetica,sans-Serif" font-size="10.00" fill="#000000">type_traits</text>
</g>
<!-- Node6&#45;&gt;Node7 -->
<g id="edge11" class="edge">
<title>Node6&#45;&gt;Node7</title>
<path fill="none" stroke="#191970" d="M92.7303,-56.2977C80.3994,-47.0495 64.6734,-35.2551 52.1803,-25.8853"/>
<polygon fill="#191970" stroke="#191970" points="54.2293,-23.047 44.1292,-19.8469 50.0292,-28.647 54.2293,-23.047"/>
</g>
<!-- Node8 -->
<g id="node9" class="node">
<title>Node8</title>
<polygon fill="none" stroke="#bfbfbf" points="80,-.5 80,-19.5 146,-19.5 146,-.5 80,-.5"/>
<text text-anchor="middle" x="113" y="-7.5" font-family="Helvetica,sans-Serif" font-size="10.00" fill="#000000">string_view</text>
</g>
<!-- Node6&#45;&gt;Node8 -->
<g id="edge12" class="edge">
<title>Node6&#45;&gt;Node8</title>
<path fill="none" stroke="#191970" d="M113,-56.2977C113,-48.3834 113,-38.6043 113,-30.0759"/>
<polygon fill="#191970" stroke="#191970" points="116.5001,-29.8469 113,-19.8469 109.5001,-29.847 116.5001,-29.8469"/>
</g>
<!-- Node9 -->
<g id="node10" class="node">
<title>Node9</title>
<polygon fill="none" stroke="#bfbfbf" points="164.5,-.5 164.5,-19.5 229.5,-19.5 229.5,-.5 164.5,-.5"/>
<text text-anchor="middle" x="197" y="-7.5" font-family="Helvetica,sans-Serif" font-size="10.00" fill="#000000">Eigen/Core</text>
</g>
<!-- Node6&#45;&gt;Node9 -->
<g id="edge13" class="edge">
<title>Node6&#45;&gt;Node9</title>
<path fill="none" stroke="#191970" d="M133.7641,-56.2977C146.3958,-47.0495 162.5053,-35.2551 175.3031,-25.8853"/>
<polygon fill="#191970" stroke="#191970" points="177.5495,-28.5784 183.5505,-19.8469 173.4143,-22.9303 177.5495,-28.5784"/>
</g>
<!-- Node10&#45;&gt;Node2 -->
<g id="edge15" class="edge">
<title>Node10&#45;&gt;Node2</title>
<path fill="none" stroke="#191970" d="M394.9587,-190.4764C422.6643,-181.9625 455.664,-169.8158 483,-154 499.6749,-144.3524 538.5385,-109.2226 561.3765,-88.0402"/>
<polygon fill="#191970" stroke="#191970" points="563.7935,-90.5719 568.7235,-81.194 559.0214,-85.4507 563.7935,-90.5719"/>
</g>
<!-- Node10&#45;&gt;Node6 -->
<g id="edge25" class="edge">
<title>Node10&#45;&gt;Node6</title>
<path fill="none" stroke="#191970" d="M287.581,-190.4228C262.474,-181.6655 232.061,-169.3223 207,-154 179.4437,-137.1521 152.1741,-112.0292 134.1618,-93.9361"/>
<polygon fill="#191970" stroke="#191970" points="136.5319,-91.354 127.0351,-86.657 131.53,-96.2511 136.5319,-91.354"/>
</g>
<!-- Node11 -->
<g id="node12" class="node">
<title>Node11</title>
<polygon fill="none" stroke="#bfbfbf" points="370.5,-129 370.5,-148 411.5,-148 411.5,-129 370.5,-129"/>
<text text-anchor="middle" x="391" y="-136" font-family="Helvetica,sans-Serif" font-size="10.00" fill="#000000">string</text>
</g>
<!-- Node10&#45;&gt;Node11 -->
<g id="edge16" class="edge">
<title>Node10&#45;&gt;Node11</title>
<path fill="none" stroke="#191970" d="M349.2534,-190.2967C357.5035,-180.0605 368.4034,-166.5366 376.9966,-155.8746"/>
<polygon fill="#191970" stroke="#191970" points="379.7488,-158.0373 383.299,-148.055 374.2986,-153.6446 379.7488,-158.0373"/>
</g>
<!-- Node12 -->
<g id="node13" class="node">
<title>Node12</title>
<polygon fill="none" stroke="#bfbfbf" points="430,-129 430,-148 474,-148 474,-129 430,-129"/>
<text text-anchor="middle" x="452" y="-136" font-family="Helvetica,sans-Serif" font-size="10.00" fill="#000000">vector</text>
</g>
<!-- Node10&#45;&gt;Node12 -->
<g id="edge17" class="edge">
<title>Node10&#45;&gt;Node12</title>
<path fill="none" stroke="#191970" d="M362.8082,-190.4639C381.9299,-179.3234 407.8517,-164.2212 426.8218,-153.1691"/>
<polygon fill="#191970" stroke="#191970" points="428.6371,-156.1622 435.5157,-148.1039 425.1132,-150.1138 428.6371,-156.1622"/>
</g>
<!-- Node13 -->
<g id="node14" class="node">
<title>Node13</title>
<g id="a_node14"><a xlink:href="Vector_8h_source.html" target="_top" xlink:title="BipedalLocomotion/Generic\lContainer/Vector.h">
<polygon fill="none" stroke="#000000" points="216,-123.5 216,-153.5 352,-153.5 352,-123.5 216,-123.5"/>
<text text-anchor="start" x="224" y="-141.5" font-family="Helvetica,sans-Serif" font-size="10.00" fill="#000000">BipedalLocomotion/Generic</text>
<text text-anchor="middle" x="284" y="-130.5" font-family="Helvetica,sans-Serif" font-size="10.00" fill="#000000">Container/Vector.h</text>
</a>
</g>
</g>
<!-- Node10&#45;&gt;Node13 -->
<g id="edge18" class="edge">
<title>Node10&#45;&gt;Node13</title>
<path fill="none" stroke="#191970" d="M324.9735,-190.2967C318.2649,-181.816 309.7711,-171.0785 302.2586,-161.5817"/>
<polygon fill="#191970" stroke="#191970" points="304.928,-159.3146 295.9789,-153.6432 299.438,-163.6574 304.928,-159.3146"/>
</g>
<!-- Node13&#45;&gt;Node2 -->
<g id="edge24" class="edge">
<title>Node13&#45;&gt;Node2</title>
<path fill="none" stroke="#191970" d="M352.2891,-124.9323C428.9265,-109.7045 542.7097,-87.0903 543,-87 545.1118,-86.3434 547.2676,-85.6038 549.4223,-84.8127"/>
<polygon fill="#191970" stroke="#191970" points="550.7228,-88.0622 558.7207,-81.1134 548.1352,-81.558 550.7228,-88.0622"/>
</g>
<!-- Node13&#45;&gt;Node6 -->
<g id="edge20" class="edge">
<title>Node13&#45;&gt;Node6</title>
<path fill="none" stroke="#191970" d="M245.6243,-123.4639C220.6299,-113.6708 187.822,-100.8162 161.0908,-90.3426"/>
<polygon fill="#191970" stroke="#191970" points="162.1308,-86.9911 151.5431,-86.6017 159.5771,-93.5086 162.1308,-86.9911"/>
</g>
<!-- Node14 -->
<g id="node15" class="node">
<title>Node14</title>
<polygon fill="none" stroke="#bfbfbf" points="420,-62 420,-81 534,-81 534,-62 420,-62"/>
<text text-anchor="middle" x="477" y="-69" font-family="Helvetica,sans-Serif" font-size="10.00" fill="#000000">iDynTree/Core/Span.h</text>
</g>
<!-- Node13&#45;&gt;Node14 -->
<g id="edge19" class="edge">
<title>Node13&#45;&gt;Node14</title>
<path fill="none" stroke="#191970" d="M327.313,-123.4639C361.2553,-111.6808 407.9645,-95.4657 440.1329,-84.2984"/>
<polygon fill="#191970" stroke="#191970" points="441.32,-87.5913 449.6191,-81.0053 439.0243,-80.9784 441.32,-87.5913"/>
</g>
<!-- Node15 -->
<g id="node16" class="node">
<title>Node15</title>
<polygon fill="none" stroke="#bfbfbf" points="203.5,-62 203.5,-81 262.5,-81 262.5,-62 203.5,-62"/>
<text text-anchor="middle" x="233" y="-69" font-family="Helvetica,sans-Serif" font-size="10.00" fill="#000000">functional</text>
</g>
<!-- Node13&#45;&gt;Node15 -->
<g id="edge21" class="edge">
<title>Node13&#45;&gt;Node15</title>
<path fill="none" stroke="#191970" d="M272.4273,-123.2967C264.7127,-113.1618 254.5449,-99.804 246.4671,-89.1921"/>
<polygon fill="#191970" stroke="#191970" points="249.1151,-86.8921 240.2732,-81.055 243.5451,-91.1319 249.1151,-86.8921"/>
</g>
<!-- Node16 -->
<g id="node17" class="node">
<title>Node16</title>
<polygon fill="none" stroke="#bfbfbf" points="280.5,-62 280.5,-81 329.5,-81 329.5,-62 280.5,-62"/>
<text text-anchor="middle" x="305" y="-69" font-family="Helvetica,sans-Serif" font-size="10.00" fill="#000000">cassert</text>
</g>
<!-- Node13&#45;&gt;Node16 -->
<g id="edge22" class="edge">
<title>Node13&#45;&gt;Node16</title>
<path fill="none" stroke="#191970" d="M288.7652,-123.2967C291.783,-113.6685 295.7124,-101.1318 298.9496,-90.8038"/>
<polygon fill="#191970" stroke="#191970" points="302.354,-91.6441 302.0052,-81.055 295.6744,-89.5504 302.354,-91.6441"/>
</g>
<!-- Node17 -->
<g id="node18" class="node">
<title>Node17</title>
<polygon fill="none" stroke="#bfbfbf" points="348,-62 348,-81 402,-81 402,-62 348,-62"/>
<text text-anchor="middle" x="375" y="-69" font-family="Helvetica,sans-Serif" font-size="10.00" fill="#000000">iostream</text>
</g>
<!-- Node13&#45;&gt;Node17 -->
<g id="edge23" class="edge">
<title>Node13&#45;&gt;Node17</title>
<path fill="none" stroke="#191970" d="M304.6493,-123.2967C319.3781,-112.4524 339.1186,-97.9182 353.9396,-87.006"/>
<polygon fill="#191970" stroke="#191970" points="356.0447,-89.8025 362.0224,-81.055 351.8944,-84.1655 356.0447,-89.8025"/>
</g>
<!-- Node18&#45;&gt;Node2 -->
<g id="edge27" class="edge">
<title>Node18&#45;&gt;Node2</title>
<path fill="none" stroke="#191970" d="M441.1408,-257.4313C442.0078,-239.764 445.7112,-210.3181 460,-190 477.0205,-165.7975 494.2498,-174.0595 516,-154 537.014,-134.6195 556.1745,-107.5814 567.7103,-89.8164"/>
<polygon fill="#191970" stroke="#191970" points="570.8965,-91.3275 573.298,-81.0084 564.9856,-87.5777 570.8965,-91.3275"/>
</g>
<!-- Node18&#45;&gt;Node3 -->
<g id="edge28" class="edge">
<title>Node18&#45;&gt;Node3</title>
<path fill="none" stroke="#191970" d="M509.1333,-257.6305C574.8249,-243.2939 671.1018,-222.2823 718.8799,-211.8552"/>
<polygon fill="#191970" stroke="#191970" points="719.8301,-215.2303 728.8538,-209.6785 718.3375,-208.3913 719.8301,-215.2303"/>
</g>
<!-- Node18&#45;&gt;Node6 -->
<g id="edge29" class="edge">
<title>Node18&#45;&gt;Node6</title>
<path fill="none" stroke="#191970" d="M372.6813,-260.5249C335.7097,-252.4286 289.9701,-239.7358 252,-221 207.9176,-199.2482 197.0321,-190.4043 164,-154 147.9607,-136.3233 134.0473,-112.928 124.8231,-95.5666"/>
<polygon fill="#191970" stroke="#191970" points="127.8981,-93.8933 120.1973,-86.6168 121.6797,-97.1075 127.8981,-93.8933"/>
</g>
<!-- Node18&#45;&gt;Node10 -->
<g id="edge30" class="edge">
<title>Node18&#45;&gt;Node10</title>
<path fill="none" stroke="#191970" d="M417.6604,-257.4639C403.4426,-248.3044 385.0677,-236.4667 369.4478,-226.4038"/>
<polygon fill="#191970" stroke="#191970" points="370.9236,-223.1912 360.6216,-220.7177 367.1326,-229.0758 370.9236,-223.1912"/>
</g>
<!-- Node19 -->
<g id="node20" class="node">
<title>Node19</title>
<g id="a_node20"><a xlink:href="DynamicalSystem_8tpp.html" target="_top" xlink:title="BipedalLocomotion/System\l/DynamicalSystem.tpp">
<polygon fill="none" stroke="#000000" points="469,-190.5 469,-220.5 605,-220.5 605,-190.5 469,-190.5"/>
<text text-anchor="start" x="477" y="-208.5" font-family="Helvetica,sans-Serif" font-size="10.00" fill="#000000">BipedalLocomotion/System</text>
<text text-anchor="middle" x="537" y="-197.5" font-family="Helvetica,sans-Serif" font-size="10.00" fill="#000000">/DynamicalSystem.tpp</text>
</a>
</g>
</g>
<!-- Node18&#45;&gt;Node19 -->
<g id="edge31" class="edge">
<title>Node18&#45;&gt;Node19</title>
<path fill="none" stroke="#191970" d="M457.0231,-257.2967C469.0519,-248.1306 485.783,-236.3285 500.8897,-226.3055"/>
<polygon fill="#191970" stroke="#191970" points="503.0949,-229.0455 509.5488,-220.6432 499.2638,-223.1869 503.0949,-229.0455"/>
</g>
<!-- Node19&#45;&gt;Node18 -->
<g id="edge32" class="edge">
<title>Node19&#45;&gt;Node18</title>
<path fill="none" stroke="#191970" d="M520.958,-220.7177C508.8903,-229.9124 492.097,-241.7558 476.9586,-251.7951"/>
<polygon fill="#191970" stroke="#191970" points="474.7408,-249.0633 468.2848,-257.4639 478.5704,-254.9229 474.7408,-249.0633"/>
</g>
<!-- Node20&#45;&gt;Node5 -->
<g id="edge34" class="edge">
<title>Node20&#45;&gt;Node5</title>
<path fill="none" stroke="#191970" d="M627.9047,-287.6432C622.8624,-296.1132 615.4055,-306.8482 608.0395,-316.3509"/>
<polygon fill="#191970" stroke="#191970" points="605.1898,-314.3096 601.6528,-324.2967 610.6457,-318.6951 605.1898,-314.3096"/>
</g>
</g>
</svg>
        <g id="navigator" transform="translate(0 0)" fill="#404254">
                <rect fill="#f2f5e9" fill-opacity="0.5" stroke="#606060" stroke-width=".5" x="0" y="0" width="60" height="60"/>
                <use id="zoomplus" xlink:href="#zoomPlus" x="17" y="9" onmousedown="handleZoom(evt,'in')"/>
                <use id="zoomminus" xlink:href="#zoomMin" x="42" y="9" onmousedown="handleZoom(evt,'out')"/>
                <use id="reset" xlink:href="#resetDef" x="30" y="36" onmousedown="handleReset()"/>
                <g id="arrowUp" xlink:href="#dirArrow" transform="translate(30 24)" onmousedown="handlePan(0,-1)">
                  <use xlink:href="#rim" fill="#404040">
                        <set attributeName="fill" to="#808080" begin="arrowUp.mouseover" end="arrowUp.mouseout"/>
                  </use>
                  <path fill="none" stroke="white" stroke-width="1.5" d="M0,-3.0v7 M-2.5,-0.5L0,-3.0L2.5,-0.5"/>
                </g>
                <g id="arrowRight" xlink:href="#dirArrow" transform="rotate(90) translate(36 -43)" onmousedown="handlePan(1,0)">
                  <use xlink:href="#rim" fill="#404040">
                        <set attributeName="fill" to="#808080" begin="arrowRight.mouseover" end="arrowRight.mouseout"/>
                  </use>
                  <path fill="none" stroke="white" stroke-width="1.5" d="M0,-3.0v7 M-2.5,-0.5L0,-3.0L2.5,-0.5"/>
                </g>
                <g id="arrowDown" xlink:href="#dirArrow" transform="rotate(180) translate(-30 -48)" onmousedown="handlePan(0,1)">
                  <use xlink:href="#rim" fill="#404040">
                        <set attributeName="fill" to="#808080" begin="arrowDown.mouseover" end="arrowDown.mouseout"/>
                  </use>
                  <path fill="none" stroke="white" stroke-width="1.5" d="M0,-3.0v7 M-2.5,-0.5L0,-3.0L2.5,-0.5"/>
                </g>
                <g id="arrowLeft" xlink:href="#dirArrow" transform="rotate(270) translate(-36 17)" onmousedown="handlePan(-1,0)">
                  <use xlink:href="#rim" fill="#404040">
                        <set attributeName="fill" to="#808080" begin="arrowLeft.mouseover" end="arrowLeft.mouseout"/>
                  </use>
                  <path fill="none" stroke="white" stroke-width="1.5" d="M0,-3.0v7 M-2.5,-0.5L0,-3.0L2.5,-0.5"/>
                </g>
        </g>
        <svg viewBox="0 0 15 15" width="100%" height="30px" preserveAspectRatio="xMaxYMin meet">
         <g id="arrow_out" transform="scale(0.3 0.3)">
          <a xlink:href="FixedStepIntegrator_8tpp__incl_org.svg" target="_base">
           <rect id="button" ry="5" rx="5" y="6" x="6" height="38" width="38"
                fill="#f2f5e9" fill-opacity="0.5" stroke="#606060" stroke-width="1.0"/>
           <path id="arrow"
             d="M 11.500037,31.436501 C 11.940474,20.09759 22.043105,11.32322 32.158766,21.979434 L 37.068811,17.246167 C 37.068811,17.246167 37.088388,32 37.088388,32 L 22.160133,31.978069 C 22.160133,31.978069 26.997745,27.140456 26.997745,27.140456 C 18.528582,18.264221 13.291696,25.230495 11.500037,31.436501 z"
             style="fill:#404040;"/>
          </a>
         </g>
        </svg>
</svg>
