<?xml version="1.0" encoding="UTF-8" standalone="no"?>
<!DOCTYPE svg PUBLIC "-//W3C//DTD SVG 1.1//EN"
 "http://www.w3.org/Graphics/SVG/1.1/DTD/svg11.dtd">
<!-- Generated by graphviz version 2.40.1 (20161225.0304)
 -->
<!-- Title: System/include/BipedalLocomotion/System/FixedStepIntegrator.h Pages: 1 -->
<svg width="366pt" height="173pt"
 viewBox="0.00 0.00 366.00 173.00" xmlns="http://www.w3.org/2000/svg" xmlns:xlink="http://www.w3.org/1999/xlink">
<g id="graph0" class="graph" transform="scale(1 1) rotate(0) translate(4 169)">
<title>System/include/BipedalLocomotion/System/FixedStepIntegrator.h</title>
<!-- Node21 -->
<g id="node1" class="node">
<title>Node21</title>
<polygon fill="#bfbfbf" stroke="#000000" points="0,-134.5 0,-164.5 170,-164.5 170,-134.5 0,-134.5"/>
<text text-anchor="start" x="8" y="-152.5" font-family="Helvetica,sans-Serif" font-size="10.00" fill="#000000">System/include/BipedalLocomotion</text>
<text text-anchor="middle" x="85" y="-141.5" font-family="Helvetica,sans-Serif" font-size="10.00" fill="#000000">/System/FixedStepIntegrator.h</text>
</g>
<!-- Node22 -->
<g id="node2" class="node">
<title>Node22</title>
<g id="a_node2"><a xlink:href="FixedStepIntegrator_8tpp.html" target="_top" xlink:title="System/include/BipedalLocomotion\l/System/FixedStepIntegrator.tpp">
<polygon fill="none" stroke="#000000" points="0,-67.5 0,-97.5 170,-97.5 170,-67.5 0,-67.5"/>
<text text-anchor="start" x="8" y="-85.5" font-family="Helvetica,sans-Serif" font-size="10.00" fill="#000000">System/include/BipedalLocomotion</text>
<text text-anchor="middle" x="85" y="-74.5" font-family="Helvetica,sans-Serif" font-size="10.00" fill="#000000">/System/FixedStepIntegrator.tpp</text>
</a>
</g>
</g>
<!-- Node21&#45;&gt;Node22 -->
<g id="edge1" class="edge">
<title>Node21&#45;&gt;Node22</title>
<path fill="none" stroke="#191970" d="M78.4384,-124.3179C78.0239,-115.3414 78.2933,-105.5143 79.2464,-97.6432"/>
<polygon fill="#191970" stroke="#191970" points="74.9504,-124.6087 79.2392,-134.2967 81.928,-124.0487 74.9504,-124.6087"/>
</g>
<!-- Node23 -->
<g id="node3" class="node">
<title>Node23</title>
<g id="a_node3"><a xlink:href="ForwardEuler_8h.html" target="_top" xlink:title="System/include/BipedalLocomotion\l/System/ForwardEuler.h">
<polygon fill="none" stroke="#000000" points="188,-67.5 188,-97.5 358,-97.5 358,-67.5 188,-67.5"/>
<text text-anchor="start" x="196" y="-85.5" font-family="Helvetica,sans-Serif" font-size="10.00" fill="#000000">System/include/BipedalLocomotion</text>
<text text-anchor="middle" x="273" y="-74.5" font-family="Helvetica,sans-Serif" font-size="10.00" fill="#000000">/System/ForwardEuler.h</text>
</a>
</g>
</g>
<!-- Node21&#45;&gt;Node23 -->
<g id="edge3" class="edge">
<title>Node21&#45;&gt;Node23</title>
<path fill="none" stroke="#191970" d="M136.9041,-131.0023C166.4004,-120.4903 202.8663,-107.4945 230.6251,-97.6017"/>
<polygon fill="#191970" stroke="#191970" points="135.4356,-127.8099 127.1909,-134.4639 137.7855,-134.4037 135.4356,-127.8099"/>
</g>
<!-- Node22&#45;&gt;Node21 -->
<g id="edge2" class="edge">
<title>Node22&#45;&gt;Node21</title>
<path fill="none" stroke="#191970" d="M91.5584,-107.6135C91.9764,-116.5857 91.7105,-126.4156 90.7608,-134.2967"/>
<polygon fill="#191970" stroke="#191970" points="95.0469,-107.3291 90.7536,-97.6432 88.0696,-107.8924 95.0469,-107.3291"/>
</g>
<!-- Node24 -->
<g id="node4" class="node">
<title>Node24</title>
<g id="a_node4"><a xlink:href="ForwardEuler_8tpp.html" target="_top" xlink:title="System/include/BipedalLocomotion\l/System/ForwardEuler.tpp">
<polygon fill="none" stroke="#000000" points="188,-.5 188,-30.5 358,-30.5 358,-.5 188,-.5"/>
<text text-anchor="start" x="196" y="-18.5" font-family="Helvetica,sans-Serif" font-size="10.00" fill="#000000">System/include/BipedalLocomotion</text>
<text text-anchor="middle" x="273" y="-7.5" font-family="Helvetica,sans-Serif" font-size="10.00" fill="#000000">/System/ForwardEuler.tpp</text>
</a>
</g>
</g>
<!-- Node23&#45;&gt;Node24 -->
<g id="edge4" class="edge">
<title>Node23&#45;&gt;Node24</title>
<path fill="none" stroke="#191970" d="M266.4384,-57.3179C266.0239,-48.3414 266.2933,-38.5143 267.2464,-30.6432"/>
<polygon fill="#191970" stroke="#191970" points="262.9504,-57.6087 267.2392,-67.2967 269.928,-57.0487 262.9504,-57.6087"/>
</g>
<!-- Node24&#45;&gt;Node23 -->
<g id="edge5" class="edge">
<title>Node24&#45;&gt;Node23</title>
<path fill="none" stroke="#191970" d="M279.5584,-40.6135C279.9764,-49.5857 279.7105,-59.4156 278.7608,-67.2967"/>
<polygon fill="#191970" stroke="#191970" points="283.0469,-40.3291 278.7536,-30.6432 276.0696,-40.8924 283.0469,-40.3291"/>
</g>
</g>
</svg>
