<?xml version="1.0" encoding="UTF-8" standalone="no"?>
<!DOCTYPE svg PUBLIC "-//W3C//DTD SVG 1.1//EN"
 "http://www.w3.org/Graphics/SVG/1.1/DTD/svg11.dtd">
<!-- Generated by graphviz version 2.40.1 (20161225.0304)
 -->
<!-- Title: Estimators/include/BipedalLocomotion/FloatingBaseEstimators/FloatingBaseEstimator.h Pages: 1 -->
<svg width="1161pt" height="318pt"
 viewBox="0.00 0.00 1160.50 318.00" xmlns="http://www.w3.org/2000/svg" xmlns:xlink="http://www.w3.org/1999/xlink">
<g id="graph0" class="graph" transform="scale(1 1) rotate(0) translate(4 314)">
<title>Estimators/include/BipedalLocomotion/FloatingBaseEstimators/FloatingBaseEstimator.h</title>
<!-- Node0 -->
<g id="node1" class="node">
<title>Node0</title>
<polygon fill="#bfbfbf" stroke="#000000" points="433.5,-268.5 433.5,-309.5 630.5,-309.5 630.5,-268.5 433.5,-268.5"/>
<text text-anchor="start" x="441.5" y="-297.5" font-family="Helvetica,sans-Serif" font-size="10.00" fill="#000000">Estimators/include</text>
<text text-anchor="start" x="441.5" y="-286.5" font-family="Helvetica,sans-Serif" font-size="10.00" fill="#000000">/BipedalLocomotion/Floating</text>
<text text-anchor="middle" x="532" y="-275.5" font-family="Helvetica,sans-Serif" font-size="10.00" fill="#000000">BaseEstimators/FloatingBaseEstimator.h</text>
</g>
<!-- Node1 -->
<g id="node2" class="node">
<title>Node1</title>
<g id="a_node2"><a xlink:href="Advanceable_8h.html" target="_top" xlink:title="BipedalLocomotion/System\l/Advanceable.h">
<polygon fill="none" stroke="#000000" points="0,-196 0,-226 136,-226 136,-196 0,-196"/>
<text text-anchor="start" x="8" y="-214" font-family="Helvetica,sans-Serif" font-size="10.00" fill="#000000">BipedalLocomotion/System</text>
<text text-anchor="middle" x="68" y="-203" font-family="Helvetica,sans-Serif" font-size="10.00" fill="#000000">/Advanceable.h</text>
</a>
</g>
</g>
<!-- Node0&#45;&gt;Node1 -->
<g id="edge1" class="edge">
<title>Node0&#45;&gt;Node1</title>
<path fill="none" stroke="#191970" d="M433.3772,-277.1109C355.9537,-267.0974 245.6297,-251.3269 150,-232 144.5984,-230.9083 139.0197,-229.6859 133.4318,-228.3944"/>
<polygon fill="#191970" stroke="#191970" points="133.9384,-224.9173 123.3999,-226.0084 132.3187,-231.7273 133.9384,-224.9173"/>
</g>
<!-- Node2 -->
<g id="node3" class="node">
<title>Node2</title>
<g id="a_node3"><a xlink:href="IParametersHandler_8h.html" target="_top" xlink:title="BipedalLocomotion/Parameters\lHandler/IParametersHandler.h">
<polygon fill="none" stroke="#000000" points="274,-196 274,-226 426,-226 426,-196 274,-196"/>
<text text-anchor="start" x="282" y="-214" font-family="Helvetica,sans-Serif" font-size="10.00" fill="#000000">BipedalLocomotion/Parameters</text>
<text text-anchor="middle" x="350" y="-203" font-family="Helvetica,sans-Serif" font-size="10.00" fill="#000000">Handler/IParametersHandler.h</text>
</a>
</g>
</g>
<!-- Node0&#45;&gt;Node2 -->
<g id="edge2" class="edge">
<title>Node0&#45;&gt;Node2</title>
<path fill="none" stroke="#191970" d="M483.7052,-268.3022C456.0096,-256.4327 421.4889,-241.6381 394.4619,-230.0551"/>
<polygon fill="#191970" stroke="#191970" points="395.8083,-226.8243 385.2381,-226.102 393.0508,-233.2583 395.8083,-226.8243"/>
</g>
<!-- Node3 -->
<g id="node4" class="node">
<title>Node3</title>
<polygon fill="none" stroke="#bfbfbf" points="109,-62 109,-81 161,-81 161,-62 109,-62"/>
<text text-anchor="middle" x="135" y="-69" font-family="Helvetica,sans-Serif" font-size="10.00" fill="#000000">memory</text>
</g>
<!-- Node0&#45;&gt;Node3 -->
<g id="edge28" class="edge">
<title>Node0&#45;&gt;Node3</title>
<path fill="none" stroke="#191970" d="M433.2687,-280.5715C380.9872,-273.0538 317.0193,-258.8444 265,-232 219.4361,-208.4869 211.5914,-194.3847 180,-154 164.433,-134.1 151.2328,-108.0868 143.2324,-90.6383"/>
<polygon fill="#191970" stroke="#191970" points="146.212,-88.7251 138.9483,-81.0122 139.8167,-91.5714 146.212,-88.7251"/>
</g>
<!-- Node14 -->
<g id="node15" class="node">
<title>Node14</title>
<polygon fill="none" stroke="#bfbfbf" points="618,-62 618,-81 672,-81 672,-62 618,-62"/>
<text text-anchor="middle" x="645" y="-69" font-family="Helvetica,sans-Serif" font-size="10.00" fill="#000000">iostream</text>
</g>
<!-- Node0&#45;&gt;Node14 -->
<g id="edge27" class="edge">
<title>Node0&#45;&gt;Node14</title>
<path fill="none" stroke="#191970" d="M533.0859,-268.4131C534.8211,-247.7605 539.324,-215.4514 551,-190 569.8213,-148.9733 605.7467,-109.6164 627.3218,-88.1835"/>
<polygon fill="#191970" stroke="#191970" points="629.843,-90.6136 634.5629,-81.1282 624.958,-85.5999 629.843,-90.6136"/>
</g>
<!-- Node15 -->
<g id="node16" class="node">
<title>Node15</title>
<g id="a_node16"><a xlink:href="FloatingBaseEstimatorParams_8h.html" target="_top" xlink:title="BipedalLocomotion/Floating\lBaseEstimators/FloatingBaseEstimator\lParams.h">
<polygon fill="none" stroke="#000000" points="560,-190.5 560,-231.5 748,-231.5 748,-190.5 560,-190.5"/>
<text text-anchor="start" x="568" y="-219.5" font-family="Helvetica,sans-Serif" font-size="10.00" fill="#000000">BipedalLocomotion/Floating</text>
<text text-anchor="start" x="568" y="-208.5" font-family="Helvetica,sans-Serif" font-size="10.00" fill="#000000">BaseEstimators/FloatingBaseEstimator</text>
<text text-anchor="middle" x="654" y="-197.5" font-family="Helvetica,sans-Serif" font-size="10.00" fill="#000000">Params.h</text>
</a>
</g>
</g>
<!-- Node0&#45;&gt;Node15 -->
<g id="edge17" class="edge">
<title>Node0&#45;&gt;Node15</title>
<path fill="none" stroke="#191970" d="M564.3735,-268.3022C579.3831,-258.7059 597.3832,-247.1976 613.3015,-237.0204"/>
<polygon fill="#191970" stroke="#191970" points="615.3587,-239.8594 621.8986,-231.5239 611.588,-233.9617 615.3587,-239.8594"/>
</g>
<!-- Node17 -->
<g id="node18" class="node">
<title>Node17</title>
<g id="a_node18"><a xlink:href="FloatingBaseEstimatorIO_8h.html" target="_top" xlink:title="BipedalLocomotion/Floating\lBaseEstimators/FloatingBaseEstimatorIO.h">
<polygon fill="none" stroke="#000000" points="766.5,-196 766.5,-226 973.5,-226 973.5,-196 766.5,-196"/>
<text text-anchor="start" x="774.5" y="-214" font-family="Helvetica,sans-Serif" font-size="10.00" fill="#000000">BipedalLocomotion/Floating</text>
<text text-anchor="middle" x="870" y="-203" font-family="Helvetica,sans-Serif" font-size="10.00" fill="#000000">BaseEstimators/FloatingBaseEstimatorIO.h</text>
</a>
</g>
</g>
<!-- Node0&#45;&gt;Node17 -->
<g id="edge19" class="edge">
<title>Node0&#45;&gt;Node17</title>
<path fill="none" stroke="#191970" d="M621.2476,-268.4044C675.3391,-255.9217 743.5739,-240.1753 794.8901,-228.3331"/>
<polygon fill="#191970" stroke="#191970" points="795.9617,-231.6778 804.9185,-226.0188 794.3876,-224.8571 795.9617,-231.6778"/>
</g>
<!-- Node22 -->
<g id="node23" class="node">
<title>Node22</title>
<polygon fill="none" stroke="#bfbfbf" points="991.5,-201.5 991.5,-220.5 1152.5,-220.5 1152.5,-201.5 991.5,-201.5"/>
<text text-anchor="middle" x="1072" y="-208.5" font-family="Helvetica,sans-Serif" font-size="10.00" fill="#000000">iDynTree/KinDynComputations.h</text>
</g>
<!-- Node0&#45;&gt;Node22 -->
<g id="edge26" class="edge">
<title>Node0&#45;&gt;Node22</title>
<path fill="none" stroke="#191970" d="M630.5522,-279.5843C722.2281,-270.1074 862.4259,-253.7812 983,-232 996.8189,-229.5037 1011.7135,-226.2254 1025.2908,-223.0034"/>
<polygon fill="#191970" stroke="#191970" points="1026.4798,-226.3169 1035.377,-220.5645 1024.8345,-219.513 1026.4798,-226.3169"/>
</g>
<!-- Node2&#45;&gt;Node3 -->
<g id="edge3" class="edge">
<title>Node2&#45;&gt;Node3</title>
<path fill="none" stroke="#191970" d="M305.9292,-195.9301C280.0427,-186.0292 247.3411,-171.6501 221,-154 193.0829,-135.2939 165.972,-107.1148 149.882,-89.0132"/>
<polygon fill="#191970" stroke="#191970" points="152.1237,-86.2585 142.9133,-81.0221 146.8479,-90.8592 152.1237,-86.2585"/>
</g>
<!-- Node4 -->
<g id="node5" class="node">
<title>Node4</title>
<polygon fill="none" stroke="#bfbfbf" points="690.5,-62 690.5,-81 731.5,-81 731.5,-62 690.5,-62"/>
<text text-anchor="middle" x="711" y="-69" font-family="Helvetica,sans-Serif" font-size="10.00" fill="#000000">string</text>
</g>
<!-- Node2&#45;&gt;Node4 -->
<g id="edge4" class="edge">
<title>Node2&#45;&gt;Node4</title>
<path fill="none" stroke="#191970" d="M395.3823,-195.912C459.7945,-174.0682 581.0191,-131.3691 681,-87 682.0181,-86.5482 683.0504,-86.0781 684.089,-85.5948"/>
<polygon fill="#191970" stroke="#191970" points="685.9617,-88.5749 693.4023,-81.0324 682.8822,-82.2886 685.9617,-88.5749"/>
</g>
<!-- Node5 -->
<g id="node6" class="node">
<title>Node5</title>
<polygon fill="none" stroke="#bfbfbf" points="230,-129 230,-148 274,-148 274,-129 230,-129"/>
<text text-anchor="middle" x="252" y="-136" font-family="Helvetica,sans-Serif" font-size="10.00" fill="#000000">vector</text>
</g>
<!-- Node2&#45;&gt;Node5 -->
<g id="edge5" class="edge">
<title>Node2&#45;&gt;Node5</title>
<path fill="none" stroke="#191970" d="M329.6943,-195.978C313.1756,-183.7574 289.9392,-166.5673 273.1873,-154.1743"/>
<polygon fill="#191970" stroke="#191970" points="275.2089,-151.3162 265.0881,-148.1825 271.0457,-156.9436 275.2089,-151.3162"/>
</g>
<!-- Node6 -->
<g id="node7" class="node">
<title>Node6</title>
<g id="a_node7"><a xlink:href="Vector_8h_source.html" target="_top" xlink:title="BipedalLocomotion/Generic\lContainer/Vector.h">
<polygon fill="none" stroke="#000000" points="330,-123.5 330,-153.5 466,-153.5 466,-123.5 330,-123.5"/>
<text text-anchor="start" x="338" y="-141.5" font-family="Helvetica,sans-Serif" font-size="10.00" fill="#000000">BipedalLocomotion/Generic</text>
<text text-anchor="middle" x="398" y="-130.5" font-family="Helvetica,sans-Serif" font-size="10.00" fill="#000000">Container/Vector.h</text>
</a>
</g>
</g>
<!-- Node2&#45;&gt;Node6 -->
<g id="edge6" class="edge">
<title>Node2&#45;&gt;Node6</title>
<path fill="none" stroke="#191970" d="M359.9456,-195.978C366.4459,-186.1598 375.07,-173.1339 382.4645,-161.9651"/>
<polygon fill="#191970" stroke="#191970" points="385.465,-163.7731 388.0671,-153.5028 379.6283,-159.9088 385.465,-163.7731"/>
</g>
<!-- Node8 -->
<g id="node9" class="node">
<title>Node8</title>
<g id="a_node9"><a xlink:href="TemplateHelpers_8h_source.html" target="_top" xlink:title="BipedalLocomotion/Generic\lContainer/TemplateHelpers.h">
<polygon fill="none" stroke="#000000" points="179,-56.5 179,-86.5 323,-86.5 323,-56.5 179,-56.5"/>
<text text-anchor="start" x="187" y="-74.5" font-family="Helvetica,sans-Serif" font-size="10.00" fill="#000000">BipedalLocomotion/Generic</text>
<text text-anchor="middle" x="251" y="-63.5" font-family="Helvetica,sans-Serif" font-size="10.00" fill="#000000">Container/TemplateHelpers.h</text>
</a>
</g>
</g>
<!-- Node2&#45;&gt;Node8 -->
<g id="edge16" class="edge">
<title>Node2&#45;&gt;Node8</title>
<path fill="none" stroke="#191970" d="M339.2168,-195.8055C321.9586,-171.4871 288.0071,-123.6463 267.6259,-94.9274"/>
<polygon fill="#191970" stroke="#191970" points="270.4117,-92.8052 261.7699,-86.6758 264.7031,-96.8565 270.4117,-92.8052"/>
</g>
<!-- Node6&#45;&gt;Node3 -->
<g id="edge15" class="edge">
<title>Node6&#45;&gt;Node3</title>
<path fill="none" stroke="#191970" d="M329.9674,-126.7335C284.1429,-117.9352 222.6851,-104.4314 170,-87 168.1072,-86.3738 166.1774,-85.6814 164.2453,-84.9471"/>
<polygon fill="#191970" stroke="#191970" points="165.3052,-81.5988 154.7253,-81.0371 162.6457,-88.0739 165.3052,-81.5988"/>
</g>
<!-- Node7 -->
<g id="node8" class="node">
<title>Node7</title>
<polygon fill="none" stroke="#bfbfbf" points="341,-62 341,-81 455,-81 455,-62 341,-62"/>
<text text-anchor="middle" x="398" y="-69" font-family="Helvetica,sans-Serif" font-size="10.00" fill="#000000">iDynTree/Core/Span.h</text>
</g>
<!-- Node6&#45;&gt;Node7 -->
<g id="edge7" class="edge">
<title>Node6&#45;&gt;Node7</title>
<path fill="none" stroke="#191970" d="M398,-123.2967C398,-113.7699 398,-101.3954 398,-91.1306"/>
<polygon fill="#191970" stroke="#191970" points="401.5001,-91.0549 398,-81.055 394.5001,-91.055 401.5001,-91.0549"/>
</g>
<!-- Node6&#45;&gt;Node8 -->
<g id="edge8" class="edge">
<title>Node6&#45;&gt;Node8</title>
<path fill="none" stroke="#191970" d="M365.0103,-123.4639C343.8066,-113.7996 316.0617,-101.154 293.251,-90.7572"/>
<polygon fill="#191970" stroke="#191970" points="294.6846,-87.5643 284.1336,-86.6017 291.7814,-93.9339 294.6846,-87.5643"/>
</g>
<!-- Node12 -->
<g id="node13" class="node">
<title>Node12</title>
<polygon fill="none" stroke="#bfbfbf" points="473.5,-62 473.5,-81 532.5,-81 532.5,-62 473.5,-62"/>
<text text-anchor="middle" x="503" y="-69" font-family="Helvetica,sans-Serif" font-size="10.00" fill="#000000">functional</text>
</g>
<!-- Node6&#45;&gt;Node12 -->
<g id="edge12" class="edge">
<title>Node6&#45;&gt;Node12</title>
<path fill="none" stroke="#191970" d="M421.564,-123.4639C438.7056,-112.526 461.8321,-97.769 479.0602,-86.7759"/>
<polygon fill="#191970" stroke="#191970" points="481.4018,-89.4336 487.9491,-81.1039 477.6364,-83.5326 481.4018,-89.4336"/>
</g>
<!-- Node13 -->
<g id="node14" class="node">
<title>Node13</title>
<polygon fill="none" stroke="#bfbfbf" points="550.5,-62 550.5,-81 599.5,-81 599.5,-62 550.5,-62"/>
<text text-anchor="middle" x="575" y="-69" font-family="Helvetica,sans-Serif" font-size="10.00" fill="#000000">cassert</text>
</g>
<!-- Node6&#45;&gt;Node13 -->
<g id="edge13" class="edge">
<title>Node6&#45;&gt;Node13</title>
<path fill="none" stroke="#191970" d="M442.8023,-123.4245C471.1686,-113.6193 508.4964,-100.2358 541,-87 542.3894,-86.4342 543.8052,-85.8442 545.2313,-85.2389"/>
<polygon fill="#191970" stroke="#191970" points="546.8712,-88.3415 554.6219,-81.1181 544.0584,-81.9315 546.8712,-88.3415"/>
</g>
<!-- Node6&#45;&gt;Node14 -->
<g id="edge14" class="edge">
<title>Node6&#45;&gt;Node14</title>
<path fill="none" stroke="#191970" d="M466.3819,-124.5678C507.8152,-115.428 561.4774,-102.3449 608,-87 610.0958,-86.3087 612.2397,-85.5511 614.3876,-84.7541"/>
<polygon fill="#191970" stroke="#191970" points="615.67,-88.0108 623.6939,-81.0921 613.1068,-81.497 615.67,-88.0108"/>
</g>
<!-- Node9 -->
<g id="node10" class="node">
<title>Node9</title>
<polygon fill="none" stroke="#bfbfbf" points="138,-.5 138,-19.5 200,-19.5 200,-.5 138,-.5"/>
<text text-anchor="middle" x="169" y="-7.5" font-family="Helvetica,sans-Serif" font-size="10.00" fill="#000000">type_traits</text>
</g>
<!-- Node8&#45;&gt;Node9 -->
<g id="edge9" class="edge">
<title>Node8&#45;&gt;Node9</title>
<path fill="none" stroke="#191970" d="M230.7303,-56.2977C218.3994,-47.0495 202.6734,-35.2551 190.1803,-25.8853"/>
<polygon fill="#191970" stroke="#191970" points="192.2293,-23.047 182.1292,-19.8469 188.0292,-28.647 192.2293,-23.047"/>
</g>
<!-- Node10 -->
<g id="node11" class="node">
<title>Node10</title>
<polygon fill="none" stroke="#bfbfbf" points="218,-.5 218,-19.5 284,-19.5 284,-.5 218,-.5"/>
<text text-anchor="middle" x="251" y="-7.5" font-family="Helvetica,sans-Serif" font-size="10.00" fill="#000000">string_view</text>
</g>
<!-- Node8&#45;&gt;Node10 -->
<g id="edge10" class="edge">
<title>Node8&#45;&gt;Node10</title>
<path fill="none" stroke="#191970" d="M251,-56.2977C251,-48.3834 251,-38.6043 251,-30.0759"/>
<polygon fill="#191970" stroke="#191970" points="254.5001,-29.8469 251,-19.8469 247.5001,-29.847 254.5001,-29.8469"/>
</g>
<!-- Node11 -->
<g id="node12" class="node">
<title>Node11</title>
<polygon fill="none" stroke="#bfbfbf" points="302.5,-.5 302.5,-19.5 367.5,-19.5 367.5,-.5 302.5,-.5"/>
<text text-anchor="middle" x="335" y="-7.5" font-family="Helvetica,sans-Serif" font-size="10.00" fill="#000000">Eigen/Core</text>
</g>
<!-- Node8&#45;&gt;Node11 -->
<g id="edge11" class="edge">
<title>Node8&#45;&gt;Node11</title>
<path fill="none" stroke="#191970" d="M271.7641,-56.2977C284.3958,-47.0495 300.5053,-35.2551 313.3031,-25.8853"/>
<polygon fill="#191970" stroke="#191970" points="315.5495,-28.5784 321.5505,-19.8469 311.4143,-22.9303 315.5495,-28.5784"/>
</g>
<!-- Node16 -->
<g id="node17" class="node">
<title>Node16</title>
<polygon fill="none" stroke="#bfbfbf" points="617.5,-129 617.5,-148 690.5,-148 690.5,-129 617.5,-129"/>
<text text-anchor="middle" x="654" y="-136" font-family="Helvetica,sans-Serif" font-size="10.00" fill="#000000">Eigen/Dense</text>
</g>
<!-- Node15&#45;&gt;Node16 -->
<g id="edge18" class="edge">
<title>Node15&#45;&gt;Node16</title>
<path fill="none" stroke="#191970" d="M654,-190.4183C654,-180.32 654,-168.213 654,-158.2314"/>
<polygon fill="#191970" stroke="#191970" points="657.5001,-158.0853 654,-148.0853 650.5001,-158.0854 657.5001,-158.0853"/>
</g>
<!-- Node17&#45;&gt;Node16 -->
<g id="edge20" class="edge">
<title>Node17&#45;&gt;Node16</title>
<path fill="none" stroke="#191970" d="M824.895,-195.897C790.6307,-184.4189 742.3418,-168.2321 700,-154 697.304,-153.0938 694.5194,-152.1572 691.7163,-151.2138"/>
<polygon fill="#191970" stroke="#191970" points="692.8112,-147.8895 682.2171,-148.0154 690.5774,-154.5235 692.8112,-147.8895"/>
</g>
<!-- Node18 -->
<g id="node19" class="node">
<title>Node18</title>
<polygon fill="none" stroke="#bfbfbf" points="869,-129 869,-148 945,-148 945,-129 869,-129"/>
<text text-anchor="middle" x="907" y="-136" font-family="Helvetica,sans-Serif" font-size="10.00" fill="#000000">manif/manif.h</text>
</g>
<!-- Node17&#45;&gt;Node18 -->
<g id="edge21" class="edge">
<title>Node17&#45;&gt;Node18</title>
<path fill="none" stroke="#191970" d="M877.6664,-195.978C883.3551,-184.8313 891.1538,-169.55 897.2801,-157.5457"/>
<polygon fill="#191970" stroke="#191970" points="900.5215,-158.8938 901.9498,-148.3957 894.2866,-155.7118 900.5215,-158.8938"/>
</g>
<!-- Node19 -->
<g id="node20" class="node">
<title>Node19</title>
<g id="a_node20"><a xlink:href="Contact_8h.html" target="_top" xlink:title="BipedalLocomotion/Contacts\l/Contact.h">
<polygon fill="none" stroke="#000000" points="709,-123.5 709,-153.5 851,-153.5 851,-123.5 709,-123.5"/>
<text text-anchor="start" x="717" y="-141.5" font-family="Helvetica,sans-Serif" font-size="10.00" fill="#000000">BipedalLocomotion/Contacts</text>
<text text-anchor="middle" x="780" y="-130.5" font-family="Helvetica,sans-Serif" font-size="10.00" fill="#000000">/Contact.h</text>
</a>
</g>
</g>
<!-- Node17&#45;&gt;Node19 -->
<g id="edge22" class="edge">
<title>Node17&#45;&gt;Node19</title>
<path fill="none" stroke="#191970" d="M851.3519,-195.978C838.4399,-185.5766 821.0585,-171.5749 806.6838,-159.9953"/>
<polygon fill="#191970" stroke="#191970" points="808.6074,-157.0505 798.6242,-153.5028 804.2161,-162.5018 808.6074,-157.0505"/>
</g>
<!-- Node21 -->
<g id="node22" class="node">
<title>Node21</title>
<polygon fill="none" stroke="#bfbfbf" points="963.5,-129 963.5,-148 998.5,-148 998.5,-129 963.5,-129"/>
<text text-anchor="middle" x="981" y="-136" font-family="Helvetica,sans-Serif" font-size="10.00" fill="#000000">map</text>
</g>
<!-- Node17&#45;&gt;Node21 -->
<g id="edge25" class="edge">
<title>Node17&#45;&gt;Node21</title>
<path fill="none" stroke="#191970" d="M892.9993,-195.978C911.9668,-183.5893 938.7538,-166.0932 957.7813,-153.6654"/>
<polygon fill="#191970" stroke="#191970" points="959.7174,-156.5813 966.1758,-148.1825 955.8894,-150.7206 959.7174,-156.5813"/>
</g>
<!-- Node19&#45;&gt;Node4 -->
<g id="edge24" class="edge">
<title>Node19&#45;&gt;Node4</title>
<path fill="none" stroke="#191970" d="M764.3428,-123.2967C753.5923,-112.8578 739.3206,-98.9997 728.2445,-88.2446"/>
<polygon fill="#191970" stroke="#191970" points="730.4527,-85.5103 720.8402,-81.055 725.5763,-90.5323 730.4527,-85.5103"/>
</g>
<!-- Node20 -->
<g id="node21" class="node">
<title>Node20</title>
<polygon fill="none" stroke="#bfbfbf" points="749.5,-62 749.5,-81 820.5,-81 820.5,-62 749.5,-62"/>
<text text-anchor="middle" x="785" y="-69" font-family="Helvetica,sans-Serif" font-size="10.00" fill="#000000">manif/SE3.h</text>
</g>
<!-- Node19&#45;&gt;Node20 -->
<g id="edge23" class="edge">
<title>Node19&#45;&gt;Node20</title>
<path fill="none" stroke="#191970" d="M781.1346,-123.2967C781.8455,-113.7699 782.769,-101.3954 783.535,-91.1306"/>
<polygon fill="#191970" stroke="#191970" points="787.0329,-91.2877 784.2869,-81.055 780.0524,-90.7667 787.0329,-91.2877"/>
</g>
</g>
</svg>
