<?xml version="1.0" encoding="UTF-8" standalone="no"?>
<!DOCTYPE svg PUBLIC "-//W3C//DTD SVG 1.1//EN"
 "http://www.w3.org/Graphics/SVG/1.1/DTD/svg11.dtd">
<!-- Generated by graphviz version 2.40.1 (20161225.0304)
 -->
<!-- Title: System/include/BipedalLocomotion/System/FloatingBaseSystemKinematics.h Pages: 1 -->
<!--zoomable 430 -->
<svg id="main" version="1.1" xmlns="http://www.w3.org/2000/svg" xmlns:xlink="http://www.w3.org/1999/xlink" xml:space="preserve" onload="init(evt)">
<style type="text/css"><![CDATA[
.edge:hover path { stroke: red; }
.edge:hover polygon { stroke: red; fill: red; }
]]></style>
<script type="text/javascript"><![CDATA[
var edges = document.getElementsByTagName('g');
if (edges && edges.length) {
  for (var i=0;i<edges.length;i++) {
    if (edges[i].id.substr(0,4)=='edge') {
      edges[i].setAttribute('class','edge');
    }
  }
}
]]></script>
        <defs>
                <circle id="rim" cx="0" cy="0" r="7"/>
                <circle id="rim2" cx="0" cy="0" r="3.5"/>
                <g id="zoomPlus">
                        <use xlink:href="#rim" fill="#404040">
                                <set attributeName="fill" to="#808080" begin="zoomplus.mouseover" end="zoomplus.mouseout"/>
                        </use>
                        <path d="M-4,0h8M0,-4v8" fill="none" stroke="white" stroke-width="1.5" pointer-events="none"/>
                </g>
                <g id="zoomMin">
                        <use xlink:href="#rim" fill="#404040">
                                <set attributeName="fill" to="#808080" begin="zoomminus.mouseover" end="zoomminus.mouseout"/>
                        </use>
                        <path d="M-4,0h8" fill="none" stroke="white" stroke-width="1.5" pointer-events="none"/>
                </g>
                <g id="dirArrow">
                        <path fill="none" stroke="white" stroke-width="1.5" d="M0,-3.0v7 M-2.5,-0.5L0,-3.0L2.5,-0.5"/>
                </g>
               <g id="resetDef">
                       <use xlink:href="#rim2" fill="#404040">
                               <set attributeName="fill" to="#808080" begin="reset.mouseover" end="reset.mouseout"/>
                       </use>
               </g>
        </defs>

<script type="text/javascript">
var viewWidth = 1688;
var viewHeight = 430;
var sectionId = 'dynsection-0';
</script>
<script xlink:href="svgpan.js"/>
<svg id="graph" class="graph">
<g id="viewport">
<title>System/include/BipedalLocomotion/System/FloatingBaseSystemKinematics.h</title>
<!-- Node0 -->
<g id="node1" class="node">
<title>Node0</title>
<polygon fill="#bfbfbf" stroke="#000000" points="274,-391.5 274,-421.5 478,-421.5 478,-391.5 274,-391.5"/>
<text text-anchor="start" x="282" y="-409.5" font-family="Helvetica,sans-Serif" font-size="10.00" fill="#000000">System/include/BipedalLocomotion</text>
<text text-anchor="middle" x="376" y="-398.5" font-family="Helvetica,sans-Serif" font-size="10.00" fill="#000000">/System/FloatingBaseSystemKinematics.h</text>
</g>
<!-- Node1 -->
<g id="node2" class="node">
<title>Node1</title>
<polygon fill="none" stroke="#bfbfbf" points="285,-62 285,-81 337,-81 337,-62 285,-62"/>
<text text-anchor="middle" x="311" y="-69" font-family="Helvetica,sans-Serif" font-size="10.00" fill="#000000">memory</text>
</g>
<!-- Node0&#45;&gt;Node1 -->
<g id="edge1" class="edge">
<title>Node0&#45;&gt;Node1</title>
<path fill="none" stroke="#191970" d="M278.192,-391.4124C166.7849,-371.4013 0,-331.5777 0,-272.5 0,-272.5 0,-272.5 0,-205.5 0,-146.2302 192.9192,-97.1998 274.87,-79.0459"/>
<polygon fill="#191970" stroke="#191970" points="275.7294,-82.4408 284.7523,-76.8876 274.2358,-75.6019 275.7294,-82.4408"/>
</g>
<!-- Node2 -->
<g id="node3" class="node">
<title>Node2</title>
<polygon fill="none" stroke="#bfbfbf" points="335,-129 335,-148 379,-148 379,-129 335,-129"/>
<text text-anchor="middle" x="357" y="-136" font-family="Helvetica,sans-Serif" font-size="10.00" fill="#000000">vector</text>
</g>
<!-- Node0&#45;&gt;Node2 -->
<g id="edge2" class="edge">
<title>Node0&#45;&gt;Node2</title>
<path fill="none" stroke="#191970" d="M370.6845,-391.3038C358.9983,-356.0147 332.8874,-265.75 343,-190 344.4431,-179.1902 347.5187,-167.4337 350.4206,-157.8862"/>
<polygon fill="#191970" stroke="#191970" points="353.8016,-158.8049 353.5269,-148.2137 347.1368,-156.6646 353.8016,-158.8049"/>
</g>
<!-- Node3 -->
<g id="node4" class="node">
<title>Node3</title>
<g id="a_node4"><a xlink:href="DynamicalSystem_8h.html" target="_top" xlink:title="BipedalLocomotion/System\l/DynamicalSystem.h">
<polygon fill="none" stroke="#000000" points="122,-257.5 122,-287.5 258,-287.5 258,-257.5 122,-257.5"/>
<text text-anchor="start" x="130" y="-275.5" font-family="Helvetica,sans-Serif" font-size="10.00" fill="#000000">BipedalLocomotion/System</text>
<text text-anchor="middle" x="190" y="-264.5" font-family="Helvetica,sans-Serif" font-size="10.00" fill="#000000">/DynamicalSystem.h</text>
</a>
</g>
</g>
<!-- Node0&#45;&gt;Node3 -->
<g id="edge3" class="edge">
<title>Node0&#45;&gt;Node3</title>
<path fill="none" stroke="#191970" d="M355.025,-391.389C321.8656,-367.4999 257.2295,-320.9342 219.4394,-293.7091"/>
<polygon fill="#191970" stroke="#191970" points="221.0579,-290.5614 210.8984,-287.5558 216.9662,-296.241 221.0579,-290.5614"/>
</g>
<!-- Node9 -->
<g id="node10" class="node">
<title>Node9</title>
<g id="a_node10"><a xlink:href="IParametersHandler_8h.html" target="_top" xlink:title="BipedalLocomotion/Parameters\lHandler/IParametersHandler.h">
<polygon fill="none" stroke="#000000" points="352,-190.5 352,-220.5 504,-220.5 504,-190.5 352,-190.5"/>
<text text-anchor="start" x="360" y="-208.5" font-family="Helvetica,sans-Serif" font-size="10.00" fill="#000000">BipedalLocomotion/Parameters</text>
<text text-anchor="middle" x="428" y="-197.5" font-family="Helvetica,sans-Serif" font-size="10.00" fill="#000000">Handler/IParametersHandler.h</text>
</a>
</g>
</g>
<!-- Node0&#45;&gt;Node9 -->
<g id="edge39" class="edge">
<title>Node0&#45;&gt;Node9</title>
<path fill="none" stroke="#191970" d="M379.9085,-391.3923C388.8141,-356.9685 410.6839,-272.4334 421.594,-230.2615"/>
<polygon fill="#191970" stroke="#191970" points="425.0009,-231.0667 424.1171,-220.5088 418.224,-229.3134 425.0009,-231.0667"/>
</g>
<!-- Node17 -->
<g id="node18" class="node">
<title>Node17</title>
<g id="a_node18"><a xlink:href="ContactWrench_8h.html" target="_top" xlink:title="BipedalLocomotion/System\l/ContactWrench.h">
<polygon fill="none" stroke="#000000" points="830,-324.5 830,-354.5 966,-354.5 966,-324.5 830,-324.5"/>
<text text-anchor="start" x="838" y="-342.5" font-family="Helvetica,sans-Serif" font-size="10.00" fill="#000000">BipedalLocomotion/System</text>
<text text-anchor="middle" x="898" y="-331.5" font-family="Helvetica,sans-Serif" font-size="10.00" fill="#000000">/ContactWrench.h</text>
</a>
</g>
</g>
<!-- Node0&#45;&gt;Node17 -->
<g id="edge24" class="edge">
<title>Node0&#45;&gt;Node17</title>
<path fill="none" stroke="#191970" d="M478.1966,-393.3828C578.3262,-380.5309 728.7601,-361.2224 819.7375,-349.5452"/>
<polygon fill="#191970" stroke="#191970" points="820.2396,-353.0095 829.7126,-348.2649 819.3484,-346.0665 820.2396,-353.0095"/>
</g>
<!-- Node28 -->
<g id="node29" class="node">
<title>Node28</title>
<polygon fill="none" stroke="#bfbfbf" points="984.5,-330 984.5,-349 1057.5,-349 1057.5,-330 984.5,-330"/>
<text text-anchor="middle" x="1021" y="-337" font-family="Helvetica,sans-Serif" font-size="10.00" fill="#000000">Eigen/Dense</text>
</g>
<!-- Node0&#45;&gt;Node28 -->
<g id="edge40" class="edge">
<title>Node0&#45;&gt;Node28</title>
<path fill="none" stroke="#191970" d="M478.1109,-400.6804C623.5404,-391.8853 882.9076,-374.1851 975,-355 978.6816,-354.233 982.4775,-353.2625 986.2359,-352.1826"/>
<polygon fill="#191970" stroke="#191970" points="987.492,-355.457 995.9929,-349.1335 985.4041,-348.7757 987.492,-355.457"/>
</g>
<!-- Node3&#45;&gt;Node1 -->
<g id="edge4" class="edge">
<title>Node3&#45;&gt;Node1</title>
<path fill="none" stroke="#191970" d="M153.1828,-257.4687C137.8532,-249.1524 121.6389,-237.1711 113,-221 106.5079,-208.8476 106.205,-201.9856 113,-190 147.6969,-128.7983 227.9663,-95.8 274.9554,-81.1111"/>
<polygon fill="#191970" stroke="#191970" points="276.1631,-84.4028 284.7303,-78.1695 274.1458,-77.6997 276.1631,-84.4028"/>
</g>
<!-- Node4 -->
<g id="node5" class="node">
<title>Node4</title>
<polygon fill="none" stroke="#bfbfbf" points="28,-196 28,-215 66,-215 66,-196 28,-196"/>
<text text-anchor="middle" x="47" y="-203" font-family="Helvetica,sans-Serif" font-size="10.00" fill="#000000">tuple</text>
</g>
<!-- Node3&#45;&gt;Node4 -->
<g id="edge5" class="edge">
<title>Node3&#45;&gt;Node4</title>
<path fill="none" stroke="#191970" d="M157.7463,-257.4122C135.8197,-247.1522 106.1556,-233.2654 80,-221 78.4634,-220.2794 76.8867,-219.5398 75.2951,-218.7929"/>
<polygon fill="#191970" stroke="#191970" points="76.7325,-215.6013 66.193,-214.5198 73.7577,-221.9377 76.7325,-215.6013"/>
</g>
<!-- Node5 -->
<g id="node6" class="node">
<title>Node5</title>
<g id="a_node6"><a xlink:href="TemplateHelpers_8h_source.html" target="_top" xlink:title="BipedalLocomotion/Generic\lContainer/TemplateHelpers.h">
<polygon fill="none" stroke="#000000" points="355,-56.5 355,-86.5 499,-86.5 499,-56.5 355,-56.5"/>
<text text-anchor="start" x="363" y="-74.5" font-family="Helvetica,sans-Serif" font-size="10.00" fill="#000000">BipedalLocomotion/Generic</text>
<text text-anchor="middle" x="427" y="-63.5" font-family="Helvetica,sans-Serif" font-size="10.00" fill="#000000">Container/TemplateHelpers.h</text>
</a>
</g>
</g>
<!-- Node3&#45;&gt;Node5 -->
<g id="edge6" class="edge">
<title>Node3&#45;&gt;Node5</title>
<path fill="none" stroke="#191970" d="M218.5841,-257.4921C234.1445,-248.3705 253.0162,-235.6656 267,-221 302.0839,-184.2058 288.8082,-157.6621 326,-123 340.2143,-109.7525 358.485,-99.0638 375.5699,-90.9304"/>
<polygon fill="#191970" stroke="#191970" points="377.2586,-94.0072 384.9062,-86.6747 374.3552,-87.6377 377.2586,-94.0072"/>
</g>
<!-- Node3&#45;&gt;Node9 -->
<g id="edge10" class="edge">
<title>Node3&#45;&gt;Node9</title>
<path fill="none" stroke="#191970" d="M243.4118,-257.4639C279.2674,-247.3701 326.6759,-234.024 364.4689,-223.3848"/>
<polygon fill="#191970" stroke="#191970" points="365.6778,-226.6806 374.3552,-220.6017 363.7809,-219.9425 365.6778,-226.6806"/>
</g>
<!-- Node16 -->
<g id="node17" class="node">
<title>Node16</title>
<g id="a_node17"><a xlink:href="DynamicalSystem_8tpp.html" target="_top" xlink:title="BipedalLocomotion/System\l/DynamicalSystem.tpp">
<polygon fill="none" stroke="#000000" points="122,-190.5 122,-220.5 258,-220.5 258,-190.5 122,-190.5"/>
<text text-anchor="start" x="130" y="-208.5" font-family="Helvetica,sans-Serif" font-size="10.00" fill="#000000">BipedalLocomotion/System</text>
<text text-anchor="middle" x="190" y="-197.5" font-family="Helvetica,sans-Serif" font-size="10.00" fill="#000000">/DynamicalSystem.tpp</text>
</a>
</g>
</g>
<!-- Node3&#45;&gt;Node16 -->
<g id="edge22" class="edge">
<title>Node3&#45;&gt;Node16</title>
<path fill="none" stroke="#191970" d="M184.2392,-257.2967C183.2895,-249.4156 183.0236,-239.5857 183.4416,-230.6135"/>
<polygon fill="#191970" stroke="#191970" points="186.9304,-230.8924 184.2464,-220.6432 179.9531,-230.3291 186.9304,-230.8924"/>
</g>
<!-- Node6 -->
<g id="node7" class="node">
<title>Node6</title>
<polygon fill="none" stroke="#bfbfbf" points="314,-.5 314,-19.5 376,-19.5 376,-.5 314,-.5"/>
<text text-anchor="middle" x="345" y="-7.5" font-family="Helvetica,sans-Serif" font-size="10.00" fill="#000000">type_traits</text>
</g>
<!-- Node5&#45;&gt;Node6 -->
<g id="edge7" class="edge">
<title>Node5&#45;&gt;Node6</title>
<path fill="none" stroke="#191970" d="M406.7303,-56.2977C394.3994,-47.0495 378.6734,-35.2551 366.1803,-25.8853"/>
<polygon fill="#191970" stroke="#191970" points="368.2293,-23.047 358.1292,-19.8469 364.0292,-28.647 368.2293,-23.047"/>
</g>
<!-- Node7 -->
<g id="node8" class="node">
<title>Node7</title>
<polygon fill="none" stroke="#bfbfbf" points="394,-.5 394,-19.5 460,-19.5 460,-.5 394,-.5"/>
<text text-anchor="middle" x="427" y="-7.5" font-family="Helvetica,sans-Serif" font-size="10.00" fill="#000000">string_view</text>
</g>
<!-- Node5&#45;&gt;Node7 -->
<g id="edge8" class="edge">
<title>Node5&#45;&gt;Node7</title>
<path fill="none" stroke="#191970" d="M427,-56.2977C427,-48.3834 427,-38.6043 427,-30.0759"/>
<polygon fill="#191970" stroke="#191970" points="430.5001,-29.8469 427,-19.8469 423.5001,-29.847 430.5001,-29.8469"/>
</g>
<!-- Node8 -->
<g id="node9" class="node">
<title>Node8</title>
<polygon fill="none" stroke="#bfbfbf" points="478.5,-.5 478.5,-19.5 543.5,-19.5 543.5,-.5 478.5,-.5"/>
<text text-anchor="middle" x="511" y="-7.5" font-family="Helvetica,sans-Serif" font-size="10.00" fill="#000000">Eigen/Core</text>
</g>
<!-- Node5&#45;&gt;Node8 -->
<g id="edge9" class="edge">
<title>Node5&#45;&gt;Node8</title>
<path fill="none" stroke="#191970" d="M447.7641,-56.2977C460.3958,-47.0495 476.5053,-35.2551 489.3031,-25.8853"/>
<polygon fill="#191970" stroke="#191970" points="491.5495,-28.5784 497.5505,-19.8469 487.4143,-22.9303 491.5495,-28.5784"/>
</g>
<!-- Node9&#45;&gt;Node1 -->
<g id="edge11" class="edge">
<title>Node9&#45;&gt;Node1</title>
<path fill="none" stroke="#191970" d="M423.4012,-190.421C417.4386,-172.7438 405.6646,-143.2884 388,-123 374.6697,-107.6897 355.7647,-94.9568 340.0234,-85.982"/>
<polygon fill="#191970" stroke="#191970" points="341.6385,-82.876 331.1867,-81.1409 338.2752,-89.0151 341.6385,-82.876"/>
</g>
<!-- Node9&#45;&gt;Node2 -->
<g id="edge13" class="edge">
<title>Node9&#45;&gt;Node2</title>
<path fill="none" stroke="#191970" d="M411.889,-190.2967C400.7195,-179.7564 385.856,-165.7303 374.4133,-154.9323"/>
<polygon fill="#191970" stroke="#191970" points="376.8006,-152.3727 367.1254,-148.055 371.9963,-157.4638 376.8006,-152.3727"/>
</g>
<!-- Node9&#45;&gt;Node5 -->
<g id="edge21" class="edge">
<title>Node9&#45;&gt;Node5</title>
<path fill="none" stroke="#191970" d="M429.2367,-190.2937C430.4234,-173.7396 431.9108,-146.4875 431,-123 430.6714,-114.5261 430.0398,-105.2855 429.3738,-97.0009"/>
<polygon fill="#191970" stroke="#191970" points="432.8413,-96.4706 428.5012,-86.8055 425.8668,-97.0676 432.8413,-96.4706"/>
</g>
<!-- Node10 -->
<g id="node11" class="node">
<title>Node10</title>
<polygon fill="none" stroke="#bfbfbf" points="784.5,-129 784.5,-148 825.5,-148 825.5,-129 784.5,-129"/>
<text text-anchor="middle" x="805" y="-136" font-family="Helvetica,sans-Serif" font-size="10.00" fill="#000000">string</text>
</g>
<!-- Node9&#45;&gt;Node10 -->
<g id="edge12" class="edge">
<title>Node9&#45;&gt;Node10</title>
<path fill="none" stroke="#191970" d="M504.2916,-191.9416C587.3372,-177.1828 716.0675,-154.305 774.4074,-143.9369"/>
<polygon fill="#191970" stroke="#191970" points="775.2214,-147.3471 784.4547,-142.1513 773.9965,-140.4551 775.2214,-147.3471"/>
</g>
<!-- Node11 -->
<g id="node12" class="node">
<title>Node11</title>
<g id="a_node12"><a xlink:href="Vector_8h_source.html" target="_top" xlink:title="BipedalLocomotion/Generic\lContainer/Vector.h">
<polygon fill="none" stroke="#000000" points="559,-123.5 559,-153.5 695,-153.5 695,-123.5 559,-123.5"/>
<text text-anchor="start" x="567" y="-141.5" font-family="Helvetica,sans-Serif" font-size="10.00" fill="#000000">BipedalLocomotion/Generic</text>
<text text-anchor="middle" x="627" y="-130.5" font-family="Helvetica,sans-Serif" font-size="10.00" fill="#000000">Container/Vector.h</text>
</a>
</g>
</g>
<!-- Node9&#45;&gt;Node11 -->
<g id="edge14" class="edge">
<title>Node9&#45;&gt;Node11</title>
<path fill="none" stroke="#191970" d="M472.6595,-190.4639C502.2568,-180.499 541.2689,-167.3642 572.6654,-156.7936"/>
<polygon fill="#191970" stroke="#191970" points="573.7853,-160.1096 582.1457,-153.6017 571.5516,-153.4755 573.7853,-160.1096"/>
</g>
<!-- Node11&#45;&gt;Node1 -->
<g id="edge20" class="edge">
<title>Node11&#45;&gt;Node1</title>
<path fill="none" stroke="#191970" d="M558.9323,-130.5978C501.3479,-122.8337 417.0933,-108.9201 346,-87 343.8845,-86.3477 341.7268,-85.6027 339.5739,-84.8002"/>
<polygon fill="#191970" stroke="#191970" points="340.8916,-81.5578 330.3103,-81.0226 338.2484,-88.0396 340.8916,-81.5578"/>
</g>
<!-- Node11&#45;&gt;Node5 -->
<g id="edge16" class="edge">
<title>Node11&#45;&gt;Node5</title>
<path fill="none" stroke="#191970" d="M582.1161,-123.4639C552.37,-113.499 513.1619,-100.3642 481.6077,-89.7936"/>
<polygon fill="#191970" stroke="#191970" points="482.6735,-86.4595 472.0797,-86.6017 480.45,-93.097 482.6735,-86.4595"/>
</g>
<!-- Node12 -->
<g id="node13" class="node">
<title>Node12</title>
<polygon fill="none" stroke="#bfbfbf" points="517,-62 517,-81 631,-81 631,-62 517,-62"/>
<text text-anchor="middle" x="574" y="-69" font-family="Helvetica,sans-Serif" font-size="10.00" fill="#000000">iDynTree/Core/Span.h</text>
</g>
<!-- Node11&#45;&gt;Node12 -->
<g id="edge15" class="edge">
<title>Node11&#45;&gt;Node12</title>
<path fill="none" stroke="#191970" d="M614.9735,-123.2967C606.9563,-113.1618 596.3898,-99.804 587.9953,-89.1921"/>
<polygon fill="#191970" stroke="#191970" points="590.5075,-86.7264 581.5584,-81.055 585.0175,-91.0692 590.5075,-86.7264"/>
</g>
<!-- Node13 -->
<g id="node14" class="node">
<title>Node13</title>
<polygon fill="none" stroke="#bfbfbf" points="649.5,-62 649.5,-81 708.5,-81 708.5,-62 649.5,-62"/>
<text text-anchor="middle" x="679" y="-69" font-family="Helvetica,sans-Serif" font-size="10.00" fill="#000000">functional</text>
</g>
<!-- Node11&#45;&gt;Node13 -->
<g id="edge17" class="edge">
<title>Node11&#45;&gt;Node13</title>
<path fill="none" stroke="#191970" d="M638.7996,-123.2967C646.6655,-113.1618 657.0327,-99.804 665.2688,-89.1921"/>
<polygon fill="#191970" stroke="#191970" points="668.2179,-91.1008 671.5842,-81.055 662.688,-86.8089 668.2179,-91.1008"/>
</g>
<!-- Node14 -->
<g id="node15" class="node">
<title>Node14</title>
<polygon fill="none" stroke="#bfbfbf" points="726.5,-62 726.5,-81 775.5,-81 775.5,-62 726.5,-62"/>
<text text-anchor="middle" x="751" y="-69" font-family="Helvetica,sans-Serif" font-size="10.00" fill="#000000">cassert</text>
</g>
<!-- Node11&#45;&gt;Node14 -->
<g id="edge18" class="edge">
<title>Node11&#45;&gt;Node14</title>
<path fill="none" stroke="#191970" d="M654.828,-123.4639C675.6336,-112.2222 703.9054,-96.9463 724.4073,-85.8686"/>
<polygon fill="#191970" stroke="#191970" points="726.0915,-88.9369 733.2256,-81.1039 722.7639,-82.7784 726.0915,-88.9369"/>
</g>
<!-- Node15 -->
<g id="node16" class="node">
<title>Node15</title>
<polygon fill="none" stroke="#bfbfbf" points="794,-62 794,-81 848,-81 848,-62 794,-62"/>
<text text-anchor="middle" x="821" y="-69" font-family="Helvetica,sans-Serif" font-size="10.00" fill="#000000">iostream</text>
</g>
<!-- Node11&#45;&gt;Node15 -->
<g id="edge19" class="edge">
<title>Node11&#45;&gt;Node15</title>
<path fill="none" stroke="#191970" d="M677.219,-123.4202C708.4753,-113.7174 749.3692,-100.4453 785,-87 786.8145,-86.3153 788.6711,-85.591 790.538,-84.8443"/>
<polygon fill="#191970" stroke="#191970" points="791.9106,-88.0642 799.811,-81.0049 789.2327,-81.5967 791.9106,-88.0642"/>
</g>
<!-- Node16&#45;&gt;Node3 -->
<g id="edge23" class="edge">
<title>Node16&#45;&gt;Node3</title>
<path fill="none" stroke="#191970" d="M195.7536,-220.6432C196.7067,-228.5143 196.9761,-238.3414 196.5616,-247.3179"/>
<polygon fill="#191970" stroke="#191970" points="193.072,-247.0487 195.7608,-257.2967 200.0496,-247.6087 193.072,-247.0487"/>
</g>
<!-- Node18 -->
<g id="node19" class="node">
<title>Node18</title>
<polygon fill="none" stroke="#bfbfbf" points="1554.5,-196 1554.5,-215 1679.5,-215 1679.5,-196 1554.5,-196"/>
<text text-anchor="middle" x="1617" y="-203" font-family="Helvetica,sans-Serif" font-size="10.00" fill="#000000">iDynTree/Core/Wrench.h</text>
</g>
<!-- Node17&#45;&gt;Node18 -->
<g id="edge25" class="edge">
<title>Node17&#45;&gt;Node18</title>
<path fill="none" stroke="#191970" d="M966.051,-325.9059C969.414,-325.2564 972.7446,-324.6181 976,-324 1228.4887,-276.0639 1292.8999,-270.9392 1545,-221 1551.091,-219.7934 1557.4621,-218.4868 1563.7877,-217.1616"/>
<polygon fill="#191970" stroke="#191970" points="1564.5854,-220.5704 1573.6439,-215.0755 1563.1358,-213.7221 1564.5854,-220.5704"/>
</g>
<!-- Node19 -->
<g id="node20" class="node">
<title>Node19</title>
<polygon fill="none" stroke="#bfbfbf" points="985,-263 985,-282 1113,-282 1113,-263 985,-263"/>
<text text-anchor="middle" x="1049" y="-270" font-family="Helvetica,sans-Serif" font-size="10.00" fill="#000000">iDynTree/Model/Indices.h</text>
</g>
<!-- Node17&#45;&gt;Node19 -->
<g id="edge26" class="edge">
<title>Node17&#45;&gt;Node19</title>
<path fill="none" stroke="#191970" d="M931.8873,-324.4639C957.6797,-313.0196 992.8945,-297.3945 1017.9571,-286.274"/>
<polygon fill="#191970" stroke="#191970" points="1019.6343,-289.359 1027.3553,-282.1039 1016.7952,-282.9605 1019.6343,-289.359"/>
</g>
<!-- Node20 -->
<g id="node21" class="node">
<title>Node20</title>
<g id="a_node21"><a xlink:href="ContactModel_8h.html" target="_top" xlink:title="BipedalLocomotion/Contact\lModels/ContactModel.h">
<polygon fill="none" stroke="#000000" points="829.5,-257.5 829.5,-287.5 966.5,-287.5 966.5,-257.5 829.5,-257.5"/>
<text text-anchor="start" x="837.5" y="-275.5" font-family="Helvetica,sans-Serif" font-size="10.00" fill="#000000">BipedalLocomotion/Contact</text>
<text text-anchor="middle" x="898" y="-264.5" font-family="Helvetica,sans-Serif" font-size="10.00" fill="#000000">Models/ContactModel.h</text>
</a>
</g>
</g>
<!-- Node17&#45;&gt;Node20 -->
<g id="edge27" class="edge">
<title>Node17&#45;&gt;Node20</title>
<path fill="none" stroke="#191970" d="M898,-324.2967C898,-316.5013 898,-306.7991 898,-297.9064"/>
<polygon fill="#191970" stroke="#191970" points="901.5001,-297.6431 898,-287.6432 894.5001,-297.6432 901.5001,-297.6431"/>
</g>
<!-- Node20&#45;&gt;Node1 -->
<g id="edge29" class="edge">
<title>Node20&#45;&gt;Node1</title>
<path fill="none" stroke="#191970" d="M829.293,-266.656C742.7675,-258.5492 599.5401,-242.4336 551,-221 531.0614,-212.1958 530.5764,-202.8891 513,-190 469.2614,-157.9257 457.8418,-150.3436 411,-123 387.7052,-109.4018 360.4364,-95.485 340.2633,-85.5521"/>
<polygon fill="#191970" stroke="#191970" points="341.7779,-82.3967 331.2567,-81.1497 338.7039,-88.6856 341.7779,-82.3967"/>
</g>
<!-- Node20&#45;&gt;Node9 -->
<g id="edge38" class="edge">
<title>Node20&#45;&gt;Node9</title>
<path fill="none" stroke="#191970" d="M829.2452,-263.935C753.0479,-254.2675 626.5723,-237.701 518,-221 516.7219,-220.8034 515.4338,-220.6036 514.1378,-220.401"/>
<polygon fill="#191970" stroke="#191970" points="514.5031,-216.9151 504.0772,-218.7994 513.4026,-223.8281 514.5031,-216.9151"/>
</g>
<!-- Node20&#45;&gt;Node10 -->
<g id="edge30" class="edge">
<title>Node20&#45;&gt;Node10</title>
<path fill="none" stroke="#191970" d="M892.2516,-257.3692C885.325,-240.1614 872.6438,-211.6497 857,-190 847.6304,-177.0333 834.899,-164.364 824.3789,-154.836"/>
<polygon fill="#191970" stroke="#191970" points="826.6746,-152.1939 816.8576,-148.2093 822.0471,-157.4462 826.6746,-152.1939"/>
</g>
<!-- Node20&#45;&gt;Node18 -->
<g id="edge37" class="edge">
<title>Node20&#45;&gt;Node18</title>
<path fill="none" stroke="#191970" d="M966.8214,-258.3082C969.9178,-257.8325 972.9881,-257.3928 976,-257 1227.2671,-224.2334 1294.001,-255.7605 1545,-221 1552.4855,-219.9633 1560.3522,-218.5792 1568.0252,-217.0633"/>
<polygon fill="#191970" stroke="#191970" points="1568.867,-220.4634 1577.9521,-215.0127 1567.4508,-213.6081 1568.867,-220.4634"/>
</g>
<!-- Node21 -->
<g id="node22" class="node">
<title>Node21</title>
<polygon fill="none" stroke="#bfbfbf" points="904,-196 904,-215 936,-215 936,-196 904,-196"/>
<text text-anchor="middle" x="920" y="-203" font-family="Helvetica,sans-Serif" font-size="10.00" fill="#000000">any</text>
</g>
<!-- Node20&#45;&gt;Node21 -->
<g id="edge28" class="edge">
<title>Node20&#45;&gt;Node21</title>
<path fill="none" stroke="#191970" d="M902.9921,-257.2967C906.1536,-247.6685 910.2702,-235.1318 913.6615,-224.8038"/>
<polygon fill="#191970" stroke="#191970" points="917.0681,-225.6478 916.8625,-215.055 910.4175,-223.464 917.0681,-225.6478"/>
</g>
<!-- Node22 -->
<g id="node23" class="node">
<title>Node22</title>
<polygon fill="none" stroke="#bfbfbf" points="954.5,-196 954.5,-215 1037.5,-215 1037.5,-196 954.5,-196"/>
<text text-anchor="middle" x="996" y="-203" font-family="Helvetica,sans-Serif" font-size="10.00" fill="#000000">unordered_map</text>
</g>
<!-- Node20&#45;&gt;Node22 -->
<g id="edge31" class="edge">
<title>Node20&#45;&gt;Node22</title>
<path fill="none" stroke="#191970" d="M920.2377,-257.2967C936.2478,-246.351 957.7563,-231.6462 973.7656,-220.701"/>
<polygon fill="#191970" stroke="#191970" points="975.7443,-223.5881 982.0241,-215.055 971.7936,-217.8095 975.7443,-223.5881"/>
</g>
<!-- Node23 -->
<g id="node24" class="node">
<title>Node23</title>
<polygon fill="none" stroke="#bfbfbf" points="1056,-196 1056,-215 1212,-215 1212,-196 1056,-196"/>
<text text-anchor="middle" x="1134" y="-203" font-family="Helvetica,sans-Serif" font-size="10.00" fill="#000000">iDynTree/Core/MatrixDynSize.h</text>
</g>
<!-- Node20&#45;&gt;Node23 -->
<g id="edge32" class="edge">
<title>Node20&#45;&gt;Node23</title>
<path fill="none" stroke="#191970" d="M950.963,-257.4639C993.0938,-245.503 1051.3105,-228.9754 1090.687,-217.7965"/>
<polygon fill="#191970" stroke="#191970" points="1091.8547,-221.1034 1100.5187,-215.0053 1089.943,-214.3695 1091.8547,-221.1034"/>
</g>
<!-- Node24 -->
<g id="node25" class="node">
<title>Node24</title>
<polygon fill="none" stroke="#bfbfbf" points="1230,-196 1230,-215 1382,-215 1382,-196 1230,-196"/>
<text text-anchor="middle" x="1306" y="-203" font-family="Helvetica,sans-Serif" font-size="10.00" fill="#000000">iDynTree/Core/MatrixFixSize.h</text>
</g>
<!-- Node20&#45;&gt;Node24 -->
<g id="edge33" class="edge">
<title>Node20&#45;&gt;Node24</title>
<path fill="none" stroke="#191970" d="M966.8686,-258.6195C969.9522,-258.0595 973.0069,-257.517 976,-257 1084.4524,-238.2685 1112.4031,-238.8746 1221,-221 1228.892,-219.701 1237.1839,-218.2707 1245.3668,-216.8202"/>
<polygon fill="#191970" stroke="#191970" points="1246.0335,-220.2565 1255.2598,-215.0482 1244.7993,-213.3662 1246.0335,-220.2565"/>
</g>
<!-- Node25 -->
<g id="node26" class="node">
<title>Node25</title>
<polygon fill="none" stroke="#bfbfbf" points="1400,-196 1400,-215 1536,-215 1536,-196 1400,-196"/>
<text text-anchor="middle" x="1468" y="-203" font-family="Helvetica,sans-Serif" font-size="10.00" fill="#000000">iDynTree/Core/Transform.h</text>
</g>
<!-- Node20&#45;&gt;Node25 -->
<g id="edge34" class="edge">
<title>Node20&#45;&gt;Node25</title>
<path fill="none" stroke="#191970" d="M966.8334,-258.3963C969.9265,-257.8967 972.9929,-257.4279 976,-257 1159.2908,-230.9186 1207.7417,-247.3088 1391,-221 1398.7823,-219.8828 1406.9649,-218.4825 1414.9728,-216.9835"/>
<polygon fill="#191970" stroke="#191970" points="1415.8271,-220.3832 1424.9793,-215.0457 1414.4962,-213.5108 1415.8271,-220.3832"/>
</g>
<!-- Node26 -->
<g id="node27" class="node">
<title>Node26</title>
<polygon fill="none" stroke="#bfbfbf" points="560,-196 560,-215 676,-215 676,-196 560,-196"/>
<text text-anchor="middle" x="618" y="-203" font-family="Helvetica,sans-Serif" font-size="10.00" fill="#000000">iDynTree/Core/Twist.h</text>
</g>
<!-- Node20&#45;&gt;Node26 -->
<g id="edge35" class="edge">
<title>Node20&#45;&gt;Node26</title>
<path fill="none" stroke="#191970" d="M835.1625,-257.4639C784.5401,-245.3507 714.3434,-228.5536 667.6139,-217.3719"/>
<polygon fill="#191970" stroke="#191970" points="668.2636,-213.9286 657.7236,-215.0053 666.6345,-220.7364 668.2636,-213.9286"/>
</g>
<!-- Node27 -->
<g id="node28" class="node">
<title>Node27</title>
<polygon fill="none" stroke="#bfbfbf" points="694.5,-196 694.5,-215 847.5,-215 847.5,-196 694.5,-196"/>
<text text-anchor="middle" x="771" y="-203" font-family="Helvetica,sans-Serif" font-size="10.00" fill="#000000">iDynTree/Core/VectorFixSize.h</text>
</g>
<!-- Node20&#45;&gt;Node27 -->
<g id="edge36" class="edge">
<title>Node20&#45;&gt;Node27</title>
<path fill="none" stroke="#191970" d="M869.4987,-257.4639C848.1897,-246.2222 819.234,-230.9463 798.2361,-219.8686"/>
<polygon fill="#191970" stroke="#191970" points="799.6822,-216.6744 789.2044,-215.1039 796.416,-222.8657 799.6822,-216.6744"/>
</g>
</g>
</svg>
        <g id="navigator" transform="translate(0 0)" fill="#404254">
                <rect fill="#f2f5e9" fill-opacity="0.5" stroke="#606060" stroke-width=".5" x="0" y="0" width="60" height="60"/>
                <use id="zoomplus" xlink:href="#zoomPlus" x="17" y="9" onmousedown="handleZoom(evt,'in')"/>
                <use id="zoomminus" xlink:href="#zoomMin" x="42" y="9" onmousedown="handleZoom(evt,'out')"/>
                <use id="reset" xlink:href="#resetDef" x="30" y="36" onmousedown="handleReset()"/>
                <g id="arrowUp" xlink:href="#dirArrow" transform="translate(30 24)" onmousedown="handlePan(0,-1)">
                  <use xlink:href="#rim" fill="#404040">
                        <set attributeName="fill" to="#808080" begin="arrowUp.mouseover" end="arrowUp.mouseout"/>
                  </use>
                  <path fill="none" stroke="white" stroke-width="1.5" d="M0,-3.0v7 M-2.5,-0.5L0,-3.0L2.5,-0.5"/>
                </g>
                <g id="arrowRight" xlink:href="#dirArrow" transform="rotate(90) translate(36 -43)" onmousedown="handlePan(1,0)">
                  <use xlink:href="#rim" fill="#404040">
                        <set attributeName="fill" to="#808080" begin="arrowRight.mouseover" end="arrowRight.mouseout"/>
                  </use>
                  <path fill="none" stroke="white" stroke-width="1.5" d="M0,-3.0v7 M-2.5,-0.5L0,-3.0L2.5,-0.5"/>
                </g>
                <g id="arrowDown" xlink:href="#dirArrow" transform="rotate(180) translate(-30 -48)" onmousedown="handlePan(0,1)">
                  <use xlink:href="#rim" fill="#404040">
                        <set attributeName="fill" to="#808080" begin="arrowDown.mouseover" end="arrowDown.mouseout"/>
                  </use>
                  <path fill="none" stroke="white" stroke-width="1.5" d="M0,-3.0v7 M-2.5,-0.5L0,-3.0L2.5,-0.5"/>
                </g>
                <g id="arrowLeft" xlink:href="#dirArrow" transform="rotate(270) translate(-36 17)" onmousedown="handlePan(-1,0)">
                  <use xlink:href="#rim" fill="#404040">
                        <set attributeName="fill" to="#808080" begin="arrowLeft.mouseover" end="arrowLeft.mouseout"/>
                  </use>
                  <path fill="none" stroke="white" stroke-width="1.5" d="M0,-3.0v7 M-2.5,-0.5L0,-3.0L2.5,-0.5"/>
                </g>
        </g>
        <svg viewBox="0 0 15 15" width="100%" height="30px" preserveAspectRatio="xMaxYMin meet">
         <g id="arrow_out" transform="scale(0.3 0.3)">
          <a xlink:href="FloatingBaseSystemKinematics_8h__incl_org.svg" target="_base">
           <rect id="button" ry="5" rx="5" y="6" x="6" height="38" width="38"
                fill="#f2f5e9" fill-opacity="0.5" stroke="#606060" stroke-width="1.0"/>
           <path id="arrow"
             d="M 11.500037,31.436501 C 11.940474,20.09759 22.043105,11.32322 32.158766,21.979434 L 37.068811,17.246167 C 37.068811,17.246167 37.088388,32 37.088388,32 L 22.160133,31.978069 C 22.160133,31.978069 26.997745,27.140456 26.997745,27.140456 C 18.528582,18.264221 13.291696,25.230495 11.500037,31.436501 z"
             style="fill:#404040;"/>
          </a>
         </g>
        </svg>
</svg>
