<?xml version="1.0" encoding="UTF-8" standalone="no"?>
<!DOCTYPE svg PUBLIC "-//W3C//DTD SVG 1.1//EN"
 "http://www.w3.org/Graphics/SVG/1.1/DTD/svg11.dtd">
<!-- Generated by graphviz version 2.40.1 (20161225.0304)
 -->
<!-- Title: Estimators/include/BipedalLocomotion/FloatingBaseEstimators/FloatingBaseEstimatorIO.h Pages: 1 -->
<svg width="526pt" height="284pt"
 viewBox="0.00 0.00 525.50 284.00" xmlns="http://www.w3.org/2000/svg" xmlns:xlink="http://www.w3.org/1999/xlink">
<g id="graph0" class="graph" transform="scale(1 1) rotate(0) translate(4 280)">
<title>Estimators/include/BipedalLocomotion/FloatingBaseEstimators/FloatingBaseEstimatorIO.h</title>
<!-- Node7 -->
<g id="node1" class="node">
<title>Node7</title>
<polygon fill="#bfbfbf" stroke="#000000" points="170,-234.5 170,-275.5 377,-275.5 377,-234.5 170,-234.5"/>
<text text-anchor="start" x="178" y="-263.5" font-family="Helvetica,sans-Serif" font-size="10.00" fill="#000000">Estimators/include</text>
<text text-anchor="start" x="178" y="-252.5" font-family="Helvetica,sans-Serif" font-size="10.00" fill="#000000">/BipedalLocomotion/Floating</text>
<text text-anchor="middle" x="273.5" y="-241.5" font-family="Helvetica,sans-Serif" font-size="10.00" fill="#000000">BaseEstimators/FloatingBaseEstimatorIO.h</text>
</g>
<!-- Node8 -->
<g id="node2" class="node">
<title>Node8</title>
<g id="a_node2"><a xlink:href="FloatingBaseEstimator_8h.html" target="_top" xlink:title="Estimators/include\l/BipedalLocomotion/Floating\lBaseEstimators/FloatingBaseEstimator.h">
<polygon fill="none" stroke="#000000" points="175,-156.5 175,-197.5 372,-197.5 372,-156.5 175,-156.5"/>
<text text-anchor="start" x="183" y="-185.5" font-family="Helvetica,sans-Serif" font-size="10.00" fill="#000000">Estimators/include</text>
<text text-anchor="start" x="183" y="-174.5" font-family="Helvetica,sans-Serif" font-size="10.00" fill="#000000">/BipedalLocomotion/Floating</text>
<text text-anchor="middle" x="273.5" y="-163.5" font-family="Helvetica,sans-Serif" font-size="10.00" fill="#000000">BaseEstimators/FloatingBaseEstimator.h</text>
</a>
</g>
</g>
<!-- Node7&#45;&gt;Node8 -->
<g id="edge1" class="edge">
<title>Node7&#45;&gt;Node8</title>
<path fill="none" stroke="#191970" d="M273.5,-224.0789C273.5,-215.2178 273.5,-205.7747 273.5,-197.6898"/>
<polygon fill="#191970" stroke="#191970" points="270.0001,-224.0974 273.5,-234.0974 277.0001,-224.0975 270.0001,-224.0974"/>
</g>
<!-- Node9 -->
<g id="node3" class="node">
<title>Node9</title>
<g id="a_node3"><a xlink:href="InvariantEKFBaseEstimator_8h.html" target="_top" xlink:title="Estimators/include\l/BipedalLocomotion/Floating\lBaseEstimators/InvariantEKFBase\lEstimator.h">
<polygon fill="none" stroke="#000000" points="0,-67.5 0,-119.5 169,-119.5 169,-67.5 0,-67.5"/>
<text text-anchor="start" x="8" y="-107.5" font-family="Helvetica,sans-Serif" font-size="10.00" fill="#000000">Estimators/include</text>
<text text-anchor="start" x="8" y="-96.5" font-family="Helvetica,sans-Serif" font-size="10.00" fill="#000000">/BipedalLocomotion/Floating</text>
<text text-anchor="start" x="8" y="-85.5" font-family="Helvetica,sans-Serif" font-size="10.00" fill="#000000">BaseEstimators/InvariantEKFBase</text>
<text text-anchor="middle" x="84.5" y="-74.5" font-family="Helvetica,sans-Serif" font-size="10.00" fill="#000000">Estimator.h</text>
</a>
</g>
</g>
<!-- Node8&#45;&gt;Node9 -->
<g id="edge2" class="edge">
<title>Node8&#45;&gt;Node9</title>
<path fill="none" stroke="#191970" d="M217.3967,-152.2136C194.1321,-141.9353 167.1265,-130.0043 143.5597,-119.5925"/>
<polygon fill="#191970" stroke="#191970" points="216.2194,-155.5198 226.7809,-156.3595 219.0482,-149.1168 216.2194,-155.5198"/>
</g>
<!-- Node11 -->
<g id="node5" class="node">
<title>Node11</title>
<g id="a_node5"><a xlink:href="LeggedOdometry_8h.html" target="_top" xlink:title="Estimators/include\l/BipedalLocomotion/Floating\lBaseEstimators/LeggedOdometry.h">
<polygon fill="none" stroke="#000000" points="187.5,-73 187.5,-114 359.5,-114 359.5,-73 187.5,-73"/>
<text text-anchor="start" x="195.5" y="-102" font-family="Helvetica,sans-Serif" font-size="10.00" fill="#000000">Estimators/include</text>
<text text-anchor="start" x="195.5" y="-91" font-family="Helvetica,sans-Serif" font-size="10.00" fill="#000000">/BipedalLocomotion/Floating</text>
<text text-anchor="middle" x="273.5" y="-80" font-family="Helvetica,sans-Serif" font-size="10.00" fill="#000000">BaseEstimators/LeggedOdometry.h</text>
</a>
</g>
</g>
<!-- Node8&#45;&gt;Node11 -->
<g id="edge4" class="edge">
<title>Node8&#45;&gt;Node11</title>
<path fill="none" stroke="#191970" d="M273.5,-146.1593C273.5,-135.5064 273.5,-123.8344 273.5,-114.1924"/>
<polygon fill="#191970" stroke="#191970" points="270.0001,-146.3595 273.5,-156.3595 277.0001,-146.3596 270.0001,-146.3595"/>
</g>
<!-- Node13 -->
<g id="node7" class="node">
<title>Node13</title>
<g id="a_node7"><a xlink:href="FloatingBaseEstimator_8cpp.html" target="_top" xlink:title="Estimators/src/FloatingBase\lEstimator.cpp">
<polygon fill="none" stroke="#000000" points="377.5,-78.5 377.5,-108.5 517.5,-108.5 517.5,-78.5 377.5,-78.5"/>
<text text-anchor="start" x="385.5" y="-96.5" font-family="Helvetica,sans-Serif" font-size="10.00" fill="#000000">Estimators/src/FloatingBase</text>
<text text-anchor="middle" x="447.5" y="-85.5" font-family="Helvetica,sans-Serif" font-size="10.00" fill="#000000">Estimator.cpp</text>
</a>
</g>
</g>
<!-- Node8&#45;&gt;Node13 -->
<g id="edge6" class="edge">
<title>Node8&#45;&gt;Node13</title>
<path fill="none" stroke="#191970" d="M325.8285,-151.8883C355.2779,-137.756 391.0644,-120.5826 416.1772,-108.5314"/>
<polygon fill="#191970" stroke="#191970" points="324.0126,-148.8775 316.5112,-156.3595 327.0412,-155.1885 324.0126,-148.8775"/>
</g>
<!-- Node10 -->
<g id="node4" class="node">
<title>Node10</title>
<g id="a_node4"><a xlink:href="InvariantEKFBaseEstimator_8cpp.html" target="_top" xlink:title="Estimators/src/Invariant\lEKFBaseEstimator.cpp">
<polygon fill="none" stroke="#000000" points="24,-.5 24,-30.5 145,-30.5 145,-.5 24,-.5"/>
<text text-anchor="start" x="32" y="-18.5" font-family="Helvetica,sans-Serif" font-size="10.00" fill="#000000">Estimators/src/Invariant</text>
<text text-anchor="middle" x="84.5" y="-7.5" font-family="Helvetica,sans-Serif" font-size="10.00" fill="#000000">EKFBaseEstimator.cpp</text>
</a>
</g>
</g>
<!-- Node9&#45;&gt;Node10 -->
<g id="edge3" class="edge">
<title>Node9&#45;&gt;Node10</title>
<path fill="none" stroke="#191970" d="M84.5,-57.0863C84.5,-47.6965 84.5,-38.1059 84.5,-30.5046"/>
<polygon fill="#191970" stroke="#191970" points="81.0001,-57.0927 84.5,-67.0928 88.0001,-57.0928 81.0001,-57.0927"/>
</g>
<!-- Node12 -->
<g id="node6" class="node">
<title>Node12</title>
<g id="a_node6"><a xlink:href="LeggedOdometry_8cpp.html" target="_top" xlink:title="Estimators/src/LeggedOdometry.cpp">
<polygon fill="none" stroke="#000000" points="185.5,-6 185.5,-25 361.5,-25 361.5,-6 185.5,-6"/>
<text text-anchor="middle" x="273.5" y="-13" font-family="Helvetica,sans-Serif" font-size="10.00" fill="#000000">Estimators/src/LeggedOdometry.cpp</text>
</a>
</g>
</g>
<!-- Node11&#45;&gt;Node12 -->
<g id="edge5" class="edge">
<title>Node11&#45;&gt;Node12</title>
<path fill="none" stroke="#191970" d="M273.5,-62.3707C273.5,-49.1273 273.5,-34.6205 273.5,-25.3072"/>
<polygon fill="#191970" stroke="#191970" points="270.0001,-62.5974 273.5,-72.5974 277.0001,-62.5975 270.0001,-62.5974"/>
</g>
</g>
</svg>
