<?xml version="1.0" encoding="UTF-8" standalone="no"?>
<!DOCTYPE svg PUBLIC "-//W3C//DTD SVG 1.1//EN"
 "http://www.w3.org/Graphics/SVG/1.1/DTD/svg11.dtd">
<!-- Generated by graphviz version 2.40.1 (20161225.0304)
 -->
<!-- Title: Estimators/include/BipedalLocomotion/FloatingBaseEstimators/FloatingBaseEstimatorIO.h Pages: 1 -->
<svg width="389pt" height="173pt"
 viewBox="0.00 0.00 389.00 173.00" xmlns="http://www.w3.org/2000/svg" xmlns:xlink="http://www.w3.org/1999/xlink">
<g id="graph0" class="graph" transform="scale(1 1) rotate(0) translate(4 169)">
<title>Estimators/include/BipedalLocomotion/FloatingBaseEstimators/FloatingBaseEstimatorIO.h</title>
<!-- Node0 -->
<g id="node1" class="node">
<title>Node0</title>
<polygon fill="#bfbfbf" stroke="#000000" points="89,-123.5 89,-164.5 296,-164.5 296,-123.5 89,-123.5"/>
<text text-anchor="start" x="97" y="-152.5" font-family="Helvetica,sans-Serif" font-size="10.00" fill="#000000">Estimators/include</text>
<text text-anchor="start" x="97" y="-141.5" font-family="Helvetica,sans-Serif" font-size="10.00" fill="#000000">/BipedalLocomotion/Floating</text>
<text text-anchor="middle" x="192.5" y="-130.5" font-family="Helvetica,sans-Serif" font-size="10.00" fill="#000000">BaseEstimators/FloatingBaseEstimatorIO.h</text>
</g>
<!-- Node1 -->
<g id="node2" class="node">
<title>Node1</title>
<polygon fill="none" stroke="#bfbfbf" points="0,-62 0,-81 73,-81 73,-62 0,-62"/>
<text text-anchor="middle" x="36.5" y="-69" font-family="Helvetica,sans-Serif" font-size="10.00" fill="#000000">Eigen/Dense</text>
</g>
<!-- Node0&#45;&gt;Node1 -->
<g id="edge1" class="edge">
<title>Node0&#45;&gt;Node1</title>
<path fill="none" stroke="#191970" d="M148.2139,-123.4183C122.046,-111.257 89.6092,-96.1822 66.4413,-85.415"/>
<polygon fill="#191970" stroke="#191970" points="67.6686,-82.126 57.125,-81.0853 64.7184,-88.4739 67.6686,-82.126"/>
</g>
<!-- Node2 -->
<g id="node3" class="node">
<title>Node2</title>
<polygon fill="none" stroke="#bfbfbf" points="91.5,-62 91.5,-81 167.5,-81 167.5,-62 91.5,-62"/>
<text text-anchor="middle" x="129.5" y="-69" font-family="Helvetica,sans-Serif" font-size="10.00" fill="#000000">manif/manif.h</text>
</g>
<!-- Node0&#45;&gt;Node2 -->
<g id="edge2" class="edge">
<title>Node0&#45;&gt;Node2</title>
<path fill="none" stroke="#191970" d="M174.6152,-123.4183C165.0853,-112.4514 153.4966,-99.1152 144.4508,-88.7053"/>
<polygon fill="#191970" stroke="#191970" points="147.0305,-86.3379 137.8293,-81.0853 141.7467,-90.9294 147.0305,-86.3379"/>
</g>
<!-- Node3 -->
<g id="node4" class="node">
<title>Node3</title>
<g id="a_node4"><a xlink:href="Contact_8h.html" target="_top" xlink:title="BipedalLocomotion/Contacts\l/Contact.h">
<polygon fill="none" stroke="#000000" points="185.5,-56.5 185.5,-86.5 327.5,-86.5 327.5,-56.5 185.5,-56.5"/>
<text text-anchor="start" x="193.5" y="-74.5" font-family="Helvetica,sans-Serif" font-size="10.00" fill="#000000">BipedalLocomotion/Contacts</text>
<text text-anchor="middle" x="256.5" y="-63.5" font-family="Helvetica,sans-Serif" font-size="10.00" fill="#000000">/Contact.h</text>
</a>
</g>
</g>
<!-- Node0&#45;&gt;Node3 -->
<g id="edge3" class="edge">
<title>Node0&#45;&gt;Node3</title>
<path fill="none" stroke="#191970" d="M210.6686,-123.4183C218.6718,-114.3522 228.1043,-103.6671 236.3251,-94.3544"/>
<polygon fill="#191970" stroke="#191970" points="239.1771,-96.4123 243.1711,-86.5991 233.9293,-91.7797 239.1771,-96.4123"/>
</g>
<!-- Node6 -->
<g id="node7" class="node">
<title>Node6</title>
<polygon fill="none" stroke="#bfbfbf" points="346,-62 346,-81 381,-81 381,-62 346,-62"/>
<text text-anchor="middle" x="363.5" y="-69" font-family="Helvetica,sans-Serif" font-size="10.00" fill="#000000">map</text>
</g>
<!-- Node0&#45;&gt;Node6 -->
<g id="edge6" class="edge">
<title>Node0&#45;&gt;Node6</title>
<path fill="none" stroke="#191970" d="M250.0805,-123.3883C276.7568,-113.2878 308.6447,-100.4221 336.5,-87 337.1939,-86.6657 337.8941,-86.3205 338.598,-85.9668"/>
<polygon fill="#191970" stroke="#191970" points="340.5623,-88.8846 347.7146,-81.0682 337.249,-82.7184 340.5623,-88.8846"/>
</g>
<!-- Node4 -->
<g id="node5" class="node">
<title>Node4</title>
<polygon fill="none" stroke="#bfbfbf" points="184,-.5 184,-19.5 255,-19.5 255,-.5 184,-.5"/>
<text text-anchor="middle" x="219.5" y="-7.5" font-family="Helvetica,sans-Serif" font-size="10.00" fill="#000000">manif/SE3.h</text>
</g>
<!-- Node3&#45;&gt;Node4 -->
<g id="edge4" class="edge">
<title>Node3&#45;&gt;Node4</title>
<path fill="none" stroke="#191970" d="M247.3539,-56.2977C242.3249,-47.9388 236.0445,-37.4997 230.7209,-28.6509"/>
<polygon fill="#191970" stroke="#191970" points="233.5785,-26.6114 225.4242,-19.8469 227.5803,-30.2201 233.5785,-26.6114"/>
</g>
<!-- Node5 -->
<g id="node6" class="node">
<title>Node5</title>
<polygon fill="none" stroke="#bfbfbf" points="273,-.5 273,-19.5 314,-19.5 314,-.5 273,-.5"/>
<text text-anchor="middle" x="293.5" y="-7.5" font-family="Helvetica,sans-Serif" font-size="10.00" fill="#000000">string</text>
</g>
<!-- Node3&#45;&gt;Node5 -->
<g id="edge5" class="edge">
<title>Node3&#45;&gt;Node5</title>
<path fill="none" stroke="#191970" d="M265.6461,-56.2977C270.6751,-47.9388 276.9555,-37.4997 282.2791,-28.6509"/>
<polygon fill="#191970" stroke="#191970" points="285.4197,-30.2201 287.5758,-19.8469 279.4215,-26.6114 285.4197,-30.2201"/>
</g>
</g>
</svg>
