<?xml version="1.0" encoding="UTF-8" standalone="no"?>
<!DOCTYPE svg PUBLIC "-//W3C//DTD SVG 1.1//EN"
 "http://www.w3.org/Graphics/SVG/1.1/DTD/svg11.dtd">
<!-- Generated by graphviz version 2.40.1 (20161225.0304)
 -->
<!-- Title: System/include/BipedalLocomotion/System/FloatingBaseSystemDynamics.h Pages: 1 -->
<svg width="1688pt" height="430pt"
 viewBox="0.00 0.00 1688.00 430.00" xmlns="http://www.w3.org/2000/svg" xmlns:xlink="http://www.w3.org/1999/xlink">
<g id="graph0" class="graph" transform="scale(1 1) rotate(0) translate(4 426)">
<title>System/include/BipedalLocomotion/System/FloatingBaseSystemDynamics.h</title>
<!-- Node0 -->
<g id="node1" class="node">
<title>Node0</title>
<polygon fill="#bfbfbf" stroke="#000000" points="278,-391.5 278,-421.5 478,-421.5 478,-391.5 278,-391.5"/>
<text text-anchor="start" x="286" y="-409.5" font-family="Helvetica,sans-Serif" font-size="10.00" fill="#000000">System/include/BipedalLocomotion</text>
<text text-anchor="middle" x="378" y="-398.5" font-family="Helvetica,sans-Serif" font-size="10.00" fill="#000000">/System/FloatingBaseSystemDynamics.h</text>
</g>
<!-- Node1 -->
<g id="node2" class="node">
<title>Node1</title>
<polygon fill="none" stroke="#bfbfbf" points="357,-62 357,-81 409,-81 409,-62 357,-62"/>
<text text-anchor="middle" x="383" y="-69" font-family="Helvetica,sans-Serif" font-size="10.00" fill="#000000">memory</text>
</g>
<!-- Node0&#45;&gt;Node1 -->
<g id="edge1" class="edge">
<title>Node0&#45;&gt;Node1</title>
<path fill="none" stroke="#191970" d="M279.1787,-391.418C167.1807,-371.4711 0,-331.7696 0,-272.5 0,-272.5 0,-272.5 0,-205.5 0,-132.4228 251.5588,-89.7821 346.9303,-76.242"/>
<polygon fill="#191970" stroke="#191970" points="347.5549,-79.6888 356.976,-74.8418 346.5885,-72.7559 347.5549,-79.6888"/>
</g>
<!-- Node2 -->
<g id="node3" class="node">
<title>Node2</title>
<polygon fill="none" stroke="#bfbfbf" points="354,-129 354,-148 398,-148 398,-129 354,-129"/>
<text text-anchor="middle" x="376" y="-136" font-family="Helvetica,sans-Serif" font-size="10.00" fill="#000000">vector</text>
</g>
<!-- Node0&#45;&gt;Node2 -->
<g id="edge2" class="edge">
<title>Node0&#45;&gt;Node2</title>
<path fill="none" stroke="#191970" d="M324.6901,-391.386C222.9227,-359.9758 17.6742,-282.7855 95,-190 126.3564,-152.3746 276.5858,-142.1517 343.6024,-139.4444"/>
<polygon fill="#191970" stroke="#191970" points="344.1232,-142.9276 353.9864,-139.0587 343.8633,-135.9324 344.1232,-142.9276"/>
</g>
<!-- Node3 -->
<g id="node4" class="node">
<title>Node3</title>
<g id="a_node4"><a xlink:href="DynamicalSystem_8h.html" target="_top" xlink:title="BipedalLocomotion/System\l/DynamicalSystem.h">
<polygon fill="none" stroke="#000000" points="209,-257.5 209,-287.5 345,-287.5 345,-257.5 209,-257.5"/>
<text text-anchor="start" x="217" y="-275.5" font-family="Helvetica,sans-Serif" font-size="10.00" fill="#000000">BipedalLocomotion/System</text>
<text text-anchor="middle" x="277" y="-264.5" font-family="Helvetica,sans-Serif" font-size="10.00" fill="#000000">/DynamicalSystem.h</text>
</a>
</g>
</g>
<!-- Node0&#45;&gt;Node3 -->
<g id="edge3" class="edge">
<title>Node0&#45;&gt;Node3</title>
<path fill="none" stroke="#191970" d="M366.6103,-391.389C349.1068,-368.1665 315.4516,-323.5151 294.737,-296.0322"/>
<polygon fill="#191970" stroke="#191970" points="297.3171,-293.6404 288.503,-287.7614 291.7271,-297.8538 297.3171,-293.6404"/>
</g>
<!-- Node17 -->
<g id="node18" class="node">
<title>Node17</title>
<g id="a_node18"><a xlink:href="ContactWrench_8h.html" target="_top" xlink:title="BipedalLocomotion/System\l/ContactWrench.h">
<polygon fill="none" stroke="#000000" points="464,-324.5 464,-354.5 600,-354.5 600,-324.5 464,-324.5"/>
<text text-anchor="start" x="472" y="-342.5" font-family="Helvetica,sans-Serif" font-size="10.00" fill="#000000">BipedalLocomotion/System</text>
<text text-anchor="middle" x="532" y="-331.5" font-family="Helvetica,sans-Serif" font-size="10.00" fill="#000000">/ContactWrench.h</text>
</a>
</g>
</g>
<!-- Node0&#45;&gt;Node17 -->
<g id="edge24" class="edge">
<title>Node0&#45;&gt;Node17</title>
<path fill="none" stroke="#191970" d="M412.5606,-391.4639C434.8727,-381.7567 464.0987,-369.0415 488.0554,-358.6188"/>
<polygon fill="#191970" stroke="#191970" points="489.5152,-361.8006 497.2887,-354.6017 486.7226,-355.3818 489.5152,-361.8006"/>
</g>
<!-- Node28 -->
<g id="node29" class="node">
<title>Node28</title>
<polygon fill="none" stroke="#bfbfbf" points="618.5,-330 618.5,-349 691.5,-349 691.5,-330 618.5,-330"/>
<text text-anchor="middle" x="655" y="-337" font-family="Helvetica,sans-Serif" font-size="10.00" fill="#000000">Eigen/Dense</text>
</g>
<!-- Node0&#45;&gt;Node28 -->
<g id="edge39" class="edge">
<title>Node0&#45;&gt;Node28</title>
<path fill="none" stroke="#191970" d="M454.9791,-391.4635C500.1413,-382.1145 558.1447,-369.1942 609,-355 611.9881,-354.166 615.068,-353.2513 618.1516,-352.2965"/>
<polygon fill="#191970" stroke="#191970" points="619.4571,-355.5532 627.9049,-349.1591 617.3135,-348.8895 619.4571,-355.5532"/>
</g>
<!-- Node29 -->
<g id="node30" class="node">
<title>Node29</title>
<polygon fill="none" stroke="#bfbfbf" points="709.5,-330 709.5,-349 870.5,-349 870.5,-330 709.5,-330"/>
<text text-anchor="middle" x="790" y="-337" font-family="Helvetica,sans-Serif" font-size="10.00" fill="#000000">iDynTree/KinDynComputations.h</text>
</g>
<!-- Node0&#45;&gt;Node29 -->
<g id="edge40" class="edge">
<title>Node0&#45;&gt;Node29</title>
<path fill="none" stroke="#191970" d="M474.5207,-391.4803C538.7445,-381.3954 624.9651,-367.6819 701,-355 709.0288,-353.6609 717.4601,-352.2277 725.8007,-350.7936"/>
<polygon fill="#191970" stroke="#191970" points="726.6377,-354.2009 735.8962,-349.0501 725.4464,-347.303 726.6377,-354.2009"/>
</g>
<!-- Node3&#45;&gt;Node1 -->
<g id="edge4" class="edge">
<title>Node3&#45;&gt;Node1</title>
<path fill="none" stroke="#191970" d="M208.7535,-266.1852C144.912,-257.3271 63.7215,-236.6926 95,-190 152.1507,-104.6854 283.0213,-80.7364 346.7693,-74.0571"/>
<polygon fill="#191970" stroke="#191970" points="347.1489,-77.5369 356.7675,-73.0946 346.4781,-70.5691 347.1489,-77.5369"/>
</g>
<!-- Node4 -->
<g id="node5" class="node">
<title>Node4</title>
<polygon fill="none" stroke="#bfbfbf" points="258,-196 258,-215 296,-215 296,-196 258,-196"/>
<text text-anchor="middle" x="277" y="-203" font-family="Helvetica,sans-Serif" font-size="10.00" fill="#000000">tuple</text>
</g>
<!-- Node3&#45;&gt;Node4 -->
<g id="edge5" class="edge">
<title>Node3&#45;&gt;Node4</title>
<path fill="none" stroke="#191970" d="M277,-257.2967C277,-247.7699 277,-235.3954 277,-225.1306"/>
<polygon fill="#191970" stroke="#191970" points="280.5001,-225.0549 277,-215.055 273.5001,-225.055 280.5001,-225.0549"/>
</g>
<!-- Node5 -->
<g id="node6" class="node">
<title>Node5</title>
<g id="a_node6"><a xlink:href="TemplateHelpers_8h_source.html" target="_top" xlink:title="BipedalLocomotion/Generic\lContainer/TemplateHelpers.h">
<polygon fill="none" stroke="#000000" points="427,-56.5 427,-86.5 571,-86.5 571,-56.5 427,-56.5"/>
<text text-anchor="start" x="435" y="-74.5" font-family="Helvetica,sans-Serif" font-size="10.00" fill="#000000">BipedalLocomotion/Generic</text>
<text text-anchor="middle" x="499" y="-63.5" font-family="Helvetica,sans-Serif" font-size="10.00" fill="#000000">Container/TemplateHelpers.h</text>
</a>
</g>
</g>
<!-- Node3&#45;&gt;Node5 -->
<g id="edge6" class="edge">
<title>Node3&#45;&gt;Node5</title>
<path fill="none" stroke="#191970" d="M285.7804,-257.4047C291.5385,-247.2592 299.0702,-233.5061 305,-221 325.1551,-178.4922 310.6747,-155.1701 345,-123 357.5903,-111.2002 393.3537,-98.9093 427.2491,-89.2951"/>
<polygon fill="#191970" stroke="#191970" points="428.5094,-92.5777 437.2081,-86.5293 426.6362,-85.8329 428.5094,-92.5777"/>
</g>
<!-- Node9 -->
<g id="node10" class="node">
<title>Node9</title>
<g id="a_node10"><a xlink:href="IParametersHandler_8h.html" target="_top" xlink:title="BipedalLocomotion/Parameters\lHandler/IParametersHandler.h">
<polygon fill="none" stroke="#000000" points="352,-190.5 352,-220.5 504,-220.5 504,-190.5 352,-190.5"/>
<text text-anchor="start" x="360" y="-208.5" font-family="Helvetica,sans-Serif" font-size="10.00" fill="#000000">BipedalLocomotion/Parameters</text>
<text text-anchor="middle" x="428" y="-197.5" font-family="Helvetica,sans-Serif" font-size="10.00" fill="#000000">Handler/IParametersHandler.h</text>
</a>
</g>
</g>
<!-- Node3&#45;&gt;Node9 -->
<g id="edge10" class="edge">
<title>Node3&#45;&gt;Node9</title>
<path fill="none" stroke="#191970" d="M310.8873,-257.4639C332.668,-247.7996 361.1679,-235.154 384.5993,-224.7572"/>
<polygon fill="#191970" stroke="#191970" points="386.2438,-227.8567 393.9649,-220.6017 383.4047,-221.4583 386.2438,-227.8567"/>
</g>
<!-- Node16 -->
<g id="node17" class="node">
<title>Node16</title>
<g id="a_node17"><a xlink:href="DynamicalSystem_8tpp.html" target="_top" xlink:title="BipedalLocomotion/System\l/DynamicalSystem.tpp">
<polygon fill="none" stroke="#000000" points="104,-190.5 104,-220.5 240,-220.5 240,-190.5 104,-190.5"/>
<text text-anchor="start" x="112" y="-208.5" font-family="Helvetica,sans-Serif" font-size="10.00" fill="#000000">BipedalLocomotion/System</text>
<text text-anchor="middle" x="172" y="-197.5" font-family="Helvetica,sans-Serif" font-size="10.00" fill="#000000">/DynamicalSystem.tpp</text>
</a>
</g>
</g>
<!-- Node3&#45;&gt;Node16 -->
<g id="edge22" class="edge">
<title>Node3&#45;&gt;Node16</title>
<path fill="none" stroke="#191970" d="M247.6954,-257.4639C232.222,-248.3044 213.4817,-236.4667 198.4531,-226.4038"/>
<polygon fill="#191970" stroke="#191970" points="200.3243,-223.4438 190.0861,-220.7177 196.3897,-229.2334 200.3243,-223.4438"/>
</g>
<!-- Node6 -->
<g id="node7" class="node">
<title>Node6</title>
<polygon fill="none" stroke="#bfbfbf" points="386,-.5 386,-19.5 448,-19.5 448,-.5 386,-.5"/>
<text text-anchor="middle" x="417" y="-7.5" font-family="Helvetica,sans-Serif" font-size="10.00" fill="#000000">type_traits</text>
</g>
<!-- Node5&#45;&gt;Node6 -->
<g id="edge7" class="edge">
<title>Node5&#45;&gt;Node6</title>
<path fill="none" stroke="#191970" d="M478.7303,-56.2977C466.3994,-47.0495 450.6734,-35.2551 438.1803,-25.8853"/>
<polygon fill="#191970" stroke="#191970" points="440.2293,-23.047 430.1292,-19.8469 436.0292,-28.647 440.2293,-23.047"/>
</g>
<!-- Node7 -->
<g id="node8" class="node">
<title>Node7</title>
<polygon fill="none" stroke="#bfbfbf" points="466,-.5 466,-19.5 532,-19.5 532,-.5 466,-.5"/>
<text text-anchor="middle" x="499" y="-7.5" font-family="Helvetica,sans-Serif" font-size="10.00" fill="#000000">string_view</text>
</g>
<!-- Node5&#45;&gt;Node7 -->
<g id="edge8" class="edge">
<title>Node5&#45;&gt;Node7</title>
<path fill="none" stroke="#191970" d="M499,-56.2977C499,-48.3834 499,-38.6043 499,-30.0759"/>
<polygon fill="#191970" stroke="#191970" points="502.5001,-29.8469 499,-19.8469 495.5001,-29.847 502.5001,-29.8469"/>
</g>
<!-- Node8 -->
<g id="node9" class="node">
<title>Node8</title>
<polygon fill="none" stroke="#bfbfbf" points="550.5,-.5 550.5,-19.5 615.5,-19.5 615.5,-.5 550.5,-.5"/>
<text text-anchor="middle" x="583" y="-7.5" font-family="Helvetica,sans-Serif" font-size="10.00" fill="#000000">Eigen/Core</text>
</g>
<!-- Node5&#45;&gt;Node8 -->
<g id="edge9" class="edge">
<title>Node5&#45;&gt;Node8</title>
<path fill="none" stroke="#191970" d="M519.7641,-56.2977C532.3958,-47.0495 548.5053,-35.2551 561.3031,-25.8853"/>
<polygon fill="#191970" stroke="#191970" points="563.5495,-28.5784 569.5505,-19.8469 559.4143,-22.9303 563.5495,-28.5784"/>
</g>
<!-- Node9&#45;&gt;Node1 -->
<g id="edge11" class="edge">
<title>Node9&#45;&gt;Node1</title>
<path fill="none" stroke="#191970" d="M425.0321,-190.3444C421.5493,-173.6014 415.194,-145.9686 407,-123 403.0149,-111.8294 397.4791,-99.7915 392.7282,-90.1651"/>
<polygon fill="#191970" stroke="#191970" points="395.7999,-88.4836 388.1594,-81.1437 389.5551,-91.6463 395.7999,-88.4836"/>
</g>
<!-- Node9&#45;&gt;Node2 -->
<g id="edge13" class="edge">
<title>Node9&#45;&gt;Node2</title>
<path fill="none" stroke="#191970" d="M416.2004,-190.2967C408.3345,-180.1618 397.9673,-166.804 389.7312,-156.1921"/>
<polygon fill="#191970" stroke="#191970" points="392.312,-153.8089 383.4158,-148.055 386.7821,-158.1008 392.312,-153.8089"/>
</g>
<!-- Node9&#45;&gt;Node5 -->
<g id="edge21" class="edge">
<title>Node9&#45;&gt;Node5</title>
<path fill="none" stroke="#191970" d="M436.0066,-190.389C448.2045,-167.3676 471.5608,-123.2866 486.1512,-95.7499"/>
<polygon fill="#191970" stroke="#191970" points="489.3245,-97.2364 490.9137,-86.7614 483.1391,-93.959 489.3245,-97.2364"/>
</g>
<!-- Node10 -->
<g id="node11" class="node">
<title>Node10</title>
<polygon fill="none" stroke="#bfbfbf" points="938.5,-129 938.5,-148 979.5,-148 979.5,-129 938.5,-129"/>
<text text-anchor="middle" x="959" y="-136" font-family="Helvetica,sans-Serif" font-size="10.00" fill="#000000">string</text>
</g>
<!-- Node9&#45;&gt;Node10 -->
<g id="edge12" class="edge">
<title>Node9&#45;&gt;Node10</title>
<path fill="none" stroke="#191970" d="M504.3874,-191.4462C507.6321,-190.9398 510.8467,-190.4551 514,-190 660.4613,-168.8632 698.1165,-171.9698 845,-154 873.2404,-150.5451 905.3479,-146.1361 928.2761,-142.9045"/>
<polygon fill="#191970" stroke="#191970" points="929.017,-146.3346 938.4271,-141.4661 928.0349,-139.4038 929.017,-146.3346"/>
</g>
<!-- Node11 -->
<g id="node12" class="node">
<title>Node11</title>
<g id="a_node12"><a xlink:href="Vector_8h_source.html" target="_top" xlink:title="BipedalLocomotion/Generic\lContainer/Vector.h">
<polygon fill="none" stroke="#000000" points="700,-123.5 700,-153.5 836,-153.5 836,-123.5 700,-123.5"/>
<text text-anchor="start" x="708" y="-141.5" font-family="Helvetica,sans-Serif" font-size="10.00" fill="#000000">BipedalLocomotion/Generic</text>
<text text-anchor="middle" x="768" y="-130.5" font-family="Helvetica,sans-Serif" font-size="10.00" fill="#000000">Container/Vector.h</text>
</a>
</g>
</g>
<!-- Node9&#45;&gt;Node11 -->
<g id="edge14" class="edge">
<title>Node9&#45;&gt;Node11</title>
<path fill="none" stroke="#191970" d="M504.3026,-190.4639C559.6197,-179.5632 634.1854,-164.8693 689.911,-153.8881"/>
<polygon fill="#191970" stroke="#191970" points="690.602,-157.3194 699.7366,-151.9519 689.2485,-150.4514 690.602,-157.3194"/>
</g>
<!-- Node11&#45;&gt;Node1 -->
<g id="edge20" class="edge">
<title>Node11&#45;&gt;Node1</title>
<path fill="none" stroke="#191970" d="M699.5912,-125.2869C694.9963,-124.4865 690.4339,-123.7163 686,-123 567.3574,-103.8323 533.6582,-119.6595 418,-87 415.8175,-86.3837 413.595,-85.6563 411.3819,-84.8584"/>
<polygon fill="#191970" stroke="#191970" points="412.4761,-81.5259 401.8927,-81.0343 409.8596,-88.0185 412.4761,-81.5259"/>
</g>
<!-- Node11&#45;&gt;Node5 -->
<g id="edge16" class="edge">
<title>Node11&#45;&gt;Node5</title>
<path fill="none" stroke="#191970" d="M707.6311,-123.4639C666.6742,-113.2627 612.3802,-99.7397 569.4466,-89.0462"/>
<polygon fill="#191970" stroke="#191970" points="570.1816,-85.6224 559.6322,-86.6017 568.4898,-92.4149 570.1816,-85.6224"/>
</g>
<!-- Node12 -->
<g id="node13" class="node">
<title>Node12</title>
<polygon fill="none" stroke="#bfbfbf" points="603,-62 603,-81 717,-81 717,-62 603,-62"/>
<text text-anchor="middle" x="660" y="-69" font-family="Helvetica,sans-Serif" font-size="10.00" fill="#000000">iDynTree/Core/Span.h</text>
</g>
<!-- Node11&#45;&gt;Node12 -->
<g id="edge15" class="edge">
<title>Node11&#45;&gt;Node12</title>
<path fill="none" stroke="#191970" d="M743.7627,-123.4639C725.9682,-112.4247 701.9031,-97.4954 684.1331,-86.4715"/>
<polygon fill="#191970" stroke="#191970" points="685.8237,-83.4015 675.4809,-81.1039 682.1335,-89.3498 685.8237,-83.4015"/>
</g>
<!-- Node13 -->
<g id="node14" class="node">
<title>Node13</title>
<polygon fill="none" stroke="#bfbfbf" points="735.5,-62 735.5,-81 794.5,-81 794.5,-62 735.5,-62"/>
<text text-anchor="middle" x="765" y="-69" font-family="Helvetica,sans-Serif" font-size="10.00" fill="#000000">functional</text>
</g>
<!-- Node11&#45;&gt;Node13 -->
<g id="edge17" class="edge">
<title>Node11&#45;&gt;Node13</title>
<path fill="none" stroke="#191970" d="M767.3193,-123.2967C766.8927,-113.7699 766.3386,-101.3954 765.879,-91.1306"/>
<polygon fill="#191970" stroke="#191970" points="769.3717,-90.8884 765.4278,-81.055 762.3787,-91.2016 769.3717,-90.8884"/>
</g>
<!-- Node14 -->
<g id="node15" class="node">
<title>Node14</title>
<polygon fill="none" stroke="#bfbfbf" points="812.5,-62 812.5,-81 861.5,-81 861.5,-62 812.5,-62"/>
<text text-anchor="middle" x="837" y="-69" font-family="Helvetica,sans-Serif" font-size="10.00" fill="#000000">cassert</text>
</g>
<!-- Node11&#45;&gt;Node14 -->
<g id="edge18" class="edge">
<title>Node11&#45;&gt;Node14</title>
<path fill="none" stroke="#191970" d="M783.6572,-123.2967C794.4077,-112.8578 808.6794,-98.9997 819.7555,-88.2446"/>
<polygon fill="#191970" stroke="#191970" points="822.4237,-90.5323 827.1598,-81.055 817.5473,-85.5103 822.4237,-90.5323"/>
</g>
<!-- Node15 -->
<g id="node16" class="node">
<title>Node15</title>
<polygon fill="none" stroke="#bfbfbf" points="880,-62 880,-81 934,-81 934,-62 880,-62"/>
<text text-anchor="middle" x="907" y="-69" font-family="Helvetica,sans-Serif" font-size="10.00" fill="#000000">iostream</text>
</g>
<!-- Node11&#45;&gt;Node15 -->
<g id="edge19" class="edge">
<title>Node11&#45;&gt;Node15</title>
<path fill="none" stroke="#191970" d="M799.1943,-123.4639C822.7268,-112.1209 854.7802,-96.6707 877.8094,-85.5703"/>
<polygon fill="#191970" stroke="#191970" points="879.587,-88.5989 887.0754,-81.1039 876.5476,-82.2932 879.587,-88.5989"/>
</g>
<!-- Node16&#45;&gt;Node3 -->
<g id="edge23" class="edge">
<title>Node16&#45;&gt;Node3</title>
<path fill="none" stroke="#191970" d="M201.4854,-220.6432C216.9405,-229.7976 235.6171,-241.5979 250.5954,-251.6286"/>
<polygon fill="#191970" stroke="#191970" points="248.6967,-254.57 258.9347,-257.2967 252.6316,-248.7807 248.6967,-254.57"/>
</g>
<!-- Node18 -->
<g id="node19" class="node">
<title>Node18</title>
<polygon fill="none" stroke="#bfbfbf" points="522.5,-196 522.5,-215 647.5,-215 647.5,-196 522.5,-196"/>
<text text-anchor="middle" x="585" y="-203" font-family="Helvetica,sans-Serif" font-size="10.00" fill="#000000">iDynTree/Core/Wrench.h</text>
</g>
<!-- Node17&#45;&gt;Node18 -->
<g id="edge25" class="edge">
<title>Node17&#45;&gt;Node18</title>
<path fill="none" stroke="#191970" d="M537.9767,-324.389C547.6799,-299.8564 566.842,-251.4088 577.4646,-224.5517"/>
<polygon fill="#191970" stroke="#191970" points="580.778,-225.6905 581.2013,-215.1042 574.2686,-223.1159 580.778,-225.6905"/>
</g>
<!-- Node19 -->
<g id="node20" class="node">
<title>Node19</title>
<polygon fill="none" stroke="#bfbfbf" points="1002,-263 1002,-282 1130,-282 1130,-263 1002,-263"/>
<text text-anchor="middle" x="1066" y="-270" font-family="Helvetica,sans-Serif" font-size="10.00" fill="#000000">iDynTree/Model/Indices.h</text>
</g>
<!-- Node17&#45;&gt;Node19 -->
<g id="edge26" class="edge">
<title>Node17&#45;&gt;Node19</title>
<path fill="none" stroke="#191970" d="M600.4155,-325.4927C603.6506,-324.96 606.8578,-324.4586 610,-324 779.1798,-299.3058 823.9851,-313.7984 993,-288 1000.2204,-286.8979 1007.8008,-285.5295 1015.2326,-284.0656"/>
<polygon fill="#191970" stroke="#191970" points="1016.1285,-287.455 1025.2268,-282.0261 1014.7289,-280.5963 1016.1285,-287.455"/>
</g>
<!-- Node20 -->
<g id="node21" class="node">
<title>Node20</title>
<g id="a_node21"><a xlink:href="ContactModel_8h.html" target="_top" xlink:title="BipedalLocomotion/Contact\lModels/ContactModel.h">
<polygon fill="none" stroke="#000000" points="846.5,-257.5 846.5,-287.5 983.5,-287.5 983.5,-257.5 846.5,-257.5"/>
<text text-anchor="start" x="854.5" y="-275.5" font-family="Helvetica,sans-Serif" font-size="10.00" fill="#000000">BipedalLocomotion/Contact</text>
<text text-anchor="middle" x="915" y="-264.5" font-family="Helvetica,sans-Serif" font-size="10.00" fill="#000000">Models/ContactModel.h</text>
</a>
</g>
</g>
<!-- Node17&#45;&gt;Node20 -->
<g id="edge27" class="edge">
<title>Node17&#45;&gt;Node20</title>
<path fill="none" stroke="#191970" d="M600.0422,-325.8586C603.4075,-325.2216 606.741,-324.5988 610,-324 686.7983,-309.8887 774.752,-295.193 836.4128,-285.1293"/>
<polygon fill="#191970" stroke="#191970" points="837.1527,-288.5549 846.4598,-283.4925 836.0271,-281.646 837.1527,-288.5549"/>
</g>
<!-- Node20&#45;&gt;Node1 -->
<g id="edge29" class="edge">
<title>Node20&#45;&gt;Node1</title>
<path fill="none" stroke="#191970" d="M846.3592,-264.604C801.5347,-257.5132 742.6952,-244.4598 695,-221 675.442,-211.38 675.6315,-201.3106 657,-190 558.1265,-129.9768 523.9923,-133.3077 418,-87 416.6298,-86.4014 415.2301,-85.7882 413.8167,-85.1678"/>
<polygon fill="#191970" stroke="#191970" points="415.0186,-81.8727 404.4563,-81.0426 412.1956,-88.2782 415.0186,-81.8727"/>
</g>
<!-- Node20&#45;&gt;Node9 -->
<g id="edge38" class="edge">
<title>Node20&#45;&gt;Node9</title>
<path fill="none" stroke="#191970" d="M846.3807,-264.7577C768.5212,-255.7315 637.5029,-239.8145 514.383,-221.0105"/>
<polygon fill="#191970" stroke="#191970" points="514.8145,-217.5358 504.3989,-219.4766 513.7514,-224.4546 514.8145,-217.5358"/>
</g>
<!-- Node20&#45;&gt;Node10 -->
<g id="edge30" class="edge">
<title>Node20&#45;&gt;Node10</title>
<path fill="none" stroke="#191970" d="M958.2519,-257.3832C974.6676,-249.2891 991.6468,-237.503 1001,-221 1013.7136,-198.5678 993.998,-171.8512 977.5057,-155.0299"/>
<polygon fill="#191970" stroke="#191970" points="979.9056,-152.4819 970.283,-148.0484 975.0406,-157.515 979.9056,-152.4819"/>
</g>
<!-- Node20&#45;&gt;Node18 -->
<g id="edge37" class="edge">
<title>Node20&#45;&gt;Node18</title>
<path fill="none" stroke="#191970" d="M846.2229,-258.5362C785.6367,-246.2353 698.4449,-228.5327 641.7579,-217.0236"/>
<polygon fill="#191970" stroke="#191970" points="642.386,-213.5798 631.8895,-215.02 640.9931,-220.4398 642.386,-213.5798"/>
</g>
<!-- Node21 -->
<g id="node22" class="node">
<title>Node21</title>
<polygon fill="none" stroke="#bfbfbf" points="1048,-196 1048,-215 1080,-215 1080,-196 1048,-196"/>
<text text-anchor="middle" x="1064" y="-203" font-family="Helvetica,sans-Serif" font-size="10.00" fill="#000000">any</text>
</g>
<!-- Node20&#45;&gt;Node21 -->
<g id="edge28" class="edge">
<title>Node20&#45;&gt;Node21</title>
<path fill="none" stroke="#191970" d="M951.4831,-257.474C975.1816,-247.5267 1006.6405,-233.9695 1034,-221 1035.566,-220.2576 1037.1704,-219.48 1038.7835,-218.6852"/>
<polygon fill="#191970" stroke="#191970" points="1040.5647,-221.7066 1047.9091,-214.0705 1037.4057,-215.4599 1040.5647,-221.7066"/>
</g>
<!-- Node22 -->
<g id="node23" class="node">
<title>Node22</title>
<polygon fill="none" stroke="#bfbfbf" points="1098.5,-196 1098.5,-215 1181.5,-215 1181.5,-196 1098.5,-196"/>
<text text-anchor="middle" x="1140" y="-203" font-family="Helvetica,sans-Serif" font-size="10.00" fill="#000000">unordered_map</text>
</g>
<!-- Node20&#45;&gt;Node22 -->
<g id="edge31" class="edge">
<title>Node20&#45;&gt;Node22</title>
<path fill="none" stroke="#191970" d="M966.0408,-257.4994C1000.734,-247.2772 1047.6595,-233.3999 1089,-221 1092.2907,-220.013 1095.6996,-218.9862 1099.1231,-217.9521"/>
<polygon fill="#191970" stroke="#191970" points="1100.1678,-221.2928 1108.7242,-215.0447 1098.139,-214.5932 1100.1678,-221.2928"/>
</g>
<!-- Node23 -->
<g id="node24" class="node">
<title>Node23</title>
<polygon fill="none" stroke="#bfbfbf" points="1200,-196 1200,-215 1356,-215 1356,-196 1200,-196"/>
<text text-anchor="middle" x="1278" y="-203" font-family="Helvetica,sans-Serif" font-size="10.00" fill="#000000">iDynTree/Core/MatrixDynSize.h</text>
</g>
<!-- Node20&#45;&gt;Node23 -->
<g id="edge32" class="edge">
<title>Node20&#45;&gt;Node23</title>
<path fill="none" stroke="#191970" d="M983.8909,-258.7427C986.9685,-258.1494 990.0158,-257.5661 993,-257 1034.4339,-249.1402 1143.941,-229.4678 1214.5171,-216.8386"/>
<polygon fill="#191970" stroke="#191970" points="1215.4074,-220.235 1224.6347,-215.0287 1214.1747,-213.3444 1215.4074,-220.235"/>
</g>
<!-- Node24 -->
<g id="node25" class="node">
<title>Node24</title>
<polygon fill="none" stroke="#bfbfbf" points="1374,-196 1374,-215 1526,-215 1526,-196 1374,-196"/>
<text text-anchor="middle" x="1450" y="-203" font-family="Helvetica,sans-Serif" font-size="10.00" fill="#000000">iDynTree/Core/MatrixFixSize.h</text>
</g>
<!-- Node20&#45;&gt;Node24 -->
<g id="edge33" class="edge">
<title>Node20&#45;&gt;Node24</title>
<path fill="none" stroke="#191970" d="M983.8388,-258.4337C986.9305,-257.924 989.995,-257.4428 993,-257 1157.3308,-232.7823 1200.4831,-243.9194 1365,-221 1373.6355,-219.797 1382.7316,-218.3412 1391.6338,-216.8094"/>
<polygon fill="#191970" stroke="#191970" points="1392.3276,-220.2411 1401.5676,-215.0572 1391.1116,-213.3476 1392.3276,-220.2411"/>
</g>
<!-- Node25 -->
<g id="node26" class="node">
<title>Node25</title>
<polygon fill="none" stroke="#bfbfbf" points="1544,-196 1544,-215 1680,-215 1680,-196 1544,-196"/>
<text text-anchor="middle" x="1612" y="-203" font-family="Helvetica,sans-Serif" font-size="10.00" fill="#000000">iDynTree/Core/Transform.h</text>
</g>
<!-- Node20&#45;&gt;Node25 -->
<g id="edge34" class="edge">
<title>Node20&#45;&gt;Node25</title>
<path fill="none" stroke="#191970" d="M983.8229,-258.3201C986.9189,-257.8411 989.9887,-257.3975 993,-257 1232.3435,-225.4063 1295.6959,-252.8907 1535,-221 1543.072,-219.9243 1551.5682,-218.507 1559.8514,-216.966"/>
<polygon fill="#191970" stroke="#191970" points="1560.6536,-220.3757 1569.8065,-215.0396 1559.3237,-213.5032 1560.6536,-220.3757"/>
</g>
<!-- Node26 -->
<g id="node27" class="node">
<title>Node26</title>
<polygon fill="none" stroke="#bfbfbf" points="704,-196 704,-215 820,-215 820,-196 704,-196"/>
<text text-anchor="middle" x="762" y="-203" font-family="Helvetica,sans-Serif" font-size="10.00" fill="#000000">iDynTree/Core/Twist.h</text>
</g>
<!-- Node20&#45;&gt;Node26 -->
<g id="edge35" class="edge">
<title>Node20&#45;&gt;Node26</title>
<path fill="none" stroke="#191970" d="M880.6638,-257.4639C854.4142,-245.969 818.5326,-230.2561 793.1175,-219.1266"/>
<polygon fill="#191970" stroke="#191970" points="794.4955,-215.9092 783.9313,-215.1039 791.6876,-222.3214 794.4955,-215.9092"/>
</g>
<!-- Node27 -->
<g id="node28" class="node">
<title>Node27</title>
<polygon fill="none" stroke="#bfbfbf" points="838.5,-196 838.5,-215 991.5,-215 991.5,-196 838.5,-196"/>
<text text-anchor="middle" x="915" y="-203" font-family="Helvetica,sans-Serif" font-size="10.00" fill="#000000">iDynTree/Core/VectorFixSize.h</text>
</g>
<!-- Node20&#45;&gt;Node27 -->
<g id="edge36" class="edge">
<title>Node20&#45;&gt;Node27</title>
<path fill="none" stroke="#191970" d="M915,-257.2967C915,-247.7699 915,-235.3954 915,-225.1306"/>
<polygon fill="#191970" stroke="#191970" points="918.5001,-225.0549 915,-215.055 911.5001,-225.055 918.5001,-225.0549"/>
</g>
</g>
</svg>
