<?xml version="1.0" encoding="UTF-8" standalone="no"?>
<!DOCTYPE svg PUBLIC "-//W3C//DTD SVG 1.1//EN"
 "http://www.w3.org/Graphics/SVG/1.1/DTD/svg11.dtd">
<!-- Generated by graphviz version 2.40.1 (20161225.0304)
 -->
<!-- Title: Estimators/src/FloatingBaseEstimator.cpp Pages: 1 -->
<svg width="1512pt" height="374pt"
 viewBox="0.00 0.00 1511.50 374.00" xmlns="http://www.w3.org/2000/svg" xmlns:xlink="http://www.w3.org/1999/xlink">
<g id="graph0" class="graph" transform="scale(1 1) rotate(0) translate(4 370)">
<title>Estimators/src/FloatingBaseEstimator.cpp</title>
<!-- Node0 -->
<g id="node1" class="node">
<title>Node0</title>
<polygon fill="#bfbfbf" stroke="#000000" points="1214,-335.5 1214,-365.5 1354,-365.5 1354,-335.5 1214,-335.5"/>
<text text-anchor="start" x="1222" y="-353.5" font-family="Helvetica,sans-Serif" font-size="10.00" fill="#000000">Estimators/src/FloatingBase</text>
<text text-anchor="middle" x="1284" y="-342.5" font-family="Helvetica,sans-Serif" font-size="10.00" fill="#000000">Estimator.cpp</text>
</g>
<!-- Node1 -->
<g id="node2" class="node">
<title>Node1</title>
<g id="a_node2"><a xlink:href="FloatingBaseEstimator_8h.html" target="_top" xlink:title="BipedalLocomotion/Floating\lBaseEstimators/FloatingBaseEstimator.h">
<polygon fill="none" stroke="#000000" points="452.5,-268.5 452.5,-298.5 649.5,-298.5 649.5,-268.5 452.5,-268.5"/>
<text text-anchor="start" x="460.5" y="-286.5" font-family="Helvetica,sans-Serif" font-size="10.00" fill="#000000">BipedalLocomotion/Floating</text>
<text text-anchor="middle" x="551" y="-275.5" font-family="Helvetica,sans-Serif" font-size="10.00" fill="#000000">BaseEstimators/FloatingBaseEstimator.h</text>
</a>
</g>
</g>
<!-- Node0&#45;&gt;Node1 -->
<g id="edge1" class="edge">
<title>Node0&#45;&gt;Node1</title>
<path fill="none" stroke="#191970" d="M1213.7169,-344.0758C1085.4269,-332.3494 812.5046,-307.4029 659.9528,-293.4589"/>
<polygon fill="#191970" stroke="#191970" points="659.9082,-289.9403 649.6311,-292.5154 659.271,-296.9112 659.9082,-289.9403"/>
</g>
<!-- Node24 -->
<g id="node25" class="node">
<title>Node24</title>
<g id="a_node25"><a xlink:href="ManifConversions_8h.html" target="_top" xlink:title="BipedalLocomotion/Conversions\l/ManifConversions.h">
<polygon fill="none" stroke="#000000" points="1205.5,-268.5 1205.5,-298.5 1362.5,-298.5 1362.5,-268.5 1205.5,-268.5"/>
<text text-anchor="start" x="1213.5" y="-286.5" font-family="Helvetica,sans-Serif" font-size="10.00" fill="#000000">BipedalLocomotion/Conversions</text>
<text text-anchor="middle" x="1284" y="-275.5" font-family="Helvetica,sans-Serif" font-size="10.00" fill="#000000">/ManifConversions.h</text>
</a>
</g>
</g>
<!-- Node0&#45;&gt;Node24 -->
<g id="edge30" class="edge">
<title>Node0&#45;&gt;Node24</title>
<path fill="none" stroke="#191970" d="M1284,-335.2967C1284,-327.5013 1284,-317.7991 1284,-308.9064"/>
<polygon fill="#191970" stroke="#191970" points="1287.5001,-308.6431 1284,-298.6432 1280.5001,-308.6432 1287.5001,-308.6431"/>
</g>
<!-- Node27 -->
<g id="node28" class="node">
<title>Node27</title>
<polygon fill="none" stroke="#bfbfbf" points="1380.5,-274 1380.5,-293 1503.5,-293 1503.5,-274 1380.5,-274"/>
<text text-anchor="middle" x="1442" y="-281" font-family="Helvetica,sans-Serif" font-size="10.00" fill="#000000">iDynTree/Model/Model.h</text>
</g>
<!-- Node0&#45;&gt;Node27 -->
<g id="edge34" class="edge">
<title>Node0&#45;&gt;Node27</title>
<path fill="none" stroke="#191970" d="M1319.4583,-335.4639C1346.5657,-323.969 1383.6199,-308.2561 1409.8655,-297.1266"/>
<polygon fill="#191970" stroke="#191970" points="1411.5119,-300.2302 1419.3519,-293.1039 1408.7791,-293.7857 1411.5119,-300.2302"/>
</g>
<!-- Node2 -->
<g id="node3" class="node">
<title>Node2</title>
<g id="a_node3"><a xlink:href="Advanceable_8h.html" target="_top" xlink:title="BipedalLocomotion/System\l/Advanceable.h">
<polygon fill="none" stroke="#000000" points="0,-196 0,-226 136,-226 136,-196 0,-196"/>
<text text-anchor="start" x="8" y="-214" font-family="Helvetica,sans-Serif" font-size="10.00" fill="#000000">BipedalLocomotion/System</text>
<text text-anchor="middle" x="68" y="-203" font-family="Helvetica,sans-Serif" font-size="10.00" fill="#000000">/Advanceable.h</text>
</a>
</g>
</g>
<!-- Node1&#45;&gt;Node2 -->
<g id="edge2" class="edge">
<title>Node1&#45;&gt;Node2</title>
<path fill="none" stroke="#191970" d="M452.41,-274.2544C370.9088,-265.7946 252.3715,-251.6052 150,-232 144.3598,-230.9198 138.5307,-229.6801 132.702,-228.3547"/>
<polygon fill="#191970" stroke="#191970" points="133.4619,-224.938 122.9263,-226.0563 131.8597,-231.7522 133.4619,-224.938"/>
</g>
<!-- Node3 -->
<g id="node4" class="node">
<title>Node3</title>
<g id="a_node4"><a xlink:href="IParametersHandler_8h.html" target="_top" xlink:title="BipedalLocomotion/Parameters\lHandler/IParametersHandler.h">
<polygon fill="none" stroke="#000000" points="268,-196 268,-226 420,-226 420,-196 268,-196"/>
<text text-anchor="start" x="276" y="-214" font-family="Helvetica,sans-Serif" font-size="10.00" fill="#000000">BipedalLocomotion/Parameters</text>
<text text-anchor="middle" x="344" y="-203" font-family="Helvetica,sans-Serif" font-size="10.00" fill="#000000">Handler/IParametersHandler.h</text>
</a>
</g>
</g>
<!-- Node1&#45;&gt;Node3 -->
<g id="edge3" class="edge">
<title>Node1&#45;&gt;Node3</title>
<path fill="none" stroke="#191970" d="M508.1095,-268.478C475.6362,-257.1045 430.8725,-241.4263 396.2984,-229.3171"/>
<polygon fill="#191970" stroke="#191970" points="397.4304,-226.0051 386.8356,-226.0028 395.1165,-232.6117 397.4304,-226.0051"/>
</g>
<!-- Node4 -->
<g id="node5" class="node">
<title>Node4</title>
<polygon fill="none" stroke="#bfbfbf" points="139,-62 139,-81 191,-81 191,-62 139,-62"/>
<text text-anchor="middle" x="165" y="-69" font-family="Helvetica,sans-Serif" font-size="10.00" fill="#000000">memory</text>
</g>
<!-- Node1&#45;&gt;Node4 -->
<g id="edge29" class="edge">
<title>Node1&#45;&gt;Node4</title>
<path fill="none" stroke="#191970" d="M452.2425,-273.2022C380.8576,-264.4393 291.495,-250.3551 259,-232 218.9559,-209.3807 213.4981,-194.1123 191,-154 179.7912,-134.0156 172.7076,-108.5468 168.8136,-91.2301"/>
<polygon fill="#191970" stroke="#191970" points="172.1814,-90.2363 166.7039,-81.1673 165.3303,-91.6727 172.1814,-90.2363"/>
</g>
<!-- Node15 -->
<g id="node16" class="node">
<title>Node15</title>
<polygon fill="none" stroke="#bfbfbf" points="649,-62 649,-81 703,-81 703,-62 649,-62"/>
<text text-anchor="middle" x="676" y="-69" font-family="Helvetica,sans-Serif" font-size="10.00" fill="#000000">iostream</text>
</g>
<!-- Node1&#45;&gt;Node15 -->
<g id="edge28" class="edge">
<title>Node1&#45;&gt;Node15</title>
<path fill="none" stroke="#191970" d="M533.7153,-268.1841C524.4537,-258.7871 513.9537,-245.9121 509,-232 502.7385,-214.4148 500.9016,-206.8184 509,-190 523.4409,-160.0098 606.1116,-110.4887 649.4673,-86.0566"/>
<polygon fill="#191970" stroke="#191970" points="651.3119,-89.0352 658.3335,-81.1013 647.8968,-82.9248 651.3119,-89.0352"/>
</g>
<!-- Node16 -->
<g id="node17" class="node">
<title>Node16</title>
<g id="a_node17"><a xlink:href="FloatingBaseEstimatorParams_8h.html" target="_top" xlink:title="BipedalLocomotion/Floating\lBaseEstimators/FloatingBaseEstimator\lParams.h">
<polygon fill="none" stroke="#000000" points="518,-190.5 518,-231.5 706,-231.5 706,-190.5 518,-190.5"/>
<text text-anchor="start" x="526" y="-219.5" font-family="Helvetica,sans-Serif" font-size="10.00" fill="#000000">BipedalLocomotion/Floating</text>
<text text-anchor="start" x="526" y="-208.5" font-family="Helvetica,sans-Serif" font-size="10.00" fill="#000000">BaseEstimators/FloatingBaseEstimator</text>
<text text-anchor="middle" x="612" y="-197.5" font-family="Helvetica,sans-Serif" font-size="10.00" fill="#000000">Params.h</text>
</a>
</g>
</g>
<!-- Node1&#45;&gt;Node16 -->
<g id="edge18" class="edge">
<title>Node1&#45;&gt;Node16</title>
<path fill="none" stroke="#191970" d="M563.6392,-268.478C570.7435,-260.0344 579.8439,-249.2183 588.23,-239.2513"/>
<polygon fill="#191970" stroke="#191970" points="590.9905,-241.4067 594.7505,-231.5015 585.6342,-236.9 590.9905,-241.4067"/>
</g>
<!-- Node18 -->
<g id="node19" class="node">
<title>Node18</title>
<g id="a_node19"><a xlink:href="FloatingBaseEstimatorIO_8h.html" target="_top" xlink:title="BipedalLocomotion/Floating\lBaseEstimators/FloatingBaseEstimatorIO.h">
<polygon fill="none" stroke="#000000" points="724.5,-196 724.5,-226 931.5,-226 931.5,-196 724.5,-196"/>
<text text-anchor="start" x="732.5" y="-214" font-family="Helvetica,sans-Serif" font-size="10.00" fill="#000000">BipedalLocomotion/Floating</text>
<text text-anchor="middle" x="828" y="-203" font-family="Helvetica,sans-Serif" font-size="10.00" fill="#000000">BaseEstimators/FloatingBaseEstimatorIO.h</text>
</a>
</g>
</g>
<!-- Node1&#45;&gt;Node18 -->
<g id="edge20" class="edge">
<title>Node1&#45;&gt;Node18</title>
<path fill="none" stroke="#191970" d="M608.3946,-268.478C652.7777,-256.8614 714.3178,-240.7544 760.963,-228.5458"/>
<polygon fill="#191970" stroke="#191970" points="761.8911,-231.9209 770.6789,-226.0028 760.1186,-225.149 761.8911,-231.9209"/>
</g>
<!-- Node23 -->
<g id="node24" class="node">
<title>Node23</title>
<polygon fill="none" stroke="#bfbfbf" points="949.5,-201.5 949.5,-220.5 1110.5,-220.5 1110.5,-201.5 949.5,-201.5"/>
<text text-anchor="middle" x="1030" y="-208.5" font-family="Helvetica,sans-Serif" font-size="10.00" fill="#000000">iDynTree/KinDynComputations.h</text>
</g>
<!-- Node1&#45;&gt;Node23 -->
<g id="edge27" class="edge">
<title>Node1&#45;&gt;Node23</title>
<path fill="none" stroke="#191970" d="M649.7377,-273.1237C728.6159,-264.1867 841.8184,-249.9095 940,-232 954.0985,-229.4283 969.3152,-226.0946 983.1534,-222.8439"/>
<polygon fill="#191970" stroke="#191970" points="984.0374,-226.2313 992.9505,-220.5036 982.4109,-219.4229 984.0374,-226.2313"/>
</g>
<!-- Node3&#45;&gt;Node4 -->
<g id="edge4" class="edge">
<title>Node3&#45;&gt;Node4</title>
<path fill="none" stroke="#191970" d="M296.4651,-195.8927C272.0814,-186.5198 242.9731,-172.666 221,-154 199.9611,-136.1275 183.4035,-108.5085 173.908,-90.2209"/>
<polygon fill="#191970" stroke="#191970" points="176.9739,-88.526 169.3757,-81.1423 170.7109,-91.6526 176.9739,-88.526"/>
</g>
<!-- Node5 -->
<g id="node6" class="node">
<title>Node5</title>
<polygon fill="none" stroke="#bfbfbf" points="729.5,-62 729.5,-81 770.5,-81 770.5,-62 729.5,-62"/>
<text text-anchor="middle" x="750" y="-69" font-family="Helvetica,sans-Serif" font-size="10.00" fill="#000000">string</text>
</g>
<!-- Node3&#45;&gt;Node5 -->
<g id="edge5" class="edge">
<title>Node3&#45;&gt;Node5</title>
<path fill="none" stroke="#191970" d="M384.7797,-195.9394C433.9355,-177.9361 519.1511,-147.2059 593,-123 645.5074,-105.7893 659.9169,-105.4548 712,-87 714.5562,-86.0943 717.1923,-85.1152 719.8281,-84.1046"/>
<polygon fill="#191970" stroke="#191970" points="721.22,-87.3179 729.2287,-80.3817 718.6425,-80.8097 721.22,-87.3179"/>
</g>
<!-- Node6 -->
<g id="node7" class="node">
<title>Node6</title>
<polygon fill="none" stroke="#bfbfbf" points="230,-129 230,-148 274,-148 274,-129 230,-129"/>
<text text-anchor="middle" x="252" y="-136" font-family="Helvetica,sans-Serif" font-size="10.00" fill="#000000">vector</text>
</g>
<!-- Node3&#45;&gt;Node6 -->
<g id="edge6" class="edge">
<title>Node3&#45;&gt;Node6</title>
<path fill="none" stroke="#191970" d="M324.9375,-195.978C309.5724,-183.8696 288.0161,-166.8823 272.3244,-154.5165"/>
<polygon fill="#191970" stroke="#191970" points="274.3074,-151.623 264.2868,-148.1825 269.9747,-157.1211 274.3074,-151.623"/>
</g>
<!-- Node7 -->
<g id="node8" class="node">
<title>Node7</title>
<g id="a_node8"><a xlink:href="Vector_8h_source.html" target="_top" xlink:title="BipedalLocomotion/Generic\lContainer/Vector.h">
<polygon fill="none" stroke="#000000" points="330,-123.5 330,-153.5 466,-153.5 466,-123.5 330,-123.5"/>
<text text-anchor="start" x="338" y="-141.5" font-family="Helvetica,sans-Serif" font-size="10.00" fill="#000000">BipedalLocomotion/Generic</text>
<text text-anchor="middle" x="398" y="-130.5" font-family="Helvetica,sans-Serif" font-size="10.00" fill="#000000">Container/Vector.h</text>
</a>
</g>
</g>
<!-- Node3&#45;&gt;Node7 -->
<g id="edge7" class="edge">
<title>Node3&#45;&gt;Node7</title>
<path fill="none" stroke="#191970" d="M355.1888,-195.978C362.5741,-186.0626 372.3961,-172.8756 380.7693,-161.6339"/>
<polygon fill="#191970" stroke="#191970" points="383.659,-163.6134 386.8255,-153.5028 378.0451,-159.432 383.659,-163.6134"/>
</g>
<!-- Node9 -->
<g id="node10" class="node">
<title>Node9</title>
<g id="a_node10"><a xlink:href="TemplateHelpers_8h_source.html" target="_top" xlink:title="BipedalLocomotion/Generic\lContainer/TemplateHelpers.h">
<polygon fill="none" stroke="#000000" points="209,-56.5 209,-86.5 353,-86.5 353,-56.5 209,-56.5"/>
<text text-anchor="start" x="217" y="-74.5" font-family="Helvetica,sans-Serif" font-size="10.00" fill="#000000">BipedalLocomotion/Generic</text>
<text text-anchor="middle" x="281" y="-63.5" font-family="Helvetica,sans-Serif" font-size="10.00" fill="#000000">Container/TemplateHelpers.h</text>
</a>
</g>
</g>
<!-- Node3&#45;&gt;Node9 -->
<g id="edge17" class="edge">
<title>Node3&#45;&gt;Node9</title>
<path fill="none" stroke="#191970" d="M337.138,-195.8055C326.2975,-171.8016 305.1069,-124.8796 292.0876,-96.051"/>
<polygon fill="#191970" stroke="#191970" points="295.1593,-94.3489 287.8536,-86.6758 288.7797,-97.2301 295.1593,-94.3489"/>
</g>
<!-- Node7&#45;&gt;Node4 -->
<g id="edge16" class="edge">
<title>Node7&#45;&gt;Node4</title>
<path fill="none" stroke="#191970" d="M329.8275,-123.6597C291.2672,-114.5493 242.4234,-101.8009 200,-87 198.1647,-86.3597 196.2918,-85.6633 194.414,-84.9321"/>
<polygon fill="#191970" stroke="#191970" points="195.7118,-81.6814 185.1339,-81.0835 193.0302,-88.1474 195.7118,-81.6814"/>
</g>
<!-- Node8 -->
<g id="node9" class="node">
<title>Node8</title>
<polygon fill="none" stroke="#bfbfbf" points="439,-62 439,-81 553,-81 553,-62 439,-62"/>
<text text-anchor="middle" x="496" y="-69" font-family="Helvetica,sans-Serif" font-size="10.00" fill="#000000">iDynTree/Core/Span.h</text>
</g>
<!-- Node7&#45;&gt;Node8 -->
<g id="edge8" class="edge">
<title>Node7&#45;&gt;Node8</title>
<path fill="none" stroke="#191970" d="M420.2377,-123.2967C436.2478,-112.351 457.7563,-97.6462 473.7656,-86.701"/>
<polygon fill="#191970" stroke="#191970" points="475.7443,-89.5881 482.0241,-81.055 471.7936,-83.8095 475.7443,-89.5881"/>
</g>
<!-- Node7&#45;&gt;Node9 -->
<g id="edge9" class="edge">
<title>Node7&#45;&gt;Node9</title>
<path fill="none" stroke="#191970" d="M371.7429,-123.4639C355.4489,-114.1332 334.3018,-102.0232 316.5216,-91.8415"/>
<polygon fill="#191970" stroke="#191970" points="317.9914,-88.6499 307.5743,-86.7177 314.5128,-94.7244 317.9914,-88.6499"/>
</g>
<!-- Node13 -->
<g id="node14" class="node">
<title>Node13</title>
<polygon fill="none" stroke="#bfbfbf" points="571.5,-62 571.5,-81 630.5,-81 630.5,-62 571.5,-62"/>
<text text-anchor="middle" x="601" y="-69" font-family="Helvetica,sans-Serif" font-size="10.00" fill="#000000">functional</text>
</g>
<!-- Node7&#45;&gt;Node13 -->
<g id="edge13" class="edge">
<title>Node7&#45;&gt;Node13</title>
<path fill="none" stroke="#191970" d="M449.2949,-123.4582C481.7932,-113.6661 524.5979,-100.2845 562,-87 563.9053,-86.3233 565.8557,-85.6112 567.8192,-84.8792"/>
<polygon fill="#191970" stroke="#191970" points="569.514,-87.9778 577.596,-81.1271 567.0059,-81.4425 569.514,-87.9778"/>
</g>
<!-- Node14 -->
<g id="node15" class="node">
<title>Node14</title>
<polygon fill="none" stroke="#bfbfbf" points="371.5,-62 371.5,-81 420.5,-81 420.5,-62 371.5,-62"/>
<text text-anchor="middle" x="396" y="-69" font-family="Helvetica,sans-Serif" font-size="10.00" fill="#000000">cassert</text>
</g>
<!-- Node7&#45;&gt;Node14 -->
<g id="edge14" class="edge">
<title>Node7&#45;&gt;Node14</title>
<path fill="none" stroke="#191970" d="M397.5462,-123.2967C397.2618,-113.7699 396.8924,-101.3954 396.586,-91.1306"/>
<polygon fill="#191970" stroke="#191970" points="400.0821,-90.9461 396.2852,-81.055 393.0853,-91.155 400.0821,-90.9461"/>
</g>
<!-- Node7&#45;&gt;Node15 -->
<g id="edge15" class="edge">
<title>Node7&#45;&gt;Node15</title>
<path fill="none" stroke="#191970" d="M466.163,-125.4059C525.684,-113.7019 607.3583,-96.9135 639,-87 641.1599,-86.3233 643.3678,-85.5686 645.5766,-84.7666"/>
<polygon fill="#191970" stroke="#191970" points="647.0766,-87.9384 655.1205,-81.043 644.5323,-81.4171 647.0766,-87.9384"/>
</g>
<!-- Node10 -->
<g id="node11" class="node">
<title>Node10</title>
<polygon fill="none" stroke="#bfbfbf" points="168,-.5 168,-19.5 230,-19.5 230,-.5 168,-.5"/>
<text text-anchor="middle" x="199" y="-7.5" font-family="Helvetica,sans-Serif" font-size="10.00" fill="#000000">type_traits</text>
</g>
<!-- Node9&#45;&gt;Node10 -->
<g id="edge10" class="edge">
<title>Node9&#45;&gt;Node10</title>
<path fill="none" stroke="#191970" d="M260.7303,-56.2977C248.3994,-47.0495 232.6734,-35.2551 220.1803,-25.8853"/>
<polygon fill="#191970" stroke="#191970" points="222.2293,-23.047 212.1292,-19.8469 218.0292,-28.647 222.2293,-23.047"/>
</g>
<!-- Node11 -->
<g id="node12" class="node">
<title>Node11</title>
<polygon fill="none" stroke="#bfbfbf" points="248,-.5 248,-19.5 314,-19.5 314,-.5 248,-.5"/>
<text text-anchor="middle" x="281" y="-7.5" font-family="Helvetica,sans-Serif" font-size="10.00" fill="#000000">string_view</text>
</g>
<!-- Node9&#45;&gt;Node11 -->
<g id="edge11" class="edge">
<title>Node9&#45;&gt;Node11</title>
<path fill="none" stroke="#191970" d="M281,-56.2977C281,-48.3834 281,-38.6043 281,-30.0759"/>
<polygon fill="#191970" stroke="#191970" points="284.5001,-29.8469 281,-19.8469 277.5001,-29.847 284.5001,-29.8469"/>
</g>
<!-- Node12 -->
<g id="node13" class="node">
<title>Node12</title>
<polygon fill="none" stroke="#bfbfbf" points="332.5,-.5 332.5,-19.5 397.5,-19.5 397.5,-.5 332.5,-.5"/>
<text text-anchor="middle" x="365" y="-7.5" font-family="Helvetica,sans-Serif" font-size="10.00" fill="#000000">Eigen/Core</text>
</g>
<!-- Node9&#45;&gt;Node12 -->
<g id="edge12" class="edge">
<title>Node9&#45;&gt;Node12</title>
<path fill="none" stroke="#191970" d="M301.7641,-56.2977C314.3958,-47.0495 330.5053,-35.2551 343.3031,-25.8853"/>
<polygon fill="#191970" stroke="#191970" points="345.5495,-28.5784 351.5505,-19.8469 341.4143,-22.9303 345.5495,-28.5784"/>
</g>
<!-- Node17 -->
<g id="node18" class="node">
<title>Node17</title>
<polygon fill="none" stroke="#bfbfbf" points="602.5,-129 602.5,-148 675.5,-148 675.5,-129 602.5,-129"/>
<text text-anchor="middle" x="639" y="-136" font-family="Helvetica,sans-Serif" font-size="10.00" fill="#000000">Eigen/Dense</text>
</g>
<!-- Node16&#45;&gt;Node17 -->
<g id="edge19" class="edge">
<title>Node16&#45;&gt;Node17</title>
<path fill="none" stroke="#191970" d="M619.6649,-190.4183C623.5065,-180.1029 628.1287,-167.6913 631.8905,-157.5904"/>
<polygon fill="#191970" stroke="#191970" points="635.2202,-158.6781 635.4303,-148.0853 628.6603,-156.2351 635.2202,-158.6781"/>
</g>
<!-- Node18&#45;&gt;Node17 -->
<g id="edge21" class="edge">
<title>Node18&#45;&gt;Node17</title>
<path fill="none" stroke="#191970" d="M788.8391,-195.978C754.8376,-182.9351 706.0784,-164.2311 673.5164,-151.7404"/>
<polygon fill="#191970" stroke="#191970" points="674.5554,-148.3903 663.9652,-148.0766 672.0483,-154.926 674.5554,-148.3903"/>
</g>
<!-- Node19 -->
<g id="node20" class="node">
<title>Node19</title>
<polygon fill="none" stroke="#bfbfbf" points="1170,-129 1170,-148 1246,-148 1246,-129 1170,-129"/>
<text text-anchor="middle" x="1208" y="-136" font-family="Helvetica,sans-Serif" font-size="10.00" fill="#000000">manif/manif.h</text>
</g>
<!-- Node18&#45;&gt;Node19 -->
<g id="edge22" class="edge">
<title>Node18&#45;&gt;Node19</title>
<path fill="none" stroke="#191970" d="M906.7362,-195.978C982.9293,-181.4411 1095.9806,-159.8721 1159.7233,-147.7107"/>
<polygon fill="#191970" stroke="#191970" points="1160.7288,-151.0821 1169.8956,-145.7699 1159.4168,-144.2061 1160.7288,-151.0821"/>
</g>
<!-- Node20 -->
<g id="node21" class="node">
<title>Node20</title>
<g id="a_node21"><a xlink:href="Contact_8h.html" target="_top" xlink:title="BipedalLocomotion/Contacts\l/Contact.h">
<polygon fill="none" stroke="#000000" points="757,-123.5 757,-153.5 899,-153.5 899,-123.5 757,-123.5"/>
<text text-anchor="start" x="765" y="-141.5" font-family="Helvetica,sans-Serif" font-size="10.00" fill="#000000">BipedalLocomotion/Contacts</text>
<text text-anchor="middle" x="828" y="-130.5" font-family="Helvetica,sans-Serif" font-size="10.00" fill="#000000">/Contact.h</text>
</a>
</g>
</g>
<!-- Node18&#45;&gt;Node20 -->
<g id="edge23" class="edge">
<title>Node18&#45;&gt;Node20</title>
<path fill="none" stroke="#191970" d="M828,-195.978C828,-186.6459 828,-174.4157 828,-163.6368"/>
<polygon fill="#191970" stroke="#191970" points="831.5001,-163.5028 828,-153.5028 824.5001,-163.5028 831.5001,-163.5028"/>
</g>
<!-- Node22 -->
<g id="node23" class="node">
<title>Node22</title>
<polygon fill="none" stroke="#bfbfbf" points="703.5,-129 703.5,-148 738.5,-148 738.5,-129 703.5,-129"/>
<text text-anchor="middle" x="721" y="-136" font-family="Helvetica,sans-Serif" font-size="10.00" fill="#000000">map</text>
</g>
<!-- Node18&#45;&gt;Node22 -->
<g id="edge26" class="edge">
<title>Node18&#45;&gt;Node22</title>
<path fill="none" stroke="#191970" d="M805.8295,-195.978C787.6283,-183.6453 761.9573,-166.2514 743.6314,-153.8344"/>
<polygon fill="#191970" stroke="#191970" points="745.5319,-150.8944 735.29,-148.1825 741.6054,-156.6894 745.5319,-150.8944"/>
</g>
<!-- Node20&#45;&gt;Node5 -->
<g id="edge25" class="edge">
<title>Node20&#45;&gt;Node5</title>
<path fill="none" stroke="#191970" d="M810.3006,-123.2967C797.9119,-112.6551 781.3865,-98.4602 768.7685,-87.6217"/>
<polygon fill="#191970" stroke="#191970" points="770.99,-84.9159 761.1237,-81.055 766.4288,-90.2259 770.99,-84.9159"/>
</g>
<!-- Node21 -->
<g id="node22" class="node">
<title>Node21</title>
<polygon fill="none" stroke="#bfbfbf" points="792.5,-62 792.5,-81 863.5,-81 863.5,-62 792.5,-62"/>
<text text-anchor="middle" x="828" y="-69" font-family="Helvetica,sans-Serif" font-size="10.00" fill="#000000">manif/SE3.h</text>
</g>
<!-- Node20&#45;&gt;Node21 -->
<g id="edge24" class="edge">
<title>Node20&#45;&gt;Node21</title>
<path fill="none" stroke="#191970" d="M828,-123.2967C828,-113.7699 828,-101.3954 828,-91.1306"/>
<polygon fill="#191970" stroke="#191970" points="831.5001,-91.0549 828,-81.055 824.5001,-91.055 831.5001,-91.0549"/>
</g>
<!-- Node24&#45;&gt;Node19 -->
<g id="edge33" class="edge">
<title>Node24&#45;&gt;Node19</title>
<path fill="none" stroke="#191970" d="M1357.0237,-268.4177C1393.1858,-259.3145 1431.3656,-246.6514 1442,-232 1452.965,-216.8932 1453.6951,-204.5489 1442,-190 1419.2114,-161.6506 1318.3563,-148.0004 1256.7297,-142.1963"/>
<polygon fill="#191970" stroke="#191970" points="1256.7254,-138.6817 1246.4507,-141.2664 1256.0947,-145.6532 1256.7254,-138.6817"/>
</g>
<!-- Node25 -->
<g id="node26" class="node">
<title>Node25</title>
<polygon fill="none" stroke="#bfbfbf" points="1297,-201.5 1297,-220.5 1433,-220.5 1433,-201.5 1297,-201.5"/>
<text text-anchor="middle" x="1365" y="-208.5" font-family="Helvetica,sans-Serif" font-size="10.00" fill="#000000">iDynTree/Core/Transform.h</text>
</g>
<!-- Node24&#45;&gt;Node25 -->
<g id="edge31" class="edge">
<title>Node24&#45;&gt;Node25</title>
<path fill="none" stroke="#191970" d="M1300.7833,-268.478C1314.1085,-256.551 1332.7225,-239.8903 1346.4811,-227.5756"/>
<polygon fill="#191970" stroke="#191970" points="1348.8272,-230.1729 1353.9442,-220.8957 1344.1587,-224.9571 1348.8272,-230.1729"/>
</g>
<!-- Node26 -->
<g id="node27" class="node">
<title>Node26</title>
<polygon fill="none" stroke="#bfbfbf" points="1129,-201.5 1129,-220.5 1279,-220.5 1279,-201.5 1129,-201.5"/>
<text text-anchor="middle" x="1204" y="-208.5" font-family="Helvetica,sans-Serif" font-size="10.00" fill="#000000">iDynTree/Core/EigenHelpers.h</text>
</g>
<!-- Node24&#45;&gt;Node26 -->
<g id="edge32" class="edge">
<title>Node24&#45;&gt;Node26</title>
<path fill="none" stroke="#191970" d="M1267.4239,-268.478C1254.3862,-256.6625 1236.2222,-240.2013 1222.6725,-227.922"/>
<polygon fill="#191970" stroke="#191970" points="1224.6796,-225.0174 1214.9194,-220.8957 1219.9789,-230.2044 1224.6796,-225.0174"/>
</g>
</g>
</svg>
