<?xml version="1.0" encoding="UTF-8" standalone="no"?>
<!DOCTYPE svg PUBLIC "-//W3C//DTD SVG 1.1//EN"
 "http://www.w3.org/Graphics/SVG/1.1/DTD/svg11.dtd">
<!-- Generated by graphviz version 2.40.1 (20161225.0304)
 -->
<!-- Title: System/src/FloatingBaseSystemDynamics.cpp Pages: 1 -->
<svg width="2255pt" height="497pt"
 viewBox="0.00 0.00 2255.00 497.00" xmlns="http://www.w3.org/2000/svg" xmlns:xlink="http://www.w3.org/1999/xlink">
<g id="graph0" class="graph" transform="scale(1 1) rotate(0) translate(4 493)">
<title>System/src/FloatingBaseSystemDynamics.cpp</title>
<!-- Node0 -->
<g id="node1" class="node">
<title>Node0</title>
<polygon fill="#bfbfbf" stroke="#000000" points="362,-458.5 362,-488.5 523,-488.5 523,-458.5 362,-458.5"/>
<text text-anchor="start" x="370" y="-476.5" font-family="Helvetica,sans-Serif" font-size="10.00" fill="#000000">System/src/FloatingBaseSystem</text>
<text text-anchor="middle" x="442.5" y="-465.5" font-family="Helvetica,sans-Serif" font-size="10.00" fill="#000000">Dynamics.cpp</text>
</g>
<!-- Node1 -->
<g id="node2" class="node">
<title>Node1</title>
<polygon fill="none" stroke="#bfbfbf" points="0,-397 0,-416 123,-416 123,-397 0,-397"/>
<text text-anchor="middle" x="61.5" y="-404" font-family="Helvetica,sans-Serif" font-size="10.00" fill="#000000">iDynTree/Model/Model.h</text>
</g>
<!-- Node0&#45;&gt;Node1 -->
<g id="edge1" class="edge">
<title>Node0&#45;&gt;Node1</title>
<path fill="none" stroke="#191970" d="M361.74,-461.347C298.8388,-451.5868 209.4129,-437.0657 131.5,-422 125.4049,-420.8214 119.0278,-419.5137 112.7099,-418.172"/>
<polygon fill="#191970" stroke="#191970" points="113.3931,-414.7389 102.8796,-416.0492 111.9155,-421.5812 113.3931,-414.7389"/>
</g>
<!-- Node2 -->
<g id="node3" class="node">
<title>Node2</title>
<polygon fill="none" stroke="#bfbfbf" points="599.5,-196 599.5,-215 715.5,-215 715.5,-196 599.5,-196"/>
<text text-anchor="middle" x="657.5" y="-203" font-family="Helvetica,sans-Serif" font-size="10.00" fill="#000000">iDynTree/Core/Twist.h</text>
</g>
<!-- Node0&#45;&gt;Node2 -->
<g id="edge2" class="edge">
<title>Node0&#45;&gt;Node2</title>
<path fill="none" stroke="#191970" d="M453.4509,-458.2036C460.3175,-448.2029 469.0571,-434.6873 475.5,-422 496.6519,-380.3477 486.1264,-361.8551 513.5,-324 546.3075,-278.6303 600.5002,-240.483 632.216,-220.5032"/>
<polygon fill="#191970" stroke="#191970" points="634.2443,-223.3641 640.909,-215.128 630.5629,-217.4103 634.2443,-223.3641"/>
</g>
<!-- Node3 -->
<g id="node4" class="node">
<title>Node3</title>
<polygon fill="none" stroke="#bfbfbf" points="316.5,-397 316.5,-416 466.5,-416 466.5,-397 316.5,-397"/>
<text text-anchor="middle" x="391.5" y="-404" font-family="Helvetica,sans-Serif" font-size="10.00" fill="#000000">iDynTree/Core/EigenHelpers.h</text>
</g>
<!-- Node0&#45;&gt;Node3 -->
<g id="edge3" class="edge">
<title>Node0&#45;&gt;Node3</title>
<path fill="none" stroke="#191970" d="M430.9273,-458.2967C423.2127,-448.1618 413.0449,-434.804 404.9671,-424.1921"/>
<polygon fill="#191970" stroke="#191970" points="407.6151,-421.8921 398.7732,-416.055 402.0451,-426.1319 407.6151,-421.8921"/>
</g>
<!-- Node4 -->
<g id="node5" class="node">
<title>Node4</title>
<g id="a_node5"><a xlink:href="CommonConversions_8h.html" target="_top" xlink:title="BipedalLocomotion/Conversions\l/CommonConversions.h">
<polygon fill="none" stroke="#000000" points="141,-391.5 141,-421.5 298,-421.5 298,-391.5 141,-391.5"/>
<text text-anchor="start" x="149" y="-409.5" font-family="Helvetica,sans-Serif" font-size="10.00" fill="#000000">BipedalLocomotion/Conversions</text>
<text text-anchor="middle" x="219.5" y="-398.5" font-family="Helvetica,sans-Serif" font-size="10.00" fill="#000000">/CommonConversions.h</text>
</a>
</g>
</g>
<!-- Node0&#45;&gt;Node4 -->
<g id="edge4" class="edge">
<title>Node0&#45;&gt;Node4</title>
<path fill="none" stroke="#191970" d="M392.4544,-458.4639C359.0017,-448.4131 314.816,-435.1375 279.4796,-424.5208"/>
<polygon fill="#191970" stroke="#191970" points="280.348,-421.1272 269.7638,-421.6017 278.3338,-427.8312 280.348,-421.1272"/>
</g>
<!-- Node6 -->
<g id="node7" class="node">
<title>Node6</title>
<g id="a_node7"><a xlink:href="FloatingBaseSystemDynamics_8h.html" target="_top" xlink:title="BipedalLocomotion/System\l/FloatingBaseSystemDynamics.h">
<polygon fill="none" stroke="#000000" points="577,-391.5 577,-421.5 740,-421.5 740,-391.5 577,-391.5"/>
<text text-anchor="start" x="585" y="-409.5" font-family="Helvetica,sans-Serif" font-size="10.00" fill="#000000">BipedalLocomotion/System</text>
<text text-anchor="middle" x="658.5" y="-398.5" font-family="Helvetica,sans-Serif" font-size="10.00" fill="#000000">/FloatingBaseSystemDynamics.h</text>
</a>
</g>
</g>
<!-- Node0&#45;&gt;Node6 -->
<g id="edge6" class="edge">
<title>Node0&#45;&gt;Node6</title>
<path fill="none" stroke="#191970" d="M490.9746,-458.4639C523.2388,-448.456 565.8104,-435.2509 599.9639,-424.657"/>
<polygon fill="#191970" stroke="#191970" points="601.2998,-427.9072 609.814,-421.6017 599.2259,-421.2215 601.2998,-427.9072"/>
</g>
<!-- Node34 -->
<g id="node35" class="node">
<title>Node34</title>
<g id="a_node35"><a xlink:href="Constants_8h.html" target="_top" xlink:title="BipedalLocomotion/Math\l/Constants.h">
<polygon fill="none" stroke="#000000" points="758.5,-391.5 758.5,-421.5 882.5,-421.5 882.5,-391.5 758.5,-391.5"/>
<text text-anchor="start" x="766.5" y="-409.5" font-family="Helvetica,sans-Serif" font-size="10.00" fill="#000000">BipedalLocomotion/Math</text>
<text text-anchor="middle" x="820.5" y="-398.5" font-family="Helvetica,sans-Serif" font-size="10.00" fill="#000000">/Constants.h</text>
</a>
</g>
</g>
<!-- Node0&#45;&gt;Node34 -->
<g id="edge47" class="edge">
<title>Node0&#45;&gt;Node34</title>
<path fill="none" stroke="#191970" d="M523.2129,-460.9391C585.0145,-451.0738 672.3112,-436.6044 748.5,-422 748.602,-421.9804 748.7041,-421.9609 748.8063,-421.9412"/>
<polygon fill="#191970" stroke="#191970" points="749.3474,-425.402 758.4836,-420.0373 747.996,-418.5336 749.3474,-425.402"/>
</g>
<!-- Node5 -->
<g id="node6" class="node">
<title>Node5</title>
<polygon fill="none" stroke="#bfbfbf" points="288,-330 288,-349 361,-349 361,-330 288,-330"/>
<text text-anchor="middle" x="324.5" y="-337" font-family="Helvetica,sans-Serif" font-size="10.00" fill="#000000">Eigen/Dense</text>
</g>
<!-- Node4&#45;&gt;Node5 -->
<g id="edge5" class="edge">
<title>Node4&#45;&gt;Node5</title>
<path fill="none" stroke="#191970" d="M243.064,-391.4639C260.2056,-380.526 283.3321,-365.769 300.5602,-354.7759"/>
<polygon fill="#191970" stroke="#191970" points="302.9018,-357.4336 309.4491,-349.1039 299.1364,-351.5326 302.9018,-357.4336"/>
</g>
<!-- Node6&#45;&gt;Node5 -->
<g id="edge45" class="edge">
<title>Node6&#45;&gt;Node5</title>
<path fill="none" stroke="#191970" d="M583.5439,-391.4639C518.3611,-378.3883 425.9716,-359.8551 370.9526,-348.8183"/>
<polygon fill="#191970" stroke="#191970" points="371.6223,-345.383 361.1293,-346.8478 370.2455,-352.2463 371.6223,-345.383"/>
</g>
<!-- Node7 -->
<g id="node8" class="node">
<title>Node7</title>
<polygon fill="none" stroke="#bfbfbf" points="1639.5,-62 1639.5,-81 1691.5,-81 1691.5,-62 1639.5,-62"/>
<text text-anchor="middle" x="1665.5" y="-69" font-family="Helvetica,sans-Serif" font-size="10.00" fill="#000000">memory</text>
</g>
<!-- Node6&#45;&gt;Node7 -->
<g id="edge7" class="edge">
<title>Node6&#45;&gt;Node7</title>
<path fill="none" stroke="#191970" d="M672.262,-391.297C685.4933,-374.7457 702.1652,-347.4959 692.5,-324 664.0263,-254.7813 540.5592,-245.7484 590.5,-190 661.4795,-110.7663 1449.2082,-78.952 1629.0788,-72.6933"/>
<polygon fill="#191970" stroke="#191970" points="1629.4559,-76.1825 1639.3299,-72.3415 1629.2157,-69.1866 1629.4559,-76.1825"/>
</g>
<!-- Node8 -->
<g id="node9" class="node">
<title>Node8</title>
<polygon fill="none" stroke="#bfbfbf" points="2064.5,-129 2064.5,-148 2108.5,-148 2108.5,-129 2064.5,-129"/>
<text text-anchor="middle" x="2086.5" y="-136" font-family="Helvetica,sans-Serif" font-size="10.00" fill="#000000">vector</text>
</g>
<!-- Node6&#45;&gt;Node8 -->
<g id="edge8" class="edge">
<title>Node6&#45;&gt;Node8</title>
<path fill="none" stroke="#191970" d="M740.2987,-392.1897C743.4021,-391.7668 746.4774,-391.368 749.5,-391 904.0027,-372.1894 2040.5669,-402.0311 2146.5,-288 2176.1445,-256.0894 2164.6864,-229.577 2146.5,-190 2139.5142,-174.7977 2125.5812,-162.3979 2112.8989,-153.5778"/>
<polygon fill="#191970" stroke="#191970" points="2114.7087,-150.5796 2104.4195,-148.0531 2110.8874,-156.4446 2114.7087,-150.5796"/>
</g>
<!-- Node9 -->
<g id="node10" class="node">
<title>Node9</title>
<g id="a_node10"><a xlink:href="DynamicalSystem_8h.html" target="_top" xlink:title="BipedalLocomotion/System\l/DynamicalSystem.h">
<polygon fill="none" stroke="#000000" points="2001.5,-257.5 2001.5,-287.5 2137.5,-287.5 2137.5,-257.5 2001.5,-257.5"/>
<text text-anchor="start" x="2009.5" y="-275.5" font-family="Helvetica,sans-Serif" font-size="10.00" fill="#000000">BipedalLocomotion/System</text>
<text text-anchor="middle" x="2069.5" y="-264.5" font-family="Helvetica,sans-Serif" font-size="10.00" fill="#000000">/DynamicalSystem.h</text>
</a>
</g>
</g>
<!-- Node6&#45;&gt;Node9 -->
<g id="edge9" class="edge">
<title>Node6&#45;&gt;Node9</title>
<path fill="none" stroke="#191970" d="M740.3065,-392.2516C743.4077,-391.8113 746.4804,-391.3921 749.5,-391 1219.0253,-330.0349 1786.6017,-290.5142 1991.2323,-277.3538"/>
<polygon fill="#191970" stroke="#191970" points="1991.5276,-280.8422 2001.2834,-276.7099 1991.08,-273.8565 1991.5276,-280.8422"/>
</g>
<!-- Node23 -->
<g id="node24" class="node">
<title>Node23</title>
<g id="a_node24"><a xlink:href="ContactWrench_8h.html" target="_top" xlink:title="BipedalLocomotion/System\l/ContactWrench.h">
<polygon fill="none" stroke="#000000" points="793.5,-324.5 793.5,-354.5 929.5,-354.5 929.5,-324.5 793.5,-324.5"/>
<text text-anchor="start" x="801.5" y="-342.5" font-family="Helvetica,sans-Serif" font-size="10.00" fill="#000000">BipedalLocomotion/System</text>
<text text-anchor="middle" x="861.5" y="-331.5" font-family="Helvetica,sans-Serif" font-size="10.00" fill="#000000">/ContactWrench.h</text>
</a>
</g>
</g>
<!-- Node6&#45;&gt;Node23 -->
<g id="edge30" class="edge">
<title>Node6&#45;&gt;Node23</title>
<path fill="none" stroke="#191970" d="M704.0572,-391.4639C734.2494,-381.499 774.0457,-368.3642 806.0732,-357.7936"/>
<polygon fill="#191970" stroke="#191970" points="807.345,-361.0596 815.7441,-354.6017 805.151,-354.4123 807.345,-361.0596"/>
</g>
<!-- Node33 -->
<g id="node34" class="node">
<title>Node33</title>
<polygon fill="none" stroke="#bfbfbf" points="523,-330 523,-349 684,-349 684,-330 523,-330"/>
<text text-anchor="middle" x="603.5" y="-337" font-family="Helvetica,sans-Serif" font-size="10.00" fill="#000000">iDynTree/KinDynComputations.h</text>
</g>
<!-- Node6&#45;&gt;Node33 -->
<g id="edge46" class="edge">
<title>Node6&#45;&gt;Node33</title>
<path fill="none" stroke="#191970" d="M646.0196,-391.2967C637.6168,-381.0605 626.5151,-367.5366 617.7627,-356.8746"/>
<polygon fill="#191970" stroke="#191970" points="620.3939,-354.5635 611.3436,-349.055 614.9833,-359.005 620.3939,-354.5635"/>
</g>
<!-- Node9&#45;&gt;Node7 -->
<g id="edge10" class="edge">
<title>Node9&#45;&gt;Node7</title>
<path fill="none" stroke="#191970" d="M2106.3172,-257.4687C2121.6468,-249.1524 2137.8611,-237.1711 2146.5,-221 2167.903,-180.936 2154.3542,-149.5514 2117.5,-123 2042.2136,-68.7604 1791.4864,-109.6369 1701.5,-87 1699.0171,-86.3754 1696.4864,-85.5996 1693.9756,-84.7305"/>
<polygon fill="#191970" stroke="#191970" points="1695.1214,-81.4205 1684.5335,-81.0389 1692.5724,-87.94 1695.1214,-81.4205"/>
</g>
<!-- Node10 -->
<g id="node11" class="node">
<title>Node10</title>
<polygon fill="none" stroke="#bfbfbf" points="1945.5,-196 1945.5,-215 1983.5,-215 1983.5,-196 1945.5,-196"/>
<text text-anchor="middle" x="1964.5" y="-203" font-family="Helvetica,sans-Serif" font-size="10.00" fill="#000000">tuple</text>
</g>
<!-- Node9&#45;&gt;Node10 -->
<g id="edge11" class="edge">
<title>Node9&#45;&gt;Node10</title>
<path fill="none" stroke="#191970" d="M2045.936,-257.4639C2028.7944,-246.526 2005.6679,-231.769 1988.4398,-220.7759"/>
<polygon fill="#191970" stroke="#191970" points="1989.8636,-217.5326 1979.5509,-215.1039 1986.0982,-223.4336 1989.8636,-217.5326"/>
</g>
<!-- Node11 -->
<g id="node12" class="node">
<title>Node11</title>
<g id="a_node12"><a xlink:href="TemplateHelpers_8h_source.html" target="_top" xlink:title="BipedalLocomotion/Generic\lContainer/TemplateHelpers.h">
<polygon fill="none" stroke="#000000" points="2058.5,-56.5 2058.5,-86.5 2202.5,-86.5 2202.5,-56.5 2058.5,-56.5"/>
<text text-anchor="start" x="2066.5" y="-74.5" font-family="Helvetica,sans-Serif" font-size="10.00" fill="#000000">BipedalLocomotion/Generic</text>
<text text-anchor="middle" x="2130.5" y="-63.5" font-family="Helvetica,sans-Serif" font-size="10.00" fill="#000000">Container/TemplateHelpers.h</text>
</a>
</g>
</g>
<!-- Node9&#45;&gt;Node11 -->
<g id="edge12" class="edge">
<title>Node9&#45;&gt;Node11</title>
<path fill="none" stroke="#191970" d="M2131.6758,-257.4323C2150.2623,-249.7135 2168.5799,-238.1702 2179.5,-221 2202.8741,-184.2476 2195.6663,-163.4442 2179.5,-123 2175.0811,-111.9449 2167.0344,-101.9085 2158.7217,-93.6929"/>
<polygon fill="#191970" stroke="#191970" points="2160.8362,-90.8822 2151.1091,-86.6829 2156.0944,-96.0316 2160.8362,-90.8822"/>
</g>
<!-- Node15 -->
<g id="node16" class="node">
<title>Node15</title>
<g id="a_node16"><a xlink:href="IParametersHandler_8h.html" target="_top" xlink:title="BipedalLocomotion/Parameters\lHandler/IParametersHandler.h">
<polygon fill="none" stroke="#000000" points="1775.5,-190.5 1775.5,-220.5 1927.5,-220.5 1927.5,-190.5 1775.5,-190.5"/>
<text text-anchor="start" x="1783.5" y="-208.5" font-family="Helvetica,sans-Serif" font-size="10.00" fill="#000000">BipedalLocomotion/Parameters</text>
<text text-anchor="middle" x="1851.5" y="-197.5" font-family="Helvetica,sans-Serif" font-size="10.00" fill="#000000">Handler/IParametersHandler.h</text>
</a>
</g>
</g>
<!-- Node9&#45;&gt;Node15 -->
<g id="edge16" class="edge">
<title>Node9&#45;&gt;Node15</title>
<path fill="none" stroke="#191970" d="M2020.5765,-257.4639C1988.0136,-247.456 1945.0478,-234.2509 1910.5781,-223.657"/>
<polygon fill="#191970" stroke="#191970" points="1911.2238,-220.194 1900.6368,-220.6017 1909.1673,-226.8851 1911.2238,-220.194"/>
</g>
<!-- Node22 -->
<g id="node23" class="node">
<title>Node22</title>
<g id="a_node23"><a xlink:href="DynamicalSystem_8tpp.html" target="_top" xlink:title="BipedalLocomotion/System\l/DynamicalSystem.tpp">
<polygon fill="none" stroke="#000000" points="2001.5,-190.5 2001.5,-220.5 2137.5,-220.5 2137.5,-190.5 2001.5,-190.5"/>
<text text-anchor="start" x="2009.5" y="-208.5" font-family="Helvetica,sans-Serif" font-size="10.00" fill="#000000">BipedalLocomotion/System</text>
<text text-anchor="middle" x="2069.5" y="-197.5" font-family="Helvetica,sans-Serif" font-size="10.00" fill="#000000">/DynamicalSystem.tpp</text>
</a>
</g>
</g>
<!-- Node9&#45;&gt;Node22 -->
<g id="edge28" class="edge">
<title>Node9&#45;&gt;Node22</title>
<path fill="none" stroke="#191970" d="M2063.7392,-257.2967C2062.7895,-249.4156 2062.5236,-239.5857 2062.9416,-230.6135"/>
<polygon fill="#191970" stroke="#191970" points="2066.4304,-230.8924 2063.7464,-220.6432 2059.4531,-230.3291 2066.4304,-230.8924"/>
</g>
<!-- Node12 -->
<g id="node13" class="node">
<title>Node12</title>
<polygon fill="none" stroke="#bfbfbf" points="2017.5,-.5 2017.5,-19.5 2079.5,-19.5 2079.5,-.5 2017.5,-.5"/>
<text text-anchor="middle" x="2048.5" y="-7.5" font-family="Helvetica,sans-Serif" font-size="10.00" fill="#000000">type_traits</text>
</g>
<!-- Node11&#45;&gt;Node12 -->
<g id="edge13" class="edge">
<title>Node11&#45;&gt;Node12</title>
<path fill="none" stroke="#191970" d="M2110.2303,-56.2977C2097.8994,-47.0495 2082.1734,-35.2551 2069.6803,-25.8853"/>
<polygon fill="#191970" stroke="#191970" points="2071.7293,-23.047 2061.6292,-19.8469 2067.5292,-28.647 2071.7293,-23.047"/>
</g>
<!-- Node13 -->
<g id="node14" class="node">
<title>Node13</title>
<polygon fill="none" stroke="#bfbfbf" points="2097.5,-.5 2097.5,-19.5 2163.5,-19.5 2163.5,-.5 2097.5,-.5"/>
<text text-anchor="middle" x="2130.5" y="-7.5" font-family="Helvetica,sans-Serif" font-size="10.00" fill="#000000">string_view</text>
</g>
<!-- Node11&#45;&gt;Node13 -->
<g id="edge14" class="edge">
<title>Node11&#45;&gt;Node13</title>
<path fill="none" stroke="#191970" d="M2130.5,-56.2977C2130.5,-48.3834 2130.5,-38.6043 2130.5,-30.0759"/>
<polygon fill="#191970" stroke="#191970" points="2134.0001,-29.8469 2130.5,-19.8469 2127.0001,-29.847 2134.0001,-29.8469"/>
</g>
<!-- Node14 -->
<g id="node15" class="node">
<title>Node14</title>
<polygon fill="none" stroke="#bfbfbf" points="2182,-.5 2182,-19.5 2247,-19.5 2247,-.5 2182,-.5"/>
<text text-anchor="middle" x="2214.5" y="-7.5" font-family="Helvetica,sans-Serif" font-size="10.00" fill="#000000">Eigen/Core</text>
</g>
<!-- Node11&#45;&gt;Node14 -->
<g id="edge15" class="edge">
<title>Node11&#45;&gt;Node14</title>
<path fill="none" stroke="#191970" d="M2151.2641,-56.2977C2163.8958,-47.0495 2180.0053,-35.2551 2192.8031,-25.8853"/>
<polygon fill="#191970" stroke="#191970" points="2195.0495,-28.5784 2201.0505,-19.8469 2190.9143,-22.9303 2195.0495,-28.5784"/>
</g>
<!-- Node15&#45;&gt;Node7 -->
<g id="edge17" class="edge">
<title>Node15&#45;&gt;Node7</title>
<path fill="none" stroke="#191970" d="M1828.009,-190.2995C1812.6326,-180.2251 1792.1868,-166.592 1774.5,-154 1743.0639,-131.6194 1707.589,-104.3873 1685.8875,-87.4951"/>
<polygon fill="#191970" stroke="#191970" points="1687.7848,-84.536 1677.7485,-81.1415 1683.4774,-90.0539 1687.7848,-84.536"/>
</g>
<!-- Node15&#45;&gt;Node8 -->
<g id="edge19" class="edge">
<title>Node15&#45;&gt;Node8</title>
<path fill="none" stroke="#191970" d="M1904.2386,-190.4639C1950.4496,-177.2888 2016.0954,-158.5728 2054.6951,-147.5678"/>
<polygon fill="#191970" stroke="#191970" points="2055.7049,-150.9194 2064.362,-144.8117 2053.7856,-144.1877 2055.7049,-150.9194"/>
</g>
<!-- Node15&#45;&gt;Node11 -->
<g id="edge27" class="edge">
<title>Node15&#45;&gt;Node11</title>
<path fill="none" stroke="#191970" d="M1882.9625,-190.389C1933.751,-165.996 2033.7676,-117.9593 2089.8739,-91.0122"/>
<polygon fill="#191970" stroke="#191970" points="2091.6536,-94.0402 2099.1525,-86.5558 2088.6229,-87.7303 2091.6536,-94.0402"/>
</g>
<!-- Node16 -->
<g id="node17" class="node">
<title>Node16</title>
<polygon fill="none" stroke="#bfbfbf" points="1489,-129 1489,-148 1530,-148 1530,-129 1489,-129"/>
<text text-anchor="middle" x="1509.5" y="-136" font-family="Helvetica,sans-Serif" font-size="10.00" fill="#000000">string</text>
</g>
<!-- Node15&#45;&gt;Node16 -->
<g id="edge18" class="edge">
<title>Node15&#45;&gt;Node16</title>
<path fill="none" stroke="#191970" d="M1775.1742,-190.5473C1701.1351,-176.0425 1592.5185,-154.7639 1540.0712,-144.4891"/>
<polygon fill="#191970" stroke="#191970" points="1540.5472,-141.0159 1530.0608,-142.528 1539.2014,-147.8853 1540.5472,-141.0159"/>
</g>
<!-- Node17 -->
<g id="node18" class="node">
<title>Node17</title>
<g id="a_node18"><a xlink:href="Vector_8h_source.html" target="_top" xlink:title="BipedalLocomotion/Generic\lContainer/Vector.h">
<polygon fill="none" stroke="#000000" points="1783.5,-123.5 1783.5,-153.5 1919.5,-153.5 1919.5,-123.5 1783.5,-123.5"/>
<text text-anchor="start" x="1791.5" y="-141.5" font-family="Helvetica,sans-Serif" font-size="10.00" fill="#000000">BipedalLocomotion/Generic</text>
<text text-anchor="middle" x="1851.5" y="-130.5" font-family="Helvetica,sans-Serif" font-size="10.00" fill="#000000">Container/Vector.h</text>
</a>
</g>
</g>
<!-- Node15&#45;&gt;Node17 -->
<g id="edge20" class="edge">
<title>Node15&#45;&gt;Node17</title>
<path fill="none" stroke="#191970" d="M1851.5,-190.2967C1851.5,-182.5013 1851.5,-172.7991 1851.5,-163.9064"/>
<polygon fill="#191970" stroke="#191970" points="1855.0001,-163.6431 1851.5,-153.6432 1848.0001,-163.6432 1855.0001,-163.6431"/>
</g>
<!-- Node17&#45;&gt;Node7 -->
<g id="edge26" class="edge">
<title>Node17&#45;&gt;Node7</title>
<path fill="none" stroke="#191970" d="M1804.5496,-123.397C1774.8122,-113.5811 1735.6597,-100.1961 1701.5,-87 1699.8853,-86.3763 1698.2361,-85.7234 1696.5752,-85.0534"/>
<polygon fill="#191970" stroke="#191970" points="1697.67,-81.7183 1687.0926,-81.112 1694.9833,-88.1821 1697.67,-81.7183"/>
</g>
<!-- Node17&#45;&gt;Node11 -->
<g id="edge22" class="edge">
<title>Node17&#45;&gt;Node11</title>
<path fill="none" stroke="#191970" d="M1914.113,-123.4639C1956.682,-113.2412 2013.1421,-99.6827 2057.7157,-88.9787"/>
<polygon fill="#191970" stroke="#191970" points="2058.7076,-92.3401 2067.6139,-86.6017 2057.073,-85.5336 2058.7076,-92.3401"/>
</g>
<!-- Node18 -->
<g id="node19" class="node">
<title>Node18</title>
<polygon fill="none" stroke="#bfbfbf" points="1926.5,-62 1926.5,-81 2040.5,-81 2040.5,-62 1926.5,-62"/>
<text text-anchor="middle" x="1983.5" y="-69" font-family="Helvetica,sans-Serif" font-size="10.00" fill="#000000">iDynTree/Core/Span.h</text>
</g>
<!-- Node17&#45;&gt;Node18 -->
<g id="edge21" class="edge">
<title>Node17&#45;&gt;Node18</title>
<path fill="none" stroke="#191970" d="M1881.1234,-123.4639C1903.3711,-112.1715 1933.6384,-96.8086 1955.4861,-85.7192"/>
<polygon fill="#191970" stroke="#191970" points="1957.2459,-88.7511 1964.5788,-81.1039 1954.0776,-82.5091 1957.2459,-88.7511"/>
</g>
<!-- Node19 -->
<g id="node20" class="node">
<title>Node19</title>
<polygon fill="none" stroke="#bfbfbf" points="1710,-62 1710,-81 1769,-81 1769,-62 1710,-62"/>
<text text-anchor="middle" x="1739.5" y="-69" font-family="Helvetica,sans-Serif" font-size="10.00" fill="#000000">functional</text>
</g>
<!-- Node17&#45;&gt;Node19 -->
<g id="edge23" class="edge">
<title>Node17&#45;&gt;Node19</title>
<path fill="none" stroke="#191970" d="M1826.365,-123.4639C1807.8268,-112.3741 1782.726,-97.3584 1764.2738,-86.32"/>
<polygon fill="#191970" stroke="#191970" points="1765.9328,-83.2341 1755.5543,-81.1039 1762.3392,-89.2412 1765.9328,-83.2341"/>
</g>
<!-- Node20 -->
<g id="node21" class="node">
<title>Node20</title>
<polygon fill="none" stroke="#bfbfbf" points="1787,-62 1787,-81 1836,-81 1836,-62 1787,-62"/>
<text text-anchor="middle" x="1811.5" y="-69" font-family="Helvetica,sans-Serif" font-size="10.00" fill="#000000">cassert</text>
</g>
<!-- Node17&#45;&gt;Node20 -->
<g id="edge24" class="edge">
<title>Node17&#45;&gt;Node20</title>
<path fill="none" stroke="#191970" d="M1842.4234,-123.2967C1836.4937,-113.3645 1828.7162,-100.3371 1822.4445,-89.8321"/>
<polygon fill="#191970" stroke="#191970" points="1825.3358,-87.8471 1817.2045,-81.055 1819.3254,-91.4354 1825.3358,-87.8471"/>
</g>
<!-- Node21 -->
<g id="node22" class="node">
<title>Node21</title>
<polygon fill="none" stroke="#bfbfbf" points="1854.5,-62 1854.5,-81 1908.5,-81 1908.5,-62 1854.5,-62"/>
<text text-anchor="middle" x="1881.5" y="-69" font-family="Helvetica,sans-Serif" font-size="10.00" fill="#000000">iostream</text>
</g>
<!-- Node17&#45;&gt;Node21 -->
<g id="edge25" class="edge">
<title>Node17&#45;&gt;Node21</title>
<path fill="none" stroke="#191970" d="M1858.3075,-123.2967C1862.6639,-113.5672 1868.3504,-100.8675 1873.0022,-90.4784"/>
<polygon fill="#191970" stroke="#191970" points="1876.3293,-91.6122 1877.2217,-81.055 1869.9406,-88.7515 1876.3293,-91.6122"/>
</g>
<!-- Node22&#45;&gt;Node9 -->
<g id="edge29" class="edge">
<title>Node22&#45;&gt;Node9</title>
<path fill="none" stroke="#191970" d="M2075.2536,-220.6432C2076.2067,-228.5143 2076.4761,-238.3414 2076.0616,-247.3179"/>
<polygon fill="#191970" stroke="#191970" points="2072.572,-247.0487 2075.2608,-257.2967 2079.5496,-247.6087 2072.572,-247.0487"/>
</g>
<!-- Node24 -->
<g id="node25" class="node">
<title>Node24</title>
<polygon fill="none" stroke="#bfbfbf" points="734,-196 734,-215 859,-215 859,-196 734,-196"/>
<text text-anchor="middle" x="796.5" y="-203" font-family="Helvetica,sans-Serif" font-size="10.00" fill="#000000">iDynTree/Core/Wrench.h</text>
</g>
<!-- Node23&#45;&gt;Node24 -->
<g id="edge31" class="edge">
<title>Node23&#45;&gt;Node24</title>
<path fill="none" stroke="#191970" d="M844.2461,-324.4117C834.4152,-314.9043 822.6649,-301.8401 815.5,-288 805.19,-268.0848 800.4204,-242.6027 798.2493,-225.2639"/>
<polygon fill="#191970" stroke="#191970" points="801.7148,-224.7547 797.1658,-215.1862 794.755,-225.5031 801.7148,-224.7547"/>
</g>
<!-- Node25 -->
<g id="node26" class="node">
<title>Node25</title>
<polygon fill="none" stroke="#bfbfbf" points="824.5,-263 824.5,-282 952.5,-282 952.5,-263 824.5,-263"/>
<text text-anchor="middle" x="888.5" y="-270" font-family="Helvetica,sans-Serif" font-size="10.00" fill="#000000">iDynTree/Model/Indices.h</text>
</g>
<!-- Node23&#45;&gt;Node25 -->
<g id="edge32" class="edge">
<title>Node23&#45;&gt;Node25</title>
<path fill="none" stroke="#191970" d="M867.6267,-324.2967C871.5475,-314.5672 876.6653,-301.8675 880.852,-291.4784"/>
<polygon fill="#191970" stroke="#191970" points="884.158,-292.6384 884.6495,-282.055 877.6653,-290.0219 884.158,-292.6384"/>
</g>
<!-- Node26 -->
<g id="node27" class="node">
<title>Node26</title>
<g id="a_node27"><a xlink:href="ContactModel_8h.html" target="_top" xlink:title="BipedalLocomotion/Contact\lModels/ContactModel.h">
<polygon fill="none" stroke="#000000" points="1125,-257.5 1125,-287.5 1262,-287.5 1262,-257.5 1125,-257.5"/>
<text text-anchor="start" x="1133" y="-275.5" font-family="Helvetica,sans-Serif" font-size="10.00" fill="#000000">BipedalLocomotion/Contact</text>
<text text-anchor="middle" x="1193.5" y="-264.5" font-family="Helvetica,sans-Serif" font-size="10.00" fill="#000000">Models/ContactModel.h</text>
</a>
</g>
</g>
<!-- Node23&#45;&gt;Node26 -->
<g id="edge33" class="edge">
<title>Node23&#45;&gt;Node26</title>
<path fill="none" stroke="#191970" d="M929.8881,-325.6988C983.6986,-314.8394 1058.7331,-299.6969 1114.9937,-288.3431"/>
<polygon fill="#191970" stroke="#191970" points="1115.8059,-291.7499 1124.9159,-286.3408 1114.4211,-284.8882 1115.8059,-291.7499"/>
</g>
<!-- Node26&#45;&gt;Node2 -->
<g id="edge41" class="edge">
<title>Node26&#45;&gt;Node2</title>
<path fill="none" stroke="#191970" d="M1124.7977,-267.5093C1033.0936,-260.266 865.8211,-245.0197 724.5,-221 718.2433,-219.9366 711.6962,-218.6465 705.2491,-217.2697"/>
<polygon fill="#191970" stroke="#191970" points="705.7767,-213.8018 695.2562,-215.055 704.262,-220.636 705.7767,-213.8018"/>
</g>
<!-- Node26&#45;&gt;Node7 -->
<g id="edge35" class="edge">
<title>Node26&#45;&gt;Node7</title>
<path fill="none" stroke="#191970" d="M1262.205,-259.4736C1294.6617,-251.4449 1333.0799,-239.1297 1364.5,-221 1381.9297,-210.9429 1382.3269,-203.218 1397.5,-190 1433.2462,-158.8597 1438.3474,-144.6949 1480.5,-123 1528.8665,-98.107 1590.7292,-84.0251 1629.2378,-77.0853"/>
<polygon fill="#191970" stroke="#191970" points="1630.1945,-80.4717 1639.4493,-75.3142 1628.9983,-73.5746 1630.1945,-80.4717"/>
</g>
<!-- Node26&#45;&gt;Node15 -->
<g id="edge44" class="edge">
<title>Node26&#45;&gt;Node15</title>
<path fill="none" stroke="#191970" d="M1262.0826,-268.3551C1367.9213,-261.5124 1577.5984,-246.186 1765.0563,-221.1248"/>
<polygon fill="#191970" stroke="#191970" points="1765.6543,-224.5759 1775.0966,-219.7702 1764.7184,-217.6388 1765.6543,-224.5759"/>
</g>
<!-- Node26&#45;&gt;Node16 -->
<g id="edge36" class="edge">
<title>Node26&#45;&gt;Node16</title>
<path fill="none" stroke="#191970" d="M1262.3725,-261.9957C1303.0228,-254.1365 1354.7238,-241.1946 1397.5,-221 1400.0077,-219.8161 1456.6035,-177.8385 1488.3596,-154.2307"/>
<polygon fill="#191970" stroke="#191970" points="1490.6565,-156.8844 1496.5922,-148.1085 1486.4793,-151.2674 1490.6565,-156.8844"/>
</g>
<!-- Node26&#45;&gt;Node24 -->
<g id="edge43" class="edge">
<title>Node26&#45;&gt;Node24</title>
<path fill="none" stroke="#191970" d="M1124.836,-262.7374C1058.9283,-253.1028 956.6665,-237.4628 868.5,-221 862.2311,-219.8295 855.6721,-218.5267 849.1738,-217.1876"/>
<polygon fill="#191970" stroke="#191970" points="849.5682,-213.6943 839.0628,-215.0674 848.1315,-220.5453 849.5682,-213.6943"/>
</g>
<!-- Node27 -->
<g id="node28" class="node">
<title>Node27</title>
<polygon fill="none" stroke="#bfbfbf" points="877.5,-196 877.5,-215 909.5,-215 909.5,-196 877.5,-196"/>
<text text-anchor="middle" x="893.5" y="-203" font-family="Helvetica,sans-Serif" font-size="10.00" fill="#000000">any</text>
</g>
<!-- Node26&#45;&gt;Node27 -->
<g id="edge34" class="edge">
<title>Node26&#45;&gt;Node27</title>
<path fill="none" stroke="#191970" d="M1124.8972,-266.7486C1068.0635,-260.3274 985.9745,-247.1757 918.5,-221 917.646,-220.6687 916.7889,-220.3077 915.9334,-219.9229"/>
<polygon fill="#191970" stroke="#191970" points="917.5038,-216.7935 907.0374,-215.1489 914.1938,-222.9615 917.5038,-216.7935"/>
</g>
<!-- Node28 -->
<g id="node29" class="node">
<title>Node28</title>
<polygon fill="none" stroke="#bfbfbf" points="928,-196 928,-215 1011,-215 1011,-196 928,-196"/>
<text text-anchor="middle" x="969.5" y="-203" font-family="Helvetica,sans-Serif" font-size="10.00" fill="#000000">unordered_map</text>
</g>
<!-- Node26&#45;&gt;Node28 -->
<g id="edge37" class="edge">
<title>Node26&#45;&gt;Node28</title>
<path fill="none" stroke="#191970" d="M1142.7587,-257.4779C1108.2675,-247.2464 1061.6124,-233.3667 1020.5,-221 1017.21,-220.0104 1013.8017,-218.9818 1010.3786,-217.9464"/>
<polygon fill="#191970" stroke="#191970" points="1011.3634,-214.5877 1000.7781,-215.0369 1009.3332,-221.2869 1011.3634,-214.5877"/>
</g>
<!-- Node29 -->
<g id="node30" class="node">
<title>Node29</title>
<polygon fill="none" stroke="#bfbfbf" points="1029.5,-196 1029.5,-215 1185.5,-215 1185.5,-196 1029.5,-196"/>
<text text-anchor="middle" x="1107.5" y="-203" font-family="Helvetica,sans-Serif" font-size="10.00" fill="#000000">iDynTree/Core/MatrixDynSize.h</text>
</g>
<!-- Node26&#45;&gt;Node29 -->
<g id="edge38" class="edge">
<title>Node26&#45;&gt;Node29</title>
<path fill="none" stroke="#191970" d="M1173.9853,-257.2967C1160.1958,-246.5537 1141.7582,-232.1895 1127.7972,-221.3129"/>
<polygon fill="#191970" stroke="#191970" points="1129.8042,-218.4398 1119.7646,-215.055 1125.5022,-223.9618 1129.8042,-218.4398"/>
</g>
<!-- Node30 -->
<g id="node31" class="node">
<title>Node30</title>
<polygon fill="none" stroke="#bfbfbf" points="1203.5,-196 1203.5,-215 1355.5,-215 1355.5,-196 1203.5,-196"/>
<text text-anchor="middle" x="1279.5" y="-203" font-family="Helvetica,sans-Serif" font-size="10.00" fill="#000000">iDynTree/Core/MatrixFixSize.h</text>
</g>
<!-- Node26&#45;&gt;Node30 -->
<g id="edge39" class="edge">
<title>Node26&#45;&gt;Node30</title>
<path fill="none" stroke="#191970" d="M1213.0147,-257.2967C1226.8042,-246.5537 1245.2418,-232.1895 1259.2028,-221.3129"/>
<polygon fill="#191970" stroke="#191970" points="1261.4978,-223.9618 1267.2354,-215.055 1257.1958,-218.4398 1261.4978,-223.9618"/>
</g>
<!-- Node31 -->
<g id="node32" class="node">
<title>Node31</title>
<polygon fill="none" stroke="#bfbfbf" points="1449.5,-196 1449.5,-215 1585.5,-215 1585.5,-196 1449.5,-196"/>
<text text-anchor="middle" x="1517.5" y="-203" font-family="Helvetica,sans-Serif" font-size="10.00" fill="#000000">iDynTree/Core/Transform.h</text>
</g>
<!-- Node26&#45;&gt;Node31 -->
<g id="edge40" class="edge">
<title>Node26&#45;&gt;Node31</title>
<path fill="none" stroke="#191970" d="M1262.2121,-258.291C1321.4937,-246.0322 1406.0578,-228.5452 1461.3543,-217.1104"/>
<polygon fill="#191970" stroke="#191970" points="1462.2421,-220.5009 1471.3261,-215.0483 1460.8245,-213.646 1462.2421,-220.5009"/>
</g>
<!-- Node32 -->
<g id="node33" class="node">
<title>Node32</title>
<polygon fill="none" stroke="#bfbfbf" points="1604,-196 1604,-215 1757,-215 1757,-196 1604,-196"/>
<text text-anchor="middle" x="1680.5" y="-203" font-family="Helvetica,sans-Serif" font-size="10.00" fill="#000000">iDynTree/Core/VectorFixSize.h</text>
</g>
<!-- Node26&#45;&gt;Node32 -->
<g id="edge42" class="edge">
<title>Node26&#45;&gt;Node32</title>
<path fill="none" stroke="#191970" d="M1262.1193,-264.7577C1342.0873,-255.4871 1478.1324,-238.9473 1594.5,-221 1602.7982,-219.7202 1611.5278,-218.2693 1620.1144,-216.7811"/>
<polygon fill="#191970" stroke="#191970" points="1620.8523,-220.2052 1630.0944,-215.0251 1619.6391,-213.3111 1620.8523,-220.2052"/>
</g>
</g>
</svg>
