<?xml version="1.0" encoding="UTF-8" standalone="no"?>
<!DOCTYPE svg PUBLIC "-//W3C//DTD SVG 1.1//EN"
 "http://www.w3.org/Graphics/SVG/1.1/DTD/svg11.dtd">
<!-- Generated by graphviz version 2.40.1 (20161225.0304)
 -->
<!-- Title: System/include/BipedalLocomotion/System/ForwardEuler.tpp Pages: 1 -->
<svg width="178pt" height="106pt"
 viewBox="0.00 0.00 178.00 106.00" xmlns="http://www.w3.org/2000/svg" xmlns:xlink="http://www.w3.org/1999/xlink">
<g id="graph0" class="graph" transform="scale(1 1) rotate(0) translate(4 102)">
<title>System/include/BipedalLocomotion/System/ForwardEuler.tpp</title>
<!-- Node24 -->
<g id="node1" class="node">
<title>Node24</title>
<polygon fill="#bfbfbf" stroke="#000000" points="0,-67.5 0,-97.5 170,-97.5 170,-67.5 0,-67.5"/>
<text text-anchor="start" x="8" y="-85.5" font-family="Helvetica,sans-Serif" font-size="10.00" fill="#000000">System/include/BipedalLocomotion</text>
<text text-anchor="middle" x="85" y="-74.5" font-family="Helvetica,sans-Serif" font-size="10.00" fill="#000000">/System/ForwardEuler.tpp</text>
</g>
<!-- Node25 -->
<g id="node2" class="node">
<title>Node25</title>
<g id="a_node2"><a xlink:href="ForwardEuler_8h.html" target="_top" xlink:title="System/include/BipedalLocomotion\l/System/ForwardEuler.h">
<polygon fill="none" stroke="#000000" points="0,-.5 0,-30.5 170,-30.5 170,-.5 0,-.5"/>
<text text-anchor="start" x="8" y="-18.5" font-family="Helvetica,sans-Serif" font-size="10.00" fill="#000000">System/include/BipedalLocomotion</text>
<text text-anchor="middle" x="85" y="-7.5" font-family="Helvetica,sans-Serif" font-size="10.00" fill="#000000">/System/ForwardEuler.h</text>
</a>
</g>
</g>
<!-- Node24&#45;&gt;Node25 -->
<g id="edge1" class="edge">
<title>Node24&#45;&gt;Node25</title>
<path fill="none" stroke="#191970" d="M78.4384,-57.3179C78.0239,-48.3414 78.2933,-38.5143 79.2464,-30.6432"/>
<polygon fill="#191970" stroke="#191970" points="74.9504,-57.6087 79.2392,-67.2967 81.928,-57.0487 74.9504,-57.6087"/>
</g>
<!-- Node25&#45;&gt;Node24 -->
<g id="edge2" class="edge">
<title>Node25&#45;&gt;Node24</title>
<path fill="none" stroke="#191970" d="M91.5584,-40.6135C91.9764,-49.5857 91.7105,-59.4156 90.7608,-67.2967"/>
<polygon fill="#191970" stroke="#191970" points="95.0469,-40.3291 90.7536,-30.6432 88.0696,-40.8924 95.0469,-40.3291"/>
</g>
</g>
</svg>
