<?xml version="1.0" encoding="UTF-8" standalone="no"?>
<!DOCTYPE svg PUBLIC "-//W3C//DTD SVG 1.1//EN"
 "http://www.w3.org/Graphics/SVG/1.1/DTD/svg11.dtd">
<!-- Generated by graphviz version 2.40.1 (20161225.0304)
 -->
<!-- Title: System/include/BipedalLocomotion/System/ForwardEuler.h Pages: 1 -->
<!--zoomable 497 -->
<svg id="main" version="1.1" xmlns="http://www.w3.org/2000/svg" xmlns:xlink="http://www.w3.org/1999/xlink" xml:space="preserve" onload="init(evt)">
<style type="text/css"><![CDATA[
.edge:hover path { stroke: red; }
.edge:hover polygon { stroke: red; fill: red; }
]]></style>
<script type="text/javascript"><![CDATA[
var edges = document.getElementsByTagName('g');
if (edges && edges.length) {
  for (var i=0;i<edges.length;i++) {
    if (edges[i].id.substr(0,4)=='edge') {
      edges[i].setAttribute('class','edge');
    }
  }
}
]]></script>
        <defs>
                <circle id="rim" cx="0" cy="0" r="7"/>
                <circle id="rim2" cx="0" cy="0" r="3.5"/>
                <g id="zoomPlus">
                        <use xlink:href="#rim" fill="#404040">
                                <set attributeName="fill" to="#808080" begin="zoomplus.mouseover" end="zoomplus.mouseout"/>
                        </use>
                        <path d="M-4,0h8M0,-4v8" fill="none" stroke="white" stroke-width="1.5" pointer-events="none"/>
                </g>
                <g id="zoomMin">
                        <use xlink:href="#rim" fill="#404040">
                                <set attributeName="fill" to="#808080" begin="zoomminus.mouseover" end="zoomminus.mouseout"/>
                        </use>
                        <path d="M-4,0h8" fill="none" stroke="white" stroke-width="1.5" pointer-events="none"/>
                </g>
                <g id="dirArrow">
                        <path fill="none" stroke="white" stroke-width="1.5" d="M0,-3.0v7 M-2.5,-0.5L0,-3.0L2.5,-0.5"/>
                </g>
               <g id="resetDef">
                       <use xlink:href="#rim2" fill="#404040">
                               <set attributeName="fill" to="#808080" begin="reset.mouseover" end="reset.mouseout"/>
                       </use>
               </g>
        </defs>

<script type="text/javascript">
var viewWidth = 1256;
var viewHeight = 497;
var sectionId = 'dynsection-0';
</script>
<script xlink:href="svgpan.js"/>
<svg id="graph" class="graph">
<g id="viewport">
<title>System/include/BipedalLocomotion/System/ForwardEuler.h</title>
<!-- Node0 -->
<g id="node1" class="node">
<title>Node0</title>
<polygon fill="#bfbfbf" stroke="#000000" points="881.5,-458.5 881.5,-488.5 1051.5,-488.5 1051.5,-458.5 881.5,-458.5"/>
<text text-anchor="start" x="889.5" y="-476.5" font-family="Helvetica,sans-Serif" font-size="10.00" fill="#000000">System/include/BipedalLocomotion</text>
<text text-anchor="middle" x="966.5" y="-465.5" font-family="Helvetica,sans-Serif" font-size="10.00" fill="#000000">/System/ForwardEuler.h</text>
</g>
<!-- Node1 -->
<g id="node2" class="node">
<title>Node1</title>
<polygon fill="none" stroke="#bfbfbf" points="628.5,-196 628.5,-215 666.5,-215 666.5,-196 628.5,-196"/>
<text text-anchor="middle" x="647.5" y="-203" font-family="Helvetica,sans-Serif" font-size="10.00" fill="#000000">tuple</text>
</g>
<!-- Node0&#45;&gt;Node1 -->
<g id="edge1" class="edge">
<title>Node0&#45;&gt;Node1</title>
<path fill="none" stroke="#191970" d="M881.3137,-466.4893C814.874,-459.2943 729.766,-445.7141 704.5,-422 648.1667,-369.1268 644.9499,-267.8343 646.3266,-225.1916"/>
<polygon fill="#191970" stroke="#191970" points="649.831,-225.1713 646.7837,-215.0242 642.8381,-224.8569 649.831,-225.1713"/>
</g>
<!-- Node2 -->
<g id="node3" class="node">
<title>Node2</title>
<polygon fill="none" stroke="#bfbfbf" points="501.5,-.5 501.5,-19.5 563.5,-19.5 563.5,-.5 501.5,-.5"/>
<text text-anchor="middle" x="532.5" y="-7.5" font-family="Helvetica,sans-Serif" font-size="10.00" fill="#000000">type_traits</text>
</g>
<!-- Node0&#45;&gt;Node2 -->
<g id="edge2" class="edge">
<title>Node0&#45;&gt;Node2</title>
<path fill="none" stroke="#191970" d="M955.2883,-458.4438C948.3934,-448.539 939.8779,-435.0399 934.5,-422 920.1543,-387.2156 915.5,-377.1265 915.5,-339.5 915.5,-339.5 915.5,-339.5 915.5,-138.5 915.5,-66.9512 672.2208,-27.8274 573.4448,-14.8912"/>
<polygon fill="#191970" stroke="#191970" points="573.8826,-11.4187 563.5181,-13.6159 572.9905,-18.3617 573.8826,-11.4187"/>
</g>
<!-- Node3 -->
<g id="node4" class="node">
<title>Node3</title>
<polygon fill="none" stroke="#bfbfbf" points="943.5,-397 943.5,-416 1093.5,-416 1093.5,-397 943.5,-397"/>
<text text-anchor="middle" x="1018.5" y="-404" font-family="Helvetica,sans-Serif" font-size="10.00" fill="#000000">iDynTree/Core/EigenHelpers.h</text>
</g>
<!-- Node0&#45;&gt;Node3 -->
<g id="edge3" class="edge">
<title>Node0&#45;&gt;Node3</title>
<path fill="none" stroke="#191970" d="M978.2996,-458.2967C986.1655,-448.1618 996.5327,-434.804 1004.7688,-424.1921"/>
<polygon fill="#191970" stroke="#191970" points="1007.7179,-426.1008 1011.0842,-416.055 1002.188,-421.8089 1007.7179,-426.1008"/>
</g>
<!-- Node4 -->
<g id="node5" class="node">
<title>Node4</title>
<g id="a_node5"><a xlink:href="FixedStepIntegrator_8h.html" target="_top" xlink:title="BipedalLocomotion/System\l/FixedStepIntegrator.h">
<polygon fill="none" stroke="#000000" points="713.5,-391.5 713.5,-421.5 849.5,-421.5 849.5,-391.5 713.5,-391.5"/>
<text text-anchor="start" x="721.5" y="-409.5" font-family="Helvetica,sans-Serif" font-size="10.00" fill="#000000">BipedalLocomotion/System</text>
<text text-anchor="middle" x="781.5" y="-398.5" font-family="Helvetica,sans-Serif" font-size="10.00" fill="#000000">/FixedStepIntegrator.h</text>
</a>
</g>
</g>
<!-- Node0&#45;&gt;Node4 -->
<g id="edge4" class="edge">
<title>Node0&#45;&gt;Node4</title>
<path fill="none" stroke="#191970" d="M924.9824,-458.4639C897.7045,-448.5849 861.8244,-435.5905 832.7685,-425.0675"/>
<polygon fill="#191970" stroke="#191970" points="833.7929,-421.7161 823.1987,-421.6017 831.4092,-428.2978 833.7929,-421.7161"/>
</g>
<!-- Node23 -->
<g id="node24" class="node">
<title>Node23</title>
<g id="a_node24"><a xlink:href="ForwardEuler_8tpp.html" target="_top" xlink:title="BipedalLocomotion/System\l/ForwardEuler.tpp">
<polygon fill="none" stroke="#000000" points="1111.5,-391.5 1111.5,-421.5 1247.5,-421.5 1247.5,-391.5 1111.5,-391.5"/>
<text text-anchor="start" x="1119.5" y="-409.5" font-family="Helvetica,sans-Serif" font-size="10.00" fill="#000000">BipedalLocomotion/System</text>
<text text-anchor="middle" x="1179.5" y="-398.5" font-family="Helvetica,sans-Serif" font-size="10.00" fill="#000000">/ForwardEuler.tpp</text>
</a>
</g>
</g>
<!-- Node0&#45;&gt;Node23 -->
<g id="edge40" class="edge">
<title>Node0&#45;&gt;Node23</title>
<path fill="none" stroke="#191970" d="M1008.5608,-458.4639C1039.2856,-448.4131 1081.3822,-435.1375 1116.1463,-424.5208"/>
<polygon fill="#191970" stroke="#191970" points="1117.1933,-427.8607 1125.7416,-421.6017 1115.1559,-421.1638 1117.1933,-427.8607"/>
</g>
<!-- Node4&#45;&gt;Node1 -->
<g id="edge6" class="edge">
<title>Node4&#45;&gt;Node1</title>
<path fill="none" stroke="#191970" d="M749.9618,-391.3369C734.4918,-382.557 716.6266,-370.2194 704.5,-355 672.742,-315.1423 657.2278,-255.628 650.986,-225.1037"/>
<polygon fill="#191970" stroke="#191970" points="654.4185,-224.4188 649.093,-215.2597 647.5445,-225.7407 654.4185,-224.4188"/>
</g>
<!-- Node5 -->
<g id="node6" class="node">
<title>Node5</title>
<polygon fill="none" stroke="#bfbfbf" points="513.5,-62 513.5,-81 565.5,-81 565.5,-62 513.5,-62"/>
<text text-anchor="middle" x="539.5" y="-69" font-family="Helvetica,sans-Serif" font-size="10.00" fill="#000000">memory</text>
</g>
<!-- Node4&#45;&gt;Node5 -->
<g id="edge5" class="edge">
<title>Node4&#45;&gt;Node5</title>
<path fill="none" stroke="#191970" d="M815.1091,-391.3569C830.5233,-382.7838 847.7247,-370.6215 858.5,-355 879.8642,-324.027 877.5,-310.1265 877.5,-272.5 877.5,-272.5 877.5,-272.5 877.5,-205.5 877.5,-141.1267 662.953,-94.2706 575.7245,-77.8805"/>
<polygon fill="#191970" stroke="#191970" points="576.2109,-74.4112 565.741,-76.0337 574.9375,-81.2944 576.2109,-74.4112"/>
</g>
<!-- Node6 -->
<g id="node7" class="node">
<title>Node6</title>
<g id="a_node7"><a xlink:href="Integrator_8h.html" target="_top" xlink:title="BipedalLocomotion/System\l/Integrator.h">
<polygon fill="none" stroke="#000000" points="397.5,-324.5 397.5,-354.5 533.5,-354.5 533.5,-324.5 397.5,-324.5"/>
<text text-anchor="start" x="405.5" y="-342.5" font-family="Helvetica,sans-Serif" font-size="10.00" fill="#000000">BipedalLocomotion/System</text>
<text text-anchor="middle" x="465.5" y="-331.5" font-family="Helvetica,sans-Serif" font-size="10.00" fill="#000000">/Integrator.h</text>
</a>
</g>
</g>
<!-- Node4&#45;&gt;Node6 -->
<g id="edge7" class="edge">
<title>Node4&#45;&gt;Node6</title>
<path fill="none" stroke="#191970" d="M713.3218,-392.0445C663.3797,-381.4555 595.5086,-367.0651 543.4213,-356.0213"/>
<polygon fill="#191970" stroke="#191970" points="544.0646,-352.5799 533.5561,-353.9296 542.6126,-359.4277 544.0646,-352.5799"/>
</g>
<!-- Node21 -->
<g id="node22" class="node">
<title>Node21</title>
<g id="a_node22"><a xlink:href="FixedStepIntegrator_8tpp.html" target="_top" xlink:title="BipedalLocomotion/System\l/FixedStepIntegrator.tpp">
<polygon fill="none" stroke="#000000" points="713.5,-324.5 713.5,-354.5 849.5,-354.5 849.5,-324.5 713.5,-324.5"/>
<text text-anchor="start" x="721.5" y="-342.5" font-family="Helvetica,sans-Serif" font-size="10.00" fill="#000000">BipedalLocomotion/System</text>
<text text-anchor="middle" x="781.5" y="-331.5" font-family="Helvetica,sans-Serif" font-size="10.00" fill="#000000">/FixedStepIntegrator.tpp</text>
</a>
</g>
</g>
<!-- Node4&#45;&gt;Node21 -->
<g id="edge35" class="edge">
<title>Node4&#45;&gt;Node21</title>
<path fill="none" stroke="#191970" d="M775.7392,-391.2967C774.7895,-383.4156 774.5236,-373.5857 774.9416,-364.6135"/>
<polygon fill="#191970" stroke="#191970" points="778.4304,-364.8924 775.7464,-354.6432 771.4531,-364.3291 778.4304,-364.8924"/>
</g>
<!-- Node6&#45;&gt;Node1 -->
<g id="edge9" class="edge">
<title>Node6&#45;&gt;Node1</title>
<path fill="none" stroke="#191970" d="M520.5442,-324.4981C543.7872,-316.3121 570.1261,-304.4252 590.5,-288 612.113,-270.5758 628.9175,-242.8466 638.5175,-224.4121"/>
<polygon fill="#191970" stroke="#191970" points="641.7559,-225.7614 643.0944,-215.2515 635.494,-222.6327 641.7559,-225.7614"/>
</g>
<!-- Node6&#45;&gt;Node5 -->
<g id="edge8" class="edge">
<title>Node6&#45;&gt;Node5</title>
<path fill="none" stroke="#191970" d="M452.3611,-324.194C439.1364,-306.8254 422.5428,-278.1666 436.5,-257 458.8595,-223.0909 496.0433,-253.4291 520.5,-221 549.5435,-182.489 546.6092,-121.9117 542.6924,-91.0231"/>
<polygon fill="#191970" stroke="#191970" points="546.1507,-90.4819 541.2624,-81.0822 539.222,-91.4787 546.1507,-90.4819"/>
</g>
<!-- Node7 -->
<g id="node8" class="node">
<title>Node7</title>
<g id="a_node8"><a xlink:href="TemplateHelpers_8h_source.html" target="_top" xlink:title="BipedalLocomotion/Generic\lContainer/TemplateHelpers.h">
<polygon fill="none" stroke="#000000" points="2.5,-56.5 2.5,-86.5 146.5,-86.5 146.5,-56.5 2.5,-56.5"/>
<text text-anchor="start" x="10.5" y="-74.5" font-family="Helvetica,sans-Serif" font-size="10.00" fill="#000000">BipedalLocomotion/Generic</text>
<text text-anchor="middle" x="74.5" y="-63.5" font-family="Helvetica,sans-Serif" font-size="10.00" fill="#000000">Container/TemplateHelpers.h</text>
</a>
</g>
</g>
<!-- Node6&#45;&gt;Node7 -->
<g id="edge10" class="edge">
<title>Node6&#45;&gt;Node7</title>
<path fill="none" stroke="#191970" d="M397.3025,-335.4549C343.2409,-330.0544 266.9931,-317.4443 206.5,-288 135.6735,-253.5261 117.7871,-227.8935 90.5,-154 83.6592,-135.4752 79.5795,-113.477 77.2534,-96.8567"/>
<polygon fill="#191970" stroke="#191970" points="80.7078,-96.2767 75.9667,-86.8019 73.7644,-97.1654 80.7078,-96.2767"/>
</g>
<!-- Node10 -->
<g id="node11" class="node">
<title>Node10</title>
<g id="a_node11"><a xlink:href="IParametersHandler_8h.html" target="_top" xlink:title="BipedalLocomotion/Parameters\lHandler/IParametersHandler.h">
<polygon fill="none" stroke="#000000" points="359.5,-190.5 359.5,-220.5 511.5,-220.5 511.5,-190.5 359.5,-190.5"/>
<text text-anchor="start" x="367.5" y="-208.5" font-family="Helvetica,sans-Serif" font-size="10.00" fill="#000000">BipedalLocomotion/Parameters</text>
<text text-anchor="middle" x="435.5" y="-197.5" font-family="Helvetica,sans-Serif" font-size="10.00" fill="#000000">Handler/IParametersHandler.h</text>
</a>
</g>
</g>
<!-- Node6&#45;&gt;Node10 -->
<g id="edge14" class="edge">
<title>Node6&#45;&gt;Node10</title>
<path fill="none" stroke="#191970" d="M437.9611,-324.4269C424.9382,-315.6707 410.6937,-303.3272 403.5,-288 394.3288,-268.4595 404.8648,-245.5162 416.2379,-228.7918"/>
<polygon fill="#191970" stroke="#191970" points="419.1003,-230.8069 422.1617,-220.6639 413.4433,-226.6839 419.1003,-230.8069"/>
</g>
<!-- Node18 -->
<g id="node19" class="node">
<title>Node18</title>
<g id="a_node19"><a xlink:href="DynamicalSystem_8h.html" target="_top" xlink:title="BipedalLocomotion/System\l/DynamicalSystem.h">
<polygon fill="none" stroke="#000000" points="215.5,-257.5 215.5,-287.5 351.5,-287.5 351.5,-257.5 215.5,-257.5"/>
<text text-anchor="start" x="223.5" y="-275.5" font-family="Helvetica,sans-Serif" font-size="10.00" fill="#000000">BipedalLocomotion/System</text>
<text text-anchor="middle" x="283.5" y="-264.5" font-family="Helvetica,sans-Serif" font-size="10.00" fill="#000000">/DynamicalSystem.h</text>
</a>
</g>
</g>
<!-- Node6&#45;&gt;Node18 -->
<g id="edge26" class="edge">
<title>Node6&#45;&gt;Node18</title>
<path fill="none" stroke="#191970" d="M424.6556,-324.4639C397.8201,-314.5849 362.5218,-301.5905 333.9371,-291.0675"/>
<polygon fill="#191970" stroke="#191970" points="335.116,-287.7719 324.5225,-287.6017 332.6977,-294.3409 335.116,-287.7719"/>
</g>
<!-- Node20 -->
<g id="node21" class="node">
<title>Node20</title>
<g id="a_node21"><a xlink:href="Integrator_8tpp.html" target="_top" xlink:title="BipedalLocomotion/System\l/Integrator.tpp">
<polygon fill="none" stroke="#000000" points="445.5,-257.5 445.5,-287.5 581.5,-287.5 581.5,-257.5 445.5,-257.5"/>
<text text-anchor="start" x="453.5" y="-275.5" font-family="Helvetica,sans-Serif" font-size="10.00" fill="#000000">BipedalLocomotion/System</text>
<text text-anchor="middle" x="513.5" y="-264.5" font-family="Helvetica,sans-Serif" font-size="10.00" fill="#000000">/Integrator.tpp</text>
</a>
</g>
</g>
<!-- Node6&#45;&gt;Node20 -->
<g id="edge33" class="edge">
<title>Node6&#45;&gt;Node20</title>
<path fill="none" stroke="#191970" d="M470.6311,-324.2967C475.6849,-315.816 483.1473,-305.0785 490.5128,-295.5817"/>
<polygon fill="#191970" stroke="#191970" points="493.3576,-297.6291 496.8976,-287.6432 487.9029,-293.242 493.3576,-297.6291"/>
</g>
<!-- Node7&#45;&gt;Node2 -->
<g id="edge11" class="edge">
<title>Node7&#45;&gt;Node2</title>
<path fill="none" stroke="#191970" d="M146.8811,-57.3979C149.7895,-56.9109 152.6709,-56.4428 155.5,-56 276.9475,-36.9931 421.4451,-21.274 491.013,-14.1341"/>
<polygon fill="#191970" stroke="#191970" points="491.5279,-17.5998 501.1211,-13.1031 490.8175,-10.636 491.5279,-17.5998"/>
</g>
<!-- Node8 -->
<g id="node9" class="node">
<title>Node8</title>
<polygon fill="none" stroke="#bfbfbf" points="83.5,-.5 83.5,-19.5 149.5,-19.5 149.5,-.5 83.5,-.5"/>
<text text-anchor="middle" x="116.5" y="-7.5" font-family="Helvetica,sans-Serif" font-size="10.00" fill="#000000">string_view</text>
</g>
<!-- Node7&#45;&gt;Node8 -->
<g id="edge12" class="edge">
<title>Node7&#45;&gt;Node8</title>
<path fill="none" stroke="#191970" d="M84.882,-56.2977C90.6513,-47.8498 97.8716,-37.2773 103.9553,-28.369"/>
<polygon fill="#191970" stroke="#191970" points="107.0259,-30.0788 109.7753,-19.8469 101.2453,-26.1311 107.0259,-30.0788"/>
</g>
<!-- Node9 -->
<g id="node10" class="node">
<title>Node9</title>
<polygon fill="none" stroke="#bfbfbf" points="0,-.5 0,-19.5 65,-19.5 65,-.5 0,-.5"/>
<text text-anchor="middle" x="32.5" y="-7.5" font-family="Helvetica,sans-Serif" font-size="10.00" fill="#000000">Eigen/Core</text>
</g>
<!-- Node7&#45;&gt;Node9 -->
<g id="edge13" class="edge">
<title>Node7&#45;&gt;Node9</title>
<path fill="none" stroke="#191970" d="M64.118,-56.2977C58.3487,-47.8498 51.1284,-37.2773 45.0447,-28.369"/>
<polygon fill="#191970" stroke="#191970" points="47.7547,-26.1311 39.2247,-19.8469 41.9741,-30.0788 47.7547,-26.1311"/>
</g>
<!-- Node10&#45;&gt;Node5 -->
<g id="edge15" class="edge">
<title>Node10&#45;&gt;Node5</title>
<path fill="none" stroke="#191970" d="M450.4673,-190.2066C459.996,-180.2072 472.3999,-166.6918 482.5,-154 499.3297,-132.8518 516.71,-107.0125 527.7836,-89.9497"/>
<polygon fill="#191970" stroke="#191970" points="530.7787,-91.7631 533.2432,-81.4589 524.8908,-87.9772 530.7787,-91.7631"/>
</g>
<!-- Node10&#45;&gt;Node7 -->
<g id="edge25" class="edge">
<title>Node10&#45;&gt;Node7</title>
<path fill="none" stroke="#191970" d="M359.2793,-195.3384C292.6002,-185.6277 201.4103,-170.1188 168.5,-154 152.8009,-146.3109 119.6639,-115.6572 97.2352,-93.9687"/>
<polygon fill="#191970" stroke="#191970" points="99.4009,-91.1923 89.7947,-86.7234 94.5174,-96.2074 99.4009,-91.1923"/>
</g>
<!-- Node11 -->
<g id="node12" class="node">
<title>Node11</title>
<polygon fill="none" stroke="#bfbfbf" points="432,-129 432,-148 473,-148 473,-129 432,-129"/>
<text text-anchor="middle" x="452.5" y="-136" font-family="Helvetica,sans-Serif" font-size="10.00" fill="#000000">string</text>
</g>
<!-- Node10&#45;&gt;Node11 -->
<g id="edge16" class="edge">
<title>Node10&#45;&gt;Node11</title>
<path fill="none" stroke="#191970" d="M439.3576,-190.2967C441.8005,-180.6685 444.9815,-168.1318 447.602,-157.8038"/>
<polygon fill="#191970" stroke="#191970" points="451.0086,-158.6086 450.0756,-148.055 444.2236,-156.887 451.0086,-158.6086"/>
</g>
<!-- Node12 -->
<g id="node13" class="node">
<title>Node12</title>
<polygon fill="none" stroke="#bfbfbf" points="369.5,-129 369.5,-148 413.5,-148 413.5,-129 369.5,-129"/>
<text text-anchor="middle" x="391.5" y="-136" font-family="Helvetica,sans-Serif" font-size="10.00" fill="#000000">vector</text>
</g>
<!-- Node10&#45;&gt;Node12 -->
<g id="edge17" class="edge">
<title>Node10&#45;&gt;Node12</title>
<path fill="none" stroke="#191970" d="M425.5157,-190.2967C418.9265,-180.2631 410.263,-167.0709 403.3283,-156.5113"/>
<polygon fill="#191970" stroke="#191970" points="406.1898,-154.4924 397.7749,-148.055 400.3387,-158.3349 406.1898,-154.4924"/>
</g>
<!-- Node13 -->
<g id="node14" class="node">
<title>Node13</title>
<g id="a_node14"><a xlink:href="Vector_8h_source.html" target="_top" xlink:title="BipedalLocomotion/Generic\lContainer/Vector.h">
<polygon fill="none" stroke="#000000" points="177.5,-123.5 177.5,-153.5 313.5,-153.5 313.5,-123.5 177.5,-123.5"/>
<text text-anchor="start" x="185.5" y="-141.5" font-family="Helvetica,sans-Serif" font-size="10.00" fill="#000000">BipedalLocomotion/Generic</text>
<text text-anchor="middle" x="245.5" y="-130.5" font-family="Helvetica,sans-Serif" font-size="10.00" fill="#000000">Container/Vector.h</text>
</a>
</g>
</g>
<!-- Node10&#45;&gt;Node13 -->
<g id="edge18" class="edge">
<title>Node10&#45;&gt;Node13</title>
<path fill="none" stroke="#191970" d="M392.8603,-190.4639C364.7233,-180.5419 327.6747,-167.4774 297.7653,-156.9304"/>
<polygon fill="#191970" stroke="#191970" points="298.9205,-153.6266 288.3257,-153.6017 296.5925,-160.2281 298.9205,-153.6266"/>
</g>
<!-- Node13&#45;&gt;Node5 -->
<g id="edge24" class="edge">
<title>Node13&#45;&gt;Node5</title>
<path fill="none" stroke="#191970" d="M313.6775,-125.3298C387.2937,-111.0504 495.3487,-89.897 504.5,-87 506.4007,-86.3983 508.3366,-85.7247 510.2733,-85.0045"/>
<polygon fill="#191970" stroke="#191970" points="511.859,-88.1381 519.8047,-81.1298 509.2228,-81.6534 511.859,-88.1381"/>
</g>
<!-- Node13&#45;&gt;Node7 -->
<g id="edge20" class="edge">
<title>Node13&#45;&gt;Node7</title>
<path fill="none" stroke="#191970" d="M207.1243,-123.4639C182.1299,-113.6708 149.322,-100.8162 122.5908,-90.3426"/>
<polygon fill="#191970" stroke="#191970" points="123.6308,-86.9911 113.0431,-86.6017 121.0771,-93.5086 123.6308,-86.9911"/>
</g>
<!-- Node14 -->
<g id="node15" class="node">
<title>Node14</title>
<polygon fill="none" stroke="#bfbfbf" points="164.5,-62 164.5,-81 278.5,-81 278.5,-62 164.5,-62"/>
<text text-anchor="middle" x="221.5" y="-69" font-family="Helvetica,sans-Serif" font-size="10.00" fill="#000000">iDynTree/Core/Span.h</text>
</g>
<!-- Node13&#45;&gt;Node14 -->
<g id="edge19" class="edge">
<title>Node13&#45;&gt;Node14</title>
<path fill="none" stroke="#191970" d="M240.054,-123.2967C236.5688,-113.5672 232.0197,-100.8675 228.2982,-90.4784"/>
<polygon fill="#191970" stroke="#191970" points="231.59,-89.2889 224.9227,-81.055 225,-91.6495 231.59,-89.2889"/>
</g>
<!-- Node15 -->
<g id="node16" class="node">
<title>Node15</title>
<polygon fill="none" stroke="#bfbfbf" points="297,-62 297,-81 356,-81 356,-62 297,-62"/>
<text text-anchor="middle" x="326.5" y="-69" font-family="Helvetica,sans-Serif" font-size="10.00" fill="#000000">functional</text>
</g>
<!-- Node13&#45;&gt;Node15 -->
<g id="edge21" class="edge">
<title>Node13&#45;&gt;Node15</title>
<path fill="none" stroke="#191970" d="M263.8802,-123.2967C276.7454,-112.6551 293.9063,-98.4602 307.0096,-87.6217"/>
<polygon fill="#191970" stroke="#191970" points="309.4737,-90.1257 314.9485,-81.055 305.0121,-84.7318 309.4737,-90.1257"/>
</g>
<!-- Node16 -->
<g id="node17" class="node">
<title>Node16</title>
<polygon fill="none" stroke="#bfbfbf" points="374,-62 374,-81 423,-81 423,-62 374,-62"/>
<text text-anchor="middle" x="398.5" y="-69" font-family="Helvetica,sans-Serif" font-size="10.00" fill="#000000">cassert</text>
</g>
<!-- Node13&#45;&gt;Node16 -->
<g id="edge22" class="edge">
<title>Node13&#45;&gt;Node16</title>
<path fill="none" stroke="#191970" d="M280.7252,-123.4667C304.451,-113.2892 336.4186,-99.476 364.5,-87 365.7005,-86.4666 366.9238,-85.9207 368.1589,-85.3674"/>
<polygon fill="#191970" stroke="#191970" points="369.9973,-88.3776 377.6709,-81.0724 367.1165,-81.9979 369.9973,-88.3776"/>
</g>
<!-- Node17 -->
<g id="node18" class="node">
<title>Node17</title>
<polygon fill="none" stroke="#bfbfbf" points="441.5,-62 441.5,-81 495.5,-81 495.5,-62 441.5,-62"/>
<text text-anchor="middle" x="468.5" y="-69" font-family="Helvetica,sans-Serif" font-size="10.00" fill="#000000">iostream</text>
</g>
<!-- Node13&#45;&gt;Node17 -->
<g id="edge23" class="edge">
<title>Node13&#45;&gt;Node17</title>
<path fill="none" stroke="#191970" d="M308.4984,-123.4591C345.0811,-114.1538 391.8311,-101.2788 432.5,-87 434.378,-86.3406 436.2968,-85.6296 438.2226,-84.8873"/>
<polygon fill="#191970" stroke="#191970" points="439.8093,-88.0204 447.753,-81.0099 437.1713,-81.5365 439.8093,-88.0204"/>
</g>
<!-- Node18&#45;&gt;Node1 -->
<g id="edge28" class="edge">
<title>Node18&#45;&gt;Node1</title>
<path fill="none" stroke="#191970" d="M351.5386,-259.9764C431.5699,-245.2454 560.7955,-221.4594 618.294,-210.8758"/>
<polygon fill="#191970" stroke="#191970" points="619.2839,-214.2525 628.485,-209 618.0166,-207.3682 619.2839,-214.2525"/>
</g>
<!-- Node18&#45;&gt;Node5 -->
<g id="edge27" class="edge">
<title>Node18&#45;&gt;Node5</title>
<path fill="none" stroke="#191970" d="M292.3607,-257.3026C298.2259,-247.1139 306.0045,-233.3512 312.5,-221 335.0744,-178.0746 322.7931,-153.5022 360.5,-123 411.7895,-81.5104 442.11,-108.4356 504.5,-87 506.3384,-86.3684 508.2135,-85.6788 510.0931,-84.9526"/>
<polygon fill="#191970" stroke="#191970" points="511.4717,-88.1701 519.3778,-81.1172 508.799,-81.7004 511.4717,-88.1701"/>
</g>
<!-- Node18&#45;&gt;Node7 -->
<g id="edge29" class="edge">
<title>Node18&#45;&gt;Node7</title>
<path fill="none" stroke="#191970" d="M224.8637,-257.3922C202.2221,-249.3799 177.3004,-237.6511 158.5,-221 119.4859,-186.446 94.5503,-129.2435 82.6819,-96.5241"/>
<polygon fill="#191970" stroke="#191970" points="85.893,-95.1037 79.2864,-86.8209 79.2859,-97.4158 85.893,-95.1037"/>
</g>
<!-- Node18&#45;&gt;Node10 -->
<g id="edge30" class="edge">
<title>Node18&#45;&gt;Node10</title>
<path fill="none" stroke="#191970" d="M317.6118,-257.4639C339.5367,-247.7996 368.2254,-235.154 391.8119,-224.7572"/>
<polygon fill="#191970" stroke="#191970" points="393.5007,-227.8379 401.2395,-220.6017 390.6772,-221.4325 393.5007,-227.8379"/>
</g>
<!-- Node19 -->
<g id="node20" class="node">
<title>Node19</title>
<g id="a_node20"><a xlink:href="DynamicalSystem_8tpp.html" target="_top" xlink:title="BipedalLocomotion/System\l/DynamicalSystem.tpp">
<polygon fill="none" stroke="#000000" points="167.5,-190.5 167.5,-220.5 303.5,-220.5 303.5,-190.5 167.5,-190.5"/>
<text text-anchor="start" x="175.5" y="-208.5" font-family="Helvetica,sans-Serif" font-size="10.00" fill="#000000">BipedalLocomotion/System</text>
<text text-anchor="middle" x="235.5" y="-197.5" font-family="Helvetica,sans-Serif" font-size="10.00" fill="#000000">/DynamicalSystem.tpp</text>
</a>
</g>
</g>
<!-- Node18&#45;&gt;Node19 -->
<g id="edge31" class="edge">
<title>Node18&#45;&gt;Node19</title>
<path fill="none" stroke="#191970" d="M266.8472,-257.2967C259.8929,-248.9873 252.1467,-238.5115 245.9654,-229.1587"/>
<polygon fill="#191970" stroke="#191970" points="248.89,-227.2348 240.5953,-220.6432 242.969,-230.9687 248.89,-227.2348"/>
</g>
<!-- Node19&#45;&gt;Node18 -->
<g id="edge32" class="edge">
<title>Node19&#45;&gt;Node18</title>
<path fill="none" stroke="#191970" d="M252.1024,-220.6432C259.0529,-228.9421 266.8009,-239.4154 272.9898,-248.7735"/>
<polygon fill="#191970" stroke="#191970" points="270.0719,-250.708 278.3689,-257.2967 275.9916,-246.972 270.0719,-250.708"/>
</g>
<!-- Node20&#45;&gt;Node6 -->
<g id="edge34" class="edge">
<title>Node20&#45;&gt;Node6</title>
<path fill="none" stroke="#191970" d="M508.4047,-287.6432C503.3624,-296.1132 495.9055,-306.8482 488.5395,-316.3509"/>
<polygon fill="#191970" stroke="#191970" points="485.6898,-314.3096 482.1528,-324.2967 491.1457,-318.6951 485.6898,-314.3096"/>
</g>
<!-- Node21&#45;&gt;Node1 -->
<g id="edge38" class="edge">
<title>Node21&#45;&gt;Node1</title>
<path fill="none" stroke="#191970" d="M766.4225,-324.2589C750,-307.675 722.9395,-280.3975 699.5,-257 687.8912,-245.412 674.7673,-232.415 664.6083,-222.3768"/>
<polygon fill="#191970" stroke="#191970" points="667.0667,-219.8855 657.4918,-215.3497 662.1482,-224.8664 667.0667,-219.8855"/>
</g>
<!-- Node21&#45;&gt;Node4 -->
<g id="edge39" class="edge">
<title>Node21&#45;&gt;Node4</title>
<path fill="none" stroke="#191970" d="M787.2536,-354.6432C788.2067,-362.5143 788.4761,-372.3414 788.0616,-381.3179"/>
<polygon fill="#191970" stroke="#191970" points="784.572,-381.0487 787.2608,-391.2967 791.5496,-381.6087 784.572,-381.0487"/>
</g>
<!-- Node21&#45;&gt;Node5 -->
<g id="edge37" class="edge">
<title>Node21&#45;&gt;Node5</title>
<path fill="none" stroke="#191970" d="M792.2559,-324.1972C802.8439,-307.0824 815.8987,-278.893 804.5,-257 755.7345,-163.3383 635.6404,-107.1901 575.308,-83.9777"/>
<polygon fill="#191970" stroke="#191970" points="576.4022,-80.65 565.8102,-80.4065 573.9385,-87.2021 576.4022,-80.65"/>
</g>
<!-- Node22 -->
<g id="node23" class="node">
<title>Node22</title>
<polygon fill="none" stroke="#bfbfbf" points="751.5,-263 751.5,-282 795.5,-282 795.5,-263 751.5,-263"/>
<text text-anchor="middle" x="773.5" y="-270" font-family="Helvetica,sans-Serif" font-size="10.00" fill="#000000">cmath</text>
</g>
<!-- Node21&#45;&gt;Node22 -->
<g id="edge36" class="edge">
<title>Node21&#45;&gt;Node22</title>
<path fill="none" stroke="#191970" d="M779.6847,-324.2967C778.5472,-314.7699 777.0696,-302.3954 775.844,-292.1306"/>
<polygon fill="#191970" stroke="#191970" points="779.3019,-291.5694 774.6409,-282.055 772.3513,-292.3994 779.3019,-291.5694"/>
</g>
<!-- Node23&#45;&gt;Node0 -->
<g id="edge41" class="edge">
<title>Node23&#45;&gt;Node0</title>
<path fill="none" stroke="#191970" d="M1137.2387,-421.6017C1106.4645,-431.6665 1064.3593,-444.9432 1029.6271,-455.5484"/>
<polygon fill="#191970" stroke="#191970" points="1028.5906,-452.2053 1020.0419,-458.4639 1030.6276,-458.9023 1028.5906,-452.2053"/>
</g>
</g>
</svg>
        <g id="navigator" transform="translate(0 0)" fill="#404254">
                <rect fill="#f2f5e9" fill-opacity="0.5" stroke="#606060" stroke-width=".5" x="0" y="0" width="60" height="60"/>
                <use id="zoomplus" xlink:href="#zoomPlus" x="17" y="9" onmousedown="handleZoom(evt,'in')"/>
                <use id="zoomminus" xlink:href="#zoomMin" x="42" y="9" onmousedown="handleZoom(evt,'out')"/>
                <use id="reset" xlink:href="#resetDef" x="30" y="36" onmousedown="handleReset()"/>
                <g id="arrowUp" xlink:href="#dirArrow" transform="translate(30 24)" onmousedown="handlePan(0,-1)">
                  <use xlink:href="#rim" fill="#404040">
                        <set attributeName="fill" to="#808080" begin="arrowUp.mouseover" end="arrowUp.mouseout"/>
                  </use>
                  <path fill="none" stroke="white" stroke-width="1.5" d="M0,-3.0v7 M-2.5,-0.5L0,-3.0L2.5,-0.5"/>
                </g>
                <g id="arrowRight" xlink:href="#dirArrow" transform="rotate(90) translate(36 -43)" onmousedown="handlePan(1,0)">
                  <use xlink:href="#rim" fill="#404040">
                        <set attributeName="fill" to="#808080" begin="arrowRight.mouseover" end="arrowRight.mouseout"/>
                  </use>
                  <path fill="none" stroke="white" stroke-width="1.5" d="M0,-3.0v7 M-2.5,-0.5L0,-3.0L2.5,-0.5"/>
                </g>
                <g id="arrowDown" xlink:href="#dirArrow" transform="rotate(180) translate(-30 -48)" onmousedown="handlePan(0,1)">
                  <use xlink:href="#rim" fill="#404040">
                        <set attributeName="fill" to="#808080" begin="arrowDown.mouseover" end="arrowDown.mouseout"/>
                  </use>
                  <path fill="none" stroke="white" stroke-width="1.5" d="M0,-3.0v7 M-2.5,-0.5L0,-3.0L2.5,-0.5"/>
                </g>
                <g id="arrowLeft" xlink:href="#dirArrow" transform="rotate(270) translate(-36 17)" onmousedown="handlePan(-1,0)">
                  <use xlink:href="#rim" fill="#404040">
                        <set attributeName="fill" to="#808080" begin="arrowLeft.mouseover" end="arrowLeft.mouseout"/>
                  </use>
                  <path fill="none" stroke="white" stroke-width="1.5" d="M0,-3.0v7 M-2.5,-0.5L0,-3.0L2.5,-0.5"/>
                </g>
        </g>
        <svg viewBox="0 0 15 15" width="100%" height="30px" preserveAspectRatio="xMaxYMin meet">
         <g id="arrow_out" transform="scale(0.3 0.3)">
          <a xlink:href="ForwardEuler_8h__incl_org.svg" target="_base">
           <rect id="button" ry="5" rx="5" y="6" x="6" height="38" width="38"
                fill="#f2f5e9" fill-opacity="0.5" stroke="#606060" stroke-width="1.0"/>
           <path id="arrow"
             d="M 11.500037,31.436501 C 11.940474,20.09759 22.043105,11.32322 32.158766,21.979434 L 37.068811,17.246167 C 37.068811,17.246167 37.088388,32 37.088388,32 L 22.160133,31.978069 C 22.160133,31.978069 26.997745,27.140456 26.997745,27.140456 C 18.528582,18.264221 13.291696,25.230495 11.500037,31.436501 z"
             style="fill:#404040;"/>
          </a>
         </g>
        </svg>
</svg>
