<?xml version="1.0" encoding="UTF-8" standalone="no"?>
<!DOCTYPE svg PUBLIC "-//W3C//DTD SVG 1.1//EN"
 "http://www.w3.org/Graphics/SVG/1.1/DTD/svg11.dtd">
<!-- Generated by graphviz version 2.40.1 (20161225.0304)
 -->
<!-- Title: YarpUtilities/src/Helper.cpp Pages: 1 -->
<svg width="1297pt" height="341pt"
 viewBox="0.00 0.00 1296.50 341.00" xmlns="http://www.w3.org/2000/svg" xmlns:xlink="http://www.w3.org/1999/xlink">
<g id="graph0" class="graph" transform="scale(1 1) rotate(0) translate(4 337)">
<title>YarpUtilities/src/Helper.cpp</title>
<!-- Node0 -->
<g id="node1" class="node">
<title>Node0</title>
<polygon fill="#bfbfbf" stroke="#000000" points="291,-313.5 291,-332.5 428,-332.5 428,-313.5 291,-313.5"/>
<text text-anchor="middle" x="359.5" y="-320.5" font-family="Helvetica,sans-Serif" font-size="10.00" fill="#000000">YarpUtilities/src/Helper.cpp</text>
</g>
<!-- Node1 -->
<g id="node2" class="node">
<title>Node1</title>
<g id="a_node2"><a xlink:href="Helper_8h.html" target="_top" xlink:title="BipedalLocomotion/YarpUtilities\l/Helper.h">
<polygon fill="none" stroke="#000000" points="282,-246.5 282,-276.5 437,-276.5 437,-246.5 282,-246.5"/>
<text text-anchor="start" x="290" y="-264.5" font-family="Helvetica,sans-Serif" font-size="10.00" fill="#000000">BipedalLocomotion/YarpUtilities</text>
<text text-anchor="middle" x="359.5" y="-253.5" font-family="Helvetica,sans-Serif" font-size="10.00" fill="#000000">/Helper.h</text>
</a>
</g>
</g>
<!-- Node0&#45;&gt;Node1 -->
<g id="edge1" class="edge">
<title>Node0&#45;&gt;Node1</title>
<path fill="none" stroke="#191970" d="M359.5,-313.3906C359.5,-306.2234 359.5,-296.0862 359.5,-286.671"/>
<polygon fill="#191970" stroke="#191970" points="363.0001,-286.5446 359.5,-276.5446 356.0001,-286.5446 363.0001,-286.5446"/>
</g>
<!-- Node2 -->
<g id="node3" class="node">
<title>Node2</title>
<polygon fill="none" stroke="#bfbfbf" points="0,-190.5 0,-209.5 43,-209.5 43,-190.5 0,-190.5"/>
<text text-anchor="middle" x="21.5" y="-197.5" font-family="Helvetica,sans-Serif" font-size="10.00" fill="#000000">deque</text>
</g>
<!-- Node1&#45;&gt;Node2 -->
<g id="edge2" class="edge">
<title>Node1&#45;&gt;Node2</title>
<path fill="none" stroke="#191970" d="M281.9043,-251.6749C221.8311,-243.3345 136.4815,-229.8891 52.974,-209.816"/>
<polygon fill="#191970" stroke="#191970" points="53.6096,-206.3685 43.0652,-207.4004 51.9517,-213.1693 53.6096,-206.3685"/>
</g>
<!-- Node3 -->
<g id="node4" class="node">
<title>Node3</title>
<polygon fill="none" stroke="#bfbfbf" points="61.5,-190.5 61.5,-209.5 105.5,-209.5 105.5,-190.5 61.5,-190.5"/>
<text text-anchor="middle" x="83.5" y="-197.5" font-family="Helvetica,sans-Serif" font-size="10.00" fill="#000000">vector</text>
</g>
<!-- Node1&#45;&gt;Node3 -->
<g id="edge3" class="edge">
<title>Node1&#45;&gt;Node3</title>
<path fill="none" stroke="#191970" d="M281.7694,-247.3231C235.8139,-238.4356 176.3511,-226.062 115.5381,-210.0866"/>
<polygon fill="#191970" stroke="#191970" points="116.3316,-206.6761 105.7682,-207.4918 114.5347,-213.4416 116.3316,-206.6761"/>
</g>
<!-- Node4 -->
<g id="node5" class="node">
<title>Node4</title>
<polygon fill="none" stroke="#bfbfbf" points="124,-190.5 124,-209.5 239,-209.5 239,-190.5 124,-190.5"/>
<text text-anchor="middle" x="181.5" y="-197.5" font-family="Helvetica,sans-Serif" font-size="10.00" fill="#000000">yarp/os/BufferedPort.h</text>
</g>
<!-- Node1&#45;&gt;Node4 -->
<g id="edge4" class="edge">
<title>Node1&#45;&gt;Node4</title>
<path fill="none" stroke="#191970" d="M315.9563,-246.4554C286.1263,-236.149 246.9834,-222.6249 218.6298,-212.8286"/>
<polygon fill="#191970" stroke="#191970" points="219.6784,-209.4879 209.0837,-209.5303 217.3924,-216.1041 219.6784,-209.4879"/>
</g>
<!-- Node5 -->
<g id="node6" class="node">
<title>Node5</title>
<polygon fill="none" stroke="#bfbfbf" points="257,-190.5 257,-209.5 354,-209.5 354,-190.5 257,-190.5"/>
<text text-anchor="middle" x="305.5" y="-197.5" font-family="Helvetica,sans-Serif" font-size="10.00" fill="#000000">yarp/os/Property.h</text>
</g>
<!-- Node1&#45;&gt;Node5 -->
<g id="edge5" class="edge">
<title>Node1&#45;&gt;Node5</title>
<path fill="none" stroke="#191970" d="M346.1517,-246.2977C338.4998,-237.5831 328.8627,-226.6075 320.8924,-217.5302"/>
<polygon fill="#191970" stroke="#191970" points="323.3742,-215.052 314.1461,-209.8469 318.1141,-219.6707 323.3742,-215.052"/>
</g>
<!-- Node6 -->
<g id="node7" class="node">
<title>Node6</title>
<polygon fill="none" stroke="#bfbfbf" points="372,-190.5 372,-209.5 457,-209.5 457,-190.5 372,-190.5"/>
<text text-anchor="middle" x="414.5" y="-197.5" font-family="Helvetica,sans-Serif" font-size="10.00" fill="#000000">yarp/os/Value.h</text>
</g>
<!-- Node1&#45;&gt;Node6 -->
<g id="edge6" class="edge">
<title>Node1&#45;&gt;Node6</title>
<path fill="none" stroke="#191970" d="M373.0955,-246.2977C380.8891,-237.5831 390.7047,-226.6075 398.8226,-217.5302"/>
<polygon fill="#191970" stroke="#191970" points="401.6365,-219.6341 405.6938,-209.8469 396.4187,-214.9678 401.6365,-219.6341"/>
</g>
<!-- Node7 -->
<g id="node8" class="node">
<title>Node7</title>
<polygon fill="none" stroke="#bfbfbf" points="475,-190.5 475,-209.5 566,-209.5 566,-190.5 475,-190.5"/>
<text text-anchor="middle" x="520.5" y="-197.5" font-family="Helvetica,sans-Serif" font-size="10.00" fill="#000000">yarp/sig/Vector.h</text>
</g>
<!-- Node1&#45;&gt;Node7 -->
<g id="edge7" class="edge">
<title>Node1&#45;&gt;Node7</title>
<path fill="none" stroke="#191970" d="M398.885,-246.4554C425.5127,-236.284 460.3444,-222.9787 485.9034,-213.2155"/>
<polygon fill="#191970" stroke="#191970" points="487.458,-216.3684 495.5507,-209.5303 484.9601,-209.8292 487.458,-216.3684"/>
</g>
<!-- Node8 -->
<g id="node9" class="node">
<title>Node8</title>
<polygon fill="none" stroke="#bfbfbf" points="584.5,-190.5 584.5,-209.5 742.5,-209.5 742.5,-190.5 584.5,-190.5"/>
<text text-anchor="middle" x="663.5" y="-197.5" font-family="Helvetica,sans-Serif" font-size="10.00" fill="#000000">iDynTree/Core/VectorDynSize.h</text>
</g>
<!-- Node1&#45;&gt;Node8 -->
<g id="edge8" class="edge">
<title>Node1&#45;&gt;Node8</title>
<path fill="none" stroke="#191970" d="M433.8668,-246.4554C487.0371,-235.6989 557.532,-221.4376 606.3228,-211.5671"/>
<polygon fill="#191970" stroke="#191970" points="607.2834,-214.9438 616.3908,-209.5303 605.8953,-208.0827 607.2834,-214.9438"/>
</g>
<!-- Node9 -->
<g id="node10" class="node">
<title>Node9</title>
<g id="a_node10"><a xlink:href="Helper_8tpp.html" target="_top" xlink:title="Helper.tpp">
<polygon fill="none" stroke="#000000" points="760.5,-190.5 760.5,-209.5 822.5,-209.5 822.5,-190.5 760.5,-190.5"/>
<text text-anchor="middle" x="791.5" y="-197.5" font-family="Helvetica,sans-Serif" font-size="10.00" fill="#000000">Helper.tpp</text>
</a>
</g>
</g>
<!-- Node1&#45;&gt;Node9 -->
<g id="edge9" class="edge">
<title>Node1&#45;&gt;Node9</title>
<path fill="none" stroke="#191970" d="M437.2703,-253.9336C514.4177,-245.8255 636.1363,-231.414 750.1813,-210.0848"/>
<polygon fill="#191970" stroke="#191970" points="750.9571,-213.5001 760.1322,-208.2022 749.6558,-206.6222 750.9571,-213.5001"/>
</g>
<!-- Node10 -->
<g id="node11" class="node">
<title>Node10</title>
<polygon fill="none" stroke="#bfbfbf" points="725.5,-62 725.5,-81 779.5,-81 779.5,-62 725.5,-62"/>
<text text-anchor="middle" x="752.5" y="-69" font-family="Helvetica,sans-Serif" font-size="10.00" fill="#000000">iostream</text>
</g>
<!-- Node9&#45;&gt;Node10 -->
<g id="edge10" class="edge">
<title>Node9&#45;&gt;Node10</title>
<path fill="none" stroke="#191970" d="M788.5687,-190.3416C782.1881,-169.3184 766.9345,-119.0598 758.4498,-91.1038"/>
<polygon fill="#191970" stroke="#191970" points="761.7188,-89.823 755.4654,-81.2705 755.0205,-91.856 761.7188,-89.823"/>
</g>
<!-- Node11 -->
<g id="node12" class="node">
<title>Node11</title>
<polygon fill="none" stroke="#bfbfbf" points="711.5,-.5 711.5,-19.5 773.5,-19.5 773.5,-.5 711.5,-.5"/>
<text text-anchor="middle" x="742.5" y="-7.5" font-family="Helvetica,sans-Serif" font-size="10.00" fill="#000000">type_traits</text>
</g>
<!-- Node9&#45;&gt;Node11 -->
<g id="edge11" class="edge">
<title>Node9&#45;&gt;Node11</title>
<path fill="none" stroke="#191970" d="M782.2293,-190.4591C765.2157,-172.2034 729.5564,-130.2817 716.5,-87 712.5209,-73.8093 712.995,-69.3245 716.5,-56 719.1112,-46.0734 724.4067,-36.0366 729.5412,-27.8822"/>
<polygon fill="#191970" stroke="#191970" points="732.4463,-29.8342 735.1181,-19.5817 726.636,-25.9303 732.4463,-29.8342"/>
</g>
<!-- Node12 -->
<g id="node13" class="node">
<title>Node12</title>
<g id="a_node13"><a xlink:href="TemplateHelpers_8h_source.html" target="_top" xlink:title="BipedalLocomotion/Generic\lContainer/TemplateHelpers.h">
<polygon fill="none" stroke="#000000" points="797.5,-56.5 797.5,-86.5 941.5,-86.5 941.5,-56.5 797.5,-56.5"/>
<text text-anchor="start" x="805.5" y="-74.5" font-family="Helvetica,sans-Serif" font-size="10.00" fill="#000000">BipedalLocomotion/Generic</text>
<text text-anchor="middle" x="869.5" y="-63.5" font-family="Helvetica,sans-Serif" font-size="10.00" fill="#000000">Container/TemplateHelpers.h</text>
</a>
</g>
</g>
<!-- Node9&#45;&gt;Node12 -->
<g id="edge12" class="edge">
<title>Node9&#45;&gt;Node12</title>
<path fill="none" stroke="#191970" d="M797.3627,-190.3416C809.511,-170.328 837.7419,-123.8194 855.0655,-95.2799"/>
<polygon fill="#191970" stroke="#191970" points="858.0755,-97.0662 860.2726,-86.7016 852.0917,-93.4339 858.0755,-97.0662"/>
</g>
<!-- Node15 -->
<g id="node16" class="node">
<title>Node15</title>
<g id="a_node16"><a xlink:href="Vector_8h_source.html" target="_top" xlink:title="BipedalLocomotion/Generic\lContainer/Vector.h">
<polygon fill="none" stroke="#000000" points="921.5,-123.5 921.5,-153.5 1057.5,-153.5 1057.5,-123.5 921.5,-123.5"/>
<text text-anchor="start" x="929.5" y="-141.5" font-family="Helvetica,sans-Serif" font-size="10.00" fill="#000000">BipedalLocomotion/Generic</text>
<text text-anchor="middle" x="989.5" y="-130.5" font-family="Helvetica,sans-Serif" font-size="10.00" fill="#000000">Container/Vector.h</text>
</a>
</g>
</g>
<!-- Node9&#45;&gt;Node15 -->
<g id="edge16" class="edge">
<title>Node9&#45;&gt;Node15</title>
<path fill="none" stroke="#191970" d="M822.4375,-190.3906C851.4675,-181.3737 895.6308,-167.6563 931.2604,-156.5896"/>
<polygon fill="#191970" stroke="#191970" points="932.552,-159.8534 941.0638,-153.5446 930.4756,-153.1684 932.552,-159.8534"/>
</g>
<!-- Node12&#45;&gt;Node11 -->
<g id="edge13" class="edge">
<title>Node12&#45;&gt;Node11</title>
<path fill="none" stroke="#191970" d="M838.4323,-56.4554C817.9855,-46.554 791.4063,-33.683 771.4115,-24.0004"/>
<polygon fill="#191970" stroke="#191970" points="772.7062,-20.7387 762.1805,-19.5303 769.6553,-27.0388 772.7062,-20.7387"/>
</g>
<!-- Node13 -->
<g id="node14" class="node">
<title>Node13</title>
<polygon fill="none" stroke="#bfbfbf" points="878.5,-.5 878.5,-19.5 944.5,-19.5 944.5,-.5 878.5,-.5"/>
<text text-anchor="middle" x="911.5" y="-7.5" font-family="Helvetica,sans-Serif" font-size="10.00" fill="#000000">string_view</text>
</g>
<!-- Node12&#45;&gt;Node13 -->
<g id="edge14" class="edge">
<title>Node12&#45;&gt;Node13</title>
<path fill="none" stroke="#191970" d="M879.882,-56.2977C885.6513,-47.8498 892.8716,-37.2773 898.9553,-28.369"/>
<polygon fill="#191970" stroke="#191970" points="902.0259,-30.0788 904.7753,-19.8469 896.2453,-26.1311 902.0259,-30.0788"/>
</g>
<!-- Node14 -->
<g id="node15" class="node">
<title>Node14</title>
<polygon fill="none" stroke="#bfbfbf" points="795,-.5 795,-19.5 860,-19.5 860,-.5 795,-.5"/>
<text text-anchor="middle" x="827.5" y="-7.5" font-family="Helvetica,sans-Serif" font-size="10.00" fill="#000000">Eigen/Core</text>
</g>
<!-- Node12&#45;&gt;Node14 -->
<g id="edge15" class="edge">
<title>Node12&#45;&gt;Node14</title>
<path fill="none" stroke="#191970" d="M859.118,-56.2977C853.3487,-47.8498 846.1284,-37.2773 840.0447,-28.369"/>
<polygon fill="#191970" stroke="#191970" points="842.7547,-26.1311 834.2247,-19.8469 836.9741,-30.0788 842.7547,-26.1311"/>
</g>
<!-- Node15&#45;&gt;Node10 -->
<g id="edge21" class="edge">
<title>Node15&#45;&gt;Node10</title>
<path fill="none" stroke="#191970" d="M921.2692,-123.806C881.9985,-114.6589 831.9705,-101.8264 788.5,-87 786.6162,-86.3575 784.6929,-85.6595 782.7637,-84.927"/>
<polygon fill="#191970" stroke="#191970" points="783.8075,-81.5739 773.2244,-81.075 781.1865,-88.0647 783.8075,-81.5739"/>
</g>
<!-- Node15&#45;&gt;Node12 -->
<g id="edge18" class="edge">
<title>Node15&#45;&gt;Node12</title>
<path fill="none" stroke="#191970" d="M962.5697,-123.4639C945.7812,-114.0903 923.9694,-101.9121 905.6817,-91.7015"/>
<polygon fill="#191970" stroke="#191970" points="907.1932,-88.5368 896.7556,-86.7177 903.7807,-94.6487 907.1932,-88.5368"/>
</g>
<!-- Node16 -->
<g id="node17" class="node">
<title>Node16</title>
<polygon fill="none" stroke="#bfbfbf" points="1174.5,-62 1174.5,-81 1288.5,-81 1288.5,-62 1174.5,-62"/>
<text text-anchor="middle" x="1231.5" y="-69" font-family="Helvetica,sans-Serif" font-size="10.00" fill="#000000">iDynTree/Core/Span.h</text>
</g>
<!-- Node15&#45;&gt;Node16 -->
<g id="edge17" class="edge">
<title>Node15&#45;&gt;Node16</title>
<path fill="none" stroke="#191970" d="M1043.8095,-123.4639C1087.1031,-111.4776 1146.9617,-94.9052 1187.3427,-83.7254"/>
<polygon fill="#191970" stroke="#191970" points="1188.4639,-87.0467 1197.1675,-81.0053 1186.5961,-80.3005 1188.4639,-87.0467"/>
</g>
<!-- Node17 -->
<g id="node18" class="node">
<title>Node17</title>
<polygon fill="none" stroke="#bfbfbf" points="960,-62 960,-81 1019,-81 1019,-62 960,-62"/>
<text text-anchor="middle" x="989.5" y="-69" font-family="Helvetica,sans-Serif" font-size="10.00" fill="#000000">functional</text>
</g>
<!-- Node15&#45;&gt;Node17 -->
<g id="edge19" class="edge">
<title>Node15&#45;&gt;Node17</title>
<path fill="none" stroke="#191970" d="M989.5,-123.2967C989.5,-113.7699 989.5,-101.3954 989.5,-91.1306"/>
<polygon fill="#191970" stroke="#191970" points="993.0001,-91.0549 989.5,-81.055 986.0001,-91.055 993.0001,-91.0549"/>
</g>
<!-- Node18 -->
<g id="node19" class="node">
<title>Node18</title>
<polygon fill="none" stroke="#bfbfbf" points="1037,-62 1037,-81 1086,-81 1086,-62 1037,-62"/>
<text text-anchor="middle" x="1061.5" y="-69" font-family="Helvetica,sans-Serif" font-size="10.00" fill="#000000">cassert</text>
</g>
<!-- Node15&#45;&gt;Node18 -->
<g id="edge20" class="edge">
<title>Node15&#45;&gt;Node18</title>
<path fill="none" stroke="#191970" d="M1005.8379,-123.2967C1017.1648,-112.7564 1032.2376,-98.7303 1043.8414,-87.9323"/>
<polygon fill="#191970" stroke="#191970" points="1046.2956,-90.4296 1051.232,-81.055 1041.5269,-85.3051 1046.2956,-90.4296"/>
</g>
<!-- Node19 -->
<g id="node20" class="node">
<title>Node19</title>
<polygon fill="none" stroke="#bfbfbf" points="1104.5,-62 1104.5,-81 1156.5,-81 1156.5,-62 1104.5,-62"/>
<text text-anchor="middle" x="1130.5" y="-69" font-family="Helvetica,sans-Serif" font-size="10.00" fill="#000000">memory</text>
</g>
<!-- Node15&#45;&gt;Node19 -->
<g id="edge22" class="edge">
<title>Node15&#45;&gt;Node19</title>
<path fill="none" stroke="#191970" d="M1021.1432,-123.4639C1045.1208,-112.0702 1077.8193,-96.5327 1101.2017,-85.4219"/>
<polygon fill="#191970" stroke="#191970" points="1102.7588,-88.5571 1110.2888,-81.1039 1099.7544,-82.2346 1102.7588,-88.5571"/>
</g>
</g>
</svg>
