<?xml version="1.0" encoding="UTF-8" standalone="no"?>
<!DOCTYPE svg PUBLIC "-//W3C//DTD SVG 1.1//EN"
 "http://www.w3.org/Graphics/SVG/1.1/DTD/svg11.dtd">
<!-- Generated by graphviz version 2.40.1 (20161225.0304)
 -->
<!-- Title: YarpUtilities/include/BipedalLocomotion/YarpUtilities/Helper.tpp Pages: 1 -->
<svg width="386pt" height="351pt"
 viewBox="0.00 0.00 386.00 351.00" xmlns="http://www.w3.org/2000/svg" xmlns:xlink="http://www.w3.org/1999/xlink">
<g id="graph0" class="graph" transform="scale(1 1) rotate(0) translate(4 347)">
<title>YarpUtilities/include/BipedalLocomotion/YarpUtilities/Helper.tpp</title>
<!-- Node11 -->
<g id="node1" class="node">
<title>Node11</title>
<polygon fill="#bfbfbf" stroke="#000000" points="131.5,-301.5 131.5,-342.5 289.5,-342.5 289.5,-301.5 131.5,-301.5"/>
<text text-anchor="start" x="139.5" y="-330.5" font-family="Helvetica,sans-Serif" font-size="10.00" fill="#000000">YarpUtilities/include</text>
<text text-anchor="start" x="139.5" y="-319.5" font-family="Helvetica,sans-Serif" font-size="10.00" fill="#000000">/BipedalLocomotion/YarpUtilities</text>
<text text-anchor="middle" x="210.5" y="-308.5" font-family="Helvetica,sans-Serif" font-size="10.00" fill="#000000">/Helper.tpp</text>
</g>
<!-- Node12 -->
<g id="node2" class="node">
<title>Node12</title>
<g id="a_node2"><a xlink:href="Helper_8h.html" target="_top" xlink:title="YarpUtilities/include\l/BipedalLocomotion/YarpUtilities\l/Helper.h">
<polygon fill="none" stroke="#000000" points="131.5,-223.5 131.5,-264.5 289.5,-264.5 289.5,-223.5 131.5,-223.5"/>
<text text-anchor="start" x="139.5" y="-252.5" font-family="Helvetica,sans-Serif" font-size="10.00" fill="#000000">YarpUtilities/include</text>
<text text-anchor="start" x="139.5" y="-241.5" font-family="Helvetica,sans-Serif" font-size="10.00" fill="#000000">/BipedalLocomotion/YarpUtilities</text>
<text text-anchor="middle" x="210.5" y="-230.5" font-family="Helvetica,sans-Serif" font-size="10.00" fill="#000000">/Helper.h</text>
</a>
</g>
</g>
<!-- Node11&#45;&gt;Node12 -->
<g id="edge1" class="edge">
<title>Node11&#45;&gt;Node12</title>
<path fill="none" stroke="#191970" d="M210.5,-291.0789C210.5,-282.2178 210.5,-272.7747 210.5,-264.6898"/>
<polygon fill="#191970" stroke="#191970" points="207.0001,-291.0974 210.5,-301.0974 214.0001,-291.0975 207.0001,-291.0974"/>
</g>
<!-- Node13 -->
<g id="node3" class="node">
<title>Node13</title>
<g id="a_node3"><a xlink:href="YarpImplementation_8tpp.html" target="_top" xlink:title="ParametersHandler/YarpImplementation\l/include/BipedalLocomotion/ParametersHandler\l/YarpImplementation.tpp">
<polygon fill="none" stroke="#000000" points="0,-145.5 0,-186.5 223,-186.5 223,-145.5 0,-145.5"/>
<text text-anchor="start" x="8" y="-174.5" font-family="Helvetica,sans-Serif" font-size="10.00" fill="#000000">ParametersHandler/YarpImplementation</text>
<text text-anchor="start" x="8" y="-163.5" font-family="Helvetica,sans-Serif" font-size="10.00" fill="#000000">/include/BipedalLocomotion/ParametersHandler</text>
<text text-anchor="middle" x="111.5" y="-152.5" font-family="Helvetica,sans-Serif" font-size="10.00" fill="#000000">/YarpImplementation.tpp</text>
</a>
</g>
</g>
<!-- Node12&#45;&gt;Node13 -->
<g id="edge2" class="edge">
<title>Node12&#45;&gt;Node13</title>
<path fill="none" stroke="#191970" d="M176.1577,-216.9424C163.4927,-206.9639 149.3624,-195.831 137.5495,-186.5239"/>
<polygon fill="#191970" stroke="#191970" points="174.2087,-219.8627 184.2297,-223.3022 178.5409,-214.3642 174.2087,-219.8627"/>
</g>
<!-- Node16 -->
<g id="node6" class="node">
<title>Node16</title>
<g id="a_node6"><a xlink:href="Helper_8cpp.html" target="_top" xlink:title="YarpUtilities/src/Helper.cpp">
<polygon fill="none" stroke="#000000" points="241,-156.5 241,-175.5 378,-175.5 378,-156.5 241,-156.5"/>
<text text-anchor="middle" x="309.5" y="-163.5" font-family="Helvetica,sans-Serif" font-size="10.00" fill="#000000">YarpUtilities/src/Helper.cpp</text>
</a>
</g>
</g>
<!-- Node12&#45;&gt;Node16 -->
<g id="edge6" class="edge">
<title>Node12&#45;&gt;Node16</title>
<path fill="none" stroke="#191970" d="M244.8682,-216.922C263.0414,-202.6037 284.2254,-185.9134 297.2497,-175.6517"/>
<polygon fill="#191970" stroke="#191970" points="242.4591,-214.3642 236.7703,-223.3022 246.7913,-219.8627 242.4591,-214.3642"/>
</g>
<!-- Node14 -->
<g id="node4" class="node">
<title>Node14</title>
<g id="a_node4"><a xlink:href="YarpImplementation_8h.html" target="_top" xlink:title="ParametersHandler/YarpImplementation\l/include/BipedalLocomotion/ParametersHandler\l/YarpImplementation.h">
<polygon fill="none" stroke="#000000" points="0,-67.5 0,-108.5 223,-108.5 223,-67.5 0,-67.5"/>
<text text-anchor="start" x="8" y="-96.5" font-family="Helvetica,sans-Serif" font-size="10.00" fill="#000000">ParametersHandler/YarpImplementation</text>
<text text-anchor="start" x="8" y="-85.5" font-family="Helvetica,sans-Serif" font-size="10.00" fill="#000000">/include/BipedalLocomotion/ParametersHandler</text>
<text text-anchor="middle" x="111.5" y="-74.5" font-family="Helvetica,sans-Serif" font-size="10.00" fill="#000000">/YarpImplementation.h</text>
</a>
</g>
</g>
<!-- Node13&#45;&gt;Node14 -->
<g id="edge3" class="edge">
<title>Node13&#45;&gt;Node14</title>
<path fill="none" stroke="#191970" d="M104.8804,-135.0789C104.5906,-126.2178 104.7839,-116.7747 105.4602,-108.6898"/>
<polygon fill="#191970" stroke="#191970" points="101.3877,-135.3092 105.4426,-145.0974 108.3767,-134.917 101.3877,-135.3092"/>
</g>
<!-- Node14&#45;&gt;Node13 -->
<g id="edge4" class="edge">
<title>Node14&#45;&gt;Node13</title>
<path fill="none" stroke="#191970" d="M118.1119,-118.6884C118.4102,-127.5392 118.2253,-136.9888 117.5574,-145.0974"/>
<polygon fill="#191970" stroke="#191970" points="121.6054,-118.4735 117.5398,-108.6898 114.6168,-118.8734 121.6054,-118.4735"/>
</g>
<!-- Node15 -->
<g id="node5" class="node">
<title>Node15</title>
<g id="a_node5"><a xlink:href="YarpImplementation_8cpp.html" target="_top" xlink:title="ParametersHandler/YarpImplementation\l/src/YarpImplementation.cpp">
<polygon fill="none" stroke="#000000" points="16,-.5 16,-30.5 207,-30.5 207,-.5 16,-.5"/>
<text text-anchor="start" x="24" y="-18.5" font-family="Helvetica,sans-Serif" font-size="10.00" fill="#000000">ParametersHandler/YarpImplementation</text>
<text text-anchor="middle" x="111.5" y="-7.5" font-family="Helvetica,sans-Serif" font-size="10.00" fill="#000000">/src/YarpImplementation.cpp</text>
</a>
</g>
</g>
<!-- Node14&#45;&gt;Node15 -->
<g id="edge5" class="edge">
<title>Node14&#45;&gt;Node15</title>
<path fill="none" stroke="#191970" d="M111.5,-57.3279C111.5,-48.0871 111.5,-38.3508 111.5,-30.5991"/>
<polygon fill="#191970" stroke="#191970" points="108.0001,-57.4183 111.5,-67.4183 115.0001,-57.4184 108.0001,-57.4183"/>
</g>
</g>
</svg>
