<?xml version="1.0" encoding="UTF-8" standalone="no"?>
<!DOCTYPE svg PUBLIC "-//W3C//DTD SVG 1.1//EN"
 "http://www.w3.org/Graphics/SVG/1.1/DTD/svg11.dtd">
<!-- Generated by graphviz version 2.40.1 (20161225.0304)
 -->
<!-- Title: YarpUtilities/include/BipedalLocomotion/YarpUtilities/Helper.h Pages: 1 -->
<!--zoomable 296 -->
<svg id="main" version="1.1" xmlns="http://www.w3.org/2000/svg" xmlns:xlink="http://www.w3.org/1999/xlink" xml:space="preserve" onload="init(evt)">
<style type="text/css"><![CDATA[
.edge:hover path { stroke: red; }
.edge:hover polygon { stroke: red; fill: red; }
]]></style>
<script type="text/javascript"><![CDATA[
var edges = document.getElementsByTagName('g');
if (edges && edges.length) {
  for (var i=0;i<edges.length;i++) {
    if (edges[i].id.substr(0,4)=='edge') {
      edges[i].setAttribute('class','edge');
    }
  }
}
]]></script>
        <defs>
                <circle id="rim" cx="0" cy="0" r="7"/>
                <circle id="rim2" cx="0" cy="0" r="3.5"/>
                <g id="zoomPlus">
                        <use xlink:href="#rim" fill="#404040">
                                <set attributeName="fill" to="#808080" begin="zoomplus.mouseover" end="zoomplus.mouseout"/>
                        </use>
                        <path d="M-4,0h8M0,-4v8" fill="none" stroke="white" stroke-width="1.5" pointer-events="none"/>
                </g>
                <g id="zoomMin">
                        <use xlink:href="#rim" fill="#404040">
                                <set attributeName="fill" to="#808080" begin="zoomminus.mouseover" end="zoomminus.mouseout"/>
                        </use>
                        <path d="M-4,0h8" fill="none" stroke="white" stroke-width="1.5" pointer-events="none"/>
                </g>
                <g id="dirArrow">
                        <path fill="none" stroke="white" stroke-width="1.5" d="M0,-3.0v7 M-2.5,-0.5L0,-3.0L2.5,-0.5"/>
                </g>
               <g id="resetDef">
                       <use xlink:href="#rim2" fill="#404040">
                               <set attributeName="fill" to="#808080" begin="reset.mouseover" end="reset.mouseout"/>
                       </use>
               </g>
        </defs>

<script type="text/javascript">
var viewWidth = 1297;
var viewHeight = 296;
var sectionId = 'dynsection-0';
</script>
<script xlink:href="svgpan.js"/>
<svg id="graph" class="graph">
<g id="viewport">
<title>YarpUtilities/include/BipedalLocomotion/YarpUtilities/Helper.h</title>
<!-- Node0 -->
<g id="node1" class="node">
<title>Node0</title>
<polygon fill="#bfbfbf" stroke="#000000" points="280.5,-246.5 280.5,-287.5 438.5,-287.5 438.5,-246.5 280.5,-246.5"/>
<text text-anchor="start" x="288.5" y="-275.5" font-family="Helvetica,sans-Serif" font-size="10.00" fill="#000000">YarpUtilities/include</text>
<text text-anchor="start" x="288.5" y="-264.5" font-family="Helvetica,sans-Serif" font-size="10.00" fill="#000000">/BipedalLocomotion/YarpUtilities</text>
<text text-anchor="middle" x="359.5" y="-253.5" font-family="Helvetica,sans-Serif" font-size="10.00" fill="#000000">/Helper.h</text>
</g>
<!-- Node1 -->
<g id="node2" class="node">
<title>Node1</title>
<polygon fill="none" stroke="#bfbfbf" points="0,-190.5 0,-209.5 43,-209.5 43,-190.5 0,-190.5"/>
<text text-anchor="middle" x="21.5" y="-197.5" font-family="Helvetica,sans-Serif" font-size="10.00" fill="#000000">deque</text>
</g>
<!-- Node0&#45;&gt;Node1 -->
<g id="edge1" class="edge">
<title>Node0&#45;&gt;Node1</title>
<path fill="none" stroke="#191970" d="M280.3441,-255.1734C220.3619,-245.5495 135.8292,-230.574 52.9166,-209.8413"/>
<polygon fill="#191970" stroke="#191970" points="53.6304,-206.4117 43.0773,-207.3515 51.9131,-213.1978 53.6304,-206.4117"/>
</g>
<!-- Node2 -->
<g id="node3" class="node">
<title>Node2</title>
<polygon fill="none" stroke="#bfbfbf" points="61.5,-190.5 61.5,-209.5 105.5,-209.5 105.5,-190.5 61.5,-190.5"/>
<text text-anchor="middle" x="83.5" y="-197.5" font-family="Helvetica,sans-Serif" font-size="10.00" fill="#000000">vector</text>
</g>
<!-- Node0&#45;&gt;Node2 -->
<g id="edge2" class="edge">
<title>Node0&#45;&gt;Node2</title>
<path fill="none" stroke="#191970" d="M280.4624,-250.3679C234.702,-240.326 175.8594,-226.7142 115.485,-210.1223"/>
<polygon fill="#191970" stroke="#191970" points="116.3555,-206.7317 105.7839,-207.4339 114.486,-213.4774 116.3555,-206.7317"/>
</g>
<!-- Node3 -->
<g id="node4" class="node">
<title>Node3</title>
<polygon fill="none" stroke="#bfbfbf" points="124,-190.5 124,-209.5 239,-209.5 239,-190.5 124,-190.5"/>
<text text-anchor="middle" x="181.5" y="-197.5" font-family="Helvetica,sans-Serif" font-size="10.00" fill="#000000">yarp/os/BufferedPort.h</text>
</g>
<!-- Node0&#45;&gt;Node3 -->
<g id="edge3" class="edge">
<title>Node0&#45;&gt;Node3</title>
<path fill="none" stroke="#191970" d="M304.6417,-246.3511C275.9648,-235.557 241.7138,-222.6647 216.6229,-213.2204"/>
<polygon fill="#191970" stroke="#191970" points="217.7416,-209.9018 207.1496,-209.6546 215.2756,-216.4531 217.7416,-209.9018"/>
</g>
<!-- Node4 -->
<g id="node5" class="node">
<title>Node4</title>
<polygon fill="none" stroke="#bfbfbf" points="257,-190.5 257,-209.5 354,-209.5 354,-190.5 257,-190.5"/>
<text text-anchor="middle" x="305.5" y="-197.5" font-family="Helvetica,sans-Serif" font-size="10.00" fill="#000000">yarp/os/Property.h</text>
</g>
<!-- Node0&#45;&gt;Node4 -->
<g id="edge4" class="edge">
<title>Node0&#45;&gt;Node4</title>
<path fill="none" stroke="#191970" d="M342.7101,-246.168C335.3724,-237.0639 326.8549,-226.4959 319.822,-217.7699"/>
<polygon fill="#191970" stroke="#191970" points="322.3831,-215.3701 313.3828,-209.7805 316.933,-219.7628 322.3831,-215.3701"/>
</g>
<!-- Node5 -->
<g id="node6" class="node">
<title>Node5</title>
<polygon fill="none" stroke="#bfbfbf" points="372,-190.5 372,-209.5 457,-209.5 457,-190.5 372,-190.5"/>
<text text-anchor="middle" x="414.5" y="-197.5" font-family="Helvetica,sans-Serif" font-size="10.00" fill="#000000">yarp/os/Value.h</text>
</g>
<!-- Node0&#45;&gt;Node5 -->
<g id="edge5" class="edge">
<title>Node0&#45;&gt;Node5</title>
<path fill="none" stroke="#191970" d="M376.6009,-246.168C384.0744,-237.0639 392.7496,-226.4959 399.9127,-217.7699"/>
<polygon fill="#191970" stroke="#191970" points="402.8315,-219.7305 406.4713,-209.7805 397.421,-215.289 402.8315,-219.7305"/>
</g>
<!-- Node6 -->
<g id="node7" class="node">
<title>Node6</title>
<polygon fill="none" stroke="#bfbfbf" points="475,-190.5 475,-209.5 566,-209.5 566,-190.5 475,-190.5"/>
<text text-anchor="middle" x="520.5" y="-197.5" font-family="Helvetica,sans-Serif" font-size="10.00" fill="#000000">yarp/sig/Vector.h</text>
</g>
<!-- Node0&#45;&gt;Node6 -->
<g id="edge6" class="edge">
<title>Node0&#45;&gt;Node6</title>
<path fill="none" stroke="#191970" d="M409.119,-246.3511C434.7128,-235.7003 465.2154,-223.0066 487.8234,-213.5983"/>
<polygon fill="#191970" stroke="#191970" points="489.4123,-216.7281 497.3001,-209.6546 486.7228,-210.2654 489.4123,-216.7281"/>
</g>
<!-- Node7 -->
<g id="node8" class="node">
<title>Node7</title>
<polygon fill="none" stroke="#bfbfbf" points="584.5,-190.5 584.5,-209.5 742.5,-209.5 742.5,-190.5 584.5,-190.5"/>
<text text-anchor="middle" x="663.5" y="-197.5" font-family="Helvetica,sans-Serif" font-size="10.00" fill="#000000">iDynTree/Core/VectorDynSize.h</text>
</g>
<!-- Node0&#45;&gt;Node7 -->
<g id="edge7" class="edge">
<title>Node0&#45;&gt;Node7</title>
<path fill="none" stroke="#191970" d="M438.5788,-249.5714C492.6147,-237.6622 562.7641,-222.2017 610.2469,-211.7367"/>
<polygon fill="#191970" stroke="#191970" points="611.0089,-215.1528 620.0212,-209.5825 609.5023,-208.3169 611.0089,-215.1528"/>
</g>
<!-- Node8 -->
<g id="node9" class="node">
<title>Node8</title>
<g id="a_node9"><a xlink:href="Helper_8tpp.html" target="_top" xlink:title="Helper.tpp">
<polygon fill="none" stroke="#000000" points="760.5,-190.5 760.5,-209.5 822.5,-209.5 822.5,-190.5 760.5,-190.5"/>
<text text-anchor="middle" x="791.5" y="-197.5" font-family="Helvetica,sans-Serif" font-size="10.00" fill="#000000">Helper.tpp</text>
</a>
</g>
</g>
<!-- Node0&#45;&gt;Node8 -->
<g id="edge8" class="edge">
<title>Node0&#45;&gt;Node8</title>
<path fill="none" stroke="#191970" d="M438.7336,-257.8541C515.9463,-248.4006 636.8003,-232.1724 750.2267,-210.1052"/>
<polygon fill="#191970" stroke="#191970" points="750.9864,-213.5229 760.1242,-208.1608 749.637,-206.6542 750.9864,-213.5229"/>
</g>
<!-- Node9 -->
<g id="node10" class="node">
<title>Node9</title>
<polygon fill="none" stroke="#bfbfbf" points="725.5,-62 725.5,-81 779.5,-81 779.5,-62 725.5,-62"/>
<text text-anchor="middle" x="752.5" y="-69" font-family="Helvetica,sans-Serif" font-size="10.00" fill="#000000">iostream</text>
</g>
<!-- Node8&#45;&gt;Node9 -->
<g id="edge9" class="edge">
<title>Node8&#45;&gt;Node9</title>
<path fill="none" stroke="#191970" d="M788.5687,-190.3416C782.1881,-169.3184 766.9345,-119.0598 758.4498,-91.1038"/>
<polygon fill="#191970" stroke="#191970" points="761.7188,-89.823 755.4654,-81.2705 755.0205,-91.856 761.7188,-89.823"/>
</g>
<!-- Node10 -->
<g id="node11" class="node">
<title>Node10</title>
<polygon fill="none" stroke="#bfbfbf" points="711.5,-.5 711.5,-19.5 773.5,-19.5 773.5,-.5 711.5,-.5"/>
<text text-anchor="middle" x="742.5" y="-7.5" font-family="Helvetica,sans-Serif" font-size="10.00" fill="#000000">type_traits</text>
</g>
<!-- Node8&#45;&gt;Node10 -->
<g id="edge10" class="edge">
<title>Node8&#45;&gt;Node10</title>
<path fill="none" stroke="#191970" d="M782.2293,-190.4591C765.2157,-172.2034 729.5564,-130.2817 716.5,-87 712.5209,-73.8093 712.995,-69.3245 716.5,-56 719.1112,-46.0734 724.4067,-36.0366 729.5412,-27.8822"/>
<polygon fill="#191970" stroke="#191970" points="732.4463,-29.8342 735.1181,-19.5817 726.636,-25.9303 732.4463,-29.8342"/>
</g>
<!-- Node11 -->
<g id="node12" class="node">
<title>Node11</title>
<g id="a_node12"><a xlink:href="TemplateHelpers_8h_source.html" target="_top" xlink:title="BipedalLocomotion/Generic\lContainer/TemplateHelpers.h">
<polygon fill="none" stroke="#000000" points="797.5,-56.5 797.5,-86.5 941.5,-86.5 941.5,-56.5 797.5,-56.5"/>
<text text-anchor="start" x="805.5" y="-74.5" font-family="Helvetica,sans-Serif" font-size="10.00" fill="#000000">BipedalLocomotion/Generic</text>
<text text-anchor="middle" x="869.5" y="-63.5" font-family="Helvetica,sans-Serif" font-size="10.00" fill="#000000">Container/TemplateHelpers.h</text>
</a>
</g>
</g>
<!-- Node8&#45;&gt;Node11 -->
<g id="edge11" class="edge">
<title>Node8&#45;&gt;Node11</title>
<path fill="none" stroke="#191970" d="M797.3627,-190.3416C809.511,-170.328 837.7419,-123.8194 855.0655,-95.2799"/>
<polygon fill="#191970" stroke="#191970" points="858.0755,-97.0662 860.2726,-86.7016 852.0917,-93.4339 858.0755,-97.0662"/>
</g>
<!-- Node14 -->
<g id="node15" class="node">
<title>Node14</title>
<g id="a_node15"><a xlink:href="Vector_8h_source.html" target="_top" xlink:title="BipedalLocomotion/Generic\lContainer/Vector.h">
<polygon fill="none" stroke="#000000" points="921.5,-123.5 921.5,-153.5 1057.5,-153.5 1057.5,-123.5 921.5,-123.5"/>
<text text-anchor="start" x="929.5" y="-141.5" font-family="Helvetica,sans-Serif" font-size="10.00" fill="#000000">BipedalLocomotion/Generic</text>
<text text-anchor="middle" x="989.5" y="-130.5" font-family="Helvetica,sans-Serif" font-size="10.00" fill="#000000">Container/Vector.h</text>
</a>
</g>
</g>
<!-- Node8&#45;&gt;Node14 -->
<g id="edge15" class="edge">
<title>Node8&#45;&gt;Node14</title>
<path fill="none" stroke="#191970" d="M822.4375,-190.3906C851.4675,-181.3737 895.6308,-167.6563 931.2604,-156.5896"/>
<polygon fill="#191970" stroke="#191970" points="932.552,-159.8534 941.0638,-153.5446 930.4756,-153.1684 932.552,-159.8534"/>
</g>
<!-- Node11&#45;&gt;Node10 -->
<g id="edge12" class="edge">
<title>Node11&#45;&gt;Node10</title>
<path fill="none" stroke="#191970" d="M838.4323,-56.4554C817.9855,-46.554 791.4063,-33.683 771.4115,-24.0004"/>
<polygon fill="#191970" stroke="#191970" points="772.7062,-20.7387 762.1805,-19.5303 769.6553,-27.0388 772.7062,-20.7387"/>
</g>
<!-- Node12 -->
<g id="node13" class="node">
<title>Node12</title>
<polygon fill="none" stroke="#bfbfbf" points="878.5,-.5 878.5,-19.5 944.5,-19.5 944.5,-.5 878.5,-.5"/>
<text text-anchor="middle" x="911.5" y="-7.5" font-family="Helvetica,sans-Serif" font-size="10.00" fill="#000000">string_view</text>
</g>
<!-- Node11&#45;&gt;Node12 -->
<g id="edge13" class="edge">
<title>Node11&#45;&gt;Node12</title>
<path fill="none" stroke="#191970" d="M879.882,-56.2977C885.6513,-47.8498 892.8716,-37.2773 898.9553,-28.369"/>
<polygon fill="#191970" stroke="#191970" points="902.0259,-30.0788 904.7753,-19.8469 896.2453,-26.1311 902.0259,-30.0788"/>
</g>
<!-- Node13 -->
<g id="node14" class="node">
<title>Node13</title>
<polygon fill="none" stroke="#bfbfbf" points="795,-.5 795,-19.5 860,-19.5 860,-.5 795,-.5"/>
<text text-anchor="middle" x="827.5" y="-7.5" font-family="Helvetica,sans-Serif" font-size="10.00" fill="#000000">Eigen/Core</text>
</g>
<!-- Node11&#45;&gt;Node13 -->
<g id="edge14" class="edge">
<title>Node11&#45;&gt;Node13</title>
<path fill="none" stroke="#191970" d="M859.118,-56.2977C853.3487,-47.8498 846.1284,-37.2773 840.0447,-28.369"/>
<polygon fill="#191970" stroke="#191970" points="842.7547,-26.1311 834.2247,-19.8469 836.9741,-30.0788 842.7547,-26.1311"/>
</g>
<!-- Node14&#45;&gt;Node9 -->
<g id="edge20" class="edge">
<title>Node14&#45;&gt;Node9</title>
<path fill="none" stroke="#191970" d="M921.2692,-123.806C881.9985,-114.6589 831.9705,-101.8264 788.5,-87 786.6162,-86.3575 784.6929,-85.6595 782.7637,-84.927"/>
<polygon fill="#191970" stroke="#191970" points="783.8075,-81.5739 773.2244,-81.075 781.1865,-88.0647 783.8075,-81.5739"/>
</g>
<!-- Node14&#45;&gt;Node11 -->
<g id="edge17" class="edge">
<title>Node14&#45;&gt;Node11</title>
<path fill="none" stroke="#191970" d="M962.5697,-123.4639C945.7812,-114.0903 923.9694,-101.9121 905.6817,-91.7015"/>
<polygon fill="#191970" stroke="#191970" points="907.1932,-88.5368 896.7556,-86.7177 903.7807,-94.6487 907.1932,-88.5368"/>
</g>
<!-- Node15 -->
<g id="node16" class="node">
<title>Node15</title>
<polygon fill="none" stroke="#bfbfbf" points="1174.5,-62 1174.5,-81 1288.5,-81 1288.5,-62 1174.5,-62"/>
<text text-anchor="middle" x="1231.5" y="-69" font-family="Helvetica,sans-Serif" font-size="10.00" fill="#000000">iDynTree/Core/Span.h</text>
</g>
<!-- Node14&#45;&gt;Node15 -->
<g id="edge16" class="edge">
<title>Node14&#45;&gt;Node15</title>
<path fill="none" stroke="#191970" d="M1043.8095,-123.4639C1087.1031,-111.4776 1146.9617,-94.9052 1187.3427,-83.7254"/>
<polygon fill="#191970" stroke="#191970" points="1188.4639,-87.0467 1197.1675,-81.0053 1186.5961,-80.3005 1188.4639,-87.0467"/>
</g>
<!-- Node16 -->
<g id="node17" class="node">
<title>Node16</title>
<polygon fill="none" stroke="#bfbfbf" points="960,-62 960,-81 1019,-81 1019,-62 960,-62"/>
<text text-anchor="middle" x="989.5" y="-69" font-family="Helvetica,sans-Serif" font-size="10.00" fill="#000000">functional</text>
</g>
<!-- Node14&#45;&gt;Node16 -->
<g id="edge18" class="edge">
<title>Node14&#45;&gt;Node16</title>
<path fill="none" stroke="#191970" d="M989.5,-123.2967C989.5,-113.7699 989.5,-101.3954 989.5,-91.1306"/>
<polygon fill="#191970" stroke="#191970" points="993.0001,-91.0549 989.5,-81.055 986.0001,-91.055 993.0001,-91.0549"/>
</g>
<!-- Node17 -->
<g id="node18" class="node">
<title>Node17</title>
<polygon fill="none" stroke="#bfbfbf" points="1037,-62 1037,-81 1086,-81 1086,-62 1037,-62"/>
<text text-anchor="middle" x="1061.5" y="-69" font-family="Helvetica,sans-Serif" font-size="10.00" fill="#000000">cassert</text>
</g>
<!-- Node14&#45;&gt;Node17 -->
<g id="edge19" class="edge">
<title>Node14&#45;&gt;Node17</title>
<path fill="none" stroke="#191970" d="M1005.8379,-123.2967C1017.1648,-112.7564 1032.2376,-98.7303 1043.8414,-87.9323"/>
<polygon fill="#191970" stroke="#191970" points="1046.2956,-90.4296 1051.232,-81.055 1041.5269,-85.3051 1046.2956,-90.4296"/>
</g>
<!-- Node18 -->
<g id="node19" class="node">
<title>Node18</title>
<polygon fill="none" stroke="#bfbfbf" points="1104.5,-62 1104.5,-81 1156.5,-81 1156.5,-62 1104.5,-62"/>
<text text-anchor="middle" x="1130.5" y="-69" font-family="Helvetica,sans-Serif" font-size="10.00" fill="#000000">memory</text>
</g>
<!-- Node14&#45;&gt;Node18 -->
<g id="edge21" class="edge">
<title>Node14&#45;&gt;Node18</title>
<path fill="none" stroke="#191970" d="M1021.1432,-123.4639C1045.1208,-112.0702 1077.8193,-96.5327 1101.2017,-85.4219"/>
<polygon fill="#191970" stroke="#191970" points="1102.7588,-88.5571 1110.2888,-81.1039 1099.7544,-82.2346 1102.7588,-88.5571"/>
</g>
</g>
</svg>
        <g id="navigator" transform="translate(0 0)" fill="#404254">
                <rect fill="#f2f5e9" fill-opacity="0.5" stroke="#606060" stroke-width=".5" x="0" y="0" width="60" height="60"/>
                <use id="zoomplus" xlink:href="#zoomPlus" x="17" y="9" onmousedown="handleZoom(evt,'in')"/>
                <use id="zoomminus" xlink:href="#zoomMin" x="42" y="9" onmousedown="handleZoom(evt,'out')"/>
                <use id="reset" xlink:href="#resetDef" x="30" y="36" onmousedown="handleReset()"/>
                <g id="arrowUp" xlink:href="#dirArrow" transform="translate(30 24)" onmousedown="handlePan(0,-1)">
                  <use xlink:href="#rim" fill="#404040">
                        <set attributeName="fill" to="#808080" begin="arrowUp.mouseover" end="arrowUp.mouseout"/>
                  </use>
                  <path fill="none" stroke="white" stroke-width="1.5" d="M0,-3.0v7 M-2.5,-0.5L0,-3.0L2.5,-0.5"/>
                </g>
                <g id="arrowRight" xlink:href="#dirArrow" transform="rotate(90) translate(36 -43)" onmousedown="handlePan(1,0)">
                  <use xlink:href="#rim" fill="#404040">
                        <set attributeName="fill" to="#808080" begin="arrowRight.mouseover" end="arrowRight.mouseout"/>
                  </use>
                  <path fill="none" stroke="white" stroke-width="1.5" d="M0,-3.0v7 M-2.5,-0.5L0,-3.0L2.5,-0.5"/>
                </g>
                <g id="arrowDown" xlink:href="#dirArrow" transform="rotate(180) translate(-30 -48)" onmousedown="handlePan(0,1)">
                  <use xlink:href="#rim" fill="#404040">
                        <set attributeName="fill" to="#808080" begin="arrowDown.mouseover" end="arrowDown.mouseout"/>
                  </use>
                  <path fill="none" stroke="white" stroke-width="1.5" d="M0,-3.0v7 M-2.5,-0.5L0,-3.0L2.5,-0.5"/>
                </g>
                <g id="arrowLeft" xlink:href="#dirArrow" transform="rotate(270) translate(-36 17)" onmousedown="handlePan(-1,0)">
                  <use xlink:href="#rim" fill="#404040">
                        <set attributeName="fill" to="#808080" begin="arrowLeft.mouseover" end="arrowLeft.mouseout"/>
                  </use>
                  <path fill="none" stroke="white" stroke-width="1.5" d="M0,-3.0v7 M-2.5,-0.5L0,-3.0L2.5,-0.5"/>
                </g>
        </g>
        <svg viewBox="0 0 15 15" width="100%" height="30px" preserveAspectRatio="xMaxYMin meet">
         <g id="arrow_out" transform="scale(0.3 0.3)">
          <a xlink:href="Helper_8h__incl_org.svg" target="_base">
           <rect id="button" ry="5" rx="5" y="6" x="6" height="38" width="38"
                fill="#f2f5e9" fill-opacity="0.5" stroke="#606060" stroke-width="1.0"/>
           <path id="arrow"
             d="M 11.500037,31.436501 C 11.940474,20.09759 22.043105,11.32322 32.158766,21.979434 L 37.068811,17.246167 C 37.068811,17.246167 37.088388,32 37.088388,32 L 22.160133,31.978069 C 22.160133,31.978069 26.997745,27.140456 26.997745,27.140456 C 18.528582,18.264221 13.291696,25.230495 11.500037,31.436501 z"
             style="fill:#404040;"/>
          </a>
         </g>
        </svg>
</svg>
