<?xml version="1.0" encoding="UTF-8" standalone="no"?>
<!DOCTYPE svg PUBLIC "-//W3C//DTD SVG 1.1//EN"
 "http://www.w3.org/Graphics/SVG/1.1/DTD/svg11.dtd">
<!-- Generated by graphviz version 2.40.1 (20161225.0304)
 -->
<!-- Title: Graphical Class Hierarchy Pages: 1 -->
<svg width="270pt" height="254pt"
 viewBox="0.00 0.00 270.00 253.50" xmlns="http://www.w3.org/2000/svg" xmlns:xlink="http://www.w3.org/1999/xlink">
<g id="graph0" class="graph" transform="scale(1 1) rotate(0) translate(4 249.5)">
<title>Graphical Class Hierarchy</title>
<!-- Node0 -->
<g id="node1" class="node">
<title>Node0</title>
<g id="a_node1"><a doxygen="/home/runner/work/bipedal-locomotion-framework/bipedal-locomotion-framework/gh-pages/doxygen/tags/cppreference-doxygen-web.tag.xml:https://en.cppreference.com/w/" xlink:href="https://en.cppreference.com/w/cpp/types/integral_constant.html" target="_top" xlink:title="std::false_type">
<polygon fill="none" stroke="#000000" points="0,-110.5 0,-129.5 81,-129.5 81,-110.5 0,-110.5"/>
<text text-anchor="middle" x="40.5" y="-117.5" font-family="Helvetica,sans-Serif" font-size="10.00" fill="#000000">std::false_type</text>
</a>
</g>
</g>
<!-- Node1 -->
<g id="node2" class="node">
<title>Node1</title>
<g id="a_node2"><a xlink:href="structBipedalLocomotion_1_1GenericContainer_1_1is__span__constructible.html" target="_top" xlink:title="is_span_constructible is a utility metafunction to check if iDynTree::Span is constructible given a r...">
<polygon fill="none" stroke="#000000" points="134.5,-193 134.5,-245 244.5,-245 244.5,-193 134.5,-193"/>
<text text-anchor="start" x="142.5" y="-233" font-family="Helvetica,sans-Serif" font-size="10.00" fill="#000000">BipedalLocomotion::</text>
<text text-anchor="start" x="142.5" y="-222" font-family="Helvetica,sans-Serif" font-size="10.00" fill="#000000">GenericContainer::is</text>
<text text-anchor="start" x="142.5" y="-211" font-family="Helvetica,sans-Serif" font-size="10.00" fill="#000000">_span_constructible&lt;</text>
<text text-anchor="middle" x="189.5" y="-200" font-family="Helvetica,sans-Serif" font-size="10.00" fill="#000000"> Class, typename &gt;</text>
</a>
</g>
</g>
<!-- Node0&#45;&gt;Node1 -->
<g id="edge1" class="edge">
<title>Node0&#45;&gt;Node1</title>
<path fill="none" stroke="#191970" d="M58.2964,-136.648C73.2501,-150.1333 95.5575,-169.1072 117,-183 122.4252,-186.5151 128.2416,-189.9293 134.1334,-193.1653"/>
<polygon fill="#191970" stroke="#191970" points="60.5384,-133.9553 50.7976,-129.7879 55.8135,-139.1202 60.5384,-133.9553"/>
</g>
<!-- Node2 -->
<g id="node3" class="node">
<title>Node2</title>
<g id="a_node3"><a xlink:href="structBipedalLocomotion_1_1GenericContainer_1_1is__vector.html" target="_top" xlink:title="is_vector is a utility metafunction used to check if T is a GenericContainer::Vector. ">
<polygon fill="none" stroke="#000000" points="136.5,-132.5 136.5,-173.5 242.5,-173.5 242.5,-132.5 136.5,-132.5"/>
<text text-anchor="start" x="144.5" y="-161.5" font-family="Helvetica,sans-Serif" font-size="10.00" fill="#000000">BipedalLocomotion::</text>
<text text-anchor="start" x="144.5" y="-150.5" font-family="Helvetica,sans-Serif" font-size="10.00" fill="#000000">GenericContainer::is</text>
<text text-anchor="middle" x="189.5" y="-139.5" font-family="Helvetica,sans-Serif" font-size="10.00" fill="#000000">_vector&lt; T &gt;</text>
</a>
</g>
</g>
<!-- Node0&#45;&gt;Node2 -->
<g id="edge2" class="edge">
<title>Node0&#45;&gt;Node2</title>
<path fill="none" stroke="#191970" d="M91.0445,-131.1944C105.6036,-134.4189 121.5288,-137.946 136.2467,-141.2056"/>
<polygon fill="#191970" stroke="#191970" points="91.7352,-127.7626 81.2149,-129.0174 90.2215,-134.597 91.7352,-127.7626"/>
</g>
<!-- Node3 -->
<g id="node4" class="node">
<title>Node3</title>
<g id="a_node4"><a xlink:href="structBipedalLocomotion_1_1GenericContainer_1_1is__vector__constructible.html" target="_top" xlink:title="is_vector_constructible is a utility metafunction to check if GenericContainer::Vector is constructib...">
<polygon fill="none" stroke="#000000" points="120.5,-61 120.5,-113 258.5,-113 258.5,-61 120.5,-61"/>
<text text-anchor="start" x="128.5" y="-101" font-family="Helvetica,sans-Serif" font-size="10.00" fill="#000000">BipedalLocomotion::</text>
<text text-anchor="start" x="128.5" y="-90" font-family="Helvetica,sans-Serif" font-size="10.00" fill="#000000">GenericContainer::is</text>
<text text-anchor="start" x="128.5" y="-79" font-family="Helvetica,sans-Serif" font-size="10.00" fill="#000000">_vector_constructible</text>
<text text-anchor="middle" x="189.5" y="-68" font-family="Helvetica,sans-Serif" font-size="10.00" fill="#000000">&lt; T, typename, typename &gt;</text>
</a>
</g>
</g>
<!-- Node0&#45;&gt;Node3 -->
<g id="edge3" class="edge">
<title>Node0&#45;&gt;Node3</title>
<path fill="none" stroke="#191970" d="M91.1852,-108.7744C100.6094,-106.6872 110.6019,-104.4741 120.4658,-102.2895"/>
<polygon fill="#191970" stroke="#191970" points="90.2215,-105.403 81.2149,-110.9826 91.7352,-112.2374 90.2215,-105.403"/>
</g>
<!-- Node4 -->
<g id="node5" class="node">
<title>Node4</title>
<g id="a_node5"><a xlink:href="structBipedalLocomotion_1_1has__square__bracket__operator.html" target="_top" xlink:title="has_square_bracket_operator is used to build a type&#45;dependent expression that check if an element has...">
<polygon fill="none" stroke="#000000" points="117,-.5 117,-41.5 262,-41.5 262,-.5 117,-.5"/>
<text text-anchor="start" x="125" y="-29.5" font-family="Helvetica,sans-Serif" font-size="10.00" fill="#000000">BipedalLocomotion::</text>
<text text-anchor="start" x="125" y="-18.5" font-family="Helvetica,sans-Serif" font-size="10.00" fill="#000000">has_square_bracket_operator</text>
<text text-anchor="middle" x="189.5" y="-7.5" font-family="Helvetica,sans-Serif" font-size="10.00" fill="#000000">&lt; T, typename &gt;</text>
</a>
</g>
</g>
<!-- Node0&#45;&gt;Node4 -->
<g id="edge4" class="edge">
<title>Node0&#45;&gt;Node4</title>
<path fill="none" stroke="#191970" d="M56.8622,-102.5778C71.5372,-87.6942 94.2115,-66.4577 117,-52 122.8952,-48.2599 129.3189,-44.7797 135.8265,-41.6043"/>
<polygon fill="#191970" stroke="#191970" points="54.0157,-100.4867 49.5825,-110.1095 59.0489,-105.3516 54.0157,-100.4867"/>
</g>
</g>
</svg>
