<?xml version="1.0" encoding="UTF-8" standalone="no"?>
<!DOCTYPE svg PUBLIC "-//W3C//DTD SVG 1.1//EN"
 "http://www.w3.org/Graphics/SVG/1.1/DTD/svg11.dtd">
<!-- Generated by graphviz version 2.40.1 (20161225.0304)
 -->
<!-- Title: Graphical Class Hierarchy Pages: 1 -->
<svg width="507pt" height="50pt"
 viewBox="0.00 0.00 507.00 50.00" xmlns="http://www.w3.org/2000/svg" xmlns:xlink="http://www.w3.org/1999/xlink">
<g id="graph0" class="graph" transform="scale(1 1) rotate(0) translate(4 46)">
<title>Graphical Class Hierarchy</title>
<!-- Node0 -->
<g id="node1" class="node">
<title>Node0</title>
<g id="a_node1"><a xlink:href="classBipedalLocomotion_1_1System_1_1Advanceable.html" target="_top" xlink:title="BipedalLocomotion::\lSystem::Advanceable\l\&lt; EstimatedContactList \&gt;">
<polygon fill="none" stroke="#000000" points="0,-.5 0,-41.5 129,-41.5 129,-.5 0,-.5"/>
<text text-anchor="start" x="8" y="-29.5" font-family="Helvetica,sans-Serif" font-size="10.00" fill="#000000">BipedalLocomotion::</text>
<text text-anchor="start" x="8" y="-18.5" font-family="Helvetica,sans-Serif" font-size="10.00" fill="#000000">System::Advanceable</text>
<text text-anchor="middle" x="64.5" y="-7.5" font-family="Helvetica,sans-Serif" font-size="10.00" fill="#000000">&lt; EstimatedContactList &gt;</text>
</a>
</g>
</g>
<!-- Node1 -->
<g id="node2" class="node">
<title>Node1</title>
<g id="a_node2"><a xlink:href="classBipedalLocomotion_1_1Contacts_1_1ContactDetector.html" target="_top" xlink:title="BipedalLocomotion::\lContacts::ContactDetector">
<polygon fill="none" stroke="#000000" points="165,-6 165,-36 299,-36 299,-6 165,-6"/>
<text text-anchor="start" x="173" y="-24" font-family="Helvetica,sans-Serif" font-size="10.00" fill="#000000">BipedalLocomotion::</text>
<text text-anchor="middle" x="232" y="-13" font-family="Helvetica,sans-Serif" font-size="10.00" fill="#000000">Contacts::ContactDetector</text>
</a>
</g>
</g>
<!-- Node0&#45;&gt;Node1 -->
<g id="edge1" class="edge">
<title>Node0&#45;&gt;Node1</title>
<path fill="none" stroke="#191970" d="M139.5057,-21C147.9738,-21 156.5624,-21 164.9203,-21"/>
<polygon fill="#191970" stroke="#191970" points="139.2599,-17.5001 129.2599,-21 139.2598,-24.5001 139.2599,-17.5001"/>
</g>
<!-- Node2 -->
<g id="node3" class="node">
<title>Node2</title>
<g id="a_node3"><a xlink:href="classBipedalLocomotion_1_1Contacts_1_1SchmittTriggerDetector.html" target="_top" xlink:title="Schmitt Trigger thresholding based contact detector that maintains and updates the contact states for...">
<polygon fill="none" stroke="#000000" points="335,-6 335,-36 499,-36 499,-6 335,-6"/>
<text text-anchor="start" x="343" y="-24" font-family="Helvetica,sans-Serif" font-size="10.00" fill="#000000">BipedalLocomotion::</text>
<text text-anchor="middle" x="417" y="-13" font-family="Helvetica,sans-Serif" font-size="10.00" fill="#000000">Contacts::SchmittTriggerDetector</text>
</a>
</g>
</g>
<!-- Node1&#45;&gt;Node2 -->
<g id="edge2" class="edge">
<title>Node1&#45;&gt;Node2</title>
<path fill="none" stroke="#191970" d="M309.2193,-21C317.6423,-21 326.2392,-21 334.72,-21"/>
<polygon fill="#191970" stroke="#191970" points="309.0508,-17.5001 299.0508,-21 309.0508,-24.5001 309.0508,-17.5001"/>
</g>
</g>
</svg>
