<?xml version="1.0" encoding="UTF-8" standalone="no"?>
<!DOCTYPE svg PUBLIC "-//W3C//DTD SVG 1.1//EN"
 "http://www.w3.org/Graphics/SVG/1.1/DTD/svg11.dtd">
<!-- Generated by graphviz version 2.40.1 (20161225.0304)
 -->
<!-- Title: Graphical Class Hierarchy Pages: 1 -->
<svg width="309pt" height="626pt"
 viewBox="0.00 0.00 309.00 626.00" xmlns="http://www.w3.org/2000/svg" xmlns:xlink="http://www.w3.org/1999/xlink">
<g id="graph0" class="graph" transform="scale(1 1) rotate(0) translate(4 622)">
<title>Graphical Class Hierarchy</title>
<!-- Node0 -->
<g id="node1" class="node">
<title>Node0</title>
<g id="a_node1"><a doxygen="/home/runner/work/bipedal-locomotion-framework/bipedal-locomotion-framework/gh-pages/doxygen/tags/cppreference-doxygen-web.tag.xml:https://en.cppreference.com/w/" xlink:href="https://en.cppreference.com/w/cpp/types/integral_constant.html" target="_top" xlink:title="std::true_type">
<polygon fill="none" stroke="#000000" points="0,-288 0,-307 77,-307 77,-288 0,-288"/>
<text text-anchor="middle" x="38.5" y="-295" font-family="Helvetica,sans-Serif" font-size="10.00" fill="#000000">std::true_type</text>
</a>
</g>
</g>
<!-- Node1 -->
<g id="node2" class="node">
<title>Node1</title>
<g id="a_node2"><a xlink:href="structBipedalLocomotion_1_1GenericContainer_1_1is__span__constructible_3_01Class_00_01typename_075ffca013f10d11599823b4dea1e9407.html" target="_top" xlink:title="is_span_constructible is a utility metafunction to check if iDynTree::Span is constructible given a r...">
<polygon fill="none" stroke="#000000" points="113,-521.5 113,-617.5 301,-617.5 301,-521.5 113,-521.5"/>
<text text-anchor="start" x="121" y="-605.5" font-family="Helvetica,sans-Serif" font-size="10.00" fill="#000000">BipedalLocomotion::</text>
<text text-anchor="start" x="121" y="-594.5" font-family="Helvetica,sans-Serif" font-size="10.00" fill="#000000">GenericContainer::is</text>
<text text-anchor="start" x="121" y="-583.5" font-family="Helvetica,sans-Serif" font-size="10.00" fill="#000000">_span_constructible&lt;</text>
<text text-anchor="start" x="121" y="-572.5" font-family="Helvetica,sans-Serif" font-size="10.00" fill="#000000"> Class, typename std::</text>
<text text-anchor="start" x="121" y="-561.5" font-family="Helvetica,sans-Serif" font-size="10.00" fill="#000000">enable_if&lt; std::is_constructible</text>
<text text-anchor="start" x="121" y="-550.5" font-family="Helvetica,sans-Serif" font-size="10.00" fill="#000000">&lt; iDynTree::Span&lt; typename container</text>
<text text-anchor="start" x="121" y="-539.5" font-family="Helvetica,sans-Serif" font-size="10.00" fill="#000000">_data&lt; Class &gt;::type &gt;, Class &amp; &gt;</text>
<text text-anchor="middle" x="207" y="-528.5" font-family="Helvetica,sans-Serif" font-size="10.00" fill="#000000">::value &gt;::type &gt;</text>
</a>
</g>
</g>
<!-- Node0&#45;&gt;Node1 -->
<g id="edge1" class="edge">
<title>Node0&#45;&gt;Node1</title>
<path fill="none" stroke="#191970" d="M40.8947,-317.2832C46.6827,-357.7744 64.702,-451.3426 113,-511.5 115.7612,-514.9392 118.785,-518.2286 122.0019,-521.3673"/>
<polygon fill="#191970" stroke="#191970" points="44.3328,-316.5857 39.546,-307.1339 37.3938,-317.5078 44.3328,-316.5857"/>
</g>
<!-- Node2 -->
<g id="node3" class="node">
<title>Node2</title>
<g id="a_node3"><a xlink:href="structBipedalLocomotion_1_1GenericContainer_1_1is__vector_3_01Vector_3_01T_01_4_01_4.html" target="_top" xlink:title="is_vector is a utility metafunction used to check if T is a GenericContainer::Vector. ">
<polygon fill="none" stroke="#000000" points="147.5,-461 147.5,-502 266.5,-502 266.5,-461 147.5,-461"/>
<text text-anchor="start" x="155.5" y="-490" font-family="Helvetica,sans-Serif" font-size="10.00" fill="#000000">BipedalLocomotion::</text>
<text text-anchor="start" x="155.5" y="-479" font-family="Helvetica,sans-Serif" font-size="10.00" fill="#000000">GenericContainer::is</text>
<text text-anchor="middle" x="207" y="-468" font-family="Helvetica,sans-Serif" font-size="10.00" fill="#000000">_vector&lt; Vector&lt; T &gt; &gt;</text>
</a>
</g>
</g>
<!-- Node0&#45;&gt;Node2 -->
<g id="edge2" class="edge">
<title>Node0&#45;&gt;Node2</title>
<path fill="none" stroke="#191970" d="M42.6813,-317.1226C50.642,-349.7389 71.0566,-415.1135 113,-451.5 122.7049,-459.9191 134.7914,-465.9801 147.0311,-470.342"/>
<polygon fill="#191970" stroke="#191970" points="46.0186,-316.0167 40.37,-307.0532 39.196,-317.5828 46.0186,-316.0167"/>
</g>
<!-- Node3 -->
<g id="node4" class="node">
<title>Node3</title>
<g id="a_node4"><a xlink:href="structBipedalLocomotion_1_1has__square__bracket__operator_3_01T_00_01void__t_3_01decltype_07std_a58e20032129b102637aed0412502b4c.html" target="_top" xlink:title="has_square_bracket_operator is used to build a type&#45;dependent expression that check if an element has...">
<polygon fill="none" stroke="#000000" points="134.5,-379 134.5,-442 279.5,-442 279.5,-379 134.5,-379"/>
<text text-anchor="start" x="142.5" y="-430" font-family="Helvetica,sans-Serif" font-size="10.00" fill="#000000">BipedalLocomotion::</text>
<text text-anchor="start" x="142.5" y="-419" font-family="Helvetica,sans-Serif" font-size="10.00" fill="#000000">has_square_bracket_operator</text>
<text text-anchor="start" x="142.5" y="-408" font-family="Helvetica,sans-Serif" font-size="10.00" fill="#000000">&lt; T, void_t&lt; decltype(std</text>
<text text-anchor="start" x="142.5" y="-397" font-family="Helvetica,sans-Serif" font-size="10.00" fill="#000000">::declval&lt; T &gt;()[std::declval</text>
<text text-anchor="middle" x="207" y="-386" font-family="Helvetica,sans-Serif" font-size="10.00" fill="#000000">&lt; int &gt;()])&gt; &gt;</text>
</a>
</g>
</g>
<!-- Node0&#45;&gt;Node3 -->
<g id="edge3" class="edge">
<title>Node0&#45;&gt;Node3</title>
<path fill="none" stroke="#191970" d="M53.2512,-314.9605C67.3342,-330.7946 89.793,-353.9679 113,-369.5 119.6582,-373.9563 126.8802,-378.1128 134.262,-381.9371"/>
<polygon fill="#191970" stroke="#191970" points="55.5417,-312.2609 46.3374,-307.0139 50.2607,-316.8556 55.5417,-312.2609"/>
</g>
<!-- Node4 -->
<g id="node5" class="node">
<title>Node4</title>
<g id="a_node5"><a xlink:href="structBipedalLocomotion_1_1has__type__member_3_01T_00_01void__t_3_01typename_01T_1_1value__type_01_4_01_4.html" target="_top" xlink:title="has_type_member is a utility metafunction to detect if typename T defines value_type&lt; ...">
<polygon fill="none" stroke="#000000" points="149.5,-307.5 149.5,-359.5 264.5,-359.5 264.5,-307.5 149.5,-307.5"/>
<text text-anchor="start" x="157.5" y="-347.5" font-family="Helvetica,sans-Serif" font-size="10.00" fill="#000000">BipedalLocomotion::</text>
<text text-anchor="start" x="157.5" y="-336.5" font-family="Helvetica,sans-Serif" font-size="10.00" fill="#000000">has_type_member&lt; T,</text>
<text text-anchor="start" x="157.5" y="-325.5" font-family="Helvetica,sans-Serif" font-size="10.00" fill="#000000"> void_t&lt; typename T::</text>
<text text-anchor="middle" x="207" y="-314.5" font-family="Helvetica,sans-Serif" font-size="10.00" fill="#000000">value_type &gt; &gt;</text>
</a>
</g>
</g>
<!-- Node0&#45;&gt;Node4 -->
<g id="edge4" class="edge">
<title>Node0&#45;&gt;Node4</title>
<path fill="none" stroke="#191970" d="M87.0179,-307.8658C106.4727,-312.0224 129.0478,-316.8455 149.3323,-321.1793"/>
<polygon fill="#191970" stroke="#191970" points="87.6679,-304.4258 77.1573,-305.7591 86.2053,-311.2713 87.6679,-304.4258"/>
</g>
<!-- Node5 -->
<g id="node6" class="node">
<title>Node5</title>
<g id="a_node6"><a xlink:href="structBipedalLocomotion_1_1is__data__available_3_01T_00_01void__t_3_01decltype_07std_1_1declval_e2c355f23b76c51122c965048e9aff0f.html" target="_top" xlink:title="is_data_available is a utility metafunction to detect if typename T contains the data()&lt; ...">
<polygon fill="none" stroke="#000000" points="142.5,-236.5 142.5,-288.5 271.5,-288.5 271.5,-236.5 142.5,-236.5"/>
<text text-anchor="start" x="150.5" y="-276.5" font-family="Helvetica,sans-Serif" font-size="10.00" fill="#000000">BipedalLocomotion::</text>
<text text-anchor="start" x="150.5" y="-265.5" font-family="Helvetica,sans-Serif" font-size="10.00" fill="#000000">is_data_available&lt; T,</text>
<text text-anchor="start" x="150.5" y="-254.5" font-family="Helvetica,sans-Serif" font-size="10.00" fill="#000000"> void_t&lt; decltype(std</text>
<text text-anchor="middle" x="207" y="-243.5" font-family="Helvetica,sans-Serif" font-size="10.00" fill="#000000">::declval&lt; T &gt;().data())&gt; &gt;</text>
</a>
</g>
</g>
<!-- Node0&#45;&gt;Node5 -->
<g id="edge5" class="edge">
<title>Node0&#45;&gt;Node5</title>
<path fill="none" stroke="#191970" d="M87.0154,-287.4226C104.2901,-283.8344 124.0251,-279.7351 142.4323,-275.9117"/>
<polygon fill="#191970" stroke="#191970" points="86.2365,-284.0096 77.1573,-289.4703 87.6602,-290.8633 86.2365,-284.0096"/>
</g>
<!-- Node6 -->
<g id="node7" class="node">
<title>Node6</title>
<g id="a_node7"><a xlink:href="structBipedalLocomotion_1_1is__iterable_3_01T_00_01void__t_3_01decltype_07std_1_1declval_3_01T_0b7c4298ccd943ffa7636ecb5c7dbb6f6.html" target="_top" xlink:title="Implementation of the c++17 void_t&lt;. ">
<polygon fill="none" stroke="#000000" points="135.5,-154 135.5,-217 278.5,-217 278.5,-154 135.5,-154"/>
<text text-anchor="start" x="143.5" y="-205" font-family="Helvetica,sans-Serif" font-size="10.00" fill="#000000">BipedalLocomotion::</text>
<text text-anchor="start" x="143.5" y="-194" font-family="Helvetica,sans-Serif" font-size="10.00" fill="#000000">is_iterable&lt; T, void</text>
<text text-anchor="start" x="143.5" y="-183" font-family="Helvetica,sans-Serif" font-size="10.00" fill="#000000">_t&lt; decltype(std::declval</text>
<text text-anchor="start" x="143.5" y="-172" font-family="Helvetica,sans-Serif" font-size="10.00" fill="#000000">&lt; T &gt;().begin()), decltype</text>
<text text-anchor="middle" x="207" y="-161" font-family="Helvetica,sans-Serif" font-size="10.00" fill="#000000">(std::declval&lt; T &gt;().end())&gt; &gt;</text>
</a>
</g>
</g>
<!-- Node0&#45;&gt;Node6 -->
<g id="edge6" class="edge">
<title>Node0&#45;&gt;Node6</title>
<path fill="none" stroke="#191970" d="M53.8414,-280.0986C68.0359,-264.7723 90.3119,-242.6002 113,-227.5 119.9936,-222.8454 127.5877,-218.4842 135.326,-214.4656"/>
<polygon fill="#191970" stroke="#191970" points="50.9628,-278.0626 46.8357,-287.8206 56.1472,-282.7661 50.9628,-278.0626"/>
</g>
<!-- Node7 -->
<g id="node8" class="node">
<title>Node7</title>
<g id="a_node8"><a xlink:href="structBipedalLocomotion_1_1is__resizable_3_01T_00_01void__t_3_01decltype_07std_1_1declval_3_01T_1c3fd0b8ee07ddf485f95562f4b7435c.html" target="_top" xlink:title="is_resizable is used to build a type&#45;dependent expression that check if an element is resizable (i...">
<polygon fill="none" stroke="#000000" points="142.5,-72 142.5,-135 271.5,-135 271.5,-72 142.5,-72"/>
<text text-anchor="start" x="150.5" y="-123" font-family="Helvetica,sans-Serif" font-size="10.00" fill="#000000">BipedalLocomotion::</text>
<text text-anchor="start" x="150.5" y="-112" font-family="Helvetica,sans-Serif" font-size="10.00" fill="#000000">is_resizable&lt; T, void</text>
<text text-anchor="start" x="150.5" y="-101" font-family="Helvetica,sans-Serif" font-size="10.00" fill="#000000">_t&lt; decltype(std::declval</text>
<text text-anchor="start" x="150.5" y="-90" font-family="Helvetica,sans-Serif" font-size="10.00" fill="#000000">&lt; T &gt;().resize(std::declval</text>
<text text-anchor="middle" x="207" y="-79" font-family="Helvetica,sans-Serif" font-size="10.00" fill="#000000">&lt; int &gt;()))&gt; &gt;</text>
</a>
</g>
</g>
<!-- Node0&#45;&gt;Node7 -->
<g id="edge7" class="edge">
<title>Node0&#45;&gt;Node7</title>
<path fill="none" stroke="#191970" d="M43.2595,-278.0011C51.9678,-246.1111 73.3253,-182.5484 113,-144.5 121.3526,-136.4898 131.5236,-129.9041 142.0512,-124.5359"/>
<polygon fill="#191970" stroke="#191970" points="39.8235,-277.3077 40.6974,-287.8664 46.5988,-279.0673 39.8235,-277.3077"/>
</g>
<!-- Node8 -->
<g id="node9" class="node">
<title>Node8</title>
<g id="a_node9"><a xlink:href="structBipedalLocomotion_1_1is__size__available_3_01T_00_01void__t_3_01decltype_07std_1_1declval_b4934191254068a1705a6471e404cc79.html" target="_top" xlink:title="is_size_available is a utility metafunction to detect if typename T contains the size()&lt; ...">
<polygon fill="none" stroke="#000000" points="143,-.5 143,-52.5 271,-52.5 271,-.5 143,-.5"/>
<text text-anchor="start" x="151" y="-40.5" font-family="Helvetica,sans-Serif" font-size="10.00" fill="#000000">BipedalLocomotion::</text>
<text text-anchor="start" x="151" y="-29.5" font-family="Helvetica,sans-Serif" font-size="10.00" fill="#000000">is_size_available&lt; T,</text>
<text text-anchor="start" x="151" y="-18.5" font-family="Helvetica,sans-Serif" font-size="10.00" fill="#000000"> void_t&lt; decltype(std</text>
<text text-anchor="middle" x="207" y="-7.5" font-family="Helvetica,sans-Serif" font-size="10.00" fill="#000000">::declval&lt; T &gt;().size())&gt; &gt;</text>
</a>
</g>
</g>
<!-- Node0&#45;&gt;Node8 -->
<g id="edge8" class="edge">
<title>Node0&#45;&gt;Node8</title>
<path fill="none" stroke="#191970" d="M42.3952,-278.0656C52.8329,-227.6999 82.6997,-94.6348 113,-62.5 121.1523,-53.8541 131.606,-47.2613 142.5633,-42.241"/>
<polygon fill="#191970" stroke="#191970" points="38.9393,-277.4966 40.3686,-287.9946 45.7979,-278.8966 38.9393,-277.4966"/>
</g>
</g>
</svg>
