<?xml version="1.0" encoding="UTF-8" standalone="no"?>
<!DOCTYPE svg PUBLIC "-//W3C//DTD SVG 1.1//EN"
 "http://www.w3.org/Graphics/SVG/1.1/DTD/svg11.dtd">
<!-- Generated by graphviz version 2.40.1 (20161225.0304)
 -->
<!-- Title: System/include/BipedalLocomotion/System/Integrator.h Pages: 1 -->
<svg width="699pt" height="363pt"
 viewBox="0.00 0.00 699.21 363.00" xmlns="http://www.w3.org/2000/svg" xmlns:xlink="http://www.w3.org/1999/xlink">
<g id="graph0" class="graph" transform="scale(1 1) rotate(0) translate(4 359)">
<title>System/include/BipedalLocomotion/System/Integrator.h</title>
<!-- Node0 -->
<g id="node1" class="node">
<title>Node0</title>
<polygon fill="#bfbfbf" stroke="#000000" points="255.2086,-324.5 255.2086,-354.5 425.2086,-354.5 425.2086,-324.5 255.2086,-324.5"/>
<text text-anchor="start" x="263.2086" y="-342.5" font-family="Helvetica,sans-Serif" font-size="10.00" fill="#000000">System/include/BipedalLocomotion</text>
<text text-anchor="middle" x="340.2086" y="-331.5" font-family="Helvetica,sans-Serif" font-size="10.00" fill="#000000">/System/Integrator.h</text>
</g>
<!-- Node1 -->
<g id="node2" class="node">
<title>Node1</title>
<polygon fill="none" stroke="#bfbfbf" points="44.2086,-62 44.2086,-81 96.2086,-81 96.2086,-62 44.2086,-62"/>
<text text-anchor="middle" x="70.2086" y="-69" font-family="Helvetica,sans-Serif" font-size="10.00" fill="#000000">memory</text>
</g>
<!-- Node0&#45;&gt;Node1 -->
<g id="edge1" class="edge">
<title>Node0&#45;&gt;Node1</title>
<path fill="none" stroke="#191970" d="M255.0372,-329.5322C208.4735,-322.0188 150.5958,-309.2424 102.2086,-288 54.9001,-267.2312 30.9879,-266.8691 7.2086,-221 -16.8601,-174.5729 27.1244,-116.8494 53.1076,-88.6377"/>
<polygon fill="#191970" stroke="#191970" points="55.8393,-90.8441 60.1932,-81.1851 50.7662,-86.0208 55.8393,-90.8441"/>
</g>
<!-- Node2 -->
<g id="node3" class="node">
<title>Node2</title>
<polygon fill="none" stroke="#bfbfbf" points="16.2086,-196 16.2086,-215 54.2086,-215 54.2086,-196 16.2086,-196"/>
<text text-anchor="middle" x="35.2086" y="-203" font-family="Helvetica,sans-Serif" font-size="10.00" fill="#000000">tuple</text>
</g>
<!-- Node0&#45;&gt;Node2 -->
<g id="edge2" class="edge">
<title>Node0&#45;&gt;Node2</title>
<path fill="none" stroke="#191970" d="M268.3342,-324.4894C234.3608,-316.0383 193.7712,-303.9407 159.2086,-288 119.65,-269.7551 78.4536,-239.7929 54.9084,-221.4381"/>
<polygon fill="#191970" stroke="#191970" points="56.8045,-218.4755 46.7889,-215.0204 52.4638,-223.9672 56.8045,-218.4755"/>
</g>
<!-- Node3 -->
<g id="node4" class="node">
<title>Node3</title>
<g id="a_node4"><a xlink:href="TemplateHelpers_8h_source.html" target="_top" xlink:title="BipedalLocomotion/Generic\lContainer/TemplateHelpers.h">
<polygon fill="none" stroke="#000000" points="463.2086,-56.5 463.2086,-86.5 607.2086,-86.5 607.2086,-56.5 463.2086,-56.5"/>
<text text-anchor="start" x="471.2086" y="-74.5" font-family="Helvetica,sans-Serif" font-size="10.00" fill="#000000">BipedalLocomotion/Generic</text>
<text text-anchor="middle" x="535.2086" y="-63.5" font-family="Helvetica,sans-Serif" font-size="10.00" fill="#000000">Container/TemplateHelpers.h</text>
</a>
</g>
</g>
<!-- Node0&#45;&gt;Node3 -->
<g id="edge3" class="edge">
<title>Node0&#45;&gt;Node3</title>
<path fill="none" stroke="#191970" d="M360.0088,-324.2838C396.2395,-295.3129 473.0697,-228.4422 512.2086,-154 521.6878,-135.9705 527.6081,-113.6125 531.064,-96.7214"/>
<polygon fill="#191970" stroke="#191970" points="534.5756,-96.9872 532.9918,-86.5115 527.6971,-95.6884 534.5756,-96.9872"/>
</g>
<!-- Node7 -->
<g id="node8" class="node">
<title>Node7</title>
<g id="a_node8"><a xlink:href="IParametersHandler_8h.html" target="_top" xlink:title="BipedalLocomotion/Parameters\lHandler/IParametersHandler.h">
<polygon fill="none" stroke="#000000" points="264.2086,-190.5 264.2086,-220.5 416.2086,-220.5 416.2086,-190.5 264.2086,-190.5"/>
<text text-anchor="start" x="272.2086" y="-208.5" font-family="Helvetica,sans-Serif" font-size="10.00" fill="#000000">BipedalLocomotion/Parameters</text>
<text text-anchor="middle" x="340.2086" y="-197.5" font-family="Helvetica,sans-Serif" font-size="10.00" fill="#000000">Handler/IParametersHandler.h</text>
</a>
</g>
</g>
<!-- Node0&#45;&gt;Node7 -->
<g id="edge7" class="edge">
<title>Node0&#45;&gt;Node7</title>
<path fill="none" stroke="#191970" d="M340.2086,-324.389C340.2086,-301.6691 340.2086,-258.438 340.2086,-230.8405"/>
<polygon fill="#191970" stroke="#191970" points="343.7087,-230.7614 340.2086,-220.7614 336.7087,-230.7614 343.7087,-230.7614"/>
</g>
<!-- Node15 -->
<g id="node16" class="node">
<title>Node15</title>
<g id="a_node16"><a xlink:href="DynamicalSystem_8h.html" target="_top" xlink:title="BipedalLocomotion/System\l/DynamicalSystem.h">
<polygon fill="none" stroke="#000000" points="168.2086,-257.5 168.2086,-287.5 304.2086,-287.5 304.2086,-257.5 168.2086,-257.5"/>
<text text-anchor="start" x="176.2086" y="-275.5" font-family="Helvetica,sans-Serif" font-size="10.00" fill="#000000">BipedalLocomotion/System</text>
<text text-anchor="middle" x="236.2086" y="-264.5" font-family="Helvetica,sans-Serif" font-size="10.00" fill="#000000">/DynamicalSystem.h</text>
</a>
</g>
</g>
<!-- Node0&#45;&gt;Node15 -->
<g id="edge19" class="edge">
<title>Node0&#45;&gt;Node15</title>
<path fill="none" stroke="#191970" d="M316.8689,-324.4639C302.6511,-315.3044 284.2763,-303.4667 268.6563,-293.4038"/>
<polygon fill="#191970" stroke="#191970" points="270.1322,-290.1912 259.8301,-287.7177 266.3411,-296.0758 270.1322,-290.1912"/>
</g>
<!-- Node17 -->
<g id="node18" class="node">
<title>Node17</title>
<g id="a_node18"><a xlink:href="Integrator_8tpp.html" target="_top" xlink:title="BipedalLocomotion/System\l/Integrator.tpp">
<polygon fill="none" stroke="#000000" points="555.2086,-257.5 555.2086,-287.5 691.2086,-287.5 691.2086,-257.5 555.2086,-257.5"/>
<text text-anchor="start" x="563.2086" y="-275.5" font-family="Helvetica,sans-Serif" font-size="10.00" fill="#000000">BipedalLocomotion/System</text>
<text text-anchor="middle" x="623.2086" y="-264.5" font-family="Helvetica,sans-Serif" font-size="10.00" fill="#000000">/Integrator.tpp</text>
</a>
</g>
</g>
<!-- Node0&#45;&gt;Node17 -->
<g id="edge26" class="edge">
<title>Node0&#45;&gt;Node17</title>
<path fill="none" stroke="#191970" d="M397.9788,-324.4639C440.5285,-314.0902 498.7813,-300.2814 545.4137,-289.5062"/>
<polygon fill="#191970" stroke="#191970" points="546.2201,-292.9122 555.1783,-287.2553 544.6476,-286.0911 546.2201,-292.9122"/>
</g>
<!-- Node4 -->
<g id="node5" class="node">
<title>Node4</title>
<polygon fill="none" stroke="#bfbfbf" points="422.2086,-.5 422.2086,-19.5 484.2086,-19.5 484.2086,-.5 422.2086,-.5"/>
<text text-anchor="middle" x="453.2086" y="-7.5" font-family="Helvetica,sans-Serif" font-size="10.00" fill="#000000">type_traits</text>
</g>
<!-- Node3&#45;&gt;Node4 -->
<g id="edge4" class="edge">
<title>Node3&#45;&gt;Node4</title>
<path fill="none" stroke="#191970" d="M514.9389,-56.2977C502.6079,-47.0495 486.882,-35.2551 474.3889,-25.8853"/>
<polygon fill="#191970" stroke="#191970" points="476.4378,-23.047 466.3378,-19.8469 472.2378,-28.647 476.4378,-23.047"/>
</g>
<!-- Node5 -->
<g id="node6" class="node">
<title>Node5</title>
<polygon fill="none" stroke="#bfbfbf" points="502.2086,-.5 502.2086,-19.5 568.2086,-19.5 568.2086,-.5 502.2086,-.5"/>
<text text-anchor="middle" x="535.2086" y="-7.5" font-family="Helvetica,sans-Serif" font-size="10.00" fill="#000000">string_view</text>
</g>
<!-- Node3&#45;&gt;Node5 -->
<g id="edge5" class="edge">
<title>Node3&#45;&gt;Node5</title>
<path fill="none" stroke="#191970" d="M535.2086,-56.2977C535.2086,-48.3834 535.2086,-38.6043 535.2086,-30.0759"/>
<polygon fill="#191970" stroke="#191970" points="538.7087,-29.8469 535.2086,-19.8469 531.7087,-29.847 538.7087,-29.8469"/>
</g>
<!-- Node6 -->
<g id="node7" class="node">
<title>Node6</title>
<polygon fill="none" stroke="#bfbfbf" points="586.7086,-.5 586.7086,-19.5 651.7086,-19.5 651.7086,-.5 586.7086,-.5"/>
<text text-anchor="middle" x="619.2086" y="-7.5" font-family="Helvetica,sans-Serif" font-size="10.00" fill="#000000">Eigen/Core</text>
</g>
<!-- Node3&#45;&gt;Node6 -->
<g id="edge6" class="edge">
<title>Node3&#45;&gt;Node6</title>
<path fill="none" stroke="#191970" d="M555.9726,-56.2977C568.6043,-47.0495 584.7139,-35.2551 597.5116,-25.8853"/>
<polygon fill="#191970" stroke="#191970" points="599.758,-28.5784 605.7591,-19.8469 595.6228,-22.9303 599.758,-28.5784"/>
</g>
<!-- Node7&#45;&gt;Node1 -->
<g id="edge8" class="edge">
<title>Node7&#45;&gt;Node1</title>
<path fill="none" stroke="#191970" d="M263.9399,-192.9517C229.4808,-185.1205 189.1933,-172.8319 156.2086,-154 126.6041,-137.098 99.4827,-107.7779 83.9114,-89.0261"/>
<polygon fill="#191970" stroke="#191970" points="86.6162,-86.8047 77.6024,-81.2367 81.1766,-91.2105 86.6162,-86.8047"/>
</g>
<!-- Node7&#45;&gt;Node3 -->
<g id="edge18" class="edge">
<title>Node7&#45;&gt;Node3</title>
<path fill="none" stroke="#191970" d="M350.055,-190.2045C362.4197,-172.0427 385.1928,-141.8457 411.2086,-123 430.2805,-109.1844 453.611,-98.2526 474.8688,-90.08"/>
<polygon fill="#191970" stroke="#191970" points="476.3092,-93.2788 484.4672,-86.5188 473.8742,-86.7159 476.3092,-93.2788"/>
</g>
<!-- Node8 -->
<g id="node9" class="node">
<title>Node8</title>
<polygon fill="none" stroke="#bfbfbf" points="419.7086,-129 419.7086,-148 460.7086,-148 460.7086,-129 419.7086,-129"/>
<text text-anchor="middle" x="440.2086" y="-136" font-family="Helvetica,sans-Serif" font-size="10.00" fill="#000000">string</text>
</g>
<!-- Node7&#45;&gt;Node8 -->
<g id="edge9" class="edge">
<title>Node7&#45;&gt;Node8</title>
<path fill="none" stroke="#191970" d="M362.9001,-190.2967C379.2369,-179.351 401.1844,-164.6462 417.5204,-153.701"/>
<polygon fill="#191970" stroke="#191970" points="419.5879,-156.5289 425.9474,-148.055 415.6915,-150.7135 419.5879,-156.5289"/>
</g>
<!-- Node9 -->
<g id="node10" class="node">
<title>Node9</title>
<polygon fill="none" stroke="#bfbfbf" points="165.2086,-129 165.2086,-148 209.2086,-148 209.2086,-129 165.2086,-129"/>
<text text-anchor="middle" x="187.2086" y="-136" font-family="Helvetica,sans-Serif" font-size="10.00" fill="#000000">vector</text>
</g>
<!-- Node7&#45;&gt;Node9 -->
<g id="edge10" class="edge">
<title>Node7&#45;&gt;Node9</title>
<path fill="none" stroke="#191970" d="M302.8313,-190.4499C278.5457,-180.4929 246.2957,-166.9338 218.2086,-154 217.1974,-153.5344 216.1706,-153.0551 215.1355,-152.5666"/>
<polygon fill="#191970" stroke="#191970" points="216.3275,-149.2548 205.8026,-148.0393 213.2723,-155.5529 216.3275,-149.2548"/>
</g>
<!-- Node10 -->
<g id="node11" class="node">
<title>Node10</title>
<g id="a_node11"><a xlink:href="Vector_8h_source.html" target="_top" xlink:title="BipedalLocomotion/Generic\lContainer/Vector.h">
<polygon fill="none" stroke="#000000" points="227.2086,-123.5 227.2086,-153.5 363.2086,-153.5 363.2086,-123.5 227.2086,-123.5"/>
<text text-anchor="start" x="235.2086" y="-141.5" font-family="Helvetica,sans-Serif" font-size="10.00" fill="#000000">BipedalLocomotion/Generic</text>
<text text-anchor="middle" x="295.2086" y="-130.5" font-family="Helvetica,sans-Serif" font-size="10.00" fill="#000000">Container/Vector.h</text>
</a>
</g>
</g>
<!-- Node7&#45;&gt;Node10 -->
<g id="edge11" class="edge">
<title>Node7&#45;&gt;Node10</title>
<path fill="none" stroke="#191970" d="M329.9974,-190.2967C324.4164,-181.9873 317.3804,-171.5115 311.0987,-162.1587"/>
<polygon fill="#191970" stroke="#191970" points="313.8604,-159.9931 305.3793,-153.6432 308.0495,-163.896 313.8604,-159.9931"/>
</g>
<!-- Node10&#45;&gt;Node1 -->
<g id="edge17" class="edge">
<title>Node10&#45;&gt;Node1</title>
<path fill="none" stroke="#191970" d="M230.2574,-123.4993C193.1967,-114.2952 146.1164,-101.5072 105.2086,-87 103.3765,-86.3503 101.5062,-85.6467 99.6303,-84.91"/>
<polygon fill="#191970" stroke="#191970" points="100.9322,-81.6609 90.3552,-81.0472 98.241,-88.1229 100.9322,-81.6609"/>
</g>
<!-- Node10&#45;&gt;Node3 -->
<g id="edge13" class="edge">
<title>Node10&#45;&gt;Node3</title>
<path fill="none" stroke="#191970" d="M349.0692,-123.4639C385.2261,-113.3701 433.033,-100.024 471.1436,-89.3848"/>
<polygon fill="#191970" stroke="#191970" points="472.4224,-92.6617 481.113,-86.6017 470.5401,-85.9195 472.4224,-92.6617"/>
</g>
<!-- Node11 -->
<g id="node12" class="node">
<title>Node11</title>
<polygon fill="none" stroke="#bfbfbf" points="331.2086,-62 331.2086,-81 445.2086,-81 445.2086,-62 331.2086,-62"/>
<text text-anchor="middle" x="388.2086" y="-69" font-family="Helvetica,sans-Serif" font-size="10.00" fill="#000000">iDynTree/Core/Span.h</text>
</g>
<!-- Node10&#45;&gt;Node11 -->
<g id="edge12" class="edge">
<title>Node10&#45;&gt;Node11</title>
<path fill="none" stroke="#191970" d="M316.3117,-123.2967C331.3642,-112.4524 351.5386,-97.9182 366.6853,-87.006"/>
<polygon fill="#191970" stroke="#191970" points="368.8779,-89.7402 374.9457,-81.055 364.7861,-84.0606 368.8779,-89.7402"/>
</g>
<!-- Node12 -->
<g id="node13" class="node">
<title>Node12</title>
<polygon fill="none" stroke="#bfbfbf" points="114.7086,-62 114.7086,-81 173.7086,-81 173.7086,-62 114.7086,-62"/>
<text text-anchor="middle" x="144.2086" y="-69" font-family="Helvetica,sans-Serif" font-size="10.00" fill="#000000">functional</text>
</g>
<!-- Node10&#45;&gt;Node12 -->
<g id="edge14" class="edge">
<title>Node10&#45;&gt;Node12</title>
<path fill="none" stroke="#191970" d="M261.3212,-123.4639C235.5288,-112.0196 200.314,-96.3945 175.2514,-85.274"/>
<polygon fill="#191970" stroke="#191970" points="176.4134,-81.9605 165.8532,-81.1039 173.5743,-88.359 176.4134,-81.9605"/>
</g>
<!-- Node13 -->
<g id="node14" class="node">
<title>Node13</title>
<polygon fill="none" stroke="#bfbfbf" points="191.7086,-62 191.7086,-81 240.7086,-81 240.7086,-62 191.7086,-62"/>
<text text-anchor="middle" x="216.2086" y="-69" font-family="Helvetica,sans-Serif" font-size="10.00" fill="#000000">cassert</text>
</g>
<!-- Node10&#45;&gt;Node13 -->
<g id="edge15" class="edge">
<title>Node10&#45;&gt;Node13</title>
<path fill="none" stroke="#191970" d="M277.2822,-123.2967C264.7347,-112.6551 247.9975,-98.4602 235.2177,-87.6217"/>
<polygon fill="#191970" stroke="#191970" points="237.3653,-84.8538 227.4749,-81.055 232.8376,-90.1924 237.3653,-84.8538"/>
</g>
<!-- Node14 -->
<g id="node15" class="node">
<title>Node14</title>
<polygon fill="none" stroke="#bfbfbf" points="259.2086,-62 259.2086,-81 313.2086,-81 313.2086,-62 259.2086,-62"/>
<text text-anchor="middle" x="286.2086" y="-69" font-family="Helvetica,sans-Serif" font-size="10.00" fill="#000000">iostream</text>
</g>
<!-- Node10&#45;&gt;Node14 -->
<g id="edge16" class="edge">
<title>Node10&#45;&gt;Node14</title>
<path fill="none" stroke="#191970" d="M293.1663,-123.2967C291.8866,-113.7699 290.2244,-101.3954 288.8455,-91.1306"/>
<polygon fill="#191970" stroke="#191970" points="292.2923,-90.5 287.4921,-81.055 285.3546,-91.4319 292.2923,-90.5"/>
</g>
<!-- Node15&#45;&gt;Node1 -->
<g id="edge20" class="edge">
<title>Node15&#45;&gt;Node1</title>
<path fill="none" stroke="#191970" d="M236.8617,-257.4459C236.8218,-239.242 233.9777,-208.7211 217.2086,-190 184.8534,-153.8787 151.0302,-185.5559 114.2086,-154 94.632,-137.223 82.4102,-109.5074 75.9526,-90.8842"/>
<polygon fill="#191970" stroke="#191970" points="79.2046,-89.5646 72.8045,-81.1213 72.5424,-91.7129 79.2046,-89.5646"/>
</g>
<!-- Node15&#45;&gt;Node2 -->
<g id="edge21" class="edge">
<title>Node15&#45;&gt;Node2</title>
<path fill="none" stroke="#191970" d="M173.8273,-257.4318C140.4102,-248.4927 98.8932,-235.9804 63.2086,-221 62.2096,-220.5806 61.2003,-220.1352 60.1881,-219.6701"/>
<polygon fill="#191970" stroke="#191970" points="61.7024,-216.5139 51.1987,-215.127 58.5449,-222.7613 61.7024,-216.5139"/>
</g>
<!-- Node15&#45;&gt;Node3 -->
<g id="edge22" class="edge">
<title>Node15&#45;&gt;Node3</title>
<path fill="none" stroke="#191970" d="M304.2345,-265.1391C342.4301,-258.3984 389.4514,-245.528 425.2086,-221 472.3698,-188.6492 507.0094,-129.299 523.8218,-95.935"/>
<polygon fill="#191970" stroke="#191970" points="527.0093,-97.3844 528.2744,-86.8653 520.7257,-94.2995 527.0093,-97.3844"/>
</g>
<!-- Node15&#45;&gt;Node7 -->
<g id="edge23" class="edge">
<title>Node15&#45;&gt;Node7</title>
<path fill="none" stroke="#191970" d="M259.5482,-257.4639C273.766,-248.3044 292.1409,-236.4667 307.7608,-226.4038"/>
<polygon fill="#191970" stroke="#191970" points="310.076,-229.0758 316.587,-220.7177 306.2849,-223.1912 310.076,-229.0758"/>
</g>
<!-- Node16 -->
<g id="node17" class="node">
<title>Node16</title>
<g id="a_node17"><a xlink:href="DynamicalSystem_8tpp.html" target="_top" xlink:title="BipedalLocomotion/System\l/DynamicalSystem.tpp">
<polygon fill="none" stroke="#000000" points="72.2086,-190.5 72.2086,-220.5 208.2086,-220.5 208.2086,-190.5 72.2086,-190.5"/>
<text text-anchor="start" x="80.2086" y="-208.5" font-family="Helvetica,sans-Serif" font-size="10.00" fill="#000000">BipedalLocomotion/System</text>
<text text-anchor="middle" x="140.2086" y="-197.5" font-family="Helvetica,sans-Serif" font-size="10.00" fill="#000000">/DynamicalSystem.tpp</text>
</a>
</g>
</g>
<!-- Node15&#45;&gt;Node16 -->
<g id="edge24" class="edge">
<title>Node15&#45;&gt;Node16</title>
<path fill="none" stroke="#191970" d="M208.9238,-257.4639C194.9469,-248.4756 178.1707,-236.9083 164.6242,-226.9699"/>
<polygon fill="#191970" stroke="#191970" points="166.3574,-223.8961 156.2505,-220.7177 162.1694,-229.5051 166.3574,-223.8961"/>
</g>
<!-- Node16&#45;&gt;Node15 -->
<g id="edge25" class="edge">
<title>Node16&#45;&gt;Node15</title>
<path fill="none" stroke="#191970" d="M167.6598,-220.6432C181.6193,-229.6265 198.3387,-241.1577 211.8396,-251.0643"/>
<polygon fill="#191970" stroke="#191970" points="210.0788,-254.1176 220.1855,-257.2967 214.2672,-248.5089 210.0788,-254.1176"/>
</g>
<!-- Node17&#45;&gt;Node0 -->
<g id="edge27" class="edge">
<title>Node17&#45;&gt;Node0</title>
<path fill="none" stroke="#191970" d="M565.1694,-287.6017C523.0857,-297.8601 465.7449,-311.4551 419.4595,-322.1573"/>
<polygon fill="#191970" stroke="#191970" points="418.4172,-318.8057 409.4598,-324.4639 419.9907,-325.6266 418.4172,-318.8057"/>
</g>
</g>
</svg>
