<?xml version="1.0" encoding="UTF-8" standalone="no"?>
<!DOCTYPE svg PUBLIC "-//W3C//DTD SVG 1.1//EN"
 "http://www.w3.org/Graphics/SVG/1.1/DTD/svg11.dtd">
<!-- Generated by graphviz version 2.40.1 (20161225.0304)
 -->
<!-- Title: System/include/BipedalLocomotion/System/Integrator.tpp Pages: 1 -->
<!--zoomable 430 -->
<svg id="main" version="1.1" xmlns="http://www.w3.org/2000/svg" xmlns:xlink="http://www.w3.org/1999/xlink" xml:space="preserve" onload="init(evt)">
<style type="text/css"><![CDATA[
.edge:hover path { stroke: red; }
.edge:hover polygon { stroke: red; fill: red; }
]]></style>
<script type="text/javascript"><![CDATA[
var edges = document.getElementsByTagName('g');
if (edges && edges.length) {
  for (var i=0;i<edges.length;i++) {
    if (edges[i].id.substr(0,4)=='edge') {
      edges[i].setAttribute('class','edge');
    }
  }
}
]]></script>
        <defs>
                <circle id="rim" cx="0" cy="0" r="7"/>
                <circle id="rim2" cx="0" cy="0" r="3.5"/>
                <g id="zoomPlus">
                        <use xlink:href="#rim" fill="#404040">
                                <set attributeName="fill" to="#808080" begin="zoomplus.mouseover" end="zoomplus.mouseout"/>
                        </use>
                        <path d="M-4,0h8M0,-4v8" fill="none" stroke="white" stroke-width="1.5" pointer-events="none"/>
                </g>
                <g id="zoomMin">
                        <use xlink:href="#rim" fill="#404040">
                                <set attributeName="fill" to="#808080" begin="zoomminus.mouseover" end="zoomminus.mouseout"/>
                        </use>
                        <path d="M-4,0h8" fill="none" stroke="white" stroke-width="1.5" pointer-events="none"/>
                </g>
                <g id="dirArrow">
                        <path fill="none" stroke="white" stroke-width="1.5" d="M0,-3.0v7 M-2.5,-0.5L0,-3.0L2.5,-0.5"/>
                </g>
               <g id="resetDef">
                       <use xlink:href="#rim2" fill="#404040">
                               <set attributeName="fill" to="#808080" begin="reset.mouseover" end="reset.mouseout"/>
                       </use>
               </g>
        </defs>

<script type="text/javascript">
var viewWidth = 756;
var viewHeight = 430;
var sectionId = 'dynsection-0';
</script>
<script xlink:href="svgpan.js"/>
<svg id="graph" class="graph">
<g id="viewport">
<title>System/include/BipedalLocomotion/System/Integrator.tpp</title>
<!-- Node0 -->
<g id="node1" class="node">
<title>Node0</title>
<polygon fill="#bfbfbf" stroke="#000000" points="80.4235,-391.5 80.4235,-421.5 250.4235,-421.5 250.4235,-391.5 80.4235,-391.5"/>
<text text-anchor="start" x="88.4235" y="-409.5" font-family="Helvetica,sans-Serif" font-size="10.00" fill="#000000">System/include/BipedalLocomotion</text>
<text text-anchor="middle" x="165.4235" y="-398.5" font-family="Helvetica,sans-Serif" font-size="10.00" fill="#000000">/System/Integrator.tpp</text>
</g>
<!-- Node1 -->
<g id="node2" class="node">
<title>Node1</title>
<g id="a_node2"><a xlink:href="Integrator_8h.html" target="_top" xlink:title="BipedalLocomotion/System\l/Integrator.h">
<polygon fill="none" stroke="#000000" points="97.4235,-324.5 97.4235,-354.5 233.4235,-354.5 233.4235,-324.5 97.4235,-324.5"/>
<text text-anchor="start" x="105.4235" y="-342.5" font-family="Helvetica,sans-Serif" font-size="10.00" fill="#000000">BipedalLocomotion/System</text>
<text text-anchor="middle" x="165.4235" y="-331.5" font-family="Helvetica,sans-Serif" font-size="10.00" fill="#000000">/Integrator.h</text>
</a>
</g>
</g>
<!-- Node0&#45;&gt;Node1 -->
<g id="edge1" class="edge">
<title>Node0&#45;&gt;Node1</title>
<path fill="none" stroke="#191970" d="M159.6627,-391.2967C158.713,-383.4156 158.4472,-373.5857 158.8652,-364.6135"/>
<polygon fill="#191970" stroke="#191970" points="162.354,-364.8924 159.67,-354.6432 155.3767,-364.3291 162.354,-364.8924"/>
</g>
<!-- Node1&#45;&gt;Node0 -->
<g id="edge27" class="edge">
<title>Node1&#45;&gt;Node0</title>
<path fill="none" stroke="#191970" d="M171.1771,-354.6432C172.1303,-362.5143 172.3996,-372.3414 171.9851,-381.3179"/>
<polygon fill="#191970" stroke="#191970" points="168.4955,-381.0487 171.1844,-391.2967 175.4731,-381.6087 168.4955,-381.0487"/>
</g>
<!-- Node2 -->
<g id="node3" class="node">
<title>Node2</title>
<polygon fill="none" stroke="#bfbfbf" points="140.4235,-62 140.4235,-81 192.4235,-81 192.4235,-62 140.4235,-62"/>
<text text-anchor="middle" x="166.4235" y="-69" font-family="Helvetica,sans-Serif" font-size="10.00" fill="#000000">memory</text>
</g>
<!-- Node1&#45;&gt;Node2 -->
<g id="edge2" class="edge">
<title>Node1&#45;&gt;Node2</title>
<path fill="none" stroke="#191970" d="M125.0029,-324.4899C68.3382,-300.8941 -24.5166,-251.417 6.4235,-190 20.9903,-161.0848 99.9151,-111.0334 141.2077,-86.2628"/>
<polygon fill="#191970" stroke="#191970" points="143.0842,-89.2191 149.8868,-81.0965 139.5037,-83.2041 143.0842,-89.2191"/>
</g>
<!-- Node3 -->
<g id="node4" class="node">
<title>Node3</title>
<polygon fill="none" stroke="#bfbfbf" points="15.4235,-196 15.4235,-215 53.4235,-215 53.4235,-196 15.4235,-196"/>
<text text-anchor="middle" x="34.4235" y="-203" font-family="Helvetica,sans-Serif" font-size="10.00" fill="#000000">tuple</text>
</g>
<!-- Node1&#45;&gt;Node3 -->
<g id="edge3" class="edge">
<title>Node1&#45;&gt;Node3</title>
<path fill="none" stroke="#191970" d="M137.0511,-324.2865C121.5569,-315.1006 102.6809,-302.3998 88.4235,-288 69.4069,-268.7935 53.3064,-241.8961 43.7588,-224.1008"/>
<polygon fill="#191970" stroke="#191970" points="46.7588,-222.2837 39.0368,-215.0297 40.5497,-225.516 46.7588,-222.2837"/>
</g>
<!-- Node4 -->
<g id="node5" class="node">
<title>Node4</title>
<g id="a_node5"><a xlink:href="TemplateHelpers_8h_source.html" target="_top" xlink:title="BipedalLocomotion/Generic\lContainer/TemplateHelpers.h">
<polygon fill="none" stroke="#000000" points="559.4235,-56.5 559.4235,-86.5 703.4235,-86.5 703.4235,-56.5 559.4235,-56.5"/>
<text text-anchor="start" x="567.4235" y="-74.5" font-family="Helvetica,sans-Serif" font-size="10.00" fill="#000000">BipedalLocomotion/Generic</text>
<text text-anchor="middle" x="631.4235" y="-63.5" font-family="Helvetica,sans-Serif" font-size="10.00" fill="#000000">Container/TemplateHelpers.h</text>
</a>
</g>
</g>
<!-- Node1&#45;&gt;Node4 -->
<g id="edge4" class="edge">
<title>Node1&#45;&gt;Node4</title>
<path fill="none" stroke="#191970" d="M233.7953,-327.7956C327.3911,-308.2395 494.6847,-260.0865 590.4235,-154 605.5619,-137.2255 616.4781,-113.8406 623.222,-96.2497"/>
<polygon fill="#191970" stroke="#191970" points="626.5825,-97.2498 626.7109,-86.6557 620.004,-94.8574 626.5825,-97.2498"/>
</g>
<!-- Node8 -->
<g id="node9" class="node">
<title>Node8</title>
<g id="a_node9"><a xlink:href="IParametersHandler_8h.html" target="_top" xlink:title="BipedalLocomotion/Parameters\lHandler/IParametersHandler.h">
<polygon fill="none" stroke="#000000" points="263.4235,-190.5 263.4235,-220.5 415.4235,-220.5 415.4235,-190.5 263.4235,-190.5"/>
<text text-anchor="start" x="271.4235" y="-208.5" font-family="Helvetica,sans-Serif" font-size="10.00" fill="#000000">BipedalLocomotion/Parameters</text>
<text text-anchor="middle" x="339.4235" y="-197.5" font-family="Helvetica,sans-Serif" font-size="10.00" fill="#000000">Handler/IParametersHandler.h</text>
</a>
</g>
</g>
<!-- Node1&#45;&gt;Node8 -->
<g id="edge8" class="edge">
<title>Node1&#45;&gt;Node8</title>
<path fill="none" stroke="#191970" d="M189.5042,-324.4119C204.9393,-314.4943 225.2304,-300.9931 242.4235,-288 268.042,-268.6398 295.8161,-244.6902 315.0525,-227.5916"/>
<polygon fill="#191970" stroke="#191970" points="317.6204,-229.9907 322.7428,-220.7165 312.9549,-224.7721 317.6204,-229.9907"/>
</g>
<!-- Node16 -->
<g id="node17" class="node">
<title>Node16</title>
<g id="a_node17"><a xlink:href="DynamicalSystem_8h.html" target="_top" xlink:title="BipedalLocomotion/System\l/DynamicalSystem.h">
<polygon fill="none" stroke="#000000" points="97.4235,-257.5 97.4235,-287.5 233.4235,-287.5 233.4235,-257.5 97.4235,-257.5"/>
<text text-anchor="start" x="105.4235" y="-275.5" font-family="Helvetica,sans-Serif" font-size="10.00" fill="#000000">BipedalLocomotion/System</text>
<text text-anchor="middle" x="165.4235" y="-264.5" font-family="Helvetica,sans-Serif" font-size="10.00" fill="#000000">/DynamicalSystem.h</text>
</a>
</g>
</g>
<!-- Node1&#45;&gt;Node16 -->
<g id="edge20" class="edge">
<title>Node1&#45;&gt;Node16</title>
<path fill="none" stroke="#191970" d="M165.4235,-324.2967C165.4235,-316.5013 165.4235,-306.7991 165.4235,-297.9064"/>
<polygon fill="#191970" stroke="#191970" points="168.9236,-297.6431 165.4235,-287.6432 161.9236,-297.6432 168.9236,-297.6431"/>
</g>
<!-- Node5 -->
<g id="node6" class="node">
<title>Node5</title>
<polygon fill="none" stroke="#bfbfbf" points="518.4235,-.5 518.4235,-19.5 580.4235,-19.5 580.4235,-.5 518.4235,-.5"/>
<text text-anchor="middle" x="549.4235" y="-7.5" font-family="Helvetica,sans-Serif" font-size="10.00" fill="#000000">type_traits</text>
</g>
<!-- Node4&#45;&gt;Node5 -->
<g id="edge5" class="edge">
<title>Node4&#45;&gt;Node5</title>
<path fill="none" stroke="#191970" d="M611.1539,-56.2977C598.8229,-47.0495 583.097,-35.2551 570.6039,-25.8853"/>
<polygon fill="#191970" stroke="#191970" points="572.6528,-23.047 562.5528,-19.8469 568.4528,-28.647 572.6528,-23.047"/>
</g>
<!-- Node6 -->
<g id="node7" class="node">
<title>Node6</title>
<polygon fill="none" stroke="#bfbfbf" points="598.4235,-.5 598.4235,-19.5 664.4235,-19.5 664.4235,-.5 598.4235,-.5"/>
<text text-anchor="middle" x="631.4235" y="-7.5" font-family="Helvetica,sans-Serif" font-size="10.00" fill="#000000">string_view</text>
</g>
<!-- Node4&#45;&gt;Node6 -->
<g id="edge6" class="edge">
<title>Node4&#45;&gt;Node6</title>
<path fill="none" stroke="#191970" d="M631.4235,-56.2977C631.4235,-48.3834 631.4235,-38.6043 631.4235,-30.0759"/>
<polygon fill="#191970" stroke="#191970" points="634.9236,-29.8469 631.4235,-19.8469 627.9236,-29.847 634.9236,-29.8469"/>
</g>
<!-- Node7 -->
<g id="node8" class="node">
<title>Node7</title>
<polygon fill="none" stroke="#bfbfbf" points="682.9235,-.5 682.9235,-19.5 747.9235,-19.5 747.9235,-.5 682.9235,-.5"/>
<text text-anchor="middle" x="715.4235" y="-7.5" font-family="Helvetica,sans-Serif" font-size="10.00" fill="#000000">Eigen/Core</text>
</g>
<!-- Node4&#45;&gt;Node7 -->
<g id="edge7" class="edge">
<title>Node4&#45;&gt;Node7</title>
<path fill="none" stroke="#191970" d="M652.1876,-56.2977C664.8193,-47.0495 680.9288,-35.2551 693.7266,-25.8853"/>
<polygon fill="#191970" stroke="#191970" points="695.973,-28.5784 701.9741,-19.8469 691.8378,-22.9303 695.973,-28.5784"/>
</g>
<!-- Node8&#45;&gt;Node2 -->
<g id="edge9" class="edge">
<title>Node8&#45;&gt;Node2</title>
<path fill="none" stroke="#191970" d="M306.5576,-190.3002C288.0705,-181.0317 265.0369,-168.2458 246.4235,-154 220.8266,-134.4093 195.675,-106.6871 180.6016,-88.8998"/>
<polygon fill="#191970" stroke="#191970" points="183.1454,-86.4851 174.0538,-81.0451 177.7686,-90.9673 183.1454,-86.4851"/>
</g>
<!-- Node8&#45;&gt;Node4 -->
<g id="edge19" class="edge">
<title>Node8&#45;&gt;Node4</title>
<path fill="none" stroke="#191970" d="M383.5181,-190.4167C407.606,-181.3543 437.5153,-168.7305 462.4235,-154 481.4822,-142.7289 482.2568,-134.0863 501.4235,-123 524.2331,-109.8067 551.0712,-98.5427 574.421,-89.944"/>
<polygon fill="#191970" stroke="#191970" points="575.6335,-93.2274 583.854,-86.5435 573.2596,-86.6422 575.6335,-93.2274"/>
</g>
<!-- Node9 -->
<g id="node10" class="node">
<title>Node9</title>
<polygon fill="none" stroke="#bfbfbf" points="509.9235,-129 509.9235,-148 550.9235,-148 550.9235,-129 509.9235,-129"/>
<text text-anchor="middle" x="530.4235" y="-136" font-family="Helvetica,sans-Serif" font-size="10.00" fill="#000000">string</text>
</g>
<!-- Node8&#45;&gt;Node9 -->
<g id="edge10" class="edge">
<title>Node8&#45;&gt;Node9</title>
<path fill="none" stroke="#191970" d="M389.0428,-190.4866C419.917,-180.8087 460.2948,-167.5396 495.4235,-154 497.0435,-153.3756 498.6974,-152.7172 500.3613,-152.0383"/>
<polygon fill="#191970" stroke="#191970" points="501.997,-155.1464 509.8358,-148.0188 499.2631,-148.7024 501.997,-155.1464"/>
</g>
<!-- Node10 -->
<g id="node11" class="node">
<title>Node10</title>
<polygon fill="none" stroke="#bfbfbf" points="255.4235,-129 255.4235,-148 299.4235,-148 299.4235,-129 255.4235,-129"/>
<text text-anchor="middle" x="277.4235" y="-136" font-family="Helvetica,sans-Serif" font-size="10.00" fill="#000000">vector</text>
</g>
<!-- Node8&#45;&gt;Node10 -->
<g id="edge11" class="edge">
<title>Node8&#45;&gt;Node10</title>
<path fill="none" stroke="#191970" d="M325.3548,-190.2967C315.7887,-179.9591 303.1197,-166.2684 293.2093,-155.5588"/>
<polygon fill="#191970" stroke="#191970" points="295.6263,-153.0175 286.2655,-148.055 290.4885,-157.7718 295.6263,-153.0175"/>
</g>
<!-- Node11 -->
<g id="node12" class="node">
<title>Node11</title>
<g id="a_node12"><a xlink:href="Vector_8h_source.html" target="_top" xlink:title="BipedalLocomotion/Generic\lContainer/Vector.h">
<polygon fill="none" stroke="#000000" points="317.4235,-123.5 317.4235,-153.5 453.4235,-153.5 453.4235,-123.5 317.4235,-123.5"/>
<text text-anchor="start" x="325.4235" y="-141.5" font-family="Helvetica,sans-Serif" font-size="10.00" fill="#000000">BipedalLocomotion/Generic</text>
<text text-anchor="middle" x="385.4235" y="-130.5" font-family="Helvetica,sans-Serif" font-size="10.00" fill="#000000">Container/Vector.h</text>
</a>
</g>
</g>
<!-- Node8&#45;&gt;Node11 -->
<g id="edge12" class="edge">
<title>Node8&#45;&gt;Node11</title>
<path fill="none" stroke="#191970" d="M349.8617,-190.2967C355.5666,-181.9873 362.759,-171.5115 369.1802,-162.1587"/>
<polygon fill="#191970" stroke="#191970" points="372.252,-163.8682 375.0267,-153.6432 366.4812,-159.9062 372.252,-163.8682"/>
</g>
<!-- Node11&#45;&gt;Node2 -->
<g id="edge18" class="edge">
<title>Node11&#45;&gt;Node2</title>
<path fill="none" stroke="#191970" d="M324.2088,-123.4392C288.3527,-114.0819 242.4007,-101.1615 202.4235,-87 200.5955,-86.3524 198.7283,-85.657 196.8534,-84.9322"/>
<polygon fill="#191970" stroke="#191970" points="198.1407,-81.6775 187.5589,-81.1517 195.5032,-88.1616 198.1407,-81.6775"/>
</g>
<!-- Node11&#45;&gt;Node4 -->
<g id="edge14" class="edge">
<title>Node11&#45;&gt;Node4</title>
<path fill="none" stroke="#191970" d="M440.6308,-123.4639C477.8492,-113.3272 527.1109,-99.9104 566.2551,-89.2491"/>
<polygon fill="#191970" stroke="#191970" points="567.2468,-92.6066 575.9756,-86.6017 565.4072,-85.8526 567.2468,-92.6066"/>
</g>
<!-- Node12 -->
<g id="node13" class="node">
<title>Node12</title>
<polygon fill="none" stroke="#bfbfbf" points="427.4235,-62 427.4235,-81 541.4235,-81 541.4235,-62 427.4235,-62"/>
<text text-anchor="middle" x="484.4235" y="-69" font-family="Helvetica,sans-Serif" font-size="10.00" fill="#000000">iDynTree/Core/Span.h</text>
</g>
<!-- Node11&#45;&gt;Node12 -->
<g id="edge13" class="edge">
<title>Node11&#45;&gt;Node12</title>
<path fill="none" stroke="#191970" d="M407.8882,-123.2967C424.0616,-112.351 445.7897,-97.6462 461.9623,-86.701"/>
<polygon fill="#191970" stroke="#191970" points="463.985,-89.5584 470.305,-81.055 460.0616,-83.7612 463.985,-89.5584"/>
</g>
<!-- Node13 -->
<g id="node14" class="node">
<title>Node13</title>
<polygon fill="none" stroke="#bfbfbf" points="210.9235,-62 210.9235,-81 269.9235,-81 269.9235,-62 210.9235,-62"/>
<text text-anchor="middle" x="240.4235" y="-69" font-family="Helvetica,sans-Serif" font-size="10.00" fill="#000000">functional</text>
</g>
<!-- Node11&#45;&gt;Node13 -->
<g id="edge15" class="edge">
<title>Node11&#45;&gt;Node13</title>
<path fill="none" stroke="#191970" d="M352.8827,-123.4639C328.2248,-112.0702 294.5987,-96.5327 270.553,-85.4219"/>
<polygon fill="#191970" stroke="#191970" points="271.754,-82.1213 261.2082,-81.1039 268.8178,-88.4757 271.754,-82.1213"/>
</g>
<!-- Node14 -->
<g id="node15" class="node">
<title>Node14</title>
<polygon fill="none" stroke="#bfbfbf" points="287.9235,-62 287.9235,-81 336.9235,-81 336.9235,-62 287.9235,-62"/>
<text text-anchor="middle" x="312.4235" y="-69" font-family="Helvetica,sans-Serif" font-size="10.00" fill="#000000">cassert</text>
</g>
<!-- Node11&#45;&gt;Node14 -->
<g id="edge16" class="edge">
<title>Node11&#45;&gt;Node14</title>
<path fill="none" stroke="#191970" d="M368.8587,-123.2967C357.3746,-112.7564 342.0923,-98.7303 330.3274,-87.9323"/>
<polygon fill="#191970" stroke="#191970" points="332.5682,-85.2382 322.8342,-81.055 327.8349,-90.3954 332.5682,-85.2382"/>
</g>
<!-- Node15 -->
<g id="node16" class="node">
<title>Node15</title>
<polygon fill="none" stroke="#bfbfbf" points="355.4235,-62 355.4235,-81 409.4235,-81 409.4235,-62 355.4235,-62"/>
<text text-anchor="middle" x="382.4235" y="-69" font-family="Helvetica,sans-Serif" font-size="10.00" fill="#000000">iostream</text>
</g>
<!-- Node11&#45;&gt;Node15 -->
<g id="edge17" class="edge">
<title>Node11&#45;&gt;Node15</title>
<path fill="none" stroke="#191970" d="M384.7428,-123.2967C384.3162,-113.7699 383.7621,-101.3954 383.3025,-91.1306"/>
<polygon fill="#191970" stroke="#191970" points="386.7953,-90.8884 382.8514,-81.055 379.8023,-91.2016 386.7953,-90.8884"/>
</g>
<!-- Node16&#45;&gt;Node2 -->
<g id="edge21" class="edge">
<title>Node16&#45;&gt;Node2</title>
<path fill="none" stroke="#191970" d="M186.855,-257.4899C197.943,-248.3676 210.3919,-235.6627 216.4235,-221 221.665,-208.2582 219.1559,-203.5041 216.4235,-190 208.9016,-152.8241 189.3482,-112.8107 177.0415,-90.0928"/>
<polygon fill="#191970" stroke="#191970" points="180.0261,-88.2578 172.1165,-81.2088 173.9039,-91.6518 180.0261,-88.2578"/>
</g>
<!-- Node16&#45;&gt;Node3 -->
<g id="edge22" class="edge">
<title>Node16&#45;&gt;Node3</title>
<path fill="none" stroke="#191970" d="M134.1501,-257.2873C113.6432,-247.2079 86.3058,-233.5738 62.4235,-221 61.7598,-220.6506 61.0882,-220.2949 60.4115,-219.9346"/>
<polygon fill="#191970" stroke="#191970" points="61.9979,-216.8134 51.5388,-215.1231 58.661,-222.9669 61.9979,-216.8134"/>
</g>
<!-- Node16&#45;&gt;Node4 -->
<g id="edge23" class="edge">
<title>Node16&#45;&gt;Node4</title>
<path fill="none" stroke="#191970" d="M233.6511,-266.9519C318.2206,-256.9748 463.0618,-229.4012 560.4235,-154 582.2503,-137.0964 602.2878,-112.6177 615.4698,-94.7149"/>
<polygon fill="#191970" stroke="#191970" points="618.3691,-96.678 621.3681,-86.5165 612.6869,-92.59 618.3691,-96.678"/>
</g>
<!-- Node16&#45;&gt;Node8 -->
<g id="edge24" class="edge">
<title>Node16&#45;&gt;Node8</title>
<path fill="none" stroke="#191970" d="M204.4725,-257.4639C230.017,-247.6278 263.5819,-234.7034 290.8466,-224.2049"/>
<polygon fill="#191970" stroke="#191970" points="292.1299,-227.4614 300.2042,-220.6017 289.6145,-220.9289 292.1299,-227.4614"/>
</g>
<!-- Node17 -->
<g id="node18" class="node">
<title>Node17</title>
<g id="a_node18"><a xlink:href="DynamicalSystem_8tpp.html" target="_top" xlink:title="BipedalLocomotion/System\l/DynamicalSystem.tpp">
<polygon fill="none" stroke="#000000" points="71.4235,-190.5 71.4235,-220.5 207.4235,-220.5 207.4235,-190.5 71.4235,-190.5"/>
<text text-anchor="start" x="79.4235" y="-208.5" font-family="Helvetica,sans-Serif" font-size="10.00" fill="#000000">BipedalLocomotion/System</text>
<text text-anchor="middle" x="139.4235" y="-197.5" font-family="Helvetica,sans-Serif" font-size="10.00" fill="#000000">/DynamicalSystem.tpp</text>
</a>
</g>
</g>
<!-- Node16&#45;&gt;Node17 -->
<g id="edge25" class="edge">
<title>Node16&#45;&gt;Node17</title>
<path fill="none" stroke="#191970" d="M153.7629,-257.2967C149.7113,-249.3299 145.5857,-239.3718 142.5112,-230.3213"/>
<polygon fill="#191970" stroke="#191970" points="145.822,-229.1794 139.5465,-220.6432 139.129,-231.2298 145.822,-229.1794"/>
</g>
<!-- Node17&#45;&gt;Node16 -->
<g id="edge26" class="edge">
<title>Node17&#45;&gt;Node16</title>
<path fill="none" stroke="#191970" d="M151.0536,-220.6432C155.1048,-228.5998 159.2328,-238.5553 162.3127,-247.6103"/>
<polygon fill="#191970" stroke="#191970" points="159.0053,-248.7631 165.2846,-257.2967 165.6974,-246.7099 159.0053,-248.7631"/>
</g>
</g>
</svg>
        <g id="navigator" transform="translate(0 0)" fill="#404254">
                <rect fill="#f2f5e9" fill-opacity="0.5" stroke="#606060" stroke-width=".5" x="0" y="0" width="60" height="60"/>
                <use id="zoomplus" xlink:href="#zoomPlus" x="17" y="9" onmousedown="handleZoom(evt,'in')"/>
                <use id="zoomminus" xlink:href="#zoomMin" x="42" y="9" onmousedown="handleZoom(evt,'out')"/>
                <use id="reset" xlink:href="#resetDef" x="30" y="36" onmousedown="handleReset()"/>
                <g id="arrowUp" xlink:href="#dirArrow" transform="translate(30 24)" onmousedown="handlePan(0,-1)">
                  <use xlink:href="#rim" fill="#404040">
                        <set attributeName="fill" to="#808080" begin="arrowUp.mouseover" end="arrowUp.mouseout"/>
                  </use>
                  <path fill="none" stroke="white" stroke-width="1.5" d="M0,-3.0v7 M-2.5,-0.5L0,-3.0L2.5,-0.5"/>
                </g>
                <g id="arrowRight" xlink:href="#dirArrow" transform="rotate(90) translate(36 -43)" onmousedown="handlePan(1,0)">
                  <use xlink:href="#rim" fill="#404040">
                        <set attributeName="fill" to="#808080" begin="arrowRight.mouseover" end="arrowRight.mouseout"/>
                  </use>
                  <path fill="none" stroke="white" stroke-width="1.5" d="M0,-3.0v7 M-2.5,-0.5L0,-3.0L2.5,-0.5"/>
                </g>
                <g id="arrowDown" xlink:href="#dirArrow" transform="rotate(180) translate(-30 -48)" onmousedown="handlePan(0,1)">
                  <use xlink:href="#rim" fill="#404040">
                        <set attributeName="fill" to="#808080" begin="arrowDown.mouseover" end="arrowDown.mouseout"/>
                  </use>
                  <path fill="none" stroke="white" stroke-width="1.5" d="M0,-3.0v7 M-2.5,-0.5L0,-3.0L2.5,-0.5"/>
                </g>
                <g id="arrowLeft" xlink:href="#dirArrow" transform="rotate(270) translate(-36 17)" onmousedown="handlePan(-1,0)">
                  <use xlink:href="#rim" fill="#404040">
                        <set attributeName="fill" to="#808080" begin="arrowLeft.mouseover" end="arrowLeft.mouseout"/>
                  </use>
                  <path fill="none" stroke="white" stroke-width="1.5" d="M0,-3.0v7 M-2.5,-0.5L0,-3.0L2.5,-0.5"/>
                </g>
        </g>
        <svg viewBox="0 0 15 15" width="100%" height="30px" preserveAspectRatio="xMaxYMin meet">
         <g id="arrow_out" transform="scale(0.3 0.3)">
          <a xlink:href="Integrator_8tpp__incl_org.svg" target="_base">
           <rect id="button" ry="5" rx="5" y="6" x="6" height="38" width="38"
                fill="#f2f5e9" fill-opacity="0.5" stroke="#606060" stroke-width="1.0"/>
           <path id="arrow"
             d="M 11.500037,31.436501 C 11.940474,20.09759 22.043105,11.32322 32.158766,21.979434 L 37.068811,17.246167 C 37.068811,17.246167 37.088388,32 37.088388,32 L 22.160133,31.978069 C 22.160133,31.978069 26.997745,27.140456 26.997745,27.140456 C 18.528582,18.264221 13.291696,25.230495 11.500037,31.436501 z"
             style="fill:#404040;"/>
          </a>
         </g>
        </svg>
</svg>
