<?xml version="1.0" encoding="UTF-8" standalone="no"?>
<!DOCTYPE svg PUBLIC "-//W3C//DTD SVG 1.1//EN"
 "http://www.w3.org/Graphics/SVG/1.1/DTD/svg11.dtd">
<!-- Generated by graphviz version 2.40.1 (20161225.0304)
 -->
<!-- Title: Estimators/src/InvariantEKFBaseEstimator.cpp Pages: 1 -->
<!--zoomable 452 -->
<svg id="main" version="1.1" xmlns="http://www.w3.org/2000/svg" xmlns:xlink="http://www.w3.org/1999/xlink" xml:space="preserve" onload="init(evt)">
<style type="text/css"><![CDATA[
.edge:hover path { stroke: red; }
.edge:hover polygon { stroke: red; fill: red; }
]]></style>
<script type="text/javascript"><![CDATA[
var edges = document.getElementsByTagName('g');
if (edges && edges.length) {
  for (var i=0;i<edges.length;i++) {
    if (edges[i].id.substr(0,4)=='edge') {
      edges[i].setAttribute('class','edge');
    }
  }
}
]]></script>
        <defs>
                <circle id="rim" cx="0" cy="0" r="7"/>
                <circle id="rim2" cx="0" cy="0" r="3.5"/>
                <g id="zoomPlus">
                        <use xlink:href="#rim" fill="#404040">
                                <set attributeName="fill" to="#808080" begin="zoomplus.mouseover" end="zoomplus.mouseout"/>
                        </use>
                        <path d="M-4,0h8M0,-4v8" fill="none" stroke="white" stroke-width="1.5" pointer-events="none"/>
                </g>
                <g id="zoomMin">
                        <use xlink:href="#rim" fill="#404040">
                                <set attributeName="fill" to="#808080" begin="zoomminus.mouseover" end="zoomminus.mouseout"/>
                        </use>
                        <path d="M-4,0h8" fill="none" stroke="white" stroke-width="1.5" pointer-events="none"/>
                </g>
                <g id="dirArrow">
                        <path fill="none" stroke="white" stroke-width="1.5" d="M0,-3.0v7 M-2.5,-0.5L0,-3.0L2.5,-0.5"/>
                </g>
               <g id="resetDef">
                       <use xlink:href="#rim2" fill="#404040">
                               <set attributeName="fill" to="#808080" begin="reset.mouseover" end="reset.mouseout"/>
                       </use>
               </g>
        </defs>

<script type="text/javascript">
var viewWidth = 1418;
var viewHeight = 452;
var sectionId = 'dynsection-0';
</script>
<script xlink:href="svgpan.js"/>
<svg id="graph" class="graph">
<g id="viewport">
<title>Estimators/src/InvariantEKFBaseEstimator.cpp</title>
<!-- Node0 -->
<g id="node1" class="node">
<title>Node0</title>
<polygon fill="#bfbfbf" stroke="#000000" points="1171.5,-413.5 1171.5,-443.5 1292.5,-443.5 1292.5,-413.5 1171.5,-413.5"/>
<text text-anchor="start" x="1179.5" y="-431.5" font-family="Helvetica,sans-Serif" font-size="10.00" fill="#000000">Estimators/src/Invariant</text>
<text text-anchor="middle" x="1232" y="-420.5" font-family="Helvetica,sans-Serif" font-size="10.00" fill="#000000">EKFBaseEstimator.cpp</text>
</g>
<!-- Node1 -->
<g id="node2" class="node">
<title>Node1</title>
<g id="a_node2"><a xlink:href="InvariantEKFBaseEstimator_8h.html" target="_top" xlink:title="BipedalLocomotion/Floating\lBaseEstimators/InvariantEKFBase\lEstimator.h">
<polygon fill="none" stroke="#000000" points="847.5,-335.5 847.5,-376.5 1016.5,-376.5 1016.5,-335.5 847.5,-335.5"/>
<text text-anchor="start" x="855.5" y="-364.5" font-family="Helvetica,sans-Serif" font-size="10.00" fill="#000000">BipedalLocomotion/Floating</text>
<text text-anchor="start" x="855.5" y="-353.5" font-family="Helvetica,sans-Serif" font-size="10.00" fill="#000000">BaseEstimators/InvariantEKFBase</text>
<text text-anchor="middle" x="932" y="-342.5" font-family="Helvetica,sans-Serif" font-size="10.00" fill="#000000">Estimator.h</text>
</a>
</g>
</g>
<!-- Node0&#45;&gt;Node1 -->
<g id="edge1" class="edge">
<title>Node0&#45;&gt;Node1</title>
<path fill="none" stroke="#191970" d="M1171.2905,-413.8285C1129.8112,-403.8044 1074.0095,-390.319 1026.7266,-378.8923"/>
<polygon fill="#191970" stroke="#191970" points="1027.3168,-375.4342 1016.7744,-376.4872 1025.6724,-382.2383 1027.3168,-375.4342"/>
</g>
<!-- Node20 -->
<g id="node21" class="node">
<title>Node20</title>
<polygon fill="none" stroke="#bfbfbf" points="1191,-129 1191,-148 1267,-148 1267,-129 1191,-129"/>
<text text-anchor="middle" x="1229" y="-136" font-family="Helvetica,sans-Serif" font-size="10.00" fill="#000000">manif/manif.h</text>
</g>
<!-- Node0&#45;&gt;Node20 -->
<g id="edge32" class="edge">
<title>Node0&#45;&gt;Node20</title>
<path fill="none" stroke="#191970" d="M1231.8429,-413.3167C1231.3398,-364.6816 1229.7682,-212.7567 1229.2041,-158.2293"/>
<polygon fill="#191970" stroke="#191970" points="1232.7031,-158.1075 1229.0998,-148.1443 1225.7035,-158.18 1232.7031,-158.1075"/>
</g>
<!-- Node25 -->
<g id="node26" class="node">
<title>Node25</title>
<polygon fill="none" stroke="#bfbfbf" points="1260,-346.5 1260,-365.5 1410,-365.5 1410,-346.5 1260,-346.5"/>
<text text-anchor="middle" x="1335" y="-353.5" font-family="Helvetica,sans-Serif" font-size="10.00" fill="#000000">iDynTree/Core/EigenHelpers.h</text>
</g>
<!-- Node0&#45;&gt;Node25 -->
<g id="edge31" class="edge">
<title>Node0&#45;&gt;Node25</title>
<path fill="none" stroke="#191970" d="M1253.3417,-413.478C1270.7032,-401.2574 1295.1251,-384.0673 1312.7318,-371.6743"/>
<polygon fill="#191970" stroke="#191970" points="1315.0814,-374.3005 1321.2442,-365.6825 1311.0522,-368.5764 1315.0814,-374.3005"/>
</g>
<!-- Node2 -->
<g id="node3" class="node">
<title>Node2</title>
<g id="a_node3"><a xlink:href="FloatingBaseEstimator_8h.html" target="_top" xlink:title="BipedalLocomotion/Floating\lBaseEstimators/FloatingBaseEstimator.h">
<polygon fill="none" stroke="#000000" points="548.5,-268.5 548.5,-298.5 745.5,-298.5 745.5,-268.5 548.5,-268.5"/>
<text text-anchor="start" x="556.5" y="-286.5" font-family="Helvetica,sans-Serif" font-size="10.00" fill="#000000">BipedalLocomotion/Floating</text>
<text text-anchor="middle" x="647" y="-275.5" font-family="Helvetica,sans-Serif" font-size="10.00" fill="#000000">BaseEstimators/FloatingBaseEstimator.h</text>
</a>
</g>
</g>
<!-- Node1&#45;&gt;Node2 -->
<g id="edge2" class="edge">
<title>Node1&#45;&gt;Node2</title>
<path fill="none" stroke="#191970" d="M851.0928,-335.4183C808.5238,-324.5894 756.8743,-311.4505 716.1851,-301.0997"/>
<polygon fill="#191970" stroke="#191970" points="716.9093,-297.6726 706.3551,-298.5991 715.1836,-304.4565 716.9093,-297.6726"/>
</g>
<!-- Node3 -->
<g id="node4" class="node">
<title>Node3</title>
<g id="a_node4"><a xlink:href="Advanceable_8h.html" target="_top" xlink:title="BipedalLocomotion/System\l/Advanceable.h">
<polygon fill="none" stroke="#000000" points="842,-196 842,-226 978,-226 978,-196 842,-196"/>
<text text-anchor="start" x="850" y="-214" font-family="Helvetica,sans-Serif" font-size="10.00" fill="#000000">BipedalLocomotion/System</text>
<text text-anchor="middle" x="910" y="-203" font-family="Helvetica,sans-Serif" font-size="10.00" fill="#000000">/Advanceable.h</text>
</a>
</g>
</g>
<!-- Node2&#45;&gt;Node3 -->
<g id="edge3" class="edge">
<title>Node2&#45;&gt;Node3</title>
<path fill="none" stroke="#191970" d="M701.4938,-268.478C743.4574,-256.91 801.5748,-240.8891 845.7945,-228.6992"/>
<polygon fill="#191970" stroke="#191970" points="846.8658,-232.0345 855.576,-226.0028 845.0055,-225.2863 846.8658,-232.0345"/>
</g>
<!-- Node4 -->
<g id="node5" class="node">
<title>Node4</title>
<g id="a_node5"><a xlink:href="IParametersHandler_8h.html" target="_top" xlink:title="BipedalLocomotion/Parameters\lHandler/IParametersHandler.h">
<polygon fill="none" stroke="#000000" points="164,-196 164,-226 316,-226 316,-196 164,-196"/>
<text text-anchor="start" x="172" y="-214" font-family="Helvetica,sans-Serif" font-size="10.00" fill="#000000">BipedalLocomotion/Parameters</text>
<text text-anchor="middle" x="240" y="-203" font-family="Helvetica,sans-Serif" font-size="10.00" fill="#000000">Handler/IParametersHandler.h</text>
</a>
</g>
</g>
<!-- Node2&#45;&gt;Node4 -->
<g id="edge4" class="edge">
<title>Node2&#45;&gt;Node4</title>
<path fill="none" stroke="#191970" d="M562.6693,-268.478C493.5402,-256.1638 396.0833,-238.8035 326.3974,-226.3902"/>
<polygon fill="#191970" stroke="#191970" points="326.7829,-222.9039 316.3241,-224.5958 325.5553,-229.7954 326.7829,-222.9039"/>
</g>
<!-- Node5 -->
<g id="node6" class="node">
<title>Node5</title>
<polygon fill="none" stroke="#bfbfbf" points="0,-62 0,-81 52,-81 52,-62 0,-62"/>
<text text-anchor="middle" x="26" y="-69" font-family="Helvetica,sans-Serif" font-size="10.00" fill="#000000">memory</text>
</g>
<!-- Node2&#45;&gt;Node5 -->
<g id="edge30" class="edge">
<title>Node2&#45;&gt;Node5</title>
<path fill="none" stroke="#191970" d="M548.2868,-277.23C414.5884,-268.1192 188.6734,-250.3015 155,-232 94.6795,-199.2159 52.265,-125.2973 34.837,-90.409"/>
<polygon fill="#191970" stroke="#191970" points="37.9287,-88.7632 30.4131,-81.2954 31.6314,-91.82 37.9287,-88.7632"/>
</g>
<!-- Node16 -->
<g id="node17" class="node">
<title>Node16</title>
<polygon fill="none" stroke="#bfbfbf" points="509,-62 509,-81 563,-81 563,-62 509,-62"/>
<text text-anchor="middle" x="536" y="-69" font-family="Helvetica,sans-Serif" font-size="10.00" fill="#000000">iostream</text>
</g>
<!-- Node2&#45;&gt;Node16 -->
<g id="edge29" class="edge">
<title>Node2&#45;&gt;Node16</title>
<path fill="none" stroke="#191970" d="M548.2479,-269.6307C504.576,-261.2785 460.1246,-248.9323 447,-232 409.5933,-183.7408 478.0637,-117.7935 514.8578,-87.6832"/>
<polygon fill="#191970" stroke="#191970" points="517.3958,-90.1355 523.0254,-81.1601 513.0274,-84.6659 517.3958,-90.1355"/>
</g>
<!-- Node17 -->
<g id="node18" class="node">
<title>Node17</title>
<g id="a_node18"><a xlink:href="FloatingBaseEstimatorParams_8h.html" target="_top" xlink:title="BipedalLocomotion/Floating\lBaseEstimators/FloatingBaseEstimator\lParams.h">
<polygon fill="none" stroke="#000000" points="456,-190.5 456,-231.5 644,-231.5 644,-190.5 456,-190.5"/>
<text text-anchor="start" x="464" y="-219.5" font-family="Helvetica,sans-Serif" font-size="10.00" fill="#000000">BipedalLocomotion/Floating</text>
<text text-anchor="start" x="464" y="-208.5" font-family="Helvetica,sans-Serif" font-size="10.00" fill="#000000">BaseEstimators/FloatingBaseEstimator</text>
<text text-anchor="middle" x="550" y="-197.5" font-family="Helvetica,sans-Serif" font-size="10.00" fill="#000000">Params.h</text>
</a>
</g>
</g>
<!-- Node2&#45;&gt;Node17 -->
<g id="edge19" class="edge">
<title>Node2&#45;&gt;Node17</title>
<path fill="none" stroke="#191970" d="M626.9015,-268.478C615.0453,-259.6164 599.6928,-248.1416 585.8267,-237.7777"/>
<polygon fill="#191970" stroke="#191970" points="587.5349,-234.6849 577.4296,-231.5015 583.3441,-240.2918 587.5349,-234.6849"/>
</g>
<!-- Node19 -->
<g id="node20" class="node">
<title>Node19</title>
<g id="a_node20"><a xlink:href="FloatingBaseEstimatorIO_8h.html" target="_top" xlink:title="BipedalLocomotion/Floating\lBaseEstimators/FloatingBaseEstimatorIO.h">
<polygon fill="none" stroke="#000000" points="996.5,-196 996.5,-226 1203.5,-226 1203.5,-196 996.5,-196"/>
<text text-anchor="start" x="1004.5" y="-214" font-family="Helvetica,sans-Serif" font-size="10.00" fill="#000000">BipedalLocomotion/Floating</text>
<text text-anchor="middle" x="1100" y="-203" font-family="Helvetica,sans-Serif" font-size="10.00" fill="#000000">BaseEstimators/FloatingBaseEstimatorIO.h</text>
</a>
</g>
</g>
<!-- Node2&#45;&gt;Node19 -->
<g id="edge21" class="edge">
<title>Node2&#45;&gt;Node19</title>
<path fill="none" stroke="#191970" d="M745.7062,-269.4384C813.641,-259.5426 905.9064,-245.673 987,-232 994.8336,-230.6792 1002.9637,-229.2613 1011.1085,-227.8085"/>
<polygon fill="#191970" stroke="#191970" points="1011.8096,-231.2386 1021.0318,-226.0232 1010.5701,-224.3492 1011.8096,-231.2386"/>
</g>
<!-- Node24 -->
<g id="node25" class="node">
<title>Node24</title>
<polygon fill="none" stroke="#bfbfbf" points="662.5,-201.5 662.5,-220.5 823.5,-220.5 823.5,-201.5 662.5,-201.5"/>
<text text-anchor="middle" x="743" y="-208.5" font-family="Helvetica,sans-Serif" font-size="10.00" fill="#000000">iDynTree/KinDynComputations.h</text>
</g>
<!-- Node2&#45;&gt;Node24 -->
<g id="edge28" class="edge">
<title>Node2&#45;&gt;Node24</title>
<path fill="none" stroke="#191970" d="M666.8913,-268.478C682.9244,-256.3696 705.4179,-239.3823 721.7919,-227.0165"/>
<polygon fill="#191970" stroke="#191970" points="724.3083,-229.5021 730.179,-220.6825 720.0897,-223.9161 724.3083,-229.5021"/>
</g>
<!-- Node4&#45;&gt;Node5 -->
<g id="edge5" class="edge">
<title>Node4&#45;&gt;Node5</title>
<path fill="none" stroke="#191970" d="M211.4979,-195.8281C191.2218,-184.777 163.5195,-169.1503 140,-154 106.2754,-132.276 68.9123,-104.4784 46.4533,-87.3363"/>
<polygon fill="#191970" stroke="#191970" points="48.4051,-84.4223 38.3406,-81.1122 44.1441,-89.9761 48.4051,-84.4223"/>
</g>
<!-- Node6 -->
<g id="node7" class="node">
<title>Node6</title>
<polygon fill="none" stroke="#bfbfbf" points="796.5,-62 796.5,-81 837.5,-81 837.5,-62 796.5,-62"/>
<text text-anchor="middle" x="817" y="-69" font-family="Helvetica,sans-Serif" font-size="10.00" fill="#000000">string</text>
</g>
<!-- Node4&#45;&gt;Node6 -->
<g id="edge6" class="edge">
<title>Node4&#45;&gt;Node6</title>
<path fill="none" stroke="#191970" d="M302.2973,-195.9385C425.352,-166.1878 695.545,-100.8639 786.4602,-78.8835"/>
<polygon fill="#191970" stroke="#191970" points="787.4984,-82.2334 796.3959,-76.4814 785.8534,-75.4295 787.4984,-82.2334"/>
</g>
<!-- Node7 -->
<g id="node8" class="node">
<title>Node7</title>
<polygon fill="none" stroke="#bfbfbf" points="164,-129 164,-148 208,-148 208,-129 164,-129"/>
<text text-anchor="middle" x="186" y="-136" font-family="Helvetica,sans-Serif" font-size="10.00" fill="#000000">vector</text>
</g>
<!-- Node4&#45;&gt;Node7 -->
<g id="edge7" class="edge">
<title>Node4&#45;&gt;Node7</title>
<path fill="none" stroke="#191970" d="M228.8112,-195.978C220.2597,-184.4969 208.4412,-168.6294 199.3878,-156.4744"/>
<polygon fill="#191970" stroke="#191970" points="202.151,-154.3248 193.3706,-148.3957 196.5371,-158.5063 202.151,-154.3248"/>
</g>
<!-- Node8 -->
<g id="node9" class="node">
<title>Node8</title>
<g id="a_node9"><a xlink:href="Vector_8h_source.html" target="_top" xlink:title="BipedalLocomotion/Generic\lContainer/Vector.h">
<polygon fill="none" stroke="#000000" points="226,-123.5 226,-153.5 362,-153.5 362,-123.5 226,-123.5"/>
<text text-anchor="start" x="234" y="-141.5" font-family="Helvetica,sans-Serif" font-size="10.00" fill="#000000">BipedalLocomotion/Generic</text>
<text text-anchor="middle" x="294" y="-130.5" font-family="Helvetica,sans-Serif" font-size="10.00" fill="#000000">Container/Vector.h</text>
</a>
</g>
</g>
<!-- Node4&#45;&gt;Node8 -->
<g id="edge8" class="edge">
<title>Node4&#45;&gt;Node8</title>
<path fill="none" stroke="#191970" d="M251.1888,-195.978C258.5741,-186.0626 268.3961,-172.8756 276.7693,-161.6339"/>
<polygon fill="#191970" stroke="#191970" points="279.659,-163.6134 282.8255,-153.5028 274.0451,-159.432 279.659,-163.6134"/>
</g>
<!-- Node10 -->
<g id="node11" class="node">
<title>Node10</title>
<g id="a_node11"><a xlink:href="TemplateHelpers_8h_source.html" target="_top" xlink:title="BipedalLocomotion/Generic\lContainer/TemplateHelpers.h">
<polygon fill="none" stroke="#000000" points="70,-56.5 70,-86.5 214,-86.5 214,-56.5 70,-56.5"/>
<text text-anchor="start" x="78" y="-74.5" font-family="Helvetica,sans-Serif" font-size="10.00" fill="#000000">BipedalLocomotion/Generic</text>
<text text-anchor="middle" x="142" y="-63.5" font-family="Helvetica,sans-Serif" font-size="10.00" fill="#000000">Container/TemplateHelpers.h</text>
</a>
</g>
</g>
<!-- Node4&#45;&gt;Node10 -->
<g id="edge18" class="edge">
<title>Node4&#45;&gt;Node10</title>
<path fill="none" stroke="#191970" d="M204.9646,-195.9763C187.1687,-186.524 166.8556,-172.5704 155,-154 144.2474,-137.1573 141.3043,-114.5401 140.8786,-97.2465"/>
<polygon fill="#191970" stroke="#191970" points="144.3798,-96.7741 140.9057,-86.7651 137.3798,-96.756 144.3798,-96.7741"/>
</g>
<!-- Node8&#45;&gt;Node5 -->
<g id="edge17" class="edge">
<title>Node8&#45;&gt;Node5</title>
<path fill="none" stroke="#191970" d="M225.7336,-124.134C162.7382,-110.7591 76.6459,-92.1366 61,-87 59.1058,-86.3781 57.1749,-85.6891 55.2419,-84.9573"/>
<polygon fill="#191970" stroke="#191970" points="56.3002,-81.6085 45.7199,-81.0536 53.6448,-88.0853 56.3002,-81.6085"/>
</g>
<!-- Node9 -->
<g id="node10" class="node">
<title>Node9</title>
<polygon fill="none" stroke="#bfbfbf" points="232,-62 232,-81 346,-81 346,-62 232,-62"/>
<text text-anchor="middle" x="289" y="-69" font-family="Helvetica,sans-Serif" font-size="10.00" fill="#000000">iDynTree/Core/Span.h</text>
</g>
<!-- Node8&#45;&gt;Node9 -->
<g id="edge9" class="edge">
<title>Node8&#45;&gt;Node9</title>
<path fill="none" stroke="#191970" d="M292.8654,-123.2967C292.1545,-113.7699 291.231,-101.3954 290.465,-91.1306"/>
<polygon fill="#191970" stroke="#191970" points="293.9476,-90.7667 289.7131,-81.055 286.9671,-91.2877 293.9476,-90.7667"/>
</g>
<!-- Node8&#45;&gt;Node10 -->
<g id="edge10" class="edge">
<title>Node8&#45;&gt;Node10</title>
<path fill="none" stroke="#191970" d="M259.8882,-123.4639C237.9633,-113.7996 209.2746,-101.154 185.6881,-90.7572"/>
<polygon fill="#191970" stroke="#191970" points="186.8228,-87.4325 176.2605,-86.6017 183.9993,-93.8379 186.8228,-87.4325"/>
</g>
<!-- Node14 -->
<g id="node15" class="node">
<title>Node14</title>
<polygon fill="none" stroke="#bfbfbf" points="364.5,-62 364.5,-81 423.5,-81 423.5,-62 364.5,-62"/>
<text text-anchor="middle" x="394" y="-69" font-family="Helvetica,sans-Serif" font-size="10.00" fill="#000000">functional</text>
</g>
<!-- Node8&#45;&gt;Node14 -->
<g id="edge14" class="edge">
<title>Node8&#45;&gt;Node14</title>
<path fill="none" stroke="#191970" d="M316.6915,-123.2967C333.0283,-112.351 354.9759,-97.6462 371.3119,-86.701"/>
<polygon fill="#191970" stroke="#191970" points="373.3793,-89.5289 379.7388,-81.055 369.483,-83.7135 373.3793,-89.5289"/>
</g>
<!-- Node15 -->
<g id="node16" class="node">
<title>Node15</title>
<polygon fill="none" stroke="#bfbfbf" points="441.5,-62 441.5,-81 490.5,-81 490.5,-62 441.5,-62"/>
<text text-anchor="middle" x="466" y="-69" font-family="Helvetica,sans-Serif" font-size="10.00" fill="#000000">cassert</text>
</g>
<!-- Node8&#45;&gt;Node15 -->
<g id="edge15" class="edge">
<title>Node8&#45;&gt;Node15</title>
<path fill="none" stroke="#191970" d="M336.5798,-123.4886C364.0123,-113.6017 400.3384,-100.1057 432,-87 433.3861,-86.4262 434.7992,-85.8297 436.2232,-85.2191"/>
<polygon fill="#191970" stroke="#191970" points="437.8697,-88.3182 445.606,-81.0794 435.0441,-81.9138 437.8697,-88.3182"/>
</g>
<!-- Node8&#45;&gt;Node16 -->
<g id="edge16" class="edge">
<title>Node8&#45;&gt;Node16</title>
<path fill="none" stroke="#191970" d="M362.1378,-124.0932C402.3832,-114.9148 454.0862,-101.9546 499,-87 501.0939,-86.3028 503.2362,-85.5408 505.3831,-84.7406"/>
<polygon fill="#191970" stroke="#191970" points="506.6685,-87.996 514.6869,-81.071 504.1001,-81.4842 506.6685,-87.996"/>
</g>
<!-- Node11 -->
<g id="node12" class="node">
<title>Node11</title>
<polygon fill="none" stroke="#bfbfbf" points="29,-.5 29,-19.5 91,-19.5 91,-.5 29,-.5"/>
<text text-anchor="middle" x="60" y="-7.5" font-family="Helvetica,sans-Serif" font-size="10.00" fill="#000000">type_traits</text>
</g>
<!-- Node10&#45;&gt;Node11 -->
<g id="edge11" class="edge">
<title>Node10&#45;&gt;Node11</title>
<path fill="none" stroke="#191970" d="M121.7303,-56.2977C109.3994,-47.0495 93.6734,-35.2551 81.1803,-25.8853"/>
<polygon fill="#191970" stroke="#191970" points="83.2293,-23.047 73.1292,-19.8469 79.0292,-28.647 83.2293,-23.047"/>
</g>
<!-- Node12 -->
<g id="node13" class="node">
<title>Node12</title>
<polygon fill="none" stroke="#bfbfbf" points="109,-.5 109,-19.5 175,-19.5 175,-.5 109,-.5"/>
<text text-anchor="middle" x="142" y="-7.5" font-family="Helvetica,sans-Serif" font-size="10.00" fill="#000000">string_view</text>
</g>
<!-- Node10&#45;&gt;Node12 -->
<g id="edge12" class="edge">
<title>Node10&#45;&gt;Node12</title>
<path fill="none" stroke="#191970" d="M142,-56.2977C142,-48.3834 142,-38.6043 142,-30.0759"/>
<polygon fill="#191970" stroke="#191970" points="145.5001,-29.8469 142,-19.8469 138.5001,-29.847 145.5001,-29.8469"/>
</g>
<!-- Node13 -->
<g id="node14" class="node">
<title>Node13</title>
<polygon fill="none" stroke="#bfbfbf" points="193.5,-.5 193.5,-19.5 258.5,-19.5 258.5,-.5 193.5,-.5"/>
<text text-anchor="middle" x="226" y="-7.5" font-family="Helvetica,sans-Serif" font-size="10.00" fill="#000000">Eigen/Core</text>
</g>
<!-- Node10&#45;&gt;Node13 -->
<g id="edge13" class="edge">
<title>Node10&#45;&gt;Node13</title>
<path fill="none" stroke="#191970" d="M162.7641,-56.2977C175.3958,-47.0495 191.5053,-35.2551 204.3031,-25.8853"/>
<polygon fill="#191970" stroke="#191970" points="206.5495,-28.5784 212.5505,-19.8469 202.4143,-22.9303 206.5495,-28.5784"/>
</g>
<!-- Node18 -->
<g id="node19" class="node">
<title>Node18</title>
<polygon fill="none" stroke="#bfbfbf" points="699.5,-129 699.5,-148 772.5,-148 772.5,-129 699.5,-129"/>
<text text-anchor="middle" x="736" y="-136" font-family="Helvetica,sans-Serif" font-size="10.00" fill="#000000">Eigen/Dense</text>
</g>
<!-- Node17&#45;&gt;Node18 -->
<g id="edge20" class="edge">
<title>Node17&#45;&gt;Node18</title>
<path fill="none" stroke="#191970" d="M602.8026,-190.4183C634.56,-178.0398 674.0611,-162.6429 701.7699,-151.8424"/>
<polygon fill="#191970" stroke="#191970" points="703.3625,-154.9782 711.4086,-148.0853 700.8203,-148.4561 703.3625,-154.9782"/>
</g>
<!-- Node19&#45;&gt;Node18 -->
<g id="edge22" class="edge">
<title>Node19&#45;&gt;Node18</title>
<path fill="none" stroke="#191970" d="M1024.579,-195.978C951.9413,-181.5103 844.3327,-160.0773 783.119,-147.885"/>
<polygon fill="#191970" stroke="#191970" points="783.4678,-144.3858 772.9767,-145.8649 782.1003,-151.2509 783.4678,-144.3858"/>
</g>
<!-- Node19&#45;&gt;Node20 -->
<g id="edge23" class="edge">
<title>Node19&#45;&gt;Node20</title>
<path fill="none" stroke="#191970" d="M1126.7289,-195.978C1149.0714,-183.4211 1180.75,-165.6173 1202.9116,-153.1621"/>
<polygon fill="#191970" stroke="#191970" points="1204.7691,-156.1331 1211.7718,-148.1825 1201.3394,-150.0308 1204.7691,-156.1331"/>
</g>
<!-- Node21 -->
<g id="node22" class="node">
<title>Node21</title>
<g id="a_node22"><a xlink:href="Contact_8h.html" target="_top" xlink:title="BipedalLocomotion/Contacts\l/Contact.h">
<polygon fill="none" stroke="#000000" points="1029,-123.5 1029,-153.5 1171,-153.5 1171,-123.5 1029,-123.5"/>
<text text-anchor="start" x="1037" y="-141.5" font-family="Helvetica,sans-Serif" font-size="10.00" fill="#000000">BipedalLocomotion/Contacts</text>
<text text-anchor="middle" x="1100" y="-130.5" font-family="Helvetica,sans-Serif" font-size="10.00" fill="#000000">/Contact.h</text>
</a>
</g>
</g>
<!-- Node19&#45;&gt;Node21 -->
<g id="edge24" class="edge">
<title>Node19&#45;&gt;Node21</title>
<path fill="none" stroke="#191970" d="M1100,-195.978C1100,-186.6459 1100,-174.4157 1100,-163.6368"/>
<polygon fill="#191970" stroke="#191970" points="1103.5001,-163.5028 1100,-153.5028 1096.5001,-163.5028 1103.5001,-163.5028"/>
</g>
<!-- Node23 -->
<g id="node24" class="node">
<title>Node23</title>
<polygon fill="none" stroke="#bfbfbf" points="975.5,-129 975.5,-148 1010.5,-148 1010.5,-129 975.5,-129"/>
<text text-anchor="middle" x="993" y="-136" font-family="Helvetica,sans-Serif" font-size="10.00" fill="#000000">map</text>
</g>
<!-- Node19&#45;&gt;Node23 -->
<g id="edge27" class="edge">
<title>Node19&#45;&gt;Node23</title>
<path fill="none" stroke="#191970" d="M1077.8295,-195.978C1059.6283,-183.6453 1033.9573,-166.2514 1015.6314,-153.8344"/>
<polygon fill="#191970" stroke="#191970" points="1017.5319,-150.8944 1007.29,-148.1825 1013.6054,-156.6894 1017.5319,-150.8944"/>
</g>
<!-- Node21&#45;&gt;Node6 -->
<g id="edge26" class="edge">
<title>Node21&#45;&gt;Node6</title>
<path fill="none" stroke="#191970" d="M1036.4893,-123.4639C977.5261,-109.5044 892.2883,-89.3244 847.3564,-78.6869"/>
<polygon fill="#191970" stroke="#191970" points="848.1591,-75.2802 837.6217,-76.3822 846.5463,-82.0919 848.1591,-75.2802"/>
</g>
<!-- Node22 -->
<g id="node23" class="node">
<title>Node22</title>
<polygon fill="none" stroke="#bfbfbf" points="1064.5,-62 1064.5,-81 1135.5,-81 1135.5,-62 1064.5,-62"/>
<text text-anchor="middle" x="1100" y="-69" font-family="Helvetica,sans-Serif" font-size="10.00" fill="#000000">manif/SE3.h</text>
</g>
<!-- Node21&#45;&gt;Node22 -->
<g id="edge25" class="edge">
<title>Node21&#45;&gt;Node22</title>
<path fill="none" stroke="#191970" d="M1100,-123.2967C1100,-113.7699 1100,-101.3954 1100,-91.1306"/>
<polygon fill="#191970" stroke="#191970" points="1103.5001,-91.0549 1100,-81.055 1096.5001,-91.055 1103.5001,-91.0549"/>
</g>
</g>
</svg>
        <g id="navigator" transform="translate(0 0)" fill="#404254">
                <rect fill="#f2f5e9" fill-opacity="0.5" stroke="#606060" stroke-width=".5" x="0" y="0" width="60" height="60"/>
                <use id="zoomplus" xlink:href="#zoomPlus" x="17" y="9" onmousedown="handleZoom(evt,'in')"/>
                <use id="zoomminus" xlink:href="#zoomMin" x="42" y="9" onmousedown="handleZoom(evt,'out')"/>
                <use id="reset" xlink:href="#resetDef" x="30" y="36" onmousedown="handleReset()"/>
                <g id="arrowUp" xlink:href="#dirArrow" transform="translate(30 24)" onmousedown="handlePan(0,-1)">
                  <use xlink:href="#rim" fill="#404040">
                        <set attributeName="fill" to="#808080" begin="arrowUp.mouseover" end="arrowUp.mouseout"/>
                  </use>
                  <path fill="none" stroke="white" stroke-width="1.5" d="M0,-3.0v7 M-2.5,-0.5L0,-3.0L2.5,-0.5"/>
                </g>
                <g id="arrowRight" xlink:href="#dirArrow" transform="rotate(90) translate(36 -43)" onmousedown="handlePan(1,0)">
                  <use xlink:href="#rim" fill="#404040">
                        <set attributeName="fill" to="#808080" begin="arrowRight.mouseover" end="arrowRight.mouseout"/>
                  </use>
                  <path fill="none" stroke="white" stroke-width="1.5" d="M0,-3.0v7 M-2.5,-0.5L0,-3.0L2.5,-0.5"/>
                </g>
                <g id="arrowDown" xlink:href="#dirArrow" transform="rotate(180) translate(-30 -48)" onmousedown="handlePan(0,1)">
                  <use xlink:href="#rim" fill="#404040">
                        <set attributeName="fill" to="#808080" begin="arrowDown.mouseover" end="arrowDown.mouseout"/>
                  </use>
                  <path fill="none" stroke="white" stroke-width="1.5" d="M0,-3.0v7 M-2.5,-0.5L0,-3.0L2.5,-0.5"/>
                </g>
                <g id="arrowLeft" xlink:href="#dirArrow" transform="rotate(270) translate(-36 17)" onmousedown="handlePan(-1,0)">
                  <use xlink:href="#rim" fill="#404040">
                        <set attributeName="fill" to="#808080" begin="arrowLeft.mouseover" end="arrowLeft.mouseout"/>
                  </use>
                  <path fill="none" stroke="white" stroke-width="1.5" d="M0,-3.0v7 M-2.5,-0.5L0,-3.0L2.5,-0.5"/>
                </g>
        </g>
        <svg viewBox="0 0 15 15" width="100%" height="30px" preserveAspectRatio="xMaxYMin meet">
         <g id="arrow_out" transform="scale(0.3 0.3)">
          <a xlink:href="InvariantEKFBaseEstimator_8cpp__incl_org.svg" target="_base">
           <rect id="button" ry="5" rx="5" y="6" x="6" height="38" width="38"
                fill="#f2f5e9" fill-opacity="0.5" stroke="#606060" stroke-width="1.0"/>
           <path id="arrow"
             d="M 11.500037,31.436501 C 11.940474,20.09759 22.043105,11.32322 32.158766,21.979434 L 37.068811,17.246167 C 37.068811,17.246167 37.088388,32 37.088388,32 L 22.160133,31.978069 C 22.160133,31.978069 26.997745,27.140456 26.997745,27.140456 C 18.528582,18.264221 13.291696,25.230495 11.500037,31.436501 z"
             style="fill:#404040;"/>
          </a>
         </g>
        </svg>
</svg>
