<?xml version="1.0" encoding="UTF-8" standalone="no"?>
<!DOCTYPE svg PUBLIC "-//W3C//DTD SVG 1.1//EN"
 "http://www.w3.org/Graphics/SVG/1.1/DTD/svg11.dtd">
<!-- Generated by graphviz version 2.40.1 (20161225.0304)
 -->
<!-- Title: RobotInterface/include/BipedalLocomotion/RobotInterface/IRobotControl.h Pages: 1 -->
<svg width="298pt" height="195pt"
 viewBox="0.00 0.00 298.00 195.00" xmlns="http://www.w3.org/2000/svg" xmlns:xlink="http://www.w3.org/1999/xlink">
<g id="graph0" class="graph" transform="scale(1 1) rotate(0) translate(4 191)">
<title>RobotInterface/include/BipedalLocomotion/RobotInterface/IRobotControl.h</title>
<!-- Node15 -->
<g id="node1" class="node">
<title>Node15</title>
<polygon fill="#bfbfbf" stroke="#000000" points="41.5,-145.5 41.5,-186.5 211.5,-186.5 211.5,-145.5 41.5,-145.5"/>
<text text-anchor="start" x="49.5" y="-174.5" font-family="Helvetica,sans-Serif" font-size="10.00" fill="#000000">RobotInterface/include</text>
<text text-anchor="start" x="49.5" y="-163.5" font-family="Helvetica,sans-Serif" font-size="10.00" fill="#000000">/BipedalLocomotion/RobotInterface</text>
<text text-anchor="middle" x="126.5" y="-152.5" font-family="Helvetica,sans-Serif" font-size="10.00" fill="#000000">/IRobotControl.h</text>
</g>
<!-- Node16 -->
<g id="node2" class="node">
<title>Node16</title>
<g id="a_node2"><a xlink:href="IRobotControl_8cpp.html" target="_top" xlink:title="RobotInterface/src\l/IRobotControl.cpp">
<polygon fill="none" stroke="#000000" points="0,-73 0,-103 99,-103 99,-73 0,-73"/>
<text text-anchor="start" x="8" y="-91" font-family="Helvetica,sans-Serif" font-size="10.00" fill="#000000">RobotInterface/src</text>
<text text-anchor="middle" x="49.5" y="-80" font-family="Helvetica,sans-Serif" font-size="10.00" fill="#000000">/IRobotControl.cpp</text>
</a>
</g>
</g>
<!-- Node15&#45;&gt;Node16 -->
<g id="edge1" class="edge">
<title>Node15&#45;&gt;Node16</title>
<path fill="none" stroke="#191970" d="M98.5624,-137.6996C87.0789,-126.0669 74.2366,-113.0578 64.5721,-103.2679"/>
<polygon fill="#191970" stroke="#191970" points="96.3493,-140.4397 105.8654,-145.0974 101.3309,-135.522 96.3493,-140.4397"/>
</g>
<!-- Node17 -->
<g id="node3" class="node">
<title>Node17</title>
<g id="a_node3"><a xlink:href="YarpRobotControl_8h.html" target="_top" xlink:title="RobotInterface/YarpImplementation\l/include/BipedalLocomotion\l/RobotInterface/YarpRobotControl.h">
<polygon fill="none" stroke="#000000" points="117,-67.5 117,-108.5 290,-108.5 290,-67.5 117,-67.5"/>
<text text-anchor="start" x="125" y="-96.5" font-family="Helvetica,sans-Serif" font-size="10.00" fill="#000000">RobotInterface/YarpImplementation</text>
<text text-anchor="start" x="125" y="-85.5" font-family="Helvetica,sans-Serif" font-size="10.00" fill="#000000">/include/BipedalLocomotion</text>
<text text-anchor="middle" x="203.5" y="-74.5" font-family="Helvetica,sans-Serif" font-size="10.00" fill="#000000">/RobotInterface/YarpRobotControl.h</text>
</a>
</g>
</g>
<!-- Node15&#45;&gt;Node17 -->
<g id="edge2" class="edge">
<title>Node15&#45;&gt;Node17</title>
<path fill="none" stroke="#191970" d="M154.1951,-137.9452C163.7298,-128.2866 174.2266,-117.6535 183.0755,-108.6898"/>
<polygon fill="#191970" stroke="#191970" points="151.6691,-135.522 147.1346,-145.0974 156.6507,-140.4397 151.6691,-135.522"/>
</g>
<!-- Node18 -->
<g id="node4" class="node">
<title>Node18</title>
<g id="a_node4"><a xlink:href="YarpRobotControl_8cpp.html" target="_top" xlink:title="RobotInterface/YarpImplementation\l/src/YarpRobotControl.cpp">
<polygon fill="none" stroke="#000000" points="118,-.5 118,-30.5 289,-30.5 289,-.5 118,-.5"/>
<text text-anchor="start" x="126" y="-18.5" font-family="Helvetica,sans-Serif" font-size="10.00" fill="#000000">RobotInterface/YarpImplementation</text>
<text text-anchor="middle" x="203.5" y="-7.5" font-family="Helvetica,sans-Serif" font-size="10.00" fill="#000000">/src/YarpRobotControl.cpp</text>
</a>
</g>
</g>
<!-- Node17&#45;&gt;Node18 -->
<g id="edge3" class="edge">
<title>Node17&#45;&gt;Node18</title>
<path fill="none" stroke="#191970" d="M203.5,-57.3279C203.5,-48.0871 203.5,-38.3508 203.5,-30.5991"/>
<polygon fill="#191970" stroke="#191970" points="200.0001,-57.4183 203.5,-67.4183 207.0001,-57.4184 200.0001,-57.4183"/>
</g>
</g>
</svg>
