<?xml version="1.0" encoding="UTF-8" standalone="no"?>
<!DOCTYPE svg PUBLIC "-//W3C//DTD SVG 1.1//EN"
 "http://www.w3.org/Graphics/SVG/1.1/DTD/svg11.dtd">
<!-- Generated by graphviz version 2.40.1 (20161225.0304)
 -->
<!-- Title: RobotInterface/include/BipedalLocomotion/RobotInterface/ISensorBridge.h Pages: 1 -->
<svg width="624pt" height="307pt"
 viewBox="0.00 0.00 623.54 307.00" xmlns="http://www.w3.org/2000/svg" xmlns:xlink="http://www.w3.org/1999/xlink">
<g id="graph0" class="graph" transform="scale(1 1) rotate(0) translate(4 303)">
<title>RobotInterface/include/BipedalLocomotion/RobotInterface/ISensorBridge.h</title>
<!-- Node0 -->
<g id="node1" class="node">
<title>Node0</title>
<polygon fill="#bfbfbf" stroke="#000000" points="270.5,-257.5 270.5,-298.5 440.5,-298.5 440.5,-257.5 270.5,-257.5"/>
<text text-anchor="start" x="278.5" y="-286.5" font-family="Helvetica,sans-Serif" font-size="10.00" fill="#000000">RobotInterface/include</text>
<text text-anchor="start" x="278.5" y="-275.5" font-family="Helvetica,sans-Serif" font-size="10.00" fill="#000000">/BipedalLocomotion/RobotInterface</text>
<text text-anchor="middle" x="355.5" y="-264.5" font-family="Helvetica,sans-Serif" font-size="10.00" fill="#000000">/ISensorBridge.h</text>
</g>
<!-- Node1 -->
<g id="node2" class="node">
<title>Node1</title>
<polygon fill="none" stroke="#bfbfbf" points="0,-62 0,-81 59,-81 59,-62 0,-62"/>
<text text-anchor="middle" x="29.5" y="-69" font-family="Helvetica,sans-Serif" font-size="10.00" fill="#000000">functional</text>
</g>
<!-- Node0&#45;&gt;Node1 -->
<g id="edge1" class="edge">
<title>Node0&#45;&gt;Node1</title>
<path fill="none" stroke="#191970" d="M270.2653,-263.9626C214.2189,-253.4461 147.0411,-237.992 123.5,-221 77.0435,-187.4677 48.3218,-123.227 36.1981,-90.9793"/>
<polygon fill="#191970" stroke="#191970" points="39.4121,-89.575 32.7212,-81.3602 32.829,-91.9545 39.4121,-89.575"/>
</g>
<!-- Node2 -->
<g id="node3" class="node">
<title>Node2</title>
<polygon fill="none" stroke="#bfbfbf" points="511.5,-62 511.5,-81 563.5,-81 563.5,-62 511.5,-62"/>
<text text-anchor="middle" x="537.5" y="-69" font-family="Helvetica,sans-Serif" font-size="10.00" fill="#000000">memory</text>
</g>
<!-- Node0&#45;&gt;Node2 -->
<g id="edge2" class="edge">
<title>Node0&#45;&gt;Node2</title>
<path fill="none" stroke="#191970" d="M440.7853,-269.7456C504.56,-261.6032 584.1162,-246.5772 604.5,-221 638.0207,-178.9388 585.4612,-117.443 555.7021,-88.1749"/>
<polygon fill="#191970" stroke="#191970" points="557.9929,-85.5227 548.3481,-81.1375 553.1532,-90.5801 557.9929,-85.5227"/>
</g>
<!-- Node3 -->
<g id="node4" class="node">
<title>Node3</title>
<polygon fill="none" stroke="#bfbfbf" points="143.5,-196 143.5,-215 193.5,-215 193.5,-196 143.5,-196"/>
<text text-anchor="middle" x="168.5" y="-203" font-family="Helvetica,sans-Serif" font-size="10.00" fill="#000000">optional</text>
</g>
<!-- Node0&#45;&gt;Node3 -->
<g id="edge3" class="edge">
<title>Node0&#45;&gt;Node3</title>
<path fill="none" stroke="#191970" d="M297.3627,-257.4439C268.6265,-247.0042 233.5398,-233.8381 202.5,-221 201.1137,-220.4266 199.7005,-219.8304 198.2764,-219.22"/>
<polygon fill="#191970" stroke="#191970" points="199.4552,-215.9147 188.8932,-215.0813 196.6302,-222.3193 199.4552,-215.9147"/>
</g>
<!-- Node4 -->
<g id="node5" class="node">
<title>Node4</title>
<polygon fill="none" stroke="#bfbfbf" points="128,-129 128,-148 169,-148 169,-129 128,-129"/>
<text text-anchor="middle" x="148.5" y="-136" font-family="Helvetica,sans-Serif" font-size="10.00" fill="#000000">string</text>
</g>
<!-- Node0&#45;&gt;Node4 -->
<g id="edge4" class="edge">
<title>Node0&#45;&gt;Node4</title>
<path fill="none" stroke="#191970" d="M270.3683,-266.9039C215.5302,-257.8099 151.4273,-242.8471 134.5,-221 120.3107,-202.6867 129.2316,-175.1761 137.9769,-157.0328"/>
<polygon fill="#191970" stroke="#191970" points="141.1486,-158.52 142.6694,-148.0349 134.9419,-155.2832 141.1486,-158.52"/>
</g>
<!-- Node5 -->
<g id="node6" class="node">
<title>Node5</title>
<polygon fill="none" stroke="#bfbfbf" points="382,-196 382,-215 465,-215 465,-196 382,-196"/>
<text text-anchor="middle" x="423.5" y="-203" font-family="Helvetica,sans-Serif" font-size="10.00" fill="#000000">unordered_map</text>
</g>
<!-- Node0&#45;&gt;Node5 -->
<g id="edge5" class="edge">
<title>Node0&#45;&gt;Node5</title>
<path fill="none" stroke="#191970" d="M374.8042,-257.4183C385.1923,-246.3428 397.8468,-232.8509 407.6518,-222.397"/>
<polygon fill="#191970" stroke="#191970" points="410.2213,-224.7736 414.5096,-215.0853 405.1156,-219.9848 410.2213,-224.7736"/>
</g>
<!-- Node6 -->
<g id="node7" class="node">
<title>Node6</title>
<polygon fill="none" stroke="#bfbfbf" points="460.5,-129 460.5,-148 504.5,-148 504.5,-129 460.5,-129"/>
<text text-anchor="middle" x="482.5" y="-136" font-family="Helvetica,sans-Serif" font-size="10.00" fill="#000000">vector</text>
</g>
<!-- Node0&#45;&gt;Node6 -->
<g id="edge6" class="edge">
<title>Node0&#45;&gt;Node6</title>
<path fill="none" stroke="#191970" d="M427.9856,-257.4796C445.8739,-249.009 463.1425,-237.2369 474.5,-221 487.3413,-202.6418 487.5224,-176.1001 485.6927,-158.1183"/>
<polygon fill="#191970" stroke="#191970" points="489.1597,-157.6378 484.3888,-148.178 482.2192,-158.5483 489.1597,-157.6378"/>
</g>
<!-- Node7 -->
<g id="node8" class="node">
<title>Node7</title>
<polygon fill="none" stroke="#bfbfbf" points="522,-196 522,-215 595,-215 595,-196 522,-196"/>
<text text-anchor="middle" x="558.5" y="-203" font-family="Helvetica,sans-Serif" font-size="10.00" fill="#000000">Eigen/Dense</text>
</g>
<!-- Node0&#45;&gt;Node7 -->
<g id="edge7" class="edge">
<title>Node0&#45;&gt;Node7</title>
<path fill="none" stroke="#191970" d="M413.1287,-257.4183C448.0926,-244.9312 491.657,-229.3725 521.9341,-218.5592"/>
<polygon fill="#191970" stroke="#191970" points="523.4208,-221.7449 531.661,-215.0853 521.0664,-215.1527 523.4208,-221.7449"/>
</g>
<!-- Node8 -->
<g id="node9" class="node">
<title>Node8</title>
<g id="a_node9"><a xlink:href="IParametersHandler_8h.html" target="_top" xlink:title="BipedalLocomotion/Parameters\lHandler/IParametersHandler.h">
<polygon fill="none" stroke="#000000" points="211.5,-190.5 211.5,-220.5 363.5,-220.5 363.5,-190.5 211.5,-190.5"/>
<text text-anchor="start" x="219.5" y="-208.5" font-family="Helvetica,sans-Serif" font-size="10.00" fill="#000000">BipedalLocomotion/Parameters</text>
<text text-anchor="middle" x="287.5" y="-197.5" font-family="Helvetica,sans-Serif" font-size="10.00" fill="#000000">Handler/IParametersHandler.h</text>
</a>
</g>
</g>
<!-- Node0&#45;&gt;Node8 -->
<g id="edge8" class="edge">
<title>Node0&#45;&gt;Node8</title>
<path fill="none" stroke="#191970" d="M336.1958,-257.4183C327.6066,-248.2607 317.4679,-237.451 308.6716,-228.0726"/>
<polygon fill="#191970" stroke="#191970" points="311.0559,-225.4985 301.6619,-220.5991 305.9502,-230.2873 311.0559,-225.4985"/>
</g>
<!-- Node8&#45;&gt;Node2 -->
<g id="edge9" class="edge">
<title>Node8&#45;&gt;Node2</title>
<path fill="none" stroke="#191970" d="M318.7981,-190.334C339.3152,-180.2737 366.6545,-166.6434 390.5,-154 433.6618,-131.1146 483.0398,-102.9955 512.174,-86.1995"/>
<polygon fill="#191970" stroke="#191970" points="513.9802,-89.1981 520.8883,-81.1651 510.4785,-83.1369 513.9802,-89.1981"/>
</g>
<!-- Node8&#45;&gt;Node4 -->
<g id="edge10" class="edge">
<title>Node8&#45;&gt;Node4</title>
<path fill="none" stroke="#191970" d="M256.3057,-190.4639C232.7732,-179.1209 200.7198,-163.6707 177.6906,-152.5703"/>
<polygon fill="#191970" stroke="#191970" points="178.9524,-149.2932 168.4246,-148.1039 175.913,-155.5989 178.9524,-149.2932"/>
</g>
<!-- Node8&#45;&gt;Node6 -->
<g id="edge11" class="edge">
<title>Node8&#45;&gt;Node6</title>
<path fill="none" stroke="#191970" d="M335.5463,-190.4533C366.5221,-180.5523 407.5803,-167.0539 443.5,-154 445.8967,-153.129 448.3671,-152.2064 450.8462,-151.2627"/>
<polygon fill="#191970" stroke="#191970" points="452.2612,-154.4678 460.3134,-147.582 449.7247,-147.9435 452.2612,-154.4678"/>
</g>
<!-- Node9 -->
<g id="node10" class="node">
<title>Node9</title>
<g id="a_node10"><a xlink:href="Vector_8h_source.html" target="_top" xlink:title="BipedalLocomotion/Generic\lContainer/Vector.h">
<polygon fill="none" stroke="#000000" points="219.5,-123.5 219.5,-153.5 355.5,-153.5 355.5,-123.5 219.5,-123.5"/>
<text text-anchor="start" x="227.5" y="-141.5" font-family="Helvetica,sans-Serif" font-size="10.00" fill="#000000">BipedalLocomotion/Generic</text>
<text text-anchor="middle" x="287.5" y="-130.5" font-family="Helvetica,sans-Serif" font-size="10.00" fill="#000000">Container/Vector.h</text>
</a>
</g>
</g>
<!-- Node8&#45;&gt;Node9 -->
<g id="edge12" class="edge">
<title>Node8&#45;&gt;Node9</title>
<path fill="none" stroke="#191970" d="M287.5,-190.2967C287.5,-182.5013 287.5,-172.7991 287.5,-163.9064"/>
<polygon fill="#191970" stroke="#191970" points="291.0001,-163.6431 287.5,-153.6432 284.0001,-163.6432 291.0001,-163.6431"/>
</g>
<!-- Node11 -->
<g id="node12" class="node">
<title>Node11</title>
<g id="a_node12"><a xlink:href="TemplateHelpers_8h_source.html" target="_top" xlink:title="BipedalLocomotion/Generic\lContainer/TemplateHelpers.h">
<polygon fill="none" stroke="#000000" points="349.5,-56.5 349.5,-86.5 493.5,-86.5 493.5,-56.5 349.5,-56.5"/>
<text text-anchor="start" x="357.5" y="-74.5" font-family="Helvetica,sans-Serif" font-size="10.00" fill="#000000">BipedalLocomotion/Generic</text>
<text text-anchor="middle" x="421.5" y="-63.5" font-family="Helvetica,sans-Serif" font-size="10.00" fill="#000000">Container/TemplateHelpers.h</text>
</a>
</g>
</g>
<!-- Node8&#45;&gt;Node11 -->
<g id="edge22" class="edge">
<title>Node8&#45;&gt;Node11</title>
<path fill="none" stroke="#191970" d="M315.3667,-190.3666C330.8848,-181.1196 349.9489,-168.333 364.5,-154 382.0807,-136.6828 397.6681,-113.2489 408.0795,-95.7814"/>
<polygon fill="#191970" stroke="#191970" points="411.3182,-97.1736 413.3108,-86.7678 405.264,-93.6598 411.3182,-97.1736"/>
</g>
<!-- Node9&#45;&gt;Node1 -->
<g id="edge18" class="edge">
<title>Node9&#45;&gt;Node1</title>
<path fill="none" stroke="#191970" d="M219.2224,-125.1519C175.6605,-115.9727 118.2417,-102.6395 68.5,-87 66.2128,-86.2809 63.8693,-85.4905 61.5216,-84.6592"/>
<polygon fill="#191970" stroke="#191970" points="62.5739,-81.3159 51.9815,-81.0878 60.1197,-87.8716 62.5739,-81.3159"/>
</g>
<!-- Node9&#45;&gt;Node2 -->
<g id="edge21" class="edge">
<title>Node9&#45;&gt;Node2</title>
<path fill="none" stroke="#191970" d="M355.6959,-125.479C398.4201,-116.5108 454.3221,-103.2872 502.5,-87 504.3415,-86.3775 506.219,-85.6949 508.1004,-84.974"/>
<polygon fill="#191970" stroke="#191970" points="509.4735,-88.1938 517.3898,-81.1523 506.8102,-81.7202 509.4735,-88.1938"/>
</g>
<!-- Node10 -->
<g id="node11" class="node">
<title>Node10</title>
<polygon fill="none" stroke="#bfbfbf" points="149.5,-62 149.5,-81 263.5,-81 263.5,-62 149.5,-62"/>
<text text-anchor="middle" x="206.5" y="-69" font-family="Helvetica,sans-Serif" font-size="10.00" fill="#000000">iDynTree/Core/Span.h</text>
</g>
<!-- Node9&#45;&gt;Node10 -->
<g id="edge13" class="edge">
<title>Node9&#45;&gt;Node10</title>
<path fill="none" stroke="#191970" d="M269.1198,-123.2967C256.2546,-112.6551 239.0937,-98.4602 225.9904,-87.6217"/>
<polygon fill="#191970" stroke="#191970" points="227.9879,-84.7318 218.0515,-81.055 223.5263,-90.1257 227.9879,-84.7318"/>
</g>
<!-- Node9&#45;&gt;Node11 -->
<g id="edge14" class="edge">
<title>Node9&#45;&gt;Node11</title>
<path fill="none" stroke="#191970" d="M317.5722,-123.4639C336.5761,-113.9619 361.3442,-101.5779 381.9341,-91.283"/>
<polygon fill="#191970" stroke="#191970" points="383.6855,-94.3204 391.0645,-86.7177 380.555,-88.0594 383.6855,-94.3204"/>
</g>
<!-- Node15 -->
<g id="node16" class="node">
<title>Node15</title>
<polygon fill="none" stroke="#bfbfbf" points="282,-62 282,-81 331,-81 331,-62 282,-62"/>
<text text-anchor="middle" x="306.5" y="-69" font-family="Helvetica,sans-Serif" font-size="10.00" fill="#000000">cassert</text>
</g>
<!-- Node9&#45;&gt;Node15 -->
<g id="edge19" class="edge">
<title>Node9&#45;&gt;Node15</title>
<path fill="none" stroke="#191970" d="M291.8114,-123.2967C294.5418,-113.6685 298.097,-101.1318 301.0258,-90.8038"/>
<polygon fill="#191970" stroke="#191970" points="304.4293,-91.6305 303.7904,-81.055 297.6948,-89.7207 304.4293,-91.6305"/>
</g>
<!-- Node16 -->
<g id="node17" class="node">
<title>Node16</title>
<polygon fill="none" stroke="#bfbfbf" points="77.5,-62 77.5,-81 131.5,-81 131.5,-62 77.5,-62"/>
<text text-anchor="middle" x="104.5" y="-69" font-family="Helvetica,sans-Serif" font-size="10.00" fill="#000000">iostream</text>
</g>
<!-- Node9&#45;&gt;Node16 -->
<g id="edge20" class="edge">
<title>Node9&#45;&gt;Node16</title>
<path fill="none" stroke="#191970" d="M241.839,-123.4172C212.6653,-113.5559 174.1345,-100.1142 140.5,-87 138.8873,-86.3712 137.2397,-85.7143 135.5799,-85.0412"/>
<polygon fill="#191970" stroke="#191970" points="136.678,-81.707 126.1012,-81.0897 133.9845,-88.1681 136.678,-81.707"/>
</g>
<!-- Node12 -->
<g id="node13" class="node">
<title>Node12</title>
<polygon fill="none" stroke="#bfbfbf" points="308.5,-.5 308.5,-19.5 370.5,-19.5 370.5,-.5 308.5,-.5"/>
<text text-anchor="middle" x="339.5" y="-7.5" font-family="Helvetica,sans-Serif" font-size="10.00" fill="#000000">type_traits</text>
</g>
<!-- Node11&#45;&gt;Node12 -->
<g id="edge15" class="edge">
<title>Node11&#45;&gt;Node12</title>
<path fill="none" stroke="#191970" d="M401.2303,-56.2977C388.8994,-47.0495 373.1734,-35.2551 360.6803,-25.8853"/>
<polygon fill="#191970" stroke="#191970" points="362.7293,-23.047 352.6292,-19.8469 358.5292,-28.647 362.7293,-23.047"/>
</g>
<!-- Node13 -->
<g id="node14" class="node">
<title>Node13</title>
<polygon fill="none" stroke="#bfbfbf" points="388.5,-.5 388.5,-19.5 454.5,-19.5 454.5,-.5 388.5,-.5"/>
<text text-anchor="middle" x="421.5" y="-7.5" font-family="Helvetica,sans-Serif" font-size="10.00" fill="#000000">string_view</text>
</g>
<!-- Node11&#45;&gt;Node13 -->
<g id="edge16" class="edge">
<title>Node11&#45;&gt;Node13</title>
<path fill="none" stroke="#191970" d="M421.5,-56.2977C421.5,-48.3834 421.5,-38.6043 421.5,-30.0759"/>
<polygon fill="#191970" stroke="#191970" points="425.0001,-29.8469 421.5,-19.8469 418.0001,-29.847 425.0001,-29.8469"/>
</g>
<!-- Node14 -->
<g id="node15" class="node">
<title>Node14</title>
<polygon fill="none" stroke="#bfbfbf" points="473,-.5 473,-19.5 538,-19.5 538,-.5 473,-.5"/>
<text text-anchor="middle" x="505.5" y="-7.5" font-family="Helvetica,sans-Serif" font-size="10.00" fill="#000000">Eigen/Core</text>
</g>
<!-- Node11&#45;&gt;Node14 -->
<g id="edge17" class="edge">
<title>Node11&#45;&gt;Node14</title>
<path fill="none" stroke="#191970" d="M442.2641,-56.2977C454.8958,-47.0495 471.0053,-35.2551 483.8031,-25.8853"/>
<polygon fill="#191970" stroke="#191970" points="486.0495,-28.5784 492.0505,-19.8469 481.9143,-22.9303 486.0495,-28.5784"/>
</g>
</g>
</svg>
