<?xml version="1.0" encoding="UTF-8" standalone="no"?>
<!DOCTYPE svg PUBLIC "-//W3C//DTD SVG 1.1//EN"
 "http://www.w3.org/Graphics/SVG/1.1/DTD/svg11.dtd">
<!-- Generated by graphviz version 2.40.1 (20161225.0304)
 -->
<!-- Title: RobotInterface/include/BipedalLocomotion/RobotInterface/ISensorBridge.h Pages: 1 -->
<svg width="201pt" height="273pt"
 viewBox="0.00 0.00 201.00 273.00" xmlns="http://www.w3.org/2000/svg" xmlns:xlink="http://www.w3.org/1999/xlink">
<g id="graph0" class="graph" transform="scale(1 1) rotate(0) translate(4 269)">
<title>RobotInterface/include/BipedalLocomotion/RobotInterface/ISensorBridge.h</title>
<!-- Node17 -->
<g id="node1" class="node">
<title>Node17</title>
<polygon fill="#bfbfbf" stroke="#000000" points="11.5,-223.5 11.5,-264.5 181.5,-264.5 181.5,-223.5 11.5,-223.5"/>
<text text-anchor="start" x="19.5" y="-252.5" font-family="Helvetica,sans-Serif" font-size="10.00" fill="#000000">RobotInterface/include</text>
<text text-anchor="start" x="19.5" y="-241.5" font-family="Helvetica,sans-Serif" font-size="10.00" fill="#000000">/BipedalLocomotion/RobotInterface</text>
<text text-anchor="middle" x="96.5" y="-230.5" font-family="Helvetica,sans-Serif" font-size="10.00" fill="#000000">/ISensorBridge.h</text>
</g>
<!-- Node18 -->
<g id="node2" class="node">
<title>Node18</title>
<g id="a_node2"><a xlink:href="YarpSensorBridge_8h.html" target="_top" xlink:title="RobotInterface/YarpImplementation\l/include/BipedalLocomotion\l/RobotInterface/YarpSensorBridge.h">
<polygon fill="none" stroke="#000000" points="9.5,-145.5 9.5,-186.5 183.5,-186.5 183.5,-145.5 9.5,-145.5"/>
<text text-anchor="start" x="17.5" y="-174.5" font-family="Helvetica,sans-Serif" font-size="10.00" fill="#000000">RobotInterface/YarpImplementation</text>
<text text-anchor="start" x="17.5" y="-163.5" font-family="Helvetica,sans-Serif" font-size="10.00" fill="#000000">/include/BipedalLocomotion</text>
<text text-anchor="middle" x="96.5" y="-152.5" font-family="Helvetica,sans-Serif" font-size="10.00" fill="#000000">/RobotInterface/YarpSensorBridge.h</text>
</a>
</g>
</g>
<!-- Node17&#45;&gt;Node18 -->
<g id="edge1" class="edge">
<title>Node17&#45;&gt;Node18</title>
<path fill="none" stroke="#191970" d="M96.5,-213.0789C96.5,-204.2178 96.5,-194.7747 96.5,-186.6898"/>
<polygon fill="#191970" stroke="#191970" points="93.0001,-213.0974 96.5,-223.0974 100.0001,-213.0975 93.0001,-213.0974"/>
</g>
<!-- Node19 -->
<g id="node3" class="node">
<title>Node19</title>
<g id="a_node3"><a xlink:href="YarpSensorBridgeImpl_8h.html" target="_top" xlink:title="RobotInterface/YarpImplementation\l/include/BipedalLocomotion\l/RobotInterface/YarpSensorBridgeImpl.h">
<polygon fill="none" stroke="#000000" points="0,-67.5 0,-108.5 193,-108.5 193,-67.5 0,-67.5"/>
<text text-anchor="start" x="8" y="-96.5" font-family="Helvetica,sans-Serif" font-size="10.00" fill="#000000">RobotInterface/YarpImplementation</text>
<text text-anchor="start" x="8" y="-85.5" font-family="Helvetica,sans-Serif" font-size="10.00" fill="#000000">/include/BipedalLocomotion</text>
<text text-anchor="middle" x="96.5" y="-74.5" font-family="Helvetica,sans-Serif" font-size="10.00" fill="#000000">/RobotInterface/YarpSensorBridgeImpl.h</text>
</a>
</g>
</g>
<!-- Node18&#45;&gt;Node19 -->
<g id="edge2" class="edge">
<title>Node18&#45;&gt;Node19</title>
<path fill="none" stroke="#191970" d="M96.5,-135.0789C96.5,-126.2178 96.5,-116.7747 96.5,-108.6898"/>
<polygon fill="#191970" stroke="#191970" points="93.0001,-135.0974 96.5,-145.0974 100.0001,-135.0975 93.0001,-135.0974"/>
</g>
<!-- Node20 -->
<g id="node4" class="node">
<title>Node20</title>
<g id="a_node4"><a xlink:href="YarpSensorBridge_8cpp.html" target="_top" xlink:title="RobotInterface/YarpImplementation\l/src/YarpSensorBridge.cpp">
<polygon fill="none" stroke="#000000" points="11,-.5 11,-30.5 182,-30.5 182,-.5 11,-.5"/>
<text text-anchor="start" x="19" y="-18.5" font-family="Helvetica,sans-Serif" font-size="10.00" fill="#000000">RobotInterface/YarpImplementation</text>
<text text-anchor="middle" x="96.5" y="-7.5" font-family="Helvetica,sans-Serif" font-size="10.00" fill="#000000">/src/YarpSensorBridge.cpp</text>
</a>
</g>
</g>
<!-- Node19&#45;&gt;Node20 -->
<g id="edge3" class="edge">
<title>Node19&#45;&gt;Node20</title>
<path fill="none" stroke="#191970" d="M96.5,-57.3279C96.5,-48.0871 96.5,-38.3508 96.5,-30.5991"/>
<polygon fill="#191970" stroke="#191970" points="93.0001,-57.4183 96.5,-67.4183 100.0001,-57.4184 93.0001,-57.4183"/>
</g>
</g>
</svg>
