<?xml version="1.0" encoding="UTF-8" standalone="no"?>
<!DOCTYPE svg PUBLIC "-//W3C//DTD SVG 1.1//EN"
 "http://www.w3.org/Graphics/SVG/1.1/DTD/svg11.dtd">
<!-- Generated by graphviz version 2.40.1 (20161225.0304)
 -->
<!-- Title: Estimators/src/LeggedOdometry.cpp Pages: 1 -->
<!--zoomable 430 -->
<svg id="main" version="1.1" xmlns="http://www.w3.org/2000/svg" xmlns:xlink="http://www.w3.org/1999/xlink" xml:space="preserve" onload="init(evt)">
<style type="text/css"><![CDATA[
.edge:hover path { stroke: red; }
.edge:hover polygon { stroke: red; fill: red; }
]]></style>
<script type="text/javascript"><![CDATA[
var edges = document.getElementsByTagName('g');
if (edges && edges.length) {
  for (var i=0;i<edges.length;i++) {
    if (edges[i].id.substr(0,4)=='edge') {
      edges[i].setAttribute('class','edge');
    }
  }
}
]]></script>
        <defs>
                <circle id="rim" cx="0" cy="0" r="7"/>
                <circle id="rim2" cx="0" cy="0" r="3.5"/>
                <g id="zoomPlus">
                        <use xlink:href="#rim" fill="#404040">
                                <set attributeName="fill" to="#808080" begin="zoomplus.mouseover" end="zoomplus.mouseout"/>
                        </use>
                        <path d="M-4,0h8M0,-4v8" fill="none" stroke="white" stroke-width="1.5" pointer-events="none"/>
                </g>
                <g id="zoomMin">
                        <use xlink:href="#rim" fill="#404040">
                                <set attributeName="fill" to="#808080" begin="zoomminus.mouseover" end="zoomminus.mouseout"/>
                        </use>
                        <path d="M-4,0h8" fill="none" stroke="white" stroke-width="1.5" pointer-events="none"/>
                </g>
                <g id="dirArrow">
                        <path fill="none" stroke="white" stroke-width="1.5" d="M0,-3.0v7 M-2.5,-0.5L0,-3.0L2.5,-0.5"/>
                </g>
               <g id="resetDef">
                       <use xlink:href="#rim2" fill="#404040">
                               <set attributeName="fill" to="#808080" begin="reset.mouseover" end="reset.mouseout"/>
                       </use>
               </g>
        </defs>

<script type="text/javascript">
var viewWidth = 1468;
var viewHeight = 430;
var sectionId = 'dynsection-0';
</script>
<script xlink:href="svgpan.js"/>
<svg id="graph" class="graph">
<g id="viewport">
<title>Estimators/src/LeggedOdometry.cpp</title>
<!-- Node0 -->
<g id="node1" class="node">
<title>Node0</title>
<polygon fill="#bfbfbf" stroke="#000000" points="1113,-402.5 1113,-421.5 1289,-421.5 1289,-402.5 1113,-402.5"/>
<text text-anchor="middle" x="1201" y="-409.5" font-family="Helvetica,sans-Serif" font-size="10.00" fill="#000000">Estimators/src/LeggedOdometry.cpp</text>
</g>
<!-- Node1 -->
<g id="node2" class="node">
<title>Node1</title>
<g id="a_node2"><a xlink:href="LeggedOdometry_8h.html" target="_top" xlink:title="BipedalLocomotion/Floating\lBaseEstimators/LeggedOdometry.h">
<polygon fill="none" stroke="#000000" points="675,-335.5 675,-365.5 847,-365.5 847,-335.5 675,-335.5"/>
<text text-anchor="start" x="683" y="-353.5" font-family="Helvetica,sans-Serif" font-size="10.00" fill="#000000">BipedalLocomotion/Floating</text>
<text text-anchor="middle" x="761" y="-342.5" font-family="Helvetica,sans-Serif" font-size="10.00" fill="#000000">BaseEstimators/LeggedOdometry.h</text>
</a>
</g>
</g>
<!-- Node0&#45;&gt;Node1 -->
<g id="edge1" class="edge">
<title>Node0&#45;&gt;Node1</title>
<path fill="none" stroke="#191970" d="M1132.7328,-402.4581C1058.8556,-392.1321 940.4704,-375.5851 857.187,-363.9443"/>
<polygon fill="#191970" stroke="#191970" points="857.598,-360.4678 847.2098,-362.5498 856.629,-367.4004 857.598,-360.4678"/>
</g>
<!-- Node20 -->
<g id="node21" class="node">
<title>Node20</title>
<polygon fill="none" stroke="#bfbfbf" points="1043,-129 1043,-148 1119,-148 1119,-129 1043,-129"/>
<text text-anchor="middle" x="1081" y="-136" font-family="Helvetica,sans-Serif" font-size="10.00" fill="#000000">manif/manif.h</text>
</g>
<!-- Node0&#45;&gt;Node20 -->
<g id="edge37" class="edge">
<title>Node0&#45;&gt;Node20</title>
<path fill="none" stroke="#191970" d="M1166.0992,-402.3579C1147.3779,-395.3501 1125.6217,-383.8893 1113,-366 1067.5045,-301.5172 1073.2195,-200.8119 1078.162,-158.3951"/>
<polygon fill="#191970" stroke="#191970" points="1081.6598,-158.6354 1079.4619,-148.271 1074.7168,-157.7438 1081.6598,-158.6354"/>
</g>
<!-- Node25 -->
<g id="node26" class="node">
<title>Node25</title>
<g id="a_node26"><a xlink:href="ManifConversions_8h.html" target="_top" xlink:title="BipedalLocomotion/Conversions\l/ManifConversions.h">
<polygon fill="none" stroke="#000000" points="1122.5,-335.5 1122.5,-365.5 1279.5,-365.5 1279.5,-335.5 1122.5,-335.5"/>
<text text-anchor="start" x="1130.5" y="-353.5" font-family="Helvetica,sans-Serif" font-size="10.00" fill="#000000">BipedalLocomotion/Conversions</text>
<text text-anchor="middle" x="1201" y="-342.5" font-family="Helvetica,sans-Serif" font-size="10.00" fill="#000000">/ManifConversions.h</text>
</a>
</g>
</g>
<!-- Node0&#45;&gt;Node25 -->
<g id="edge31" class="edge">
<title>Node0&#45;&gt;Node25</title>
<path fill="none" stroke="#191970" d="M1201,-402.3906C1201,-395.2234 1201,-385.0862 1201,-375.671"/>
<polygon fill="#191970" stroke="#191970" points="1204.5001,-375.5446 1201,-365.5446 1197.5001,-375.5446 1204.5001,-375.5446"/>
</g>
<!-- Node27 -->
<g id="node28" class="node">
<title>Node27</title>
<polygon fill="none" stroke="#bfbfbf" points="1301,-274 1301,-293 1451,-293 1451,-274 1301,-274"/>
<text text-anchor="middle" x="1376" y="-281" font-family="Helvetica,sans-Serif" font-size="10.00" fill="#000000">iDynTree/Core/EigenHelpers.h</text>
</g>
<!-- Node0&#45;&gt;Node27 -->
<g id="edge35" class="edge">
<title>Node0&#45;&gt;Node27</title>
<path fill="none" stroke="#191970" d="M1223.3146,-402.4341C1241.7166,-394.0636 1268.0983,-380.9301 1289,-366 1316.3656,-346.4527 1343.8415,-318.7191 1360.389,-300.9175"/>
<polygon fill="#191970" stroke="#191970" points="1363.4153,-302.7951 1367.5861,-293.0558 1358.2521,-298.0684 1363.4153,-302.7951"/>
</g>
<!-- Node28 -->
<g id="node29" class="node">
<title>Node28</title>
<polygon fill="none" stroke="#bfbfbf" points="1336.5,-341 1336.5,-360 1459.5,-360 1459.5,-341 1336.5,-341"/>
<text text-anchor="middle" x="1398" y="-348" font-family="Helvetica,sans-Serif" font-size="10.00" fill="#000000">iDynTree/Model/Model.h</text>
</g>
<!-- Node0&#45;&gt;Node28 -->
<g id="edge36" class="edge">
<title>Node0&#45;&gt;Node28</title>
<path fill="none" stroke="#191970" d="M1231.7813,-402.3906C1265.7549,-391.7846 1320.5604,-374.6753 1357.8772,-363.0257"/>
<polygon fill="#191970" stroke="#191970" points="1358.9323,-366.3629 1367.4349,-360.0419 1356.8462,-359.681 1358.9323,-366.3629"/>
</g>
<!-- Node2 -->
<g id="node3" class="node">
<title>Node2</title>
<g id="a_node3"><a xlink:href="FloatingBaseEstimator_8h.html" target="_top" xlink:title="BipedalLocomotion/Floating\lBaseEstimators/FloatingBaseEstimator.h">
<polygon fill="none" stroke="#000000" points="394.5,-268.5 394.5,-298.5 591.5,-298.5 591.5,-268.5 394.5,-268.5"/>
<text text-anchor="start" x="402.5" y="-286.5" font-family="Helvetica,sans-Serif" font-size="10.00" fill="#000000">BipedalLocomotion/Floating</text>
<text text-anchor="middle" x="493" y="-275.5" font-family="Helvetica,sans-Serif" font-size="10.00" fill="#000000">BaseEstimators/FloatingBaseEstimator.h</text>
</a>
</g>
</g>
<!-- Node1&#45;&gt;Node2 -->
<g id="edge2" class="edge">
<title>Node1&#45;&gt;Node2</title>
<path fill="none" stroke="#191970" d="M700.8556,-335.4639C660.0509,-325.2627 605.9587,-311.7397 563.1847,-301.0462"/>
<polygon fill="#191970" stroke="#191970" points="563.9571,-297.6316 553.4068,-298.6017 562.2593,-304.4226 563.9571,-297.6316"/>
</g>
<!-- Node3 -->
<g id="node4" class="node">
<title>Node3</title>
<g id="a_node4"><a xlink:href="Advanceable_8h.html" target="_top" xlink:title="BipedalLocomotion/System\l/Advanceable.h">
<polygon fill="none" stroke="#000000" points="0,-196 0,-226 136,-226 136,-196 0,-196"/>
<text text-anchor="start" x="8" y="-214" font-family="Helvetica,sans-Serif" font-size="10.00" fill="#000000">BipedalLocomotion/System</text>
<text text-anchor="middle" x="68" y="-203" font-family="Helvetica,sans-Serif" font-size="10.00" fill="#000000">/Advanceable.h</text>
</a>
</g>
</g>
<!-- Node2&#45;&gt;Node3 -->
<g id="edge3" class="edge">
<title>Node2&#45;&gt;Node3</title>
<path fill="none" stroke="#191970" d="M394.2142,-271.3762C325.4292,-262.274 231.739,-248.5583 150,-232 144.5989,-230.9059 139.0206,-229.6817 133.4329,-228.389"/>
<polygon fill="#191970" stroke="#191970" points="133.9399,-224.912 123.4013,-226.0015 132.3192,-231.7218 133.9399,-224.912"/>
</g>
<!-- Node4 -->
<g id="node5" class="node">
<title>Node4</title>
<g id="a_node5"><a xlink:href="IParametersHandler_8h.html" target="_top" xlink:title="BipedalLocomotion/Parameters\lHandler/IParametersHandler.h">
<polygon fill="none" stroke="#000000" points="252,-196 252,-226 404,-226 404,-196 252,-196"/>
<text text-anchor="start" x="260" y="-214" font-family="Helvetica,sans-Serif" font-size="10.00" fill="#000000">BipedalLocomotion/Parameters</text>
<text text-anchor="middle" x="328" y="-203" font-family="Helvetica,sans-Serif" font-size="10.00" fill="#000000">Handler/IParametersHandler.h</text>
</a>
</g>
</g>
<!-- Node2&#45;&gt;Node4 -->
<g id="edge4" class="edge">
<title>Node2&#45;&gt;Node4</title>
<path fill="none" stroke="#191970" d="M458.8119,-268.478C433.4805,-257.3475 398.7665,-242.0944 371.4647,-230.0981"/>
<polygon fill="#191970" stroke="#191970" points="372.7075,-226.8213 362.1443,-226.0028 369.8915,-233.2299 372.7075,-226.8213"/>
</g>
<!-- Node5 -->
<g id="node6" class="node">
<title>Node5</title>
<polygon fill="none" stroke="#bfbfbf" points="47,-62 47,-81 99,-81 99,-62 47,-62"/>
<text text-anchor="middle" x="73" y="-69" font-family="Helvetica,sans-Serif" font-size="10.00" fill="#000000">memory</text>
</g>
<!-- Node2&#45;&gt;Node5 -->
<g id="edge30" class="edge">
<title>Node2&#45;&gt;Node5</title>
<path fill="none" stroke="#191970" d="M394.4012,-268.8446C336.3479,-259.1256 269.2874,-245.6825 243,-232 173.5932,-195.874 112.319,-123.1452 86.2859,-89.4239"/>
<polygon fill="#191970" stroke="#191970" points="89.0061,-87.2187 80.1704,-81.3722 83.4317,-91.4526 89.0061,-87.2187"/>
</g>
<!-- Node16 -->
<g id="node17" class="node">
<title>Node16</title>
<polygon fill="none" stroke="#bfbfbf" points="556,-62 556,-81 610,-81 610,-62 556,-62"/>
<text text-anchor="middle" x="583" y="-69" font-family="Helvetica,sans-Serif" font-size="10.00" fill="#000000">iostream</text>
</g>
<!-- Node2&#45;&gt;Node16 -->
<g id="edge29" class="edge">
<title>Node2&#45;&gt;Node16</title>
<path fill="none" stroke="#191970" d="M475.7153,-268.1841C466.4537,-258.7871 455.9537,-245.9121 451,-232 444.7385,-214.4148 446.2379,-208.049 451,-190 459.7334,-156.899 464.6156,-147.0281 489,-123 498.9603,-113.1853 529.6241,-97.1444 553.2491,-85.5707"/>
<polygon fill="#191970" stroke="#191970" points="555.0672,-88.579 562.5407,-81.0692 552.0152,-82.2794 555.0672,-88.579"/>
</g>
<!-- Node17 -->
<g id="node18" class="node">
<title>Node17</title>
<g id="a_node18"><a xlink:href="FloatingBaseEstimatorParams_8h.html" target="_top" xlink:title="BipedalLocomotion/Floating\lBaseEstimators/FloatingBaseEstimator\lParams.h">
<polygon fill="none" stroke="#000000" points="460,-190.5 460,-231.5 648,-231.5 648,-190.5 460,-190.5"/>
<text text-anchor="start" x="468" y="-219.5" font-family="Helvetica,sans-Serif" font-size="10.00" fill="#000000">BipedalLocomotion/Floating</text>
<text text-anchor="start" x="468" y="-208.5" font-family="Helvetica,sans-Serif" font-size="10.00" fill="#000000">BaseEstimators/FloatingBaseEstimator</text>
<text text-anchor="middle" x="554" y="-197.5" font-family="Helvetica,sans-Serif" font-size="10.00" fill="#000000">Params.h</text>
</a>
</g>
</g>
<!-- Node2&#45;&gt;Node17 -->
<g id="edge19" class="edge">
<title>Node2&#45;&gt;Node17</title>
<path fill="none" stroke="#191970" d="M505.6392,-268.478C512.7435,-260.0344 521.8439,-249.2183 530.23,-239.2513"/>
<polygon fill="#191970" stroke="#191970" points="532.9905,-241.4067 536.7505,-231.5015 527.6342,-236.9 532.9905,-241.4067"/>
</g>
<!-- Node19 -->
<g id="node20" class="node">
<title>Node19</title>
<g id="a_node20"><a xlink:href="FloatingBaseEstimatorIO_8h.html" target="_top" xlink:title="BipedalLocomotion/Floating\lBaseEstimators/FloatingBaseEstimatorIO.h">
<polygon fill="none" stroke="#000000" points="666.5,-196 666.5,-226 873.5,-226 873.5,-196 666.5,-196"/>
<text text-anchor="start" x="674.5" y="-214" font-family="Helvetica,sans-Serif" font-size="10.00" fill="#000000">BipedalLocomotion/Floating</text>
<text text-anchor="middle" x="770" y="-203" font-family="Helvetica,sans-Serif" font-size="10.00" fill="#000000">BaseEstimators/FloatingBaseEstimatorIO.h</text>
</a>
</g>
</g>
<!-- Node2&#45;&gt;Node19 -->
<g id="edge21" class="edge">
<title>Node2&#45;&gt;Node19</title>
<path fill="none" stroke="#191970" d="M550.3946,-268.478C594.7777,-256.8614 656.3178,-240.7544 702.963,-228.5458"/>
<polygon fill="#191970" stroke="#191970" points="703.8911,-231.9209 712.6789,-226.0028 702.1186,-225.149 703.8911,-231.9209"/>
</g>
<!-- Node24 -->
<g id="node25" class="node">
<title>Node24</title>
<polygon fill="none" stroke="#bfbfbf" points="891.5,-201.5 891.5,-220.5 1052.5,-220.5 1052.5,-201.5 891.5,-201.5"/>
<text text-anchor="middle" x="972" y="-208.5" font-family="Helvetica,sans-Serif" font-size="10.00" fill="#000000">iDynTree/KinDynComputations.h</text>
</g>
<!-- Node2&#45;&gt;Node24 -->
<g id="edge28" class="edge">
<title>Node2&#45;&gt;Node24</title>
<path fill="none" stroke="#191970" d="M591.7377,-273.1237C670.6159,-264.1867 783.8184,-249.9095 882,-232 896.0985,-229.4283 911.3152,-226.0946 925.1534,-222.8439"/>
<polygon fill="#191970" stroke="#191970" points="926.0374,-226.2313 934.9505,-220.5036 924.4109,-219.4229 926.0374,-226.2313"/>
</g>
<!-- Node4&#45;&gt;Node5 -->
<g id="edge5" class="edge">
<title>Node4&#45;&gt;Node5</title>
<path fill="none" stroke="#191970" d="M300.3501,-195.8866C279.9298,-184.6063 251.5382,-168.6736 227,-154 204.8827,-140.7741 200.4902,-135.5813 178,-123 153.4141,-109.2463 124.6346,-95.273 103.4295,-85.3583"/>
<polygon fill="#191970" stroke="#191970" points="104.8061,-82.1387 94.2619,-81.1039 101.8594,-88.4883 104.8061,-82.1387"/>
</g>
<!-- Node6 -->
<g id="node7" class="node">
<title>Node6</title>
<polygon fill="none" stroke="#bfbfbf" points="628.5,-62 628.5,-81 669.5,-81 669.5,-62 628.5,-62"/>
<text text-anchor="middle" x="649" y="-69" font-family="Helvetica,sans-Serif" font-size="10.00" fill="#000000">string</text>
</g>
<!-- Node4&#45;&gt;Node6 -->
<g id="edge6" class="edge">
<title>Node4&#45;&gt;Node6</title>
<path fill="none" stroke="#191970" d="M351.4274,-195.9426C382.0375,-176.8045 437.7824,-143.7655 489,-123 544.5595,-100.4741 563.1816,-108.8764 619,-87 620.1974,-86.5307 621.4099,-86.028 622.6261,-85.5011"/>
<polygon fill="#191970" stroke="#191970" points="624.2938,-88.584 631.8328,-81.14 621.2971,-82.2579 624.2938,-88.584"/>
</g>
<!-- Node7 -->
<g id="node8" class="node">
<title>Node7</title>
<polygon fill="none" stroke="#bfbfbf" points="498,-129 498,-148 542,-148 542,-129 498,-129"/>
<text text-anchor="middle" x="520" y="-136" font-family="Helvetica,sans-Serif" font-size="10.00" fill="#000000">vector</text>
</g>
<!-- Node4&#45;&gt;Node7 -->
<g id="edge7" class="edge">
<title>Node4&#45;&gt;Node7</title>
<path fill="none" stroke="#191970" d="M371.2863,-195.9208C402.7329,-184.7874 446.22,-169.0215 484,-154 485.6085,-153.3605 487.2527,-152.695 488.9098,-152.015"/>
<polygon fill="#191970" stroke="#191970" points="490.5126,-155.1382 498.3801,-148.0423 487.8047,-148.6832 490.5126,-155.1382"/>
</g>
<!-- Node8 -->
<g id="node9" class="node">
<title>Node8</title>
<g id="a_node9"><a xlink:href="Vector_8h_source.html" target="_top" xlink:title="BipedalLocomotion/Generic\lContainer/Vector.h">
<polygon fill="none" stroke="#000000" points="268,-123.5 268,-153.5 404,-153.5 404,-123.5 268,-123.5"/>
<text text-anchor="start" x="276" y="-141.5" font-family="Helvetica,sans-Serif" font-size="10.00" fill="#000000">BipedalLocomotion/Generic</text>
<text text-anchor="middle" x="336" y="-130.5" font-family="Helvetica,sans-Serif" font-size="10.00" fill="#000000">Container/Vector.h</text>
</a>
</g>
</g>
<!-- Node4&#45;&gt;Node8 -->
<g id="edge8" class="edge">
<title>Node4&#45;&gt;Node8</title>
<path fill="none" stroke="#191970" d="M329.6576,-195.978C330.6874,-186.6459 332.0369,-174.4157 333.2263,-163.6368"/>
<polygon fill="#191970" stroke="#191970" points="336.7265,-163.8264 334.3445,-153.5028 329.7688,-163.0586 336.7265,-163.8264"/>
</g>
<!-- Node10 -->
<g id="node11" class="node">
<title>Node10</title>
<g id="a_node11"><a xlink:href="TemplateHelpers_8h_source.html" target="_top" xlink:title="BipedalLocomotion/Generic\lContainer/TemplateHelpers.h">
<polygon fill="none" stroke="#000000" points="117,-56.5 117,-86.5 261,-86.5 261,-56.5 117,-56.5"/>
<text text-anchor="start" x="125" y="-74.5" font-family="Helvetica,sans-Serif" font-size="10.00" fill="#000000">BipedalLocomotion/Generic</text>
<text text-anchor="middle" x="189" y="-63.5" font-family="Helvetica,sans-Serif" font-size="10.00" fill="#000000">Container/TemplateHelpers.h</text>
</a>
</g>
</g>
<!-- Node4&#45;&gt;Node10 -->
<g id="edge18" class="edge">
<title>Node4&#45;&gt;Node10</title>
<path fill="none" stroke="#191970" d="M307.8742,-195.9082C293.6672,-184.8948 274.4827,-169.2802 259,-154 240.1011,-135.3483 220.73,-112.1401 207.1706,-95.0944"/>
<polygon fill="#191970" stroke="#191970" points="209.5776,-92.4934 200.643,-86.7992 204.0765,-96.8222 209.5776,-92.4934"/>
</g>
<!-- Node8&#45;&gt;Node5 -->
<g id="edge17" class="edge">
<title>Node8&#45;&gt;Node5</title>
<path fill="none" stroke="#191970" d="M267.9674,-126.7335C222.1429,-117.9352 160.6851,-104.4314 108,-87 106.1072,-86.3738 104.1774,-85.6814 102.2453,-84.9471"/>
<polygon fill="#191970" stroke="#191970" points="103.3052,-81.5988 92.7253,-81.0371 100.6457,-88.0739 103.3052,-81.5988"/>
</g>
<!-- Node9 -->
<g id="node10" class="node">
<title>Node9</title>
<polygon fill="none" stroke="#bfbfbf" points="279,-62 279,-81 393,-81 393,-62 279,-62"/>
<text text-anchor="middle" x="336" y="-69" font-family="Helvetica,sans-Serif" font-size="10.00" fill="#000000">iDynTree/Core/Span.h</text>
</g>
<!-- Node8&#45;&gt;Node9 -->
<g id="edge9" class="edge">
<title>Node8&#45;&gt;Node9</title>
<path fill="none" stroke="#191970" d="M336,-123.2967C336,-113.7699 336,-101.3954 336,-91.1306"/>
<polygon fill="#191970" stroke="#191970" points="339.5001,-91.0549 336,-81.055 332.5001,-91.055 339.5001,-91.0549"/>
</g>
<!-- Node8&#45;&gt;Node10 -->
<g id="edge10" class="edge">
<title>Node8&#45;&gt;Node10</title>
<path fill="none" stroke="#191970" d="M303.0103,-123.4639C281.8066,-113.7996 254.0617,-101.154 231.251,-90.7572"/>
<polygon fill="#191970" stroke="#191970" points="232.6846,-87.5643 222.1336,-86.6017 229.7814,-93.9339 232.6846,-87.5643"/>
</g>
<!-- Node14 -->
<g id="node15" class="node">
<title>Node14</title>
<polygon fill="none" stroke="#bfbfbf" points="411.5,-62 411.5,-81 470.5,-81 470.5,-62 411.5,-62"/>
<text text-anchor="middle" x="441" y="-69" font-family="Helvetica,sans-Serif" font-size="10.00" fill="#000000">functional</text>
</g>
<!-- Node8&#45;&gt;Node14 -->
<g id="edge14" class="edge">
<title>Node8&#45;&gt;Node14</title>
<path fill="none" stroke="#191970" d="M359.564,-123.4639C376.7056,-112.526 399.8321,-97.769 417.0602,-86.7759"/>
<polygon fill="#191970" stroke="#191970" points="419.4018,-89.4336 425.9491,-81.1039 415.6364,-83.5326 419.4018,-89.4336"/>
</g>
<!-- Node15 -->
<g id="node16" class="node">
<title>Node15</title>
<polygon fill="none" stroke="#bfbfbf" points="488.5,-62 488.5,-81 537.5,-81 537.5,-62 488.5,-62"/>
<text text-anchor="middle" x="513" y="-69" font-family="Helvetica,sans-Serif" font-size="10.00" fill="#000000">cassert</text>
</g>
<!-- Node8&#45;&gt;Node15 -->
<g id="edge15" class="edge">
<title>Node8&#45;&gt;Node15</title>
<path fill="none" stroke="#191970" d="M380.8023,-123.4245C409.1686,-113.6193 446.4964,-100.2358 479,-87 480.3894,-86.4342 481.8052,-85.8442 483.2313,-85.2389"/>
<polygon fill="#191970" stroke="#191970" points="484.8712,-88.3415 492.6219,-81.1181 482.0584,-81.9315 484.8712,-88.3415"/>
</g>
<!-- Node8&#45;&gt;Node16 -->
<g id="edge16" class="edge">
<title>Node8&#45;&gt;Node16</title>
<path fill="none" stroke="#191970" d="M404.3819,-124.5678C445.8152,-115.428 499.4774,-102.3449 546,-87 548.0958,-86.3087 550.2397,-85.5511 552.3876,-84.7541"/>
<polygon fill="#191970" stroke="#191970" points="553.67,-88.0108 561.6939,-81.0921 551.1068,-81.497 553.67,-88.0108"/>
</g>
<!-- Node11 -->
<g id="node12" class="node">
<title>Node11</title>
<polygon fill="none" stroke="#bfbfbf" points="76,-.5 76,-19.5 138,-19.5 138,-.5 76,-.5"/>
<text text-anchor="middle" x="107" y="-7.5" font-family="Helvetica,sans-Serif" font-size="10.00" fill="#000000">type_traits</text>
</g>
<!-- Node10&#45;&gt;Node11 -->
<g id="edge11" class="edge">
<title>Node10&#45;&gt;Node11</title>
<path fill="none" stroke="#191970" d="M168.7303,-56.2977C156.3994,-47.0495 140.6734,-35.2551 128.1803,-25.8853"/>
<polygon fill="#191970" stroke="#191970" points="130.2293,-23.047 120.1292,-19.8469 126.0292,-28.647 130.2293,-23.047"/>
</g>
<!-- Node12 -->
<g id="node13" class="node">
<title>Node12</title>
<polygon fill="none" stroke="#bfbfbf" points="156,-.5 156,-19.5 222,-19.5 222,-.5 156,-.5"/>
<text text-anchor="middle" x="189" y="-7.5" font-family="Helvetica,sans-Serif" font-size="10.00" fill="#000000">string_view</text>
</g>
<!-- Node10&#45;&gt;Node12 -->
<g id="edge12" class="edge">
<title>Node10&#45;&gt;Node12</title>
<path fill="none" stroke="#191970" d="M189,-56.2977C189,-48.3834 189,-38.6043 189,-30.0759"/>
<polygon fill="#191970" stroke="#191970" points="192.5001,-29.8469 189,-19.8469 185.5001,-29.847 192.5001,-29.8469"/>
</g>
<!-- Node13 -->
<g id="node14" class="node">
<title>Node13</title>
<polygon fill="none" stroke="#bfbfbf" points="240.5,-.5 240.5,-19.5 305.5,-19.5 305.5,-.5 240.5,-.5"/>
<text text-anchor="middle" x="273" y="-7.5" font-family="Helvetica,sans-Serif" font-size="10.00" fill="#000000">Eigen/Core</text>
</g>
<!-- Node10&#45;&gt;Node13 -->
<g id="edge13" class="edge">
<title>Node10&#45;&gt;Node13</title>
<path fill="none" stroke="#191970" d="M209.7641,-56.2977C222.3958,-47.0495 238.5053,-35.2551 251.3031,-25.8853"/>
<polygon fill="#191970" stroke="#191970" points="253.5495,-28.5784 259.5505,-19.8469 249.4143,-22.9303 253.5495,-28.5784"/>
</g>
<!-- Node18 -->
<g id="node19" class="node">
<title>Node18</title>
<polygon fill="none" stroke="#bfbfbf" points="560.5,-129 560.5,-148 633.5,-148 633.5,-129 560.5,-129"/>
<text text-anchor="middle" x="597" y="-136" font-family="Helvetica,sans-Serif" font-size="10.00" fill="#000000">Eigen/Dense</text>
</g>
<!-- Node17&#45;&gt;Node18 -->
<g id="edge20" class="edge">
<title>Node17&#45;&gt;Node18</title>
<path fill="none" stroke="#191970" d="M566.2071,-190.4183C572.454,-179.8857 579.997,-167.1678 586.0539,-156.9556"/>
<polygon fill="#191970" stroke="#191970" points="589.2239,-158.4718 591.3149,-148.0853 583.2032,-154.9009 589.2239,-158.4718"/>
</g>
<!-- Node19&#45;&gt;Node18 -->
<g id="edge22" class="edge">
<title>Node19&#45;&gt;Node18</title>
<path fill="none" stroke="#191970" d="M734.1543,-195.978C703.2995,-183.0475 659.1683,-164.5532 629.3685,-152.0648"/>
<polygon fill="#191970" stroke="#191970" points="630.4274,-148.7137 619.8517,-148.0766 627.7218,-155.1697 630.4274,-148.7137"/>
</g>
<!-- Node19&#45;&gt;Node20 -->
<g id="edge23" class="edge">
<title>Node19&#45;&gt;Node20</title>
<path fill="none" stroke="#191970" d="M834.4394,-195.978C893.4417,-182.2234 979.4501,-162.1732 1032.7275,-149.7532"/>
<polygon fill="#191970" stroke="#191970" points="1033.6604,-153.1297 1042.6046,-147.4507 1032.0711,-146.3125 1033.6604,-153.1297"/>
</g>
<!-- Node21 -->
<g id="node22" class="node">
<title>Node21</title>
<g id="a_node22"><a xlink:href="Contact_8h.html" target="_top" xlink:title="BipedalLocomotion/Contacts\l/Contact.h">
<polygon fill="none" stroke="#000000" points="652,-123.5 652,-153.5 794,-153.5 794,-123.5 652,-123.5"/>
<text text-anchor="start" x="660" y="-141.5" font-family="Helvetica,sans-Serif" font-size="10.00" fill="#000000">BipedalLocomotion/Contacts</text>
<text text-anchor="middle" x="723" y="-130.5" font-family="Helvetica,sans-Serif" font-size="10.00" fill="#000000">/Contact.h</text>
</a>
</g>
</g>
<!-- Node19&#45;&gt;Node21 -->
<g id="edge24" class="edge">
<title>Node19&#45;&gt;Node21</title>
<path fill="none" stroke="#191970" d="M760.2616,-195.978C753.8967,-186.1598 745.4523,-173.1339 738.2118,-161.9651"/>
<polygon fill="#191970" stroke="#191970" points="741.1026,-159.9899 732.726,-153.5028 735.2288,-163.7978 741.1026,-159.9899"/>
</g>
<!-- Node23 -->
<g id="node24" class="node">
<title>Node23</title>
<polygon fill="none" stroke="#bfbfbf" points="812.5,-129 812.5,-148 847.5,-148 847.5,-129 812.5,-129"/>
<text text-anchor="middle" x="830" y="-136" font-family="Helvetica,sans-Serif" font-size="10.00" fill="#000000">map</text>
</g>
<!-- Node19&#45;&gt;Node23 -->
<g id="edge27" class="edge">
<title>Node19&#45;&gt;Node23</title>
<path fill="none" stroke="#191970" d="M782.432,-195.978C792.0259,-184.3854 805.3207,-168.3209 815.4167,-156.1214"/>
<polygon fill="#191970" stroke="#191970" points="818.1312,-158.3311 821.8105,-148.3957 812.7384,-153.8681 818.1312,-158.3311"/>
</g>
<!-- Node21&#45;&gt;Node6 -->
<g id="edge26" class="edge">
<title>Node21&#45;&gt;Node6</title>
<path fill="none" stroke="#191970" d="M706.2083,-123.2967C694.5668,-112.7564 679.0752,-98.7303 667.1491,-87.9323"/>
<polygon fill="#191970" stroke="#191970" points="669.3154,-85.1722 659.5533,-81.055 664.6171,-90.3613 669.3154,-85.1722"/>
</g>
<!-- Node22 -->
<g id="node23" class="node">
<title>Node22</title>
<polygon fill="none" stroke="#bfbfbf" points="687.5,-62 687.5,-81 758.5,-81 758.5,-62 687.5,-62"/>
<text text-anchor="middle" x="723" y="-69" font-family="Helvetica,sans-Serif" font-size="10.00" fill="#000000">manif/SE3.h</text>
</g>
<!-- Node21&#45;&gt;Node22 -->
<g id="edge25" class="edge">
<title>Node21&#45;&gt;Node22</title>
<path fill="none" stroke="#191970" d="M723,-123.2967C723,-113.7699 723,-101.3954 723,-91.1306"/>
<polygon fill="#191970" stroke="#191970" points="726.5001,-91.0549 723,-81.055 719.5001,-91.055 726.5001,-91.0549"/>
</g>
<!-- Node25&#45;&gt;Node20 -->
<g id="edge34" class="edge">
<title>Node25&#45;&gt;Node20</title>
<path fill="none" stroke="#191970" d="M1176.6884,-335.4067C1163.6679,-326.2584 1148.2461,-313.5552 1138,-299 1121.5011,-275.5625 1097.3029,-195.5804 1086.5281,-158.1344"/>
<polygon fill="#191970" stroke="#191970" points="1089.8562,-157.0422 1083.7499,-148.384 1083.1242,-158.9603 1089.8562,-157.0422"/>
</g>
<!-- Node26 -->
<g id="node27" class="node">
<title>Node26</title>
<polygon fill="none" stroke="#bfbfbf" points="1147,-274 1147,-293 1283,-293 1283,-274 1147,-274"/>
<text text-anchor="middle" x="1215" y="-281" font-family="Helvetica,sans-Serif" font-size="10.00" fill="#000000">iDynTree/Core/Transform.h</text>
</g>
<!-- Node25&#45;&gt;Node26 -->
<g id="edge32" class="edge">
<title>Node25&#45;&gt;Node26</title>
<path fill="none" stroke="#191970" d="M1204.1768,-335.2967C1206.1675,-325.7699 1208.7532,-313.3954 1210.8981,-303.1306"/>
<polygon fill="#191970" stroke="#191970" points="1214.384,-303.5595 1213.0034,-293.055 1207.532,-302.1277 1214.384,-303.5595"/>
</g>
<!-- Node25&#45;&gt;Node27 -->
<g id="edge33" class="edge">
<title>Node25&#45;&gt;Node27</title>
<path fill="none" stroke="#191970" d="M1240.2734,-335.4639C1270.7848,-323.7824 1312.6737,-307.7449 1341.814,-296.5884"/>
<polygon fill="#191970" stroke="#191970" points="1343.0852,-299.8495 1351.1728,-293.0053 1340.5824,-293.3122 1343.0852,-299.8495"/>
</g>
</g>
</svg>
        <g id="navigator" transform="translate(0 0)" fill="#404254">
                <rect fill="#f2f5e9" fill-opacity="0.5" stroke="#606060" stroke-width=".5" x="0" y="0" width="60" height="60"/>
                <use id="zoomplus" xlink:href="#zoomPlus" x="17" y="9" onmousedown="handleZoom(evt,'in')"/>
                <use id="zoomminus" xlink:href="#zoomMin" x="42" y="9" onmousedown="handleZoom(evt,'out')"/>
                <use id="reset" xlink:href="#resetDef" x="30" y="36" onmousedown="handleReset()"/>
                <g id="arrowUp" xlink:href="#dirArrow" transform="translate(30 24)" onmousedown="handlePan(0,-1)">
                  <use xlink:href="#rim" fill="#404040">
                        <set attributeName="fill" to="#808080" begin="arrowUp.mouseover" end="arrowUp.mouseout"/>
                  </use>
                  <path fill="none" stroke="white" stroke-width="1.5" d="M0,-3.0v7 M-2.5,-0.5L0,-3.0L2.5,-0.5"/>
                </g>
                <g id="arrowRight" xlink:href="#dirArrow" transform="rotate(90) translate(36 -43)" onmousedown="handlePan(1,0)">
                  <use xlink:href="#rim" fill="#404040">
                        <set attributeName="fill" to="#808080" begin="arrowRight.mouseover" end="arrowRight.mouseout"/>
                  </use>
                  <path fill="none" stroke="white" stroke-width="1.5" d="M0,-3.0v7 M-2.5,-0.5L0,-3.0L2.5,-0.5"/>
                </g>
                <g id="arrowDown" xlink:href="#dirArrow" transform="rotate(180) translate(-30 -48)" onmousedown="handlePan(0,1)">
                  <use xlink:href="#rim" fill="#404040">
                        <set attributeName="fill" to="#808080" begin="arrowDown.mouseover" end="arrowDown.mouseout"/>
                  </use>
                  <path fill="none" stroke="white" stroke-width="1.5" d="M0,-3.0v7 M-2.5,-0.5L0,-3.0L2.5,-0.5"/>
                </g>
                <g id="arrowLeft" xlink:href="#dirArrow" transform="rotate(270) translate(-36 17)" onmousedown="handlePan(-1,0)">
                  <use xlink:href="#rim" fill="#404040">
                        <set attributeName="fill" to="#808080" begin="arrowLeft.mouseover" end="arrowLeft.mouseout"/>
                  </use>
                  <path fill="none" stroke="white" stroke-width="1.5" d="M0,-3.0v7 M-2.5,-0.5L0,-3.0L2.5,-0.5"/>
                </g>
        </g>
        <svg viewBox="0 0 15 15" width="100%" height="30px" preserveAspectRatio="xMaxYMin meet">
         <g id="arrow_out" transform="scale(0.3 0.3)">
          <a xlink:href="LeggedOdometry_8cpp__incl_org.svg" target="_base">
           <rect id="button" ry="5" rx="5" y="6" x="6" height="38" width="38"
                fill="#f2f5e9" fill-opacity="0.5" stroke="#606060" stroke-width="1.0"/>
           <path id="arrow"
             d="M 11.500037,31.436501 C 11.940474,20.09759 22.043105,11.32322 32.158766,21.979434 L 37.068811,17.246167 C 37.068811,17.246167 37.088388,32 37.088388,32 L 22.160133,31.978069 C 22.160133,31.978069 26.997745,27.140456 26.997745,27.140456 C 18.528582,18.264221 13.291696,25.230495 11.500037,31.436501 z"
             style="fill:#404040;"/>
          </a>
         </g>
        </svg>
</svg>
