<?xml version="1.0" encoding="UTF-8" standalone="no"?>
<!DOCTYPE svg PUBLIC "-//W3C//DTD SVG 1.1//EN"
 "http://www.w3.org/Graphics/SVG/1.1/DTD/svg11.dtd">
<!-- Generated by graphviz version 2.40.1 (20161225.0304)
 -->
<!-- Title: System/src/LinearTimeInvariantSystem.cpp Pages: 1 -->
<!--zoomable 430 -->
<svg id="main" version="1.1" xmlns="http://www.w3.org/2000/svg" xmlns:xlink="http://www.w3.org/1999/xlink" xml:space="preserve" onload="init(evt)">
<style type="text/css"><![CDATA[
.edge:hover path { stroke: red; }
.edge:hover polygon { stroke: red; fill: red; }
]]></style>
<script type="text/javascript"><![CDATA[
var edges = document.getElementsByTagName('g');
if (edges && edges.length) {
  for (var i=0;i<edges.length;i++) {
    if (edges[i].id.substr(0,4)=='edge') {
      edges[i].setAttribute('class','edge');
    }
  }
}
]]></script>
        <defs>
                <circle id="rim" cx="0" cy="0" r="7"/>
                <circle id="rim2" cx="0" cy="0" r="3.5"/>
                <g id="zoomPlus">
                        <use xlink:href="#rim" fill="#404040">
                                <set attributeName="fill" to="#808080" begin="zoomplus.mouseover" end="zoomplus.mouseout"/>
                        </use>
                        <path d="M-4,0h8M0,-4v8" fill="none" stroke="white" stroke-width="1.5" pointer-events="none"/>
                </g>
                <g id="zoomMin">
                        <use xlink:href="#rim" fill="#404040">
                                <set attributeName="fill" to="#808080" begin="zoomminus.mouseover" end="zoomminus.mouseout"/>
                        </use>
                        <path d="M-4,0h8" fill="none" stroke="white" stroke-width="1.5" pointer-events="none"/>
                </g>
                <g id="dirArrow">
                        <path fill="none" stroke="white" stroke-width="1.5" d="M0,-3.0v7 M-2.5,-0.5L0,-3.0L2.5,-0.5"/>
                </g>
               <g id="resetDef">
                       <use xlink:href="#rim2" fill="#404040">
                               <set attributeName="fill" to="#808080" begin="reset.mouseover" end="reset.mouseout"/>
                       </use>
               </g>
        </defs>

<script type="text/javascript">
var viewWidth = 714;
var viewHeight = 430;
var sectionId = 'dynsection-0';
</script>
<script xlink:href="svgpan.js"/>
<svg id="graph" class="graph">
<g id="viewport">
<title>System/src/LinearTimeInvariantSystem.cpp</title>
<!-- Node0 -->
<g id="node1" class="node">
<title>Node0</title>
<polygon fill="#bfbfbf" stroke="#000000" points="197.5,-391.5 197.5,-421.5 352.5,-421.5 352.5,-391.5 197.5,-391.5"/>
<text text-anchor="start" x="205.5" y="-409.5" font-family="Helvetica,sans-Serif" font-size="10.00" fill="#000000">System/src/LinearTimeInvariant</text>
<text text-anchor="middle" x="275" y="-398.5" font-family="Helvetica,sans-Serif" font-size="10.00" fill="#000000">System.cpp</text>
</g>
<!-- Node1 -->
<g id="node2" class="node">
<title>Node1</title>
<polygon fill="none" stroke="#bfbfbf" points="0,-62 0,-81 54,-81 54,-62 0,-62"/>
<text text-anchor="middle" x="27" y="-69" font-family="Helvetica,sans-Serif" font-size="10.00" fill="#000000">iostream</text>
</g>
<!-- Node0&#45;&gt;Node1 -->
<g id="edge1" class="edge">
<title>Node0&#45;&gt;Node1</title>
<path fill="none" stroke="#191970" d="M197.2843,-393.0277C132.5878,-376.8255 51,-342.5135 51,-272.5 51,-272.5 51,-272.5 51,-205.5 51,-164.1404 39.7848,-116.7088 32.6877,-90.8342"/>
<polygon fill="#191970" stroke="#191970" points="36.0361,-89.8128 29.9429,-81.1455 29.3012,-91.7208 36.0361,-89.8128"/>
</g>
<!-- Node2 -->
<g id="node3" class="node">
<title>Node2</title>
<g id="a_node3"><a xlink:href="LinearTimeInvariantSystem_8h.html" target="_top" xlink:title="BipedalLocomotion/System\l/LinearTimeInvariantSystem.h">
<polygon fill="none" stroke="#000000" points="446.5,-324.5 446.5,-354.5 593.5,-354.5 593.5,-324.5 446.5,-324.5"/>
<text text-anchor="start" x="454.5" y="-342.5" font-family="Helvetica,sans-Serif" font-size="10.00" fill="#000000">BipedalLocomotion/System</text>
<text text-anchor="middle" x="520" y="-331.5" font-family="Helvetica,sans-Serif" font-size="10.00" fill="#000000">/LinearTimeInvariantSystem.h</text>
</a>
</g>
</g>
<!-- Node0&#45;&gt;Node2 -->
<g id="edge2" class="edge">
<title>Node0&#45;&gt;Node2</title>
<path fill="none" stroke="#191970" d="M329.9828,-391.4639C367.05,-381.3272 416.1114,-367.9104 455.0965,-357.2491"/>
<polygon fill="#191970" stroke="#191970" points="456.0549,-360.6156 464.7774,-354.6017 454.2083,-353.8636 456.0549,-360.6156"/>
</g>
<!-- Node3 -->
<g id="node4" class="node">
<title>Node3</title>
<polygon fill="none" stroke="#bfbfbf" points="552,-62 552,-81 604,-81 604,-62 552,-62"/>
<text text-anchor="middle" x="578" y="-69" font-family="Helvetica,sans-Serif" font-size="10.00" fill="#000000">memory</text>
</g>
<!-- Node2&#45;&gt;Node3 -->
<g id="edge3" class="edge">
<title>Node2&#45;&gt;Node3</title>
<path fill="none" stroke="#191970" d="M593.7231,-325.8668C633.5045,-316.8752 676.896,-303.8423 689,-288 715.4486,-253.3829 707.1923,-230.4436 691,-190 672.8851,-144.7543 628.3521,-106.9631 600.9105,-86.9348"/>
<polygon fill="#191970" stroke="#191970" points="602.8354,-84.009 592.6566,-81.0694 598.7806,-89.715 602.8354,-84.009"/>
</g>
<!-- Node4 -->
<g id="node5" class="node">
<title>Node4</title>
<polygon fill="none" stroke="#bfbfbf" points="100,-129 100,-148 144,-148 144,-129 100,-129"/>
<text text-anchor="middle" x="122" y="-136" font-family="Helvetica,sans-Serif" font-size="10.00" fill="#000000">vector</text>
</g>
<!-- Node2&#45;&gt;Node4 -->
<g id="edge4" class="edge">
<title>Node2&#45;&gt;Node4</title>
<path fill="none" stroke="#191970" d="M474.5317,-324.3656C416.9598,-304.3642 315.5667,-266.3135 235,-221 199.8622,-201.2373 162.7898,-172.4237 141.0601,-154.6014"/>
<polygon fill="#191970" stroke="#191970" points="143.1901,-151.8209 133.2582,-148.1319 138.7219,-157.2093 143.1901,-151.8209"/>
</g>
<!-- Node5 -->
<g id="node6" class="node">
<title>Node5</title>
<g id="a_node6"><a xlink:href="DynamicalSystem_8h.html" target="_top" xlink:title="BipedalLocomotion/System\l/DynamicalSystem.h">
<polygon fill="none" stroke="#000000" points="452,-257.5 452,-287.5 588,-287.5 588,-257.5 452,-257.5"/>
<text text-anchor="start" x="460" y="-275.5" font-family="Helvetica,sans-Serif" font-size="10.00" fill="#000000">BipedalLocomotion/System</text>
<text text-anchor="middle" x="520" y="-264.5" font-family="Helvetica,sans-Serif" font-size="10.00" fill="#000000">/DynamicalSystem.h</text>
</a>
</g>
</g>
<!-- Node2&#45;&gt;Node5 -->
<g id="edge5" class="edge">
<title>Node2&#45;&gt;Node5</title>
<path fill="none" stroke="#191970" d="M520,-324.2967C520,-316.5013 520,-306.7991 520,-297.9064"/>
<polygon fill="#191970" stroke="#191970" points="523.5001,-297.6431 520,-287.6432 516.5001,-297.6432 523.5001,-297.6431"/>
</g>
<!-- Node18 -->
<g id="node19" class="node">
<title>Node18</title>
<polygon fill="none" stroke="#bfbfbf" points="606.5,-263 606.5,-282 679.5,-282 679.5,-263 606.5,-263"/>
<text text-anchor="middle" x="643" y="-270" font-family="Helvetica,sans-Serif" font-size="10.00" fill="#000000">Eigen/Dense</text>
</g>
<!-- Node2&#45;&gt;Node18 -->
<g id="edge26" class="edge">
<title>Node2&#45;&gt;Node18</title>
<path fill="none" stroke="#191970" d="M547.6036,-324.4639C568.1485,-313.2728 596.0327,-298.0838 616.3465,-287.0186"/>
<polygon fill="#191970" stroke="#191970" points="618.2615,-289.9611 625.3689,-282.1039 614.913,-283.8139 618.2615,-289.9611"/>
</g>
<!-- Node5&#45;&gt;Node3 -->
<g id="edge6" class="edge">
<title>Node5&#45;&gt;Node3</title>
<path fill="none" stroke="#191970" d="M556.8172,-257.4687C572.1468,-249.1524 588.3611,-237.1711 597,-221 619.6074,-178.6816 600.0771,-120.2791 587.1772,-90.5498"/>
<polygon fill="#191970" stroke="#191970" points="590.2976,-88.9564 582.9709,-81.3034 583.9259,-91.8551 590.2976,-88.9564"/>
</g>
<!-- Node6 -->
<g id="node7" class="node">
<title>Node6</title>
<polygon fill="none" stroke="#bfbfbf" points="644,-196 644,-215 682,-215 682,-196 644,-196"/>
<text text-anchor="middle" x="663" y="-203" font-family="Helvetica,sans-Serif" font-size="10.00" fill="#000000">tuple</text>
</g>
<!-- Node5&#45;&gt;Node6 -->
<g id="edge7" class="edge">
<title>Node5&#45;&gt;Node6</title>
<path fill="none" stroke="#191970" d="M552.2537,-257.4122C574.1803,-247.1522 603.8444,-233.2654 630,-221 631.5366,-220.2794 633.1133,-219.5398 634.7049,-218.7929"/>
<polygon fill="#191970" stroke="#191970" points="636.2423,-221.9377 643.807,-214.5198 633.2675,-215.6013 636.2423,-221.9377"/>
</g>
<!-- Node7 -->
<g id="node8" class="node">
<title>Node7</title>
<g id="a_node8"><a xlink:href="TemplateHelpers_8h_source.html" target="_top" xlink:title="BipedalLocomotion/Generic\lContainer/TemplateHelpers.h">
<polygon fill="none" stroke="#000000" points="349,-56.5 349,-86.5 493,-86.5 493,-56.5 349,-56.5"/>
<text text-anchor="start" x="357" y="-74.5" font-family="Helvetica,sans-Serif" font-size="10.00" fill="#000000">BipedalLocomotion/Generic</text>
<text text-anchor="middle" x="421" y="-63.5" font-family="Helvetica,sans-Serif" font-size="10.00" fill="#000000">Container/TemplateHelpers.h</text>
</a>
</g>
</g>
<!-- Node5&#45;&gt;Node7 -->
<g id="edge8" class="edge">
<title>Node5&#45;&gt;Node7</title>
<path fill="none" stroke="#191970" d="M485.0453,-257.288C469.7124,-248.8218 452.9681,-236.7693 443,-221 418.9249,-182.9136 417.2514,-128.6408 418.7574,-97.0433"/>
<polygon fill="#191970" stroke="#191970" points="422.2621,-97.0746 419.3912,-86.8762 415.2757,-96.639 422.2621,-97.0746"/>
</g>
<!-- Node11 -->
<g id="node12" class="node">
<title>Node11</title>
<g id="a_node12"><a xlink:href="IParametersHandler_8h.html" target="_top" xlink:title="BipedalLocomotion/Parameters\lHandler/IParametersHandler.h">
<polygon fill="none" stroke="#000000" points="244,-190.5 244,-220.5 396,-220.5 396,-190.5 244,-190.5"/>
<text text-anchor="start" x="252" y="-208.5" font-family="Helvetica,sans-Serif" font-size="10.00" fill="#000000">BipedalLocomotion/Parameters</text>
<text text-anchor="middle" x="320" y="-197.5" font-family="Helvetica,sans-Serif" font-size="10.00" fill="#000000">Handler/IParametersHandler.h</text>
</a>
</g>
</g>
<!-- Node5&#45;&gt;Node11 -->
<g id="edge12" class="edge">
<title>Node5&#45;&gt;Node11</title>
<path fill="none" stroke="#191970" d="M475.1161,-257.4639C445.37,-247.499 406.1619,-234.3642 374.6077,-223.7936"/>
<polygon fill="#191970" stroke="#191970" points="375.6735,-220.4595 365.0797,-220.6017 373.45,-227.097 375.6735,-220.4595"/>
</g>
<!-- Node17 -->
<g id="node18" class="node">
<title>Node17</title>
<g id="a_node18"><a xlink:href="DynamicalSystem_8tpp.html" target="_top" xlink:title="BipedalLocomotion/System\l/DynamicalSystem.tpp">
<polygon fill="none" stroke="#000000" points="452,-190.5 452,-220.5 588,-220.5 588,-190.5 452,-190.5"/>
<text text-anchor="start" x="460" y="-208.5" font-family="Helvetica,sans-Serif" font-size="10.00" fill="#000000">BipedalLocomotion/System</text>
<text text-anchor="middle" x="520" y="-197.5" font-family="Helvetica,sans-Serif" font-size="10.00" fill="#000000">/DynamicalSystem.tpp</text>
</a>
</g>
</g>
<!-- Node5&#45;&gt;Node17 -->
<g id="edge24" class="edge">
<title>Node5&#45;&gt;Node17</title>
<path fill="none" stroke="#191970" d="M514.2392,-257.2967C513.2895,-249.4156 513.0236,-239.5857 513.4416,-230.6135"/>
<polygon fill="#191970" stroke="#191970" points="516.9304,-230.8924 514.2464,-220.6432 509.9531,-230.3291 516.9304,-230.8924"/>
</g>
<!-- Node8 -->
<g id="node9" class="node">
<title>Node8</title>
<polygon fill="none" stroke="#bfbfbf" points="308,-.5 308,-19.5 370,-19.5 370,-.5 308,-.5"/>
<text text-anchor="middle" x="339" y="-7.5" font-family="Helvetica,sans-Serif" font-size="10.00" fill="#000000">type_traits</text>
</g>
<!-- Node7&#45;&gt;Node8 -->
<g id="edge9" class="edge">
<title>Node7&#45;&gt;Node8</title>
<path fill="none" stroke="#191970" d="M400.7303,-56.2977C388.3994,-47.0495 372.6734,-35.2551 360.1803,-25.8853"/>
<polygon fill="#191970" stroke="#191970" points="362.2293,-23.047 352.1292,-19.8469 358.0292,-28.647 362.2293,-23.047"/>
</g>
<!-- Node9 -->
<g id="node10" class="node">
<title>Node9</title>
<polygon fill="none" stroke="#bfbfbf" points="388,-.5 388,-19.5 454,-19.5 454,-.5 388,-.5"/>
<text text-anchor="middle" x="421" y="-7.5" font-family="Helvetica,sans-Serif" font-size="10.00" fill="#000000">string_view</text>
</g>
<!-- Node7&#45;&gt;Node9 -->
<g id="edge10" class="edge">
<title>Node7&#45;&gt;Node9</title>
<path fill="none" stroke="#191970" d="M421,-56.2977C421,-48.3834 421,-38.6043 421,-30.0759"/>
<polygon fill="#191970" stroke="#191970" points="424.5001,-29.8469 421,-19.8469 417.5001,-29.847 424.5001,-29.8469"/>
</g>
<!-- Node10 -->
<g id="node11" class="node">
<title>Node10</title>
<polygon fill="none" stroke="#bfbfbf" points="472.5,-.5 472.5,-19.5 537.5,-19.5 537.5,-.5 472.5,-.5"/>
<text text-anchor="middle" x="505" y="-7.5" font-family="Helvetica,sans-Serif" font-size="10.00" fill="#000000">Eigen/Core</text>
</g>
<!-- Node7&#45;&gt;Node10 -->
<g id="edge11" class="edge">
<title>Node7&#45;&gt;Node10</title>
<path fill="none" stroke="#191970" d="M441.7641,-56.2977C454.3958,-47.0495 470.5053,-35.2551 483.3031,-25.8853"/>
<polygon fill="#191970" stroke="#191970" points="485.5495,-28.5784 491.5505,-19.8469 481.4143,-22.9303 485.5495,-28.5784"/>
</g>
<!-- Node11&#45;&gt;Node3 -->
<g id="edge13" class="edge">
<title>Node11&#45;&gt;Node3</title>
<path fill="none" stroke="#191970" d="M349.0944,-190.389C399.2548,-164.3367 501.3419,-111.3147 550.4288,-85.8199"/>
<polygon fill="#191970" stroke="#191970" points="552.2472,-88.8195 559.5084,-81.1042 549.0207,-82.6074 552.2472,-88.8195"/>
</g>
<!-- Node11&#45;&gt;Node4 -->
<g id="edge15" class="edge">
<title>Node11&#45;&gt;Node4</title>
<path fill="none" stroke="#191970" d="M263.1499,-190.4826C230.4692,-181.2294 188.9045,-168.3986 153,-154 151.6387,-153.4541 150.2556,-152.8716 148.8671,-152.2645"/>
<polygon fill="#191970" stroke="#191970" points="150.3432,-149.091 139.802,-148.0263 147.3785,-155.4322 150.3432,-149.091"/>
</g>
<!-- Node11&#45;&gt;Node7 -->
<g id="edge23" class="edge">
<title>Node11&#45;&gt;Node7</title>
<path fill="none" stroke="#191970" d="M321.5031,-190.4481C323.9111,-172.7968 330.0023,-143.3664 345,-123 354.2147,-110.4868 367.4345,-100.0348 380.272,-91.8891"/>
<polygon fill="#191970" stroke="#191970" points="382.2733,-94.77 389.0445,-86.6213 378.6696,-88.7689 382.2733,-94.77"/>
</g>
<!-- Node12 -->
<g id="node13" class="node">
<title>Node12</title>
<polygon fill="none" stroke="#bfbfbf" points="354.5,-129 354.5,-148 395.5,-148 395.5,-129 354.5,-129"/>
<text text-anchor="middle" x="375" y="-136" font-family="Helvetica,sans-Serif" font-size="10.00" fill="#000000">string</text>
</g>
<!-- Node11&#45;&gt;Node12 -->
<g id="edge14" class="edge">
<title>Node11&#45;&gt;Node12</title>
<path fill="none" stroke="#191970" d="M332.4804,-190.2967C340.8832,-180.0605 351.9849,-166.5366 360.7373,-155.8746"/>
<polygon fill="#191970" stroke="#191970" points="363.5167,-158.005 367.1564,-148.055 358.1061,-153.5635 363.5167,-158.005"/>
</g>
<!-- Node13 -->
<g id="node14" class="node">
<title>Node13</title>
<g id="a_node14"><a xlink:href="Vector_8h_source.html" target="_top" xlink:title="BipedalLocomotion/Generic\lContainer/Vector.h">
<polygon fill="none" stroke="#000000" points="162,-123.5 162,-153.5 298,-153.5 298,-123.5 162,-123.5"/>
<text text-anchor="start" x="170" y="-141.5" font-family="Helvetica,sans-Serif" font-size="10.00" fill="#000000">BipedalLocomotion/Generic</text>
<text text-anchor="middle" x="230" y="-130.5" font-family="Helvetica,sans-Serif" font-size="10.00" fill="#000000">Container/Vector.h</text>
</a>
</g>
</g>
<!-- Node11&#45;&gt;Node13 -->
<g id="edge16" class="edge">
<title>Node11&#45;&gt;Node13</title>
<path fill="none" stroke="#191970" d="M299.5776,-190.2967C287.4952,-181.302 272.0028,-169.7687 258.7052,-159.8694"/>
<polygon fill="#191970" stroke="#191970" points="260.4529,-156.8072 250.3416,-153.6432 256.2729,-162.4221 260.4529,-156.8072"/>
</g>
<!-- Node13&#45;&gt;Node1 -->
<g id="edge21" class="edge">
<title>Node13&#45;&gt;Node1</title>
<path fill="none" stroke="#191970" d="M176.1121,-123.4792C143.153,-113.8987 100.2972,-100.7351 63,-87 61.1801,-86.3298 59.3193,-85.6168 57.4492,-84.8787"/>
<polygon fill="#191970" stroke="#191970" points="58.7474,-81.6282 48.1676,-81.0622 56.0853,-88.1022 58.7474,-81.6282"/>
</g>
<!-- Node13&#45;&gt;Node3 -->
<g id="edge22" class="edge">
<title>Node13&#45;&gt;Node3</title>
<path fill="none" stroke="#191970" d="M298.2388,-125.8548C353.2817,-115.5887 432.6775,-100.6311 502,-87 515.0066,-84.4425 529.2477,-81.56 541.8507,-78.9807"/>
<polygon fill="#191970" stroke="#191970" points="542.8973,-82.3389 551.989,-76.8991 541.4894,-75.4819 542.8973,-82.3389"/>
</g>
<!-- Node13&#45;&gt;Node7 -->
<g id="edge18" class="edge">
<title>Node13&#45;&gt;Node7</title>
<path fill="none" stroke="#191970" d="M272.8641,-123.4639C301.1492,-113.5419 338.3928,-100.4774 368.4596,-89.9304"/>
<polygon fill="#191970" stroke="#191970" points="369.6712,-93.2146 377.9489,-86.6017 367.3541,-86.6092 369.6712,-93.2146"/>
</g>
<!-- Node14 -->
<g id="node15" class="node">
<title>Node14</title>
<polygon fill="none" stroke="#bfbfbf" points="72,-62 72,-81 186,-81 186,-62 72,-62"/>
<text text-anchor="middle" x="129" y="-69" font-family="Helvetica,sans-Serif" font-size="10.00" fill="#000000">iDynTree/Core/Span.h</text>
</g>
<!-- Node13&#45;&gt;Node14 -->
<g id="edge17" class="edge">
<title>Node13&#45;&gt;Node14</title>
<path fill="none" stroke="#191970" d="M207.3336,-123.4639C190.8451,-112.526 168.5996,-97.769 152.0278,-86.7759"/>
<polygon fill="#191970" stroke="#191970" points="153.7455,-83.7153 143.4776,-81.1039 149.8759,-89.5485 153.7455,-83.7153"/>
</g>
<!-- Node15 -->
<g id="node16" class="node">
<title>Node15</title>
<polygon fill="none" stroke="#bfbfbf" points="204.5,-62 204.5,-81 263.5,-81 263.5,-62 204.5,-62"/>
<text text-anchor="middle" x="234" y="-69" font-family="Helvetica,sans-Serif" font-size="10.00" fill="#000000">functional</text>
</g>
<!-- Node13&#45;&gt;Node15 -->
<g id="edge19" class="edge">
<title>Node13&#45;&gt;Node15</title>
<path fill="none" stroke="#191970" d="M230.9077,-123.2967C231.4764,-113.7699 232.2152,-101.3954 232.828,-91.1306"/>
<polygon fill="#191970" stroke="#191970" points="236.3273,-91.2458 233.4296,-81.055 229.3397,-90.8286 236.3273,-91.2458"/>
</g>
<!-- Node16 -->
<g id="node17" class="node">
<title>Node16</title>
<polygon fill="none" stroke="#bfbfbf" points="281.5,-62 281.5,-81 330.5,-81 330.5,-62 281.5,-62"/>
<text text-anchor="middle" x="306" y="-69" font-family="Helvetica,sans-Serif" font-size="10.00" fill="#000000">cassert</text>
</g>
<!-- Node13&#45;&gt;Node16 -->
<g id="edge20" class="edge">
<title>Node13&#45;&gt;Node16</title>
<path fill="none" stroke="#191970" d="M247.2456,-123.2967C259.2017,-112.7564 275.1119,-98.7303 287.3604,-87.9323"/>
<polygon fill="#191970" stroke="#191970" points="289.9748,-90.2934 295.1615,-81.055 285.3457,-85.0425 289.9748,-90.2934"/>
</g>
<!-- Node17&#45;&gt;Node5 -->
<g id="edge25" class="edge">
<title>Node17&#45;&gt;Node5</title>
<path fill="none" stroke="#191970" d="M525.7536,-220.6432C526.7067,-228.5143 526.9761,-238.3414 526.5616,-247.3179"/>
<polygon fill="#191970" stroke="#191970" points="523.072,-247.0487 525.7608,-257.2967 530.0496,-247.6087 523.072,-247.0487"/>
</g>
</g>
</svg>
        <g id="navigator" transform="translate(0 0)" fill="#404254">
                <rect fill="#f2f5e9" fill-opacity="0.5" stroke="#606060" stroke-width=".5" x="0" y="0" width="60" height="60"/>
                <use id="zoomplus" xlink:href="#zoomPlus" x="17" y="9" onmousedown="handleZoom(evt,'in')"/>
                <use id="zoomminus" xlink:href="#zoomMin" x="42" y="9" onmousedown="handleZoom(evt,'out')"/>
                <use id="reset" xlink:href="#resetDef" x="30" y="36" onmousedown="handleReset()"/>
                <g id="arrowUp" xlink:href="#dirArrow" transform="translate(30 24)" onmousedown="handlePan(0,-1)">
                  <use xlink:href="#rim" fill="#404040">
                        <set attributeName="fill" to="#808080" begin="arrowUp.mouseover" end="arrowUp.mouseout"/>
                  </use>
                  <path fill="none" stroke="white" stroke-width="1.5" d="M0,-3.0v7 M-2.5,-0.5L0,-3.0L2.5,-0.5"/>
                </g>
                <g id="arrowRight" xlink:href="#dirArrow" transform="rotate(90) translate(36 -43)" onmousedown="handlePan(1,0)">
                  <use xlink:href="#rim" fill="#404040">
                        <set attributeName="fill" to="#808080" begin="arrowRight.mouseover" end="arrowRight.mouseout"/>
                  </use>
                  <path fill="none" stroke="white" stroke-width="1.5" d="M0,-3.0v7 M-2.5,-0.5L0,-3.0L2.5,-0.5"/>
                </g>
                <g id="arrowDown" xlink:href="#dirArrow" transform="rotate(180) translate(-30 -48)" onmousedown="handlePan(0,1)">
                  <use xlink:href="#rim" fill="#404040">
                        <set attributeName="fill" to="#808080" begin="arrowDown.mouseover" end="arrowDown.mouseout"/>
                  </use>
                  <path fill="none" stroke="white" stroke-width="1.5" d="M0,-3.0v7 M-2.5,-0.5L0,-3.0L2.5,-0.5"/>
                </g>
                <g id="arrowLeft" xlink:href="#dirArrow" transform="rotate(270) translate(-36 17)" onmousedown="handlePan(-1,0)">
                  <use xlink:href="#rim" fill="#404040">
                        <set attributeName="fill" to="#808080" begin="arrowLeft.mouseover" end="arrowLeft.mouseout"/>
                  </use>
                  <path fill="none" stroke="white" stroke-width="1.5" d="M0,-3.0v7 M-2.5,-0.5L0,-3.0L2.5,-0.5"/>
                </g>
        </g>
        <svg viewBox="0 0 15 15" width="100%" height="30px" preserveAspectRatio="xMaxYMin meet">
         <g id="arrow_out" transform="scale(0.3 0.3)">
          <a xlink:href="LinearTimeInvariantSystem_8cpp__incl_org.svg" target="_base">
           <rect id="button" ry="5" rx="5" y="6" x="6" height="38" width="38"
                fill="#f2f5e9" fill-opacity="0.5" stroke="#606060" stroke-width="1.0"/>
           <path id="arrow"
             d="M 11.500037,31.436501 C 11.940474,20.09759 22.043105,11.32322 32.158766,21.979434 L 37.068811,17.246167 C 37.068811,17.246167 37.088388,32 37.088388,32 L 22.160133,31.978069 C 22.160133,31.978069 26.997745,27.140456 26.997745,27.140456 C 18.528582,18.264221 13.291696,25.230495 11.500037,31.436501 z"
             style="fill:#404040;"/>
          </a>
         </g>
        </svg>
</svg>
