<?xml version="1.0" encoding="UTF-8" standalone="no"?>
<!DOCTYPE svg PUBLIC "-//W3C//DTD SVG 1.1//EN"
 "http://www.w3.org/Graphics/SVG/1.1/DTD/svg11.dtd">
<!-- Generated by graphviz version 2.40.1 (20161225.0304)
 -->
<!-- Title: System/include/BipedalLocomotion/System/LinearTimeInvariantSystem.h Pages: 1 -->
<svg width="689pt" height="363pt"
 viewBox="0.00 0.00 688.50 363.00" xmlns="http://www.w3.org/2000/svg" xmlns:xlink="http://www.w3.org/1999/xlink">
<g id="graph0" class="graph" transform="scale(1 1) rotate(0) translate(4 359)">
<title>System/include/BipedalLocomotion/System/LinearTimeInvariantSystem.h</title>
<!-- Node0 -->
<g id="node1" class="node">
<title>Node0</title>
<polygon fill="#bfbfbf" stroke="#000000" points="359,-324.5 359,-354.5 543,-354.5 543,-324.5 359,-324.5"/>
<text text-anchor="start" x="367" y="-342.5" font-family="Helvetica,sans-Serif" font-size="10.00" fill="#000000">System/include/BipedalLocomotion</text>
<text text-anchor="middle" x="451" y="-331.5" font-family="Helvetica,sans-Serif" font-size="10.00" fill="#000000">/System/LinearTimeInvariantSystem.h</text>
</g>
<!-- Node1 -->
<g id="node2" class="node">
<title>Node1</title>
<polygon fill="none" stroke="#bfbfbf" points="553,-62 553,-81 605,-81 605,-62 553,-62"/>
<text text-anchor="middle" x="579" y="-69" font-family="Helvetica,sans-Serif" font-size="10.00" fill="#000000">memory</text>
</g>
<!-- Node0&#45;&gt;Node1 -->
<g id="edge1" class="edge">
<title>Node0&#45;&gt;Node1</title>
<path fill="none" stroke="#191970" d="M466.1941,-324.3866C486.8082,-303.0883 523.5223,-262.2197 545,-221 559.3599,-193.4406 557.9428,-184.2642 565,-154 569.9322,-132.8486 573.8783,-108.2657 576.3079,-91.4727"/>
<polygon fill="#191970" stroke="#191970" points="579.8216,-91.6177 577.7412,-81.2292 572.8892,-90.6477 579.8216,-91.6177"/>
</g>
<!-- Node2 -->
<g id="node3" class="node">
<title>Node2</title>
<polygon fill="none" stroke="#bfbfbf" points="51,-129 51,-148 95,-148 95,-129 51,-129"/>
<text text-anchor="middle" x="73" y="-136" font-family="Helvetica,sans-Serif" font-size="10.00" fill="#000000">vector</text>
</g>
<!-- Node0&#45;&gt;Node2 -->
<g id="edge2" class="edge">
<title>Node0&#45;&gt;Node2</title>
<path fill="none" stroke="#191970" d="M358.9979,-327.6433C285.7305,-313.7223 185.0119,-283.9396 120,-221 101.2885,-202.885 87.7714,-175.7068 80.164,-157.5519"/>
<polygon fill="#191970" stroke="#191970" points="83.3274,-156.0352 76.3733,-148.042 76.8249,-158.6272 83.3274,-156.0352"/>
</g>
<!-- Node3 -->
<g id="node4" class="node">
<title>Node3</title>
<g id="a_node4"><a xlink:href="DynamicalSystem_8h.html" target="_top" xlink:title="BipedalLocomotion/System\l/DynamicalSystem.h">
<polygon fill="none" stroke="#000000" points="256,-257.5 256,-287.5 392,-287.5 392,-257.5 256,-257.5"/>
<text text-anchor="start" x="264" y="-275.5" font-family="Helvetica,sans-Serif" font-size="10.00" fill="#000000">BipedalLocomotion/System</text>
<text text-anchor="middle" x="324" y="-264.5" font-family="Helvetica,sans-Serif" font-size="10.00" fill="#000000">/DynamicalSystem.h</text>
</a>
</g>
</g>
<!-- Node0&#45;&gt;Node3 -->
<g id="edge3" class="edge">
<title>Node0&#45;&gt;Node3</title>
<path fill="none" stroke="#191970" d="M422.4987,-324.4639C404.5687,-315.0047 381.2247,-302.6894 361.763,-292.4222"/>
<polygon fill="#191970" stroke="#191970" points="363.3234,-289.2882 352.8456,-287.7177 360.0571,-295.4795 363.3234,-289.2882"/>
</g>
<!-- Node17 -->
<g id="node18" class="node">
<title>Node17</title>
<polygon fill="none" stroke="#bfbfbf" points="607.5,-263 607.5,-282 680.5,-282 680.5,-263 607.5,-263"/>
<text text-anchor="middle" x="644" y="-270" font-family="Helvetica,sans-Serif" font-size="10.00" fill="#000000">Eigen/Dense</text>
</g>
<!-- Node0&#45;&gt;Node17 -->
<g id="edge24" class="edge">
<title>Node0&#45;&gt;Node17</title>
<path fill="none" stroke="#191970" d="M494.313,-324.4639C528.2553,-312.6808 574.9645,-296.4657 607.1329,-285.2984"/>
<polygon fill="#191970" stroke="#191970" points="608.32,-288.5913 616.6191,-282.0053 606.0243,-281.9784 608.32,-288.5913"/>
</g>
<!-- Node3&#45;&gt;Node1 -->
<g id="edge4" class="edge">
<title>Node3&#45;&gt;Node1</title>
<path fill="none" stroke="#191970" d="M392.0661,-261.6348C441.4244,-252.5204 502.7534,-238.2415 522,-221 541.9688,-203.1116 564.2314,-127.2004 573.9751,-90.9387"/>
<polygon fill="#191970" stroke="#191970" points="577.4129,-91.6282 576.5807,-81.0661 570.6447,-89.8418 577.4129,-91.6282"/>
</g>
<!-- Node4 -->
<g id="node5" class="node">
<title>Node4</title>
<polygon fill="none" stroke="#bfbfbf" points="305,-196 305,-215 343,-215 343,-196 305,-196"/>
<text text-anchor="middle" x="324" y="-203" font-family="Helvetica,sans-Serif" font-size="10.00" fill="#000000">tuple</text>
</g>
<!-- Node3&#45;&gt;Node4 -->
<g id="edge5" class="edge">
<title>Node3&#45;&gt;Node4</title>
<path fill="none" stroke="#191970" d="M324,-257.2967C324,-247.7699 324,-235.3954 324,-225.1306"/>
<polygon fill="#191970" stroke="#191970" points="327.5001,-225.0549 324,-215.055 320.5001,-225.055 327.5001,-225.0549"/>
</g>
<!-- Node5 -->
<g id="node6" class="node">
<title>Node5</title>
<g id="a_node6"><a xlink:href="TemplateHelpers_8h_source.html" target="_top" xlink:title="BipedalLocomotion/Generic\lContainer/TemplateHelpers.h">
<polygon fill="none" stroke="#000000" points="41,-56.5 41,-86.5 185,-86.5 185,-56.5 41,-56.5"/>
<text text-anchor="start" x="49" y="-74.5" font-family="Helvetica,sans-Serif" font-size="10.00" fill="#000000">BipedalLocomotion/Generic</text>
<text text-anchor="middle" x="113" y="-63.5" font-family="Helvetica,sans-Serif" font-size="10.00" fill="#000000">Container/TemplateHelpers.h</text>
</a>
</g>
</g>
<!-- Node3&#45;&gt;Node5 -->
<g id="edge6" class="edge">
<title>Node3&#45;&gt;Node5</title>
<path fill="none" stroke="#191970" d="M255.8211,-260.8814C210.9074,-251.8376 157.6113,-237.9837 142,-221 110.8148,-187.0734 108.6513,-130.0433 110.4468,-97.0964"/>
<polygon fill="#191970" stroke="#191970" points="113.9526,-97.1377 111.1712,-86.9145 106.9702,-96.6409 113.9526,-97.1377"/>
</g>
<!-- Node9 -->
<g id="node10" class="node">
<title>Node9</title>
<g id="a_node10"><a xlink:href="IParametersHandler_8h.html" target="_top" xlink:title="BipedalLocomotion/Parameters\lHandler/IParametersHandler.h">
<polygon fill="none" stroke="#000000" points="361,-190.5 361,-220.5 513,-220.5 513,-190.5 361,-190.5"/>
<text text-anchor="start" x="369" y="-208.5" font-family="Helvetica,sans-Serif" font-size="10.00" fill="#000000">BipedalLocomotion/Parameters</text>
<text text-anchor="middle" x="437" y="-197.5" font-family="Helvetica,sans-Serif" font-size="10.00" fill="#000000">Handler/IParametersHandler.h</text>
</a>
</g>
</g>
<!-- Node3&#45;&gt;Node9 -->
<g id="edge10" class="edge">
<title>Node3&#45;&gt;Node9</title>
<path fill="none" stroke="#191970" d="M349.3594,-257.4639C365.0963,-248.1332 385.5205,-236.0232 402.6928,-225.8415"/>
<polygon fill="#191970" stroke="#191970" points="404.5176,-228.8285 411.3343,-220.7177 400.9475,-222.8073 404.5176,-228.8285"/>
</g>
<!-- Node16 -->
<g id="node17" class="node">
<title>Node16</title>
<g id="a_node17"><a xlink:href="DynamicalSystem_8tpp.html" target="_top" xlink:title="BipedalLocomotion/System\l/DynamicalSystem.tpp">
<polygon fill="none" stroke="#000000" points="151,-190.5 151,-220.5 287,-220.5 287,-190.5 151,-190.5"/>
<text text-anchor="start" x="159" y="-208.5" font-family="Helvetica,sans-Serif" font-size="10.00" fill="#000000">BipedalLocomotion/System</text>
<text text-anchor="middle" x="219" y="-197.5" font-family="Helvetica,sans-Serif" font-size="10.00" fill="#000000">/DynamicalSystem.tpp</text>
</a>
</g>
</g>
<!-- Node3&#45;&gt;Node16 -->
<g id="edge22" class="edge">
<title>Node3&#45;&gt;Node16</title>
<path fill="none" stroke="#191970" d="M294.6954,-257.4639C279.222,-248.3044 260.4817,-236.4667 245.4531,-226.4038"/>
<polygon fill="#191970" stroke="#191970" points="247.3243,-223.4438 237.0861,-220.7177 243.3897,-229.2334 247.3243,-223.4438"/>
</g>
<!-- Node6 -->
<g id="node7" class="node">
<title>Node6</title>
<polygon fill="none" stroke="#bfbfbf" points="0,-.5 0,-19.5 62,-19.5 62,-.5 0,-.5"/>
<text text-anchor="middle" x="31" y="-7.5" font-family="Helvetica,sans-Serif" font-size="10.00" fill="#000000">type_traits</text>
</g>
<!-- Node5&#45;&gt;Node6 -->
<g id="edge7" class="edge">
<title>Node5&#45;&gt;Node6</title>
<path fill="none" stroke="#191970" d="M92.7303,-56.2977C80.3994,-47.0495 64.6734,-35.2551 52.1803,-25.8853"/>
<polygon fill="#191970" stroke="#191970" points="54.2293,-23.047 44.1292,-19.8469 50.0292,-28.647 54.2293,-23.047"/>
</g>
<!-- Node7 -->
<g id="node8" class="node">
<title>Node7</title>
<polygon fill="none" stroke="#bfbfbf" points="80,-.5 80,-19.5 146,-19.5 146,-.5 80,-.5"/>
<text text-anchor="middle" x="113" y="-7.5" font-family="Helvetica,sans-Serif" font-size="10.00" fill="#000000">string_view</text>
</g>
<!-- Node5&#45;&gt;Node7 -->
<g id="edge8" class="edge">
<title>Node5&#45;&gt;Node7</title>
<path fill="none" stroke="#191970" d="M113,-56.2977C113,-48.3834 113,-38.6043 113,-30.0759"/>
<polygon fill="#191970" stroke="#191970" points="116.5001,-29.8469 113,-19.8469 109.5001,-29.847 116.5001,-29.8469"/>
</g>
<!-- Node8 -->
<g id="node9" class="node">
<title>Node8</title>
<polygon fill="none" stroke="#bfbfbf" points="164.5,-.5 164.5,-19.5 229.5,-19.5 229.5,-.5 164.5,-.5"/>
<text text-anchor="middle" x="197" y="-7.5" font-family="Helvetica,sans-Serif" font-size="10.00" fill="#000000">Eigen/Core</text>
</g>
<!-- Node5&#45;&gt;Node8 -->
<g id="edge9" class="edge">
<title>Node5&#45;&gt;Node8</title>
<path fill="none" stroke="#191970" d="M133.7641,-56.2977C146.3958,-47.0495 162.5053,-35.2551 175.3031,-25.8853"/>
<polygon fill="#191970" stroke="#191970" points="177.5495,-28.5784 183.5505,-19.8469 173.4143,-22.9303 177.5495,-28.5784"/>
</g>
<!-- Node9&#45;&gt;Node1 -->
<g id="edge11" class="edge">
<title>Node9&#45;&gt;Node1</title>
<path fill="none" stroke="#191970" d="M453.0132,-190.389C479.8156,-165.0965 533.555,-114.3847 561.3882,-88.1196"/>
<polygon fill="#191970" stroke="#191970" points="563.9516,-90.513 568.8225,-81.1042 559.1473,-85.4219 563.9516,-90.513"/>
</g>
<!-- Node9&#45;&gt;Node2 -->
<g id="edge13" class="edge">
<title>Node9&#45;&gt;Node2</title>
<path fill="none" stroke="#191970" d="M360.6937,-191.4546C281.603,-176.8967 161.7604,-154.8378 104.9853,-144.3874"/>
<polygon fill="#191970" stroke="#191970" points="105.6105,-140.9438 95.1421,-142.5756 104.3433,-147.8281 105.6105,-140.9438"/>
</g>
<!-- Node9&#45;&gt;Node5 -->
<g id="edge21" class="edge">
<title>Node9&#45;&gt;Node5</title>
<path fill="none" stroke="#191970" d="M369.853,-190.4012C335.4274,-181.6382 293.2332,-169.2964 257,-154 216.2822,-136.8104 172.6576,-110.5991 144.2298,-92.35"/>
<polygon fill="#191970" stroke="#191970" points="145.8516,-89.2303 135.5569,-86.7263 142.0431,-95.1036 145.8516,-89.2303"/>
</g>
<!-- Node10 -->
<g id="node11" class="node">
<title>Node10</title>
<polygon fill="none" stroke="#bfbfbf" points="420.5,-129 420.5,-148 461.5,-148 461.5,-129 420.5,-129"/>
<text text-anchor="middle" x="441" y="-136" font-family="Helvetica,sans-Serif" font-size="10.00" fill="#000000">string</text>
</g>
<!-- Node9&#45;&gt;Node10 -->
<g id="edge12" class="edge">
<title>Node9&#45;&gt;Node10</title>
<path fill="none" stroke="#191970" d="M437.9077,-190.2967C438.4764,-180.7699 439.2152,-168.3954 439.828,-158.1306"/>
<polygon fill="#191970" stroke="#191970" points="443.3273,-158.2458 440.4296,-148.055 436.3397,-157.8286 443.3273,-158.2458"/>
</g>
<!-- Node11 -->
<g id="node12" class="node">
<title>Node11</title>
<g id="a_node12"><a xlink:href="Vector_8h_source.html" target="_top" xlink:title="BipedalLocomotion/Generic\lContainer/Vector.h">
<polygon fill="none" stroke="#000000" points="266,-123.5 266,-153.5 402,-153.5 402,-123.5 266,-123.5"/>
<text text-anchor="start" x="274" y="-141.5" font-family="Helvetica,sans-Serif" font-size="10.00" fill="#000000">BipedalLocomotion/Generic</text>
<text text-anchor="middle" x="334" y="-130.5" font-family="Helvetica,sans-Serif" font-size="10.00" fill="#000000">Container/Vector.h</text>
</a>
</g>
</g>
<!-- Node9&#45;&gt;Node11 -->
<g id="edge14" class="edge">
<title>Node9&#45;&gt;Node11</title>
<path fill="none" stroke="#191970" d="M413.8848,-190.4639C399.8037,-181.3044 381.6055,-169.4667 366.1358,-159.4038"/>
<polygon fill="#191970" stroke="#191970" points="367.6855,-156.2366 357.3944,-153.7177 363.8685,-162.1044 367.6855,-156.2366"/>
</g>
<!-- Node11&#45;&gt;Node1 -->
<g id="edge20" class="edge">
<title>Node11&#45;&gt;Node1</title>
<path fill="none" stroke="#191970" d="M402.0191,-125.0093C443.5581,-115.9878 497.457,-102.8743 544,-87 545.8398,-86.3725 547.716,-85.6861 549.5965,-84.9623"/>
<polygon fill="#191970" stroke="#191970" points="550.9725,-88.1809 558.8833,-81.1331 548.3041,-81.7094 550.9725,-88.1809"/>
</g>
<!-- Node11&#45;&gt;Node5 -->
<g id="edge16" class="edge">
<title>Node11&#45;&gt;Node5</title>
<path fill="none" stroke="#191970" d="M284.4033,-123.4639C251.2505,-113.4131 207.4611,-100.1375 172.4416,-89.5208"/>
<polygon fill="#191970" stroke="#191970" points="173.3984,-86.1536 162.813,-86.6017 171.3674,-92.8525 173.3984,-86.1536"/>
</g>
<!-- Node12 -->
<g id="node13" class="node">
<title>Node12</title>
<polygon fill="none" stroke="#bfbfbf" points="343,-62 343,-81 457,-81 457,-62 343,-62"/>
<text text-anchor="middle" x="400" y="-69" font-family="Helvetica,sans-Serif" font-size="10.00" fill="#000000">iDynTree/Core/Span.h</text>
</g>
<!-- Node11&#45;&gt;Node12 -->
<g id="edge15" class="edge">
<title>Node11&#45;&gt;Node12</title>
<path fill="none" stroke="#191970" d="M348.9764,-123.2967C359.2595,-112.8578 372.9108,-98.9997 383.5053,-88.2446"/>
<polygon fill="#191970" stroke="#191970" points="386.0633,-90.6352 390.5876,-81.055 381.0765,-85.7228 386.0633,-90.6352"/>
</g>
<!-- Node13 -->
<g id="node14" class="node">
<title>Node13</title>
<polygon fill="none" stroke="#bfbfbf" points="475.5,-62 475.5,-81 534.5,-81 534.5,-62 475.5,-62"/>
<text text-anchor="middle" x="505" y="-69" font-family="Helvetica,sans-Serif" font-size="10.00" fill="#000000">functional</text>
</g>
<!-- Node11&#45;&gt;Node13 -->
<g id="edge17" class="edge">
<title>Node11&#45;&gt;Node13</title>
<path fill="none" stroke="#191970" d="M372.7237,-123.4658C399.044,-113.229 434.6429,-99.3481 466,-87 467.8304,-86.2792 469.7085,-85.538 471.604,-84.7888"/>
<polygon fill="#191970" stroke="#191970" points="473.0767,-87.9701 481.0843,-81.0325 470.4982,-81.4623 473.0767,-87.9701"/>
</g>
<!-- Node14 -->
<g id="node15" class="node">
<title>Node14</title>
<polygon fill="none" stroke="#bfbfbf" points="203.5,-62 203.5,-81 252.5,-81 252.5,-62 203.5,-62"/>
<text text-anchor="middle" x="228" y="-69" font-family="Helvetica,sans-Serif" font-size="10.00" fill="#000000">cassert</text>
</g>
<!-- Node11&#45;&gt;Node14 -->
<g id="edge18" class="edge">
<title>Node11&#45;&gt;Node14</title>
<path fill="none" stroke="#191970" d="M310.2115,-123.4639C292.7465,-112.4247 269.1271,-97.4954 251.6862,-86.4715"/>
<polygon fill="#191970" stroke="#191970" points="253.5173,-83.4883 243.1943,-81.1039 249.7772,-89.4054 253.5173,-83.4883"/>
</g>
<!-- Node15 -->
<g id="node16" class="node">
<title>Node15</title>
<polygon fill="none" stroke="#bfbfbf" points="271,-62 271,-81 325,-81 325,-62 271,-62"/>
<text text-anchor="middle" x="298" y="-69" font-family="Helvetica,sans-Serif" font-size="10.00" fill="#000000">iostream</text>
</g>
<!-- Node11&#45;&gt;Node15 -->
<g id="edge19" class="edge">
<title>Node11&#45;&gt;Node15</title>
<path fill="none" stroke="#191970" d="M325.831,-123.2967C320.5488,-113.4658 313.6372,-100.6026 308.0233,-90.1545"/>
<polygon fill="#191970" stroke="#191970" points="310.9504,-88.2073 303.134,-81.055 304.7841,-91.5205 310.9504,-88.2073"/>
</g>
<!-- Node16&#45;&gt;Node3 -->
<g id="edge23" class="edge">
<title>Node16&#45;&gt;Node3</title>
<path fill="none" stroke="#191970" d="M248.4854,-220.6432C263.9405,-229.7976 282.6171,-241.5979 297.5954,-251.6286"/>
<polygon fill="#191970" stroke="#191970" points="295.6967,-254.57 305.9347,-257.2967 299.6316,-248.7807 295.6967,-254.57"/>
</g>
</g>
</svg>
