<?xml version="1.0" encoding="UTF-8" standalone="no"?>
<!DOCTYPE svg PUBLIC "-//W3C//DTD SVG 1.1//EN"
 "http://www.w3.org/Graphics/SVG/1.1/DTD/svg11.dtd">
<!-- Generated by graphviz version 2.40.1 (20161225.0304)
 -->
<!-- Title: Conversions/include/BipedalLocomotion/Conversions/ManifConversions.h Pages: 1 -->
<svg width="480pt" height="117pt"
 viewBox="0.00 0.00 479.50 117.00" xmlns="http://www.w3.org/2000/svg" xmlns:xlink="http://www.w3.org/1999/xlink">
<g id="graph0" class="graph" transform="scale(1 1) rotate(0) translate(4 113)">
<title>Conversions/include/BipedalLocomotion/Conversions/ManifConversions.h</title>
<!-- Node4 -->
<g id="node1" class="node">
<title>Node4</title>
<polygon fill="#bfbfbf" stroke="#000000" points="166,-67.5 166,-108.5 326,-108.5 326,-67.5 166,-67.5"/>
<text text-anchor="start" x="174" y="-96.5" font-family="Helvetica,sans-Serif" font-size="10.00" fill="#000000">Conversions/include</text>
<text text-anchor="start" x="174" y="-85.5" font-family="Helvetica,sans-Serif" font-size="10.00" fill="#000000">/BipedalLocomotion/Conversions</text>
<text text-anchor="middle" x="246" y="-74.5" font-family="Helvetica,sans-Serif" font-size="10.00" fill="#000000">/ManifConversions.h</text>
</g>
<!-- Node5 -->
<g id="node2" class="node">
<title>Node5</title>
<g id="a_node2"><a xlink:href="FloatingBaseEstimator_8cpp.html" target="_top" xlink:title="Estimators/src/FloatingBase\lEstimator.cpp">
<polygon fill="none" stroke="#000000" points="0,-.5 0,-30.5 140,-30.5 140,-.5 0,-.5"/>
<text text-anchor="start" x="8" y="-18.5" font-family="Helvetica,sans-Serif" font-size="10.00" fill="#000000">Estimators/src/FloatingBase</text>
<text text-anchor="middle" x="70" y="-7.5" font-family="Helvetica,sans-Serif" font-size="10.00" fill="#000000">Estimator.cpp</text>
</a>
</g>
</g>
<!-- Node4&#45;&gt;Node5 -->
<g id="edge1" class="edge">
<title>Node4&#45;&gt;Node5</title>
<path fill="none" stroke="#191970" d="M186.4839,-63.4834C160.0277,-52.5853 129.7215,-40.1012 106.6544,-30.5991"/>
<polygon fill="#191970" stroke="#191970" points="185.4569,-66.8456 196.0362,-67.4183 188.1231,-60.3733 185.4569,-66.8456"/>
</g>
<!-- Node6 -->
<g id="node3" class="node">
<title>Node6</title>
<g id="a_node3"><a xlink:href="LeggedOdometry_8cpp.html" target="_top" xlink:title="Estimators/src/LeggedOdometry.cpp">
<polygon fill="none" stroke="#000000" points="158,-6 158,-25 334,-25 334,-6 158,-6"/>
<text text-anchor="middle" x="246" y="-13" font-family="Helvetica,sans-Serif" font-size="10.00" fill="#000000">Estimators/src/LeggedOdometry.cpp</text>
</a>
</g>
</g>
<!-- Node4&#45;&gt;Node6 -->
<g id="edge2" class="edge">
<title>Node4&#45;&gt;Node6</title>
<path fill="none" stroke="#191970" d="M246,-57.1575C246,-45.6039 246,-33.3007 246,-25.0853"/>
<polygon fill="#191970" stroke="#191970" points="242.5001,-57.4183 246,-67.4183 249.5001,-57.4184 242.5001,-57.4183"/>
</g>
<!-- Node7 -->
<g id="node4" class="node">
<title>Node7</title>
<g id="a_node4"><a xlink:href="SE3Task_8cpp.html" target="_top" xlink:title="TSID/src/SE3Task.cpp">
<polygon fill="none" stroke="#000000" points="352.5,-6 352.5,-25 471.5,-25 471.5,-6 352.5,-6"/>
<text text-anchor="middle" x="412" y="-13" font-family="Helvetica,sans-Serif" font-size="10.00" fill="#000000">TSID/src/SE3Task.cpp</text>
</a>
</g>
</g>
<!-- Node4&#45;&gt;Node7 -->
<g id="edge3" class="edge">
<title>Node4&#45;&gt;Node7</title>
<path fill="none" stroke="#191970" d="M302.6744,-63.2476C332.7131,-50.1283 367.8835,-34.7678 390.0529,-25.0853"/>
<polygon fill="#191970" stroke="#191970" points="300.8882,-60.2084 293.1249,-67.4183 303.6899,-66.6233 300.8882,-60.2084"/>
</g>
</g>
</svg>
