<?xml version="1.0" encoding="UTF-8" standalone="no"?>
<!DOCTYPE svg PUBLIC "-//W3C//DTD SVG 1.1//EN"
 "http://www.w3.org/Graphics/SVG/1.1/DTD/svg11.dtd">
<!-- Generated by graphviz version 2.40.1 (20161225.0304)
 -->
<!-- Title: Conversions/include/BipedalLocomotion/Conversions/ManifConversions.h Pages: 1 -->
<svg width="406pt" height="106pt"
 viewBox="0.00 0.00 406.00 106.00" xmlns="http://www.w3.org/2000/svg" xmlns:xlink="http://www.w3.org/1999/xlink">
<g id="graph0" class="graph" transform="scale(1 1) rotate(0) translate(4 102)">
<title>Conversions/include/BipedalLocomotion/Conversions/ManifConversions.h</title>
<!-- Node0 -->
<g id="node1" class="node">
<title>Node0</title>
<polygon fill="#bfbfbf" stroke="#000000" points="149,-56.5 149,-97.5 309,-97.5 309,-56.5 149,-56.5"/>
<text text-anchor="start" x="157" y="-85.5" font-family="Helvetica,sans-Serif" font-size="10.00" fill="#000000">Conversions/include</text>
<text text-anchor="start" x="157" y="-74.5" font-family="Helvetica,sans-Serif" font-size="10.00" fill="#000000">/BipedalLocomotion/Conversions</text>
<text text-anchor="middle" x="229" y="-63.5" font-family="Helvetica,sans-Serif" font-size="10.00" fill="#000000">/ManifConversions.h</text>
</g>
<!-- Node1 -->
<g id="node2" class="node">
<title>Node1</title>
<polygon fill="none" stroke="#bfbfbf" points="0,-.5 0,-19.5 136,-19.5 136,-.5 0,-.5"/>
<text text-anchor="middle" x="68" y="-7.5" font-family="Helvetica,sans-Serif" font-size="10.00" fill="#000000">iDynTree/Core/Transform.h</text>
</g>
<!-- Node0&#45;&gt;Node1 -->
<g id="edge1" class="edge">
<title>Node0&#45;&gt;Node1</title>
<path fill="none" stroke="#191970" d="M179.381,-56.3511C153.7872,-45.7003 123.2846,-33.0066 100.6766,-23.5983"/>
<polygon fill="#191970" stroke="#191970" points="101.7772,-20.2654 91.1999,-19.6546 99.0877,-26.7281 101.7772,-20.2654"/>
</g>
<!-- Node2 -->
<g id="node3" class="node">
<title>Node2</title>
<polygon fill="none" stroke="#bfbfbf" points="154,-.5 154,-19.5 304,-19.5 304,-.5 154,-.5"/>
<text text-anchor="middle" x="229" y="-7.5" font-family="Helvetica,sans-Serif" font-size="10.00" fill="#000000">iDynTree/Core/EigenHelpers.h</text>
</g>
<!-- Node0&#45;&gt;Node2 -->
<g id="edge2" class="edge">
<title>Node0&#45;&gt;Node2</title>
<path fill="none" stroke="#191970" d="M229,-56.168C229,-47.8226 229,-38.2471 229,-29.9879"/>
<polygon fill="#191970" stroke="#191970" points="232.5001,-29.7804 229,-19.7805 225.5001,-29.7805 232.5001,-29.7804"/>
</g>
<!-- Node3 -->
<g id="node4" class="node">
<title>Node3</title>
<polygon fill="none" stroke="#bfbfbf" points="322,-.5 322,-19.5 398,-19.5 398,-.5 322,-.5"/>
<text text-anchor="middle" x="360" y="-7.5" font-family="Helvetica,sans-Serif" font-size="10.00" fill="#000000">manif/manif.h</text>
</g>
<!-- Node0&#45;&gt;Node3 -->
<g id="edge3" class="edge">
<title>Node0&#45;&gt;Node3</title>
<path fill="none" stroke="#191970" d="M269.3732,-56.3511C289.7311,-45.9391 313.9059,-33.5748 332.1653,-24.2361"/>
<polygon fill="#191970" stroke="#191970" points="333.8136,-27.3243 341.123,-19.6546 330.6261,-21.0921 333.8136,-27.3243"/>
</g>
</g>
</svg>
