<?xml version="1.0" encoding="UTF-8" standalone="no"?>
<!DOCTYPE svg PUBLIC "-//W3C//DTD SVG 1.1//EN"
 "http://www.w3.org/Graphics/SVG/1.1/DTD/svg11.dtd">
<!-- Generated by graphviz version 2.40.1 (20161225.0304)
 -->
<!-- Title: Conversions/include/BipedalLocomotion/Conversions/matioCppConversions.h Pages: 1 -->
<!--zoomable 240 -->
<svg id="main" version="1.1" xmlns="http://www.w3.org/2000/svg" xmlns:xlink="http://www.w3.org/1999/xlink" xml:space="preserve" onload="init(evt)">
<style type="text/css"><![CDATA[
.edge:hover path { stroke: red; }
.edge:hover polygon { stroke: red; fill: red; }
]]></style>
<script type="text/javascript"><![CDATA[
var edges = document.getElementsByTagName('g');
if (edges && edges.length) {
  for (var i=0;i<edges.length;i++) {
    if (edges[i].id.substr(0,4)=='edge') {
      edges[i].setAttribute('class','edge');
    }
  }
}
]]></script>
        <defs>
                <circle id="rim" cx="0" cy="0" r="7"/>
                <circle id="rim2" cx="0" cy="0" r="3.5"/>
                <g id="zoomPlus">
                        <use xlink:href="#rim" fill="#404040">
                                <set attributeName="fill" to="#808080" begin="zoomplus.mouseover" end="zoomplus.mouseout"/>
                        </use>
                        <path d="M-4,0h8M0,-4v8" fill="none" stroke="white" stroke-width="1.5" pointer-events="none"/>
                </g>
                <g id="zoomMin">
                        <use xlink:href="#rim" fill="#404040">
                                <set attributeName="fill" to="#808080" begin="zoomminus.mouseover" end="zoomminus.mouseout"/>
                        </use>
                        <path d="M-4,0h8" fill="none" stroke="white" stroke-width="1.5" pointer-events="none"/>
                </g>
                <g id="dirArrow">
                        <path fill="none" stroke="white" stroke-width="1.5" d="M0,-3.0v7 M-2.5,-0.5L0,-3.0L2.5,-0.5"/>
                </g>
               <g id="resetDef">
                       <use xlink:href="#rim2" fill="#404040">
                               <set attributeName="fill" to="#808080" begin="reset.mouseover" end="reset.mouseout"/>
                       </use>
               </g>
        </defs>

<script type="text/javascript">
var viewWidth = 906;
var viewHeight = 240;
var sectionId = 'dynsection-0';
</script>
<script xlink:href="svgpan.js"/>
<svg id="graph" class="graph">
<g id="viewport">
<title>Conversions/include/BipedalLocomotion/Conversions/matioCppConversions.h</title>
<!-- Node0 -->
<g id="node1" class="node">
<title>Node0</title>
<polygon fill="#bfbfbf" stroke="#000000" points="274.36,-190.5 274.36,-231.5 434.36,-231.5 434.36,-190.5 274.36,-190.5"/>
<text text-anchor="start" x="282.36" y="-219.5" font-family="Helvetica,sans-Serif" font-size="10.00" fill="#000000">Conversions/include</text>
<text text-anchor="start" x="282.36" y="-208.5" font-family="Helvetica,sans-Serif" font-size="10.00" fill="#000000">/BipedalLocomotion/Conversions</text>
<text text-anchor="middle" x="354.36" y="-197.5" font-family="Helvetica,sans-Serif" font-size="10.00" fill="#000000">/matioCppConversions.h</text>
</g>
<!-- Node1 -->
<g id="node2" class="node">
<title>Node1</title>
<polygon fill="none" stroke="#bfbfbf" points="192.86,-.5 192.86,-19.5 257.86,-19.5 257.86,-.5 192.86,-.5"/>
<text text-anchor="middle" x="225.36" y="-7.5" font-family="Helvetica,sans-Serif" font-size="10.00" fill="#000000">Eigen/Core</text>
</g>
<!-- Node0&#45;&gt;Node1 -->
<g id="edge1" class="edge">
<title>Node0&#45;&gt;Node1</title>
<path fill="none" stroke="#191970" d="M274.2964,-203.0852C178.5888,-192.8015 29.139,-173.807 12.36,-154 -43.2792,-88.3202 105.7717,-39.8802 182.7035,-19.9765"/>
<polygon fill="#191970" stroke="#191970" points="183.7698,-23.3171 192.6045,-17.4692 182.0513,-16.5313 183.7698,-23.3171"/>
</g>
<!-- Node2 -->
<g id="node3" class="node">
<title>Node2</title>
<polygon fill="none" stroke="#bfbfbf" points="21.36,-129 21.36,-148 177.36,-148 177.36,-129 21.36,-129"/>
<text text-anchor="middle" x="99.36" y="-136" font-family="Helvetica,sans-Serif" font-size="10.00" fill="#000000">iDynTree/Core/MatrixDynSize.h</text>
</g>
<!-- Node0&#45;&gt;Node2 -->
<g id="edge2" class="edge">
<title>Node0&#45;&gt;Node2</title>
<path fill="none" stroke="#191970" d="M281.9693,-190.4183C237.0942,-177.6597 180.9409,-161.6946 142.836,-150.8608"/>
<polygon fill="#191970" stroke="#191970" points="143.6499,-147.4536 133.0739,-148.0853 141.7355,-154.1868 143.6499,-147.4536"/>
</g>
<!-- Node3 -->
<g id="node4" class="node">
<title>Node3</title>
<polygon fill="none" stroke="#bfbfbf" points="195.36,-129 195.36,-148 345.36,-148 345.36,-129 195.36,-129"/>
<text text-anchor="middle" x="270.36" y="-136" font-family="Helvetica,sans-Serif" font-size="10.00" fill="#000000">iDynTree/Core/EigenHelpers.h</text>
</g>
<!-- Node0&#45;&gt;Node3 -->
<g id="edge3" class="edge">
<title>Node0&#45;&gt;Node3</title>
<path fill="none" stroke="#191970" d="M330.5136,-190.4183C317.4296,-179.1256 301.4351,-165.3208 289.2288,-154.7856"/>
<polygon fill="#191970" stroke="#191970" points="291.3229,-151.9696 281.4657,-148.0853 286.7492,-157.2688 291.3229,-151.9696"/>
</g>
<!-- Node4 -->
<g id="node5" class="node">
<title>Node4</title>
<polygon fill="none" stroke="#bfbfbf" points="363.36,-129 363.36,-148 515.36,-148 515.36,-129 363.36,-129"/>
<text text-anchor="middle" x="439.36" y="-136" font-family="Helvetica,sans-Serif" font-size="10.00" fill="#000000">iDynTree/Core/MatrixFixSize.h</text>
</g>
<!-- Node0&#45;&gt;Node4 -->
<g id="edge4" class="edge">
<title>Node0&#45;&gt;Node4</title>
<path fill="none" stroke="#191970" d="M378.4902,-190.4183C391.7299,-179.1256 407.9148,-165.3208 420.2665,-154.7856"/>
<polygon fill="#191970" stroke="#191970" points="422.7849,-157.2378 428.122,-148.0853 418.2423,-151.9119 422.7849,-157.2378"/>
</g>
<!-- Node5 -->
<g id="node6" class="node">
<title>Node5</title>
<polygon fill="none" stroke="#bfbfbf" points="533.36,-129 533.36,-148 645.36,-148 645.36,-129 533.36,-129"/>
<text text-anchor="middle" x="589.36" y="-136" font-family="Helvetica,sans-Serif" font-size="10.00" fill="#000000">matioCpp/matioCpp.h</text>
</g>
<!-- Node0&#45;&gt;Node5 -->
<g id="edge5" class="edge">
<title>Node0&#45;&gt;Node5</title>
<path fill="none" stroke="#191970" d="M421.0729,-190.4183C462.0764,-177.7683 513.2974,-161.9661 548.3936,-151.1386"/>
<polygon fill="#191970" stroke="#191970" points="549.7664,-154.3779 558.2902,-148.0853 547.7028,-147.689 549.7664,-154.3779"/>
</g>
<!-- Node6 -->
<g id="node7" class="node">
<title>Node6</title>
<g id="a_node7"><a xlink:href="Vector_8h_source.html" target="_top" xlink:title="BipedalLocomotion/Generic\lContainer/Vector.h">
<polygon fill="none" stroke="#000000" points="663.36,-123.5 663.36,-153.5 799.36,-153.5 799.36,-123.5 663.36,-123.5"/>
<text text-anchor="start" x="671.36" y="-141.5" font-family="Helvetica,sans-Serif" font-size="10.00" fill="#000000">BipedalLocomotion/Generic</text>
<text text-anchor="middle" x="731.36" y="-130.5" font-family="Helvetica,sans-Serif" font-size="10.00" fill="#000000">Container/Vector.h</text>
</a>
</g>
</g>
<!-- Node0&#45;&gt;Node6 -->
<g id="edge6" class="edge">
<title>Node0&#45;&gt;Node6</title>
<path fill="none" stroke="#191970" d="M434.6247,-195.9951C492.5905,-185.1017 573.0364,-169.8672 653.0813,-154.2395"/>
<polygon fill="#191970" stroke="#191970" points="654.2051,-157.5862 663.3478,-152.2325 652.8621,-150.7162 654.2051,-157.5862"/>
</g>
<!-- Node7 -->
<g id="node8" class="node">
<title>Node7</title>
<polygon fill="none" stroke="#bfbfbf" points="335.36,-62 335.36,-81 449.36,-81 449.36,-62 335.36,-62"/>
<text text-anchor="middle" x="392.36" y="-69" font-family="Helvetica,sans-Serif" font-size="10.00" fill="#000000">iDynTree/Core/Span.h</text>
</g>
<!-- Node6&#45;&gt;Node7 -->
<g id="edge7" class="edge">
<title>Node6&#45;&gt;Node7</title>
<path fill="none" stroke="#191970" d="M663.3522,-124.7449C660.3141,-124.151 657.3059,-123.567 654.36,-123 567.388,-106.2604 545.0528,-105.1301 458.36,-87 452.9596,-85.8706 447.324,-84.6351 441.7205,-83.3703"/>
<polygon fill="#191970" stroke="#191970" points="442.2559,-79.9023 431.7265,-81.0784 440.6912,-86.7252 442.2559,-79.9023"/>
</g>
<!-- Node8 -->
<g id="node9" class="node">
<title>Node8</title>
<g id="a_node9"><a xlink:href="TemplateHelpers_8h_source.html" target="_top" xlink:title="BipedalLocomotion/Generic\lContainer/TemplateHelpers.h">
<polygon fill="none" stroke="#000000" points="467.36,-56.5 467.36,-86.5 611.36,-86.5 611.36,-56.5 467.36,-56.5"/>
<text text-anchor="start" x="475.36" y="-74.5" font-family="Helvetica,sans-Serif" font-size="10.00" fill="#000000">BipedalLocomotion/Generic</text>
<text text-anchor="middle" x="539.36" y="-63.5" font-family="Helvetica,sans-Serif" font-size="10.00" fill="#000000">Container/TemplateHelpers.h</text>
</a>
</g>
</g>
<!-- Node6&#45;&gt;Node8 -->
<g id="edge8" class="edge">
<title>Node6&#45;&gt;Node8</title>
<path fill="none" stroke="#191970" d="M688.2714,-123.4639C659.8383,-113.5419 622.3997,-100.4774 592.1754,-89.9304"/>
<polygon fill="#191970" stroke="#191970" points="593.2313,-86.5919 582.6364,-86.6017 590.9249,-93.2011 593.2313,-86.5919"/>
</g>
<!-- Node11 -->
<g id="node12" class="node">
<title>Node11</title>
<polygon fill="none" stroke="#bfbfbf" points="629.86,-62 629.86,-81 688.86,-81 688.86,-62 629.86,-62"/>
<text text-anchor="middle" x="659.36" y="-69" font-family="Helvetica,sans-Serif" font-size="10.00" fill="#000000">functional</text>
</g>
<!-- Node6&#45;&gt;Node11 -->
<g id="edge12" class="edge">
<title>Node6&#45;&gt;Node11</title>
<path fill="none" stroke="#191970" d="M715.022,-123.2967C703.6952,-112.7564 688.6223,-98.7303 677.0185,-87.9323"/>
<polygon fill="#191970" stroke="#191970" points="679.333,-85.3051 669.628,-81.055 674.5644,-90.4296 679.333,-85.3051"/>
</g>
<!-- Node12 -->
<g id="node13" class="node">
<title>Node12</title>
<polygon fill="none" stroke="#bfbfbf" points="706.86,-62 706.86,-81 755.86,-81 755.86,-62 706.86,-62"/>
<text text-anchor="middle" x="731.36" y="-69" font-family="Helvetica,sans-Serif" font-size="10.00" fill="#000000">cassert</text>
</g>
<!-- Node6&#45;&gt;Node12 -->
<g id="edge13" class="edge">
<title>Node6&#45;&gt;Node12</title>
<path fill="none" stroke="#191970" d="M731.36,-123.2967C731.36,-113.7699 731.36,-101.3954 731.36,-91.1306"/>
<polygon fill="#191970" stroke="#191970" points="734.8601,-91.0549 731.36,-81.055 727.8601,-91.055 734.8601,-91.0549"/>
</g>
<!-- Node13 -->
<g id="node14" class="node">
<title>Node13</title>
<polygon fill="none" stroke="#bfbfbf" points="774.36,-62 774.36,-81 828.36,-81 828.36,-62 774.36,-62"/>
<text text-anchor="middle" x="801.36" y="-69" font-family="Helvetica,sans-Serif" font-size="10.00" fill="#000000">iostream</text>
</g>
<!-- Node6&#45;&gt;Node13 -->
<g id="edge14" class="edge">
<title>Node6&#45;&gt;Node13</title>
<path fill="none" stroke="#191970" d="M747.244,-123.2967C758.1504,-112.8578 772.629,-98.9997 783.8656,-88.2446"/>
<polygon fill="#191970" stroke="#191970" points="786.5731,-90.498 791.3772,-81.055 781.7328,-85.4411 786.5731,-90.498"/>
</g>
<!-- Node14 -->
<g id="node15" class="node">
<title>Node14</title>
<polygon fill="none" stroke="#bfbfbf" points="846.36,-62 846.36,-81 898.36,-81 898.36,-62 846.36,-62"/>
<text text-anchor="middle" x="872.36" y="-69" font-family="Helvetica,sans-Serif" font-size="10.00" fill="#000000">memory</text>
</g>
<!-- Node6&#45;&gt;Node14 -->
<g id="edge15" class="edge">
<title>Node6&#45;&gt;Node14</title>
<path fill="none" stroke="#191970" d="M763.0031,-123.4639C786.9808,-112.0702 819.6793,-96.5327 843.0617,-85.4219"/>
<polygon fill="#191970" stroke="#191970" points="844.6187,-88.5571 852.1487,-81.1039 841.6144,-82.2346 844.6187,-88.5571"/>
</g>
<!-- Node8&#45;&gt;Node1 -->
<g id="edge11" class="edge">
<title>Node8&#45;&gt;Node1</title>
<path fill="none" stroke="#191970" d="M467.322,-57.3907C405.8329,-45.3474 319.4623,-28.4309 268.2696,-18.4043"/>
<polygon fill="#191970" stroke="#191970" points="268.6959,-14.9213 258.2096,-16.4339 267.3504,-21.7908 268.6959,-14.9213"/>
</g>
<!-- Node9 -->
<g id="node10" class="node">
<title>Node9</title>
<polygon fill="none" stroke="#bfbfbf" points="467.36,-.5 467.36,-19.5 529.36,-19.5 529.36,-.5 467.36,-.5"/>
<text text-anchor="middle" x="498.36" y="-7.5" font-family="Helvetica,sans-Serif" font-size="10.00" fill="#000000">type_traits</text>
</g>
<!-- Node8&#45;&gt;Node9 -->
<g id="edge9" class="edge">
<title>Node8&#45;&gt;Node9</title>
<path fill="none" stroke="#191970" d="M529.2251,-56.2977C523.5932,-47.8498 516.5448,-37.2773 510.606,-28.369"/>
<polygon fill="#191970" stroke="#191970" points="513.3838,-26.226 504.9246,-19.8469 507.5594,-30.1089 513.3838,-26.226"/>
</g>
<!-- Node10 -->
<g id="node11" class="node">
<title>Node10</title>
<polygon fill="none" stroke="#bfbfbf" points="547.36,-.5 547.36,-19.5 613.36,-19.5 613.36,-.5 547.36,-.5"/>
<text text-anchor="middle" x="580.36" y="-7.5" font-family="Helvetica,sans-Serif" font-size="10.00" fill="#000000">string_view</text>
</g>
<!-- Node8&#45;&gt;Node10 -->
<g id="edge10" class="edge">
<title>Node8&#45;&gt;Node10</title>
<path fill="none" stroke="#191970" d="M549.4948,-56.2977C555.1267,-47.8498 562.1751,-37.2773 568.1139,-28.369"/>
<polygon fill="#191970" stroke="#191970" points="571.1605,-30.1089 573.7953,-19.8469 565.3361,-26.226 571.1605,-30.1089"/>
</g>
</g>
</svg>
        <g id="navigator" transform="translate(0 0)" fill="#404254">
                <rect fill="#f2f5e9" fill-opacity="0.5" stroke="#606060" stroke-width=".5" x="0" y="0" width="60" height="60"/>
                <use id="zoomplus" xlink:href="#zoomPlus" x="17" y="9" onmousedown="handleZoom(evt,'in')"/>
                <use id="zoomminus" xlink:href="#zoomMin" x="42" y="9" onmousedown="handleZoom(evt,'out')"/>
                <use id="reset" xlink:href="#resetDef" x="30" y="36" onmousedown="handleReset()"/>
                <g id="arrowUp" xlink:href="#dirArrow" transform="translate(30 24)" onmousedown="handlePan(0,-1)">
                  <use xlink:href="#rim" fill="#404040">
                        <set attributeName="fill" to="#808080" begin="arrowUp.mouseover" end="arrowUp.mouseout"/>
                  </use>
                  <path fill="none" stroke="white" stroke-width="1.5" d="M0,-3.0v7 M-2.5,-0.5L0,-3.0L2.5,-0.5"/>
                </g>
                <g id="arrowRight" xlink:href="#dirArrow" transform="rotate(90) translate(36 -43)" onmousedown="handlePan(1,0)">
                  <use xlink:href="#rim" fill="#404040">
                        <set attributeName="fill" to="#808080" begin="arrowRight.mouseover" end="arrowRight.mouseout"/>
                  </use>
                  <path fill="none" stroke="white" stroke-width="1.5" d="M0,-3.0v7 M-2.5,-0.5L0,-3.0L2.5,-0.5"/>
                </g>
                <g id="arrowDown" xlink:href="#dirArrow" transform="rotate(180) translate(-30 -48)" onmousedown="handlePan(0,1)">
                  <use xlink:href="#rim" fill="#404040">
                        <set attributeName="fill" to="#808080" begin="arrowDown.mouseover" end="arrowDown.mouseout"/>
                  </use>
                  <path fill="none" stroke="white" stroke-width="1.5" d="M0,-3.0v7 M-2.5,-0.5L0,-3.0L2.5,-0.5"/>
                </g>
                <g id="arrowLeft" xlink:href="#dirArrow" transform="rotate(270) translate(-36 17)" onmousedown="handlePan(-1,0)">
                  <use xlink:href="#rim" fill="#404040">
                        <set attributeName="fill" to="#808080" begin="arrowLeft.mouseover" end="arrowLeft.mouseout"/>
                  </use>
                  <path fill="none" stroke="white" stroke-width="1.5" d="M0,-3.0v7 M-2.5,-0.5L0,-3.0L2.5,-0.5"/>
                </g>
        </g>
        <svg viewBox="0 0 15 15" width="100%" height="30px" preserveAspectRatio="xMaxYMin meet">
         <g id="arrow_out" transform="scale(0.3 0.3)">
          <a xlink:href="matioCppConversions_8h__incl_org.svg" target="_base">
           <rect id="button" ry="5" rx="5" y="6" x="6" height="38" width="38"
                fill="#f2f5e9" fill-opacity="0.5" stroke="#606060" stroke-width="1.0"/>
           <path id="arrow"
             d="M 11.500037,31.436501 C 11.940474,20.09759 22.043105,11.32322 32.158766,21.979434 L 37.068811,17.246167 C 37.068811,17.246167 37.088388,32 37.088388,32 L 22.160133,31.978069 C 22.160133,31.978069 26.997745,27.140456 26.997745,27.140456 C 18.528582,18.264221 13.291696,25.230495 11.500037,31.436501 z"
             style="fill:#404040;"/>
          </a>
         </g>
        </svg>
</svg>
