<?xml version="1.0" encoding="UTF-8" standalone="no"?>
<!DOCTYPE svg PUBLIC "-//W3C//DTD SVG 1.1//EN"
 "http://www.w3.org/Graphics/SVG/1.1/DTD/svg11.dtd">
<!-- Generated by graphviz version 2.40.1 (20161225.0304)
 -->
<!-- Title: Estimators/src/ModelComputationsHelper.cpp Pages: 1 -->
<!--zoomable 374 -->
<svg id="main" version="1.1" xmlns="http://www.w3.org/2000/svg" xmlns:xlink="http://www.w3.org/1999/xlink" xml:space="preserve" onload="init(evt)">
<style type="text/css"><![CDATA[
.edge:hover path { stroke: red; }
.edge:hover polygon { stroke: red; fill: red; }
]]></style>
<script type="text/javascript"><![CDATA[
var edges = document.getElementsByTagName('g');
if (edges && edges.length) {
  for (var i=0;i<edges.length;i++) {
    if (edges[i].id.substr(0,4)=='edge') {
      edges[i].setAttribute('class','edge');
    }
  }
}
]]></script>
        <defs>
                <circle id="rim" cx="0" cy="0" r="7"/>
                <circle id="rim2" cx="0" cy="0" r="3.5"/>
                <g id="zoomPlus">
                        <use xlink:href="#rim" fill="#404040">
                                <set attributeName="fill" to="#808080" begin="zoomplus.mouseover" end="zoomplus.mouseout"/>
                        </use>
                        <path d="M-4,0h8M0,-4v8" fill="none" stroke="white" stroke-width="1.5" pointer-events="none"/>
                </g>
                <g id="zoomMin">
                        <use xlink:href="#rim" fill="#404040">
                                <set attributeName="fill" to="#808080" begin="zoomminus.mouseover" end="zoomminus.mouseout"/>
                        </use>
                        <path d="M-4,0h8" fill="none" stroke="white" stroke-width="1.5" pointer-events="none"/>
                </g>
                <g id="dirArrow">
                        <path fill="none" stroke="white" stroke-width="1.5" d="M0,-3.0v7 M-2.5,-0.5L0,-3.0L2.5,-0.5"/>
                </g>
               <g id="resetDef">
                       <use xlink:href="#rim2" fill="#404040">
                               <set attributeName="fill" to="#808080" begin="reset.mouseover" end="reset.mouseout"/>
                       </use>
               </g>
        </defs>

<script type="text/javascript">
var viewWidth = 716;
var viewHeight = 374;
var sectionId = 'dynsection-0';
</script>
<script xlink:href="svgpan.js"/>
<svg id="graph" class="graph">
<g id="viewport">
<title>Estimators/src/ModelComputationsHelper.cpp</title>
<!-- Node0 -->
<g id="node1" class="node">
<title>Node0</title>
<polygon fill="#bfbfbf" stroke="#000000" points="431,-335.5 431,-365.5 601,-365.5 601,-335.5 431,-335.5"/>
<text text-anchor="start" x="439" y="-353.5" font-family="Helvetica,sans-Serif" font-size="10.00" fill="#000000">Estimators/src/ModelComputations</text>
<text text-anchor="middle" x="516" y="-342.5" font-family="Helvetica,sans-Serif" font-size="10.00" fill="#000000">Helper.cpp</text>
</g>
<!-- Node1 -->
<g id="node2" class="node">
<title>Node1</title>
<g id="a_node2"><a xlink:href="ModelComputationsHelper_8h.html" target="_top" xlink:title="BipedalLocomotion/Floating\lBaseEstimators/ModelComputations\lHelper.h">
<polygon fill="none" stroke="#000000" points="228,-257.5 228,-298.5 404,-298.5 404,-257.5 228,-257.5"/>
<text text-anchor="start" x="236" y="-286.5" font-family="Helvetica,sans-Serif" font-size="10.00" fill="#000000">BipedalLocomotion/Floating</text>
<text text-anchor="start" x="236" y="-275.5" font-family="Helvetica,sans-Serif" font-size="10.00" fill="#000000">BaseEstimators/ModelComputations</text>
<text text-anchor="middle" x="316" y="-264.5" font-family="Helvetica,sans-Serif" font-size="10.00" fill="#000000">Helper.h</text>
</a>
</g>
</g>
<!-- Node0&#45;&gt;Node1 -->
<g id="edge1" class="edge">
<title>Node0&#45;&gt;Node1</title>
<path fill="none" stroke="#191970" d="M474.5599,-335.478C447.9232,-325.8222 412.7276,-313.0638 382.2637,-302.0206"/>
<polygon fill="#191970" stroke="#191970" points="383.1501,-298.6191 372.5559,-298.5015 380.7644,-305.2 383.1501,-298.6191"/>
</g>
<!-- Node5 -->
<g id="node6" class="node">
<title>Node5</title>
<polygon fill="none" stroke="#bfbfbf" points="475.5,-129 475.5,-148 516.5,-148 516.5,-129 475.5,-129"/>
<text text-anchor="middle" x="496" y="-136" font-family="Helvetica,sans-Serif" font-size="10.00" fill="#000000">string</text>
</g>
<!-- Node0&#45;&gt;Node5 -->
<g id="edge19" class="edge">
<title>Node0&#45;&gt;Node5</title>
<path fill="none" stroke="#191970" d="M514.5616,-335.2535C511.0173,-297.6836 501.8638,-200.6565 497.8889,-158.5223"/>
<polygon fill="#191970" stroke="#191970" points="501.3583,-158.0326 496.9345,-148.4056 494.3893,-158.6901 501.3583,-158.0326"/>
</g>
<!-- Node16 -->
<g id="node17" class="node">
<title>Node16</title>
<polygon fill="none" stroke="#bfbfbf" points="544.5,-268.5 544.5,-287.5 707.5,-287.5 707.5,-268.5 544.5,-268.5"/>
<text text-anchor="middle" x="626" y="-275.5" font-family="Helvetica,sans-Serif" font-size="10.00" fill="#000000">iDynTree/ModelIO/ModelLoader.h</text>
</g>
<!-- Node0&#45;&gt;Node16 -->
<g id="edge20" class="edge">
<title>Node0&#45;&gt;Node16</title>
<path fill="none" stroke="#191970" d="M538.7921,-335.478C557.5036,-323.1453 583.8944,-305.7514 602.734,-293.3344"/>
<polygon fill="#191970" stroke="#191970" points="604.8858,-296.108 611.3093,-287.6825 601.0336,-290.2633 604.8858,-296.108"/>
</g>
<!-- Node2 -->
<g id="node3" class="node">
<title>Node2</title>
<polygon fill="none" stroke="#bfbfbf" points="0,-62 0,-81 52,-81 52,-62 0,-62"/>
<text text-anchor="middle" x="26" y="-69" font-family="Helvetica,sans-Serif" font-size="10.00" fill="#000000">memory</text>
</g>
<!-- Node1&#45;&gt;Node2 -->
<g id="edge2" class="edge">
<title>Node1&#45;&gt;Node2</title>
<path fill="none" stroke="#191970" d="M227.7634,-258.5188C200.3353,-249.8514 171.0201,-237.7108 147,-221 95.5547,-185.2095 54.5047,-121.5404 36.26,-90.1093"/>
<polygon fill="#191970" stroke="#191970" points="39.1339,-88.0821 31.1534,-81.1133 33.0463,-91.5377 39.1339,-88.0821"/>
</g>
<!-- Node3 -->
<g id="node4" class="node">
<title>Node3</title>
<polygon fill="none" stroke="#bfbfbf" points="326.5,-196 326.5,-215 487.5,-215 487.5,-196 326.5,-196"/>
<text text-anchor="middle" x="407" y="-203" font-family="Helvetica,sans-Serif" font-size="10.00" fill="#000000">iDynTree/KinDynComputations.h</text>
</g>
<!-- Node1&#45;&gt;Node3 -->
<g id="edge3" class="edge">
<title>Node1&#45;&gt;Node3</title>
<path fill="none" stroke="#191970" d="M341.8335,-257.4183C356.1441,-246.017 373.6687,-232.0551 386.9391,-221.4826"/>
<polygon fill="#191970" stroke="#191970" points="389.3284,-224.054 394.9687,-215.0853 384.9665,-218.5792 389.3284,-224.054"/>
</g>
<!-- Node4 -->
<g id="node5" class="node">
<title>Node4</title>
<g id="a_node5"><a xlink:href="IParametersHandler_8h.html" target="_top" xlink:title="BipedalLocomotion/Parameters\lHandler/IParametersHandler.h">
<polygon fill="none" stroke="#000000" points="156,-190.5 156,-220.5 308,-220.5 308,-190.5 156,-190.5"/>
<text text-anchor="start" x="164" y="-208.5" font-family="Helvetica,sans-Serif" font-size="10.00" fill="#000000">BipedalLocomotion/Parameters</text>
<text text-anchor="middle" x="232" y="-197.5" font-family="Helvetica,sans-Serif" font-size="10.00" fill="#000000">Handler/IParametersHandler.h</text>
</a>
</g>
</g>
<!-- Node1&#45;&gt;Node4 -->
<g id="edge4" class="edge">
<title>Node1&#45;&gt;Node4</title>
<path fill="none" stroke="#191970" d="M292.1537,-257.4183C281.2251,-247.9859 268.2659,-236.801 257.1798,-227.2325"/>
<polygon fill="#191970" stroke="#191970" points="259.3513,-224.4834 249.4941,-220.5991 254.7776,-229.7826 259.3513,-224.4834"/>
</g>
<!-- Node4&#45;&gt;Node2 -->
<g id="edge5" class="edge">
<title>Node4&#45;&gt;Node2</title>
<path fill="none" stroke="#191970" d="M208.7696,-190.389C169.1363,-164.6081 88.9013,-112.4164 49.2527,-86.6255"/>
<polygon fill="#191970" stroke="#191970" points="51.0557,-83.623 40.7646,-81.1042 47.2387,-89.4909 51.0557,-83.623"/>
</g>
<!-- Node4&#45;&gt;Node5 -->
<g id="edge6" class="edge">
<title>Node4&#45;&gt;Node5</title>
<path fill="none" stroke="#191970" d="M296.0367,-190.4813C337.7179,-180.5369 393.2075,-166.9802 442,-154 449.668,-151.9601 457.9156,-149.6514 465.6002,-147.4508"/>
<polygon fill="#191970" stroke="#191970" points="466.6473,-150.7915 475.2818,-144.6518 464.7032,-144.0669 466.6473,-150.7915"/>
</g>
<!-- Node6 -->
<g id="node7" class="node">
<title>Node6</title>
<polygon fill="none" stroke="#bfbfbf" points="318,-129 318,-148 362,-148 362,-129 318,-129"/>
<text text-anchor="middle" x="340" y="-136" font-family="Helvetica,sans-Serif" font-size="10.00" fill="#000000">vector</text>
</g>
<!-- Node4&#45;&gt;Node6 -->
<g id="edge7" class="edge">
<title>Node4&#45;&gt;Node6</title>
<path fill="none" stroke="#191970" d="M256.2373,-190.4639C274.0318,-179.4247 298.0969,-164.4954 315.8669,-153.4715"/>
<polygon fill="#191970" stroke="#191970" points="317.8665,-156.3498 324.5191,-148.1039 314.1763,-150.4015 317.8665,-156.3498"/>
</g>
<!-- Node7 -->
<g id="node8" class="node">
<title>Node7</title>
<g id="a_node8"><a xlink:href="Vector_8h_source.html" target="_top" xlink:title="BipedalLocomotion/Generic\lContainer/Vector.h">
<polygon fill="none" stroke="#000000" points="164,-123.5 164,-153.5 300,-153.5 300,-123.5 164,-123.5"/>
<text text-anchor="start" x="172" y="-141.5" font-family="Helvetica,sans-Serif" font-size="10.00" fill="#000000">BipedalLocomotion/Generic</text>
<text text-anchor="middle" x="232" y="-130.5" font-family="Helvetica,sans-Serif" font-size="10.00" fill="#000000">Container/Vector.h</text>
</a>
</g>
</g>
<!-- Node4&#45;&gt;Node7 -->
<g id="edge8" class="edge">
<title>Node4&#45;&gt;Node7</title>
<path fill="none" stroke="#191970" d="M232,-190.2967C232,-182.5013 232,-172.7991 232,-163.9064"/>
<polygon fill="#191970" stroke="#191970" points="235.5001,-163.6431 232,-153.6432 228.5001,-163.6432 235.5001,-163.6431"/>
</g>
<!-- Node9 -->
<g id="node10" class="node">
<title>Node9</title>
<g id="a_node10"><a xlink:href="TemplateHelpers_8h_source.html" target="_top" xlink:title="BipedalLocomotion/Generic\lContainer/TemplateHelpers.h">
<polygon fill="none" stroke="#000000" points="419,-56.5 419,-86.5 563,-86.5 563,-56.5 419,-56.5"/>
<text text-anchor="start" x="427" y="-74.5" font-family="Helvetica,sans-Serif" font-size="10.00" fill="#000000">BipedalLocomotion/Generic</text>
<text text-anchor="middle" x="491" y="-63.5" font-family="Helvetica,sans-Serif" font-size="10.00" fill="#000000">Container/TemplateHelpers.h</text>
</a>
</g>
</g>
<!-- Node4&#45;&gt;Node9 -->
<g id="edge18" class="edge">
<title>Node4&#45;&gt;Node9</title>
<path fill="none" stroke="#191970" d="M281.511,-190.482C308.6356,-181.4394 342.445,-168.8136 371,-154 404.7783,-136.4766 440.3191,-111.0398 463.8731,-93.0527"/>
<polygon fill="#191970" stroke="#191970" points="466.2065,-95.6729 471.983,-86.7913 461.9287,-90.1321 466.2065,-95.6729"/>
</g>
<!-- Node7&#45;&gt;Node2 -->
<g id="edge17" class="edge">
<title>Node7&#45;&gt;Node2</title>
<path fill="none" stroke="#191970" d="M175.5835,-123.4179C141.9681,-113.9604 98.6515,-100.9453 61,-87 59.3719,-86.397 57.7116,-85.7556 56.0427,-85.09"/>
<polygon fill="#191970" stroke="#191970" points="57.1284,-81.7501 46.5529,-81.1111 54.4217,-88.2056 57.1284,-81.7501"/>
</g>
<!-- Node8 -->
<g id="node9" class="node">
<title>Node8</title>
<polygon fill="none" stroke="#bfbfbf" points="70,-62 70,-81 184,-81 184,-62 70,-62"/>
<text text-anchor="middle" x="127" y="-69" font-family="Helvetica,sans-Serif" font-size="10.00" fill="#000000">iDynTree/Core/Span.h</text>
</g>
<!-- Node7&#45;&gt;Node8 -->
<g id="edge9" class="edge">
<title>Node7&#45;&gt;Node8</title>
<path fill="none" stroke="#191970" d="M208.436,-123.4639C191.2944,-112.526 168.1679,-97.769 150.9398,-86.7759"/>
<polygon fill="#191970" stroke="#191970" points="152.3636,-83.5326 142.0509,-81.1039 148.5982,-89.4336 152.3636,-83.5326"/>
</g>
<!-- Node7&#45;&gt;Node9 -->
<g id="edge10" class="edge">
<title>Node7&#45;&gt;Node9</title>
<path fill="none" stroke="#191970" d="M290.1247,-123.4639C329.476,-113.2842 381.6146,-99.7966 422.911,-89.1138"/>
<polygon fill="#191970" stroke="#191970" points="423.8171,-92.4947 432.6218,-86.6017 422.0639,-85.7177 423.8171,-92.4947"/>
</g>
<!-- Node13 -->
<g id="node14" class="node">
<title>Node13</title>
<polygon fill="none" stroke="#bfbfbf" points="202.5,-62 202.5,-81 261.5,-81 261.5,-62 202.5,-62"/>
<text text-anchor="middle" x="232" y="-69" font-family="Helvetica,sans-Serif" font-size="10.00" fill="#000000">functional</text>
</g>
<!-- Node7&#45;&gt;Node13 -->
<g id="edge14" class="edge">
<title>Node7&#45;&gt;Node13</title>
<path fill="none" stroke="#191970" d="M232,-123.2967C232,-113.7699 232,-101.3954 232,-91.1306"/>
<polygon fill="#191970" stroke="#191970" points="235.5001,-91.0549 232,-81.055 228.5001,-91.055 235.5001,-91.0549"/>
</g>
<!-- Node14 -->
<g id="node15" class="node">
<title>Node14</title>
<polygon fill="none" stroke="#bfbfbf" points="279.5,-62 279.5,-81 328.5,-81 328.5,-62 279.5,-62"/>
<text text-anchor="middle" x="304" y="-69" font-family="Helvetica,sans-Serif" font-size="10.00" fill="#000000">cassert</text>
</g>
<!-- Node7&#45;&gt;Node14 -->
<g id="edge15" class="edge">
<title>Node7&#45;&gt;Node14</title>
<path fill="none" stroke="#191970" d="M248.3379,-123.2967C259.6648,-112.7564 274.7376,-98.7303 286.3414,-87.9323"/>
<polygon fill="#191970" stroke="#191970" points="288.7956,-90.4296 293.732,-81.055 284.0269,-85.3051 288.7956,-90.4296"/>
</g>
<!-- Node15 -->
<g id="node16" class="node">
<title>Node15</title>
<polygon fill="none" stroke="#bfbfbf" points="347,-62 347,-81 401,-81 401,-62 347,-62"/>
<text text-anchor="middle" x="374" y="-69" font-family="Helvetica,sans-Serif" font-size="10.00" fill="#000000">iostream</text>
</g>
<!-- Node7&#45;&gt;Node15 -->
<g id="edge16" class="edge">
<title>Node7&#45;&gt;Node15</title>
<path fill="none" stroke="#191970" d="M263.8676,-123.4639C288.0153,-112.0702 320.9457,-96.5327 344.4939,-85.4219"/>
<polygon fill="#191970" stroke="#191970" points="346.0951,-88.5365 353.6454,-81.1039 343.108,-82.2058 346.0951,-88.5365"/>
</g>
<!-- Node10 -->
<g id="node11" class="node">
<title>Node10</title>
<polygon fill="none" stroke="#bfbfbf" points="378,-.5 378,-19.5 440,-19.5 440,-.5 378,-.5"/>
<text text-anchor="middle" x="409" y="-7.5" font-family="Helvetica,sans-Serif" font-size="10.00" fill="#000000">type_traits</text>
</g>
<!-- Node9&#45;&gt;Node10 -->
<g id="edge11" class="edge">
<title>Node9&#45;&gt;Node10</title>
<path fill="none" stroke="#191970" d="M470.7303,-56.2977C458.3994,-47.0495 442.6734,-35.2551 430.1803,-25.8853"/>
<polygon fill="#191970" stroke="#191970" points="432.2293,-23.047 422.1292,-19.8469 428.0292,-28.647 432.2293,-23.047"/>
</g>
<!-- Node11 -->
<g id="node12" class="node">
<title>Node11</title>
<polygon fill="none" stroke="#bfbfbf" points="458,-.5 458,-19.5 524,-19.5 524,-.5 458,-.5"/>
<text text-anchor="middle" x="491" y="-7.5" font-family="Helvetica,sans-Serif" font-size="10.00" fill="#000000">string_view</text>
</g>
<!-- Node9&#45;&gt;Node11 -->
<g id="edge12" class="edge">
<title>Node9&#45;&gt;Node11</title>
<path fill="none" stroke="#191970" d="M491,-56.2977C491,-48.3834 491,-38.6043 491,-30.0759"/>
<polygon fill="#191970" stroke="#191970" points="494.5001,-29.8469 491,-19.8469 487.5001,-29.847 494.5001,-29.8469"/>
</g>
<!-- Node12 -->
<g id="node13" class="node">
<title>Node12</title>
<polygon fill="none" stroke="#bfbfbf" points="542.5,-.5 542.5,-19.5 607.5,-19.5 607.5,-.5 542.5,-.5"/>
<text text-anchor="middle" x="575" y="-7.5" font-family="Helvetica,sans-Serif" font-size="10.00" fill="#000000">Eigen/Core</text>
</g>
<!-- Node9&#45;&gt;Node12 -->
<g id="edge13" class="edge">
<title>Node9&#45;&gt;Node12</title>
<path fill="none" stroke="#191970" d="M511.7641,-56.2977C524.3958,-47.0495 540.5053,-35.2551 553.3031,-25.8853"/>
<polygon fill="#191970" stroke="#191970" points="555.5495,-28.5784 561.5505,-19.8469 551.4143,-22.9303 555.5495,-28.5784"/>
</g>
</g>
</svg>
        <g id="navigator" transform="translate(0 0)" fill="#404254">
                <rect fill="#f2f5e9" fill-opacity="0.5" stroke="#606060" stroke-width=".5" x="0" y="0" width="60" height="60"/>
                <use id="zoomplus" xlink:href="#zoomPlus" x="17" y="9" onmousedown="handleZoom(evt,'in')"/>
                <use id="zoomminus" xlink:href="#zoomMin" x="42" y="9" onmousedown="handleZoom(evt,'out')"/>
                <use id="reset" xlink:href="#resetDef" x="30" y="36" onmousedown="handleReset()"/>
                <g id="arrowUp" xlink:href="#dirArrow" transform="translate(30 24)" onmousedown="handlePan(0,-1)">
                  <use xlink:href="#rim" fill="#404040">
                        <set attributeName="fill" to="#808080" begin="arrowUp.mouseover" end="arrowUp.mouseout"/>
                  </use>
                  <path fill="none" stroke="white" stroke-width="1.5" d="M0,-3.0v7 M-2.5,-0.5L0,-3.0L2.5,-0.5"/>
                </g>
                <g id="arrowRight" xlink:href="#dirArrow" transform="rotate(90) translate(36 -43)" onmousedown="handlePan(1,0)">
                  <use xlink:href="#rim" fill="#404040">
                        <set attributeName="fill" to="#808080" begin="arrowRight.mouseover" end="arrowRight.mouseout"/>
                  </use>
                  <path fill="none" stroke="white" stroke-width="1.5" d="M0,-3.0v7 M-2.5,-0.5L0,-3.0L2.5,-0.5"/>
                </g>
                <g id="arrowDown" xlink:href="#dirArrow" transform="rotate(180) translate(-30 -48)" onmousedown="handlePan(0,1)">
                  <use xlink:href="#rim" fill="#404040">
                        <set attributeName="fill" to="#808080" begin="arrowDown.mouseover" end="arrowDown.mouseout"/>
                  </use>
                  <path fill="none" stroke="white" stroke-width="1.5" d="M0,-3.0v7 M-2.5,-0.5L0,-3.0L2.5,-0.5"/>
                </g>
                <g id="arrowLeft" xlink:href="#dirArrow" transform="rotate(270) translate(-36 17)" onmousedown="handlePan(-1,0)">
                  <use xlink:href="#rim" fill="#404040">
                        <set attributeName="fill" to="#808080" begin="arrowLeft.mouseover" end="arrowLeft.mouseout"/>
                  </use>
                  <path fill="none" stroke="white" stroke-width="1.5" d="M0,-3.0v7 M-2.5,-0.5L0,-3.0L2.5,-0.5"/>
                </g>
        </g>
        <svg viewBox="0 0 15 15" width="100%" height="30px" preserveAspectRatio="xMaxYMin meet">
         <g id="arrow_out" transform="scale(0.3 0.3)">
          <a xlink:href="ModelComputationsHelper_8cpp__incl_org.svg" target="_base">
           <rect id="button" ry="5" rx="5" y="6" x="6" height="38" width="38"
                fill="#f2f5e9" fill-opacity="0.5" stroke="#606060" stroke-width="1.0"/>
           <path id="arrow"
             d="M 11.500037,31.436501 C 11.940474,20.09759 22.043105,11.32322 32.158766,21.979434 L 37.068811,17.246167 C 37.068811,17.246167 37.088388,32 37.088388,32 L 22.160133,31.978069 C 22.160133,31.978069 26.997745,27.140456 26.997745,27.140456 C 18.528582,18.264221 13.291696,25.230495 11.500037,31.436501 z"
             style="fill:#404040;"/>
          </a>
         </g>
        </svg>
</svg>
