<?xml version="1.0" encoding="UTF-8" standalone="no"?>
<!DOCTYPE svg PUBLIC "-//W3C//DTD SVG 1.1//EN"
 "http://www.w3.org/Graphics/SVG/1.1/DTD/svg11.dtd">
<!-- Generated by graphviz version 2.40.1 (20161225.0304)
 -->
<!-- Title: Estimators/include/BipedalLocomotion/FloatingBaseEstimators/ModelComputationsHelper.h Pages: 1 -->
<svg width="612pt" height="318pt"
 viewBox="0.00 0.00 612.00 318.00" xmlns="http://www.w3.org/2000/svg" xmlns:xlink="http://www.w3.org/1999/xlink">
<g id="graph0" class="graph" transform="scale(1 1) rotate(0) translate(4 314)">
<title>Estimators/include/BipedalLocomotion/FloatingBaseEstimators/ModelComputationsHelper.h</title>
<!-- Node0 -->
<g id="node1" class="node">
<title>Node0</title>
<polygon fill="#bfbfbf" stroke="#000000" points="381,-257.5 381,-309.5 557,-309.5 557,-257.5 381,-257.5"/>
<text text-anchor="start" x="389" y="-297.5" font-family="Helvetica,sans-Serif" font-size="10.00" fill="#000000">Estimators/include</text>
<text text-anchor="start" x="389" y="-286.5" font-family="Helvetica,sans-Serif" font-size="10.00" fill="#000000">/BipedalLocomotion/Floating</text>
<text text-anchor="start" x="389" y="-275.5" font-family="Helvetica,sans-Serif" font-size="10.00" fill="#000000">BaseEstimators/ModelComputations</text>
<text text-anchor="middle" x="469" y="-264.5" font-family="Helvetica,sans-Serif" font-size="10.00" fill="#000000">Helper.h</text>
</g>
<!-- Node1 -->
<g id="node2" class="node">
<title>Node1</title>
<polygon fill="none" stroke="#bfbfbf" points="552,-62 552,-81 604,-81 604,-62 552,-62"/>
<text text-anchor="middle" x="578" y="-69" font-family="Helvetica,sans-Serif" font-size="10.00" fill="#000000">memory</text>
</g>
<!-- Node0&#45;&gt;Node1 -->
<g id="edge1" class="edge">
<title>Node0&#45;&gt;Node1</title>
<path fill="none" stroke="#191970" d="M522.2523,-257.2092C536.3635,-247.7103 550.1227,-235.6395 559,-221 583.7805,-180.1349 582.8711,-121.4723 580.3165,-91.216"/>
<polygon fill="#191970" stroke="#191970" points="583.7834,-90.7098 579.3069,-81.1071 576.8181,-91.4054 583.7834,-90.7098"/>
</g>
<!-- Node2 -->
<g id="node3" class="node">
<title>Node2</title>
<polygon fill="none" stroke="#bfbfbf" points="388.5,-196 388.5,-215 549.5,-215 549.5,-196 388.5,-196"/>
<text text-anchor="middle" x="469" y="-203" font-family="Helvetica,sans-Serif" font-size="10.00" fill="#000000">iDynTree/KinDynComputations.h</text>
</g>
<!-- Node0&#45;&gt;Node2 -->
<g id="edge2" class="edge">
<title>Node0&#45;&gt;Node2</title>
<path fill="none" stroke="#191970" d="M469,-257.0928C469,-246.6735 469,-234.911 469,-225.2512"/>
<polygon fill="#191970" stroke="#191970" points="472.5001,-225.0838 469,-215.0839 465.5001,-225.0839 472.5001,-225.0838"/>
</g>
<!-- Node3 -->
<g id="node4" class="node">
<title>Node3</title>
<g id="a_node4"><a xlink:href="IParametersHandler_8h.html" target="_top" xlink:title="BipedalLocomotion/Parameters\lHandler/IParametersHandler.h">
<polygon fill="none" stroke="#000000" points="218,-190.5 218,-220.5 370,-220.5 370,-190.5 218,-190.5"/>
<text text-anchor="start" x="226" y="-208.5" font-family="Helvetica,sans-Serif" font-size="10.00" fill="#000000">BipedalLocomotion/Parameters</text>
<text text-anchor="middle" x="294" y="-197.5" font-family="Helvetica,sans-Serif" font-size="10.00" fill="#000000">Handler/IParametersHandler.h</text>
</a>
</g>
</g>
<!-- Node0&#45;&gt;Node3 -->
<g id="edge3" class="edge">
<title>Node0&#45;&gt;Node3</title>
<path fill="none" stroke="#191970" d="M410.2407,-257.3101C386.3679,-246.6697 359.2841,-234.5981 337.2689,-224.7856"/>
<polygon fill="#191970" stroke="#191970" points="338.4139,-221.464 327.8552,-220.5897 335.5641,-227.8577 338.4139,-221.464"/>
</g>
<!-- Node3&#45;&gt;Node1 -->
<g id="edge4" class="edge">
<title>Node3&#45;&gt;Node1</title>
<path fill="none" stroke="#191970" d="M370.0961,-191.9448C404.6215,-183.906 445.1955,-171.7333 479,-154 511.9383,-136.7211 543.8475,-107.0911 562.1729,-88.4391"/>
<polygon fill="#191970" stroke="#191970" points="564.7427,-90.8164 569.1584,-81.1855 559.7006,-85.9606 564.7427,-90.8164"/>
</g>
<!-- Node4 -->
<g id="node5" class="node">
<title>Node4</title>
<polygon fill="none" stroke="#bfbfbf" points="212.5,-129 212.5,-148 253.5,-148 253.5,-129 212.5,-129"/>
<text text-anchor="middle" x="233" y="-136" font-family="Helvetica,sans-Serif" font-size="10.00" fill="#000000">string</text>
</g>
<!-- Node3&#45;&gt;Node4 -->
<g id="edge5" class="edge">
<title>Node3&#45;&gt;Node4</title>
<path fill="none" stroke="#191970" d="M280.1582,-190.2967C270.7463,-179.9591 258.2817,-166.2684 248.5311,-155.5588"/>
<polygon fill="#191970" stroke="#191970" points="251.0196,-153.0931 241.6993,-148.055 245.8435,-157.8057 251.0196,-153.0931"/>
</g>
<!-- Node5 -->
<g id="node6" class="node">
<title>Node5</title>
<polygon fill="none" stroke="#bfbfbf" points="272,-129 272,-148 316,-148 316,-129 272,-129"/>
<text text-anchor="middle" x="294" y="-136" font-family="Helvetica,sans-Serif" font-size="10.00" fill="#000000">vector</text>
</g>
<!-- Node3&#45;&gt;Node5 -->
<g id="edge6" class="edge">
<title>Node3&#45;&gt;Node5</title>
<path fill="none" stroke="#191970" d="M294,-190.2967C294,-180.7699 294,-168.3954 294,-158.1306"/>
<polygon fill="#191970" stroke="#191970" points="297.5001,-158.0549 294,-148.055 290.5001,-158.055 297.5001,-158.0549"/>
</g>
<!-- Node6 -->
<g id="node7" class="node">
<title>Node6</title>
<g id="a_node7"><a xlink:href="Vector_8h_source.html" target="_top" xlink:title="BipedalLocomotion/Generic\lContainer/Vector.h">
<polygon fill="none" stroke="#000000" points="334,-123.5 334,-153.5 470,-153.5 470,-123.5 334,-123.5"/>
<text text-anchor="start" x="342" y="-141.5" font-family="Helvetica,sans-Serif" font-size="10.00" fill="#000000">BipedalLocomotion/Generic</text>
<text text-anchor="middle" x="402" y="-130.5" font-family="Helvetica,sans-Serif" font-size="10.00" fill="#000000">Container/Vector.h</text>
</a>
</g>
</g>
<!-- Node3&#45;&gt;Node6 -->
<g id="edge7" class="edge">
<title>Node3&#45;&gt;Node6</title>
<path fill="none" stroke="#191970" d="M318.2373,-190.4639C333.1399,-181.2188 352.4406,-169.2452 368.7583,-159.1222"/>
<polygon fill="#191970" stroke="#191970" points="370.8174,-161.9636 377.4699,-153.7177 367.1272,-156.0153 370.8174,-161.9636"/>
</g>
<!-- Node8 -->
<g id="node9" class="node">
<title>Node8</title>
<g id="a_node9"><a xlink:href="TemplateHelpers_8h_source.html" target="_top" xlink:title="BipedalLocomotion/Generic\lContainer/TemplateHelpers.h">
<polygon fill="none" stroke="#000000" points="41,-56.5 41,-86.5 185,-86.5 185,-56.5 41,-56.5"/>
<text text-anchor="start" x="49" y="-74.5" font-family="Helvetica,sans-Serif" font-size="10.00" fill="#000000">BipedalLocomotion/Generic</text>
<text text-anchor="middle" x="113" y="-63.5" font-family="Helvetica,sans-Serif" font-size="10.00" fill="#000000">Container/TemplateHelpers.h</text>
</a>
</g>
</g>
<!-- Node3&#45;&gt;Node8 -->
<g id="edge17" class="edge">
<title>Node3&#45;&gt;Node8</title>
<path fill="none" stroke="#191970" d="M263.4399,-190.4364C245.2582,-180.9378 222.09,-167.8741 203,-154 178.0199,-135.8451 152.3239,-111.6349 134.8169,-94.1412"/>
<polygon fill="#191970" stroke="#191970" points="136.9016,-91.2716 127.3814,-86.6221 131.9242,-96.1936 136.9016,-91.2716"/>
</g>
<!-- Node6&#45;&gt;Node1 -->
<g id="edge16" class="edge">
<title>Node6&#45;&gt;Node1</title>
<path fill="none" stroke="#191970" d="M445.482,-123.463C473.5015,-113.5658 510.6157,-100.0681 543,-87 544.5676,-86.3674 546.1693,-85.7075 547.7828,-85.0319"/>
<polygon fill="#191970" stroke="#191970" points="549.1914,-88.2362 556.9977,-81.0729 546.4282,-81.8046 549.1914,-88.2362"/>
</g>
<!-- Node7 -->
<g id="node8" class="node">
<title>Node7</title>
<polygon fill="none" stroke="#bfbfbf" points="203,-62 203,-81 317,-81 317,-62 203,-62"/>
<text text-anchor="middle" x="260" y="-69" font-family="Helvetica,sans-Serif" font-size="10.00" fill="#000000">iDynTree/Core/Span.h</text>
</g>
<!-- Node6&#45;&gt;Node7 -->
<g id="edge8" class="edge">
<title>Node6&#45;&gt;Node7</title>
<path fill="none" stroke="#191970" d="M370.1324,-123.4639C345.9847,-112.0702 313.0543,-96.5327 289.5061,-85.4219"/>
<polygon fill="#191970" stroke="#191970" points="290.892,-82.2058 280.3546,-81.1039 287.9049,-88.5365 290.892,-82.2058"/>
</g>
<!-- Node6&#45;&gt;Node8 -->
<g id="edge9" class="edge">
<title>Node6&#45;&gt;Node8</title>
<path fill="none" stroke="#191970" d="M337.1428,-123.4639C292.9554,-113.2198 234.3185,-99.6257 188.1023,-88.9113"/>
<polygon fill="#191970" stroke="#191970" points="188.6722,-85.4506 178.1401,-86.6017 187.0913,-92.2698 188.6722,-85.4506"/>
</g>
<!-- Node12 -->
<g id="node13" class="node">
<title>Node12</title>
<polygon fill="none" stroke="#bfbfbf" points="335.5,-62 335.5,-81 394.5,-81 394.5,-62 335.5,-62"/>
<text text-anchor="middle" x="365" y="-69" font-family="Helvetica,sans-Serif" font-size="10.00" fill="#000000">functional</text>
</g>
<!-- Node6&#45;&gt;Node12 -->
<g id="edge13" class="edge">
<title>Node6&#45;&gt;Node12</title>
<path fill="none" stroke="#191970" d="M393.6041,-123.2967C388.1192,-113.3645 380.9249,-100.3371 375.1237,-89.8321"/>
<polygon fill="#191970" stroke="#191970" points="378.1748,-88.1169 370.2766,-81.055 372.047,-91.5009 378.1748,-88.1169"/>
</g>
<!-- Node13 -->
<g id="node14" class="node">
<title>Node13</title>
<polygon fill="none" stroke="#bfbfbf" points="412.5,-62 412.5,-81 461.5,-81 461.5,-62 412.5,-62"/>
<text text-anchor="middle" x="437" y="-69" font-family="Helvetica,sans-Serif" font-size="10.00" fill="#000000">cassert</text>
</g>
<!-- Node6&#45;&gt;Node13 -->
<g id="edge14" class="edge">
<title>Node6&#45;&gt;Node13</title>
<path fill="none" stroke="#191970" d="M409.942,-123.2967C415.0775,-113.4658 421.7971,-100.6026 427.2551,-90.1545"/>
<polygon fill="#191970" stroke="#191970" points="430.4806,-91.5391 432.0086,-81.055 424.2761,-88.2979 430.4806,-91.5391"/>
</g>
<!-- Node14 -->
<g id="node15" class="node">
<title>Node14</title>
<polygon fill="none" stroke="#bfbfbf" points="480,-62 480,-81 534,-81 534,-62 480,-62"/>
<text text-anchor="middle" x="507" y="-69" font-family="Helvetica,sans-Serif" font-size="10.00" fill="#000000">iostream</text>
</g>
<!-- Node6&#45;&gt;Node14 -->
<g id="edge15" class="edge">
<title>Node6&#45;&gt;Node14</title>
<path fill="none" stroke="#191970" d="M425.564,-123.4639C442.7056,-112.526 465.8321,-97.769 483.0602,-86.7759"/>
<polygon fill="#191970" stroke="#191970" points="485.4018,-89.4336 491.9491,-81.1039 481.6364,-83.5326 485.4018,-89.4336"/>
</g>
<!-- Node9 -->
<g id="node10" class="node">
<title>Node9</title>
<polygon fill="none" stroke="#bfbfbf" points="0,-.5 0,-19.5 62,-19.5 62,-.5 0,-.5"/>
<text text-anchor="middle" x="31" y="-7.5" font-family="Helvetica,sans-Serif" font-size="10.00" fill="#000000">type_traits</text>
</g>
<!-- Node8&#45;&gt;Node9 -->
<g id="edge10" class="edge">
<title>Node8&#45;&gt;Node9</title>
<path fill="none" stroke="#191970" d="M92.7303,-56.2977C80.3994,-47.0495 64.6734,-35.2551 52.1803,-25.8853"/>
<polygon fill="#191970" stroke="#191970" points="54.2293,-23.047 44.1292,-19.8469 50.0292,-28.647 54.2293,-23.047"/>
</g>
<!-- Node10 -->
<g id="node11" class="node">
<title>Node10</title>
<polygon fill="none" stroke="#bfbfbf" points="80,-.5 80,-19.5 146,-19.5 146,-.5 80,-.5"/>
<text text-anchor="middle" x="113" y="-7.5" font-family="Helvetica,sans-Serif" font-size="10.00" fill="#000000">string_view</text>
</g>
<!-- Node8&#45;&gt;Node10 -->
<g id="edge11" class="edge">
<title>Node8&#45;&gt;Node10</title>
<path fill="none" stroke="#191970" d="M113,-56.2977C113,-48.3834 113,-38.6043 113,-30.0759"/>
<polygon fill="#191970" stroke="#191970" points="116.5001,-29.8469 113,-19.8469 109.5001,-29.847 116.5001,-29.8469"/>
</g>
<!-- Node11 -->
<g id="node12" class="node">
<title>Node11</title>
<polygon fill="none" stroke="#bfbfbf" points="164.5,-.5 164.5,-19.5 229.5,-19.5 229.5,-.5 164.5,-.5"/>
<text text-anchor="middle" x="197" y="-7.5" font-family="Helvetica,sans-Serif" font-size="10.00" fill="#000000">Eigen/Core</text>
</g>
<!-- Node8&#45;&gt;Node11 -->
<g id="edge12" class="edge">
<title>Node8&#45;&gt;Node11</title>
<path fill="none" stroke="#191970" d="M133.7641,-56.2977C146.3958,-47.0495 162.5053,-35.2551 175.3031,-25.8853"/>
<polygon fill="#191970" stroke="#191970" points="177.5495,-28.5784 183.5505,-19.8469 173.4143,-22.9303 177.5495,-28.5784"/>
</g>
</g>
</svg>
