<?xml version="1.0" encoding="UTF-8" standalone="no"?>
<!DOCTYPE svg PUBLIC "-//W3C//DTD SVG 1.1//EN"
 "http://www.w3.org/Graphics/SVG/1.1/DTD/svg11.dtd">
<!-- Generated by graphviz version 2.40.1 (20161225.0304)
 -->
<!-- Title: Planners/src/QuinticSpline.cpp Pages: 1 -->
<svg width="549pt" height="162pt"
 viewBox="0.00 0.00 549.00 162.00" xmlns="http://www.w3.org/2000/svg" xmlns:xlink="http://www.w3.org/1999/xlink">
<g id="graph0" class="graph" transform="scale(1 1) rotate(0) translate(4 158)">
<title>Planners/src/QuinticSpline.cpp</title>
<!-- Node0 -->
<g id="node1" class="node">
<title>Node0</title>
<polygon fill="#bfbfbf" stroke="#000000" points="66.5,-134.5 66.5,-153.5 217.5,-153.5 217.5,-134.5 66.5,-134.5"/>
<text text-anchor="middle" x="142" y="-141.5" font-family="Helvetica,sans-Serif" font-size="10.00" fill="#000000">Planners/src/QuinticSpline.cpp</text>
</g>
<!-- Node1 -->
<g id="node2" class="node">
<title>Node1</title>
<polygon fill="none" stroke="#bfbfbf" points="0,-73 0,-92 56,-92 56,-73 0,-73"/>
<text text-anchor="middle" x="28" y="-80" font-family="Helvetica,sans-Serif" font-size="10.00" fill="#000000">algorithm</text>
</g>
<!-- Node0&#45;&gt;Node1 -->
<g id="edge1" class="edge">
<title>Node0&#45;&gt;Node1</title>
<path fill="none" stroke="#191970" d="M124.1875,-134.3906C105.5315,-124.3262 76.0203,-108.4057 54.6026,-96.8514"/>
<polygon fill="#191970" stroke="#191970" points="56.1502,-93.7095 45.6874,-92.0419 52.8266,-99.8702 56.1502,-93.7095"/>
</g>
<!-- Node2 -->
<g id="node3" class="node">
<title>Node2</title>
<polygon fill="none" stroke="#bfbfbf" points="74,-73 74,-92 128,-92 128,-73 74,-73"/>
<text text-anchor="middle" x="101" y="-80" font-family="Helvetica,sans-Serif" font-size="10.00" fill="#000000">iostream</text>
</g>
<!-- Node0&#45;&gt;Node2 -->
<g id="edge2" class="edge">
<title>Node0&#45;&gt;Node2</title>
<path fill="none" stroke="#191970" d="M135.5938,-134.3906C129.6114,-125.417 120.5253,-111.7879 113.1661,-100.7491"/>
<polygon fill="#191970" stroke="#191970" points="115.9558,-98.6239 107.4966,-92.2449 110.1314,-102.5068 115.9558,-98.6239"/>
</g>
<!-- Node3 -->
<g id="node4" class="node">
<title>Node3</title>
<polygon fill="none" stroke="#bfbfbf" points="146.5,-73 146.5,-92 221.5,-92 221.5,-73 146.5,-73"/>
<text text-anchor="middle" x="184" y="-80" font-family="Helvetica,sans-Serif" font-size="10.00" fill="#000000">Eigen/Sparse</text>
</g>
<!-- Node0&#45;&gt;Node3 -->
<g id="edge3" class="edge">
<title>Node0&#45;&gt;Node3</title>
<path fill="none" stroke="#191970" d="M148.5625,-134.3906C154.6908,-125.417 163.9985,-111.7879 171.5372,-100.7491"/>
<polygon fill="#191970" stroke="#191970" points="174.5956,-102.4768 177.345,-92.2449 168.815,-98.529 174.5956,-102.4768"/>
</g>
<!-- Node4 -->
<g id="node5" class="node">
<title>Node4</title>
<g id="a_node5"><a xlink:href="QuinticSpline_8h.html" target="_top" xlink:title="BipedalLocomotion/Planners\l/QuinticSpline.h">
<polygon fill="none" stroke="#000000" points="240,-67.5 240,-97.5 380,-97.5 380,-67.5 240,-67.5"/>
<text text-anchor="start" x="248" y="-85.5" font-family="Helvetica,sans-Serif" font-size="10.00" fill="#000000">BipedalLocomotion/Planners</text>
<text text-anchor="middle" x="310" y="-74.5" font-family="Helvetica,sans-Serif" font-size="10.00" fill="#000000">/QuinticSpline.h</text>
</a>
</g>
</g>
<!-- Node0&#45;&gt;Node4 -->
<g id="edge4" class="edge">
<title>Node0&#45;&gt;Node4</title>
<path fill="none" stroke="#191970" d="M168.25,-134.3906C192.5657,-125.4893 229.3947,-112.0073 259.4183,-101.0165"/>
<polygon fill="#191970" stroke="#191970" points="260.7152,-104.269 268.9026,-97.5446 258.3088,-97.6956 260.7152,-104.269"/>
</g>
<!-- Node5 -->
<g id="node6" class="node">
<title>Node5</title>
<polygon fill="none" stroke="#bfbfbf" points="181,-6 181,-25 225,-25 225,-6 181,-6"/>
<text text-anchor="middle" x="203" y="-13" font-family="Helvetica,sans-Serif" font-size="10.00" fill="#000000">vector</text>
</g>
<!-- Node4&#45;&gt;Node5 -->
<g id="edge5" class="edge">
<title>Node4&#45;&gt;Node5</title>
<path fill="none" stroke="#191970" d="M285.9871,-67.4639C268.3574,-56.4247 244.5151,-41.4954 226.9097,-30.4715"/>
<polygon fill="#191970" stroke="#191970" points="228.6707,-27.4446 218.3376,-25.1039 224.9556,-33.3775 228.6707,-27.4446"/>
</g>
<!-- Node6 -->
<g id="node7" class="node">
<title>Node6</title>
<polygon fill="none" stroke="#bfbfbf" points="243,-6 243,-25 295,-25 295,-6 243,-6"/>
<text text-anchor="middle" x="269" y="-13" font-family="Helvetica,sans-Serif" font-size="10.00" fill="#000000">memory</text>
</g>
<!-- Node4&#45;&gt;Node6 -->
<g id="edge6" class="edge">
<title>Node4&#45;&gt;Node6</title>
<path fill="none" stroke="#191970" d="M300.6965,-67.2967C294.6186,-57.3645 286.6466,-44.3371 280.2181,-33.8321"/>
<polygon fill="#191970" stroke="#191970" points="283.0522,-31.7578 274.8471,-25.055 277.0814,-35.4115 283.0522,-31.7578"/>
</g>
<!-- Node7 -->
<g id="node8" class="node">
<title>Node7</title>
<polygon fill="none" stroke="#bfbfbf" points="313.5,-6 313.5,-25 386.5,-25 386.5,-6 313.5,-6"/>
<text text-anchor="middle" x="350" y="-13" font-family="Helvetica,sans-Serif" font-size="10.00" fill="#000000">Eigen/Dense</text>
</g>
<!-- Node4&#45;&gt;Node7 -->
<g id="edge7" class="edge">
<title>Node4&#45;&gt;Node7</title>
<path fill="none" stroke="#191970" d="M319.0766,-67.2967C325.0063,-57.3645 332.7838,-44.3371 339.0555,-33.8321"/>
<polygon fill="#191970" stroke="#191970" points="342.1746,-35.4354 344.2955,-25.055 336.1642,-31.8471 342.1746,-35.4354"/>
</g>
<!-- Node8 -->
<g id="node9" class="node">
<title>Node8</title>
<g id="a_node9"><a xlink:href="Advanceable_8h.html" target="_top" xlink:title="BipedalLocomotion/System\l/Advanceable.h">
<polygon fill="none" stroke="#000000" points="405,-.5 405,-30.5 541,-30.5 541,-.5 405,-.5"/>
<text text-anchor="start" x="413" y="-18.5" font-family="Helvetica,sans-Serif" font-size="10.00" fill="#000000">BipedalLocomotion/System</text>
<text text-anchor="middle" x="473" y="-7.5" font-family="Helvetica,sans-Serif" font-size="10.00" fill="#000000">/Advanceable.h</text>
</a>
</g>
</g>
<!-- Node4&#45;&gt;Node8 -->
<g id="edge8" class="edge">
<title>Node4&#45;&gt;Node8</title>
<path fill="none" stroke="#191970" d="M346.5804,-67.4639C370.3009,-57.7137 401.4043,-44.9289 426.8235,-34.4805"/>
<polygon fill="#191970" stroke="#191970" points="428.3416,-37.6407 436.2601,-30.6017 425.6803,-31.1663 428.3416,-37.6407"/>
</g>
</g>
</svg>
