<?xml version="1.0" encoding="UTF-8" standalone="no"?>
<!DOCTYPE svg PUBLIC "-//W3C//DTD SVG 1.1//EN"
 "http://www.w3.org/Graphics/SVG/1.1/DTD/svg11.dtd">
<!-- Generated by graphviz version 2.40.1 (20161225.0304)
 -->
<!-- Title: Planners/include/BipedalLocomotion/Planners/QuinticSpline.h Pages: 1 -->
<svg width="368pt" height="106pt"
 viewBox="0.00 0.00 368.00 106.00" xmlns="http://www.w3.org/2000/svg" xmlns:xlink="http://www.w3.org/1999/xlink">
<g id="graph0" class="graph" transform="scale(1 1) rotate(0) translate(4 102)">
<title>Planners/include/BipedalLocomotion/Planners/QuinticSpline.h</title>
<!-- Node0 -->
<g id="node1" class="node">
<title>Node0</title>
<polygon fill="#bfbfbf" stroke="#000000" points="39.5,-67.5 39.5,-97.5 216.5,-97.5 216.5,-67.5 39.5,-67.5"/>
<text text-anchor="start" x="47.5" y="-85.5" font-family="Helvetica,sans-Serif" font-size="10.00" fill="#000000">Planners/include/Bipedal</text>
<text text-anchor="middle" x="128" y="-74.5" font-family="Helvetica,sans-Serif" font-size="10.00" fill="#000000">Locomotion/Planners/QuinticSpline.h</text>
</g>
<!-- Node1 -->
<g id="node2" class="node">
<title>Node1</title>
<polygon fill="none" stroke="#bfbfbf" points="0,-6 0,-25 44,-25 44,-6 0,-6"/>
<text text-anchor="middle" x="22" y="-13" font-family="Helvetica,sans-Serif" font-size="10.00" fill="#000000">vector</text>
</g>
<!-- Node0&#45;&gt;Node1 -->
<g id="edge1" class="edge">
<title>Node0&#45;&gt;Node1</title>
<path fill="none" stroke="#191970" d="M104.2115,-67.4639C86.7465,-56.4247 63.1271,-41.4954 45.6862,-30.4715"/>
<polygon fill="#191970" stroke="#191970" points="47.5173,-27.4883 37.1943,-25.1039 43.7772,-33.4054 47.5173,-27.4883"/>
</g>
<!-- Node2 -->
<g id="node3" class="node">
<title>Node2</title>
<polygon fill="none" stroke="#bfbfbf" points="62,-6 62,-25 114,-25 114,-6 62,-6"/>
<text text-anchor="middle" x="88" y="-13" font-family="Helvetica,sans-Serif" font-size="10.00" fill="#000000">memory</text>
</g>
<!-- Node0&#45;&gt;Node2 -->
<g id="edge2" class="edge">
<title>Node0&#45;&gt;Node2</title>
<path fill="none" stroke="#191970" d="M118.9234,-67.2967C112.9937,-57.3645 105.2162,-44.3371 98.9445,-33.8321"/>
<polygon fill="#191970" stroke="#191970" points="101.8358,-31.8471 93.7045,-25.055 95.8254,-35.4354 101.8358,-31.8471"/>
</g>
<!-- Node3 -->
<g id="node4" class="node">
<title>Node3</title>
<polygon fill="none" stroke="#bfbfbf" points="132.5,-6 132.5,-25 205.5,-25 205.5,-6 132.5,-6"/>
<text text-anchor="middle" x="169" y="-13" font-family="Helvetica,sans-Serif" font-size="10.00" fill="#000000">Eigen/Dense</text>
</g>
<!-- Node0&#45;&gt;Node3 -->
<g id="edge3" class="edge">
<title>Node0&#45;&gt;Node3</title>
<path fill="none" stroke="#191970" d="M137.3035,-67.2967C143.3814,-57.3645 151.3534,-44.3371 157.7819,-33.8321"/>
<polygon fill="#191970" stroke="#191970" points="160.9186,-35.4115 163.1529,-25.055 154.9478,-31.7578 160.9186,-35.4115"/>
</g>
<!-- Node4 -->
<g id="node5" class="node">
<title>Node4</title>
<g id="a_node5"><a xlink:href="Advanceable_8h.html" target="_top" xlink:title="BipedalLocomotion/System\l/Advanceable.h">
<polygon fill="none" stroke="#000000" points="224,-.5 224,-30.5 360,-30.5 360,-.5 224,-.5"/>
<text text-anchor="start" x="232" y="-18.5" font-family="Helvetica,sans-Serif" font-size="10.00" fill="#000000">BipedalLocomotion/System</text>
<text text-anchor="middle" x="292" y="-7.5" font-family="Helvetica,sans-Serif" font-size="10.00" fill="#000000">/Advanceable.h</text>
</a>
</g>
</g>
<!-- Node0&#45;&gt;Node4 -->
<g id="edge4" class="edge">
<title>Node0&#45;&gt;Node4</title>
<path fill="none" stroke="#191970" d="M164.8048,-67.4639C188.6709,-57.7137 219.9651,-44.9289 245.5402,-34.4805"/>
<polygon fill="#191970" stroke="#191970" points="247.1011,-37.6237 255.0347,-30.6017 244.4537,-31.1436 247.1011,-37.6237"/>
</g>
</g>
</svg>
