<?xml version="1.0" encoding="UTF-8" standalone="no"?>
<!DOCTYPE svg PUBLIC "-//W3C//DTD SVG 1.1//EN"
 "http://www.w3.org/Graphics/SVG/1.1/DTD/svg11.dtd">
<!-- Generated by graphviz version 2.40.1 (20161225.0304)
 -->
<!-- Title: Planners/include/BipedalLocomotion/Planners/QuinticSpline.h Pages: 1 -->
<svg width="490pt" height="173pt"
 viewBox="0.00 0.00 490.00 173.00" xmlns="http://www.w3.org/2000/svg" xmlns:xlink="http://www.w3.org/1999/xlink">
<g id="graph0" class="graph" transform="scale(1 1) rotate(0) translate(4 169)">
<title>Planners/include/BipedalLocomotion/Planners/QuinticSpline.h</title>
<!-- Node5 -->
<g id="node1" class="node">
<title>Node5</title>
<polygon fill="#bfbfbf" stroke="#000000" points="171,-134.5 171,-164.5 348,-164.5 348,-134.5 171,-134.5"/>
<text text-anchor="start" x="179" y="-152.5" font-family="Helvetica,sans-Serif" font-size="10.00" fill="#000000">Planners/include/Bipedal</text>
<text text-anchor="middle" x="259.5" y="-141.5" font-family="Helvetica,sans-Serif" font-size="10.00" fill="#000000">Locomotion/Planners/QuinticSpline.h</text>
</g>
<!-- Node6 -->
<g id="node2" class="node">
<title>Node6</title>
<g id="a_node2"><a xlink:href="SwingFootPlanner_8h.html" target="_top" xlink:title="Planners/include/Bipedal\lLocomotion/Planners/SwingFoot\lPlanner.h">
<polygon fill="none" stroke="#000000" points="7.5,-56.5 7.5,-97.5 165.5,-97.5 165.5,-56.5 7.5,-56.5"/>
<text text-anchor="start" x="15.5" y="-85.5" font-family="Helvetica,sans-Serif" font-size="10.00" fill="#000000">Planners/include/Bipedal</text>
<text text-anchor="start" x="15.5" y="-74.5" font-family="Helvetica,sans-Serif" font-size="10.00" fill="#000000">Locomotion/Planners/SwingFoot</text>
<text text-anchor="middle" x="86.5" y="-63.5" font-family="Helvetica,sans-Serif" font-size="10.00" fill="#000000">Planner.h</text>
</a>
</g>
</g>
<!-- Node5&#45;&gt;Node6 -->
<g id="edge1" class="edge">
<title>Node5&#45;&gt;Node6</title>
<path fill="none" stroke="#191970" d="M214.328,-130.5695C190.0943,-120.4138 160.2033,-107.8872 135.4208,-97.5015"/>
<polygon fill="#191970" stroke="#191970" points="213.0786,-133.8408 223.6543,-134.478 215.7842,-127.3848 213.0786,-133.8408"/>
</g>
<!-- Node8 -->
<g id="node4" class="node">
<title>Node8</title>
<g id="a_node4"><a xlink:href="QuinticSpline_8cpp.html" target="_top" xlink:title="Planners/src/QuinticSpline.cpp">
<polygon fill="none" stroke="#000000" points="184,-67.5 184,-86.5 335,-86.5 335,-67.5 184,-67.5"/>
<text text-anchor="middle" x="259.5" y="-74.5" font-family="Helvetica,sans-Serif" font-size="10.00" fill="#000000">Planners/src/QuinticSpline.cpp</text>
</a>
</g>
</g>
<!-- Node5&#45;&gt;Node8 -->
<g id="edge3" class="edge">
<title>Node5&#45;&gt;Node8</title>
<path fill="none" stroke="#191970" d="M259.5,-124.305C259.5,-111.424 259.5,-96.4836 259.5,-86.8957"/>
<polygon fill="#191970" stroke="#191970" points="256.0001,-124.4779 259.5,-134.478 263.0001,-124.478 256.0001,-124.4779"/>
</g>
<!-- Node9 -->
<g id="node5" class="node">
<title>Node9</title>
<g id="a_node5"><a xlink:href="TimeVaryingDCMPlanner_8cpp.html" target="_top" xlink:title="Planners/src/TimeVarying\lDCMPlanner.cpp">
<polygon fill="none" stroke="#000000" points="353,-62 353,-92 482,-92 482,-62 353,-62"/>
<text text-anchor="start" x="361" y="-80" font-family="Helvetica,sans-Serif" font-size="10.00" fill="#000000">Planners/src/TimeVarying</text>
<text text-anchor="middle" x="417.5" y="-69" font-family="Helvetica,sans-Serif" font-size="10.00" fill="#000000">DCMPlanner.cpp</text>
</a>
</g>
</g>
<!-- Node5&#45;&gt;Node9 -->
<g id="edge4" class="edge">
<title>Node5&#45;&gt;Node9</title>
<path fill="none" stroke="#191970" d="M301.5089,-130.2237C327.6079,-118.248 360.6637,-103.0799 384.8042,-92.0028"/>
<polygon fill="#191970" stroke="#191970" points="299.8668,-127.1263 292.2377,-134.478 302.7862,-133.4885 299.8668,-127.1263"/>
</g>
<!-- Node7 -->
<g id="node3" class="node">
<title>Node7</title>
<g id="a_node3"><a xlink:href="SwingFootPlanner_8cpp.html" target="_top" xlink:title="Planners/src/SwingFootPlanner.cpp">
<polygon fill="none" stroke="#000000" points="0,-.5 0,-19.5 173,-19.5 173,-.5 0,-.5"/>
<text text-anchor="middle" x="86.5" y="-7.5" font-family="Helvetica,sans-Serif" font-size="10.00" fill="#000000">Planners/src/SwingFootPlanner.cpp</text>
</a>
</g>
</g>
<!-- Node6&#45;&gt;Node7 -->
<g id="edge2" class="edge">
<title>Node6&#45;&gt;Node7</title>
<path fill="none" stroke="#191970" d="M86.5,-46.0909C86.5,-36.5672 86.5,-26.7625 86.5,-19.7805"/>
<polygon fill="#191970" stroke="#191970" points="83.0001,-46.168 86.5,-56.168 90.0001,-46.1681 83.0001,-46.168"/>
</g>
</g>
</svg>
