<?xml version="1.0" encoding="UTF-8" standalone="no"?>
<!DOCTYPE svg PUBLIC "-//W3C//DTD SVG 1.1//EN"
 "http://www.w3.org/Graphics/SVG/1.1/DTD/svg11.dtd">
<!-- Generated by graphviz version 2.40.1 (20161225.0304)
 -->
<!-- Title: Estimators/include/BipedalLocomotion/Estimators/RecursiveLeastSquare.h Pages: 1 -->
<svg width="654pt" height="307pt"
 viewBox="0.00 0.00 653.50 307.00" xmlns="http://www.w3.org/2000/svg" xmlns:xlink="http://www.w3.org/1999/xlink">
<g id="graph0" class="graph" transform="scale(1 1) rotate(0) translate(4 303)">
<title>Estimators/include/BipedalLocomotion/Estimators/RecursiveLeastSquare.h</title>
<!-- Node0 -->
<g id="node1" class="node">
<title>Node0</title>
<polygon fill="#bfbfbf" stroke="#000000" points="331.5,-257.5 331.5,-298.5 483.5,-298.5 483.5,-257.5 331.5,-257.5"/>
<text text-anchor="start" x="339.5" y="-286.5" font-family="Helvetica,sans-Serif" font-size="10.00" fill="#000000">Estimators/include</text>
<text text-anchor="start" x="339.5" y="-275.5" font-family="Helvetica,sans-Serif" font-size="10.00" fill="#000000">/BipedalLocomotion/Estimators</text>
<text text-anchor="middle" x="407.5" y="-264.5" font-family="Helvetica,sans-Serif" font-size="10.00" fill="#000000">/RecursiveLeastSquare.h</text>
</g>
<!-- Node1 -->
<g id="node2" class="node">
<title>Node1</title>
<polygon fill="none" stroke="#bfbfbf" points="0,-62 0,-81 59,-81 59,-62 0,-62"/>
<text text-anchor="middle" x="29.5" y="-69" font-family="Helvetica,sans-Serif" font-size="10.00" fill="#000000">functional</text>
</g>
<!-- Node0&#45;&gt;Node1 -->
<g id="edge1" class="edge">
<title>Node0&#45;&gt;Node1</title>
<path fill="none" stroke="#191970" d="M331.3729,-270.2801C283.7993,-262.8982 222.6478,-248.5868 174.5,-221 115.1074,-186.9704 64.2615,-121.5147 41.8014,-89.7217"/>
<polygon fill="#191970" stroke="#191970" points="44.5732,-87.5768 35.9989,-81.3533 38.8207,-91.5654 44.5732,-87.5768"/>
</g>
<!-- Node2 -->
<g id="node3" class="node">
<title>Node2</title>
<polygon fill="none" stroke="#bfbfbf" points="511.5,-62 511.5,-81 563.5,-81 563.5,-62 511.5,-62"/>
<text text-anchor="middle" x="537.5" y="-69" font-family="Helvetica,sans-Serif" font-size="10.00" fill="#000000">memory</text>
</g>
<!-- Node0&#45;&gt;Node2 -->
<g id="edge2" class="edge">
<title>Node0&#45;&gt;Node2</title>
<path fill="none" stroke="#191970" d="M425.6294,-257.2629C434.4759,-246.7254 445.0124,-233.528 453.5,-221 483.9719,-176.0224 513.6839,-119.2027 528.2357,-90.278"/>
<polygon fill="#191970" stroke="#191970" points="531.3946,-91.7862 532.727,-81.2754 525.1309,-88.6612 531.3946,-91.7862"/>
</g>
<!-- Node3 -->
<g id="node4" class="node">
<title>Node3</title>
<polygon fill="none" stroke="#bfbfbf" points="371,-196 371,-215 444,-215 444,-196 371,-196"/>
<text text-anchor="middle" x="407.5" y="-203" font-family="Helvetica,sans-Serif" font-size="10.00" fill="#000000">Eigen/Dense</text>
</g>
<!-- Node0&#45;&gt;Node3 -->
<g id="edge3" class="edge">
<title>Node0&#45;&gt;Node3</title>
<path fill="none" stroke="#191970" d="M407.5,-257.4183C407.5,-247.32 407.5,-235.213 407.5,-225.2314"/>
<polygon fill="#191970" stroke="#191970" points="411.0001,-225.0853 407.5,-215.0853 404.0001,-225.0854 411.0001,-225.0853"/>
</g>
<!-- Node4 -->
<g id="node5" class="node">
<title>Node4</title>
<g id="a_node5"><a xlink:href="IParametersHandler_8h.html" target="_top" xlink:title="BipedalLocomotion/Parameters\lHandler/IParametersHandler.h">
<polygon fill="none" stroke="#000000" points="183.5,-190.5 183.5,-220.5 335.5,-220.5 335.5,-190.5 183.5,-190.5"/>
<text text-anchor="start" x="191.5" y="-208.5" font-family="Helvetica,sans-Serif" font-size="10.00" fill="#000000">BipedalLocomotion/Parameters</text>
<text text-anchor="middle" x="259.5" y="-197.5" font-family="Helvetica,sans-Serif" font-size="10.00" fill="#000000">Handler/IParametersHandler.h</text>
</a>
</g>
</g>
<!-- Node0&#45;&gt;Node4 -->
<g id="edge4" class="edge">
<title>Node0&#45;&gt;Node4</title>
<path fill="none" stroke="#191970" d="M365.485,-257.4183C344.7344,-247.2533 319.8287,-235.0529 299.376,-225.0338"/>
<polygon fill="#191970" stroke="#191970" points="300.8431,-221.8552 290.323,-220.5991 297.7637,-228.1415 300.8431,-221.8552"/>
</g>
<!-- Node15 -->
<g id="node16" class="node">
<title>Node15</title>
<g id="a_node16"><a xlink:href="Advanceable_8h.html" target="_top" xlink:title="BipedalLocomotion/System\l/Advanceable.h">
<polygon fill="none" stroke="#000000" points="509.5,-190.5 509.5,-220.5 645.5,-220.5 645.5,-190.5 509.5,-190.5"/>
<text text-anchor="start" x="517.5" y="-208.5" font-family="Helvetica,sans-Serif" font-size="10.00" fill="#000000">BipedalLocomotion/System</text>
<text text-anchor="middle" x="577.5" y="-197.5" font-family="Helvetica,sans-Serif" font-size="10.00" fill="#000000">/Advanceable.h</text>
</a>
</g>
</g>
<!-- Node0&#45;&gt;Node15 -->
<g id="edge19" class="edge">
<title>Node0&#45;&gt;Node15</title>
<path fill="none" stroke="#191970" d="M455.7605,-257.4183C479.9177,-247.116 508.9776,-234.7228 532.6461,-224.6289"/>
<polygon fill="#191970" stroke="#191970" points="534.2698,-227.7415 542.0952,-220.5991 531.5237,-221.3026 534.2698,-227.7415"/>
</g>
<!-- Node4&#45;&gt;Node2 -->
<g id="edge5" class="edge">
<title>Node4&#45;&gt;Node2</title>
<path fill="none" stroke="#191970" d="M324.8748,-190.4078C355.9832,-181.9085 393.1428,-169.794 424.5,-154 426.9911,-152.7453 484.1092,-110.7985 516.1615,-87.2138"/>
<polygon fill="#191970" stroke="#191970" points="518.4921,-89.8443 524.4711,-81.0977 514.3426,-84.2068 518.4921,-89.8443"/>
</g>
<!-- Node5 -->
<g id="node6" class="node">
<title>Node5</title>
<polygon fill="none" stroke="#bfbfbf" points="120,-129 120,-148 161,-148 161,-129 120,-129"/>
<text text-anchor="middle" x="140.5" y="-136" font-family="Helvetica,sans-Serif" font-size="10.00" fill="#000000">string</text>
</g>
<!-- Node4&#45;&gt;Node5 -->
<g id="edge6" class="edge">
<title>Node4&#45;&gt;Node5</title>
<path fill="none" stroke="#191970" d="M232.7941,-190.4639C212.9173,-179.2728 185.9399,-164.0838 166.2868,-153.0186"/>
<polygon fill="#191970" stroke="#191970" points="167.9887,-149.9602 157.5577,-148.1039 164.5544,-156.0599 167.9887,-149.9602"/>
</g>
<!-- Node6 -->
<g id="node7" class="node">
<title>Node6</title>
<polygon fill="none" stroke="#bfbfbf" points="179.5,-129 179.5,-148 223.5,-148 223.5,-129 179.5,-129"/>
<text text-anchor="middle" x="201.5" y="-136" font-family="Helvetica,sans-Serif" font-size="10.00" fill="#000000">vector</text>
</g>
<!-- Node4&#45;&gt;Node6 -->
<g id="edge7" class="edge">
<title>Node4&#45;&gt;Node6</title>
<path fill="none" stroke="#191970" d="M246.3389,-190.2967C237.4777,-180.0605 225.7705,-166.5366 216.5407,-155.8746"/>
<polygon fill="#191970" stroke="#191970" points="218.9627,-153.3248 209.7715,-148.055 213.6703,-157.9064 218.9627,-153.3248"/>
</g>
<!-- Node7 -->
<g id="node8" class="node">
<title>Node7</title>
<g id="a_node8"><a xlink:href="Vector_8h_source.html" target="_top" xlink:title="BipedalLocomotion/Generic\lContainer/Vector.h">
<polygon fill="none" stroke="#000000" points="279.5,-123.5 279.5,-153.5 415.5,-153.5 415.5,-123.5 279.5,-123.5"/>
<text text-anchor="start" x="287.5" y="-141.5" font-family="Helvetica,sans-Serif" font-size="10.00" fill="#000000">BipedalLocomotion/Generic</text>
<text text-anchor="middle" x="347.5" y="-130.5" font-family="Helvetica,sans-Serif" font-size="10.00" fill="#000000">Container/Vector.h</text>
</a>
</g>
</g>
<!-- Node4&#45;&gt;Node7 -->
<g id="edge8" class="edge">
<title>Node4&#45;&gt;Node7</title>
<path fill="none" stroke="#191970" d="M279.4686,-190.2967C291.2825,-181.302 306.4306,-169.7687 319.4327,-159.8694"/>
<polygon fill="#191970" stroke="#191970" points="321.7743,-162.4857 327.6105,-153.6432 317.5338,-156.9162 321.7743,-162.4857"/>
</g>
<!-- Node9 -->
<g id="node10" class="node">
<title>Node9</title>
<g id="a_node10"><a xlink:href="TemplateHelpers_8h_source.html" target="_top" xlink:title="BipedalLocomotion/Generic\lContainer/TemplateHelpers.h">
<polygon fill="none" stroke="#000000" points="77.5,-56.5 77.5,-86.5 221.5,-86.5 221.5,-56.5 77.5,-56.5"/>
<text text-anchor="start" x="85.5" y="-74.5" font-family="Helvetica,sans-Serif" font-size="10.00" fill="#000000">BipedalLocomotion/Generic</text>
<text text-anchor="middle" x="149.5" y="-63.5" font-family="Helvetica,sans-Serif" font-size="10.00" fill="#000000">Container/TemplateHelpers.h</text>
</a>
</g>
</g>
<!-- Node4&#45;&gt;Node9 -->
<g id="edge18" class="edge">
<title>Node4&#45;&gt;Node9</title>
<path fill="none" stroke="#191970" d="M257.7158,-190.331C254.9605,-172.567 248.2333,-143.0284 232.5,-123 222.3597,-110.0916 208.0213,-99.5819 194.1093,-91.5025"/>
<polygon fill="#191970" stroke="#191970" points="195.5273,-88.2882 185.0771,-86.5433 192.1583,-94.4242 195.5273,-88.2882"/>
</g>
<!-- Node7&#45;&gt;Node1 -->
<g id="edge14" class="edge">
<title>Node7&#45;&gt;Node1</title>
<path fill="none" stroke="#191970" d="M279.2703,-129.7165C222.2466,-121.4724 139.1429,-107.3453 68.5,-87 66.0495,-86.2943 63.5401,-85.4918 61.0337,-84.6322"/>
<polygon fill="#191970" stroke="#191970" points="62.1057,-81.2971 51.5124,-81.1177 59.6817,-87.864 62.1057,-81.2971"/>
</g>
<!-- Node7&#45;&gt;Node2 -->
<g id="edge17" class="edge">
<title>Node7&#45;&gt;Node2</title>
<path fill="none" stroke="#191970" d="M396.7947,-123.4551C427.4685,-113.7654 467.5871,-100.4949 502.5,-87 504.1194,-86.3741 505.7728,-85.7144 507.4363,-85.0346"/>
<polygon fill="#191970" stroke="#191970" points="509.073,-88.1421 516.9097,-81.0121 506.3371,-81.6989 509.073,-88.1421"/>
</g>
<!-- Node8 -->
<g id="node9" class="node">
<title>Node8</title>
<polygon fill="none" stroke="#bfbfbf" points="311.5,-62 311.5,-81 425.5,-81 425.5,-62 311.5,-62"/>
<text text-anchor="middle" x="368.5" y="-69" font-family="Helvetica,sans-Serif" font-size="10.00" fill="#000000">iDynTree/Core/Span.h</text>
</g>
<!-- Node7&#45;&gt;Node8 -->
<g id="edge9" class="edge">
<title>Node7&#45;&gt;Node8</title>
<path fill="none" stroke="#191970" d="M352.2652,-123.2967C355.283,-113.6685 359.2124,-101.1318 362.4496,-90.8038"/>
<polygon fill="#191970" stroke="#191970" points="365.854,-91.6441 365.5052,-81.055 359.1744,-89.5504 365.854,-91.6441"/>
</g>
<!-- Node7&#45;&gt;Node9 -->
<g id="edge10" class="edge">
<title>Node7&#45;&gt;Node9</title>
<path fill="none" stroke="#191970" d="M303.0649,-123.4639C273.7433,-113.5419 235.1347,-100.4774 203.966,-89.9304"/>
<polygon fill="#191970" stroke="#191970" points="204.7231,-86.4917 194.1289,-86.6017 202.4794,-93.1224 204.7231,-86.4917"/>
</g>
<!-- Node13 -->
<g id="node14" class="node">
<title>Node13</title>
<polygon fill="none" stroke="#bfbfbf" points="444,-62 444,-81 493,-81 493,-62 444,-62"/>
<text text-anchor="middle" x="468.5" y="-69" font-family="Helvetica,sans-Serif" font-size="10.00" fill="#000000">cassert</text>
</g>
<!-- Node7&#45;&gt;Node13 -->
<g id="edge15" class="edge">
<title>Node7&#45;&gt;Node13</title>
<path fill="none" stroke="#191970" d="M374.6548,-123.4639C394.8656,-112.2728 422.2964,-97.0838 442.2799,-86.0186"/>
<polygon fill="#191970" stroke="#191970" points="444.1027,-89.0101 451.1556,-81.1039 440.7117,-82.8862 444.1027,-89.0101"/>
</g>
<!-- Node14 -->
<g id="node15" class="node">
<title>Node14</title>
<polygon fill="none" stroke="#bfbfbf" points="239.5,-62 239.5,-81 293.5,-81 293.5,-62 239.5,-62"/>
<text text-anchor="middle" x="266.5" y="-69" font-family="Helvetica,sans-Serif" font-size="10.00" fill="#000000">iostream</text>
</g>
<!-- Node7&#45;&gt;Node14 -->
<g id="edge16" class="edge">
<title>Node7&#45;&gt;Node14</title>
<path fill="none" stroke="#191970" d="M329.1198,-123.2967C316.2546,-112.6551 299.0937,-98.4602 285.9904,-87.6217"/>
<polygon fill="#191970" stroke="#191970" points="287.9879,-84.7318 278.0515,-81.055 283.5263,-90.1257 287.9879,-84.7318"/>
</g>
<!-- Node10 -->
<g id="node11" class="node">
<title>Node10</title>
<polygon fill="none" stroke="#bfbfbf" points="36.5,-.5 36.5,-19.5 98.5,-19.5 98.5,-.5 36.5,-.5"/>
<text text-anchor="middle" x="67.5" y="-7.5" font-family="Helvetica,sans-Serif" font-size="10.00" fill="#000000">type_traits</text>
</g>
<!-- Node9&#45;&gt;Node10 -->
<g id="edge11" class="edge">
<title>Node9&#45;&gt;Node10</title>
<path fill="none" stroke="#191970" d="M129.2303,-56.2977C116.8994,-47.0495 101.1734,-35.2551 88.6803,-25.8853"/>
<polygon fill="#191970" stroke="#191970" points="90.7293,-23.047 80.6292,-19.8469 86.5292,-28.647 90.7293,-23.047"/>
</g>
<!-- Node11 -->
<g id="node12" class="node">
<title>Node11</title>
<polygon fill="none" stroke="#bfbfbf" points="116.5,-.5 116.5,-19.5 182.5,-19.5 182.5,-.5 116.5,-.5"/>
<text text-anchor="middle" x="149.5" y="-7.5" font-family="Helvetica,sans-Serif" font-size="10.00" fill="#000000">string_view</text>
</g>
<!-- Node9&#45;&gt;Node11 -->
<g id="edge12" class="edge">
<title>Node9&#45;&gt;Node11</title>
<path fill="none" stroke="#191970" d="M149.5,-56.2977C149.5,-48.3834 149.5,-38.6043 149.5,-30.0759"/>
<polygon fill="#191970" stroke="#191970" points="153.0001,-29.8469 149.5,-19.8469 146.0001,-29.847 153.0001,-29.8469"/>
</g>
<!-- Node12 -->
<g id="node13" class="node">
<title>Node12</title>
<polygon fill="none" stroke="#bfbfbf" points="201,-.5 201,-19.5 266,-19.5 266,-.5 201,-.5"/>
<text text-anchor="middle" x="233.5" y="-7.5" font-family="Helvetica,sans-Serif" font-size="10.00" fill="#000000">Eigen/Core</text>
</g>
<!-- Node9&#45;&gt;Node12 -->
<g id="edge13" class="edge">
<title>Node9&#45;&gt;Node12</title>
<path fill="none" stroke="#191970" d="M170.2641,-56.2977C182.8958,-47.0495 199.0053,-35.2551 211.8031,-25.8853"/>
<polygon fill="#191970" stroke="#191970" points="214.0495,-28.5784 220.0505,-19.8469 209.9143,-22.9303 214.0495,-28.5784"/>
</g>
</g>
</svg>
