<?xml version="1.0" encoding="UTF-8" standalone="no"?>
<!DOCTYPE svg PUBLIC "-//W3C//DTD SVG 1.1//EN"
 "http://www.w3.org/Graphics/SVG/1.1/DTD/svg11.dtd">
<!-- Generated by graphviz version 2.40.1 (20161225.0304)
 -->
<!-- Title: Estimators/src/RecursiveLeastSquare.cpp Pages: 1 -->
<!--zoomable 363 -->
<svg id="main" version="1.1" xmlns="http://www.w3.org/2000/svg" xmlns:xlink="http://www.w3.org/1999/xlink" xml:space="preserve" onload="init(evt)">
<style type="text/css"><![CDATA[
.edge:hover path { stroke: red; }
.edge:hover polygon { stroke: red; fill: red; }
]]></style>
<script type="text/javascript"><![CDATA[
var edges = document.getElementsByTagName('g');
if (edges && edges.length) {
  for (var i=0;i<edges.length;i++) {
    if (edges[i].id.substr(0,4)=='edge') {
      edges[i].setAttribute('class','edge');
    }
  }
}
]]></script>
        <defs>
                <circle id="rim" cx="0" cy="0" r="7"/>
                <circle id="rim2" cx="0" cy="0" r="3.5"/>
                <g id="zoomPlus">
                        <use xlink:href="#rim" fill="#404040">
                                <set attributeName="fill" to="#808080" begin="zoomplus.mouseover" end="zoomplus.mouseout"/>
                        </use>
                        <path d="M-4,0h8M0,-4v8" fill="none" stroke="white" stroke-width="1.5" pointer-events="none"/>
                </g>
                <g id="zoomMin">
                        <use xlink:href="#rim" fill="#404040">
                                <set attributeName="fill" to="#808080" begin="zoomminus.mouseover" end="zoomminus.mouseout"/>
                        </use>
                        <path d="M-4,0h8" fill="none" stroke="white" stroke-width="1.5" pointer-events="none"/>
                </g>
                <g id="dirArrow">
                        <path fill="none" stroke="white" stroke-width="1.5" d="M0,-3.0v7 M-2.5,-0.5L0,-3.0L2.5,-0.5"/>
                </g>
               <g id="resetDef">
                       <use xlink:href="#rim2" fill="#404040">
                               <set attributeName="fill" to="#808080" begin="reset.mouseover" end="reset.mouseout"/>
                       </use>
               </g>
        </defs>

<script type="text/javascript">
var viewWidth = 571;
var viewHeight = 363;
var sectionId = 'dynsection-0';
</script>
<script xlink:href="svgpan.js"/>
<svg id="graph" class="graph">
<g id="viewport">
<title>Estimators/src/RecursiveLeastSquare.cpp</title>
<!-- Node0 -->
<g id="node1" class="node">
<title>Node0</title>
<polygon fill="#bfbfbf" stroke="#000000" points="292,-324.5 292,-354.5 420,-354.5 420,-324.5 292,-324.5"/>
<text text-anchor="start" x="300" y="-342.5" font-family="Helvetica,sans-Serif" font-size="10.00" fill="#000000">Estimators/src/Recursive</text>
<text text-anchor="middle" x="356" y="-331.5" font-family="Helvetica,sans-Serif" font-size="10.00" fill="#000000">LeastSquare.cpp</text>
</g>
<!-- Node1 -->
<g id="node2" class="node">
<title>Node1</title>
<g id="a_node2"><a xlink:href="RecursiveLeastSquare_8h.html" target="_top" xlink:title="BipedalLocomotion/Estimators\l/RecursiveLeastSquare.h">
<polygon fill="none" stroke="#000000" points="214.5,-257.5 214.5,-287.5 363.5,-287.5 363.5,-257.5 214.5,-257.5"/>
<text text-anchor="start" x="222.5" y="-275.5" font-family="Helvetica,sans-Serif" font-size="10.00" fill="#000000">BipedalLocomotion/Estimators</text>
<text text-anchor="middle" x="289" y="-264.5" font-family="Helvetica,sans-Serif" font-size="10.00" fill="#000000">/RecursiveLeastSquare.h</text>
</a>
</g>
</g>
<!-- Node0&#45;&gt;Node1 -->
<g id="edge1" class="edge">
<title>Node0&#45;&gt;Node1</title>
<path fill="none" stroke="#191970" d="M340.7967,-324.2967C332.059,-315.559 320.9257,-304.4257 311.2218,-294.7218"/>
<polygon fill="#191970" stroke="#191970" points="313.6892,-292.2394 304.1432,-287.6432 308.7394,-297.1892 313.6892,-292.2394"/>
</g>
<!-- Node8 -->
<g id="node9" class="node">
<title>Node8</title>
<g id="a_node9"><a xlink:href="Vector_8h_source.html" target="_top" xlink:title="BipedalLocomotion/Generic\lContainer/Vector.h">
<polygon fill="none" stroke="#000000" points="289,-123.5 289,-153.5 425,-153.5 425,-123.5 289,-123.5"/>
<text text-anchor="start" x="297" y="-141.5" font-family="Helvetica,sans-Serif" font-size="10.00" fill="#000000">BipedalLocomotion/Generic</text>
<text text-anchor="middle" x="357" y="-130.5" font-family="Helvetica,sans-Serif" font-size="10.00" fill="#000000">Container/Vector.h</text>
</a>
</g>
</g>
<!-- Node0&#45;&gt;Node8 -->
<g id="edge21" class="edge">
<title>Node0&#45;&gt;Node8</title>
<path fill="none" stroke="#191970" d="M373.1809,-324.3262C395.2369,-303.5745 432.4005,-263.9818 447,-221 451.4312,-207.9543 453.9119,-201.9186 447,-190 439.073,-176.331 426.0018,-165.9811 412.2456,-158.2812"/>
<polygon fill="#191970" stroke="#191970" points="413.6465,-155.0657 403.1542,-153.5956 410.4397,-161.288 413.6465,-155.0657"/>
</g>
<!-- Node2 -->
<g id="node3" class="node">
<title>Node2</title>
<polygon fill="none" stroke="#bfbfbf" points="503.5,-62 503.5,-81 562.5,-81 562.5,-62 503.5,-62"/>
<text text-anchor="middle" x="533" y="-69" font-family="Helvetica,sans-Serif" font-size="10.00" fill="#000000">functional</text>
</g>
<!-- Node1&#45;&gt;Node2 -->
<g id="edge2" class="edge">
<title>Node1&#45;&gt;Node2</title>
<path fill="none" stroke="#191970" d="M363.7126,-260.03C392.088,-252.4182 423.2575,-240.2756 447,-221 490.2527,-185.8848 516.062,-122.8404 526.9358,-91.0147"/>
<polygon fill="#191970" stroke="#191970" points="530.3781,-91.7491 530.1631,-81.1564 523.7255,-89.5711 530.3781,-91.7491"/>
</g>
<!-- Node3 -->
<g id="node4" class="node">
<title>Node3</title>
<polygon fill="none" stroke="#bfbfbf" points="0,-62 0,-81 52,-81 52,-62 0,-62"/>
<text text-anchor="middle" x="26" y="-69" font-family="Helvetica,sans-Serif" font-size="10.00" fill="#000000">memory</text>
</g>
<!-- Node1&#45;&gt;Node3 -->
<g id="edge3" class="edge">
<title>Node1&#45;&gt;Node3</title>
<path fill="none" stroke="#191970" d="M214.4632,-267.7045C146.8574,-261.6413 54.308,-248.4707 31,-221 -.1108,-184.3329 11.1682,-122.4938 19.7914,-91.0807"/>
<polygon fill="#191970" stroke="#191970" points="23.1954,-91.9106 22.6569,-81.3295 16.4794,-89.937 23.1954,-91.9106"/>
</g>
<!-- Node4 -->
<g id="node5" class="node">
<title>Node4</title>
<polygon fill="none" stroke="#bfbfbf" points="40.5,-196 40.5,-215 113.5,-215 113.5,-196 40.5,-196"/>
<text text-anchor="middle" x="77" y="-203" font-family="Helvetica,sans-Serif" font-size="10.00" fill="#000000">Eigen/Dense</text>
</g>
<!-- Node1&#45;&gt;Node4 -->
<g id="edge4" class="edge">
<title>Node1&#45;&gt;Node4</title>
<path fill="none" stroke="#191970" d="M239.5085,-257.4882C206.4539,-247.3779 162.0446,-233.6327 123,-221 120.2939,-220.1245 117.5018,-219.2104 114.6934,-218.2831"/>
<polygon fill="#191970" stroke="#191970" points="115.7773,-214.9551 105.1837,-215.1167 113.5659,-221.5966 115.7773,-214.9551"/>
</g>
<!-- Node5 -->
<g id="node6" class="node">
<title>Node5</title>
<g id="a_node6"><a xlink:href="IParametersHandler_8h.html" target="_top" xlink:title="BipedalLocomotion/Parameters\lHandler/IParametersHandler.h">
<polygon fill="none" stroke="#000000" points="132,-190.5 132,-220.5 284,-220.5 284,-190.5 132,-190.5"/>
<text text-anchor="start" x="140" y="-208.5" font-family="Helvetica,sans-Serif" font-size="10.00" fill="#000000">BipedalLocomotion/Parameters</text>
<text text-anchor="middle" x="208" y="-197.5" font-family="Helvetica,sans-Serif" font-size="10.00" fill="#000000">Handler/IParametersHandler.h</text>
</a>
</g>
</g>
<!-- Node1&#45;&gt;Node5 -->
<g id="edge5" class="edge">
<title>Node1&#45;&gt;Node5</title>
<path fill="none" stroke="#191970" d="M270.6198,-257.2967C259.8492,-248.3876 246.0678,-236.9882 234.1771,-227.1527"/>
<polygon fill="#191970" stroke="#191970" points="236.2438,-224.32 226.3074,-220.6432 231.7822,-229.7139 236.2438,-224.32"/>
</g>
<!-- Node16 -->
<g id="node17" class="node">
<title>Node16</title>
<g id="a_node17"><a xlink:href="Advanceable_8h.html" target="_top" xlink:title="BipedalLocomotion/System\l/Advanceable.h">
<polygon fill="none" stroke="#000000" points="302,-190.5 302,-220.5 438,-220.5 438,-190.5 302,-190.5"/>
<text text-anchor="start" x="310" y="-208.5" font-family="Helvetica,sans-Serif" font-size="10.00" fill="#000000">BipedalLocomotion/System</text>
<text text-anchor="middle" x="370" y="-197.5" font-family="Helvetica,sans-Serif" font-size="10.00" fill="#000000">/Advanceable.h</text>
</a>
</g>
</g>
<!-- Node1&#45;&gt;Node16 -->
<g id="edge20" class="edge">
<title>Node1&#45;&gt;Node16</title>
<path fill="none" stroke="#191970" d="M307.3802,-257.2967C318.1508,-248.3876 331.9322,-236.9882 343.8229,-227.1527"/>
<polygon fill="#191970" stroke="#191970" points="346.2178,-229.7139 351.6926,-220.6432 341.7562,-224.32 346.2178,-229.7139"/>
</g>
<!-- Node5&#45;&gt;Node3 -->
<g id="edge6" class="edge">
<title>Node5&#45;&gt;Node3</title>
<path fill="none" stroke="#191970" d="M166.1937,-190.4319C144.9228,-181.6416 119.3374,-169.2658 99,-154 74.3827,-135.5216 51.8653,-107.6692 38.5375,-89.5332"/>
<polygon fill="#191970" stroke="#191970" points="41.1154,-87.1222 32.4431,-81.036 35.4272,-91.2019 41.1154,-87.1222"/>
</g>
<!-- Node6 -->
<g id="node7" class="node">
<title>Node6</title>
<polygon fill="none" stroke="#bfbfbf" points="208.5,-129 208.5,-148 249.5,-148 249.5,-129 208.5,-129"/>
<text text-anchor="middle" x="229" y="-136" font-family="Helvetica,sans-Serif" font-size="10.00" fill="#000000">string</text>
</g>
<!-- Node5&#45;&gt;Node6 -->
<g id="edge7" class="edge">
<title>Node5&#45;&gt;Node6</title>
<path fill="none" stroke="#191970" d="M212.7652,-190.2967C215.783,-180.6685 219.7124,-168.1318 222.9496,-157.8038"/>
<polygon fill="#191970" stroke="#191970" points="226.354,-158.6441 226.0052,-148.055 219.6744,-156.5504 226.354,-158.6441"/>
</g>
<!-- Node7 -->
<g id="node8" class="node">
<title>Node7</title>
<polygon fill="none" stroke="#bfbfbf" points="108,-129 108,-148 152,-148 152,-129 108,-129"/>
<text text-anchor="middle" x="130" y="-136" font-family="Helvetica,sans-Serif" font-size="10.00" fill="#000000">vector</text>
</g>
<!-- Node5&#45;&gt;Node7 -->
<g id="edge8" class="edge">
<title>Node5&#45;&gt;Node7</title>
<path fill="none" stroke="#191970" d="M190.3006,-190.2967C177.9119,-179.6551 161.3865,-165.4602 148.7685,-154.6217"/>
<polygon fill="#191970" stroke="#191970" points="150.99,-151.9159 141.1237,-148.055 146.4288,-157.2259 150.99,-151.9159"/>
</g>
<!-- Node5&#45;&gt;Node8 -->
<g id="edge9" class="edge">
<title>Node5&#45;&gt;Node8</title>
<path fill="none" stroke="#191970" d="M241.4385,-190.4639C262.9307,-180.7996 291.0531,-168.154 314.1742,-157.7572"/>
<polygon fill="#191970" stroke="#191970" points="315.7307,-160.895 323.4156,-153.6017 312.8599,-154.5107 315.7307,-160.895"/>
</g>
<!-- Node10 -->
<g id="node11" class="node">
<title>Node10</title>
<g id="a_node11"><a xlink:href="TemplateHelpers_8h_source.html" target="_top" xlink:title="BipedalLocomotion/Generic\lContainer/TemplateHelpers.h">
<polygon fill="none" stroke="#000000" points="70,-56.5 70,-86.5 214,-86.5 214,-56.5 70,-56.5"/>
<text text-anchor="start" x="78" y="-74.5" font-family="Helvetica,sans-Serif" font-size="10.00" fill="#000000">BipedalLocomotion/Generic</text>
<text text-anchor="middle" x="142" y="-63.5" font-family="Helvetica,sans-Serif" font-size="10.00" fill="#000000">Container/TemplateHelpers.h</text>
</a>
</g>
</g>
<!-- Node5&#45;&gt;Node10 -->
<g id="edge19" class="edge">
<title>Node5&#45;&gt;Node10</title>
<path fill="none" stroke="#191970" d="M200.5573,-190.389C189.2183,-167.3676 167.5068,-123.2866 153.944,-95.7499"/>
<polygon fill="#191970" stroke="#191970" points="157.0752,-94.1858 149.5168,-86.7614 150.7955,-97.2788 157.0752,-94.1858"/>
</g>
<!-- Node8&#45;&gt;Node2 -->
<g id="edge15" class="edge">
<title>Node8&#45;&gt;Node2</title>
<path fill="none" stroke="#191970" d="M397.5394,-123.4875C424.8479,-113.319 461.6495,-99.5078 494,-87 495.8348,-86.2906 497.7165,-85.5584 499.6146,-84.8161"/>
<polygon fill="#191970" stroke="#191970" points="501.0807,-88.0005 509.1027,-81.0796 498.5157,-81.4873 501.0807,-88.0005"/>
</g>
<!-- Node8&#45;&gt;Node3 -->
<g id="edge18" class="edge">
<title>Node8&#45;&gt;Node3</title>
<path fill="none" stroke="#191970" d="M288.8878,-127.5506C208.3375,-114.4604 82.4318,-93.5026 61,-87 58.8816,-86.3572 56.7218,-85.6193 54.5673,-84.8218"/>
<polygon fill="#191970" stroke="#191970" points="55.8823,-81.5783 45.3004,-81.0551 53.2464,-88.0631 55.8823,-81.5783"/>
</g>
<!-- Node9 -->
<g id="node10" class="node">
<title>Node9</title>
<polygon fill="none" stroke="#bfbfbf" points="304,-62 304,-81 418,-81 418,-62 304,-62"/>
<text text-anchor="middle" x="361" y="-69" font-family="Helvetica,sans-Serif" font-size="10.00" fill="#000000">iDynTree/Core/Span.h</text>
</g>
<!-- Node8&#45;&gt;Node9 -->
<g id="edge10" class="edge">
<title>Node8&#45;&gt;Node9</title>
<path fill="none" stroke="#191970" d="M357.9077,-123.2967C358.4764,-113.7699 359.2152,-101.3954 359.828,-91.1306"/>
<polygon fill="#191970" stroke="#191970" points="363.3273,-91.2458 360.4296,-81.055 356.3397,-90.8286 363.3273,-91.2458"/>
</g>
<!-- Node8&#45;&gt;Node10 -->
<g id="edge11" class="edge">
<title>Node8&#45;&gt;Node10</title>
<path fill="none" stroke="#191970" d="M308.7498,-123.4639C276.635,-113.456 234.2605,-100.2509 200.2651,-89.657"/>
<polygon fill="#191970" stroke="#191970" points="201.0491,-86.2354 190.4606,-86.6017 198.9665,-92.9184 201.0491,-86.2354"/>
</g>
<!-- Node14 -->
<g id="node15" class="node">
<title>Node14</title>
<polygon fill="none" stroke="#bfbfbf" points="436.5,-62 436.5,-81 485.5,-81 485.5,-62 436.5,-62"/>
<text text-anchor="middle" x="461" y="-69" font-family="Helvetica,sans-Serif" font-size="10.00" fill="#000000">cassert</text>
</g>
<!-- Node8&#45;&gt;Node14 -->
<g id="edge16" class="edge">
<title>Node8&#45;&gt;Node14</title>
<path fill="none" stroke="#191970" d="M380.3396,-123.4639C397.3179,-112.526 420.2242,-97.769 437.2882,-86.7759"/>
<polygon fill="#191970" stroke="#191970" points="439.5814,-89.462 446.0924,-81.1039 435.7904,-83.5774 439.5814,-89.462"/>
</g>
<!-- Node15 -->
<g id="node16" class="node">
<title>Node15</title>
<polygon fill="none" stroke="#bfbfbf" points="232,-62 232,-81 286,-81 286,-62 232,-62"/>
<text text-anchor="middle" x="259" y="-69" font-family="Helvetica,sans-Serif" font-size="10.00" fill="#000000">iostream</text>
</g>
<!-- Node8&#45;&gt;Node15 -->
<g id="edge17" class="edge">
<title>Node8&#45;&gt;Node15</title>
<path fill="none" stroke="#191970" d="M334.7623,-123.2967C318.7522,-112.351 297.2437,-97.6462 281.2344,-86.701"/>
<polygon fill="#191970" stroke="#191970" points="283.2064,-83.8095 272.9759,-81.055 279.2557,-89.5881 283.2064,-83.8095"/>
</g>
<!-- Node11 -->
<g id="node12" class="node">
<title>Node11</title>
<polygon fill="none" stroke="#bfbfbf" points="29,-.5 29,-19.5 91,-19.5 91,-.5 29,-.5"/>
<text text-anchor="middle" x="60" y="-7.5" font-family="Helvetica,sans-Serif" font-size="10.00" fill="#000000">type_traits</text>
</g>
<!-- Node10&#45;&gt;Node11 -->
<g id="edge12" class="edge">
<title>Node10&#45;&gt;Node11</title>
<path fill="none" stroke="#191970" d="M121.7303,-56.2977C109.3994,-47.0495 93.6734,-35.2551 81.1803,-25.8853"/>
<polygon fill="#191970" stroke="#191970" points="83.2293,-23.047 73.1292,-19.8469 79.0292,-28.647 83.2293,-23.047"/>
</g>
<!-- Node12 -->
<g id="node13" class="node">
<title>Node12</title>
<polygon fill="none" stroke="#bfbfbf" points="109,-.5 109,-19.5 175,-19.5 175,-.5 109,-.5"/>
<text text-anchor="middle" x="142" y="-7.5" font-family="Helvetica,sans-Serif" font-size="10.00" fill="#000000">string_view</text>
</g>
<!-- Node10&#45;&gt;Node12 -->
<g id="edge13" class="edge">
<title>Node10&#45;&gt;Node12</title>
<path fill="none" stroke="#191970" d="M142,-56.2977C142,-48.3834 142,-38.6043 142,-30.0759"/>
<polygon fill="#191970" stroke="#191970" points="145.5001,-29.8469 142,-19.8469 138.5001,-29.847 145.5001,-29.8469"/>
</g>
<!-- Node13 -->
<g id="node14" class="node">
<title>Node13</title>
<polygon fill="none" stroke="#bfbfbf" points="193.5,-.5 193.5,-19.5 258.5,-19.5 258.5,-.5 193.5,-.5"/>
<text text-anchor="middle" x="226" y="-7.5" font-family="Helvetica,sans-Serif" font-size="10.00" fill="#000000">Eigen/Core</text>
</g>
<!-- Node10&#45;&gt;Node13 -->
<g id="edge14" class="edge">
<title>Node10&#45;&gt;Node13</title>
<path fill="none" stroke="#191970" d="M162.7641,-56.2977C175.3958,-47.0495 191.5053,-35.2551 204.3031,-25.8853"/>
<polygon fill="#191970" stroke="#191970" points="206.5495,-28.5784 212.5505,-19.8469 202.4143,-22.9303 206.5495,-28.5784"/>
</g>
</g>
</svg>
        <g id="navigator" transform="translate(0 0)" fill="#404254">
                <rect fill="#f2f5e9" fill-opacity="0.5" stroke="#606060" stroke-width=".5" x="0" y="0" width="60" height="60"/>
                <use id="zoomplus" xlink:href="#zoomPlus" x="17" y="9" onmousedown="handleZoom(evt,'in')"/>
                <use id="zoomminus" xlink:href="#zoomMin" x="42" y="9" onmousedown="handleZoom(evt,'out')"/>
                <use id="reset" xlink:href="#resetDef" x="30" y="36" onmousedown="handleReset()"/>
                <g id="arrowUp" xlink:href="#dirArrow" transform="translate(30 24)" onmousedown="handlePan(0,-1)">
                  <use xlink:href="#rim" fill="#404040">
                        <set attributeName="fill" to="#808080" begin="arrowUp.mouseover" end="arrowUp.mouseout"/>
                  </use>
                  <path fill="none" stroke="white" stroke-width="1.5" d="M0,-3.0v7 M-2.5,-0.5L0,-3.0L2.5,-0.5"/>
                </g>
                <g id="arrowRight" xlink:href="#dirArrow" transform="rotate(90) translate(36 -43)" onmousedown="handlePan(1,0)">
                  <use xlink:href="#rim" fill="#404040">
                        <set attributeName="fill" to="#808080" begin="arrowRight.mouseover" end="arrowRight.mouseout"/>
                  </use>
                  <path fill="none" stroke="white" stroke-width="1.5" d="M0,-3.0v7 M-2.5,-0.5L0,-3.0L2.5,-0.5"/>
                </g>
                <g id="arrowDown" xlink:href="#dirArrow" transform="rotate(180) translate(-30 -48)" onmousedown="handlePan(0,1)">
                  <use xlink:href="#rim" fill="#404040">
                        <set attributeName="fill" to="#808080" begin="arrowDown.mouseover" end="arrowDown.mouseout"/>
                  </use>
                  <path fill="none" stroke="white" stroke-width="1.5" d="M0,-3.0v7 M-2.5,-0.5L0,-3.0L2.5,-0.5"/>
                </g>
                <g id="arrowLeft" xlink:href="#dirArrow" transform="rotate(270) translate(-36 17)" onmousedown="handlePan(-1,0)">
                  <use xlink:href="#rim" fill="#404040">
                        <set attributeName="fill" to="#808080" begin="arrowLeft.mouseover" end="arrowLeft.mouseout"/>
                  </use>
                  <path fill="none" stroke="white" stroke-width="1.5" d="M0,-3.0v7 M-2.5,-0.5L0,-3.0L2.5,-0.5"/>
                </g>
        </g>
        <svg viewBox="0 0 15 15" width="100%" height="30px" preserveAspectRatio="xMaxYMin meet">
         <g id="arrow_out" transform="scale(0.3 0.3)">
          <a xlink:href="RecursiveLeastSquare_8cpp__incl_org.svg" target="_base">
           <rect id="button" ry="5" rx="5" y="6" x="6" height="38" width="38"
                fill="#f2f5e9" fill-opacity="0.5" stroke="#606060" stroke-width="1.0"/>
           <path id="arrow"
             d="M 11.500037,31.436501 C 11.940474,20.09759 22.043105,11.32322 32.158766,21.979434 L 37.068811,17.246167 C 37.068811,17.246167 37.088388,32 37.088388,32 L 22.160133,31.978069 C 22.160133,31.978069 26.997745,27.140456 26.997745,27.140456 C 18.528582,18.264221 13.291696,25.230495 11.500037,31.436501 z"
             style="fill:#404040;"/>
          </a>
         </g>
        </svg>
</svg>
