<?xml version="1.0" encoding="UTF-8" standalone="no"?>
<!DOCTYPE svg PUBLIC "-//W3C//DTD SVG 1.1//EN"
 "http://www.w3.org/Graphics/SVG/1.1/DTD/svg11.dtd">
<!-- Generated by graphviz version 2.40.1 (20161225.0304)
 -->
<!-- Title: YarpUtilities/include/BipedalLocomotion/YarpUtilities/RosPublisher.h Pages: 1 -->
<svg width="572pt" height="307pt"
 viewBox="0.00 0.00 572.00 307.00" xmlns="http://www.w3.org/2000/svg" xmlns:xlink="http://www.w3.org/1999/xlink">
<g id="graph0" class="graph" transform="scale(1 1) rotate(0) translate(4 303)">
<title>YarpUtilities/include/BipedalLocomotion/YarpUtilities/RosPublisher.h</title>
<!-- Node0 -->
<g id="node1" class="node">
<title>Node0</title>
<polygon fill="#bfbfbf" stroke="#000000" points="188,-257.5 188,-298.5 346,-298.5 346,-257.5 188,-257.5"/>
<text text-anchor="start" x="196" y="-286.5" font-family="Helvetica,sans-Serif" font-size="10.00" fill="#000000">YarpUtilities/include</text>
<text text-anchor="start" x="196" y="-275.5" font-family="Helvetica,sans-Serif" font-size="10.00" fill="#000000">/BipedalLocomotion/YarpUtilities</text>
<text text-anchor="middle" x="267" y="-264.5" font-family="Helvetica,sans-Serif" font-size="10.00" fill="#000000">/RosPublisher.h</text>
</g>
<!-- Node1 -->
<g id="node2" class="node">
<title>Node1</title>
<g id="a_node2"><a xlink:href="IParametersHandler_8h.html" target="_top" xlink:title="BipedalLocomotion/Parameters\lHandler/IParametersHandler.h">
<polygon fill="none" stroke="#000000" points="87,-190.5 87,-220.5 239,-220.5 239,-190.5 87,-190.5"/>
<text text-anchor="start" x="95" y="-208.5" font-family="Helvetica,sans-Serif" font-size="10.00" fill="#000000">BipedalLocomotion/Parameters</text>
<text text-anchor="middle" x="163" y="-197.5" font-family="Helvetica,sans-Serif" font-size="10.00" fill="#000000">Handler/IParametersHandler.h</text>
</a>
</g>
</g>
<!-- Node0&#45;&gt;Node1 -->
<g id="edge1" class="edge">
<title>Node0&#45;&gt;Node1</title>
<path fill="none" stroke="#191970" d="M237.476,-257.4183C223.5513,-247.7112 206.9639,-236.1479 192.9816,-226.4007"/>
<polygon fill="#191970" stroke="#191970" points="194.8644,-223.4467 184.6594,-220.5991 190.8613,-229.1891 194.8644,-223.4467"/>
</g>
<!-- Node2 -->
<g id="node3" class="node">
<title>Node2</title>
<polygon fill="none" stroke="#bfbfbf" points="0,-62 0,-81 52,-81 52,-62 0,-62"/>
<text text-anchor="middle" x="26" y="-69" font-family="Helvetica,sans-Serif" font-size="10.00" fill="#000000">memory</text>
</g>
<!-- Node0&#45;&gt;Node2 -->
<g id="edge17" class="edge">
<title>Node0&#45;&gt;Node2</title>
<path fill="none" stroke="#191970" d="M187.9658,-261.6822C143.7581,-251.1376 94.3355,-236.522 78,-221 41.0963,-185.934 30.3725,-123.333 27.2638,-91.4095"/>
<polygon fill="#191970" stroke="#191970" points="30.7281,-90.8273 26.4287,-81.1441 23.7512,-91.395 30.7281,-90.8273"/>
</g>
<!-- Node3 -->
<g id="node4" class="node">
<title>Node3</title>
<polygon fill="none" stroke="#bfbfbf" points="345.5,-129 345.5,-148 386.5,-148 386.5,-129 345.5,-129"/>
<text text-anchor="middle" x="366" y="-136" font-family="Helvetica,sans-Serif" font-size="10.00" fill="#000000">string</text>
</g>
<!-- Node0&#45;&gt;Node3 -->
<g id="edge19" class="edge">
<title>Node0&#45;&gt;Node3</title>
<path fill="none" stroke="#191970" d="M281.6078,-257.4163C300.9607,-230.1463 334.7915,-182.4756 353.1935,-156.5455"/>
<polygon fill="#191970" stroke="#191970" points="356.2865,-158.2348 359.2197,-148.0541 350.5779,-154.1835 356.2865,-158.2348"/>
</g>
<!-- Node5 -->
<g id="node6" class="node">
<title>Node5</title>
<g id="a_node6"><a xlink:href="Vector_8h_source.html" target="_top" xlink:title="BipedalLocomotion/Generic\lContainer/Vector.h">
<polygon fill="none" stroke="#000000" points="191,-123.5 191,-153.5 327,-153.5 327,-123.5 191,-123.5"/>
<text text-anchor="start" x="199" y="-141.5" font-family="Helvetica,sans-Serif" font-size="10.00" fill="#000000">BipedalLocomotion/Generic</text>
<text text-anchor="middle" x="259" y="-130.5" font-family="Helvetica,sans-Serif" font-size="10.00" fill="#000000">Container/Vector.h</text>
</a>
</g>
</g>
<!-- Node0&#45;&gt;Node5 -->
<g id="edge16" class="edge">
<title>Node0&#45;&gt;Node5</title>
<path fill="none" stroke="#191970" d="M265.8196,-257.4163C264.3909,-232.5034 261.9858,-190.5643 260.4469,-163.7297"/>
<polygon fill="#191970" stroke="#191970" points="263.9318,-163.3654 259.8649,-153.5822 256.9433,-163.7663 263.9318,-163.3654"/>
</g>
<!-- Node13 -->
<g id="node14" class="node">
<title>Node13</title>
<polygon fill="none" stroke="#bfbfbf" points="510,-62 510,-81 564,-81 564,-62 510,-62"/>
<text text-anchor="middle" x="537" y="-69" font-family="Helvetica,sans-Serif" font-size="10.00" fill="#000000">iostream</text>
</g>
<!-- Node0&#45;&gt;Node13 -->
<g id="edge18" class="edge">
<title>Node0&#45;&gt;Node13</title>
<path fill="none" stroke="#191970" d="M293.8757,-257.445C347.7452,-216.2449 467.9022,-124.347 516.2546,-87.3664"/>
<polygon fill="#191970" stroke="#191970" points="518.5984,-89.9802 524.4153,-81.125 514.3458,-84.4199 518.5984,-89.9802"/>
</g>
<!-- Node1&#45;&gt;Node2 -->
<g id="edge2" class="edge">
<title>Node1&#45;&gt;Node2</title>
<path fill="none" stroke="#191970" d="M133.2079,-190.4588C116.9258,-181.3268 97.0682,-168.6225 82,-154 62.294,-134.8769 45.5082,-107.7772 35.5896,-89.9281"/>
<polygon fill="#191970" stroke="#191970" points="38.6402,-88.2111 30.8109,-81.073 32.48,-91.5356 38.6402,-88.2111"/>
</g>
<!-- Node1&#45;&gt;Node3 -->
<g id="edge3" class="edge">
<title>Node1&#45;&gt;Node3</title>
<path fill="none" stroke="#191970" d="M223.5968,-190.4566C257.2333,-181.3654 299.5228,-168.7013 336,-154 337.1928,-153.5193 338.4015,-153.0071 339.6146,-152.4724"/>
<polygon fill="#191970" stroke="#191970" points="341.2941,-155.549 348.8093,-148.0809 338.2772,-149.2325 341.2941,-155.549"/>
</g>
<!-- Node4 -->
<g id="node5" class="node">
<title>Node4</title>
<polygon fill="none" stroke="#bfbfbf" points="91,-129 91,-148 135,-148 135,-129 91,-129"/>
<text text-anchor="middle" x="113" y="-136" font-family="Helvetica,sans-Serif" font-size="10.00" fill="#000000">vector</text>
</g>
<!-- Node1&#45;&gt;Node4 -->
<g id="edge4" class="edge">
<title>Node1&#45;&gt;Node4</title>
<path fill="none" stroke="#191970" d="M151.6542,-190.2967C144.0909,-180.1618 134.1224,-166.804 126.2031,-156.1921"/>
<polygon fill="#191970" stroke="#191970" points="128.9165,-153.976 120.1306,-148.055 123.3064,-158.1626 128.9165,-153.976"/>
</g>
<!-- Node1&#45;&gt;Node5 -->
<g id="edge5" class="edge">
<title>Node1&#45;&gt;Node5</title>
<path fill="none" stroke="#191970" d="M184.7839,-190.2967C197.7945,-181.2163 214.5121,-169.5488 228.7858,-159.587"/>
<polygon fill="#191970" stroke="#191970" points="231.1051,-162.2365 237.3023,-153.6432 227.0988,-156.4962 231.1051,-162.2365"/>
</g>
<!-- Node7 -->
<g id="node8" class="node">
<title>Node7</title>
<g id="a_node8"><a xlink:href="TemplateHelpers_8h_source.html" target="_top" xlink:title="BipedalLocomotion/Generic\lContainer/TemplateHelpers.h">
<polygon fill="none" stroke="#000000" points="70,-56.5 70,-86.5 214,-86.5 214,-56.5 70,-56.5"/>
<text text-anchor="start" x="78" y="-74.5" font-family="Helvetica,sans-Serif" font-size="10.00" fill="#000000">BipedalLocomotion/Generic</text>
<text text-anchor="middle" x="142" y="-63.5" font-family="Helvetica,sans-Serif" font-size="10.00" fill="#000000">Container/TemplateHelpers.h</text>
</a>
</g>
</g>
<!-- Node1&#45;&gt;Node7 -->
<g id="edge15" class="edge">
<title>Node1&#45;&gt;Node7</title>
<path fill="none" stroke="#191970" d="M160.6319,-190.389C157.0713,-167.6691 150.2963,-124.438 145.9713,-96.8405"/>
<polygon fill="#191970" stroke="#191970" points="149.3979,-96.0989 144.3917,-86.7614 142.4823,-97.1827 149.3979,-96.0989"/>
</g>
<!-- Node5&#45;&gt;Node2 -->
<g id="edge14" class="edge">
<title>Node5&#45;&gt;Node2</title>
<path fill="none" stroke="#191970" d="M190.8275,-123.6597C152.2672,-114.5493 103.4234,-101.8009 61,-87 59.1647,-86.3597 57.2918,-85.6633 55.414,-84.9321"/>
<polygon fill="#191970" stroke="#191970" points="56.7118,-81.6814 46.1339,-81.0835 54.0302,-88.1474 56.7118,-81.6814"/>
</g>
<!-- Node6 -->
<g id="node7" class="node">
<title>Node6</title>
<polygon fill="none" stroke="#bfbfbf" points="300,-62 300,-81 414,-81 414,-62 300,-62"/>
<text text-anchor="middle" x="357" y="-69" font-family="Helvetica,sans-Serif" font-size="10.00" fill="#000000">iDynTree/Core/Span.h</text>
</g>
<!-- Node5&#45;&gt;Node6 -->
<g id="edge6" class="edge">
<title>Node5&#45;&gt;Node6</title>
<path fill="none" stroke="#191970" d="M281.2377,-123.2967C297.2478,-112.351 318.7563,-97.6462 334.7656,-86.701"/>
<polygon fill="#191970" stroke="#191970" points="336.7443,-89.5881 343.0241,-81.055 332.7936,-83.8095 336.7443,-89.5881"/>
</g>
<!-- Node5&#45;&gt;Node7 -->
<g id="edge7" class="edge">
<title>Node5&#45;&gt;Node7</title>
<path fill="none" stroke="#191970" d="M232.7429,-123.4639C216.4489,-114.1332 195.3018,-102.0232 177.5216,-91.8415"/>
<polygon fill="#191970" stroke="#191970" points="178.9914,-88.6499 168.5743,-86.7177 175.5128,-94.7244 178.9914,-88.6499"/>
</g>
<!-- Node11 -->
<g id="node12" class="node">
<title>Node11</title>
<polygon fill="none" stroke="#bfbfbf" points="432.5,-62 432.5,-81 491.5,-81 491.5,-62 432.5,-62"/>
<text text-anchor="middle" x="462" y="-69" font-family="Helvetica,sans-Serif" font-size="10.00" fill="#000000">functional</text>
</g>
<!-- Node5&#45;&gt;Node11 -->
<g id="edge11" class="edge">
<title>Node5&#45;&gt;Node11</title>
<path fill="none" stroke="#191970" d="M310.2949,-123.4582C342.7932,-113.6661 385.5979,-100.2845 423,-87 424.9053,-86.3233 426.8557,-85.6112 428.8192,-84.8792"/>
<polygon fill="#191970" stroke="#191970" points="430.514,-87.9778 438.596,-81.1271 428.0059,-81.4425 430.514,-87.9778"/>
</g>
<!-- Node12 -->
<g id="node13" class="node">
<title>Node12</title>
<polygon fill="none" stroke="#bfbfbf" points="232.5,-62 232.5,-81 281.5,-81 281.5,-62 232.5,-62"/>
<text text-anchor="middle" x="257" y="-69" font-family="Helvetica,sans-Serif" font-size="10.00" fill="#000000">cassert</text>
</g>
<!-- Node5&#45;&gt;Node12 -->
<g id="edge12" class="edge">
<title>Node5&#45;&gt;Node12</title>
<path fill="none" stroke="#191970" d="M258.5462,-123.2967C258.2618,-113.7699 257.8924,-101.3954 257.586,-91.1306"/>
<polygon fill="#191970" stroke="#191970" points="261.0821,-90.9461 257.2852,-81.055 254.0853,-91.155 261.0821,-90.9461"/>
</g>
<!-- Node5&#45;&gt;Node13 -->
<g id="edge13" class="edge">
<title>Node5&#45;&gt;Node13</title>
<path fill="none" stroke="#191970" d="M327.1319,-124.7159C392.7716,-111.3201 484.4994,-92.2515 501,-87 503.1074,-86.3293 505.2599,-85.5791 507.4121,-84.7804"/>
<polygon fill="#191970" stroke="#191970" points="508.7197,-88.027 516.7051,-81.0641 506.1204,-81.5275 508.7197,-88.027"/>
</g>
<!-- Node8 -->
<g id="node9" class="node">
<title>Node8</title>
<polygon fill="none" stroke="#bfbfbf" points="29,-.5 29,-19.5 91,-19.5 91,-.5 29,-.5"/>
<text text-anchor="middle" x="60" y="-7.5" font-family="Helvetica,sans-Serif" font-size="10.00" fill="#000000">type_traits</text>
</g>
<!-- Node7&#45;&gt;Node8 -->
<g id="edge8" class="edge">
<title>Node7&#45;&gt;Node8</title>
<path fill="none" stroke="#191970" d="M121.7303,-56.2977C109.3994,-47.0495 93.6734,-35.2551 81.1803,-25.8853"/>
<polygon fill="#191970" stroke="#191970" points="83.2293,-23.047 73.1292,-19.8469 79.0292,-28.647 83.2293,-23.047"/>
</g>
<!-- Node9 -->
<g id="node10" class="node">
<title>Node9</title>
<polygon fill="none" stroke="#bfbfbf" points="109,-.5 109,-19.5 175,-19.5 175,-.5 109,-.5"/>
<text text-anchor="middle" x="142" y="-7.5" font-family="Helvetica,sans-Serif" font-size="10.00" fill="#000000">string_view</text>
</g>
<!-- Node7&#45;&gt;Node9 -->
<g id="edge9" class="edge">
<title>Node7&#45;&gt;Node9</title>
<path fill="none" stroke="#191970" d="M142,-56.2977C142,-48.3834 142,-38.6043 142,-30.0759"/>
<polygon fill="#191970" stroke="#191970" points="145.5001,-29.8469 142,-19.8469 138.5001,-29.847 145.5001,-29.8469"/>
</g>
<!-- Node10 -->
<g id="node11" class="node">
<title>Node10</title>
<polygon fill="none" stroke="#bfbfbf" points="193.5,-.5 193.5,-19.5 258.5,-19.5 258.5,-.5 193.5,-.5"/>
<text text-anchor="middle" x="226" y="-7.5" font-family="Helvetica,sans-Serif" font-size="10.00" fill="#000000">Eigen/Core</text>
</g>
<!-- Node7&#45;&gt;Node10 -->
<g id="edge10" class="edge">
<title>Node7&#45;&gt;Node10</title>
<path fill="none" stroke="#191970" d="M162.7641,-56.2977C175.3958,-47.0495 191.5053,-35.2551 204.3031,-25.8853"/>
<polygon fill="#191970" stroke="#191970" points="206.5495,-28.5784 212.5505,-19.8469 202.4143,-22.9303 206.5495,-28.5784"/>
</g>
</g>
</svg>
