<?xml version="1.0" encoding="UTF-8" standalone="no"?>
<!DOCTYPE svg PUBLIC "-//W3C//DTD SVG 1.1//EN"
 "http://www.w3.org/Graphics/SVG/1.1/DTD/svg11.dtd">
<!-- Generated by graphviz version 2.40.1 (20161225.0304)
 -->
<!-- Title: YarpUtilities/src/RosPublisher.cpp Pages: 1 -->
<!--zoomable 352 -->
<svg id="main" version="1.1" xmlns="http://www.w3.org/2000/svg" xmlns:xlink="http://www.w3.org/1999/xlink" xml:space="preserve" onload="init(evt)">
<style type="text/css"><![CDATA[
.edge:hover path { stroke: red; }
.edge:hover polygon { stroke: red; fill: red; }
]]></style>
<script type="text/javascript"><![CDATA[
var edges = document.getElementsByTagName('g');
if (edges && edges.length) {
  for (var i=0;i<edges.length;i++) {
    if (edges[i].id.substr(0,4)=='edge') {
      edges[i].setAttribute('class','edge');
    }
  }
}
]]></script>
        <defs>
                <circle id="rim" cx="0" cy="0" r="7"/>
                <circle id="rim2" cx="0" cy="0" r="3.5"/>
                <g id="zoomPlus">
                        <use xlink:href="#rim" fill="#404040">
                                <set attributeName="fill" to="#808080" begin="zoomplus.mouseover" end="zoomplus.mouseout"/>
                        </use>
                        <path d="M-4,0h8M0,-4v8" fill="none" stroke="white" stroke-width="1.5" pointer-events="none"/>
                </g>
                <g id="zoomMin">
                        <use xlink:href="#rim" fill="#404040">
                                <set attributeName="fill" to="#808080" begin="zoomminus.mouseover" end="zoomminus.mouseout"/>
                        </use>
                        <path d="M-4,0h8" fill="none" stroke="white" stroke-width="1.5" pointer-events="none"/>
                </g>
                <g id="dirArrow">
                        <path fill="none" stroke="white" stroke-width="1.5" d="M0,-3.0v7 M-2.5,-0.5L0,-3.0L2.5,-0.5"/>
                </g>
               <g id="resetDef">
                       <use xlink:href="#rim2" fill="#404040">
                               <set attributeName="fill" to="#808080" begin="reset.mouseover" end="reset.mouseout"/>
                       </use>
               </g>
        </defs>

<script type="text/javascript">
var viewWidth = 1645;
var viewHeight = 352;
var sectionId = 'dynsection-0';
</script>
<script xlink:href="svgpan.js"/>
<svg id="graph" class="graph">
<g id="viewport">
<title>YarpUtilities/src/RosPublisher.cpp</title>
<!-- Node0 -->
<g id="node1" class="node">
<title>Node0</title>
<polygon fill="#bfbfbf" stroke="#000000" points="865.5,-324.5 865.5,-343.5 1032.5,-343.5 1032.5,-324.5 865.5,-324.5"/>
<text text-anchor="middle" x="949" y="-331.5" font-family="Helvetica,sans-Serif" font-size="10.00" fill="#000000">YarpUtilities/src/RosPublisher.cpp</text>
</g>
<!-- Node1 -->
<g id="node2" class="node">
<title>Node1</title>
<g id="a_node2"><a xlink:href="RosPublisher_8h.html" target="_top" xlink:title="BipedalLocomotion/YarpUtilities\l/RosPublisher.h">
<polygon fill="none" stroke="#000000" points="189.5,-257.5 189.5,-287.5 344.5,-287.5 344.5,-257.5 189.5,-257.5"/>
<text text-anchor="start" x="197.5" y="-275.5" font-family="Helvetica,sans-Serif" font-size="10.00" fill="#000000">BipedalLocomotion/YarpUtilities</text>
<text text-anchor="middle" x="267" y="-264.5" font-family="Helvetica,sans-Serif" font-size="10.00" fill="#000000">/RosPublisher.h</text>
</a>
</g>
</g>
<!-- Node0&#45;&gt;Node1 -->
<g id="edge1" class="edge">
<title>Node0&#45;&gt;Node1</title>
<path fill="none" stroke="#191970" d="M865.4673,-330.1589C752.1312,-324.3623 543.165,-311.6049 354.8192,-288.0187"/>
<polygon fill="#191970" stroke="#191970" points="355.0899,-284.5251 344.7296,-286.7422 354.2112,-291.4697 355.0899,-284.5251"/>
</g>
<!-- Node15 -->
<g id="node16" class="node">
<title>Node15</title>
<polygon fill="none" stroke="#bfbfbf" points="363,-263 363,-282 445,-282 445,-263 363,-263"/>
<text text-anchor="middle" x="404" y="-270" font-family="Helvetica,sans-Serif" font-size="10.00" fill="#000000">yarp/os/Time.h</text>
</g>
<!-- Node0&#45;&gt;Node15 -->
<g id="edge21" class="edge">
<title>Node0&#45;&gt;Node15</title>
<path fill="none" stroke="#191970" d="M865.2298,-331.3557C766.371,-327.051 597.4161,-315.9733 455,-288 450.5903,-287.1338 446.0183,-286.0385 441.5044,-284.8322"/>
<polygon fill="#191970" stroke="#191970" points="442.3776,-281.4417 431.8008,-282.0597 440.4545,-288.1723 442.3776,-281.4417"/>
</g>
<!-- Node16 -->
<g id="node17" class="node">
<title>Node16</title>
<polygon fill="none" stroke="#bfbfbf" points="463.5,-263 463.5,-282 546.5,-282 546.5,-263 463.5,-263"/>
<text text-anchor="middle" x="505" y="-270" font-family="Helvetica,sans-Serif" font-size="10.00" fill="#000000">yarp/os/Node.h</text>
</g>
<!-- Node0&#45;&gt;Node16 -->
<g id="edge22" class="edge">
<title>Node0&#45;&gt;Node16</title>
<path fill="none" stroke="#191970" d="M865.1209,-328.5402C785.0743,-322.3068 661.4074,-310.0027 556,-288 551.7707,-287.1172 547.3877,-286.0408 543.0478,-284.8709"/>
<polygon fill="#191970" stroke="#191970" points="543.6694,-281.4082 533.0922,-282.0183 541.7413,-288.1374 543.6694,-281.4082"/>
</g>
<!-- Node17 -->
<g id="node18" class="node">
<title>Node17</title>
<polygon fill="none" stroke="#bfbfbf" points="564.5,-263 564.5,-282 665.5,-282 665.5,-263 564.5,-263"/>
<text text-anchor="middle" x="615" y="-270" font-family="Helvetica,sans-Serif" font-size="10.00" fill="#000000">yarp/os/Publisher.h</text>
</g>
<!-- Node0&#45;&gt;Node17 -->
<g id="edge23" class="edge">
<title>Node0&#45;&gt;Node17</title>
<path fill="none" stroke="#191970" d="M882.535,-324.4876C826.8578,-316.1258 745.4158,-302.9769 675,-288 669.9982,-286.9362 664.7853,-285.733 659.6123,-284.479"/>
<polygon fill="#191970" stroke="#191970" points="660.3288,-281.0506 649.7792,-282.028 658.6357,-287.8428 660.3288,-281.0506"/>
</g>
<!-- Node18 -->
<g id="node19" class="node">
<title>Node18</title>
<polygon fill="none" stroke="#bfbfbf" points="683.5,-263 683.5,-282 794.5,-282 794.5,-263 683.5,-263"/>
<text text-anchor="middle" x="739" y="-270" font-family="Helvetica,sans-Serif" font-size="10.00" fill="#000000">yarp/dev/PolyDriver.h</text>
</g>
<!-- Node0&#45;&gt;Node18 -->
<g id="edge24" class="edge">
<title>Node0&#45;&gt;Node18</title>
<path fill="none" stroke="#191970" d="M916.1875,-324.3906C879.8178,-313.7395 821.0522,-296.5296 781.2637,-284.8772"/>
<polygon fill="#191970" stroke="#191970" points="782.1627,-281.4936 771.5821,-282.0419 780.1953,-288.2114 782.1627,-281.4936"/>
</g>
<!-- Node19 -->
<g id="node20" class="node">
<title>Node19</title>
<polygon fill="none" stroke="#bfbfbf" points="813,-263 813,-282 953,-282 953,-263 813,-263"/>
<text text-anchor="middle" x="883" y="-270" font-family="Helvetica,sans-Serif" font-size="10.00" fill="#000000">yarp/dev/IFrameTransform.h</text>
</g>
<!-- Node0&#45;&gt;Node19 -->
<g id="edge25" class="edge">
<title>Node0&#45;&gt;Node19</title>
<path fill="none" stroke="#191970" d="M938.6875,-324.3906C928.5758,-314.9683 912.9558,-300.4134 900.8293,-289.1137"/>
<polygon fill="#191970" stroke="#191970" points="903.1601,-286.5015 893.4579,-282.2449 898.388,-291.6228 903.1601,-286.5015"/>
</g>
<!-- Node20 -->
<g id="node21" class="node">
<title>Node20</title>
<polygon fill="none" stroke="#bfbfbf" points="971.5,-263 971.5,-282 1060.5,-282 1060.5,-263 971.5,-263"/>
<text text-anchor="middle" x="1016" y="-270" font-family="Helvetica,sans-Serif" font-size="10.00" fill="#000000">yarp/sig/Matrix.h</text>
</g>
<!-- Node0&#45;&gt;Node20 -->
<g id="edge26" class="edge">
<title>Node0&#45;&gt;Node20</title>
<path fill="none" stroke="#191970" d="M959.4688,-324.3906C969.7337,-314.9683 985.5903,-300.4134 997.9006,-289.1137"/>
<polygon fill="#191970" stroke="#191970" points="1000.3834,-291.5856 1005.3837,-282.2449 995.6499,-286.4287 1000.3834,-291.5856"/>
</g>
<!-- Node21 -->
<g id="node22" class="node">
<title>Node21</title>
<polygon fill="none" stroke="#bfbfbf" points="1079,-263 1079,-282 1201,-282 1201,-263 1079,-263"/>
<text text-anchor="middle" x="1140" y="-270" font-family="Helvetica,sans-Serif" font-size="10.00" fill="#000000">yarp/rosmsg/TickTime.h</text>
</g>
<!-- Node0&#45;&gt;Node21 -->
<g id="edge27" class="edge">
<title>Node0&#45;&gt;Node21</title>
<path fill="none" stroke="#191970" d="M978.8438,-324.3906C1011.6425,-313.8298 1064.4672,-296.8208 1100.6364,-285.1747"/>
<polygon fill="#191970" stroke="#191970" points="1101.9198,-288.4385 1110.3658,-282.0419 1099.7743,-281.7753 1101.9198,-288.4385"/>
</g>
<!-- Node22 -->
<g id="node23" class="node">
<title>Node22</title>
<polygon fill="none" stroke="#bfbfbf" points="1219.5,-257.5 1219.5,-287.5 1322.5,-287.5 1322.5,-257.5 1219.5,-257.5"/>
<text text-anchor="start" x="1227.5" y="-275.5" font-family="Helvetica,sans-Serif" font-size="10.00" fill="#000000">yarp/rosmsg/sensor</text>
<text text-anchor="middle" x="1271" y="-264.5" font-family="Helvetica,sans-Serif" font-size="10.00" fill="#000000">_msgs/JointState.h</text>
</g>
<!-- Node0&#45;&gt;Node22 -->
<g id="edge28" class="edge">
<title>Node0&#45;&gt;Node22</title>
<path fill="none" stroke="#191970" d="M1010.4234,-324.4982C1061.1938,-316.3425 1135.3662,-303.7357 1209.4963,-288.0145"/>
<polygon fill="#191970" stroke="#191970" points="1210.4326,-291.3934 1219.4788,-285.8782 1208.9677,-284.5484 1210.4326,-291.3934"/>
</g>
<!-- Node23 -->
<g id="node24" class="node">
<title>Node23</title>
<polygon fill="none" stroke="#bfbfbf" points="1341,-257.5 1341,-287.5 1471,-287.5 1471,-257.5 1341,-257.5"/>
<text text-anchor="start" x="1349" y="-275.5" font-family="Helvetica,sans-Serif" font-size="10.00" fill="#000000">yarp/rosmsg/geometry</text>
<text text-anchor="middle" x="1406" y="-264.5" font-family="Helvetica,sans-Serif" font-size="10.00" fill="#000000">_msgs/WrenchStamped.h</text>
</g>
<!-- Node0&#45;&gt;Node23 -->
<g id="edge29" class="edge">
<title>Node0&#45;&gt;Node23</title>
<path fill="none" stroke="#191970" d="M1032.6001,-326.0738C1108.0341,-318.4369 1222.2375,-305.6747 1330.5612,-288.1562"/>
<polygon fill="#191970" stroke="#191970" points="1331.3831,-291.5684 1340.6878,-286.5016 1330.2543,-284.6601 1331.3831,-291.5684"/>
</g>
<!-- Node24 -->
<g id="node25" class="node">
<title>Node24</title>
<polygon fill="none" stroke="#bfbfbf" points="1489.5,-263 1489.5,-282 1572.5,-282 1572.5,-263 1489.5,-263"/>
<text text-anchor="middle" x="1531" y="-270" font-family="Helvetica,sans-Serif" font-size="10.00" fill="#000000">unordered_map</text>
</g>
<!-- Node0&#45;&gt;Node24 -->
<g id="edge30" class="edge">
<title>Node0&#45;&gt;Node24</title>
<path fill="none" stroke="#191970" d="M1032.5188,-332.1379C1137.7458,-328.5658 1323.7298,-318.1725 1480,-288 1484.465,-287.1379 1489.0951,-286.0356 1493.6623,-284.8172"/>
<polygon fill="#191970" stroke="#191970" points="1494.8193,-288.1267 1503.4718,-282.0123 1492.8949,-281.3964 1494.8193,-288.1267"/>
</g>
<!-- Node25 -->
<g id="node26" class="node">
<title>Node25</title>
<polygon fill="none" stroke="#bfbfbf" points="1591,-263 1591,-282 1637,-282 1637,-263 1591,-263"/>
<text text-anchor="middle" x="1614" y="-270" font-family="Helvetica,sans-Serif" font-size="10.00" fill="#000000">chrono</text>
</g>
<!-- Node0&#45;&gt;Node25 -->
<g id="edge31" class="edge">
<title>Node0&#45;&gt;Node25</title>
<path fill="none" stroke="#191970" d="M1032.783,-331.8241C1180.3932,-327.3406 1480.7576,-315.1285 1582,-288 1583.9229,-287.4847 1585.8692,-286.8533 1587.8025,-286.1432"/>
<polygon fill="#191970" stroke="#191970" points="1589.3849,-289.2727 1597.1914,-282.1098 1586.6219,-282.8411 1589.3849,-289.2727"/>
</g>
<!-- Node2 -->
<g id="node3" class="node">
<title>Node2</title>
<g id="a_node3"><a xlink:href="IParametersHandler_8h.html" target="_top" xlink:title="BipedalLocomotion/Parameters\lHandler/IParametersHandler.h">
<polygon fill="none" stroke="#000000" points="87,-190.5 87,-220.5 239,-220.5 239,-190.5 87,-190.5"/>
<text text-anchor="start" x="95" y="-208.5" font-family="Helvetica,sans-Serif" font-size="10.00" fill="#000000">BipedalLocomotion/Parameters</text>
<text text-anchor="middle" x="163" y="-197.5" font-family="Helvetica,sans-Serif" font-size="10.00" fill="#000000">Handler/IParametersHandler.h</text>
</a>
</g>
</g>
<!-- Node1&#45;&gt;Node2 -->
<g id="edge2" class="edge">
<title>Node1&#45;&gt;Node2</title>
<path fill="none" stroke="#191970" d="M243.6604,-257.4639C229.4426,-248.3044 211.0677,-236.4667 195.4478,-226.4038"/>
<polygon fill="#191970" stroke="#191970" points="196.9236,-223.1912 186.6216,-220.7177 193.1326,-229.0758 196.9236,-223.1912"/>
</g>
<!-- Node3 -->
<g id="node4" class="node">
<title>Node3</title>
<polygon fill="none" stroke="#bfbfbf" points="0,-62 0,-81 52,-81 52,-62 0,-62"/>
<text text-anchor="middle" x="26" y="-69" font-family="Helvetica,sans-Serif" font-size="10.00" fill="#000000">memory</text>
</g>
<!-- Node1&#45;&gt;Node3 -->
<g id="edge18" class="edge">
<title>Node1&#45;&gt;Node3</title>
<path fill="none" stroke="#191970" d="M189.2812,-258.8412C144.7785,-249.6073 94.5715,-236.3278 78,-221 40.6283,-186.4332 30.1139,-123.6089 27.1566,-91.5239"/>
<polygon fill="#191970" stroke="#191970" points="30.6201,-90.9096 26.3732,-81.2032 23.6402,-91.4394 30.6201,-90.9096"/>
</g>
<!-- Node4 -->
<g id="node5" class="node">
<title>Node4</title>
<polygon fill="none" stroke="#bfbfbf" points="345.5,-129 345.5,-148 386.5,-148 386.5,-129 345.5,-129"/>
<text text-anchor="middle" x="366" y="-136" font-family="Helvetica,sans-Serif" font-size="10.00" fill="#000000">string</text>
</g>
<!-- Node1&#45;&gt;Node4 -->
<g id="edge20" class="edge">
<title>Node1&#45;&gt;Node4</title>
<path fill="none" stroke="#191970" d="M278.1641,-257.389C296.5295,-232.5307 333.0357,-183.1184 352.7061,-156.4937"/>
<polygon fill="#191970" stroke="#191970" points="355.7772,-158.227 358.9044,-148.1042 350.1471,-154.0674 355.7772,-158.227"/>
</g>
<!-- Node6 -->
<g id="node7" class="node">
<title>Node6</title>
<g id="a_node7"><a xlink:href="Vector_8h_source.html" target="_top" xlink:title="BipedalLocomotion/Generic\lContainer/Vector.h">
<polygon fill="none" stroke="#000000" points="191,-123.5 191,-153.5 327,-153.5 327,-123.5 191,-123.5"/>
<text text-anchor="start" x="199" y="-141.5" font-family="Helvetica,sans-Serif" font-size="10.00" fill="#000000">BipedalLocomotion/Generic</text>
<text text-anchor="middle" x="259" y="-130.5" font-family="Helvetica,sans-Serif" font-size="10.00" fill="#000000">Container/Vector.h</text>
</a>
</g>
</g>
<!-- Node1&#45;&gt;Node6 -->
<g id="edge17" class="edge">
<title>Node1&#45;&gt;Node6</title>
<path fill="none" stroke="#191970" d="M266.0978,-257.389C264.7414,-234.6691 262.1605,-191.438 260.5129,-163.8405"/>
<polygon fill="#191970" stroke="#191970" points="264.001,-163.535 259.9111,-153.7614 257.0134,-163.9522 264.001,-163.535"/>
</g>
<!-- Node14 -->
<g id="node15" class="node">
<title>Node14</title>
<polygon fill="none" stroke="#bfbfbf" points="510,-62 510,-81 564,-81 564,-62 510,-62"/>
<text text-anchor="middle" x="537" y="-69" font-family="Helvetica,sans-Serif" font-size="10.00" fill="#000000">iostream</text>
</g>
<!-- Node1&#45;&gt;Node14 -->
<g id="edge19" class="edge">
<title>Node1&#45;&gt;Node14</title>
<path fill="none" stroke="#191970" d="M287.2939,-257.3923C337.1578,-220.2714 465.2962,-124.8795 515.9457,-87.1738"/>
<polygon fill="#191970" stroke="#191970" points="518.2658,-89.81 524.1971,-81.031 514.0858,-84.195 518.2658,-89.81"/>
</g>
<!-- Node2&#45;&gt;Node3 -->
<g id="edge3" class="edge">
<title>Node2&#45;&gt;Node3</title>
<path fill="none" stroke="#191970" d="M133.2079,-190.4588C116.9258,-181.3268 97.0682,-168.6225 82,-154 62.294,-134.8769 45.5082,-107.7772 35.5896,-89.9281"/>
<polygon fill="#191970" stroke="#191970" points="38.6402,-88.2111 30.8109,-81.073 32.48,-91.5356 38.6402,-88.2111"/>
</g>
<!-- Node2&#45;&gt;Node4 -->
<g id="edge4" class="edge">
<title>Node2&#45;&gt;Node4</title>
<path fill="none" stroke="#191970" d="M223.5968,-190.4566C257.2333,-181.3654 299.5228,-168.7013 336,-154 337.1928,-153.5193 338.4015,-153.0071 339.6146,-152.4724"/>
<polygon fill="#191970" stroke="#191970" points="341.2941,-155.549 348.8093,-148.0809 338.2772,-149.2325 341.2941,-155.549"/>
</g>
<!-- Node5 -->
<g id="node6" class="node">
<title>Node5</title>
<polygon fill="none" stroke="#bfbfbf" points="91,-129 91,-148 135,-148 135,-129 91,-129"/>
<text text-anchor="middle" x="113" y="-136" font-family="Helvetica,sans-Serif" font-size="10.00" fill="#000000">vector</text>
</g>
<!-- Node2&#45;&gt;Node5 -->
<g id="edge5" class="edge">
<title>Node2&#45;&gt;Node5</title>
<path fill="none" stroke="#191970" d="M151.6542,-190.2967C144.0909,-180.1618 134.1224,-166.804 126.2031,-156.1921"/>
<polygon fill="#191970" stroke="#191970" points="128.9165,-153.976 120.1306,-148.055 123.3064,-158.1626 128.9165,-153.976"/>
</g>
<!-- Node2&#45;&gt;Node6 -->
<g id="edge6" class="edge">
<title>Node2&#45;&gt;Node6</title>
<path fill="none" stroke="#191970" d="M184.7839,-190.2967C197.7945,-181.2163 214.5121,-169.5488 228.7858,-159.587"/>
<polygon fill="#191970" stroke="#191970" points="231.1051,-162.2365 237.3023,-153.6432 227.0988,-156.4962 231.1051,-162.2365"/>
</g>
<!-- Node8 -->
<g id="node9" class="node">
<title>Node8</title>
<g id="a_node9"><a xlink:href="TemplateHelpers_8h_source.html" target="_top" xlink:title="BipedalLocomotion/Generic\lContainer/TemplateHelpers.h">
<polygon fill="none" stroke="#000000" points="70,-56.5 70,-86.5 214,-86.5 214,-56.5 70,-56.5"/>
<text text-anchor="start" x="78" y="-74.5" font-family="Helvetica,sans-Serif" font-size="10.00" fill="#000000">BipedalLocomotion/Generic</text>
<text text-anchor="middle" x="142" y="-63.5" font-family="Helvetica,sans-Serif" font-size="10.00" fill="#000000">Container/TemplateHelpers.h</text>
</a>
</g>
</g>
<!-- Node2&#45;&gt;Node8 -->
<g id="edge16" class="edge">
<title>Node2&#45;&gt;Node8</title>
<path fill="none" stroke="#191970" d="M160.6319,-190.389C157.0713,-167.6691 150.2963,-124.438 145.9713,-96.8405"/>
<polygon fill="#191970" stroke="#191970" points="149.3979,-96.0989 144.3917,-86.7614 142.4823,-97.1827 149.3979,-96.0989"/>
</g>
<!-- Node6&#45;&gt;Node3 -->
<g id="edge15" class="edge">
<title>Node6&#45;&gt;Node3</title>
<path fill="none" stroke="#191970" d="M190.8275,-123.6597C152.2672,-114.5493 103.4234,-101.8009 61,-87 59.1647,-86.3597 57.2918,-85.6633 55.414,-84.9321"/>
<polygon fill="#191970" stroke="#191970" points="56.7118,-81.6814 46.1339,-81.0835 54.0302,-88.1474 56.7118,-81.6814"/>
</g>
<!-- Node7 -->
<g id="node8" class="node">
<title>Node7</title>
<polygon fill="none" stroke="#bfbfbf" points="300,-62 300,-81 414,-81 414,-62 300,-62"/>
<text text-anchor="middle" x="357" y="-69" font-family="Helvetica,sans-Serif" font-size="10.00" fill="#000000">iDynTree/Core/Span.h</text>
</g>
<!-- Node6&#45;&gt;Node7 -->
<g id="edge7" class="edge">
<title>Node6&#45;&gt;Node7</title>
<path fill="none" stroke="#191970" d="M281.2377,-123.2967C297.2478,-112.351 318.7563,-97.6462 334.7656,-86.701"/>
<polygon fill="#191970" stroke="#191970" points="336.7443,-89.5881 343.0241,-81.055 332.7936,-83.8095 336.7443,-89.5881"/>
</g>
<!-- Node6&#45;&gt;Node8 -->
<g id="edge8" class="edge">
<title>Node6&#45;&gt;Node8</title>
<path fill="none" stroke="#191970" d="M232.7429,-123.4639C216.4489,-114.1332 195.3018,-102.0232 177.5216,-91.8415"/>
<polygon fill="#191970" stroke="#191970" points="178.9914,-88.6499 168.5743,-86.7177 175.5128,-94.7244 178.9914,-88.6499"/>
</g>
<!-- Node12 -->
<g id="node13" class="node">
<title>Node12</title>
<polygon fill="none" stroke="#bfbfbf" points="432.5,-62 432.5,-81 491.5,-81 491.5,-62 432.5,-62"/>
<text text-anchor="middle" x="462" y="-69" font-family="Helvetica,sans-Serif" font-size="10.00" fill="#000000">functional</text>
</g>
<!-- Node6&#45;&gt;Node12 -->
<g id="edge12" class="edge">
<title>Node6&#45;&gt;Node12</title>
<path fill="none" stroke="#191970" d="M310.2949,-123.4582C342.7932,-113.6661 385.5979,-100.2845 423,-87 424.9053,-86.3233 426.8557,-85.6112 428.8192,-84.8792"/>
<polygon fill="#191970" stroke="#191970" points="430.514,-87.9778 438.596,-81.1271 428.0059,-81.4425 430.514,-87.9778"/>
</g>
<!-- Node13 -->
<g id="node14" class="node">
<title>Node13</title>
<polygon fill="none" stroke="#bfbfbf" points="232.5,-62 232.5,-81 281.5,-81 281.5,-62 232.5,-62"/>
<text text-anchor="middle" x="257" y="-69" font-family="Helvetica,sans-Serif" font-size="10.00" fill="#000000">cassert</text>
</g>
<!-- Node6&#45;&gt;Node13 -->
<g id="edge13" class="edge">
<title>Node6&#45;&gt;Node13</title>
<path fill="none" stroke="#191970" d="M258.5462,-123.2967C258.2618,-113.7699 257.8924,-101.3954 257.586,-91.1306"/>
<polygon fill="#191970" stroke="#191970" points="261.0821,-90.9461 257.2852,-81.055 254.0853,-91.155 261.0821,-90.9461"/>
</g>
<!-- Node6&#45;&gt;Node14 -->
<g id="edge14" class="edge">
<title>Node6&#45;&gt;Node14</title>
<path fill="none" stroke="#191970" d="M327.1319,-124.7159C392.7716,-111.3201 484.4994,-92.2515 501,-87 503.1074,-86.3293 505.2599,-85.5791 507.4121,-84.7804"/>
<polygon fill="#191970" stroke="#191970" points="508.7197,-88.027 516.7051,-81.0641 506.1204,-81.5275 508.7197,-88.027"/>
</g>
<!-- Node9 -->
<g id="node10" class="node">
<title>Node9</title>
<polygon fill="none" stroke="#bfbfbf" points="29,-.5 29,-19.5 91,-19.5 91,-.5 29,-.5"/>
<text text-anchor="middle" x="60" y="-7.5" font-family="Helvetica,sans-Serif" font-size="10.00" fill="#000000">type_traits</text>
</g>
<!-- Node8&#45;&gt;Node9 -->
<g id="edge9" class="edge">
<title>Node8&#45;&gt;Node9</title>
<path fill="none" stroke="#191970" d="M121.7303,-56.2977C109.3994,-47.0495 93.6734,-35.2551 81.1803,-25.8853"/>
<polygon fill="#191970" stroke="#191970" points="83.2293,-23.047 73.1292,-19.8469 79.0292,-28.647 83.2293,-23.047"/>
</g>
<!-- Node10 -->
<g id="node11" class="node">
<title>Node10</title>
<polygon fill="none" stroke="#bfbfbf" points="109,-.5 109,-19.5 175,-19.5 175,-.5 109,-.5"/>
<text text-anchor="middle" x="142" y="-7.5" font-family="Helvetica,sans-Serif" font-size="10.00" fill="#000000">string_view</text>
</g>
<!-- Node8&#45;&gt;Node10 -->
<g id="edge10" class="edge">
<title>Node8&#45;&gt;Node10</title>
<path fill="none" stroke="#191970" d="M142,-56.2977C142,-48.3834 142,-38.6043 142,-30.0759"/>
<polygon fill="#191970" stroke="#191970" points="145.5001,-29.8469 142,-19.8469 138.5001,-29.847 145.5001,-29.8469"/>
</g>
<!-- Node11 -->
<g id="node12" class="node">
<title>Node11</title>
<polygon fill="none" stroke="#bfbfbf" points="193.5,-.5 193.5,-19.5 258.5,-19.5 258.5,-.5 193.5,-.5"/>
<text text-anchor="middle" x="226" y="-7.5" font-family="Helvetica,sans-Serif" font-size="10.00" fill="#000000">Eigen/Core</text>
</g>
<!-- Node8&#45;&gt;Node11 -->
<g id="edge11" class="edge">
<title>Node8&#45;&gt;Node11</title>
<path fill="none" stroke="#191970" d="M162.7641,-56.2977C175.3958,-47.0495 191.5053,-35.2551 204.3031,-25.8853"/>
<polygon fill="#191970" stroke="#191970" points="206.5495,-28.5784 212.5505,-19.8469 202.4143,-22.9303 206.5495,-28.5784"/>
</g>
</g>
</svg>
        <g id="navigator" transform="translate(0 0)" fill="#404254">
                <rect fill="#f2f5e9" fill-opacity="0.5" stroke="#606060" stroke-width=".5" x="0" y="0" width="60" height="60"/>
                <use id="zoomplus" xlink:href="#zoomPlus" x="17" y="9" onmousedown="handleZoom(evt,'in')"/>
                <use id="zoomminus" xlink:href="#zoomMin" x="42" y="9" onmousedown="handleZoom(evt,'out')"/>
                <use id="reset" xlink:href="#resetDef" x="30" y="36" onmousedown="handleReset()"/>
                <g id="arrowUp" xlink:href="#dirArrow" transform="translate(30 24)" onmousedown="handlePan(0,-1)">
                  <use xlink:href="#rim" fill="#404040">
                        <set attributeName="fill" to="#808080" begin="arrowUp.mouseover" end="arrowUp.mouseout"/>
                  </use>
                  <path fill="none" stroke="white" stroke-width="1.5" d="M0,-3.0v7 M-2.5,-0.5L0,-3.0L2.5,-0.5"/>
                </g>
                <g id="arrowRight" xlink:href="#dirArrow" transform="rotate(90) translate(36 -43)" onmousedown="handlePan(1,0)">
                  <use xlink:href="#rim" fill="#404040">
                        <set attributeName="fill" to="#808080" begin="arrowRight.mouseover" end="arrowRight.mouseout"/>
                  </use>
                  <path fill="none" stroke="white" stroke-width="1.5" d="M0,-3.0v7 M-2.5,-0.5L0,-3.0L2.5,-0.5"/>
                </g>
                <g id="arrowDown" xlink:href="#dirArrow" transform="rotate(180) translate(-30 -48)" onmousedown="handlePan(0,1)">
                  <use xlink:href="#rim" fill="#404040">
                        <set attributeName="fill" to="#808080" begin="arrowDown.mouseover" end="arrowDown.mouseout"/>
                  </use>
                  <path fill="none" stroke="white" stroke-width="1.5" d="M0,-3.0v7 M-2.5,-0.5L0,-3.0L2.5,-0.5"/>
                </g>
                <g id="arrowLeft" xlink:href="#dirArrow" transform="rotate(270) translate(-36 17)" onmousedown="handlePan(-1,0)">
                  <use xlink:href="#rim" fill="#404040">
                        <set attributeName="fill" to="#808080" begin="arrowLeft.mouseover" end="arrowLeft.mouseout"/>
                  </use>
                  <path fill="none" stroke="white" stroke-width="1.5" d="M0,-3.0v7 M-2.5,-0.5L0,-3.0L2.5,-0.5"/>
                </g>
        </g>
        <svg viewBox="0 0 15 15" width="100%" height="30px" preserveAspectRatio="xMaxYMin meet">
         <g id="arrow_out" transform="scale(0.3 0.3)">
          <a xlink:href="RosPublisher_8cpp__incl_org.svg" target="_base">
           <rect id="button" ry="5" rx="5" y="6" x="6" height="38" width="38"
                fill="#f2f5e9" fill-opacity="0.5" stroke="#606060" stroke-width="1.0"/>
           <path id="arrow"
             d="M 11.500037,31.436501 C 11.940474,20.09759 22.043105,11.32322 32.158766,21.979434 L 37.068811,17.246167 C 37.068811,17.246167 37.088388,32 37.088388,32 L 22.160133,31.978069 C 22.160133,31.978069 26.997745,27.140456 26.997745,27.140456 C 18.528582,18.264221 13.291696,25.230495 11.500037,31.436501 z"
             style="fill:#404040;"/>
          </a>
         </g>
        </svg>
</svg>
