<?xml version="1.0" encoding="UTF-8" standalone="no"?>
<!DOCTYPE svg PUBLIC "-//W3C//DTD SVG 1.1//EN"
 "http://www.w3.org/Graphics/SVG/1.1/DTD/svg11.dtd">
<!-- Generated by graphviz version 2.40.1 (20161225.0304)
 -->
<!-- Title: Contacts/include/BipedalLocomotion/ContactDetectors/SchmittTriggerDetector.h Pages: 1 -->
<svg width="700pt" height="374pt"
 viewBox="0.00 0.00 699.50 374.00" xmlns="http://www.w3.org/2000/svg" xmlns:xlink="http://www.w3.org/1999/xlink">
<g id="graph0" class="graph" transform="scale(1 1) rotate(0) translate(4 370)">
<title>Contacts/include/BipedalLocomotion/ContactDetectors/SchmittTriggerDetector.h</title>
<!-- Node0 -->
<g id="node1" class="node">
<title>Node0</title>
<polygon fill="#bfbfbf" stroke="#000000" points="544.5,-324.5 544.5,-365.5 691.5,-365.5 691.5,-324.5 544.5,-324.5"/>
<text text-anchor="start" x="552.5" y="-353.5" font-family="Helvetica,sans-Serif" font-size="10.00" fill="#000000">Contacts/include/Bipedal</text>
<text text-anchor="start" x="552.5" y="-342.5" font-family="Helvetica,sans-Serif" font-size="10.00" fill="#000000">Locomotion/ContactDetectors</text>
<text text-anchor="middle" x="618" y="-331.5" font-family="Helvetica,sans-Serif" font-size="10.00" fill="#000000">/SchmittTriggerDetector.h</text>
</g>
<!-- Node1 -->
<g id="node2" class="node">
<title>Node1</title>
<g id="a_node2"><a xlink:href="ContactDetector_8h.html" target="_top" xlink:title="BipedalLocomotion/Contact\lDetectors/ContactDetector.h">
<polygon fill="none" stroke="#000000" points="400.5,-257.5 400.5,-287.5 543.5,-287.5 543.5,-257.5 400.5,-257.5"/>
<text text-anchor="start" x="408.5" y="-275.5" font-family="Helvetica,sans-Serif" font-size="10.00" fill="#000000">BipedalLocomotion/Contact</text>
<text text-anchor="middle" x="472" y="-264.5" font-family="Helvetica,sans-Serif" font-size="10.00" fill="#000000">Detectors/ContactDetector.h</text>
</a>
</g>
</g>
<!-- Node0&#45;&gt;Node1 -->
<g id="edge1" class="edge">
<title>Node0&#45;&gt;Node1</title>
<path fill="none" stroke="#191970" d="M576.5528,-324.4183C556.1748,-314.2991 531.7347,-302.1628 511.61,-292.1694"/>
<polygon fill="#191970" stroke="#191970" points="512.9197,-288.912 502.4065,-287.5991 509.8063,-295.1815 512.9197,-288.912"/>
</g>
<!-- Node15 -->
<g id="node16" class="node">
<title>Node15</title>
<polygon fill="none" stroke="#bfbfbf" points="631,-62 631,-81 685,-81 685,-62 631,-62"/>
<text text-anchor="middle" x="658" y="-69" font-family="Helvetica,sans-Serif" font-size="10.00" fill="#000000">iostream</text>
</g>
<!-- Node0&#45;&gt;Node15 -->
<g id="edge23" class="edge">
<title>Node0&#45;&gt;Node15</title>
<path fill="none" stroke="#191970" d="M629.4738,-324.287C642.0568,-300.2849 661.4638,-259.1359 669,-221 678.0864,-175.0198 668.9445,-119.7454 662.7243,-91.0092"/>
<polygon fill="#191970" stroke="#191970" points="666.0892,-90.0224 660.4512,-81.0522 659.2648,-91.5804 666.0892,-90.0224"/>
</g>
<!-- Node18 -->
<g id="node19" class="node">
<title>Node18</title>
<polygon fill="none" stroke="#bfbfbf" points="576.5,-196 576.5,-215 659.5,-215 659.5,-196 576.5,-196"/>
<text text-anchor="middle" x="618" y="-203" font-family="Helvetica,sans-Serif" font-size="10.00" fill="#000000">unordered_map</text>
</g>
<!-- Node0&#45;&gt;Node18 -->
<g id="edge24" class="edge">
<title>Node0&#45;&gt;Node18</title>
<path fill="none" stroke="#191970" d="M618,-324.4163C618,-297.7443 618,-251.5566 618,-225.2824"/>
<polygon fill="#191970" stroke="#191970" points="621.5001,-225.054 618,-215.0541 614.5001,-225.0541 621.5001,-225.054"/>
</g>
<!-- Node2 -->
<g id="node3" class="node">
<title>Node2</title>
<g id="a_node3"><a xlink:href="Advanceable_8h.html" target="_top" xlink:title="BipedalLocomotion/System\l/Advanceable.h">
<polygon fill="none" stroke="#000000" points="0,-190.5 0,-220.5 136,-220.5 136,-190.5 0,-190.5"/>
<text text-anchor="start" x="8" y="-208.5" font-family="Helvetica,sans-Serif" font-size="10.00" fill="#000000">BipedalLocomotion/System</text>
<text text-anchor="middle" x="68" y="-197.5" font-family="Helvetica,sans-Serif" font-size="10.00" fill="#000000">/Advanceable.h</text>
</a>
</g>
</g>
<!-- Node1&#45;&gt;Node2 -->
<g id="edge2" class="edge">
<title>Node1&#45;&gt;Node2</title>
<path fill="none" stroke="#191970" d="M400.4091,-262.1184C336.3292,-252.6214 239.5703,-237.7795 146.2934,-221.1938"/>
<polygon fill="#191970" stroke="#191970" points="146.8649,-217.7405 136.405,-219.4265 145.6333,-224.6313 146.8649,-217.7405"/>
</g>
<!-- Node3 -->
<g id="node4" class="node">
<title>Node3</title>
<g id="a_node4"><a xlink:href="IParametersHandler_8h.html" target="_top" xlink:title="BipedalLocomotion/Parameters\lHandler/IParametersHandler.h">
<polygon fill="none" stroke="#000000" points="350,-190.5 350,-220.5 502,-220.5 502,-190.5 350,-190.5"/>
<text text-anchor="start" x="358" y="-208.5" font-family="Helvetica,sans-Serif" font-size="10.00" fill="#000000">BipedalLocomotion/Parameters</text>
<text text-anchor="middle" x="426" y="-197.5" font-family="Helvetica,sans-Serif" font-size="10.00" fill="#000000">Handler/IParametersHandler.h</text>
</a>
</g>
</g>
<!-- Node1&#45;&gt;Node3 -->
<g id="edge3" class="edge">
<title>Node1&#45;&gt;Node3</title>
<path fill="none" stroke="#191970" d="M461.5619,-257.2967C455.8569,-248.9873 448.6646,-238.5115 442.2433,-229.1587"/>
<polygon fill="#191970" stroke="#191970" points="444.9423,-226.9062 436.3968,-220.6432 439.1715,-230.8682 444.9423,-226.9062"/>
</g>
<!-- Node1&#45;&gt;Node15 -->
<g id="edge21" class="edge">
<title>Node1&#45;&gt;Node15</title>
<path fill="none" stroke="#191970" d="M485.9802,-257.3923C519.8964,-220.741 606.3797,-127.2832 642.1466,-88.6319"/>
<polygon fill="#191970" stroke="#191970" points="644.7488,-90.973 648.9719,-81.2562 639.6111,-86.2187 644.7488,-90.973"/>
</g>
<!-- Node16 -->
<g id="node17" class="node">
<title>Node16</title>
<g id="a_node17"><a xlink:href="Contact_8h.html" target="_top" xlink:title="BipedalLocomotion/Contacts\l/Contact.h">
<polygon fill="none" stroke="#000000" points="154,-190.5 154,-220.5 296,-220.5 296,-190.5 154,-190.5"/>
<text text-anchor="start" x="162" y="-208.5" font-family="Helvetica,sans-Serif" font-size="10.00" fill="#000000">BipedalLocomotion/Contacts</text>
<text text-anchor="middle" x="225" y="-197.5" font-family="Helvetica,sans-Serif" font-size="10.00" fill="#000000">/Contact.h</text>
</a>
</g>
</g>
<!-- Node1&#45;&gt;Node16 -->
<g id="edge18" class="edge">
<title>Node1&#45;&gt;Node16</title>
<path fill="none" stroke="#191970" d="M416.5684,-257.4639C379.1986,-247.3272 329.7367,-233.9104 290.4334,-223.2491"/>
<polygon fill="#191970" stroke="#191970" points="291.2409,-219.8418 280.6734,-220.6017 289.4083,-226.5976 291.2409,-219.8418"/>
</g>
<!-- Node1&#45;&gt;Node18 -->
<g id="edge22" class="edge">
<title>Node1&#45;&gt;Node18</title>
<path fill="none" stroke="#191970" d="M504.7652,-257.4639C529.5932,-246.0702 563.4512,-230.5327 587.6628,-219.4219"/>
<polygon fill="#191970" stroke="#191970" points="589.4432,-222.4559 597.0721,-215.1039 586.5236,-216.0938 589.4432,-222.4559"/>
</g>
<!-- Node4 -->
<g id="node5" class="node">
<title>Node4</title>
<polygon fill="none" stroke="#bfbfbf" points="122,-62 122,-81 174,-81 174,-62 122,-62"/>
<text text-anchor="middle" x="148" y="-69" font-family="Helvetica,sans-Serif" font-size="10.00" fill="#000000">memory</text>
</g>
<!-- Node3&#45;&gt;Node4 -->
<g id="edge4" class="edge">
<title>Node3&#45;&gt;Node4</title>
<path fill="none" stroke="#191970" d="M371.9489,-190.4493C344.6602,-181.7338 311.5823,-169.4199 284,-154 264.6731,-143.1953 263.5229,-135.1315 245,-123 223.3427,-108.8156 197.3713,-95.19 177.7548,-85.5207"/>
<polygon fill="#191970" stroke="#191970" points="179.2055,-82.3343 168.6821,-81.1066 176.1431,-88.6289 179.2055,-82.3343"/>
</g>
<!-- Node5 -->
<g id="node6" class="node">
<title>Node5</title>
<polygon fill="none" stroke="#bfbfbf" points="195.5,-129 195.5,-148 236.5,-148 236.5,-129 195.5,-129"/>
<text text-anchor="middle" x="216" y="-136" font-family="Helvetica,sans-Serif" font-size="10.00" fill="#000000">string</text>
</g>
<!-- Node3&#45;&gt;Node5 -->
<g id="edge5" class="edge">
<title>Node3&#45;&gt;Node5</title>
<path fill="none" stroke="#191970" d="M367.8446,-190.4389C333.4925,-181.0355 289.3559,-168.0685 251,-154 249.37,-153.4021 247.7082,-152.7649 246.0381,-152.1025"/>
<polygon fill="#191970" stroke="#191970" points="247.1209,-148.7617 236.5447,-148.1333 244.4206,-155.2199 247.1209,-148.7617"/>
</g>
<!-- Node6 -->
<g id="node7" class="node">
<title>Node6</title>
<polygon fill="none" stroke="#bfbfbf" points="447,-129 447,-148 491,-148 491,-129 447,-129"/>
<text text-anchor="middle" x="469" y="-136" font-family="Helvetica,sans-Serif" font-size="10.00" fill="#000000">vector</text>
</g>
<!-- Node3&#45;&gt;Node6 -->
<g id="edge6" class="edge">
<title>Node3&#45;&gt;Node6</title>
<path fill="none" stroke="#191970" d="M435.7574,-190.2967C442.1968,-180.2631 450.6635,-167.0709 457.4405,-156.5113"/>
<polygon fill="#191970" stroke="#191970" points="460.412,-158.3613 462.8677,-148.055 454.5209,-154.5804 460.412,-158.3613"/>
</g>
<!-- Node7 -->
<g id="node8" class="node">
<title>Node7</title>
<g id="a_node8"><a xlink:href="Vector_8h_source.html" target="_top" xlink:title="BipedalLocomotion/Generic\lContainer/Vector.h">
<polygon fill="none" stroke="#000000" points="293,-123.5 293,-153.5 429,-153.5 429,-123.5 293,-123.5"/>
<text text-anchor="start" x="301" y="-141.5" font-family="Helvetica,sans-Serif" font-size="10.00" fill="#000000">BipedalLocomotion/Generic</text>
<text text-anchor="middle" x="361" y="-130.5" font-family="Helvetica,sans-Serif" font-size="10.00" fill="#000000">Container/Vector.h</text>
</a>
</g>
</g>
<!-- Node3&#45;&gt;Node7 -->
<g id="edge7" class="edge">
<title>Node3&#45;&gt;Node7</title>
<path fill="none" stroke="#191970" d="M411.2505,-190.2967C402.8567,-181.6446 392.1843,-170.6438 382.8358,-161.0076"/>
<polygon fill="#191970" stroke="#191970" points="385.1664,-158.3835 375.6911,-153.6432 380.1422,-163.2577 385.1664,-158.3835"/>
</g>
<!-- Node9 -->
<g id="node10" class="node">
<title>Node9</title>
<g id="a_node10"><a xlink:href="TemplateHelpers_8h_source.html" target="_top" xlink:title="BipedalLocomotion/Generic\lContainer/TemplateHelpers.h">
<polygon fill="none" stroke="#000000" points="469,-56.5 469,-86.5 613,-86.5 613,-56.5 469,-56.5"/>
<text text-anchor="start" x="477" y="-74.5" font-family="Helvetica,sans-Serif" font-size="10.00" fill="#000000">BipedalLocomotion/Generic</text>
<text text-anchor="middle" x="541" y="-63.5" font-family="Helvetica,sans-Serif" font-size="10.00" fill="#000000">Container/TemplateHelpers.h</text>
</a>
</g>
</g>
<!-- Node3&#45;&gt;Node9 -->
<g id="edge17" class="edge">
<title>Node3&#45;&gt;Node9</title>
<path fill="none" stroke="#191970" d="M454.2586,-190.4807C469.2743,-181.4376 487.2169,-168.8119 500,-154 514.7629,-136.8941 525.718,-113.5436 532.5722,-96.05"/>
<polygon fill="#191970" stroke="#191970" points="535.912,-97.1109 536.1317,-86.5184 529.3544,-94.662 535.912,-97.1109"/>
</g>
<!-- Node7&#45;&gt;Node4 -->
<g id="edge16" class="edge">
<title>Node7&#45;&gt;Node4</title>
<path fill="none" stroke="#191970" d="M301.4265,-123.428C266.5395,-114.067 221.8429,-101.1465 183,-87 181.3687,-86.4059 179.7058,-85.7716 178.0348,-85.1115"/>
<polygon fill="#191970" stroke="#191970" points="179.1154,-81.77 168.5388,-81.1494 176.4199,-88.2302 179.1154,-81.77"/>
</g>
<!-- Node8 -->
<g id="node9" class="node">
<title>Node8</title>
<polygon fill="none" stroke="#bfbfbf" points="337,-62 337,-81 451,-81 451,-62 337,-62"/>
<text text-anchor="middle" x="394" y="-69" font-family="Helvetica,sans-Serif" font-size="10.00" fill="#000000">iDynTree/Core/Span.h</text>
</g>
<!-- Node7&#45;&gt;Node8 -->
<g id="edge8" class="edge">
<title>Node7&#45;&gt;Node8</title>
<path fill="none" stroke="#191970" d="M368.4882,-123.2967C373.3303,-113.4658 379.6659,-100.6026 384.812,-90.1545"/>
<polygon fill="#191970" stroke="#191970" points="388.0151,-91.5724 389.2938,-81.055 381.7355,-88.4794 388.0151,-91.5724"/>
</g>
<!-- Node7&#45;&gt;Node9 -->
<g id="edge9" class="edge">
<title>Node7&#45;&gt;Node9</title>
<path fill="none" stroke="#191970" d="M401.3955,-123.4639C427.8208,-113.6278 462.5431,-100.7034 490.748,-90.2049"/>
<polygon fill="#191970" stroke="#191970" points="492.2774,-93.3703 500.4283,-86.6017 489.8355,-86.81 492.2774,-93.3703"/>
</g>
<!-- Node13 -->
<g id="node14" class="node">
<title>Node13</title>
<polygon fill="none" stroke="#bfbfbf" points="192.5,-62 192.5,-81 251.5,-81 251.5,-62 192.5,-62"/>
<text text-anchor="middle" x="222" y="-69" font-family="Helvetica,sans-Serif" font-size="10.00" fill="#000000">functional</text>
</g>
<!-- Node7&#45;&gt;Node13 -->
<g id="edge13" class="edge">
<title>Node7&#45;&gt;Node13</title>
<path fill="none" stroke="#191970" d="M329.8057,-123.4639C306.2732,-112.1209 274.2198,-96.6707 251.1906,-85.5703"/>
<polygon fill="#191970" stroke="#191970" points="252.4524,-82.2932 241.9246,-81.1039 249.413,-88.5989 252.4524,-82.2932"/>
</g>
<!-- Node14 -->
<g id="node15" class="node">
<title>Node14</title>
<polygon fill="none" stroke="#bfbfbf" points="269.5,-62 269.5,-81 318.5,-81 318.5,-62 269.5,-62"/>
<text text-anchor="middle" x="294" y="-69" font-family="Helvetica,sans-Serif" font-size="10.00" fill="#000000">cassert</text>
</g>
<!-- Node7&#45;&gt;Node14 -->
<g id="edge14" class="edge">
<title>Node7&#45;&gt;Node14</title>
<path fill="none" stroke="#191970" d="M345.7967,-123.2967C335.3578,-112.8578 321.4997,-98.9997 310.7446,-88.2446"/>
<polygon fill="#191970" stroke="#191970" points="313.101,-85.6512 303.555,-81.055 308.1512,-90.601 313.101,-85.6512"/>
</g>
<!-- Node7&#45;&gt;Node15 -->
<g id="edge15" class="edge">
<title>Node7&#45;&gt;Node15</title>
<path fill="none" stroke="#191970" d="M429.0161,-124.7876C432.052,-124.1821 435.0574,-123.584 438,-123 519.734,-106.7779 542.3907,-111.6164 622,-87 624.1128,-86.3467 626.2694,-85.6094 628.4246,-84.8201"/>
<polygon fill="#191970" stroke="#191970" points="629.7235,-88.0702 637.7242,-81.1247 627.1385,-81.565 629.7235,-88.0702"/>
</g>
<!-- Node10 -->
<g id="node11" class="node">
<title>Node10</title>
<polygon fill="none" stroke="#bfbfbf" points="428,-.5 428,-19.5 490,-19.5 490,-.5 428,-.5"/>
<text text-anchor="middle" x="459" y="-7.5" font-family="Helvetica,sans-Serif" font-size="10.00" fill="#000000">type_traits</text>
</g>
<!-- Node9&#45;&gt;Node10 -->
<g id="edge10" class="edge">
<title>Node9&#45;&gt;Node10</title>
<path fill="none" stroke="#191970" d="M520.7303,-56.2977C508.3994,-47.0495 492.6734,-35.2551 480.1803,-25.8853"/>
<polygon fill="#191970" stroke="#191970" points="482.2293,-23.047 472.1292,-19.8469 478.0292,-28.647 482.2293,-23.047"/>
</g>
<!-- Node11 -->
<g id="node12" class="node">
<title>Node11</title>
<polygon fill="none" stroke="#bfbfbf" points="508,-.5 508,-19.5 574,-19.5 574,-.5 508,-.5"/>
<text text-anchor="middle" x="541" y="-7.5" font-family="Helvetica,sans-Serif" font-size="10.00" fill="#000000">string_view</text>
</g>
<!-- Node9&#45;&gt;Node11 -->
<g id="edge11" class="edge">
<title>Node9&#45;&gt;Node11</title>
<path fill="none" stroke="#191970" d="M541,-56.2977C541,-48.3834 541,-38.6043 541,-30.0759"/>
<polygon fill="#191970" stroke="#191970" points="544.5001,-29.8469 541,-19.8469 537.5001,-29.847 544.5001,-29.8469"/>
</g>
<!-- Node12 -->
<g id="node13" class="node">
<title>Node12</title>
<polygon fill="none" stroke="#bfbfbf" points="592.5,-.5 592.5,-19.5 657.5,-19.5 657.5,-.5 592.5,-.5"/>
<text text-anchor="middle" x="625" y="-7.5" font-family="Helvetica,sans-Serif" font-size="10.00" fill="#000000">Eigen/Core</text>
</g>
<!-- Node9&#45;&gt;Node12 -->
<g id="edge12" class="edge">
<title>Node9&#45;&gt;Node12</title>
<path fill="none" stroke="#191970" d="M561.7641,-56.2977C574.3958,-47.0495 590.5053,-35.2551 603.3031,-25.8853"/>
<polygon fill="#191970" stroke="#191970" points="605.5495,-28.5784 611.5505,-19.8469 601.4143,-22.9303 605.5495,-28.5784"/>
</g>
<!-- Node16&#45;&gt;Node5 -->
<g id="edge20" class="edge">
<title>Node16&#45;&gt;Node5</title>
<path fill="none" stroke="#191970" d="M222.9578,-190.2967C221.678,-180.7699 220.0158,-168.3954 218.637,-158.1306"/>
<polygon fill="#191970" stroke="#191970" points="222.0838,-157.5 217.2835,-148.055 215.1461,-158.4319 222.0838,-157.5"/>
</g>
<!-- Node17 -->
<g id="node18" class="node">
<title>Node17</title>
<polygon fill="none" stroke="#bfbfbf" points="106.5,-129 106.5,-148 177.5,-148 177.5,-129 106.5,-129"/>
<text text-anchor="middle" x="142" y="-136" font-family="Helvetica,sans-Serif" font-size="10.00" fill="#000000">manif/SE3.h</text>
</g>
<!-- Node16&#45;&gt;Node17 -->
<g id="edge19" class="edge">
<title>Node16&#45;&gt;Node17</title>
<path fill="none" stroke="#191970" d="M206.166,-190.2967C192.9831,-179.6551 175.3985,-165.4602 161.9716,-154.6217"/>
<polygon fill="#191970" stroke="#191970" points="163.8164,-151.6128 153.8368,-148.055 159.4195,-157.0596 163.8164,-151.6128"/>
</g>
</g>
</svg>
