<?xml version="1.0" encoding="UTF-8" standalone="no"?>
<!DOCTYPE svg PUBLIC "-//W3C//DTD SVG 1.1//EN"
 "http://www.w3.org/Graphics/SVG/1.1/DTD/svg11.dtd">
<!-- Generated by graphviz version 2.40.1 (20161225.0304)
 -->
<!-- Title: TSID/include/BipedalLocomotion/TSID/SE3Task.h Pages: 1 -->
<!--zoomable 363 -->
<svg id="main" version="1.1" xmlns="http://www.w3.org/2000/svg" xmlns:xlink="http://www.w3.org/1999/xlink" xml:space="preserve" onload="init(evt)">
<style type="text/css"><![CDATA[
.edge:hover path { stroke: red; }
.edge:hover polygon { stroke: red; fill: red; }
]]></style>
<script type="text/javascript"><![CDATA[
var edges = document.getElementsByTagName('g');
if (edges && edges.length) {
  for (var i=0;i<edges.length;i++) {
    if (edges[i].id.substr(0,4)=='edge') {
      edges[i].setAttribute('class','edge');
    }
  }
}
]]></script>
        <defs>
                <circle id="rim" cx="0" cy="0" r="7"/>
                <circle id="rim2" cx="0" cy="0" r="3.5"/>
                <g id="zoomPlus">
                        <use xlink:href="#rim" fill="#404040">
                                <set attributeName="fill" to="#808080" begin="zoomplus.mouseover" end="zoomplus.mouseout"/>
                        </use>
                        <path d="M-4,0h8M0,-4v8" fill="none" stroke="white" stroke-width="1.5" pointer-events="none"/>
                </g>
                <g id="zoomMin">
                        <use xlink:href="#rim" fill="#404040">
                                <set attributeName="fill" to="#808080" begin="zoomminus.mouseover" end="zoomminus.mouseout"/>
                        </use>
                        <path d="M-4,0h8" fill="none" stroke="white" stroke-width="1.5" pointer-events="none"/>
                </g>
                <g id="dirArrow">
                        <path fill="none" stroke="white" stroke-width="1.5" d="M0,-3.0v7 M-2.5,-0.5L0,-3.0L2.5,-0.5"/>
                </g>
               <g id="resetDef">
                       <use xlink:href="#rim2" fill="#404040">
                               <set attributeName="fill" to="#808080" begin="reset.mouseover" end="reset.mouseout"/>
                       </use>
               </g>
        </defs>

<script type="text/javascript">
var viewWidth = 807;
var viewHeight = 363;
var sectionId = 'dynsection-0';
</script>
<script xlink:href="svgpan.js"/>
<svg id="graph" class="graph">
<g id="viewport">
<title>TSID/include/BipedalLocomotion/TSID/SE3Task.h</title>
<!-- Node0 -->
<g id="node1" class="node">
<title>Node0</title>
<polygon fill="#bfbfbf" stroke="#000000" points="187.5616,-324.5 187.5616,-354.5 346.5616,-354.5 346.5616,-324.5 187.5616,-324.5"/>
<text text-anchor="start" x="195.5616" y="-342.5" font-family="Helvetica,sans-Serif" font-size="10.00" fill="#000000">TSID/include/BipedalLocomotion</text>
<text text-anchor="middle" x="267.0616" y="-331.5" font-family="Helvetica,sans-Serif" font-size="10.00" fill="#000000">/TSID/SE3Task.h</text>
</g>
<!-- Node1 -->
<g id="node2" class="node">
<title>Node1</title>
<polygon fill="none" stroke="#bfbfbf" points="110.0616,-263 110.0616,-282 186.0616,-282 186.0616,-263 110.0616,-263"/>
<text text-anchor="middle" x="148.0616" y="-270" font-family="Helvetica,sans-Serif" font-size="10.00" fill="#000000">manif/manif.h</text>
</g>
<!-- Node0&#45;&gt;Node1 -->
<g id="edge1" class="edge">
<title>Node0&#45;&gt;Node1</title>
<path fill="none" stroke="#191970" d="M240.3557,-324.4639C220.4789,-313.2728 193.5015,-298.0838 173.8483,-287.0186"/>
<polygon fill="#191970" stroke="#191970" points="175.5502,-283.9602 165.1193,-282.1039 172.1159,-290.0599 175.5502,-283.9602"/>
</g>
<!-- Node2 -->
<g id="node3" class="node">
<title>Node2</title>
<g id="a_node3"><a xlink:href="Task_8h.html" target="_top" xlink:title="BipedalLocomotion/TSID\l/Task.h">
<polygon fill="none" stroke="#000000" points="204.5616,-257.5 204.5616,-287.5 329.5616,-287.5 329.5616,-257.5 204.5616,-257.5"/>
<text text-anchor="start" x="212.5616" y="-275.5" font-family="Helvetica,sans-Serif" font-size="10.00" fill="#000000">BipedalLocomotion/TSID</text>
<text text-anchor="middle" x="267.0616" y="-264.5" font-family="Helvetica,sans-Serif" font-size="10.00" fill="#000000">/Task.h</text>
</a>
</g>
</g>
<!-- Node0&#45;&gt;Node2 -->
<g id="edge2" class="edge">
<title>Node0&#45;&gt;Node2</title>
<path fill="none" stroke="#191970" d="M267.0616,-324.2967C267.0616,-316.5013 267.0616,-306.7991 267.0616,-297.9064"/>
<polygon fill="#191970" stroke="#191970" points="270.5617,-297.6431 267.0616,-287.6432 263.5617,-297.6432 270.5617,-297.6431"/>
</g>
<!-- Node21 -->
<g id="node22" class="node">
<title>Node21</title>
<polygon fill="none" stroke="#bfbfbf" points="348.0616,-257.5 348.0616,-287.5 514.0616,-287.5 514.0616,-257.5 348.0616,-257.5"/>
<text text-anchor="start" x="356.0616" y="-275.5" font-family="Helvetica,sans-Serif" font-size="10.00" fill="#000000">LieGroupControllers</text>
<text text-anchor="middle" x="431.0616" y="-264.5" font-family="Helvetica,sans-Serif" font-size="10.00" fill="#000000">/ProportionalDerivativeController.h</text>
</g>
<!-- Node0&#45;&gt;Node21 -->
<g id="edge25" class="edge">
<title>Node0&#45;&gt;Node21</title>
<path fill="none" stroke="#191970" d="M303.8664,-324.4639C327.7325,-314.7137 359.0266,-301.9289 384.6018,-291.4805"/>
<polygon fill="#191970" stroke="#191970" points="386.1627,-294.6237 394.0963,-287.6017 383.5153,-288.1436 386.1627,-294.6237"/>
</g>
<!-- Node3 -->
<g id="node4" class="node">
<title>Node3</title>
<polygon fill="none" stroke="#bfbfbf" points="191.0616,-62 191.0616,-81 243.0616,-81 243.0616,-62 191.0616,-62"/>
<text text-anchor="middle" x="217.0616" y="-69" font-family="Helvetica,sans-Serif" font-size="10.00" fill="#000000">memory</text>
</g>
<!-- Node2&#45;&gt;Node3 -->
<g id="edge3" class="edge">
<title>Node2&#45;&gt;Node3</title>
<path fill="none" stroke="#191970" d="M204.2468,-258.9085C201.1421,-258.2584 198.0672,-257.6191 195.0616,-257 113.8739,-240.2768 64.7153,-285.021 12.0616,-221 -43.1427,-153.8778 108.5066,-101.4188 180.9585,-80.8897"/>
<polygon fill="#191970" stroke="#191970" points="182.3382,-84.1393 191.0395,-78.0945 180.4678,-77.3937 182.3382,-84.1393"/>
</g>
<!-- Node4 -->
<g id="node5" class="node">
<title>Node4</title>
<polygon fill="none" stroke="#bfbfbf" points="21.5616,-196 21.5616,-215 94.5616,-215 94.5616,-196 21.5616,-196"/>
<text text-anchor="middle" x="58.0616" y="-203" font-family="Helvetica,sans-Serif" font-size="10.00" fill="#000000">Eigen/Dense</text>
</g>
<!-- Node2&#45;&gt;Node4 -->
<g id="edge4" class="edge">
<title>Node2&#45;&gt;Node4</title>
<path fill="none" stroke="#191970" d="M218.4843,-257.4168C186.0354,-247.2763 142.4305,-233.5244 104.0616,-221 101.3578,-220.1174 98.5674,-219.1981 95.7602,-218.2672"/>
<polygon fill="#191970" stroke="#191970" points="96.8466,-214.9401 86.2528,-215.0934 94.63,-221.5799 96.8466,-214.9401"/>
</g>
<!-- Node5 -->
<g id="node6" class="node">
<title>Node5</title>
<polygon fill="none" stroke="#bfbfbf" points="113.0616,-196 113.0616,-215 253.0616,-215 253.0616,-196 113.0616,-196"/>
<text text-anchor="middle" x="183.0616" y="-203" font-family="Helvetica,sans-Serif" font-size="10.00" fill="#000000">iDynTree/Core/MatrixView.h</text>
</g>
<!-- Node2&#45;&gt;Node5 -->
<g id="edge5" class="edge">
<title>Node2&#45;&gt;Node5</title>
<path fill="none" stroke="#191970" d="M248.0007,-257.2967C234.5319,-246.5537 216.5231,-232.1895 202.8867,-221.3129"/>
<polygon fill="#191970" stroke="#191970" points="205.0412,-218.5544 195.0409,-215.055 200.6763,-224.0268 205.0412,-218.5544"/>
</g>
<!-- Node6 -->
<g id="node7" class="node">
<title>Node6</title>
<polygon fill="none" stroke="#bfbfbf" points="271.5616,-196 271.5616,-215 432.5616,-215 432.5616,-196 271.5616,-196"/>
<text text-anchor="middle" x="352.0616" y="-203" font-family="Helvetica,sans-Serif" font-size="10.00" fill="#000000">iDynTree/KinDynComputations.h</text>
</g>
<!-- Node2&#45;&gt;Node6 -->
<g id="edge6" class="edge">
<title>Node2&#45;&gt;Node6</title>
<path fill="none" stroke="#191970" d="M286.3494,-257.2967C299.9785,-246.5537 318.2018,-232.1895 332.0004,-221.3129"/>
<polygon fill="#191970" stroke="#191970" points="334.2527,-223.9942 339.9396,-215.055 329.9194,-218.4967 334.2527,-223.9942"/>
</g>
<!-- Node7 -->
<g id="node8" class="node">
<title>Node7</title>
<g id="a_node8"><a xlink:href="IParametersHandler_8h.html" target="_top" xlink:title="BipedalLocomotion/Parameters\lHandler/IParametersHandler.h">
<polygon fill="none" stroke="#000000" points="451.0616,-190.5 451.0616,-220.5 603.0616,-220.5 603.0616,-190.5 451.0616,-190.5"/>
<text text-anchor="start" x="459.0616" y="-208.5" font-family="Helvetica,sans-Serif" font-size="10.00" fill="#000000">BipedalLocomotion/Parameters</text>
<text text-anchor="middle" x="527.0616" y="-197.5" font-family="Helvetica,sans-Serif" font-size="10.00" fill="#000000">Handler/IParametersHandler.h</text>
</a>
</g>
</g>
<!-- Node2&#45;&gt;Node7 -->
<g id="edge7" class="edge">
<title>Node2&#45;&gt;Node7</title>
<path fill="none" stroke="#191970" d="M325.4107,-257.4639C364.9139,-247.2842 417.2539,-233.7966 458.7097,-223.1138"/>
<polygon fill="#191970" stroke="#191970" points="459.6478,-226.4864 468.458,-220.6017 457.9009,-219.7079 459.6478,-226.4864"/>
</g>
<!-- Node19 -->
<g id="node20" class="node">
<title>Node19</title>
<g id="a_node20"><a xlink:href="VariablesHandler_8h.html" target="_top" xlink:title="BipedalLocomotion/System\l/VariablesHandler.h">
<polygon fill="none" stroke="#000000" points="621.0616,-190.5 621.0616,-220.5 757.0616,-220.5 757.0616,-190.5 621.0616,-190.5"/>
<text text-anchor="start" x="629.0616" y="-208.5" font-family="Helvetica,sans-Serif" font-size="10.00" fill="#000000">BipedalLocomotion/System</text>
<text text-anchor="middle" x="689.0616" y="-197.5" font-family="Helvetica,sans-Serif" font-size="10.00" fill="#000000">/VariablesHandler.h</text>
</a>
</g>
</g>
<!-- Node2&#45;&gt;Node19 -->
<g id="edge22" class="edge">
<title>Node2&#45;&gt;Node19</title>
<path fill="none" stroke="#191970" d="M329.8319,-258.6741C332.9484,-258.0859 336.0379,-257.5239 339.0616,-257 456.4688,-236.6556 489.6046,-240.8423 610.6417,-221.1679"/>
<polygon fill="#191970" stroke="#191970" points="611.3737,-224.5946 620.672,-219.516 610.2361,-217.6876 611.3737,-224.5946"/>
</g>
<!-- Node7&#45;&gt;Node3 -->
<g id="edge8" class="edge">
<title>Node7&#45;&gt;Node3</title>
<path fill="none" stroke="#191970" d="M464.0178,-190.4505C431.1497,-181.629 390.6904,-169.2193 356.0616,-154 312.6273,-134.9107 265.9377,-105.0529 239.2363,-86.9757"/>
<polygon fill="#191970" stroke="#191970" points="240.8929,-83.8683 230.6634,-81.1098 236.94,-89.6454 240.8929,-83.8683"/>
</g>
<!-- Node8 -->
<g id="node9" class="node">
<title>Node8</title>
<polygon fill="none" stroke="#bfbfbf" points="619.5616,-129 619.5616,-148 660.5616,-148 660.5616,-129 619.5616,-129"/>
<text text-anchor="middle" x="640.0616" y="-136" font-family="Helvetica,sans-Serif" font-size="10.00" fill="#000000">string</text>
</g>
<!-- Node7&#45;&gt;Node8 -->
<g id="edge9" class="edge">
<title>Node7&#45;&gt;Node8</title>
<path fill="none" stroke="#191970" d="M552.421,-190.4639C571.1247,-179.3741 596.4497,-164.3584 615.0666,-153.32"/>
<polygon fill="#191970" stroke="#191970" points="617.0473,-156.2147 623.8639,-148.1039 613.4772,-150.1935 617.0473,-156.2147"/>
</g>
<!-- Node9 -->
<g id="node10" class="node">
<title>Node9</title>
<polygon fill="none" stroke="#bfbfbf" points="365.0616,-129 365.0616,-148 409.0616,-148 409.0616,-129 365.0616,-129"/>
<text text-anchor="middle" x="387.0616" y="-136" font-family="Helvetica,sans-Serif" font-size="10.00" fill="#000000">vector</text>
</g>
<!-- Node7&#45;&gt;Node9 -->
<g id="edge10" class="edge">
<title>Node7&#45;&gt;Node9</title>
<path fill="none" stroke="#191970" d="M494.5388,-190.3647C472.8235,-180.2022 443.6608,-166.4454 418.0616,-154 417.0875,-153.5264 416.0971,-153.0428 415.0976,-152.553"/>
<polygon fill="#191970" stroke="#191970" points="416.5612,-149.3722 406.0459,-148.0757 413.4576,-155.6466 416.5612,-149.3722"/>
</g>
<!-- Node10 -->
<g id="node11" class="node">
<title>Node10</title>
<g id="a_node11"><a xlink:href="Vector_8h_source.html" target="_top" xlink:title="BipedalLocomotion/Generic\lContainer/Vector.h">
<polygon fill="none" stroke="#000000" points="427.0616,-123.5 427.0616,-153.5 563.0616,-153.5 563.0616,-123.5 427.0616,-123.5"/>
<text text-anchor="start" x="435.0616" y="-141.5" font-family="Helvetica,sans-Serif" font-size="10.00" fill="#000000">BipedalLocomotion/Generic</text>
<text text-anchor="middle" x="495.0616" y="-130.5" font-family="Helvetica,sans-Serif" font-size="10.00" fill="#000000">Container/Vector.h</text>
</a>
</g>
</g>
<!-- Node7&#45;&gt;Node10 -->
<g id="edge11" class="edge">
<title>Node7&#45;&gt;Node10</title>
<path fill="none" stroke="#191970" d="M519.8003,-190.2967C515.9135,-182.1586 511.0341,-171.9425 506.6382,-162.7386"/>
<polygon fill="#191970" stroke="#191970" points="509.7623,-161.1584 502.2941,-153.6432 503.4457,-164.1752 509.7623,-161.1584"/>
</g>
<!-- Node12 -->
<g id="node13" class="node">
<title>Node12</title>
<g id="a_node13"><a xlink:href="TemplateHelpers_8h_source.html" target="_top" xlink:title="BipedalLocomotion/Generic\lContainer/TemplateHelpers.h">
<polygon fill="none" stroke="#000000" points="610.0616,-56.5 610.0616,-86.5 754.0616,-86.5 754.0616,-56.5 610.0616,-56.5"/>
<text text-anchor="start" x="618.0616" y="-74.5" font-family="Helvetica,sans-Serif" font-size="10.00" fill="#000000">BipedalLocomotion/Generic</text>
<text text-anchor="middle" x="682.0616" y="-63.5" font-family="Helvetica,sans-Serif" font-size="10.00" fill="#000000">Container/TemplateHelpers.h</text>
</a>
</g>
</g>
<!-- Node7&#45;&gt;Node12 -->
<g id="edge21" class="edge">
<title>Node7&#45;&gt;Node12</title>
<path fill="none" stroke="#191970" d="M540.7851,-190.4602C556.7218,-173.3359 584.1467,-144.9006 610.0616,-123 622.7462,-112.2803 637.5512,-101.434 650.4264,-92.4782"/>
<polygon fill="#191970" stroke="#191970" points="652.7185,-95.1501 658.9819,-86.6048 648.7567,-89.3791 652.7185,-95.1501"/>
</g>
<!-- Node10&#45;&gt;Node3 -->
<g id="edge20" class="edge">
<title>Node10&#45;&gt;Node3</title>
<path fill="none" stroke="#191970" d="M427.0417,-124.4464C358.1316,-110.1535 260.4858,-89.7252 252.0616,-87 250.1647,-86.3864 248.2317,-85.7037 246.2972,-84.9766"/>
<polygon fill="#191970" stroke="#191970" points="247.3522,-81.6268 236.7713,-81.0847 244.7047,-88.1069 247.3522,-81.6268"/>
</g>
<!-- Node11 -->
<g id="node12" class="node">
<title>Node11</title>
<polygon fill="none" stroke="#bfbfbf" points="261.0616,-62 261.0616,-81 375.0616,-81 375.0616,-62 261.0616,-62"/>
<text text-anchor="middle" x="318.0616" y="-69" font-family="Helvetica,sans-Serif" font-size="10.00" fill="#000000">iDynTree/Core/Span.h</text>
</g>
<!-- Node10&#45;&gt;Node11 -->
<g id="edge12" class="edge">
<title>Node10&#45;&gt;Node11</title>
<path fill="none" stroke="#191970" d="M455.3393,-123.4639C424.4792,-111.7824 382.1116,-95.7449 352.6383,-84.5884"/>
<polygon fill="#191970" stroke="#191970" points="353.764,-81.2722 343.1726,-81.0053 351.2859,-87.8189 353.764,-81.2722"/>
</g>
<!-- Node10&#45;&gt;Node12 -->
<g id="edge13" class="edge">
<title>Node10&#45;&gt;Node12</title>
<path fill="none" stroke="#191970" d="M537.028,-123.4639C564.6008,-113.5849 600.8688,-100.5905 630.2388,-90.0675"/>
<polygon fill="#191970" stroke="#191970" points="631.6786,-93.2696 639.9121,-86.6017 629.3175,-86.6798 631.6786,-93.2696"/>
</g>
<!-- Node16 -->
<g id="node17" class="node">
<title>Node16</title>
<polygon fill="none" stroke="#bfbfbf" points="393.5616,-62 393.5616,-81 452.5616,-81 452.5616,-62 393.5616,-62"/>
<text text-anchor="middle" x="423.0616" y="-69" font-family="Helvetica,sans-Serif" font-size="10.00" fill="#000000">functional</text>
</g>
<!-- Node10&#45;&gt;Node16 -->
<g id="edge17" class="edge">
<title>Node10&#45;&gt;Node16</title>
<path fill="none" stroke="#191970" d="M478.7237,-123.2967C467.3968,-112.7564 452.324,-98.7303 440.7201,-87.9323"/>
<polygon fill="#191970" stroke="#191970" points="443.0346,-85.3051 433.3296,-81.055 438.266,-90.4296 443.0346,-85.3051"/>
</g>
<!-- Node17 -->
<g id="node18" class="node">
<title>Node17</title>
<polygon fill="none" stroke="#bfbfbf" points="470.5616,-62 470.5616,-81 519.5616,-81 519.5616,-62 470.5616,-62"/>
<text text-anchor="middle" x="495.0616" y="-69" font-family="Helvetica,sans-Serif" font-size="10.00" fill="#000000">cassert</text>
</g>
<!-- Node10&#45;&gt;Node17 -->
<g id="edge18" class="edge">
<title>Node10&#45;&gt;Node17</title>
<path fill="none" stroke="#191970" d="M495.0616,-123.2967C495.0616,-113.7699 495.0616,-101.3954 495.0616,-91.1306"/>
<polygon fill="#191970" stroke="#191970" points="498.5617,-91.0549 495.0616,-81.055 491.5617,-91.055 498.5617,-91.0549"/>
</g>
<!-- Node18 -->
<g id="node19" class="node">
<title>Node18</title>
<polygon fill="none" stroke="#bfbfbf" points="538.0616,-62 538.0616,-81 592.0616,-81 592.0616,-62 538.0616,-62"/>
<text text-anchor="middle" x="565.0616" y="-69" font-family="Helvetica,sans-Serif" font-size="10.00" fill="#000000">iostream</text>
</g>
<!-- Node10&#45;&gt;Node18 -->
<g id="edge19" class="edge">
<title>Node10&#45;&gt;Node18</title>
<path fill="none" stroke="#191970" d="M510.9457,-123.2967C521.852,-112.8578 536.3306,-98.9997 547.5672,-88.2446"/>
<polygon fill="#191970" stroke="#191970" points="550.2747,-90.498 555.0788,-81.055 545.4345,-85.4411 550.2747,-90.498"/>
</g>
<!-- Node13 -->
<g id="node14" class="node">
<title>Node13</title>
<polygon fill="none" stroke="#bfbfbf" points="569.0616,-.5 569.0616,-19.5 631.0616,-19.5 631.0616,-.5 569.0616,-.5"/>
<text text-anchor="middle" x="600.0616" y="-7.5" font-family="Helvetica,sans-Serif" font-size="10.00" fill="#000000">type_traits</text>
</g>
<!-- Node12&#45;&gt;Node13 -->
<g id="edge14" class="edge">
<title>Node12&#45;&gt;Node13</title>
<path fill="none" stroke="#191970" d="M661.7919,-56.2977C649.4609,-47.0495 633.735,-35.2551 621.2419,-25.8853"/>
<polygon fill="#191970" stroke="#191970" points="623.2908,-23.047 613.1908,-19.8469 619.0908,-28.647 623.2908,-23.047"/>
</g>
<!-- Node14 -->
<g id="node15" class="node">
<title>Node14</title>
<polygon fill="none" stroke="#bfbfbf" points="649.0616,-.5 649.0616,-19.5 715.0616,-19.5 715.0616,-.5 649.0616,-.5"/>
<text text-anchor="middle" x="682.0616" y="-7.5" font-family="Helvetica,sans-Serif" font-size="10.00" fill="#000000">string_view</text>
</g>
<!-- Node12&#45;&gt;Node14 -->
<g id="edge15" class="edge">
<title>Node12&#45;&gt;Node14</title>
<path fill="none" stroke="#191970" d="M682.0616,-56.2977C682.0616,-48.3834 682.0616,-38.6043 682.0616,-30.0759"/>
<polygon fill="#191970" stroke="#191970" points="685.5617,-29.8469 682.0616,-19.8469 678.5617,-29.847 685.5617,-29.8469"/>
</g>
<!-- Node15 -->
<g id="node16" class="node">
<title>Node15</title>
<polygon fill="none" stroke="#bfbfbf" points="733.5616,-.5 733.5616,-19.5 798.5616,-19.5 798.5616,-.5 733.5616,-.5"/>
<text text-anchor="middle" x="766.0616" y="-7.5" font-family="Helvetica,sans-Serif" font-size="10.00" fill="#000000">Eigen/Core</text>
</g>
<!-- Node12&#45;&gt;Node15 -->
<g id="edge16" class="edge">
<title>Node12&#45;&gt;Node15</title>
<path fill="none" stroke="#191970" d="M702.8256,-56.2977C715.4574,-47.0495 731.5669,-35.2551 744.3646,-25.8853"/>
<polygon fill="#191970" stroke="#191970" points="746.6111,-28.5784 752.6121,-19.8469 742.4759,-22.9303 746.6111,-28.5784"/>
</g>
<!-- Node19&#45;&gt;Node8 -->
<g id="edge23" class="edge">
<title>Node19&#45;&gt;Node8</title>
<path fill="none" stroke="#191970" d="M677.9427,-190.2967C670.5307,-180.1618 660.7615,-166.804 653.0006,-156.1921"/>
<polygon fill="#191970" stroke="#191970" points="655.7779,-154.0606 647.0495,-148.055 650.1277,-158.1928 655.7779,-154.0606"/>
</g>
<!-- Node20 -->
<g id="node21" class="node">
<title>Node20</title>
<polygon fill="none" stroke="#bfbfbf" points="678.5616,-129 678.5616,-148 761.5616,-148 761.5616,-129 678.5616,-129"/>
<text text-anchor="middle" x="720.0616" y="-136" font-family="Helvetica,sans-Serif" font-size="10.00" fill="#000000">unordered_map</text>
</g>
<!-- Node19&#45;&gt;Node20 -->
<g id="edge24" class="edge">
<title>Node19&#45;&gt;Node20</title>
<path fill="none" stroke="#191970" d="M696.096,-190.2967C700.6445,-180.4658 706.5962,-167.6026 711.4304,-157.1545"/>
<polygon fill="#191970" stroke="#191970" points="714.6179,-158.6003 715.6406,-148.055 708.2649,-155.6609 714.6179,-158.6003"/>
</g>
</g>
</svg>
        <g id="navigator" transform="translate(0 0)" fill="#404254">
                <rect fill="#f2f5e9" fill-opacity="0.5" stroke="#606060" stroke-width=".5" x="0" y="0" width="60" height="60"/>
                <use id="zoomplus" xlink:href="#zoomPlus" x="17" y="9" onmousedown="handleZoom(evt,'in')"/>
                <use id="zoomminus" xlink:href="#zoomMin" x="42" y="9" onmousedown="handleZoom(evt,'out')"/>
                <use id="reset" xlink:href="#resetDef" x="30" y="36" onmousedown="handleReset()"/>
                <g id="arrowUp" xlink:href="#dirArrow" transform="translate(30 24)" onmousedown="handlePan(0,-1)">
                  <use xlink:href="#rim" fill="#404040">
                        <set attributeName="fill" to="#808080" begin="arrowUp.mouseover" end="arrowUp.mouseout"/>
                  </use>
                  <path fill="none" stroke="white" stroke-width="1.5" d="M0,-3.0v7 M-2.5,-0.5L0,-3.0L2.5,-0.5"/>
                </g>
                <g id="arrowRight" xlink:href="#dirArrow" transform="rotate(90) translate(36 -43)" onmousedown="handlePan(1,0)">
                  <use xlink:href="#rim" fill="#404040">
                        <set attributeName="fill" to="#808080" begin="arrowRight.mouseover" end="arrowRight.mouseout"/>
                  </use>
                  <path fill="none" stroke="white" stroke-width="1.5" d="M0,-3.0v7 M-2.5,-0.5L0,-3.0L2.5,-0.5"/>
                </g>
                <g id="arrowDown" xlink:href="#dirArrow" transform="rotate(180) translate(-30 -48)" onmousedown="handlePan(0,1)">
                  <use xlink:href="#rim" fill="#404040">
                        <set attributeName="fill" to="#808080" begin="arrowDown.mouseover" end="arrowDown.mouseout"/>
                  </use>
                  <path fill="none" stroke="white" stroke-width="1.5" d="M0,-3.0v7 M-2.5,-0.5L0,-3.0L2.5,-0.5"/>
                </g>
                <g id="arrowLeft" xlink:href="#dirArrow" transform="rotate(270) translate(-36 17)" onmousedown="handlePan(-1,0)">
                  <use xlink:href="#rim" fill="#404040">
                        <set attributeName="fill" to="#808080" begin="arrowLeft.mouseover" end="arrowLeft.mouseout"/>
                  </use>
                  <path fill="none" stroke="white" stroke-width="1.5" d="M0,-3.0v7 M-2.5,-0.5L0,-3.0L2.5,-0.5"/>
                </g>
        </g>
        <svg viewBox="0 0 15 15" width="100%" height="30px" preserveAspectRatio="xMaxYMin meet">
         <g id="arrow_out" transform="scale(0.3 0.3)">
          <a xlink:href="SE3Task_8h__incl_org.svg" target="_base">
           <rect id="button" ry="5" rx="5" y="6" x="6" height="38" width="38"
                fill="#f2f5e9" fill-opacity="0.5" stroke="#606060" stroke-width="1.0"/>
           <path id="arrow"
             d="M 11.500037,31.436501 C 11.940474,20.09759 22.043105,11.32322 32.158766,21.979434 L 37.068811,17.246167 C 37.068811,17.246167 37.088388,32 37.088388,32 L 22.160133,31.978069 C 22.160133,31.978069 26.997745,27.140456 26.997745,27.140456 C 18.528582,18.264221 13.291696,25.230495 11.500037,31.436501 z"
             style="fill:#404040;"/>
          </a>
         </g>
        </svg>
</svg>
