<?xml version="1.0" encoding="UTF-8" standalone="no"?>
<!DOCTYPE svg PUBLIC "-//W3C//DTD SVG 1.1//EN"
 "http://www.w3.org/Graphics/SVG/1.1/DTD/svg11.dtd">
<!-- Generated by graphviz version 2.40.1 (20161225.0304)
 -->
<!-- Title: Planners/include/BipedalLocomotion/Planners/SO3Planner.h Pages: 1 -->
<svg width="372pt" height="173pt"
 viewBox="0.00 0.00 371.50 173.00" xmlns="http://www.w3.org/2000/svg" xmlns:xlink="http://www.w3.org/1999/xlink">
<g id="graph0" class="graph" transform="scale(1 1) rotate(0) translate(4 169)">
<title>Planners/include/BipedalLocomotion/Planners/SO3Planner.h</title>
<!-- Node5 -->
<g id="node1" class="node">
<title>Node5</title>
<polygon fill="#bfbfbf" stroke="#000000" points="4,-134.5 4,-164.5 176,-164.5 176,-134.5 4,-134.5"/>
<text text-anchor="start" x="12" y="-152.5" font-family="Helvetica,sans-Serif" font-size="10.00" fill="#000000">Planners/include/Bipedal</text>
<text text-anchor="middle" x="90" y="-141.5" font-family="Helvetica,sans-Serif" font-size="10.00" fill="#000000">Locomotion/Planners/SO3Planner.h</text>
</g>
<!-- Node6 -->
<g id="node2" class="node">
<title>Node6</title>
<g id="a_node2"><a xlink:href="SO3Planner_8tpp.html" target="_top" xlink:title="Planners/include/Bipedal\lLocomotion/Planners/SO3Planner.tpp">
<polygon fill="none" stroke="#000000" points="0,-62 0,-92 180,-92 180,-62 0,-62"/>
<text text-anchor="start" x="8" y="-80" font-family="Helvetica,sans-Serif" font-size="10.00" fill="#000000">Planners/include/Bipedal</text>
<text text-anchor="middle" x="90" y="-69" font-family="Helvetica,sans-Serif" font-size="10.00" fill="#000000">Locomotion/Planners/SO3Planner.tpp</text>
</a>
</g>
</g>
<!-- Node5&#45;&gt;Node6 -->
<g id="edge1" class="edge">
<title>Node5&#45;&gt;Node6</title>
<path fill="none" stroke="#191970" d="M83.539,-124.3409C82.9604,-113.5601 83.2506,-101.3309 84.4097,-92.0028"/>
<polygon fill="#191970" stroke="#191970" points="80.0666,-124.8132 84.4073,-134.478 87.041,-124.2157 80.0666,-124.8132"/>
</g>
<!-- Node7 -->
<g id="node3" class="node">
<title>Node7</title>
<g id="a_node3"><a xlink:href="SwingFootPlanner_8h.html" target="_top" xlink:title="Planners/include/Bipedal\lLocomotion/Planners/SwingFoot\lPlanner.h">
<polygon fill="none" stroke="#000000" points="198,-56.5 198,-97.5 356,-97.5 356,-56.5 198,-56.5"/>
<text text-anchor="start" x="206" y="-85.5" font-family="Helvetica,sans-Serif" font-size="10.00" fill="#000000">Planners/include/Bipedal</text>
<text text-anchor="start" x="206" y="-74.5" font-family="Helvetica,sans-Serif" font-size="10.00" fill="#000000">Locomotion/Planners/SwingFoot</text>
<text text-anchor="middle" x="277" y="-63.5" font-family="Helvetica,sans-Serif" font-size="10.00" fill="#000000">Planner.h</text>
</a>
</g>
</g>
<!-- Node5&#45;&gt;Node7 -->
<g id="edge3" class="edge">
<title>Node5&#45;&gt;Node7</title>
<path fill="none" stroke="#191970" d="M138.1336,-130.8386C164.4501,-120.6357 197.0952,-107.9791 224.1202,-97.5015"/>
<polygon fill="#191970" stroke="#191970" points="136.8051,-127.5997 128.7465,-134.478 139.3355,-134.1264 136.8051,-127.5997"/>
</g>
<!-- Node6&#45;&gt;Node5 -->
<g id="edge2" class="edge">
<title>Node6&#45;&gt;Node5</title>
<path fill="none" stroke="#191970" d="M96.4598,-102.1368C97.0396,-112.9157 96.7506,-125.1459 95.5927,-134.478"/>
<polygon fill="#191970" stroke="#191970" points="99.9324,-101.667 95.5903,-92.0028 92.958,-102.2654 99.9324,-101.667"/>
</g>
<!-- Node8 -->
<g id="node4" class="node">
<title>Node8</title>
<g id="a_node4"><a xlink:href="SwingFootPlanner_8cpp.html" target="_top" xlink:title="Planners/src/SwingFootPlanner.cpp">
<polygon fill="none" stroke="#000000" points="190.5,-.5 190.5,-19.5 363.5,-19.5 363.5,-.5 190.5,-.5"/>
<text text-anchor="middle" x="277" y="-7.5" font-family="Helvetica,sans-Serif" font-size="10.00" fill="#000000">Planners/src/SwingFootPlanner.cpp</text>
</a>
</g>
</g>
<!-- Node7&#45;&gt;Node8 -->
<g id="edge4" class="edge">
<title>Node7&#45;&gt;Node8</title>
<path fill="none" stroke="#191970" d="M277,-46.0909C277,-36.5672 277,-26.7625 277,-19.7805"/>
<polygon fill="#191970" stroke="#191970" points="273.5001,-46.168 277,-56.168 280.5001,-46.1681 273.5001,-46.168"/>
</g>
</g>
</svg>
