<?xml version="1.0" encoding="UTF-8" standalone="no"?>
<!DOCTYPE svg PUBLIC "-//W3C//DTD SVG 1.1//EN"
 "http://www.w3.org/Graphics/SVG/1.1/DTD/svg11.dtd">
<!-- Generated by graphviz version 2.40.1 (20161225.0304)
 -->
<!-- Title: Planners/include/BipedalLocomotion/Planners/SO3Planner.h Pages: 1 -->
<svg width="317pt" height="162pt"
 viewBox="0.00 0.00 316.64 162.00" xmlns="http://www.w3.org/2000/svg" xmlns:xlink="http://www.w3.org/1999/xlink">
<g id="graph0" class="graph" transform="scale(1 1) rotate(0) translate(4 158)">
<title>Planners/include/BipedalLocomotion/Planners/SO3Planner.h</title>
<!-- Node0 -->
<g id="node1" class="node">
<title>Node0</title>
<polygon fill="#bfbfbf" stroke="#000000" points="74.6352,-123.5 74.6352,-153.5 246.6352,-153.5 246.6352,-123.5 74.6352,-123.5"/>
<text text-anchor="start" x="82.6352" y="-141.5" font-family="Helvetica,sans-Serif" font-size="10.00" fill="#000000">Planners/include/Bipedal</text>
<text text-anchor="middle" x="160.6352" y="-130.5" font-family="Helvetica,sans-Serif" font-size="10.00" fill="#000000">Locomotion/Planners/SO3Planner.h</text>
</g>
<!-- Node1 -->
<g id="node2" class="node">
<title>Node1</title>
<polygon fill="none" stroke="#bfbfbf" points="37.1352,-.5 37.1352,-19.5 108.1352,-19.5 108.1352,-.5 37.1352,-.5"/>
<text text-anchor="middle" x="72.6352" y="-7.5" font-family="Helvetica,sans-Serif" font-size="10.00" fill="#000000">manif/SO3.h</text>
</g>
<!-- Node0&#45;&gt;Node1 -->
<g id="edge1" class="edge">
<title>Node0&#45;&gt;Node1</title>
<path fill="none" stroke="#191970" d="M89.829,-123.4631C54.0993,-114.2902 16.1292,-101.5448 5.6352,-87 -2.4262,-75.8268 -.7829,-68.1916 5.6352,-56 12.8282,-42.3365 26.1154,-31.9486 38.9719,-24.5328"/>
<polygon fill="#191970" stroke="#191970" points="40.9721,-27.4336 48.164,-19.6538 37.6902,-21.2506 40.9721,-27.4336"/>
</g>
<!-- Node2 -->
<g id="node3" class="node">
<title>Node2</title>
<g id="a_node3"><a xlink:href="Advanceable_8h.html" target="_top" xlink:title="BipedalLocomotion/System\l/Advanceable.h">
<polygon fill="none" stroke="#000000" points="14.6352,-56.5 14.6352,-86.5 150.6352,-86.5 150.6352,-56.5 14.6352,-56.5"/>
<text text-anchor="start" x="22.6352" y="-74.5" font-family="Helvetica,sans-Serif" font-size="10.00" fill="#000000">BipedalLocomotion/System</text>
<text text-anchor="middle" x="82.6352" y="-63.5" font-family="Helvetica,sans-Serif" font-size="10.00" fill="#000000">/Advanceable.h</text>
</a>
</g>
</g>
<!-- Node0&#45;&gt;Node2 -->
<g id="edge2" class="edge">
<title>Node0&#45;&gt;Node2</title>
<path fill="none" stroke="#191970" d="M142.9358,-123.2967C132.6638,-114.4733 119.5481,-103.2072 108.1736,-93.4368"/>
<polygon fill="#191970" stroke="#191970" points="110.1309,-90.5041 100.2646,-86.6432 105.5697,-95.8141 110.1309,-90.5041"/>
</g>
<!-- Node3 -->
<g id="node4" class="node">
<title>Node3</title>
<g id="a_node4"><a xlink:href="SO3Planner_8tpp.html" target="_top" xlink:title="BipedalLocomotion/Planners\l/SO3Planner.tpp">
<polygon fill="none" stroke="#000000" points="168.6352,-56.5 168.6352,-86.5 308.6352,-86.5 308.6352,-56.5 168.6352,-56.5"/>
<text text-anchor="start" x="176.6352" y="-74.5" font-family="Helvetica,sans-Serif" font-size="10.00" fill="#000000">BipedalLocomotion/Planners</text>
<text text-anchor="middle" x="238.6352" y="-63.5" font-family="Helvetica,sans-Serif" font-size="10.00" fill="#000000">/SO3Planner.tpp</text>
</a>
</g>
</g>
<!-- Node0&#45;&gt;Node3 -->
<g id="edge3" class="edge">
<title>Node0&#45;&gt;Node3</title>
<path fill="none" stroke="#191970" d="M172.5738,-123.2967C181.9613,-114.302 195.195,-102.7687 207.4172,-92.8694"/>
<polygon fill="#191970" stroke="#191970" points="209.6008,-95.6048 215.2523,-86.6432 205.2457,-90.1244 209.6008,-95.6048"/>
</g>
<!-- Node3&#45;&gt;Node0 -->
<g id="edge6" class="edge">
<title>Node3&#45;&gt;Node0</title>
<path fill="none" stroke="#191970" d="M226.7594,-86.6432C217.3891,-95.6265 204.1618,-107.1577 191.9351,-117.0643"/>
<polygon fill="#191970" stroke="#191970" points="189.7452,-114.3339 184.0955,-123.2967 194.1013,-119.8134 189.7452,-114.3339"/>
</g>
<!-- Node3&#45;&gt;Node1 -->
<g id="edge5" class="edge">
<title>Node3&#45;&gt;Node1</title>
<path fill="none" stroke="#191970" d="M198.0271,-56.4554C170.451,-46.239 134.341,-32.8609 107.957,-23.0861"/>
<polygon fill="#191970" stroke="#191970" points="108.9524,-19.7224 98.3593,-19.5303 106.5205,-26.2864 108.9524,-19.7224"/>
</g>
<!-- Node4 -->
<g id="node5" class="node">
<title>Node4</title>
<polygon fill="none" stroke="#bfbfbf" points="211.6352,-.5 211.6352,-19.5 265.6352,-19.5 265.6352,-.5 211.6352,-.5"/>
<text text-anchor="middle" x="238.6352" y="-7.5" font-family="Helvetica,sans-Serif" font-size="10.00" fill="#000000">iostream</text>
</g>
<!-- Node3&#45;&gt;Node4 -->
<g id="edge4" class="edge">
<title>Node3&#45;&gt;Node4</title>
<path fill="none" stroke="#191970" d="M238.6352,-56.2977C238.6352,-48.3834 238.6352,-38.6043 238.6352,-30.0759"/>
<polygon fill="#191970" stroke="#191970" points="242.1353,-29.8469 238.6352,-19.8469 235.1353,-29.847 242.1353,-29.8469"/>
</g>
</g>
</svg>
