<?xml version="1.0" encoding="UTF-8" standalone="no"?>
<!DOCTYPE svg PUBLIC "-//W3C//DTD SVG 1.1//EN"
 "http://www.w3.org/Graphics/SVG/1.1/DTD/svg11.dtd">
<!-- Generated by graphviz version 2.40.1 (20161225.0304)
 -->
<!-- Title: Planners/include/BipedalLocomotion/Planners/SO3Planner.tpp Pages: 1 -->
<svg width="280pt" height="173pt"
 viewBox="0.00 0.00 280.00 173.00" xmlns="http://www.w3.org/2000/svg" xmlns:xlink="http://www.w3.org/1999/xlink">
<g id="graph0" class="graph" transform="scale(1 1) rotate(0) translate(4 169)">
<title>Planners/include/BipedalLocomotion/Planners/SO3Planner.tpp</title>
<!-- Node0 -->
<g id="node1" class="node">
<title>Node0</title>
<polygon fill="#bfbfbf" stroke="#000000" points="41,-134.5 41,-164.5 221,-164.5 221,-134.5 41,-134.5"/>
<text text-anchor="start" x="49" y="-152.5" font-family="Helvetica,sans-Serif" font-size="10.00" fill="#000000">Planners/include/Bipedal</text>
<text text-anchor="middle" x="131" y="-141.5" font-family="Helvetica,sans-Serif" font-size="10.00" fill="#000000">Locomotion/Planners/SO3Planner.tpp</text>
</g>
<!-- Node1 -->
<g id="node2" class="node">
<title>Node1</title>
<polygon fill="none" stroke="#bfbfbf" points="0,-73 0,-92 54,-92 54,-73 0,-73"/>
<text text-anchor="middle" x="27" y="-80" font-family="Helvetica,sans-Serif" font-size="10.00" fill="#000000">iostream</text>
</g>
<!-- Node0&#45;&gt;Node1 -->
<g id="edge1" class="edge">
<title>Node0&#45;&gt;Node1</title>
<path fill="none" stroke="#191970" d="M107.6604,-134.4639C90.6821,-123.526 67.7758,-108.769 50.7118,-97.7759"/>
<polygon fill="#191970" stroke="#191970" points="52.2096,-94.5774 41.9076,-92.1039 48.4186,-100.462 52.2096,-94.5774"/>
</g>
<!-- Node2 -->
<g id="node3" class="node">
<title>Node2</title>
<polygon fill="none" stroke="#bfbfbf" points="46.5,-6 46.5,-25 117.5,-25 117.5,-6 46.5,-6"/>
<text text-anchor="middle" x="82" y="-13" font-family="Helvetica,sans-Serif" font-size="10.00" fill="#000000">manif/SO3.h</text>
</g>
<!-- Node0&#45;&gt;Node2 -->
<g id="edge2" class="edge">
<title>Node0&#45;&gt;Node2</title>
<path fill="none" stroke="#191970" d="M120.5309,-134.3431C114.0836,-124.3982 106.1032,-110.8922 101,-98 92.8349,-77.3727 87.6932,-52.3898 84.848,-35.358"/>
<polygon fill="#191970" stroke="#191970" points="88.3004,-34.7809 83.3014,-25.4396 81.384,-35.8595 88.3004,-34.7809"/>
</g>
<!-- Node3 -->
<g id="node4" class="node">
<title>Node3</title>
<g id="a_node4"><a xlink:href="SO3Planner_8h.html" target="_top" xlink:title="BipedalLocomotion/Planners\l/SO3Planner.h">
<polygon fill="none" stroke="#000000" points="110,-67.5 110,-97.5 250,-97.5 250,-67.5 110,-67.5"/>
<text text-anchor="start" x="118" y="-85.5" font-family="Helvetica,sans-Serif" font-size="10.00" fill="#000000">BipedalLocomotion/Planners</text>
<text text-anchor="middle" x="180" y="-74.5" font-family="Helvetica,sans-Serif" font-size="10.00" fill="#000000">/SO3Planner.h</text>
</a>
</g>
</g>
<!-- Node0&#45;&gt;Node3 -->
<g id="edge3" class="edge">
<title>Node0&#45;&gt;Node3</title>
<path fill="none" stroke="#191970" d="M136.358,-134.2967C141.5384,-125.816 149.161,-115.0785 156.6683,-105.5817"/>
<polygon fill="#191970" stroke="#191970" points="159.5419,-107.5969 163.1716,-97.6432 154.1269,-103.1609 159.5419,-107.5969"/>
</g>
<!-- Node3&#45;&gt;Node0 -->
<g id="edge6" class="edge">
<title>Node3&#45;&gt;Node0</title>
<path fill="none" stroke="#191970" d="M174.6787,-97.6432C169.5099,-106.1132 161.8928,-116.8482 154.385,-126.3509"/>
<polygon fill="#191970" stroke="#191970" points="151.5064,-124.3419 147.8797,-134.2967 156.9227,-128.7763 151.5064,-124.3419"/>
</g>
<!-- Node3&#45;&gt;Node2 -->
<g id="edge4" class="edge">
<title>Node3&#45;&gt;Node2</title>
<path fill="none" stroke="#191970" d="M157.7623,-67.2967C141.7522,-56.351 120.2437,-41.6462 104.2344,-30.701"/>
<polygon fill="#191970" stroke="#191970" points="106.2064,-27.8095 95.9759,-25.055 102.2557,-33.5881 106.2064,-27.8095"/>
</g>
<!-- Node4 -->
<g id="node5" class="node">
<title>Node4</title>
<g id="a_node5"><a xlink:href="Advanceable_8h.html" target="_top" xlink:title="BipedalLocomotion/System\l/Advanceable.h">
<polygon fill="none" stroke="#000000" points="136,-.5 136,-30.5 272,-30.5 272,-.5 136,-.5"/>
<text text-anchor="start" x="144" y="-18.5" font-family="Helvetica,sans-Serif" font-size="10.00" fill="#000000">BipedalLocomotion/System</text>
<text text-anchor="middle" x="204" y="-7.5" font-family="Helvetica,sans-Serif" font-size="10.00" fill="#000000">/Advanceable.h</text>
</a>
</g>
</g>
<!-- Node3&#45;&gt;Node4 -->
<g id="edge5" class="edge">
<title>Node3&#45;&gt;Node4</title>
<path fill="none" stroke="#191970" d="M185.446,-67.2967C188.2997,-59.3299 191.8668,-49.3718 195.1088,-40.3213"/>
<polygon fill="#191970" stroke="#191970" points="198.4982,-41.2377 198.5756,-30.6432 191.9083,-38.8771 198.4982,-41.2377"/>
</g>
</g>
</svg>
