<?xml version="1.0" encoding="UTF-8" standalone="no"?>
<!DOCTYPE svg PUBLIC "-//W3C//DTD SVG 1.1//EN"
 "http://www.w3.org/Graphics/SVG/1.1/DTD/svg11.dtd">
<!-- Generated by graphviz version 2.40.1 (20161225.0304)
 -->
<!-- Title: ParametersHandler/include/BipedalLocomotion/ParametersHandler/StdImplementation.h Pages: 1 -->
<svg width="654pt" height="307pt"
 viewBox="0.00 0.00 654.00 307.00" xmlns="http://www.w3.org/2000/svg" xmlns:xlink="http://www.w3.org/1999/xlink">
<g id="graph0" class="graph" transform="scale(1 1) rotate(0) translate(4 303)">
<title>ParametersHandler/include/BipedalLocomotion/ParametersHandler/StdImplementation.h</title>
<!-- Node0 -->
<g id="node1" class="node">
<title>Node0</title>
<polygon fill="#bfbfbf" stroke="#000000" points="281.5,-257.5 281.5,-298.5 470.5,-298.5 470.5,-257.5 281.5,-257.5"/>
<text text-anchor="start" x="289.5" y="-286.5" font-family="Helvetica,sans-Serif" font-size="10.00" fill="#000000">ParametersHandler/include</text>
<text text-anchor="start" x="289.5" y="-275.5" font-family="Helvetica,sans-Serif" font-size="10.00" fill="#000000">/BipedalLocomotion/ParametersHandler</text>
<text text-anchor="middle" x="376" y="-264.5" font-family="Helvetica,sans-Serif" font-size="10.00" fill="#000000">/StdImplementation.h</text>
</g>
<!-- Node1 -->
<g id="node2" class="node">
<title>Node1</title>
<polygon fill="none" stroke="#bfbfbf" points="58,-196 58,-215 90,-215 90,-196 58,-196"/>
<text text-anchor="middle" x="74" y="-203" font-family="Helvetica,sans-Serif" font-size="10.00" fill="#000000">any</text>
</g>
<!-- Node0&#45;&gt;Node1 -->
<g id="edge1" class="edge">
<title>Node0&#45;&gt;Node1</title>
<path fill="none" stroke="#191970" d="M281.4392,-264.6469C228.3288,-255.5552 161.3908,-241.4131 104,-221 102.5501,-220.4843 101.0821,-219.9114 99.615,-219.2984"/>
<polygon fill="#191970" stroke="#191970" points="100.686,-215.9348 90.1464,-214.8538 97.7115,-222.2714 100.686,-215.9348"/>
</g>
<!-- Node2 -->
<g id="node3" class="node">
<title>Node2</title>
<polygon fill="none" stroke="#bfbfbf" points="97.5,-129 97.5,-148 138.5,-148 138.5,-129 97.5,-129"/>
<text text-anchor="middle" x="118" y="-136" font-family="Helvetica,sans-Serif" font-size="10.00" fill="#000000">string</text>
</g>
<!-- Node0&#45;&gt;Node2 -->
<g id="edge2" class="edge">
<title>Node0&#45;&gt;Node2</title>
<path fill="none" stroke="#191970" d="M281.3112,-265.5646C224.107,-256.1586 158.4202,-241.3638 138,-221 121.5028,-204.5484 117.7537,-176.9551 117.2992,-158.2543"/>
<polygon fill="#191970" stroke="#191970" points="120.7994,-158.1977 117.3489,-148.1805 113.7995,-158.163 120.7994,-158.1977"/>
</g>
<!-- Node3 -->
<g id="node4" class="node">
<title>Node3</title>
<polygon fill="none" stroke="#bfbfbf" points="146.5,-196 146.5,-215 229.5,-215 229.5,-196 146.5,-196"/>
<text text-anchor="middle" x="188" y="-203" font-family="Helvetica,sans-Serif" font-size="10.00" fill="#000000">unordered_map</text>
</g>
<!-- Node0&#45;&gt;Node3 -->
<g id="edge3" class="edge">
<title>Node0&#45;&gt;Node3</title>
<path fill="none" stroke="#191970" d="M322.6296,-257.4183C290.39,-244.9855 250.2545,-229.5077 222.2304,-218.7006"/>
<polygon fill="#191970" stroke="#191970" points="223.4454,-215.4179 212.8558,-215.0853 220.9267,-221.9491 223.4454,-215.4179"/>
</g>
<!-- Node4 -->
<g id="node5" class="node">
<title>Node4</title>
<g id="a_node5"><a xlink:href="TemplateHelpers_8h_source.html" target="_top" xlink:title="BipedalLocomotion/Generic\lContainer/TemplateHelpers.h">
<polygon fill="none" stroke="#000000" points="419,-56.5 419,-86.5 563,-86.5 563,-56.5 419,-56.5"/>
<text text-anchor="start" x="427" y="-74.5" font-family="Helvetica,sans-Serif" font-size="10.00" fill="#000000">BipedalLocomotion/Generic</text>
<text text-anchor="middle" x="491" y="-63.5" font-family="Helvetica,sans-Serif" font-size="10.00" fill="#000000">Container/TemplateHelpers.h</text>
</a>
</g>
</g>
<!-- Node0&#45;&gt;Node4 -->
<g id="edge4" class="edge">
<title>Node0&#45;&gt;Node4</title>
<path fill="none" stroke="#191970" d="M396.4442,-257.2556C405.917,-246.9281 416.8522,-233.9124 425,-221 450.9811,-179.8257 471.7865,-126.6768 482.681,-96.1076"/>
<polygon fill="#191970" stroke="#191970" points="485.9889,-97.2511 485.9889,-86.6562 479.3819,-94.9387 485.9889,-97.2511"/>
</g>
<!-- Node8 -->
<g id="node9" class="node">
<title>Node8</title>
<g id="a_node9"><a xlink:href="Vector_8h_source.html" target="_top" xlink:title="BipedalLocomotion/Generic\lContainer/Vector.h">
<polygon fill="none" stroke="#000000" points="257,-123.5 257,-153.5 393,-153.5 393,-123.5 257,-123.5"/>
<text text-anchor="start" x="265" y="-141.5" font-family="Helvetica,sans-Serif" font-size="10.00" fill="#000000">BipedalLocomotion/Generic</text>
<text text-anchor="middle" x="325" y="-130.5" font-family="Helvetica,sans-Serif" font-size="10.00" fill="#000000">Container/Vector.h</text>
</a>
</g>
</g>
<!-- Node0&#45;&gt;Node8 -->
<g id="edge8" class="edge">
<title>Node0&#45;&gt;Node8</title>
<path fill="none" stroke="#191970" d="M393.6503,-257.3053C407.0265,-238.9613 421.1959,-211.7827 409,-190 401.5312,-176.6601 389.039,-166.3575 375.9413,-158.5975"/>
<polygon fill="#191970" stroke="#191970" points="377.2858,-155.344 366.8313,-153.6253 373.9322,-161.4884 377.2858,-155.344"/>
</g>
<!-- Node14 -->
<g id="node15" class="node">
<title>Node14</title>
<g id="a_node15"><a xlink:href="IParametersHandler_8h.html" target="_top" xlink:title="BipedalLocomotion/Parameters\lHandler/IParametersHandler.h">
<polygon fill="none" stroke="#000000" points="248,-190.5 248,-220.5 400,-220.5 400,-190.5 248,-190.5"/>
<text text-anchor="start" x="256" y="-208.5" font-family="Helvetica,sans-Serif" font-size="10.00" fill="#000000">BipedalLocomotion/Parameters</text>
<text text-anchor="middle" x="324" y="-197.5" font-family="Helvetica,sans-Serif" font-size="10.00" fill="#000000">Handler/IParametersHandler.h</text>
</a>
</g>
</g>
<!-- Node0&#45;&gt;Node14 -->
<g id="edge15" class="edge">
<title>Node0&#45;&gt;Node14</title>
<path fill="none" stroke="#191970" d="M361.238,-257.4183C354.8668,-248.5354 347.3807,-238.0981 340.7981,-228.9205"/>
<polygon fill="#191970" stroke="#191970" points="343.5021,-226.6852 334.8297,-220.5991 337.8139,-230.765 343.5021,-226.6852"/>
</g>
<!-- Node16 -->
<g id="node17" class="node">
<title>Node16</title>
<g id="a_node17"><a xlink:href="StdImplementation_8tpp.html" target="_top" xlink:title="BipedalLocomotion/Parameters\lHandler/StdImplementation.tpp">
<polygon fill="none" stroke="#000000" points="494,-190.5 494,-220.5 646,-220.5 646,-190.5 494,-190.5"/>
<text text-anchor="start" x="502" y="-208.5" font-family="Helvetica,sans-Serif" font-size="10.00" fill="#000000">BipedalLocomotion/Parameters</text>
<text text-anchor="middle" x="570" y="-197.5" font-family="Helvetica,sans-Serif" font-size="10.00" fill="#000000">Handler/StdImplementation.tpp</text>
</a>
</g>
</g>
<!-- Node0&#45;&gt;Node16 -->
<g id="edge21" class="edge">
<title>Node0&#45;&gt;Node16</title>
<path fill="none" stroke="#191970" d="M424.9186,-257.4183C452.1289,-246.9328 486.0401,-234.2815 514.2676,-224.0927"/>
<polygon fill="#191970" stroke="#191970" points="515.7663,-227.2734 523.9946,-220.5991 513.4001,-220.6854 515.7663,-227.2734"/>
</g>
<!-- Node5 -->
<g id="node6" class="node">
<title>Node5</title>
<polygon fill="none" stroke="#bfbfbf" points="555,-.5 555,-19.5 617,-19.5 617,-.5 555,-.5"/>
<text text-anchor="middle" x="586" y="-7.5" font-family="Helvetica,sans-Serif" font-size="10.00" fill="#000000">type_traits</text>
</g>
<!-- Node4&#45;&gt;Node5 -->
<g id="edge5" class="edge">
<title>Node4&#45;&gt;Node5</title>
<path fill="none" stroke="#191970" d="M514.4832,-56.2977C529.1348,-46.8127 547.9236,-34.6495 562.5659,-25.1705"/>
<polygon fill="#191970" stroke="#191970" points="564.5805,-28.0357 571.073,-19.6633 560.7764,-22.1596 564.5805,-28.0357"/>
</g>
<!-- Node6 -->
<g id="node7" class="node">
<title>Node6</title>
<polygon fill="none" stroke="#bfbfbf" points="378,-.5 378,-19.5 444,-19.5 444,-.5 378,-.5"/>
<text text-anchor="middle" x="411" y="-7.5" font-family="Helvetica,sans-Serif" font-size="10.00" fill="#000000">string_view</text>
</g>
<!-- Node4&#45;&gt;Node6 -->
<g id="edge6" class="edge">
<title>Node4&#45;&gt;Node6</title>
<path fill="none" stroke="#191970" d="M471.2247,-56.2977C459.3102,-47.1384 444.1468,-35.4816 432.0162,-26.1562"/>
<polygon fill="#191970" stroke="#191970" points="433.8703,-23.1668 423.809,-19.8469 429.604,-28.7165 433.8703,-23.1668"/>
</g>
<!-- Node7 -->
<g id="node8" class="node">
<title>Node7</title>
<polygon fill="none" stroke="#bfbfbf" points="462.5,-.5 462.5,-19.5 527.5,-19.5 527.5,-.5 462.5,-.5"/>
<text text-anchor="middle" x="495" y="-7.5" font-family="Helvetica,sans-Serif" font-size="10.00" fill="#000000">Eigen/Core</text>
</g>
<!-- Node4&#45;&gt;Node7 -->
<g id="edge7" class="edge">
<title>Node4&#45;&gt;Node7</title>
<path fill="none" stroke="#191970" d="M491.9888,-56.2977C492.5035,-48.3834 493.1396,-38.6043 493.6943,-30.0759"/>
<polygon fill="#191970" stroke="#191970" points="497.203,-30.053 494.3595,-19.8469 490.2178,-29.5986 497.203,-30.053"/>
</g>
<!-- Node8&#45;&gt;Node4 -->
<g id="edge10" class="edge">
<title>Node8&#45;&gt;Node4</title>
<path fill="none" stroke="#191970" d="M362.2536,-123.4639C386.4108,-113.7137 418.0866,-100.9289 443.9736,-90.4805"/>
<polygon fill="#191970" stroke="#191970" points="445.6207,-93.5901 453.5839,-86.6017 443.0007,-87.0989 445.6207,-93.5901"/>
</g>
<!-- Node9 -->
<g id="node10" class="node">
<title>Node9</title>
<polygon fill="none" stroke="#bfbfbf" points="142,-62 142,-81 256,-81 256,-62 142,-62"/>
<text text-anchor="middle" x="199" y="-69" font-family="Helvetica,sans-Serif" font-size="10.00" fill="#000000">iDynTree/Core/Span.h</text>
</g>
<!-- Node8&#45;&gt;Node9 -->
<g id="edge9" class="edge">
<title>Node8&#45;&gt;Node9</title>
<path fill="none" stroke="#191970" d="M296.7231,-123.4639C275.582,-112.2222 246.8542,-96.9463 226.0216,-85.8686"/>
<polygon fill="#191970" stroke="#191970" points="227.5337,-82.7087 217.0611,-81.1039 224.2472,-88.8892 227.5337,-82.7087"/>
</g>
<!-- Node10 -->
<g id="node11" class="node">
<title>Node10</title>
<polygon fill="none" stroke="#bfbfbf" points="274.5,-62 274.5,-81 333.5,-81 333.5,-62 274.5,-62"/>
<text text-anchor="middle" x="304" y="-69" font-family="Helvetica,sans-Serif" font-size="10.00" fill="#000000">functional</text>
</g>
<!-- Node8&#45;&gt;Node10 -->
<g id="edge11" class="edge">
<title>Node8&#45;&gt;Node10</title>
<path fill="none" stroke="#191970" d="M320.2348,-123.2967C317.217,-113.6685 313.2876,-101.1318 310.0504,-90.8038"/>
<polygon fill="#191970" stroke="#191970" points="313.3256,-89.5504 306.9948,-81.055 306.646,-91.6441 313.3256,-89.5504"/>
</g>
<!-- Node11 -->
<g id="node12" class="node">
<title>Node11</title>
<polygon fill="none" stroke="#bfbfbf" points="351.5,-62 351.5,-81 400.5,-81 400.5,-62 351.5,-62"/>
<text text-anchor="middle" x="376" y="-69" font-family="Helvetica,sans-Serif" font-size="10.00" fill="#000000">cassert</text>
</g>
<!-- Node8&#45;&gt;Node11 -->
<g id="edge12" class="edge">
<title>Node8&#45;&gt;Node11</title>
<path fill="none" stroke="#191970" d="M336.5727,-123.2967C344.2873,-113.1618 354.4551,-99.804 362.5329,-89.1921"/>
<polygon fill="#191970" stroke="#191970" points="365.4549,-91.1319 368.7268,-81.055 359.8849,-86.8921 365.4549,-91.1319"/>
</g>
<!-- Node12 -->
<g id="node13" class="node">
<title>Node12</title>
<polygon fill="none" stroke="#bfbfbf" points="70,-62 70,-81 124,-81 124,-62 70,-62"/>
<text text-anchor="middle" x="97" y="-69" font-family="Helvetica,sans-Serif" font-size="10.00" fill="#000000">iostream</text>
</g>
<!-- Node8&#45;&gt;Node12 -->
<g id="edge13" class="edge">
<title>Node8&#45;&gt;Node12</title>
<path fill="none" stroke="#191970" d="M259.4145,-123.4035C221.9795,-114.1684 174.4032,-101.3815 133,-87 131.1198,-86.3469 129.1993,-85.6407 127.2723,-84.9021"/>
<polygon fill="#191970" stroke="#191970" points="128.3208,-81.5504 117.7385,-81.0341 125.6891,-88.0369 128.3208,-81.5504"/>
</g>
<!-- Node13 -->
<g id="node14" class="node">
<title>Node13</title>
<polygon fill="none" stroke="#bfbfbf" points="0,-62 0,-81 52,-81 52,-62 0,-62"/>
<text text-anchor="middle" x="26" y="-69" font-family="Helvetica,sans-Serif" font-size="10.00" fill="#000000">memory</text>
</g>
<!-- Node8&#45;&gt;Node13 -->
<g id="edge14" class="edge">
<title>Node8&#45;&gt;Node13</title>
<path fill="none" stroke="#191970" d="M256.8461,-125.5978C181.7868,-111.329 70.3823,-89.9515 61,-87 59.0982,-86.4017 57.1615,-85.7308 55.2242,-85.0125"/>
<polygon fill="#191970" stroke="#191970" points="56.2733,-81.6611 45.6912,-81.1428 53.6404,-88.1471 56.2733,-81.6611"/>
</g>
<!-- Node14&#45;&gt;Node2 -->
<g id="edge17" class="edge">
<title>Node14&#45;&gt;Node2</title>
<path fill="none" stroke="#191970" d="M261.9301,-190.4634C227.7732,-181.4151 184.9456,-168.79 148,-154 146.806,-153.522 145.5964,-153.0122 144.3826,-152.4794"/>
<polygon fill="#191970" stroke="#191970" points="145.7179,-149.2386 135.1849,-148.0953 142.7059,-155.5575 145.7179,-149.2386"/>
</g>
<!-- Node14&#45;&gt;Node4 -->
<g id="edge20" class="edge">
<title>Node14&#45;&gt;Node4</title>
<path fill="none" stroke="#191970" d="M348.9592,-190.4872C364.6338,-180.7064 385.0239,-167.3264 402,-154 426.0002,-135.1596 451.3283,-111.2336 468.8013,-94.0053"/>
<polygon fill="#191970" stroke="#191970" points="471.6216,-96.1366 476.2437,-86.6032 466.6853,-91.1735 471.6216,-96.1366"/>
</g>
<!-- Node14&#45;&gt;Node8 -->
<g id="edge19" class="edge">
<title>Node14&#45;&gt;Node8</title>
<path fill="none" stroke="#191970" d="M324.2269,-190.2967C324.3433,-182.5013 324.4881,-172.7991 324.6208,-163.9064"/>
<polygon fill="#191970" stroke="#191970" points="328.1243,-163.6943 324.774,-153.6432 321.125,-163.5898 328.1243,-163.6943"/>
</g>
<!-- Node14&#45;&gt;Node13 -->
<g id="edge16" class="edge">
<title>Node14&#45;&gt;Node13</title>
<path fill="none" stroke="#191970" d="M300.6817,-190.4714C285.4507,-180.4676 265.2596,-166.8485 248,-154 230.5166,-140.9849 229.5237,-132.6896 210,-123 148.9746,-92.7133 125.518,-108.8817 61,-87 59.1592,-86.3757 57.2821,-85.6917 55.401,-84.9697"/>
<polygon fill="#191970" stroke="#191970" points="56.692,-81.7163 46.1126,-81.1453 54.0269,-88.1891 56.692,-81.7163"/>
</g>
<!-- Node15 -->
<g id="node16" class="node">
<title>Node15</title>
<polygon fill="none" stroke="#bfbfbf" points="157,-129 157,-148 201,-148 201,-129 157,-129"/>
<text text-anchor="middle" x="179" y="-136" font-family="Helvetica,sans-Serif" font-size="10.00" fill="#000000">vector</text>
</g>
<!-- Node14&#45;&gt;Node15 -->
<g id="edge18" class="edge">
<title>Node14&#45;&gt;Node15</title>
<path fill="none" stroke="#191970" d="M291.4592,-190.4639C266.8013,-179.0702 233.1752,-163.5327 209.1294,-152.4219"/>
<polygon fill="#191970" stroke="#191970" points="210.3305,-149.1213 199.7846,-148.1039 207.3943,-155.4757 210.3305,-149.1213"/>
</g>
<!-- Node16&#45;&gt;Node0 -->
<g id="edge23" class="edge">
<title>Node16&#45;&gt;Node0</title>
<path fill="none" stroke="#191970" d="M535.1991,-220.5991C510.6258,-230.2262 476.9402,-242.9143 446.8543,-253.9128"/>
<polygon fill="#191970" stroke="#191970" points="445.4273,-250.7075 437.2288,-257.4183 447.8228,-257.2849 445.4273,-250.7075"/>
</g>
<!-- Node16&#45;&gt;Node5 -->
<g id="edge22" class="edge">
<title>Node16&#45;&gt;Node5</title>
<path fill="none" stroke="#191970" d="M571.2289,-190.4841C574.0795,-155.654 581.1429,-69.3473 584.3586,-30.0563"/>
<polygon fill="#191970" stroke="#191970" points="587.8632,-30.142 585.1906,-19.8898 580.8865,-29.571 587.8632,-30.142"/>
</g>
</g>
</svg>
