<?xml version="1.0" encoding="UTF-8" standalone="no"?>
<!DOCTYPE svg PUBLIC "-//W3C//DTD SVG 1.1//EN"
 "http://www.w3.org/Graphics/SVG/1.1/DTD/svg11.dtd">
<!-- Generated by graphviz version 2.40.1 (20161225.0304)
 -->
<!-- Title: ParametersHandler/include/BipedalLocomotion/ParametersHandler/StdImplementation.h Pages: 1 -->
<svg width="336pt" height="128pt"
 viewBox="0.00 0.00 335.50 128.00" xmlns="http://www.w3.org/2000/svg" xmlns:xlink="http://www.w3.org/1999/xlink">
<g id="graph0" class="graph" transform="scale(1 1) rotate(0) translate(4 124)">
<title>ParametersHandler/include/BipedalLocomotion/ParametersHandler/StdImplementation.h</title>
<!-- Node17 -->
<g id="node1" class="node">
<title>Node17</title>
<polygon fill="#bfbfbf" stroke="#000000" points="0,-78.5 0,-119.5 189,-119.5 189,-78.5 0,-78.5"/>
<text text-anchor="start" x="8" y="-107.5" font-family="Helvetica,sans-Serif" font-size="10.00" fill="#000000">ParametersHandler/include</text>
<text text-anchor="start" x="8" y="-96.5" font-family="Helvetica,sans-Serif" font-size="10.00" fill="#000000">/BipedalLocomotion/ParametersHandler</text>
<text text-anchor="middle" x="94.5" y="-85.5" font-family="Helvetica,sans-Serif" font-size="10.00" fill="#000000">/StdImplementation.h</text>
</g>
<!-- Node18 -->
<g id="node2" class="node">
<title>Node18</title>
<g id="a_node2"><a xlink:href="StdImplementation_8tpp.html" target="_top" xlink:title="ParametersHandler/include\l/BipedalLocomotion/ParametersHandler\l/StdImplementation.tpp">
<polygon fill="none" stroke="#000000" points="0,-.5 0,-41.5 189,-41.5 189,-.5 0,-.5"/>
<text text-anchor="start" x="8" y="-29.5" font-family="Helvetica,sans-Serif" font-size="10.00" fill="#000000">ParametersHandler/include</text>
<text text-anchor="start" x="8" y="-18.5" font-family="Helvetica,sans-Serif" font-size="10.00" fill="#000000">/BipedalLocomotion/ParametersHandler</text>
<text text-anchor="middle" x="94.5" y="-7.5" font-family="Helvetica,sans-Serif" font-size="10.00" fill="#000000">/StdImplementation.tpp</text>
</a>
</g>
</g>
<!-- Node17&#45;&gt;Node18 -->
<g id="edge1" class="edge">
<title>Node17&#45;&gt;Node18</title>
<path fill="none" stroke="#191970" d="M87.8804,-68.0789C87.5906,-59.2178 87.7839,-49.7747 88.4602,-41.6898"/>
<polygon fill="#191970" stroke="#191970" points="84.3877,-68.3092 88.4426,-78.0974 91.3767,-67.917 84.3877,-68.3092"/>
</g>
<!-- Node19 -->
<g id="node3" class="node">
<title>Node19</title>
<g id="a_node3"><a xlink:href="StdImplementation_8cpp.html" target="_top" xlink:title="ParametersHandler/src\l/StdImplementation.cpp">
<polygon fill="none" stroke="#000000" points="207.5,-6 207.5,-36 327.5,-36 327.5,-6 207.5,-6"/>
<text text-anchor="start" x="215.5" y="-24" font-family="Helvetica,sans-Serif" font-size="10.00" fill="#000000">ParametersHandler/src</text>
<text text-anchor="middle" x="267.5" y="-13" font-family="Helvetica,sans-Serif" font-size="10.00" fill="#000000">/StdImplementation.cpp</text>
</a>
</g>
</g>
<!-- Node17&#45;&gt;Node19 -->
<g id="edge3" class="edge">
<title>Node17&#45;&gt;Node19</title>
<path fill="none" stroke="#191970" d="M149.6045,-74.1552C177.3489,-61.6462 210.0788,-46.8893 234.0045,-36.102"/>
<polygon fill="#191970" stroke="#191970" points="148.0843,-71.0012 140.4066,-78.3022 150.9615,-77.3826 148.0843,-71.0012"/>
</g>
<!-- Node18&#45;&gt;Node17 -->
<g id="edge2" class="edge">
<title>Node18&#45;&gt;Node17</title>
<path fill="none" stroke="#191970" d="M101.1119,-51.6884C101.4102,-60.5392 101.2253,-69.9888 100.5574,-78.0974"/>
<polygon fill="#191970" stroke="#191970" points="104.6054,-51.4735 100.5398,-41.6898 97.6168,-51.8734 104.6054,-51.4735"/>
</g>
</g>
</svg>
