<?xml version="1.0" encoding="UTF-8" standalone="no"?>
<!DOCTYPE svg PUBLIC "-//W3C//DTD SVG 1.1//EN"
 "http://www.w3.org/Graphics/SVG/1.1/DTD/svg11.dtd">
<!-- Generated by graphviz version 2.40.1 (20161225.0304)
 -->
<!-- Title: ParametersHandler/include/BipedalLocomotion/ParametersHandler/StdImplementation.tpp Pages: 1 -->
<!--zoomable 374 -->
<svg id="main" version="1.1" xmlns="http://www.w3.org/2000/svg" xmlns:xlink="http://www.w3.org/1999/xlink" xml:space="preserve" onload="init(evt)">
<style type="text/css"><![CDATA[
.edge:hover path { stroke: red; }
.edge:hover polygon { stroke: red; fill: red; }
]]></style>
<script type="text/javascript"><![CDATA[
var edges = document.getElementsByTagName('g');
if (edges && edges.length) {
  for (var i=0;i<edges.length;i++) {
    if (edges[i].id.substr(0,4)=='edge') {
      edges[i].setAttribute('class','edge');
    }
  }
}
]]></script>
        <defs>
                <circle id="rim" cx="0" cy="0" r="7"/>
                <circle id="rim2" cx="0" cy="0" r="3.5"/>
                <g id="zoomPlus">
                        <use xlink:href="#rim" fill="#404040">
                                <set attributeName="fill" to="#808080" begin="zoomplus.mouseover" end="zoomplus.mouseout"/>
                        </use>
                        <path d="M-4,0h8M0,-4v8" fill="none" stroke="white" stroke-width="1.5" pointer-events="none"/>
                </g>
                <g id="zoomMin">
                        <use xlink:href="#rim" fill="#404040">
                                <set attributeName="fill" to="#808080" begin="zoomminus.mouseover" end="zoomminus.mouseout"/>
                        </use>
                        <path d="M-4,0h8" fill="none" stroke="white" stroke-width="1.5" pointer-events="none"/>
                </g>
                <g id="dirArrow">
                        <path fill="none" stroke="white" stroke-width="1.5" d="M0,-3.0v7 M-2.5,-0.5L0,-3.0L2.5,-0.5"/>
                </g>
               <g id="resetDef">
                       <use xlink:href="#rim2" fill="#404040">
                               <set attributeName="fill" to="#808080" begin="reset.mouseover" end="reset.mouseout"/>
                       </use>
               </g>
        </defs>

<script type="text/javascript">
var viewWidth = 623;
var viewHeight = 374;
var sectionId = 'dynsection-0';
</script>
<script xlink:href="svgpan.js"/>
<svg id="graph" class="graph">
<g id="viewport">
<title>ParametersHandler/include/BipedalLocomotion/ParametersHandler/StdImplementation.tpp</title>
<!-- Node0 -->
<g id="node1" class="node">
<title>Node0</title>
<polygon fill="#bfbfbf" stroke="#000000" points="291.4024,-324.5 291.4024,-365.5 480.4024,-365.5 480.4024,-324.5 291.4024,-324.5"/>
<text text-anchor="start" x="299.4024" y="-353.5" font-family="Helvetica,sans-Serif" font-size="10.00" fill="#000000">ParametersHandler/include</text>
<text text-anchor="start" x="299.4024" y="-342.5" font-family="Helvetica,sans-Serif" font-size="10.00" fill="#000000">/BipedalLocomotion/ParametersHandler</text>
<text text-anchor="middle" x="385.9024" y="-331.5" font-family="Helvetica,sans-Serif" font-size="10.00" fill="#000000">/StdImplementation.tpp</text>
</g>
<!-- Node1 -->
<g id="node2" class="node">
<title>Node1</title>
<polygon fill="none" stroke="#bfbfbf" points="189.9024,-.5 189.9024,-19.5 251.9024,-19.5 251.9024,-.5 189.9024,-.5"/>
<text text-anchor="middle" x="220.9024" y="-7.5" font-family="Helvetica,sans-Serif" font-size="10.00" fill="#000000">type_traits</text>
</g>
<!-- Node0&#45;&gt;Node1 -->
<g id="edge1" class="edge">
<title>Node0&#45;&gt;Node1</title>
<path fill="none" stroke="#191970" d="M290.9811,-329.865C177.2677,-308.9911 1.9024,-266.854 1.9024,-205.5 1.9024,-205.5 1.9024,-205.5 1.9024,-138.5 1.9024,-100.8735 -5.7073,-82.6021 20.9024,-56 42.8842,-34.0245 127.8071,-20.6362 179.6637,-14.3378"/>
<polygon fill="#191970" stroke="#191970" points="180.3565,-17.7805 189.8792,-13.1365 179.5389,-10.8284 180.3565,-17.7805"/>
</g>
<!-- Node2 -->
<g id="node3" class="node">
<title>Node2</title>
<g id="a_node3"><a xlink:href="StdImplementation_8h.html" target="_top" xlink:title="BipedalLocomotion/Parameters\lHandler/StdImplementation.h">
<polygon fill="none" stroke="#000000" points="309.9024,-257.5 309.9024,-287.5 461.9024,-287.5 461.9024,-257.5 309.9024,-257.5"/>
<text text-anchor="start" x="317.9024" y="-275.5" font-family="Helvetica,sans-Serif" font-size="10.00" fill="#000000">BipedalLocomotion/Parameters</text>
<text text-anchor="middle" x="385.9024" y="-264.5" font-family="Helvetica,sans-Serif" font-size="10.00" fill="#000000">Handler/StdImplementation.h</text>
</a>
</g>
</g>
<!-- Node0&#45;&gt;Node2 -->
<g id="edge2" class="edge">
<title>Node0&#45;&gt;Node2</title>
<path fill="none" stroke="#191970" d="M379.7474,-324.4183C379.0738,-316.0849 378.9722,-306.3834 379.4426,-297.6373"/>
<polygon fill="#191970" stroke="#191970" points="382.9362,-297.8608 380.3002,-287.5991 375.9616,-297.2649 382.9362,-297.8608"/>
</g>
<!-- Node2&#45;&gt;Node0 -->
<g id="edge23" class="edge">
<title>Node2&#45;&gt;Node0</title>
<path fill="none" stroke="#191970" d="M391.5047,-287.5991C392.4609,-295.3508 392.8196,-305.0871 392.5809,-314.3279"/>
<polygon fill="#191970" stroke="#191970" points="389.0803,-314.2504 392.0575,-324.4183 396.0709,-314.6131 389.0803,-314.2504"/>
</g>
<!-- Node3 -->
<g id="node4" class="node">
<title>Node3</title>
<polygon fill="none" stroke="#bfbfbf" points="259.9024,-196 259.9024,-215 291.9024,-215 291.9024,-196 259.9024,-196"/>
<text text-anchor="middle" x="275.9024" y="-203" font-family="Helvetica,sans-Serif" font-size="10.00" fill="#000000">any</text>
</g>
<!-- Node2&#45;&gt;Node3 -->
<g id="edge3" class="edge">
<title>Node2&#45;&gt;Node3</title>
<path fill="none" stroke="#191970" d="M360.942,-257.4689C343.9826,-247.2334 321.0563,-233.3527 300.9024,-221 300.6085,-220.8199 300.3128,-220.6385 300.0154,-220.456"/>
<polygon fill="#191970" stroke="#191970" points="301.5724,-217.3041 291.2237,-215.0336 297.8977,-223.2621 301.5724,-217.3041"/>
</g>
<!-- Node4 -->
<g id="node5" class="node">
<title>Node4</title>
<polygon fill="none" stroke="#bfbfbf" points="549.4024,-129 549.4024,-148 590.4024,-148 590.4024,-129 549.4024,-129"/>
<text text-anchor="middle" x="569.9024" y="-136" font-family="Helvetica,sans-Serif" font-size="10.00" fill="#000000">string</text>
</g>
<!-- Node2&#45;&gt;Node4 -->
<g id="edge4" class="edge">
<title>Node2&#45;&gt;Node4</title>
<path fill="none" stroke="#191970" d="M462.0045,-261.0731C507.4981,-252.5124 559.077,-239.1477 572.9024,-221 586.6248,-202.9875 582.2668,-175.7853 576.9187,-157.597"/>
<polygon fill="#191970" stroke="#191970" points="580.2336,-156.4732 573.7846,-148.0672 573.584,-158.6601 580.2336,-156.4732"/>
</g>
<!-- Node5 -->
<g id="node6" class="node">
<title>Node5</title>
<polygon fill="none" stroke="#bfbfbf" points="480.4024,-196 480.4024,-215 563.4024,-215 563.4024,-196 480.4024,-196"/>
<text text-anchor="middle" x="521.9024" y="-203" font-family="Helvetica,sans-Serif" font-size="10.00" fill="#000000">unordered_map</text>
</g>
<!-- Node2&#45;&gt;Node5 -->
<g id="edge5" class="edge">
<title>Node2&#45;&gt;Node5</title>
<path fill="none" stroke="#191970" d="M416.4235,-257.4639C439.4481,-246.1209 470.8097,-230.6707 493.3419,-219.5703"/>
<polygon fill="#191970" stroke="#191970" points="494.9842,-222.6629 502.4079,-215.1039 491.8906,-216.3836 494.9842,-222.6629"/>
</g>
<!-- Node6 -->
<g id="node7" class="node">
<title>Node6</title>
<g id="a_node7"><a xlink:href="TemplateHelpers_8h_source.html" target="_top" xlink:title="BipedalLocomotion/Generic\lContainer/TemplateHelpers.h">
<polygon fill="none" stroke="#000000" points="448.9024,-56.5 448.9024,-86.5 592.9024,-86.5 592.9024,-56.5 448.9024,-56.5"/>
<text text-anchor="start" x="456.9024" y="-74.5" font-family="Helvetica,sans-Serif" font-size="10.00" fill="#000000">BipedalLocomotion/Generic</text>
<text text-anchor="middle" x="520.9024" y="-63.5" font-family="Helvetica,sans-Serif" font-size="10.00" fill="#000000">Container/TemplateHelpers.h</text>
</a>
</g>
</g>
<!-- Node2&#45;&gt;Node6 -->
<g id="edge6" class="edge">
<title>Node2&#45;&gt;Node6</title>
<path fill="none" stroke="#191970" d="M462.1367,-262.3842C513.0145,-254.0057 573.6368,-240.328 590.9024,-221 620.0412,-188.3807 620.7392,-161.4567 599.9024,-123 592.7415,-109.7836 580.5556,-99.4229 567.8702,-91.5696"/>
<polygon fill="#191970" stroke="#191970" points="569.4814,-88.4591 559.0639,-86.529 566.0041,-94.5343 569.4814,-88.4591"/>
</g>
<!-- Node9 -->
<g id="node10" class="node">
<title>Node9</title>
<g id="a_node10"><a xlink:href="Vector_8h_source.html" target="_top" xlink:title="BipedalLocomotion/Generic\lContainer/Vector.h">
<polygon fill="none" stroke="#000000" points="214.9024,-123.5 214.9024,-153.5 350.9024,-153.5 350.9024,-123.5 214.9024,-123.5"/>
<text text-anchor="start" x="222.9024" y="-141.5" font-family="Helvetica,sans-Serif" font-size="10.00" fill="#000000">BipedalLocomotion/Generic</text>
<text text-anchor="middle" x="282.9024" y="-130.5" font-family="Helvetica,sans-Serif" font-size="10.00" fill="#000000">Container/Vector.h</text>
</a>
</g>
</g>
<!-- Node2&#45;&gt;Node9 -->
<g id="edge10" class="edge">
<title>Node2&#45;&gt;Node9</title>
<path fill="none" stroke="#191970" d="M327.8089,-257.4436C295.6236,-247.8002 260.2585,-234.5829 250.9024,-221 238.3207,-202.7341 250.1081,-178.8312 262.7796,-161.459"/>
<polygon fill="#191970" stroke="#191970" points="265.5875,-163.5498 268.9683,-153.5088 260.0638,-159.2499 265.5875,-163.5498"/>
</g>
<!-- Node15 -->
<g id="node16" class="node">
<title>Node15</title>
<g id="a_node16"><a xlink:href="IParametersHandler_8h.html" target="_top" xlink:title="BipedalLocomotion/Parameters\lHandler/IParametersHandler.h">
<polygon fill="none" stroke="#000000" points="309.9024,-190.5 309.9024,-220.5 461.9024,-220.5 461.9024,-190.5 309.9024,-190.5"/>
<text text-anchor="start" x="317.9024" y="-208.5" font-family="Helvetica,sans-Serif" font-size="10.00" fill="#000000">BipedalLocomotion/Parameters</text>
<text text-anchor="middle" x="385.9024" y="-197.5" font-family="Helvetica,sans-Serif" font-size="10.00" fill="#000000">Handler/IParametersHandler.h</text>
</a>
</g>
</g>
<!-- Node2&#45;&gt;Node15 -->
<g id="edge17" class="edge">
<title>Node2&#45;&gt;Node15</title>
<path fill="none" stroke="#191970" d="M385.9024,-257.2967C385.9024,-249.5013 385.9024,-239.7991 385.9024,-230.9064"/>
<polygon fill="#191970" stroke="#191970" points="389.4025,-230.6431 385.9024,-220.6432 382.4025,-230.6432 389.4025,-230.6431"/>
</g>
<!-- Node6&#45;&gt;Node1 -->
<g id="edge7" class="edge">
<title>Node6&#45;&gt;Node1</title>
<path fill="none" stroke="#191970" d="M448.6632,-56.691C390.1907,-44.7041 309.9279,-28.2502 261.9516,-18.4151"/>
<polygon fill="#191970" stroke="#191970" points="262.4328,-14.941 251.9337,-16.3614 261.027,-21.7984 262.4328,-14.941"/>
</g>
<!-- Node7 -->
<g id="node8" class="node">
<title>Node7</title>
<polygon fill="none" stroke="#bfbfbf" points="445.9024,-.5 445.9024,-19.5 511.9024,-19.5 511.9024,-.5 445.9024,-.5"/>
<text text-anchor="middle" x="478.9024" y="-7.5" font-family="Helvetica,sans-Serif" font-size="10.00" fill="#000000">string_view</text>
</g>
<!-- Node6&#45;&gt;Node7 -->
<g id="edge8" class="edge">
<title>Node6&#45;&gt;Node7</title>
<path fill="none" stroke="#191970" d="M510.5204,-56.2977C504.7511,-47.8498 497.5309,-37.2773 491.4472,-28.369"/>
<polygon fill="#191970" stroke="#191970" points="494.1571,-26.1311 485.6272,-19.8469 488.3765,-30.0788 494.1571,-26.1311"/>
</g>
<!-- Node8 -->
<g id="node9" class="node">
<title>Node8</title>
<polygon fill="none" stroke="#bfbfbf" points="530.4024,-.5 530.4024,-19.5 595.4024,-19.5 595.4024,-.5 530.4024,-.5"/>
<text text-anchor="middle" x="562.9024" y="-7.5" font-family="Helvetica,sans-Serif" font-size="10.00" fill="#000000">Eigen/Core</text>
</g>
<!-- Node6&#45;&gt;Node8 -->
<g id="edge9" class="edge">
<title>Node6&#45;&gt;Node8</title>
<path fill="none" stroke="#191970" d="M531.2845,-56.2977C537.0538,-47.8498 544.274,-37.2773 550.3577,-28.369"/>
<polygon fill="#191970" stroke="#191970" points="553.4284,-30.0788 556.1777,-19.8469 547.6477,-26.1311 553.4284,-30.0788"/>
</g>
<!-- Node9&#45;&gt;Node6 -->
<g id="edge12" class="edge">
<title>Node9&#45;&gt;Node6</title>
<path fill="none" stroke="#191970" d="M336.3143,-123.4639C372.1698,-113.3701 419.5784,-100.024 457.3714,-89.3848"/>
<polygon fill="#191970" stroke="#191970" points="458.5802,-92.6806 467.2576,-86.6017 456.6833,-85.9425 458.5802,-92.6806"/>
</g>
<!-- Node10 -->
<g id="node11" class="node">
<title>Node10</title>
<polygon fill="none" stroke="#bfbfbf" points="29.9024,-62 29.9024,-81 143.9024,-81 143.9024,-62 29.9024,-62"/>
<text text-anchor="middle" x="86.9024" y="-69" font-family="Helvetica,sans-Serif" font-size="10.00" fill="#000000">iDynTree/Core/Span.h</text>
</g>
<!-- Node9&#45;&gt;Node10 -->
<g id="edge11" class="edge">
<title>Node9&#45;&gt;Node10</title>
<path fill="none" stroke="#191970" d="M238.9162,-123.4639C204.4463,-111.6808 157.011,-95.4657 124.3426,-84.2984"/>
<polygon fill="#191970" stroke="#191970" points="125.3035,-80.9281 114.709,-81.0053 123.0392,-87.5518 125.3035,-80.9281"/>
</g>
<!-- Node11 -->
<g id="node12" class="node">
<title>Node11</title>
<polygon fill="none" stroke="#bfbfbf" points="162.4024,-62 162.4024,-81 221.4024,-81 221.4024,-62 162.4024,-62"/>
<text text-anchor="middle" x="191.9024" y="-69" font-family="Helvetica,sans-Serif" font-size="10.00" fill="#000000">functional</text>
</g>
<!-- Node9&#45;&gt;Node11 -->
<g id="edge13" class="edge">
<title>Node9&#45;&gt;Node11</title>
<path fill="none" stroke="#191970" d="M262.2531,-123.2967C247.5243,-112.4524 227.7838,-97.9182 212.9629,-87.006"/>
<polygon fill="#191970" stroke="#191970" points="215.008,-84.1655 204.8801,-81.055 210.8577,-89.8025 215.008,-84.1655"/>
</g>
<!-- Node12 -->
<g id="node13" class="node">
<title>Node12</title>
<polygon fill="none" stroke="#bfbfbf" points="239.4024,-62 239.4024,-81 288.4024,-81 288.4024,-62 239.4024,-62"/>
<text text-anchor="middle" x="263.9024" y="-69" font-family="Helvetica,sans-Serif" font-size="10.00" fill="#000000">cassert</text>
</g>
<!-- Node9&#45;&gt;Node12 -->
<g id="edge14" class="edge">
<title>Node9&#45;&gt;Node12</title>
<path fill="none" stroke="#191970" d="M278.5911,-123.2967C275.8607,-113.6685 272.3055,-101.1318 269.3766,-90.8038"/>
<polygon fill="#191970" stroke="#191970" points="272.7076,-89.7207 266.6121,-81.055 265.9732,-91.6305 272.7076,-89.7207"/>
</g>
<!-- Node13 -->
<g id="node14" class="node">
<title>Node13</title>
<polygon fill="none" stroke="#bfbfbf" points="306.9024,-62 306.9024,-81 360.9024,-81 360.9024,-62 306.9024,-62"/>
<text text-anchor="middle" x="333.9024" y="-69" font-family="Helvetica,sans-Serif" font-size="10.00" fill="#000000">iostream</text>
</g>
<!-- Node9&#45;&gt;Node13 -->
<g id="edge15" class="edge">
<title>Node9&#45;&gt;Node13</title>
<path fill="none" stroke="#191970" d="M294.4751,-123.2967C302.1897,-113.1618 312.3576,-99.804 320.4353,-89.1921"/>
<polygon fill="#191970" stroke="#191970" points="323.3573,-91.1319 326.6293,-81.055 317.7874,-86.8921 323.3573,-91.1319"/>
</g>
<!-- Node14 -->
<g id="node15" class="node">
<title>Node14</title>
<polygon fill="none" stroke="#bfbfbf" points="378.9024,-62 378.9024,-81 430.9024,-81 430.9024,-62 378.9024,-62"/>
<text text-anchor="middle" x="404.9024" y="-69" font-family="Helvetica,sans-Serif" font-size="10.00" fill="#000000">memory</text>
</g>
<!-- Node9&#45;&gt;Node14 -->
<g id="edge16" class="edge">
<title>Node9&#45;&gt;Node14</title>
<path fill="none" stroke="#191970" d="M310.2816,-123.4639C330.6595,-112.2728 358.317,-97.0838 378.4656,-86.0186"/>
<polygon fill="#191970" stroke="#191970" points="380.3343,-88.9855 387.4147,-81.1039 376.9647,-82.8498 380.3343,-88.9855"/>
</g>
<!-- Node15&#45;&gt;Node4 -->
<g id="edge19" class="edge">
<title>Node15&#45;&gt;Node4</title>
<path fill="none" stroke="#191970" d="M427.1956,-190.4639C461.2753,-178.0545 508.8549,-160.7293 539.5238,-149.5618"/>
<polygon fill="#191970" stroke="#191970" points="541.0334,-152.737 549.2323,-146.0266 538.6383,-146.1595 541.0334,-152.737"/>
</g>
<!-- Node15&#45;&gt;Node6 -->
<g id="edge22" class="edge">
<title>Node15&#45;&gt;Node6</title>
<path fill="none" stroke="#191970" d="M416.1789,-190.3389C432.4167,-181.2529 452.0761,-168.6314 466.9024,-154 484.2765,-136.8544 499.0495,-113.213 508.7286,-95.6318"/>
<polygon fill="#191970" stroke="#191970" points="511.9454,-97.0379 513.566,-86.5677 505.7699,-93.742 511.9454,-97.0379"/>
</g>
<!-- Node15&#45;&gt;Node9 -->
<g id="edge21" class="edge">
<title>Node15&#45;&gt;Node9</title>
<path fill="none" stroke="#191970" d="M362.7872,-190.4639C348.7062,-181.3044 330.508,-169.4667 315.0382,-159.4038"/>
<polygon fill="#191970" stroke="#191970" points="316.5879,-156.2366 306.2969,-153.7177 312.771,-162.1044 316.5879,-156.2366"/>
</g>
<!-- Node15&#45;&gt;Node14 -->
<g id="edge18" class="edge">
<title>Node15&#45;&gt;Node14</title>
<path fill="none" stroke="#191970" d="M388.0451,-190.389C391.4928,-166.0735 398.2717,-118.2644 402.0993,-91.2698"/>
<polygon fill="#191970" stroke="#191970" points="405.602,-91.4965 403.5407,-81.1042 398.6714,-90.5137 405.602,-91.4965"/>
</g>
<!-- Node16 -->
<g id="node17" class="node">
<title>Node16</title>
<polygon fill="none" stroke="#bfbfbf" points="413.9024,-129 413.9024,-148 457.9024,-148 457.9024,-129 413.9024,-129"/>
<text text-anchor="middle" x="435.9024" y="-136" font-family="Helvetica,sans-Serif" font-size="10.00" fill="#000000">vector</text>
</g>
<!-- Node15&#45;&gt;Node16 -->
<g id="edge20" class="edge">
<title>Node15&#45;&gt;Node16</title>
<path fill="none" stroke="#191970" d="M397.2482,-190.2967C404.8115,-180.1618 414.78,-166.804 422.6994,-156.1921"/>
<polygon fill="#191970" stroke="#191970" points="425.596,-158.1626 428.7719,-148.055 419.986,-153.976 425.596,-158.1626"/>
</g>
</g>
</svg>
        <g id="navigator" transform="translate(0 0)" fill="#404254">
                <rect fill="#f2f5e9" fill-opacity="0.5" stroke="#606060" stroke-width=".5" x="0" y="0" width="60" height="60"/>
                <use id="zoomplus" xlink:href="#zoomPlus" x="17" y="9" onmousedown="handleZoom(evt,'in')"/>
                <use id="zoomminus" xlink:href="#zoomMin" x="42" y="9" onmousedown="handleZoom(evt,'out')"/>
                <use id="reset" xlink:href="#resetDef" x="30" y="36" onmousedown="handleReset()"/>
                <g id="arrowUp" xlink:href="#dirArrow" transform="translate(30 24)" onmousedown="handlePan(0,-1)">
                  <use xlink:href="#rim" fill="#404040">
                        <set attributeName="fill" to="#808080" begin="arrowUp.mouseover" end="arrowUp.mouseout"/>
                  </use>
                  <path fill="none" stroke="white" stroke-width="1.5" d="M0,-3.0v7 M-2.5,-0.5L0,-3.0L2.5,-0.5"/>
                </g>
                <g id="arrowRight" xlink:href="#dirArrow" transform="rotate(90) translate(36 -43)" onmousedown="handlePan(1,0)">
                  <use xlink:href="#rim" fill="#404040">
                        <set attributeName="fill" to="#808080" begin="arrowRight.mouseover" end="arrowRight.mouseout"/>
                  </use>
                  <path fill="none" stroke="white" stroke-width="1.5" d="M0,-3.0v7 M-2.5,-0.5L0,-3.0L2.5,-0.5"/>
                </g>
                <g id="arrowDown" xlink:href="#dirArrow" transform="rotate(180) translate(-30 -48)" onmousedown="handlePan(0,1)">
                  <use xlink:href="#rim" fill="#404040">
                        <set attributeName="fill" to="#808080" begin="arrowDown.mouseover" end="arrowDown.mouseout"/>
                  </use>
                  <path fill="none" stroke="white" stroke-width="1.5" d="M0,-3.0v7 M-2.5,-0.5L0,-3.0L2.5,-0.5"/>
                </g>
                <g id="arrowLeft" xlink:href="#dirArrow" transform="rotate(270) translate(-36 17)" onmousedown="handlePan(-1,0)">
                  <use xlink:href="#rim" fill="#404040">
                        <set attributeName="fill" to="#808080" begin="arrowLeft.mouseover" end="arrowLeft.mouseout"/>
                  </use>
                  <path fill="none" stroke="white" stroke-width="1.5" d="M0,-3.0v7 M-2.5,-0.5L0,-3.0L2.5,-0.5"/>
                </g>
        </g>
        <svg viewBox="0 0 15 15" width="100%" height="30px" preserveAspectRatio="xMaxYMin meet">
         <g id="arrow_out" transform="scale(0.3 0.3)">
          <a xlink:href="StdImplementation_8tpp__incl_org.svg" target="_base">
           <rect id="button" ry="5" rx="5" y="6" x="6" height="38" width="38"
                fill="#f2f5e9" fill-opacity="0.5" stroke="#606060" stroke-width="1.0"/>
           <path id="arrow"
             d="M 11.500037,31.436501 C 11.940474,20.09759 22.043105,11.32322 32.158766,21.979434 L 37.068811,17.246167 C 37.068811,17.246167 37.088388,32 37.088388,32 L 22.160133,31.978069 C 22.160133,31.978069 26.997745,27.140456 26.997745,27.140456 C 18.528582,18.264221 13.291696,25.230495 11.500037,31.436501 z"
             style="fill:#404040;"/>
          </a>
         </g>
        </svg>
</svg>
