<?xml version="1.0" encoding="UTF-8" standalone="no"?>
<!DOCTYPE svg PUBLIC "-//W3C//DTD SVG 1.1//EN"
 "http://www.w3.org/Graphics/SVG/1.1/DTD/svg11.dtd">
<!-- Generated by graphviz version 2.40.1 (20161225.0304)
 -->
<!-- Title: ParametersHandler/src/StdImplementation.cpp Pages: 1 -->
<!--zoomable 363 -->
<svg id="main" version="1.1" xmlns="http://www.w3.org/2000/svg" xmlns:xlink="http://www.w3.org/1999/xlink" xml:space="preserve" onload="init(evt)">
<style type="text/css"><![CDATA[
.edge:hover path { stroke: red; }
.edge:hover polygon { stroke: red; fill: red; }
]]></style>
<script type="text/javascript"><![CDATA[
var edges = document.getElementsByTagName('g');
if (edges && edges.length) {
  for (var i=0;i<edges.length;i++) {
    if (edges[i].id.substr(0,4)=='edge') {
      edges[i].setAttribute('class','edge');
    }
  }
}
]]></script>
        <defs>
                <circle id="rim" cx="0" cy="0" r="7"/>
                <circle id="rim2" cx="0" cy="0" r="3.5"/>
                <g id="zoomPlus">
                        <use xlink:href="#rim" fill="#404040">
                                <set attributeName="fill" to="#808080" begin="zoomplus.mouseover" end="zoomplus.mouseout"/>
                        </use>
                        <path d="M-4,0h8M0,-4v8" fill="none" stroke="white" stroke-width="1.5" pointer-events="none"/>
                </g>
                <g id="zoomMin">
                        <use xlink:href="#rim" fill="#404040">
                                <set attributeName="fill" to="#808080" begin="zoomminus.mouseover" end="zoomminus.mouseout"/>
                        </use>
                        <path d="M-4,0h8" fill="none" stroke="white" stroke-width="1.5" pointer-events="none"/>
                </g>
                <g id="dirArrow">
                        <path fill="none" stroke="white" stroke-width="1.5" d="M0,-3.0v7 M-2.5,-0.5L0,-3.0L2.5,-0.5"/>
                </g>
               <g id="resetDef">
                       <use xlink:href="#rim2" fill="#404040">
                               <set attributeName="fill" to="#808080" begin="reset.mouseover" end="reset.mouseout"/>
                       </use>
               </g>
        </defs>

<script type="text/javascript">
var viewWidth = 702;
var viewHeight = 363;
var sectionId = 'dynsection-0';
</script>
<script xlink:href="svgpan.js"/>
<svg id="graph" class="graph">
<g id="viewport">
<title>ParametersHandler/src/StdImplementation.cpp</title>
<!-- Node0 -->
<g id="node1" class="node">
<title>Node0</title>
<polygon fill="#bfbfbf" stroke="#000000" points="192,-324.5 192,-354.5 312,-354.5 312,-324.5 192,-324.5"/>
<text text-anchor="start" x="200" y="-342.5" font-family="Helvetica,sans-Serif" font-size="10.00" fill="#000000">ParametersHandler/src</text>
<text text-anchor="middle" x="252" y="-331.5" font-family="Helvetica,sans-Serif" font-size="10.00" fill="#000000">/StdImplementation.cpp</text>
</g>
<!-- Node1 -->
<g id="node2" class="node">
<title>Node1</title>
<polygon fill="none" stroke="#bfbfbf" points="96.5,-129 96.5,-148 137.5,-148 137.5,-129 96.5,-129"/>
<text text-anchor="middle" x="117" y="-136" font-family="Helvetica,sans-Serif" font-size="10.00" fill="#000000">string</text>
</g>
<!-- Node0&#45;&gt;Node1 -->
<g id="edge1" class="edge">
<title>Node0&#45;&gt;Node1</title>
<path fill="none" stroke="#191970" d="M216.8959,-324.3848C179.3431,-306.059 121.8391,-271.2565 97,-221 86.8468,-200.4572 96.4046,-174.435 105.4755,-157.1673"/>
<polygon fill="#191970" stroke="#191970" points="108.7181,-158.5446 110.6073,-148.1196 102.6293,-155.0911 108.7181,-158.5446"/>
</g>
<!-- Node2 -->
<g id="node3" class="node">
<title>Node2</title>
<g id="a_node3"><a xlink:href="StdImplementation_8h.html" target="_top" xlink:title="BipedalLocomotion/Parameters\lHandler/StdImplementation.h">
<polygon fill="none" stroke="#000000" points="350,-257.5 350,-287.5 502,-287.5 502,-257.5 350,-257.5"/>
<text text-anchor="start" x="358" y="-275.5" font-family="Helvetica,sans-Serif" font-size="10.00" fill="#000000">BipedalLocomotion/Parameters</text>
<text text-anchor="middle" x="426" y="-264.5" font-family="Helvetica,sans-Serif" font-size="10.00" fill="#000000">Handler/StdImplementation.h</text>
</a>
</g>
</g>
<!-- Node0&#45;&gt;Node2 -->
<g id="edge2" class="edge">
<title>Node0&#45;&gt;Node2</title>
<path fill="none" stroke="#191970" d="M291.049,-324.4639C316.5934,-314.6278 350.1584,-301.7034 377.4231,-291.2049"/>
<polygon fill="#191970" stroke="#191970" points="378.7063,-294.4614 386.7807,-287.6017 376.1909,-287.9289 378.7063,-294.4614"/>
</g>
<!-- Node2&#45;&gt;Node1 -->
<g id="edge4" class="edge">
<title>Node2&#45;&gt;Node1</title>
<path fill="none" stroke="#191970" d="M349.8263,-259.1323C314.299,-251.07 272.1937,-238.8249 237,-221 217.247,-210.9955 216.0342,-202.8467 198,-190 179.7332,-176.9876 158.2856,-163.4231 142.0504,-153.4835"/>
<polygon fill="#191970" stroke="#191970" points="143.5211,-150.2818 133.1572,-148.0817 139.8871,-156.2646 143.5211,-150.2818"/>
</g>
<!-- Node3 -->
<g id="node4" class="node">
<title>Node3</title>
<polygon fill="none" stroke="#bfbfbf" points="662,-196 662,-215 694,-215 694,-196 662,-196"/>
<text text-anchor="middle" x="678" y="-203" font-family="Helvetica,sans-Serif" font-size="10.00" fill="#000000">any</text>
</g>
<!-- Node2&#45;&gt;Node3 -->
<g id="edge3" class="edge">
<title>Node2&#45;&gt;Node3</title>
<path fill="none" stroke="#191970" d="M502.0348,-261.7433C547.0578,-253.7959 604.5782,-240.85 653,-221 653.8476,-220.6525 654.6991,-220.2777 655.5499,-219.881"/>
<polygon fill="#191970" stroke="#191970" points="657.3155,-222.9048 664.4218,-215.0465 653.9661,-216.7581 657.3155,-222.9048"/>
</g>
<!-- Node4 -->
<g id="node5" class="node">
<title>Node4</title>
<polygon fill="none" stroke="#bfbfbf" points="106.5,-196 106.5,-215 189.5,-215 189.5,-196 106.5,-196"/>
<text text-anchor="middle" x="148" y="-203" font-family="Helvetica,sans-Serif" font-size="10.00" fill="#000000">unordered_map</text>
</g>
<!-- Node2&#45;&gt;Node4 -->
<g id="edge5" class="edge">
<title>Node2&#45;&gt;Node4</title>
<path fill="none" stroke="#191970" d="M357.8076,-257.4607C313.7989,-247.5626 255.3824,-234.0647 204,-221 199.9305,-219.9653 195.7038,-218.8572 191.4787,-217.7271"/>
<polygon fill="#191970" stroke="#191970" points="192.2651,-214.314 181.6976,-215.0741 190.4326,-221.0699 192.2651,-214.314"/>
</g>
<!-- Node5 -->
<g id="node6" class="node">
<title>Node5</title>
<g id="a_node6"><a xlink:href="TemplateHelpers_8h_source.html" target="_top" xlink:title="BipedalLocomotion/Generic\lContainer/TemplateHelpers.h">
<polygon fill="none" stroke="#000000" points="419,-56.5 419,-86.5 563,-86.5 563,-56.5 419,-56.5"/>
<text text-anchor="start" x="427" y="-74.5" font-family="Helvetica,sans-Serif" font-size="10.00" fill="#000000">BipedalLocomotion/Generic</text>
<text text-anchor="middle" x="491" y="-63.5" font-family="Helvetica,sans-Serif" font-size="10.00" fill="#000000">Container/TemplateHelpers.h</text>
</a>
</g>
</g>
<!-- Node2&#45;&gt;Node5 -->
<g id="edge6" class="edge">
<title>Node2&#45;&gt;Node5</title>
<path fill="none" stroke="#191970" d="M430.8856,-257.3923C442.0176,-222.9685 469.3549,-138.4334 482.9926,-96.2615"/>
<polygon fill="#191970" stroke="#191970" points="486.3996,-97.1006 486.1464,-86.5088 479.7392,-94.9467 486.3996,-97.1006"/>
</g>
<!-- Node9 -->
<g id="node10" class="node">
<title>Node9</title>
<g id="a_node10"><a xlink:href="Vector_8h_source.html" target="_top" xlink:title="BipedalLocomotion/Generic\lContainer/Vector.h">
<polygon fill="none" stroke="#000000" points="256,-123.5 256,-153.5 392,-153.5 392,-123.5 256,-123.5"/>
<text text-anchor="start" x="264" y="-141.5" font-family="Helvetica,sans-Serif" font-size="10.00" fill="#000000">BipedalLocomotion/Generic</text>
<text text-anchor="middle" x="324" y="-130.5" font-family="Helvetica,sans-Serif" font-size="10.00" fill="#000000">Container/Vector.h</text>
</a>
</g>
</g>
<!-- Node2&#45;&gt;Node9 -->
<g id="edge10" class="edge">
<title>Node2&#45;&gt;Node9</title>
<path fill="none" stroke="#191970" d="M425.9153,-257.3915C425.1024,-239.6859 421.4508,-210.2032 407,-190 397.6121,-176.8751 383.7356,-166.3919 370.0045,-158.3999"/>
<polygon fill="#191970" stroke="#191970" points="371.5041,-155.2309 361.0508,-153.5051 368.1463,-161.373 371.5041,-155.2309"/>
</g>
<!-- Node15 -->
<g id="node16" class="node">
<title>Node15</title>
<g id="a_node16"><a xlink:href="IParametersHandler_8h.html" target="_top" xlink:title="BipedalLocomotion/Parameters\lHandler/IParametersHandler.h">
<polygon fill="none" stroke="#000000" points="246,-190.5 246,-220.5 398,-220.5 398,-190.5 246,-190.5"/>
<text text-anchor="start" x="254" y="-208.5" font-family="Helvetica,sans-Serif" font-size="10.00" fill="#000000">BipedalLocomotion/Parameters</text>
<text text-anchor="middle" x="322" y="-197.5" font-family="Helvetica,sans-Serif" font-size="10.00" fill="#000000">Handler/IParametersHandler.h</text>
</a>
</g>
</g>
<!-- Node2&#45;&gt;Node15 -->
<g id="edge17" class="edge">
<title>Node2&#45;&gt;Node15</title>
<path fill="none" stroke="#191970" d="M402.6604,-257.4639C388.4426,-248.3044 370.0677,-236.4667 354.4478,-226.4038"/>
<polygon fill="#191970" stroke="#191970" points="355.9236,-223.1912 345.6216,-220.7177 352.1326,-229.0758 355.9236,-223.1912"/>
</g>
<!-- Node17 -->
<g id="node18" class="node">
<title>Node17</title>
<g id="a_node18"><a xlink:href="StdImplementation_8tpp.html" target="_top" xlink:title="BipedalLocomotion/Parameters\lHandler/StdImplementation.tpp">
<polygon fill="none" stroke="#000000" points="492,-190.5 492,-220.5 644,-220.5 644,-190.5 492,-190.5"/>
<text text-anchor="start" x="500" y="-208.5" font-family="Helvetica,sans-Serif" font-size="10.00" fill="#000000">BipedalLocomotion/Parameters</text>
<text text-anchor="middle" x="568" y="-197.5" font-family="Helvetica,sans-Serif" font-size="10.00" fill="#000000">Handler/StdImplementation.tpp</text>
</a>
</g>
</g>
<!-- Node2&#45;&gt;Node17 -->
<g id="edge23" class="edge">
<title>Node2&#45;&gt;Node17</title>
<path fill="none" stroke="#191970" d="M452.127,-257.4639C471.4289,-247.7996 498.0851,-235.154 521.0105,-224.7572"/>
<polygon fill="#191970" stroke="#191970" points="522.562,-227.8972 530.2449,-220.6017 519.6894,-221.5137 522.562,-227.8972"/>
</g>
<!-- Node6 -->
<g id="node7" class="node">
<title>Node6</title>
<polygon fill="none" stroke="#bfbfbf" points="555,-.5 555,-19.5 617,-19.5 617,-.5 555,-.5"/>
<text text-anchor="middle" x="586" y="-7.5" font-family="Helvetica,sans-Serif" font-size="10.00" fill="#000000">type_traits</text>
</g>
<!-- Node5&#45;&gt;Node6 -->
<g id="edge7" class="edge">
<title>Node5&#45;&gt;Node6</title>
<path fill="none" stroke="#191970" d="M514.4832,-56.2977C529.1348,-46.8127 547.9236,-34.6495 562.5659,-25.1705"/>
<polygon fill="#191970" stroke="#191970" points="564.5805,-28.0357 571.073,-19.6633 560.7764,-22.1596 564.5805,-28.0357"/>
</g>
<!-- Node7 -->
<g id="node8" class="node">
<title>Node7</title>
<polygon fill="none" stroke="#bfbfbf" points="378,-.5 378,-19.5 444,-19.5 444,-.5 378,-.5"/>
<text text-anchor="middle" x="411" y="-7.5" font-family="Helvetica,sans-Serif" font-size="10.00" fill="#000000">string_view</text>
</g>
<!-- Node5&#45;&gt;Node7 -->
<g id="edge8" class="edge">
<title>Node5&#45;&gt;Node7</title>
<path fill="none" stroke="#191970" d="M471.2247,-56.2977C459.3102,-47.1384 444.1468,-35.4816 432.0162,-26.1562"/>
<polygon fill="#191970" stroke="#191970" points="433.8703,-23.1668 423.809,-19.8469 429.604,-28.7165 433.8703,-23.1668"/>
</g>
<!-- Node8 -->
<g id="node9" class="node">
<title>Node8</title>
<polygon fill="none" stroke="#bfbfbf" points="462.5,-.5 462.5,-19.5 527.5,-19.5 527.5,-.5 462.5,-.5"/>
<text text-anchor="middle" x="495" y="-7.5" font-family="Helvetica,sans-Serif" font-size="10.00" fill="#000000">Eigen/Core</text>
</g>
<!-- Node5&#45;&gt;Node8 -->
<g id="edge9" class="edge">
<title>Node5&#45;&gt;Node8</title>
<path fill="none" stroke="#191970" d="M491.9888,-56.2977C492.5035,-48.3834 493.1396,-38.6043 493.6943,-30.0759"/>
<polygon fill="#191970" stroke="#191970" points="497.203,-30.053 494.3595,-19.8469 490.2178,-29.5986 497.203,-30.053"/>
</g>
<!-- Node9&#45;&gt;Node5 -->
<g id="edge12" class="edge">
<title>Node9&#45;&gt;Node5</title>
<path fill="none" stroke="#191970" d="M361.4781,-123.4639C385.8878,-113.6708 417.9283,-100.8162 444.0342,-90.3426"/>
<polygon fill="#191970" stroke="#191970" points="445.3808,-93.5736 453.3585,-86.6017 442.7743,-87.0769 445.3808,-93.5736"/>
</g>
<!-- Node10 -->
<g id="node11" class="node">
<title>Node10</title>
<polygon fill="none" stroke="#bfbfbf" points="70,-62 70,-81 184,-81 184,-62 70,-62"/>
<text text-anchor="middle" x="127" y="-69" font-family="Helvetica,sans-Serif" font-size="10.00" fill="#000000">iDynTree/Core/Span.h</text>
</g>
<!-- Node9&#45;&gt;Node10 -->
<g id="edge11" class="edge">
<title>Node9&#45;&gt;Node10</title>
<path fill="none" stroke="#191970" d="M279.7894,-123.4639C245.1435,-111.6808 197.4663,-95.4657 164.6312,-84.2984"/>
<polygon fill="#191970" stroke="#191970" points="165.5428,-80.9116 154.9484,-81.0053 163.2888,-87.5388 165.5428,-80.9116"/>
</g>
<!-- Node11 -->
<g id="node12" class="node">
<title>Node11</title>
<polygon fill="none" stroke="#bfbfbf" points="202.5,-62 202.5,-81 261.5,-81 261.5,-62 202.5,-62"/>
<text text-anchor="middle" x="232" y="-69" font-family="Helvetica,sans-Serif" font-size="10.00" fill="#000000">functional</text>
</g>
<!-- Node9&#45;&gt;Node11 -->
<g id="edge13" class="edge">
<title>Node9&#45;&gt;Node11</title>
<path fill="none" stroke="#191970" d="M303.1238,-123.2967C288.2331,-112.4524 268.2757,-97.9182 253.2919,-87.006"/>
<polygon fill="#191970" stroke="#191970" points="255.2643,-84.1127 245.1203,-81.055 251.1434,-89.7712 255.2643,-84.1127"/>
</g>
<!-- Node12 -->
<g id="node13" class="node">
<title>Node12</title>
<polygon fill="none" stroke="#bfbfbf" points="279.5,-62 279.5,-81 328.5,-81 328.5,-62 279.5,-62"/>
<text text-anchor="middle" x="304" y="-69" font-family="Helvetica,sans-Serif" font-size="10.00" fill="#000000">cassert</text>
</g>
<!-- Node9&#45;&gt;Node12 -->
<g id="edge14" class="edge">
<title>Node9&#45;&gt;Node12</title>
<path fill="none" stroke="#191970" d="M319.4617,-123.2967C316.5876,-113.6685 312.8453,-101.1318 309.7623,-90.8038"/>
<polygon fill="#191970" stroke="#191970" points="313.0664,-89.636 306.8522,-81.055 306.3589,-91.6383 313.0664,-89.636"/>
</g>
<!-- Node13 -->
<g id="node14" class="node">
<title>Node13</title>
<polygon fill="none" stroke="#bfbfbf" points="347,-62 347,-81 401,-81 401,-62 347,-62"/>
<text text-anchor="middle" x="374" y="-69" font-family="Helvetica,sans-Serif" font-size="10.00" fill="#000000">iostream</text>
</g>
<!-- Node9&#45;&gt;Node13 -->
<g id="edge15" class="edge">
<title>Node9&#45;&gt;Node13</title>
<path fill="none" stroke="#191970" d="M335.3458,-123.2967C342.9091,-113.1618 352.8776,-99.804 360.7969,-89.1921"/>
<polygon fill="#191970" stroke="#191970" points="363.6936,-91.1626 366.8694,-81.055 358.0835,-86.976 363.6936,-91.1626"/>
</g>
<!-- Node14 -->
<g id="node15" class="node">
<title>Node14</title>
<polygon fill="none" stroke="#bfbfbf" points="0,-62 0,-81 52,-81 52,-62 0,-62"/>
<text text-anchor="middle" x="26" y="-69" font-family="Helvetica,sans-Serif" font-size="10.00" fill="#000000">memory</text>
</g>
<!-- Node9&#45;&gt;Node14 -->
<g id="edge16" class="edge">
<title>Node9&#45;&gt;Node14</title>
<path fill="none" stroke="#191970" d="M255.7713,-125.5316C181.0003,-111.2605 70.3332,-89.9397 61,-87 59.0984,-86.4011 57.1619,-85.7296 55.2247,-85.0109"/>
<polygon fill="#191970" stroke="#191970" points="56.2741,-81.6596 45.692,-81.1403 53.6406,-88.1453 56.2741,-81.6596"/>
</g>
<!-- Node15&#45;&gt;Node1 -->
<g id="edge19" class="edge">
<title>Node15&#45;&gt;Node1</title>
<path fill="none" stroke="#191970" d="M260.2869,-190.4248C226.3254,-181.3649 183.741,-168.7409 147,-154 145.8064,-153.5211 144.5971,-153.0105 143.3835,-152.4771"/>
<polygon fill="#191970" stroke="#191970" points="144.7195,-149.2366 134.1868,-148.0905 141.7059,-155.5547 144.7195,-149.2366"/>
</g>
<!-- Node15&#45;&gt;Node5 -->
<g id="edge22" class="edge">
<title>Node15&#45;&gt;Node5</title>
<path fill="none" stroke="#191970" d="M347.6306,-190.2809C363.4549,-180.5256 383.9249,-167.2473 401,-154 425.2534,-135.1835 450.8682,-111.2544 468.5425,-94.0188"/>
<polygon fill="#191970" stroke="#191970" points="471.3964,-96.121 476.071,-86.6132 466.4875,-91.1307 471.3964,-96.121"/>
</g>
<!-- Node15&#45;&gt;Node9 -->
<g id="edge21" class="edge">
<title>Node15&#45;&gt;Node9</title>
<path fill="none" stroke="#191970" d="M322.4538,-190.2967C322.6865,-182.5013 322.9761,-172.7991 323.2416,-163.9064"/>
<polygon fill="#191970" stroke="#191970" points="326.7479,-163.7432 323.548,-153.6432 319.7511,-163.5343 326.7479,-163.7432"/>
</g>
<!-- Node15&#45;&gt;Node14 -->
<g id="edge18" class="edge">
<title>Node15&#45;&gt;Node14</title>
<path fill="none" stroke="#191970" d="M299.0102,-190.4292C283.9886,-180.4081 264.0649,-166.7856 247,-154 229.5568,-140.9311 228.5162,-132.7046 209,-123 148.3847,-92.8585 125.0922,-108.7924 61,-87 59.1596,-86.3742 57.2829,-85.6891 55.4022,-84.9664"/>
<polygon fill="#191970" stroke="#191970" points="56.6938,-81.7132 46.1145,-81.1398 54.0272,-88.1854 56.6938,-81.7132"/>
</g>
<!-- Node16 -->
<g id="node17" class="node">
<title>Node16</title>
<polygon fill="none" stroke="#bfbfbf" points="156,-129 156,-148 200,-148 200,-129 156,-129"/>
<text text-anchor="middle" x="178" y="-136" font-family="Helvetica,sans-Serif" font-size="10.00" fill="#000000">vector</text>
</g>
<!-- Node15&#45;&gt;Node16 -->
<g id="edge20" class="edge">
<title>Node15&#45;&gt;Node16</title>
<path fill="none" stroke="#191970" d="M289.6836,-190.4639C265.1957,-179.0702 231.8016,-163.5327 207.9216,-152.4219"/>
<polygon fill="#191970" stroke="#191970" points="209.1844,-149.1492 198.6413,-148.1039 206.2314,-155.4958 209.1844,-149.1492"/>
</g>
<!-- Node17&#45;&gt;Node2 -->
<g id="edge25" class="edge">
<title>Node17&#45;&gt;Node2</title>
<path fill="none" stroke="#191970" d="M541.51,-220.7177C522.1847,-230.385 495.6253,-242.9804 472.8008,-253.3283"/>
<polygon fill="#191970" stroke="#191970" points="471.2918,-250.1692 463.6081,-257.4639 474.1637,-256.553 471.2918,-250.1692"/>
</g>
<!-- Node17&#45;&gt;Node6 -->
<g id="edge24" class="edge">
<title>Node17&#45;&gt;Node6</title>
<path fill="none" stroke="#191970" d="M569.3825,-190.4841C572.5894,-155.654 580.5358,-69.3473 584.1534,-30.0563"/>
<polygon fill="#191970" stroke="#191970" points="587.6578,-30.1686 585.0894,-19.8898 580.6872,-29.5268 587.6578,-30.1686"/>
</g>
</g>
</svg>
        <g id="navigator" transform="translate(0 0)" fill="#404254">
                <rect fill="#f2f5e9" fill-opacity="0.5" stroke="#606060" stroke-width=".5" x="0" y="0" width="60" height="60"/>
                <use id="zoomplus" xlink:href="#zoomPlus" x="17" y="9" onmousedown="handleZoom(evt,'in')"/>
                <use id="zoomminus" xlink:href="#zoomMin" x="42" y="9" onmousedown="handleZoom(evt,'out')"/>
                <use id="reset" xlink:href="#resetDef" x="30" y="36" onmousedown="handleReset()"/>
                <g id="arrowUp" xlink:href="#dirArrow" transform="translate(30 24)" onmousedown="handlePan(0,-1)">
                  <use xlink:href="#rim" fill="#404040">
                        <set attributeName="fill" to="#808080" begin="arrowUp.mouseover" end="arrowUp.mouseout"/>
                  </use>
                  <path fill="none" stroke="white" stroke-width="1.5" d="M0,-3.0v7 M-2.5,-0.5L0,-3.0L2.5,-0.5"/>
                </g>
                <g id="arrowRight" xlink:href="#dirArrow" transform="rotate(90) translate(36 -43)" onmousedown="handlePan(1,0)">
                  <use xlink:href="#rim" fill="#404040">
                        <set attributeName="fill" to="#808080" begin="arrowRight.mouseover" end="arrowRight.mouseout"/>
                  </use>
                  <path fill="none" stroke="white" stroke-width="1.5" d="M0,-3.0v7 M-2.5,-0.5L0,-3.0L2.5,-0.5"/>
                </g>
                <g id="arrowDown" xlink:href="#dirArrow" transform="rotate(180) translate(-30 -48)" onmousedown="handlePan(0,1)">
                  <use xlink:href="#rim" fill="#404040">
                        <set attributeName="fill" to="#808080" begin="arrowDown.mouseover" end="arrowDown.mouseout"/>
                  </use>
                  <path fill="none" stroke="white" stroke-width="1.5" d="M0,-3.0v7 M-2.5,-0.5L0,-3.0L2.5,-0.5"/>
                </g>
                <g id="arrowLeft" xlink:href="#dirArrow" transform="rotate(270) translate(-36 17)" onmousedown="handlePan(-1,0)">
                  <use xlink:href="#rim" fill="#404040">
                        <set attributeName="fill" to="#808080" begin="arrowLeft.mouseover" end="arrowLeft.mouseout"/>
                  </use>
                  <path fill="none" stroke="white" stroke-width="1.5" d="M0,-3.0v7 M-2.5,-0.5L0,-3.0L2.5,-0.5"/>
                </g>
        </g>
        <svg viewBox="0 0 15 15" width="100%" height="30px" preserveAspectRatio="xMaxYMin meet">
         <g id="arrow_out" transform="scale(0.3 0.3)">
          <a xlink:href="StdImplementation_8cpp__incl_org.svg" target="_base">
           <rect id="button" ry="5" rx="5" y="6" x="6" height="38" width="38"
                fill="#f2f5e9" fill-opacity="0.5" stroke="#606060" stroke-width="1.0"/>
           <path id="arrow"
             d="M 11.500037,31.436501 C 11.940474,20.09759 22.043105,11.32322 32.158766,21.979434 L 37.068811,17.246167 C 37.068811,17.246167 37.088388,32 37.088388,32 L 22.160133,31.978069 C 22.160133,31.978069 26.997745,27.140456 26.997745,27.140456 C 18.528582,18.264221 13.291696,25.230495 11.500037,31.436501 z"
             style="fill:#404040;"/>
          </a>
         </g>
        </svg>
</svg>
