<?xml version="1.0" encoding="UTF-8" standalone="no"?>
<!DOCTYPE svg PUBLIC "-//W3C//DTD SVG 1.1//EN"
 "http://www.w3.org/Graphics/SVG/1.1/DTD/svg11.dtd">
<!-- Generated by graphviz version 2.40.1 (20161225.0304)
 -->
<!-- Title: ParametersHandler/include/BipedalLocomotion/ParametersHandler/StdImplementation.tpp Pages: 1 -->
<svg width="197pt" height="195pt"
 viewBox="0.00 0.00 197.00 195.00" xmlns="http://www.w3.org/2000/svg" xmlns:xlink="http://www.w3.org/1999/xlink">
<g id="graph0" class="graph" transform="scale(1 1) rotate(0) translate(4 191)">
<title>ParametersHandler/include/BipedalLocomotion/ParametersHandler/StdImplementation.tpp</title>
<!-- Node17 -->
<g id="node1" class="node">
<title>Node17</title>
<polygon fill="#bfbfbf" stroke="#000000" points="0,-145.5 0,-186.5 189,-186.5 189,-145.5 0,-145.5"/>
<text text-anchor="start" x="8" y="-174.5" font-family="Helvetica,sans-Serif" font-size="10.00" fill="#000000">ParametersHandler/include</text>
<text text-anchor="start" x="8" y="-163.5" font-family="Helvetica,sans-Serif" font-size="10.00" fill="#000000">/BipedalLocomotion/ParametersHandler</text>
<text text-anchor="middle" x="94.5" y="-152.5" font-family="Helvetica,sans-Serif" font-size="10.00" fill="#000000">/StdImplementation.tpp</text>
</g>
<!-- Node18 -->
<g id="node2" class="node">
<title>Node18</title>
<g id="a_node2"><a xlink:href="StdImplementation_8h.html" target="_top" xlink:title="ParametersHandler/include\l/BipedalLocomotion/ParametersHandler\l/StdImplementation.h">
<polygon fill="none" stroke="#000000" points="0,-67.5 0,-108.5 189,-108.5 189,-67.5 0,-67.5"/>
<text text-anchor="start" x="8" y="-96.5" font-family="Helvetica,sans-Serif" font-size="10.00" fill="#000000">ParametersHandler/include</text>
<text text-anchor="start" x="8" y="-85.5" font-family="Helvetica,sans-Serif" font-size="10.00" fill="#000000">/BipedalLocomotion/ParametersHandler</text>
<text text-anchor="middle" x="94.5" y="-74.5" font-family="Helvetica,sans-Serif" font-size="10.00" fill="#000000">/StdImplementation.h</text>
</a>
</g>
</g>
<!-- Node17&#45;&gt;Node18 -->
<g id="edge1" class="edge">
<title>Node17&#45;&gt;Node18</title>
<path fill="none" stroke="#191970" d="M87.8804,-135.0789C87.5906,-126.2178 87.7839,-116.7747 88.4602,-108.6898"/>
<polygon fill="#191970" stroke="#191970" points="84.3877,-135.3092 88.4426,-145.0974 91.3767,-134.917 84.3877,-135.3092"/>
</g>
<!-- Node18&#45;&gt;Node17 -->
<g id="edge2" class="edge">
<title>Node18&#45;&gt;Node17</title>
<path fill="none" stroke="#191970" d="M101.1119,-118.6884C101.4102,-127.5392 101.2253,-136.9888 100.5574,-145.0974"/>
<polygon fill="#191970" stroke="#191970" points="104.6054,-118.4735 100.5398,-108.6898 97.6168,-118.8734 104.6054,-118.4735"/>
</g>
<!-- Node19 -->
<g id="node3" class="node">
<title>Node19</title>
<g id="a_node3"><a xlink:href="StdImplementation_8cpp.html" target="_top" xlink:title="ParametersHandler/src\l/StdImplementation.cpp">
<polygon fill="none" stroke="#000000" points="34.5,-.5 34.5,-30.5 154.5,-30.5 154.5,-.5 34.5,-.5"/>
<text text-anchor="start" x="42.5" y="-18.5" font-family="Helvetica,sans-Serif" font-size="10.00" fill="#000000">ParametersHandler/src</text>
<text text-anchor="middle" x="94.5" y="-7.5" font-family="Helvetica,sans-Serif" font-size="10.00" fill="#000000">/StdImplementation.cpp</text>
</a>
</g>
</g>
<!-- Node18&#45;&gt;Node19 -->
<g id="edge3" class="edge">
<title>Node18&#45;&gt;Node19</title>
<path fill="none" stroke="#191970" d="M94.5,-57.3279C94.5,-48.0871 94.5,-38.3508 94.5,-30.5991"/>
<polygon fill="#191970" stroke="#191970" points="91.0001,-57.4183 94.5,-67.4183 98.0001,-57.4184 91.0001,-57.4183"/>
</g>
</g>
</svg>
