<?xml version="1.0" encoding="UTF-8" standalone="no"?>
<!DOCTYPE svg PUBLIC "-//W3C//DTD SVG 1.1//EN"
 "http://www.w3.org/Graphics/SVG/1.1/DTD/svg11.dtd">
<!-- Generated by graphviz version 2.40.1 (20161225.0304)
 -->
<!-- Title: Planners/include/BipedalLocomotion/Planners/SwingFootPlanner.h Pages: 1 -->
<svg width="1207pt" height="307pt"
 viewBox="0.00 0.00 1206.50 307.00" xmlns="http://www.w3.org/2000/svg" xmlns:xlink="http://www.w3.org/1999/xlink">
<g id="graph0" class="graph" transform="scale(1 1) rotate(0) translate(4 303)">
<title>Planners/include/BipedalLocomotion/Planners/SwingFootPlanner.h</title>
<!-- Node0 -->
<g id="node1" class="node">
<title>Node0</title>
<polygon fill="#bfbfbf" stroke="#000000" points="466,-257.5 466,-298.5 624,-298.5 624,-257.5 466,-257.5"/>
<text text-anchor="start" x="474" y="-286.5" font-family="Helvetica,sans-Serif" font-size="10.00" fill="#000000">Planners/include/Bipedal</text>
<text text-anchor="start" x="474" y="-275.5" font-family="Helvetica,sans-Serif" font-size="10.00" fill="#000000">Locomotion/Planners/SwingFoot</text>
<text text-anchor="middle" x="545" y="-264.5" font-family="Helvetica,sans-Serif" font-size="10.00" fill="#000000">Planner.h</text>
</g>
<!-- Node1 -->
<g id="node2" class="node">
<title>Node1</title>
<polygon fill="none" stroke="#bfbfbf" points="0,-62 0,-81 52,-81 52,-62 0,-62"/>
<text text-anchor="middle" x="26" y="-69" font-family="Helvetica,sans-Serif" font-size="10.00" fill="#000000">memory</text>
</g>
<!-- Node0&#45;&gt;Node1 -->
<g id="edge1" class="edge">
<title>Node0&#45;&gt;Node1</title>
<path fill="none" stroke="#191970" d="M465.6284,-270.338C373.6816,-260.6507 228.3699,-242.6035 178,-221 112.9821,-193.114 60.3212,-123.5323 37.8084,-90.0604"/>
<polygon fill="#191970" stroke="#191970" points="40.4555,-87.7151 32.0399,-81.2785 34.6048,-91.5583 40.4555,-87.7151"/>
</g>
<!-- Node2 -->
<g id="node3" class="node">
<title>Node2</title>
<polygon fill="none" stroke="#bfbfbf" points="358,-129 358,-148 434,-148 434,-129 358,-129"/>
<text text-anchor="middle" x="396" y="-136" font-family="Helvetica,sans-Serif" font-size="10.00" fill="#000000">manif/manif.h</text>
</g>
<!-- Node0&#45;&gt;Node2 -->
<g id="edge2" class="edge">
<title>Node0&#45;&gt;Node2</title>
<path fill="none" stroke="#191970" d="M512.027,-257.2956C496.9999,-247.1756 479.3942,-234.3203 465,-221 443.1767,-200.8049 421.8049,-173.8121 408.7671,-156.2926"/>
<polygon fill="#191970" stroke="#191970" points="411.4841,-154.0789 402.7506,-148.0808 405.8374,-158.216 411.4841,-154.0789"/>
</g>
<!-- Node3 -->
<g id="node4" class="node">
<title>Node3</title>
<g id="a_node4"><a xlink:href="IParametersHandler_8h.html" target="_top" xlink:title="BipedalLocomotion/Parameters\lHandler/IParametersHandler.h">
<polygon fill="none" stroke="#000000" points="187,-190.5 187,-220.5 339,-220.5 339,-190.5 187,-190.5"/>
<text text-anchor="start" x="195" y="-208.5" font-family="Helvetica,sans-Serif" font-size="10.00" fill="#000000">BipedalLocomotion/Parameters</text>
<text text-anchor="middle" x="263" y="-197.5" font-family="Helvetica,sans-Serif" font-size="10.00" fill="#000000">Handler/IParametersHandler.h</text>
</a>
</g>
</g>
<!-- Node0&#45;&gt;Node3 -->
<g id="edge3" class="edge">
<title>Node0&#45;&gt;Node3</title>
<path fill="none" stroke="#191970" d="M465.6968,-257.6118C423.4068,-246.7393 371.893,-233.4956 331.3805,-223.0801"/>
<polygon fill="#191970" stroke="#191970" points="332.1517,-219.6646 321.5951,-220.5643 330.4086,-226.4441 332.1517,-219.6646"/>
</g>
<!-- Node15 -->
<g id="node16" class="node">
<title>Node15</title>
<g id="a_node16"><a xlink:href="ContactList_8h.html" target="_top" xlink:title="BipedalLocomotion/Contacts\l/ContactList.h">
<polygon fill="none" stroke="#000000" points="474,-190.5 474,-220.5 616,-220.5 616,-190.5 474,-190.5"/>
<text text-anchor="start" x="482" y="-208.5" font-family="Helvetica,sans-Serif" font-size="10.00" fill="#000000">BipedalLocomotion/Contacts</text>
<text text-anchor="middle" x="545" y="-197.5" font-family="Helvetica,sans-Serif" font-size="10.00" fill="#000000">/ContactList.h</text>
</a>
</g>
</g>
<!-- Node0&#45;&gt;Node15 -->
<g id="edge18" class="edge">
<title>Node0&#45;&gt;Node15</title>
<path fill="none" stroke="#191970" d="M545,-257.4183C545,-249.0849 545,-239.3834 545,-230.6373"/>
<polygon fill="#191970" stroke="#191970" points="548.5001,-230.5991 545,-220.5991 541.5001,-230.5991 548.5001,-230.5991"/>
</g>
<!-- Node19 -->
<g id="node20" class="node">
<title>Node19</title>
<g id="a_node20"><a xlink:href="QuinticSpline_8h.html" target="_top" xlink:title="BipedalLocomotion/Planners\l/QuinticSpline.h">
<polygon fill="none" stroke="#000000" points="634,-190.5 634,-220.5 774,-220.5 774,-190.5 634,-190.5"/>
<text text-anchor="start" x="642" y="-208.5" font-family="Helvetica,sans-Serif" font-size="10.00" fill="#000000">BipedalLocomotion/Planners</text>
<text text-anchor="middle" x="704" y="-197.5" font-family="Helvetica,sans-Serif" font-size="10.00" fill="#000000">/QuinticSpline.h</text>
</a>
</g>
</g>
<!-- Node0&#45;&gt;Node19 -->
<g id="edge26" class="edge">
<title>Node0&#45;&gt;Node19</title>
<path fill="none" stroke="#191970" d="M590.1377,-257.4183C612.6315,-247.1617 639.6699,-234.8329 661.753,-224.7636"/>
<polygon fill="#191970" stroke="#191970" points="663.2394,-227.9325 670.8861,-220.5991 660.3352,-221.5634 663.2394,-227.9325"/>
</g>
<!-- Node21 -->
<g id="node22" class="node">
<title>Node21</title>
<g id="a_node22"><a xlink:href="Advanceable_8h.html" target="_top" xlink:title="BipedalLocomotion/System\l/Advanceable.h">
<polygon fill="none" stroke="#000000" points="890,-123.5 890,-153.5 1026,-153.5 1026,-123.5 890,-123.5"/>
<text text-anchor="start" x="898" y="-141.5" font-family="Helvetica,sans-Serif" font-size="10.00" fill="#000000">BipedalLocomotion/System</text>
<text text-anchor="middle" x="958" y="-130.5" font-family="Helvetica,sans-Serif" font-size="10.00" fill="#000000">/Advanceable.h</text>
</a>
</g>
</g>
<!-- Node0&#45;&gt;Node21 -->
<g id="edge38" class="edge">
<title>Node0&#45;&gt;Node21</title>
<path fill="none" stroke="#191970" d="M624.153,-263.3019C671.026,-253.5516 731.1878,-239.1997 783,-221 832.6001,-203.5773 886.9638,-176.621 921.7265,-158.3008"/>
<polygon fill="#191970" stroke="#191970" points="923.3693,-161.3913 930.5589,-153.6093 920.0856,-155.2093 923.3693,-161.3913"/>
</g>
<!-- Node22 -->
<g id="node23" class="node">
<title>Node22</title>
<g id="a_node23"><a xlink:href="SO3Planner_8h.html" target="_top" xlink:title="BipedalLocomotion/Planners\l/SO3Planner.h">
<polygon fill="none" stroke="#000000" points="1044,-190.5 1044,-220.5 1184,-220.5 1184,-190.5 1044,-190.5"/>
<text text-anchor="start" x="1052" y="-208.5" font-family="Helvetica,sans-Serif" font-size="10.00" fill="#000000">BipedalLocomotion/Planners</text>
<text text-anchor="middle" x="1114" y="-197.5" font-family="Helvetica,sans-Serif" font-size="10.00" fill="#000000">/SO3Planner.h</text>
</a>
</g>
</g>
<!-- Node0&#45;&gt;Node22 -->
<g id="edge31" class="edge">
<title>Node0&#45;&gt;Node22</title>
<path fill="none" stroke="#191970" d="M624.117,-267.9192C732.2002,-254.1476 924.9647,-229.5862 1033.6747,-215.7348"/>
<polygon fill="#191970" stroke="#191970" points="1034.1278,-219.2054 1043.6051,-214.4695 1033.2429,-212.2616 1034.1278,-219.2054"/>
</g>
<!-- Node3&#45;&gt;Node1 -->
<g id="edge4" class="edge">
<title>Node3&#45;&gt;Node1</title>
<path fill="none" stroke="#191970" d="M220.3096,-190.4108C196.11,-181.178 165.6383,-168.391 140,-154 104.642,-134.1533 67.2146,-105.3646 45.2625,-87.5702"/>
<polygon fill="#191970" stroke="#191970" points="47.3331,-84.742 37.3796,-81.1118 42.8968,-90.1568 47.3331,-84.742"/>
</g>
<!-- Node4 -->
<g id="node5" class="node">
<title>Node4</title>
<polygon fill="none" stroke="#bfbfbf" points="589.5,-62 589.5,-81 630.5,-81 630.5,-62 589.5,-62"/>
<text text-anchor="middle" x="610" y="-69" font-family="Helvetica,sans-Serif" font-size="10.00" fill="#000000">string</text>
</g>
<!-- Node3&#45;&gt;Node4 -->
<g id="edge5" class="edge">
<title>Node3&#45;&gt;Node4</title>
<path fill="none" stroke="#191970" d="M276.8266,-190.1894C296.5758,-168.6945 332.3143,-131.2658 349,-123 441.7142,-77.0711 480.4479,-118.5097 579,-87 580.6549,-86.4709 582.3309,-85.8639 584.0022,-85.2034"/>
<polygon fill="#191970" stroke="#191970" points="585.657,-88.2969 593.3424,-81.0041 582.7866,-81.9125 585.657,-88.2969"/>
</g>
<!-- Node5 -->
<g id="node6" class="node">
<title>Node5</title>
<polygon fill="none" stroke="#bfbfbf" points="452,-129 452,-148 496,-148 496,-129 452,-129"/>
<text text-anchor="middle" x="474" y="-136" font-family="Helvetica,sans-Serif" font-size="10.00" fill="#000000">vector</text>
</g>
<!-- Node3&#45;&gt;Node5 -->
<g id="edge6" class="edge">
<title>Node3&#45;&gt;Node5</title>
<path fill="none" stroke="#191970" d="M326.4193,-190.4212C361.3339,-181.3601 405.1367,-168.7362 443,-154 444.3668,-153.468 445.7544,-152.8969 447.1464,-152.2988"/>
<polygon fill="#191970" stroke="#191970" points="448.6229,-155.4721 456.2236,-148.0911 445.679,-149.1213 448.6229,-155.4721"/>
</g>
<!-- Node6 -->
<g id="node7" class="node">
<title>Node6</title>
<g id="a_node7"><a xlink:href="Vector_8h_source.html" target="_top" xlink:title="BipedalLocomotion/Generic\lContainer/Vector.h">
<polygon fill="none" stroke="#000000" points="166,-123.5 166,-153.5 302,-153.5 302,-123.5 166,-123.5"/>
<text text-anchor="start" x="174" y="-141.5" font-family="Helvetica,sans-Serif" font-size="10.00" fill="#000000">BipedalLocomotion/Generic</text>
<text text-anchor="middle" x="234" y="-130.5" font-family="Helvetica,sans-Serif" font-size="10.00" fill="#000000">Container/Vector.h</text>
</a>
</g>
</g>
<!-- Node3&#45;&gt;Node6 -->
<g id="edge7" class="edge">
<title>Node3&#45;&gt;Node6</title>
<path fill="none" stroke="#191970" d="M256.4195,-190.2967C252.9341,-182.2443 248.5681,-172.1574 244.6173,-163.0296"/>
<polygon fill="#191970" stroke="#191970" points="247.7388,-161.4301 240.5545,-153.6432 241.3148,-164.2107 247.7388,-161.4301"/>
</g>
<!-- Node8 -->
<g id="node9" class="node">
<title>Node8</title>
<g id="a_node9"><a xlink:href="TemplateHelpers_8h_source.html" target="_top" xlink:title="BipedalLocomotion/Generic\lContainer/TemplateHelpers.h">
<polygon fill="none" stroke="#000000" points="70,-56.5 70,-86.5 214,-86.5 214,-56.5 70,-56.5"/>
<text text-anchor="start" x="78" y="-74.5" font-family="Helvetica,sans-Serif" font-size="10.00" fill="#000000">BipedalLocomotion/Generic</text>
<text text-anchor="middle" x="142" y="-63.5" font-family="Helvetica,sans-Serif" font-size="10.00" fill="#000000">Container/TemplateHelpers.h</text>
</a>
</g>
</g>
<!-- Node3&#45;&gt;Node8 -->
<g id="edge17" class="edge">
<title>Node3&#45;&gt;Node8</title>
<path fill="none" stroke="#191970" d="M208.5976,-190.4048C189.5784,-182.5148 169.8018,-170.8681 157,-154 144.6101,-137.6746 141.311,-114.3552 140.8511,-96.6712"/>
<polygon fill="#191970" stroke="#191970" points="144.3514,-96.5101 140.8757,-86.5016 137.3514,-96.4931 144.3514,-96.5101"/>
</g>
<!-- Node6&#45;&gt;Node1 -->
<g id="edge16" class="edge">
<title>Node6&#45;&gt;Node1</title>
<path fill="none" stroke="#191970" d="M176.9134,-123.483C142.9013,-114.0482 99.0779,-101.0341 61,-87 59.371,-86.3996 57.7099,-85.7603 56.0403,-85.0963"/>
<polygon fill="#191970" stroke="#191970" points="57.1246,-81.7559 46.5487,-81.1223 54.4211,-88.2129 57.1246,-81.7559"/>
</g>
<!-- Node7 -->
<g id="node8" class="node">
<title>Node7</title>
<polygon fill="none" stroke="#bfbfbf" points="300,-62 300,-81 414,-81 414,-62 300,-62"/>
<text text-anchor="middle" x="357" y="-69" font-family="Helvetica,sans-Serif" font-size="10.00" fill="#000000">iDynTree/Core/Span.h</text>
</g>
<!-- Node6&#45;&gt;Node7 -->
<g id="edge8" class="edge">
<title>Node6&#45;&gt;Node7</title>
<path fill="none" stroke="#191970" d="M261.6036,-123.4639C282.1485,-112.2728 310.0327,-97.0838 330.3465,-86.0186"/>
<polygon fill="#191970" stroke="#191970" points="332.2615,-88.9611 339.3689,-81.1039 328.913,-82.8139 332.2615,-88.9611"/>
</g>
<!-- Node6&#45;&gt;Node8 -->
<g id="edge9" class="edge">
<title>Node6&#45;&gt;Node8</title>
<path fill="none" stroke="#191970" d="M213.1238,-123.2967C200.6552,-114.2163 184.6342,-102.5488 170.9553,-92.587"/>
<polygon fill="#191970" stroke="#191970" points="172.9376,-89.7009 162.7936,-86.6432 168.8167,-95.3594 172.9376,-89.7009"/>
</g>
<!-- Node12 -->
<g id="node13" class="node">
<title>Node12</title>
<polygon fill="none" stroke="#bfbfbf" points="436.5,-62 436.5,-81 495.5,-81 495.5,-62 436.5,-62"/>
<text text-anchor="middle" x="466" y="-69" font-family="Helvetica,sans-Serif" font-size="10.00" fill="#000000">functional</text>
</g>
<!-- Node6&#45;&gt;Node12 -->
<g id="edge13" class="edge">
<title>Node6&#45;&gt;Node12</title>
<path fill="none" stroke="#191970" d="M293.9422,-123.4752C331.2821,-113.793 380.1937,-100.5234 423,-87 425.6058,-86.1768 428.2887,-85.2945 430.9808,-84.3841"/>
<polygon fill="#191970" stroke="#191970" points="432.3553,-87.6116 440.6485,-81.0183 430.0537,-81.0008 432.3553,-87.6116"/>
</g>
<!-- Node13 -->
<g id="node14" class="node">
<title>Node13</title>
<polygon fill="none" stroke="#bfbfbf" points="232.5,-62 232.5,-81 281.5,-81 281.5,-62 232.5,-62"/>
<text text-anchor="middle" x="257" y="-69" font-family="Helvetica,sans-Serif" font-size="10.00" fill="#000000">cassert</text>
</g>
<!-- Node6&#45;&gt;Node13 -->
<g id="edge14" class="edge">
<title>Node6&#45;&gt;Node13</title>
<path fill="none" stroke="#191970" d="M239.2191,-123.2967C242.5242,-113.6685 246.8279,-101.1318 250.3733,-90.8038"/>
<polygon fill="#191970" stroke="#191970" points="253.7834,-91.6496 253.7199,-81.055 247.1626,-89.3768 253.7834,-91.6496"/>
</g>
<!-- Node14 -->
<g id="node15" class="node">
<title>Node14</title>
<polygon fill="none" stroke="#bfbfbf" points="516,-62 516,-81 570,-81 570,-62 516,-62"/>
<text text-anchor="middle" x="543" y="-69" font-family="Helvetica,sans-Serif" font-size="10.00" fill="#000000">iostream</text>
</g>
<!-- Node6&#45;&gt;Node14 -->
<g id="edge15" class="edge">
<title>Node6&#45;&gt;Node14</title>
<path fill="none" stroke="#191970" d="M302.0284,-125.6049C381.2043,-110.585 501.5445,-87.7151 504,-87 506.4484,-86.287 508.9563,-85.4792 511.4616,-84.6159"/>
<polygon fill="#191970" stroke="#191970" points="512.8166,-87.8465 520.9808,-81.0941 510.3876,-81.2814 512.8166,-87.8465"/>
</g>
<!-- Node9 -->
<g id="node10" class="node">
<title>Node9</title>
<polygon fill="none" stroke="#bfbfbf" points="29,-.5 29,-19.5 91,-19.5 91,-.5 29,-.5"/>
<text text-anchor="middle" x="60" y="-7.5" font-family="Helvetica,sans-Serif" font-size="10.00" fill="#000000">type_traits</text>
</g>
<!-- Node8&#45;&gt;Node9 -->
<g id="edge10" class="edge">
<title>Node8&#45;&gt;Node9</title>
<path fill="none" stroke="#191970" d="M121.7303,-56.2977C109.3994,-47.0495 93.6734,-35.2551 81.1803,-25.8853"/>
<polygon fill="#191970" stroke="#191970" points="83.2293,-23.047 73.1292,-19.8469 79.0292,-28.647 83.2293,-23.047"/>
</g>
<!-- Node10 -->
<g id="node11" class="node">
<title>Node10</title>
<polygon fill="none" stroke="#bfbfbf" points="109,-.5 109,-19.5 175,-19.5 175,-.5 109,-.5"/>
<text text-anchor="middle" x="142" y="-7.5" font-family="Helvetica,sans-Serif" font-size="10.00" fill="#000000">string_view</text>
</g>
<!-- Node8&#45;&gt;Node10 -->
<g id="edge11" class="edge">
<title>Node8&#45;&gt;Node10</title>
<path fill="none" stroke="#191970" d="M142,-56.2977C142,-48.3834 142,-38.6043 142,-30.0759"/>
<polygon fill="#191970" stroke="#191970" points="145.5001,-29.8469 142,-19.8469 138.5001,-29.847 145.5001,-29.8469"/>
</g>
<!-- Node11 -->
<g id="node12" class="node">
<title>Node11</title>
<polygon fill="none" stroke="#bfbfbf" points="193.5,-.5 193.5,-19.5 258.5,-19.5 258.5,-.5 193.5,-.5"/>
<text text-anchor="middle" x="226" y="-7.5" font-family="Helvetica,sans-Serif" font-size="10.00" fill="#000000">Eigen/Core</text>
</g>
<!-- Node8&#45;&gt;Node11 -->
<g id="edge12" class="edge">
<title>Node8&#45;&gt;Node11</title>
<path fill="none" stroke="#191970" d="M162.7641,-56.2977C175.3958,-47.0495 191.5053,-35.2551 204.3031,-25.8853"/>
<polygon fill="#191970" stroke="#191970" points="206.5495,-28.5784 212.5505,-19.8469 202.4143,-22.9303 206.5495,-28.5784"/>
</g>
<!-- Node15&#45;&gt;Node2 -->
<g id="edge22" class="edge">
<title>Node15&#45;&gt;Node2</title>
<path fill="none" stroke="#191970" d="M511.5615,-190.4639C486.1107,-179.0196 451.3623,-163.3945 426.6317,-152.274"/>
<polygon fill="#191970" stroke="#191970" points="427.9137,-149.013 417.358,-148.1039 425.0429,-155.3972 427.9137,-149.013"/>
</g>
<!-- Node15&#45;&gt;Node4 -->
<g id="edge24" class="edge">
<title>Node15&#45;&gt;Node4</title>
<path fill="none" stroke="#191970" d="M562.2539,-190.4117C572.0848,-180.9043 583.8351,-167.8401 591,-154 601.31,-134.0848 606.0796,-108.6027 608.2507,-91.2639"/>
<polygon fill="#191970" stroke="#191970" points="611.745,-91.5031 609.3342,-81.1862 604.7852,-90.7547 611.745,-91.5031"/>
</g>
<!-- Node15&#45;&gt;Node12 -->
<g id="edge25" class="edge">
<title>Node15&#45;&gt;Node12</title>
<path fill="none" stroke="#191970" d="M538.7639,-190.4331C531.5266,-173.5298 518.8066,-145.5293 505,-123 497.8212,-111.2858 488.5827,-98.9902 480.8993,-89.3518"/>
<polygon fill="#191970" stroke="#191970" points="483.4089,-86.8904 474.3842,-81.3402 477.978,-91.3069 483.4089,-86.8904"/>
</g>
<!-- Node16 -->
<g id="node17" class="node">
<title>Node16</title>
<g id="a_node17"><a xlink:href="Contact_8h.html" target="_top" xlink:title="BipedalLocomotion/Contacts\l/Contact.h">
<polygon fill="none" stroke="#000000" points="638,-123.5 638,-153.5 780,-153.5 780,-123.5 638,-123.5"/>
<text text-anchor="start" x="646" y="-141.5" font-family="Helvetica,sans-Serif" font-size="10.00" fill="#000000">BipedalLocomotion/Contacts</text>
<text text-anchor="middle" x="709" y="-130.5" font-family="Helvetica,sans-Serif" font-size="10.00" fill="#000000">/Contact.h</text>
</a>
</g>
</g>
<!-- Node15&#45;&gt;Node16 -->
<g id="edge19" class="edge">
<title>Node15&#45;&gt;Node16</title>
<path fill="none" stroke="#191970" d="M581.8048,-190.4639C605.6709,-180.7137 636.9651,-167.9289 662.5402,-157.4805"/>
<polygon fill="#191970" stroke="#191970" points="664.1011,-160.6237 672.0347,-153.6017 661.4537,-154.1436 664.1011,-160.6237"/>
</g>
<!-- Node18 -->
<g id="node19" class="node">
<title>Node18</title>
<polygon fill="none" stroke="#bfbfbf" points="552,-129 552,-148 582,-148 582,-129 552,-129"/>
<text text-anchor="middle" x="567" y="-136" font-family="Helvetica,sans-Serif" font-size="10.00" fill="#000000">set</text>
</g>
<!-- Node15&#45;&gt;Node18 -->
<g id="edge23" class="edge">
<title>Node15&#45;&gt;Node18</title>
<path fill="none" stroke="#191970" d="M549.9921,-190.2967C553.1536,-180.6685 557.2702,-168.1318 560.6615,-157.8038"/>
<polygon fill="#191970" stroke="#191970" points="564.0681,-158.6478 563.8625,-148.055 557.4175,-156.464 564.0681,-158.6478"/>
</g>
<!-- Node16&#45;&gt;Node4 -->
<g id="edge21" class="edge">
<title>Node16&#45;&gt;Node4</title>
<path fill="none" stroke="#191970" d="M686.5354,-123.2967C670.3619,-112.351 648.6339,-97.6462 632.4612,-86.701"/>
<polygon fill="#191970" stroke="#191970" points="634.3619,-83.7612 624.1185,-81.055 630.4386,-89.5584 634.3619,-83.7612"/>
</g>
<!-- Node17 -->
<g id="node18" class="node">
<title>Node17</title>
<polygon fill="none" stroke="#bfbfbf" points="673.5,-62 673.5,-81 744.5,-81 744.5,-62 673.5,-62"/>
<text text-anchor="middle" x="709" y="-69" font-family="Helvetica,sans-Serif" font-size="10.00" fill="#000000">manif/SE3.h</text>
</g>
<!-- Node16&#45;&gt;Node17 -->
<g id="edge20" class="edge">
<title>Node16&#45;&gt;Node17</title>
<path fill="none" stroke="#191970" d="M709,-123.2967C709,-113.7699 709,-101.3954 709,-91.1306"/>
<polygon fill="#191970" stroke="#191970" points="712.5001,-91.0549 709,-81.055 705.5001,-91.055 712.5001,-91.0549"/>
</g>
<!-- Node19&#45;&gt;Node1 -->
<g id="edge28" class="edge">
<title>Node19&#45;&gt;Node1</title>
<path fill="none" stroke="#191970" d="M633.8598,-191.2963C630.8711,-190.8309 627.9083,-190.3958 625,-190 521.6454,-175.9347 252.4337,-196.1 157,-154 138.5888,-145.878 140.3894,-134.6759 124,-123 103.1484,-108.1452 77.4637,-94.8061 57.6208,-85.4271"/>
<polygon fill="#191970" stroke="#191970" points="58.9405,-82.1811 48.3958,-81.1516 55.997,-88.5322 58.9405,-82.1811"/>
</g>
<!-- Node19&#45;&gt;Node5 -->
<g id="edge27" class="edge">
<title>Node19&#45;&gt;Node5</title>
<path fill="none" stroke="#191970" d="M652.3835,-190.4639C607.5903,-177.4154 544.1396,-158.932 506.2245,-147.8871"/>
<polygon fill="#191970" stroke="#191970" points="506.8242,-144.4164 496.2444,-144.9799 504.8664,-151.1371 506.8242,-144.4164"/>
</g>
<!-- Node20 -->
<g id="node21" class="node">
<title>Node20</title>
<polygon fill="none" stroke="#bfbfbf" points="798.5,-129 798.5,-148 871.5,-148 871.5,-129 798.5,-129"/>
<text text-anchor="middle" x="835" y="-136" font-family="Helvetica,sans-Serif" font-size="10.00" fill="#000000">Eigen/Dense</text>
</g>
<!-- Node19&#45;&gt;Node20 -->
<g id="edge29" class="edge">
<title>Node19&#45;&gt;Node20</title>
<path fill="none" stroke="#191970" d="M733.399,-190.4639C755.4781,-179.1715 785.5161,-163.8086 807.1983,-152.7192"/>
<polygon fill="#191970" stroke="#191970" points="808.9128,-155.7736 816.2222,-148.1039 805.7253,-149.5414 808.9128,-155.7736"/>
</g>
<!-- Node19&#45;&gt;Node21 -->
<g id="edge30" class="edge">
<title>Node19&#45;&gt;Node21</title>
<path fill="none" stroke="#191970" d="M761.0026,-190.4639C799.5128,-180.3057 850.5106,-166.8535 890.969,-156.1814"/>
<polygon fill="#191970" stroke="#191970" points="891.9723,-159.5366 900.7488,-153.6017 890.1868,-152.7681 891.9723,-159.5366"/>
</g>
<!-- Node22&#45;&gt;Node21 -->
<g id="edge33" class="edge">
<title>Node22&#45;&gt;Node21</title>
<path fill="none" stroke="#191970" d="M1078.9906,-190.4639C1056.3887,-180.7567 1026.7832,-168.0415 1002.5153,-157.6188"/>
<polygon fill="#191970" stroke="#191970" points="1003.7318,-154.3321 993.1621,-153.6017 1000.9693,-160.764 1003.7318,-154.3321"/>
</g>
<!-- Node23 -->
<g id="node24" class="node">
<title>Node23</title>
<polygon fill="none" stroke="#bfbfbf" points="1127.5,-62 1127.5,-81 1198.5,-81 1198.5,-62 1127.5,-62"/>
<text text-anchor="middle" x="1163" y="-69" font-family="Helvetica,sans-Serif" font-size="10.00" fill="#000000">manif/SO3.h</text>
</g>
<!-- Node22&#45;&gt;Node23 -->
<g id="edge32" class="edge">
<title>Node22&#45;&gt;Node23</title>
<path fill="none" stroke="#191970" d="M1152.1614,-190.471C1167.7613,-182.2068 1184.1865,-170.2664 1193,-154 1204.4998,-132.7757 1190.2853,-106.2334 1177.7738,-89.0785"/>
<polygon fill="#191970" stroke="#191970" points="1180.4297,-86.7922 1171.5315,-81.0412 1174.9012,-91.0859 1180.4297,-86.7922"/>
</g>
<!-- Node24 -->
<g id="node25" class="node">
<title>Node24</title>
<g id="a_node25"><a xlink:href="SO3Planner_8tpp.html" target="_top" xlink:title="BipedalLocomotion/Planners\l/SO3Planner.tpp">
<polygon fill="none" stroke="#000000" points="1044,-123.5 1044,-153.5 1184,-153.5 1184,-123.5 1044,-123.5"/>
<text text-anchor="start" x="1052" y="-141.5" font-family="Helvetica,sans-Serif" font-size="10.00" fill="#000000">BipedalLocomotion/Planners</text>
<text text-anchor="middle" x="1114" y="-130.5" font-family="Helvetica,sans-Serif" font-size="10.00" fill="#000000">/SO3Planner.tpp</text>
</a>
</g>
</g>
<!-- Node22&#45;&gt;Node24 -->
<g id="edge34" class="edge">
<title>Node22&#45;&gt;Node24</title>
<path fill="none" stroke="#191970" d="M1108.2392,-190.2967C1107.2895,-182.4156 1107.0236,-172.5857 1107.4416,-163.6135"/>
<polygon fill="#191970" stroke="#191970" points="1110.9304,-163.8924 1108.2464,-153.6432 1103.9531,-163.3291 1110.9304,-163.8924"/>
</g>
<!-- Node24&#45;&gt;Node14 -->
<g id="edge35" class="edge">
<title>Node24&#45;&gt;Node14</title>
<path fill="none" stroke="#191970" d="M1043.8587,-124.3044C1040.8703,-123.8368 1037.9079,-123.399 1035,-123 834.0285,-95.4267 777.144,-134.7918 580,-87 577.3624,-86.3606 574.6705,-85.5567 572.0019,-84.6532"/>
<polygon fill="#191970" stroke="#191970" points="573.1689,-81.3524 562.5781,-81.0608 570.6754,-87.8933 573.1689,-81.3524"/>
</g>
<!-- Node24&#45;&gt;Node22 -->
<g id="edge37" class="edge">
<title>Node24&#45;&gt;Node22</title>
<path fill="none" stroke="#191970" d="M1119.7536,-153.6432C1120.7067,-161.5143 1120.9761,-171.3414 1120.5616,-180.3179"/>
<polygon fill="#191970" stroke="#191970" points="1117.072,-180.0487 1119.7608,-190.2967 1124.0496,-180.6087 1117.072,-180.0487"/>
</g>
<!-- Node24&#45;&gt;Node23 -->
<g id="edge36" class="edge">
<title>Node24&#45;&gt;Node23</title>
<path fill="none" stroke="#191970" d="M1125.1189,-123.2967C1132.5309,-113.1618 1142.3,-99.804 1150.061,-89.1921"/>
<polygon fill="#191970" stroke="#191970" points="1152.9339,-91.1928 1156.012,-81.055 1147.2837,-87.0606 1152.9339,-91.1928"/>
</g>
</g>
</svg>
