<?xml version="1.0" encoding="UTF-8" standalone="no"?>
<!DOCTYPE svg PUBLIC "-//W3C//DTD SVG 1.1//EN"
 "http://www.w3.org/Graphics/SVG/1.1/DTD/svg11.dtd">
<!-- Generated by graphviz version 2.40.1 (20161225.0304)
 -->
<!-- Title: Planners/src/SwingFootPlanner.cpp Pages: 1 -->
<!--zoomable 352 -->
<svg id="main" version="1.1" xmlns="http://www.w3.org/2000/svg" xmlns:xlink="http://www.w3.org/1999/xlink" xml:space="preserve" onload="init(evt)">
<style type="text/css"><![CDATA[
.edge:hover path { stroke: red; }
.edge:hover polygon { stroke: red; fill: red; }
]]></style>
<script type="text/javascript"><![CDATA[
var edges = document.getElementsByTagName('g');
if (edges && edges.length) {
  for (var i=0;i<edges.length;i++) {
    if (edges[i].id.substr(0,4)=='edge') {
      edges[i].setAttribute('class','edge');
    }
  }
}
]]></script>
        <defs>
                <circle id="rim" cx="0" cy="0" r="7"/>
                <circle id="rim2" cx="0" cy="0" r="3.5"/>
                <g id="zoomPlus">
                        <use xlink:href="#rim" fill="#404040">
                                <set attributeName="fill" to="#808080" begin="zoomplus.mouseover" end="zoomplus.mouseout"/>
                        </use>
                        <path d="M-4,0h8M0,-4v8" fill="none" stroke="white" stroke-width="1.5" pointer-events="none"/>
                </g>
                <g id="zoomMin">
                        <use xlink:href="#rim" fill="#404040">
                                <set attributeName="fill" to="#808080" begin="zoomminus.mouseover" end="zoomminus.mouseout"/>
                        </use>
                        <path d="M-4,0h8" fill="none" stroke="white" stroke-width="1.5" pointer-events="none"/>
                </g>
                <g id="dirArrow">
                        <path fill="none" stroke="white" stroke-width="1.5" d="M0,-3.0v7 M-2.5,-0.5L0,-3.0L2.5,-0.5"/>
                </g>
               <g id="resetDef">
                       <use xlink:href="#rim2" fill="#404040">
                               <set attributeName="fill" to="#808080" begin="reset.mouseover" end="reset.mouseout"/>
                       </use>
               </g>
        </defs>

<script type="text/javascript">
var viewWidth = 1193;
var viewHeight = 352;
var sectionId = 'dynsection-0';
</script>
<script xlink:href="svgpan.js"/>
<svg id="graph" class="graph">
<g id="viewport">
<title>Planners/src/SwingFootPlanner.cpp</title>
<!-- Node0 -->
<g id="node1" class="node">
<title>Node0</title>
<polygon fill="#bfbfbf" stroke="#000000" points="369.5,-324.5 369.5,-343.5 542.5,-343.5 542.5,-324.5 369.5,-324.5"/>
<text text-anchor="middle" x="456" y="-331.5" font-family="Helvetica,sans-Serif" font-size="10.00" fill="#000000">Planners/src/SwingFootPlanner.cpp</text>
</g>
<!-- Node1 -->
<g id="node2" class="node">
<title>Node1</title>
<g id="a_node2"><a xlink:href="SwingFootPlanner_8h.html" target="_top" xlink:title="BipedalLocomotion/Planners\l/SwingFootPlanner.h">
<polygon fill="none" stroke="#000000" points="534,-257.5 534,-287.5 674,-287.5 674,-257.5 534,-257.5"/>
<text text-anchor="start" x="542" y="-275.5" font-family="Helvetica,sans-Serif" font-size="10.00" fill="#000000">BipedalLocomotion/Planners</text>
<text text-anchor="middle" x="604" y="-264.5" font-family="Helvetica,sans-Serif" font-size="10.00" fill="#000000">/SwingFootPlanner.h</text>
</a>
</g>
</g>
<!-- Node0&#45;&gt;Node1 -->
<g id="edge1" class="edge">
<title>Node0&#45;&gt;Node1</title>
<path fill="none" stroke="#191970" d="M479.125,-324.3906C500.2678,-315.6049 532.1497,-302.3567 558.4064,-291.446"/>
<polygon fill="#191970" stroke="#191970" points="559.9037,-294.614 567.7951,-287.5446 557.2176,-288.1499 559.9037,-294.614"/>
</g>
<!-- Node16 -->
<g id="node17" class="node">
<title>Node16</title>
<g id="a_node17"><a xlink:href="ContactList_8h.html" target="_top" xlink:title="BipedalLocomotion/Contacts\l/ContactList.h">
<polygon fill="none" stroke="#000000" points="185,-190.5 185,-220.5 327,-220.5 327,-190.5 185,-190.5"/>
<text text-anchor="start" x="193" y="-208.5" font-family="Helvetica,sans-Serif" font-size="10.00" fill="#000000">BipedalLocomotion/Contacts</text>
<text text-anchor="middle" x="256" y="-197.5" font-family="Helvetica,sans-Serif" font-size="10.00" fill="#000000">/ContactList.h</text>
</a>
</g>
</g>
<!-- Node0&#45;&gt;Node16 -->
<g id="edge40" class="edge">
<title>Node0&#45;&gt;Node16</title>
<path fill="none" stroke="#191970" d="M440.9675,-324.3416C408.6716,-303.5915 332.0479,-254.3608 288.2251,-226.2047"/>
<polygon fill="#191970" stroke="#191970" points="289.9652,-223.1625 279.6601,-220.7016 286.1813,-229.0517 289.9652,-223.1625"/>
</g>
<!-- Node2 -->
<g id="node3" class="node">
<title>Node2</title>
<polygon fill="none" stroke="#bfbfbf" points="670,-62 670,-81 722,-81 722,-62 670,-62"/>
<text text-anchor="middle" x="696" y="-69" font-family="Helvetica,sans-Serif" font-size="10.00" fill="#000000">memory</text>
</g>
<!-- Node1&#45;&gt;Node2 -->
<g id="edge2" class="edge">
<title>Node1&#45;&gt;Node2</title>
<path fill="none" stroke="#191970" d="M614.9509,-257.2036C621.8175,-247.2029 630.5571,-233.6873 637,-221 658.1519,-179.3477 657.7355,-166.408 675,-123 679.2453,-112.326 684.0802,-100.4506 688.0397,-90.7957"/>
<polygon fill="#191970" stroke="#191970" points="691.3567,-91.9321 691.9235,-81.3525 684.8829,-89.2696 691.3567,-91.9321"/>
</g>
<!-- Node3 -->
<g id="node4" class="node">
<title>Node3</title>
<polygon fill="none" stroke="#bfbfbf" points="284,-129 284,-148 360,-148 360,-129 284,-129"/>
<text text-anchor="middle" x="322" y="-136" font-family="Helvetica,sans-Serif" font-size="10.00" fill="#000000">manif/manif.h</text>
</g>
<!-- Node1&#45;&gt;Node3 -->
<g id="edge3" class="edge">
<title>Node1&#45;&gt;Node3</title>
<path fill="none" stroke="#191970" d="M558.5284,-257.4353C531.5017,-247.9838 496.7934,-234.969 467,-221 422.9421,-200.3429 374.2608,-171.2664 346.0005,-153.7186"/>
<polygon fill="#191970" stroke="#191970" points="347.5702,-150.5723 337.2356,-148.2384 343.8591,-156.5076 347.5702,-150.5723"/>
</g>
<!-- Node4 -->
<g id="node5" class="node">
<title>Node4</title>
<g id="a_node5"><a xlink:href="IParametersHandler_8h.html" target="_top" xlink:title="BipedalLocomotion/Parameters\lHandler/IParametersHandler.h">
<polygon fill="none" stroke="#000000" points="476,-190.5 476,-220.5 628,-220.5 628,-190.5 476,-190.5"/>
<text text-anchor="start" x="484" y="-208.5" font-family="Helvetica,sans-Serif" font-size="10.00" fill="#000000">BipedalLocomotion/Parameters</text>
<text text-anchor="middle" x="552" y="-197.5" font-family="Helvetica,sans-Serif" font-size="10.00" fill="#000000">Handler/IParametersHandler.h</text>
</a>
</g>
</g>
<!-- Node1&#45;&gt;Node4 -->
<g id="edge4" class="edge">
<title>Node1&#45;&gt;Node4</title>
<path fill="none" stroke="#191970" d="M592.2004,-257.2967C585.6184,-248.816 577.2848,-238.0785 569.9141,-228.5817"/>
<polygon fill="#191970" stroke="#191970" points="572.6491,-226.3971 563.7529,-220.6432 567.1192,-230.689 572.6491,-226.3971"/>
</g>
<!-- Node1&#45;&gt;Node16 -->
<g id="edge19" class="edge">
<title>Node1&#45;&gt;Node16</title>
<path fill="none" stroke="#191970" d="M533.9956,-259.0221C477.1451,-248.0768 396.8997,-232.6272 337.2274,-221.1386"/>
<polygon fill="#191970" stroke="#191970" points="337.5675,-217.6399 327.0862,-219.1861 336.2441,-224.5137 337.5675,-217.6399"/>
</g>
<!-- Node20 -->
<g id="node21" class="node">
<title>Node20</title>
<g id="a_node21"><a xlink:href="QuinticSpline_8h.html" target="_top" xlink:title="BipedalLocomotion/Planners\l/QuinticSpline.h">
<polygon fill="none" stroke="#000000" points="686,-190.5 686,-220.5 826,-220.5 826,-190.5 686,-190.5"/>
<text text-anchor="start" x="694" y="-208.5" font-family="Helvetica,sans-Serif" font-size="10.00" fill="#000000">BipedalLocomotion/Planners</text>
<text text-anchor="middle" x="756" y="-197.5" font-family="Helvetica,sans-Serif" font-size="10.00" fill="#000000">/QuinticSpline.h</text>
</a>
</g>
</g>
<!-- Node1&#45;&gt;Node20 -->
<g id="edge27" class="edge">
<title>Node1&#45;&gt;Node20</title>
<path fill="none" stroke="#191970" d="M638.1118,-257.4639C660.0367,-247.7996 688.7254,-235.154 712.3119,-224.7572"/>
<polygon fill="#191970" stroke="#191970" points="714.0007,-227.8379 721.7395,-220.6017 711.1772,-221.4325 714.0007,-227.8379"/>
</g>
<!-- Node22 -->
<g id="node23" class="node">
<title>Node22</title>
<g id="a_node23"><a xlink:href="Advanceable_8h.html" target="_top" xlink:title="BipedalLocomotion/System\l/Advanceable.h">
<polygon fill="none" stroke="#000000" points="876,-123.5 876,-153.5 1012,-153.5 1012,-123.5 876,-123.5"/>
<text text-anchor="start" x="884" y="-141.5" font-family="Helvetica,sans-Serif" font-size="10.00" fill="#000000">BipedalLocomotion/System</text>
<text text-anchor="middle" x="944" y="-130.5" font-family="Helvetica,sans-Serif" font-size="10.00" fill="#000000">/Advanceable.h</text>
</a>
</g>
</g>
<!-- Node1&#45;&gt;Node22 -->
<g id="edge39" class="edge">
<title>Node1&#45;&gt;Node22</title>
<path fill="none" stroke="#191970" d="M674.2252,-264.7932C721.3533,-257.7378 783.9182,-244.6516 835,-221 867.8463,-205.7917 900.2432,-179.4224 921.0679,-160.5887"/>
<polygon fill="#191970" stroke="#191970" points="923.4767,-163.1285 928.4594,-153.7784 918.7334,-157.9805 923.4767,-163.1285"/>
</g>
<!-- Node23 -->
<g id="node24" class="node">
<title>Node23</title>
<g id="a_node24"><a xlink:href="SO3Planner_8h.html" target="_top" xlink:title="BipedalLocomotion/Planners\l/SO3Planner.h">
<polygon fill="none" stroke="#000000" points="1030,-190.5 1030,-220.5 1170,-220.5 1170,-190.5 1030,-190.5"/>
<text text-anchor="start" x="1038" y="-208.5" font-family="Helvetica,sans-Serif" font-size="10.00" fill="#000000">BipedalLocomotion/Planners</text>
<text text-anchor="middle" x="1100" y="-197.5" font-family="Helvetica,sans-Serif" font-size="10.00" fill="#000000">/SO3Planner.h</text>
</a>
</g>
</g>
<!-- Node1&#45;&gt;Node23 -->
<g id="edge32" class="edge">
<title>Node1&#45;&gt;Node23</title>
<path fill="none" stroke="#191970" d="M674.0127,-263.0426C765.1836,-250.7272 924.1844,-229.2493 1020.0125,-216.3048"/>
<polygon fill="#191970" stroke="#191970" points="1020.5018,-219.7705 1029.9432,-214.9633 1019.5647,-212.8335 1020.5018,-219.7705"/>
</g>
<!-- Node4&#45;&gt;Node2 -->
<g id="edge5" class="edge">
<title>Node4&#45;&gt;Node2</title>
<path fill="none" stroke="#191970" d="M568.2387,-190.389C595.4187,-165.0965 649.915,-114.3847 678.1401,-88.1196"/>
<polygon fill="#191970" stroke="#191970" points="680.7427,-90.4788 685.6791,-81.1042 675.9741,-85.3543 680.7427,-90.4788"/>
</g>
<!-- Node5 -->
<g id="node6" class="node">
<title>Node5</title>
<polygon fill="none" stroke="#bfbfbf" points="171.5,-62 171.5,-81 212.5,-81 212.5,-62 171.5,-62"/>
<text text-anchor="middle" x="192" y="-69" font-family="Helvetica,sans-Serif" font-size="10.00" fill="#000000">string</text>
</g>
<!-- Node4&#45;&gt;Node5 -->
<g id="edge6" class="edge">
<title>Node4&#45;&gt;Node5</title>
<path fill="none" stroke="#191970" d="M495.6663,-190.4387C467.9805,-181.8211 434.7012,-169.5963 407,-154 388.0074,-143.3068 388.5162,-132.7046 369,-123 308.3847,-92.8585 284.2427,-111.1469 221,-87 219.8,-86.5418 218.587,-86.0445 217.3724,-85.5183"/>
<polygon fill="#191970" stroke="#191970" points="218.7505,-82.2971 208.2241,-81.0951 215.7034,-88.5991 218.7505,-82.2971"/>
</g>
<!-- Node6 -->
<g id="node7" class="node">
<title>Node6</title>
<polygon fill="none" stroke="#bfbfbf" points="684,-129 684,-148 728,-148 728,-129 684,-129"/>
<text text-anchor="middle" x="706" y="-136" font-family="Helvetica,sans-Serif" font-size="10.00" fill="#000000">vector</text>
</g>
<!-- Node4&#45;&gt;Node6 -->
<g id="edge7" class="edge">
<title>Node4&#45;&gt;Node6</title>
<path fill="none" stroke="#191970" d="M586.5606,-190.4639C612.9818,-178.969 649.0979,-163.2561 674.6791,-152.1266"/>
<polygon fill="#191970" stroke="#191970" points="676.1519,-155.3028 683.9253,-148.1039 673.3592,-148.884 676.1519,-155.3028"/>
</g>
<!-- Node7 -->
<g id="node8" class="node">
<title>Node7</title>
<g id="a_node8"><a xlink:href="Vector_8h_source.html" target="_top" xlink:title="BipedalLocomotion/Generic\lContainer/Vector.h">
<polygon fill="none" stroke="#000000" points="416,-123.5 416,-153.5 552,-153.5 552,-123.5 416,-123.5"/>
<text text-anchor="start" x="424" y="-141.5" font-family="Helvetica,sans-Serif" font-size="10.00" fill="#000000">BipedalLocomotion/Generic</text>
<text text-anchor="middle" x="484" y="-130.5" font-family="Helvetica,sans-Serif" font-size="10.00" fill="#000000">Container/Vector.h</text>
</a>
</g>
</g>
<!-- Node4&#45;&gt;Node7 -->
<g id="edge8" class="edge">
<title>Node4&#45;&gt;Node7</title>
<path fill="none" stroke="#191970" d="M536.5697,-190.2967C527.7016,-181.559 516.4022,-170.4257 506.5535,-160.7218"/>
<polygon fill="#191970" stroke="#191970" points="508.949,-158.1685 499.3692,-153.6432 504.036,-163.1548 508.949,-158.1685"/>
</g>
<!-- Node9 -->
<g id="node10" class="node">
<title>Node9</title>
<g id="a_node10"><a xlink:href="TemplateHelpers_8h_source.html" target="_top" xlink:title="BipedalLocomotion/Generic\lContainer/TemplateHelpers.h">
<polygon fill="none" stroke="#000000" points="508,-56.5 508,-86.5 652,-86.5 652,-56.5 508,-56.5"/>
<text text-anchor="start" x="516" y="-74.5" font-family="Helvetica,sans-Serif" font-size="10.00" fill="#000000">BipedalLocomotion/Generic</text>
<text text-anchor="middle" x="580" y="-63.5" font-family="Helvetica,sans-Serif" font-size="10.00" fill="#000000">Container/TemplateHelpers.h</text>
</a>
</g>
</g>
<!-- Node4&#45;&gt;Node9 -->
<g id="edge18" class="edge">
<title>Node4&#45;&gt;Node9</title>
<path fill="none" stroke="#191970" d="M555.1575,-190.389C559.905,-167.6691 568.9383,-124.438 574.705,-96.8405"/>
<polygon fill="#191970" stroke="#191970" points="578.1916,-97.2659 576.8111,-86.7614 571.3396,-95.8341 578.1916,-97.2659"/>
</g>
<!-- Node7&#45;&gt;Node2 -->
<g id="edge17" class="edge">
<title>Node7&#45;&gt;Node2</title>
<path fill="none" stroke="#191970" d="M543.2342,-123.3951C577.9236,-114.023 622.3691,-101.1023 661,-87 662.6309,-86.4046 664.2934,-85.7694 665.9641,-85.1085"/>
<polygon fill="#191970" stroke="#191970" points="667.5798,-88.2268 675.4593,-81.1441 664.8828,-81.7673 667.5798,-88.2268"/>
</g>
<!-- Node8 -->
<g id="node9" class="node">
<title>Node8</title>
<polygon fill="none" stroke="#bfbfbf" points="308,-62 308,-81 422,-81 422,-62 308,-62"/>
<text text-anchor="middle" x="365" y="-69" font-family="Helvetica,sans-Serif" font-size="10.00" fill="#000000">iDynTree/Core/Span.h</text>
</g>
<!-- Node7&#45;&gt;Node8 -->
<g id="edge9" class="edge">
<title>Node7&#45;&gt;Node8</title>
<path fill="none" stroke="#191970" d="M457.2941,-123.4639C437.4173,-112.2728 410.4399,-97.0838 390.7868,-86.0186"/>
<polygon fill="#191970" stroke="#191970" points="392.4887,-82.9602 382.0577,-81.1039 389.0544,-89.0599 392.4887,-82.9602"/>
</g>
<!-- Node7&#45;&gt;Node9 -->
<g id="edge10" class="edge">
<title>Node7&#45;&gt;Node9</title>
<path fill="none" stroke="#191970" d="M505.7839,-123.2967C518.7945,-114.2163 535.5121,-102.5488 549.7858,-92.587"/>
<polygon fill="#191970" stroke="#191970" points="552.1051,-95.2365 558.3023,-86.6432 548.0988,-89.4962 552.1051,-95.2365"/>
</g>
<!-- Node13 -->
<g id="node14" class="node">
<title>Node13</title>
<polygon fill="none" stroke="#bfbfbf" points="230.5,-62 230.5,-81 289.5,-81 289.5,-62 230.5,-62"/>
<text text-anchor="middle" x="260" y="-69" font-family="Helvetica,sans-Serif" font-size="10.00" fill="#000000">functional</text>
</g>
<!-- Node7&#45;&gt;Node13 -->
<g id="edge14" class="edge">
<title>Node7&#45;&gt;Node13</title>
<path fill="none" stroke="#191970" d="M423.5179,-123.408C387.1385,-113.8994 340.0736,-100.8351 299,-87 296.8681,-86.2819 294.6832,-85.5116 292.4891,-84.712"/>
<polygon fill="#191970" stroke="#191970" points="293.5373,-81.3664 282.946,-81.0912 291.0541,-87.9111 293.5373,-81.3664"/>
</g>
<!-- Node14 -->
<g id="node15" class="node">
<title>Node14</title>
<polygon fill="none" stroke="#bfbfbf" points="440.5,-62 440.5,-81 489.5,-81 489.5,-62 440.5,-62"/>
<text text-anchor="middle" x="465" y="-69" font-family="Helvetica,sans-Serif" font-size="10.00" fill="#000000">cassert</text>
</g>
<!-- Node7&#45;&gt;Node14 -->
<g id="edge15" class="edge">
<title>Node7&#45;&gt;Node14</title>
<path fill="none" stroke="#191970" d="M479.6886,-123.2967C476.9582,-113.6685 473.403,-101.1318 470.4742,-90.8038"/>
<polygon fill="#191970" stroke="#191970" points="473.8052,-89.7207 467.7096,-81.055 467.0707,-91.6305 473.8052,-89.7207"/>
</g>
<!-- Node15 -->
<g id="node16" class="node">
<title>Node15</title>
<polygon fill="none" stroke="#bfbfbf" points="915,-62 915,-81 969,-81 969,-62 915,-62"/>
<text text-anchor="middle" x="942" y="-69" font-family="Helvetica,sans-Serif" font-size="10.00" fill="#000000">iostream</text>
</g>
<!-- Node7&#45;&gt;Node15 -->
<g id="edge16" class="edge">
<title>Node7&#45;&gt;Node15</title>
<path fill="none" stroke="#191970" d="M552.0727,-128.5418C650.1265,-114.1977 827.7755,-88.2097 904.7599,-76.9478"/>
<polygon fill="#191970" stroke="#191970" points="905.5479,-80.3699 914.9359,-75.4592 904.5346,-73.4436 905.5479,-80.3699"/>
</g>
<!-- Node10 -->
<g id="node11" class="node">
<title>Node10</title>
<polygon fill="none" stroke="#bfbfbf" points="467,-.5 467,-19.5 529,-19.5 529,-.5 467,-.5"/>
<text text-anchor="middle" x="498" y="-7.5" font-family="Helvetica,sans-Serif" font-size="10.00" fill="#000000">type_traits</text>
</g>
<!-- Node9&#45;&gt;Node10 -->
<g id="edge11" class="edge">
<title>Node9&#45;&gt;Node10</title>
<path fill="none" stroke="#191970" d="M559.7303,-56.2977C547.3994,-47.0495 531.6734,-35.2551 519.1803,-25.8853"/>
<polygon fill="#191970" stroke="#191970" points="521.2293,-23.047 511.1292,-19.8469 517.0292,-28.647 521.2293,-23.047"/>
</g>
<!-- Node11 -->
<g id="node12" class="node">
<title>Node11</title>
<polygon fill="none" stroke="#bfbfbf" points="547,-.5 547,-19.5 613,-19.5 613,-.5 547,-.5"/>
<text text-anchor="middle" x="580" y="-7.5" font-family="Helvetica,sans-Serif" font-size="10.00" fill="#000000">string_view</text>
</g>
<!-- Node9&#45;&gt;Node11 -->
<g id="edge12" class="edge">
<title>Node9&#45;&gt;Node11</title>
<path fill="none" stroke="#191970" d="M580,-56.2977C580,-48.3834 580,-38.6043 580,-30.0759"/>
<polygon fill="#191970" stroke="#191970" points="583.5001,-29.8469 580,-19.8469 576.5001,-29.847 583.5001,-29.8469"/>
</g>
<!-- Node12 -->
<g id="node13" class="node">
<title>Node12</title>
<polygon fill="none" stroke="#bfbfbf" points="631.5,-.5 631.5,-19.5 696.5,-19.5 696.5,-.5 631.5,-.5"/>
<text text-anchor="middle" x="664" y="-7.5" font-family="Helvetica,sans-Serif" font-size="10.00" fill="#000000">Eigen/Core</text>
</g>
<!-- Node9&#45;&gt;Node12 -->
<g id="edge13" class="edge">
<title>Node9&#45;&gt;Node12</title>
<path fill="none" stroke="#191970" d="M600.7641,-56.2977C613.3958,-47.0495 629.5053,-35.2551 642.3031,-25.8853"/>
<polygon fill="#191970" stroke="#191970" points="644.5495,-28.5784 650.5505,-19.8469 640.4143,-22.9303 644.5495,-28.5784"/>
</g>
<!-- Node16&#45;&gt;Node3 -->
<g id="edge23" class="edge">
<title>Node16&#45;&gt;Node3</title>
<path fill="none" stroke="#191970" d="M270.9764,-190.2967C281.2595,-179.8578 294.9108,-165.9997 305.5053,-155.2446"/>
<polygon fill="#191970" stroke="#191970" points="308.0633,-157.6352 312.5876,-148.055 303.0765,-152.7228 308.0633,-157.6352"/>
</g>
<!-- Node16&#45;&gt;Node5 -->
<g id="edge25" class="edge">
<title>Node16&#45;&gt;Node5</title>
<path fill="none" stroke="#191970" d="M248.7828,-190.389C237.0139,-165.7478 213.7216,-116.9796 200.9297,-90.1965"/>
<polygon fill="#191970" stroke="#191970" points="204.0552,-88.6193 196.5871,-81.1042 197.7386,-91.6362 204.0552,-88.6193"/>
</g>
<!-- Node16&#45;&gt;Node13 -->
<g id="edge26" class="edge">
<title>Node16&#45;&gt;Node13</title>
<path fill="none" stroke="#191970" d="M256.4511,-190.389C257.1769,-166.0735 258.604,-118.2644 259.4099,-91.2698"/>
<polygon fill="#191970" stroke="#191970" points="262.9133,-91.2042 259.7133,-81.1042 255.9164,-90.9952 262.9133,-91.2042"/>
</g>
<!-- Node17 -->
<g id="node18" class="node">
<title>Node17</title>
<g id="a_node18"><a xlink:href="Contact_8h.html" target="_top" xlink:title="BipedalLocomotion/Contacts\l/Contact.h">
<polygon fill="none" stroke="#000000" points="0,-123.5 0,-153.5 142,-153.5 142,-123.5 0,-123.5"/>
<text text-anchor="start" x="8" y="-141.5" font-family="Helvetica,sans-Serif" font-size="10.00" fill="#000000">BipedalLocomotion/Contacts</text>
<text text-anchor="middle" x="71" y="-130.5" font-family="Helvetica,sans-Serif" font-size="10.00" fill="#000000">/Contact.h</text>
</a>
</g>
</g>
<!-- Node16&#45;&gt;Node17 -->
<g id="edge20" class="edge">
<title>Node16&#45;&gt;Node17</title>
<path fill="none" stroke="#191970" d="M214.4824,-190.4639C187.2045,-180.5849 151.3244,-167.5905 122.2685,-157.0675"/>
<polygon fill="#191970" stroke="#191970" points="123.2929,-153.7161 112.6987,-153.6017 120.9092,-160.2978 123.2929,-153.7161"/>
</g>
<!-- Node19 -->
<g id="node20" class="node">
<title>Node19</title>
<polygon fill="none" stroke="#bfbfbf" points="160,-129 160,-148 190,-148 190,-129 160,-129"/>
<text text-anchor="middle" x="175" y="-136" font-family="Helvetica,sans-Serif" font-size="10.00" fill="#000000">set</text>
</g>
<!-- Node16&#45;&gt;Node19 -->
<g id="edge24" class="edge">
<title>Node16&#45;&gt;Node19</title>
<path fill="none" stroke="#191970" d="M237.6198,-190.2967C224.7546,-179.6551 207.5937,-165.4602 194.4904,-154.6217"/>
<polygon fill="#191970" stroke="#191970" points="196.4879,-151.7318 186.5515,-148.055 192.0263,-157.1257 196.4879,-151.7318"/>
</g>
<!-- Node17&#45;&gt;Node5 -->
<g id="edge22" class="edge">
<title>Node17&#45;&gt;Node5</title>
<path fill="none" stroke="#191970" d="M98.1548,-123.4639C118.3656,-112.2728 145.7964,-97.0838 165.7799,-86.0186"/>
<polygon fill="#191970" stroke="#191970" points="167.6027,-89.0101 174.6556,-81.1039 164.2117,-82.8862 167.6027,-89.0101"/>
</g>
<!-- Node18 -->
<g id="node19" class="node">
<title>Node18</title>
<polygon fill="none" stroke="#bfbfbf" points="35.5,-62 35.5,-81 106.5,-81 106.5,-62 35.5,-62"/>
<text text-anchor="middle" x="71" y="-69" font-family="Helvetica,sans-Serif" font-size="10.00" fill="#000000">manif/SE3.h</text>
</g>
<!-- Node17&#45;&gt;Node18 -->
<g id="edge21" class="edge">
<title>Node17&#45;&gt;Node18</title>
<path fill="none" stroke="#191970" d="M71,-123.2967C71,-113.7699 71,-101.3954 71,-91.1306"/>
<polygon fill="#191970" stroke="#191970" points="74.5001,-91.0549 71,-81.055 67.5001,-91.055 74.5001,-91.0549"/>
</g>
<!-- Node20&#45;&gt;Node2 -->
<g id="edge29" class="edge">
<title>Node20&#45;&gt;Node2</title>
<path fill="none" stroke="#191970" d="M754.536,-190.228C752.441,-173.1409 747.5985,-144.9763 737,-123 730.9334,-110.4206 721.316,-98.1157 712.9202,-88.6896"/>
<polygon fill="#191970" stroke="#191970" points="715.3462,-86.1585 705.9765,-81.2127 710.2169,-90.922 715.3462,-86.1585"/>
</g>
<!-- Node20&#45;&gt;Node6 -->
<g id="edge28" class="edge">
<title>Node20&#45;&gt;Node6</title>
<path fill="none" stroke="#191970" d="M744.6542,-190.2967C737.0909,-180.1618 727.1224,-166.804 719.2031,-156.1921"/>
<polygon fill="#191970" stroke="#191970" points="721.9165,-153.976 713.1306,-148.055 716.3064,-158.1626 721.9165,-153.976"/>
</g>
<!-- Node21 -->
<g id="node22" class="node">
<title>Node21</title>
<polygon fill="none" stroke="#bfbfbf" points="784.5,-129 784.5,-148 857.5,-148 857.5,-129 784.5,-129"/>
<text text-anchor="middle" x="821" y="-136" font-family="Helvetica,sans-Serif" font-size="10.00" fill="#000000">Eigen/Dense</text>
</g>
<!-- Node20&#45;&gt;Node21 -->
<g id="edge30" class="edge">
<title>Node20&#45;&gt;Node21</title>
<path fill="none" stroke="#191970" d="M770.7495,-190.2967C780.8768,-179.8578 794.3212,-165.9997 804.7552,-155.2446"/>
<polygon fill="#191970" stroke="#191970" points="807.2792,-157.6695 811.7303,-148.055 802.255,-152.7953 807.2792,-157.6695"/>
</g>
<!-- Node20&#45;&gt;Node22 -->
<g id="edge31" class="edge">
<title>Node20&#45;&gt;Node22</title>
<path fill="none" stroke="#191970" d="M798.1909,-190.4639C825.9111,-180.5849 862.3731,-167.5905 891.9001,-157.0675"/>
<polygon fill="#191970" stroke="#191970" points="893.3804,-160.2557 901.6251,-153.6017 891.0304,-153.6619 893.3804,-160.2557"/>
</g>
<!-- Node23&#45;&gt;Node22 -->
<g id="edge34" class="edge">
<title>Node23&#45;&gt;Node22</title>
<path fill="none" stroke="#191970" d="M1064.9906,-190.4639C1042.3887,-180.7567 1012.7832,-168.0415 988.5153,-157.6188"/>
<polygon fill="#191970" stroke="#191970" points="989.7318,-154.3321 979.1621,-153.6017 986.9693,-160.764 989.7318,-154.3321"/>
</g>
<!-- Node24 -->
<g id="node25" class="node">
<title>Node24</title>
<polygon fill="none" stroke="#bfbfbf" points="1113.5,-62 1113.5,-81 1184.5,-81 1184.5,-62 1113.5,-62"/>
<text text-anchor="middle" x="1149" y="-69" font-family="Helvetica,sans-Serif" font-size="10.00" fill="#000000">manif/SO3.h</text>
</g>
<!-- Node23&#45;&gt;Node24 -->
<g id="edge33" class="edge">
<title>Node23&#45;&gt;Node24</title>
<path fill="none" stroke="#191970" d="M1138.1614,-190.471C1153.7613,-182.2068 1170.1865,-170.2664 1179,-154 1190.4998,-132.7757 1176.2853,-106.2334 1163.7738,-89.0785"/>
<polygon fill="#191970" stroke="#191970" points="1166.4297,-86.7922 1157.5315,-81.0412 1160.9012,-91.0859 1166.4297,-86.7922"/>
</g>
<!-- Node25 -->
<g id="node26" class="node">
<title>Node25</title>
<g id="a_node26"><a xlink:href="SO3Planner_8tpp.html" target="_top" xlink:title="BipedalLocomotion/Planners\l/SO3Planner.tpp">
<polygon fill="none" stroke="#000000" points="1030,-123.5 1030,-153.5 1170,-153.5 1170,-123.5 1030,-123.5"/>
<text text-anchor="start" x="1038" y="-141.5" font-family="Helvetica,sans-Serif" font-size="10.00" fill="#000000">BipedalLocomotion/Planners</text>
<text text-anchor="middle" x="1100" y="-130.5" font-family="Helvetica,sans-Serif" font-size="10.00" fill="#000000">/SO3Planner.tpp</text>
</a>
</g>
</g>
<!-- Node23&#45;&gt;Node25 -->
<g id="edge35" class="edge">
<title>Node23&#45;&gt;Node25</title>
<path fill="none" stroke="#191970" d="M1094.2392,-190.2967C1093.2895,-182.4156 1093.0236,-172.5857 1093.4416,-163.6135"/>
<polygon fill="#191970" stroke="#191970" points="1096.9304,-163.8924 1094.2464,-153.6432 1089.9531,-163.3291 1096.9304,-163.8924"/>
</g>
<!-- Node25&#45;&gt;Node15 -->
<g id="edge36" class="edge">
<title>Node25&#45;&gt;Node15</title>
<path fill="none" stroke="#191970" d="M1064.5417,-123.4639C1037.4343,-111.969 1000.3801,-96.2561 974.1345,-85.1266"/>
<polygon fill="#191970" stroke="#191970" points="975.2209,-81.7857 964.6481,-81.1039 972.4881,-88.2302 975.2209,-81.7857"/>
</g>
<!-- Node25&#45;&gt;Node23 -->
<g id="edge38" class="edge">
<title>Node25&#45;&gt;Node23</title>
<path fill="none" stroke="#191970" d="M1105.7536,-153.6432C1106.7067,-161.5143 1106.9761,-171.3414 1106.5616,-180.3179"/>
<polygon fill="#191970" stroke="#191970" points="1103.072,-180.0487 1105.7608,-190.2967 1110.0496,-180.6087 1103.072,-180.0487"/>
</g>
<!-- Node25&#45;&gt;Node24 -->
<g id="edge37" class="edge">
<title>Node25&#45;&gt;Node24</title>
<path fill="none" stroke="#191970" d="M1111.1189,-123.2967C1118.5309,-113.1618 1128.3,-99.804 1136.061,-89.1921"/>
<polygon fill="#191970" stroke="#191970" points="1138.9339,-91.1928 1142.012,-81.055 1133.2837,-87.0606 1138.9339,-91.1928"/>
</g>
</g>
</svg>
        <g id="navigator" transform="translate(0 0)" fill="#404254">
                <rect fill="#f2f5e9" fill-opacity="0.5" stroke="#606060" stroke-width=".5" x="0" y="0" width="60" height="60"/>
                <use id="zoomplus" xlink:href="#zoomPlus" x="17" y="9" onmousedown="handleZoom(evt,'in')"/>
                <use id="zoomminus" xlink:href="#zoomMin" x="42" y="9" onmousedown="handleZoom(evt,'out')"/>
                <use id="reset" xlink:href="#resetDef" x="30" y="36" onmousedown="handleReset()"/>
                <g id="arrowUp" xlink:href="#dirArrow" transform="translate(30 24)" onmousedown="handlePan(0,-1)">
                  <use xlink:href="#rim" fill="#404040">
                        <set attributeName="fill" to="#808080" begin="arrowUp.mouseover" end="arrowUp.mouseout"/>
                  </use>
                  <path fill="none" stroke="white" stroke-width="1.5" d="M0,-3.0v7 M-2.5,-0.5L0,-3.0L2.5,-0.5"/>
                </g>
                <g id="arrowRight" xlink:href="#dirArrow" transform="rotate(90) translate(36 -43)" onmousedown="handlePan(1,0)">
                  <use xlink:href="#rim" fill="#404040">
                        <set attributeName="fill" to="#808080" begin="arrowRight.mouseover" end="arrowRight.mouseout"/>
                  </use>
                  <path fill="none" stroke="white" stroke-width="1.5" d="M0,-3.0v7 M-2.5,-0.5L0,-3.0L2.5,-0.5"/>
                </g>
                <g id="arrowDown" xlink:href="#dirArrow" transform="rotate(180) translate(-30 -48)" onmousedown="handlePan(0,1)">
                  <use xlink:href="#rim" fill="#404040">
                        <set attributeName="fill" to="#808080" begin="arrowDown.mouseover" end="arrowDown.mouseout"/>
                  </use>
                  <path fill="none" stroke="white" stroke-width="1.5" d="M0,-3.0v7 M-2.5,-0.5L0,-3.0L2.5,-0.5"/>
                </g>
                <g id="arrowLeft" xlink:href="#dirArrow" transform="rotate(270) translate(-36 17)" onmousedown="handlePan(-1,0)">
                  <use xlink:href="#rim" fill="#404040">
                        <set attributeName="fill" to="#808080" begin="arrowLeft.mouseover" end="arrowLeft.mouseout"/>
                  </use>
                  <path fill="none" stroke="white" stroke-width="1.5" d="M0,-3.0v7 M-2.5,-0.5L0,-3.0L2.5,-0.5"/>
                </g>
        </g>
        <svg viewBox="0 0 15 15" width="100%" height="30px" preserveAspectRatio="xMaxYMin meet">
         <g id="arrow_out" transform="scale(0.3 0.3)">
          <a xlink:href="SwingFootPlanner_8cpp__incl_org.svg" target="_base">
           <rect id="button" ry="5" rx="5" y="6" x="6" height="38" width="38"
                fill="#f2f5e9" fill-opacity="0.5" stroke="#606060" stroke-width="1.0"/>
           <path id="arrow"
             d="M 11.500037,31.436501 C 11.940474,20.09759 22.043105,11.32322 32.158766,21.979434 L 37.068811,17.246167 C 37.068811,17.246167 37.088388,32 37.088388,32 L 22.160133,31.978069 C 22.160133,31.978069 26.997745,27.140456 26.997745,27.140456 C 18.528582,18.264221 13.291696,25.230495 11.500037,31.436501 z"
             style="fill:#404040;"/>
          </a>
         </g>
        </svg>
</svg>
