<?xml version="1.0" encoding="UTF-8" standalone="no"?>
<!DOCTYPE svg PUBLIC "-//W3C//DTD SVG 1.1//EN"
 "http://www.w3.org/Graphics/SVG/1.1/DTD/svg11.dtd">
<!-- Generated by graphviz version 2.40.1 (20161225.0304)
 -->
<!-- Title: Planners/src/TimeVaryingDCMPlanner.cpp Pages: 1 -->
<!--zoomable 497 -->
<svg id="main" version="1.1" xmlns="http://www.w3.org/2000/svg" xmlns:xlink="http://www.w3.org/1999/xlink" xml:space="preserve" onload="init(evt)">
<style type="text/css"><![CDATA[
.edge:hover path { stroke: red; }
.edge:hover polygon { stroke: red; fill: red; }
]]></style>
<script type="text/javascript"><![CDATA[
var edges = document.getElementsByTagName('g');
if (edges && edges.length) {
  for (var i=0;i<edges.length;i++) {
    if (edges[i].id.substr(0,4)=='edge') {
      edges[i].setAttribute('class','edge');
    }
  }
}
]]></script>
        <defs>
                <circle id="rim" cx="0" cy="0" r="7"/>
                <circle id="rim2" cx="0" cy="0" r="3.5"/>
                <g id="zoomPlus">
                        <use xlink:href="#rim" fill="#404040">
                                <set attributeName="fill" to="#808080" begin="zoomplus.mouseover" end="zoomplus.mouseout"/>
                        </use>
                        <path d="M-4,0h8M0,-4v8" fill="none" stroke="white" stroke-width="1.5" pointer-events="none"/>
                </g>
                <g id="zoomMin">
                        <use xlink:href="#rim" fill="#404040">
                                <set attributeName="fill" to="#808080" begin="zoomminus.mouseover" end="zoomminus.mouseout"/>
                        </use>
                        <path d="M-4,0h8" fill="none" stroke="white" stroke-width="1.5" pointer-events="none"/>
                </g>
                <g id="dirArrow">
                        <path fill="none" stroke="white" stroke-width="1.5" d="M0,-3.0v7 M-2.5,-0.5L0,-3.0L2.5,-0.5"/>
                </g>
               <g id="resetDef">
                       <use xlink:href="#rim2" fill="#404040">
                               <set attributeName="fill" to="#808080" begin="reset.mouseover" end="reset.mouseout"/>
                       </use>
               </g>
        </defs>

<script type="text/javascript">
var viewWidth = 1181;
var viewHeight = 497;
var sectionId = 'dynsection-0';
</script>
<script xlink:href="svgpan.js"/>
<svg id="graph" class="graph">
<g id="viewport">
<title>Planners/src/TimeVaryingDCMPlanner.cpp</title>
<!-- Node0 -->
<g id="node1" class="node">
<title>Node0</title>
<polygon fill="#bfbfbf" stroke="#000000" points="290.5,-458.5 290.5,-488.5 419.5,-488.5 419.5,-458.5 290.5,-458.5"/>
<text text-anchor="start" x="298.5" y="-476.5" font-family="Helvetica,sans-Serif" font-size="10.00" fill="#000000">Planners/src/TimeVarying</text>
<text text-anchor="middle" x="355" y="-465.5" font-family="Helvetica,sans-Serif" font-size="10.00" fill="#000000">DCMPlanner.cpp</text>
</g>
<!-- Node1 -->
<g id="node2" class="node">
<title>Node1</title>
<polygon fill="none" stroke="#bfbfbf" points="70.5,-397 70.5,-416 165.5,-416 165.5,-397 70.5,-397"/>
<text text-anchor="middle" x="118" y="-404" font-family="Helvetica,sans-Serif" font-size="10.00" fill="#000000">casadi/casadi.hpp</text>
</g>
<!-- Node0&#45;&gt;Node1 -->
<g id="edge1" class="edge">
<title>Node0&#45;&gt;Node1</title>
<path fill="none" stroke="#191970" d="M301.8126,-458.4639C259.5033,-446.503 201.0399,-429.9754 161.4966,-418.7965"/>
<polygon fill="#191970" stroke="#191970" points="162.1982,-415.3577 151.6232,-416.0053 160.2939,-422.0937 162.1982,-415.3577"/>
</g>
<!-- Node2 -->
<g id="node3" class="node">
<title>Node2</title>
<g id="a_node3"><a xlink:href="Constants_8h.html" target="_top" xlink:title="BipedalLocomotion/Math\l/Constants.h">
<polygon fill="none" stroke="#000000" points="184,-391.5 184,-421.5 308,-421.5 308,-391.5 184,-391.5"/>
<text text-anchor="start" x="192" y="-409.5" font-family="Helvetica,sans-Serif" font-size="10.00" fill="#000000">BipedalLocomotion/Math</text>
<text text-anchor="middle" x="246" y="-398.5" font-family="Helvetica,sans-Serif" font-size="10.00" fill="#000000">/Constants.h</text>
</a>
</g>
</g>
<!-- Node0&#45;&gt;Node2 -->
<g id="edge2" class="edge">
<title>Node0&#45;&gt;Node2</title>
<path fill="none" stroke="#191970" d="M330.5383,-458.4639C315.4977,-449.2188 296.0183,-437.2452 279.5495,-427.1222"/>
<polygon fill="#191970" stroke="#191970" points="281.1093,-423.9726 270.7572,-421.7177 277.4437,-429.9361 281.1093,-423.9726"/>
</g>
<!-- Node3 -->
<g id="node4" class="node">
<title>Node3</title>
<g id="a_node4"><a xlink:href="ConvexHullHelper_8h.html" target="_top" xlink:title="BipedalLocomotion/Planners\l/ConvexHullHelper.h">
<polygon fill="none" stroke="#000000" points="76,-324.5 76,-354.5 216,-354.5 216,-324.5 76,-324.5"/>
<text text-anchor="start" x="84" y="-342.5" font-family="Helvetica,sans-Serif" font-size="10.00" fill="#000000">BipedalLocomotion/Planners</text>
<text text-anchor="middle" x="146" y="-331.5" font-family="Helvetica,sans-Serif" font-size="10.00" fill="#000000">/ConvexHullHelper.h</text>
</a>
</g>
</g>
<!-- Node0&#45;&gt;Node3 -->
<g id="edge3" class="edge">
<title>Node0&#45;&gt;Node3</title>
<path fill="none" stroke="#191970" d="M352.0213,-458.431C347.5843,-439.9228 337.4655,-408.7997 317,-391 302.7727,-378.6259 263.4633,-366.3846 226.1175,-356.9432"/>
<polygon fill="#191970" stroke="#191970" points="226.7201,-353.4868 216.172,-354.4811 225.0379,-360.2817 226.7201,-353.4868"/>
</g>
<!-- Node7 -->
<g id="node8" class="node">
<title>Node7</title>
<g id="a_node8"><a xlink:href="QuinticSpline_8h.html" target="_top" xlink:title="BipedalLocomotion/Planners\l/QuinticSpline.h">
<polygon fill="none" stroke="#000000" points="274,-324.5 274,-354.5 414,-354.5 414,-324.5 274,-324.5"/>
<text text-anchor="start" x="282" y="-342.5" font-family="Helvetica,sans-Serif" font-size="10.00" fill="#000000">BipedalLocomotion/Planners</text>
<text text-anchor="middle" x="344" y="-331.5" font-family="Helvetica,sans-Serif" font-size="10.00" fill="#000000">/QuinticSpline.h</text>
</a>
</g>
</g>
<!-- Node0&#45;&gt;Node7 -->
<g id="edge7" class="edge">
<title>Node0&#45;&gt;Node7</title>
<path fill="none" stroke="#191970" d="M354.3305,-458.2758C353.5429,-441.7063 352.0742,-414.4411 350,-391 349.2497,-382.5211 348.2351,-373.2793 347.2537,-364.995"/>
<polygon fill="#191970" stroke="#191970" points="350.6952,-364.3024 346.0078,-354.8008 343.7469,-365.1516 350.6952,-364.3024"/>
</g>
<!-- Node9 -->
<g id="node10" class="node">
<title>Node9</title>
<g id="a_node10"><a xlink:href="TimeVaryingDCMPlanner_8h.html" target="_top" xlink:title="BipedalLocomotion/Planners\l/TimeVaryingDCMPlanner.h">
<polygon fill="none" stroke="#000000" points="432,-391.5 432,-421.5 572,-421.5 572,-391.5 432,-391.5"/>
<text text-anchor="start" x="440" y="-409.5" font-family="Helvetica,sans-Serif" font-size="10.00" fill="#000000">BipedalLocomotion/Planners</text>
<text text-anchor="middle" x="502" y="-398.5" font-family="Helvetica,sans-Serif" font-size="10.00" fill="#000000">/TimeVaryingDCMPlanner.h</text>
</a>
</g>
</g>
<!-- Node0&#45;&gt;Node9 -->
<g id="edge12" class="edge">
<title>Node0&#45;&gt;Node9</title>
<path fill="none" stroke="#191970" d="M387.9897,-458.4639C409.1934,-448.7996 436.9383,-436.154 459.749,-425.7572"/>
<polygon fill="#191970" stroke="#191970" points="461.2186,-428.9339 468.8664,-421.6017 458.3154,-422.5643 461.2186,-428.9339"/>
</g>
<!-- Node31 -->
<g id="node32" class="node">
<title>Node31</title>
<g id="a_node32"><a xlink:href="DynamicalSystem_8h.html" target="_top" xlink:title="BipedalLocomotion/System\l/DynamicalSystem.h">
<polygon fill="none" stroke="#000000" points="805,-324.5 805,-354.5 941,-354.5 941,-324.5 805,-324.5"/>
<text text-anchor="start" x="813" y="-342.5" font-family="Helvetica,sans-Serif" font-size="10.00" fill="#000000">BipedalLocomotion/System</text>
<text text-anchor="middle" x="873" y="-331.5" font-family="Helvetica,sans-Serif" font-size="10.00" fill="#000000">/DynamicalSystem.h</text>
</a>
</g>
</g>
<!-- Node0&#45;&gt;Node31 -->
<g id="edge51" class="edge">
<title>Node0&#45;&gt;Node31</title>
<path fill="none" stroke="#191970" d="M419.505,-459.723C464.8283,-449.8179 526.7985,-435.8228 581,-422 661.7042,-401.4183 754.0984,-374.7917 812.9612,-357.437"/>
<polygon fill="#191970" stroke="#191970" points="814.233,-360.7109 822.8316,-354.521 812.2497,-353.9977 814.233,-360.7109"/>
</g>
<!-- Node4 -->
<g id="node5" class="node">
<title>Node4</title>
<polygon fill="none" stroke="#bfbfbf" points="88.5,-263 88.5,-282 161.5,-282 161.5,-263 88.5,-263"/>
<text text-anchor="middle" x="125" y="-270" font-family="Helvetica,sans-Serif" font-size="10.00" fill="#000000">Eigen/Dense</text>
</g>
<!-- Node3&#45;&gt;Node4 -->
<g id="edge4" class="edge">
<title>Node3&#45;&gt;Node4</title>
<path fill="none" stroke="#191970" d="M141.2348,-324.2967C138.217,-314.6685 134.2876,-302.1318 131.0504,-291.8038"/>
<polygon fill="#191970" stroke="#191970" points="134.3256,-290.5504 127.9948,-282.055 127.646,-292.6441 134.3256,-290.5504"/>
</g>
<!-- Node5 -->
<g id="node6" class="node">
<title>Node5</title>
<polygon fill="none" stroke="#bfbfbf" points="0,-196 0,-215 44,-215 44,-196 0,-196"/>
<text text-anchor="middle" x="22" y="-203" font-family="Helvetica,sans-Serif" font-size="10.00" fill="#000000">vector</text>
</g>
<!-- Node3&#45;&gt;Node5 -->
<g id="edge5" class="edge">
<title>Node3&#45;&gt;Node5</title>
<path fill="none" stroke="#191970" d="M98.5946,-324.4202C79.8583,-316.3108 59.5974,-304.5033 46,-288 31.154,-269.9813 25.4902,-243.1572 23.3303,-225.0302"/>
<polygon fill="#191970" stroke="#191970" points="26.8102,-224.6514 22.3874,-215.0239 19.841,-225.3081 26.8102,-224.6514"/>
</g>
<!-- Node6 -->
<g id="node7" class="node">
<title>Node6</title>
<polygon fill="none" stroke="#bfbfbf" points="525,-129 525,-148 577,-148 577,-129 525,-129"/>
<text text-anchor="middle" x="551" y="-136" font-family="Helvetica,sans-Serif" font-size="10.00" fill="#000000">memory</text>
</g>
<!-- Node3&#45;&gt;Node6 -->
<g id="edge6" class="edge">
<title>Node3&#45;&gt;Node6</title>
<path fill="none" stroke="#191970" d="M216.3824,-326.5131C251.9251,-318.3332 295.0221,-305.8754 331,-288 353.0113,-277.0638 400.2402,-236.8798 419,-221 434.3592,-207.9987 435.5863,-201.6417 452,-190 473.0497,-175.0702 498.9971,-161.7341 519.0464,-152.3752"/>
<polygon fill="#191970" stroke="#191970" points="520.7302,-155.4538 528.3677,-148.1108 517.8181,-149.0884 520.7302,-155.4538"/>
</g>
<!-- Node7&#45;&gt;Node4 -->
<g id="edge10" class="edge">
<title>Node7&#45;&gt;Node4</title>
<path fill="none" stroke="#191970" d="M291.615,-324.4333C257.2297,-314.4138 211.3251,-300.7916 171,-288 168.2136,-287.1161 165.3378,-286.1872 162.4479,-285.2417"/>
<polygon fill="#191970" stroke="#191970" points="163.2713,-281.8274 152.6779,-282.0042 161.0694,-288.4721 163.2713,-281.8274"/>
</g>
<!-- Node7&#45;&gt;Node5 -->
<g id="edge8" class="edge">
<title>Node7&#45;&gt;Node5</title>
<path fill="none" stroke="#191970" d="M273.816,-328.6678C200.9098,-316.9714 95.2056,-298.5959 79,-288 55.4095,-272.5755 38.8595,-243.6634 29.8802,-224.493"/>
<polygon fill="#191970" stroke="#191970" points="33.0286,-222.9587 25.7755,-215.2357 26.6294,-225.7961 33.0286,-222.9587"/>
</g>
<!-- Node7&#45;&gt;Node6 -->
<g id="edge9" class="edge">
<title>Node7&#45;&gt;Node6</title>
<path fill="none" stroke="#191970" d="M353.9202,-324.3221C365.5612,-307.0711 385.9605,-278.5198 407,-257 424.9052,-238.686 432.161,-237.1992 452,-221 479.9011,-198.2179 511.8646,-171.4608 531.7453,-154.7393"/>
<polygon fill="#191970" stroke="#191970" points="534.0832,-157.3463 539.4787,-148.2282 529.5747,-151.9914 534.0832,-157.3463"/>
</g>
<!-- Node8 -->
<g id="node9" class="node">
<title>Node8</title>
<g id="a_node9"><a xlink:href="Advanceable_8h.html" target="_top" xlink:title="BipedalLocomotion/System\l/Advanceable.h">
<polygon fill="none" stroke="#000000" points="416,-257.5 416,-287.5 552,-287.5 552,-257.5 416,-257.5"/>
<text text-anchor="start" x="424" y="-275.5" font-family="Helvetica,sans-Serif" font-size="10.00" fill="#000000">BipedalLocomotion/System</text>
<text text-anchor="middle" x="484" y="-264.5" font-family="Helvetica,sans-Serif" font-size="10.00" fill="#000000">/Advanceable.h</text>
</a>
</g>
</g>
<!-- Node7&#45;&gt;Node8 -->
<g id="edge11" class="edge">
<title>Node7&#45;&gt;Node8</title>
<path fill="none" stroke="#191970" d="M375.4187,-324.4639C395.363,-314.9191 421.3839,-302.4663 442.9529,-292.144"/>
<polygon fill="#191970" stroke="#191970" points="444.6924,-295.1917 452.2017,-287.7177 441.6706,-288.8775 444.6924,-295.1917"/>
</g>
<!-- Node9&#45;&gt;Node6 -->
<g id="edge13" class="edge">
<title>Node9&#45;&gt;Node6</title>
<path fill="none" stroke="#191970" d="M540.1047,-391.4401C555.6936,-383.17 572.1259,-371.2334 581,-355 616.1762,-290.6524 601.6259,-260.6597 582,-190 578.6137,-177.8081 571.4809,-165.6123 564.9103,-156.1512"/>
<polygon fill="#191970" stroke="#191970" points="567.6666,-153.9916 558.9234,-148.0077 562.0267,-158.1379 567.6666,-153.9916"/>
</g>
<!-- Node10 -->
<g id="node11" class="node">
<title>Node10</title>
<g id="a_node11"><a xlink:href="DCMPlanner_8h.html" target="_top" xlink:title="BipedalLocomotion/Planners\l/DCMPlanner.h">
<polygon fill="none" stroke="#000000" points="432,-324.5 432,-354.5 572,-354.5 572,-324.5 432,-324.5"/>
<text text-anchor="start" x="440" y="-342.5" font-family="Helvetica,sans-Serif" font-size="10.00" fill="#000000">BipedalLocomotion/Planners</text>
<text text-anchor="middle" x="502" y="-331.5" font-family="Helvetica,sans-Serif" font-size="10.00" fill="#000000">/DCMPlanner.h</text>
</a>
</g>
</g>
<!-- Node9&#45;&gt;Node10 -->
<g id="edge14" class="edge">
<title>Node9&#45;&gt;Node10</title>
<path fill="none" stroke="#191970" d="M502,-391.2967C502,-383.5013 502,-373.7991 502,-364.9064"/>
<polygon fill="#191970" stroke="#191970" points="505.5001,-364.6431 502,-354.6432 498.5001,-364.6432 505.5001,-364.6431"/>
</g>
<!-- Node10&#45;&gt;Node4 -->
<g id="edge16" class="edge">
<title>Node10&#45;&gt;Node4</title>
<path fill="none" stroke="#191970" d="M431.8233,-325.5352C428.8446,-325.0044 425.8939,-324.4903 423,-324 311.4523,-305.1024 281.0681,-314.1729 171,-288 167.5335,-287.1757 163.9572,-286.2009 160.4021,-285.1477"/>
<polygon fill="#191970" stroke="#191970" points="161.1371,-281.7094 150.5472,-282.0323 159.0271,-288.3839 161.1371,-281.7094"/>
</g>
<!-- Node10&#45;&gt;Node6 -->
<g id="edge15" class="edge">
<title>Node10&#45;&gt;Node6</title>
<path fill="none" stroke="#191970" d="M527.9313,-324.3533C540.4154,-315.5052 554.1367,-303.1011 561,-288 580.6512,-244.7624 567.1856,-187.1556 557.8452,-157.6685"/>
<polygon fill="#191970" stroke="#191970" points="561.154,-156.5268 554.6596,-148.1558 554.5163,-158.7496 561.154,-156.5268"/>
</g>
<!-- Node10&#45;&gt;Node8 -->
<g id="edge50" class="edge">
<title>Node10&#45;&gt;Node8</title>
<path fill="none" stroke="#191970" d="M497.9155,-324.2967C495.7752,-316.3299 493.0999,-306.3718 490.6684,-297.3213"/>
<polygon fill="#191970" stroke="#191970" points="494.0431,-296.3926 488.0683,-287.6432 487.2828,-298.2088 494.0431,-296.3926"/>
</g>
<!-- Node11 -->
<g id="node12" class="node">
<title>Node11</title>
<g id="a_node12"><a xlink:href="IParametersHandler_8h.html" target="_top" xlink:title="BipedalLocomotion/Parameters\lHandler/IParametersHandler.h">
<polygon fill="none" stroke="#000000" points="684,-257.5 684,-287.5 836,-287.5 836,-257.5 684,-257.5"/>
<text text-anchor="start" x="692" y="-275.5" font-family="Helvetica,sans-Serif" font-size="10.00" fill="#000000">BipedalLocomotion/Parameters</text>
<text text-anchor="middle" x="760" y="-264.5" font-family="Helvetica,sans-Serif" font-size="10.00" fill="#000000">Handler/IParametersHandler.h</text>
</a>
</g>
</g>
<!-- Node10&#45;&gt;Node11 -->
<g id="edge17" class="edge">
<title>Node10&#45;&gt;Node11</title>
<path fill="none" stroke="#191970" d="M559.9002,-324.4639C599.0169,-314.3057 650.8179,-300.8535 691.9134,-290.1814"/>
<polygon fill="#191970" stroke="#191970" points="693.048,-293.5029 701.8472,-287.6017 691.2885,-286.7277 693.048,-293.5029"/>
</g>
<!-- Node22 -->
<g id="node23" class="node">
<title>Node22</title>
<g id="a_node23"><a xlink:href="ContactPhaseList_8h_source.html" target="_top" xlink:title="BipedalLocomotion/Contacts\l/ContactPhaseList.h">
<polygon fill="none" stroke="#000000" points="180,-257.5 180,-287.5 322,-287.5 322,-257.5 180,-257.5"/>
<text text-anchor="start" x="188" y="-275.5" font-family="Helvetica,sans-Serif" font-size="10.00" fill="#000000">BipedalLocomotion/Contacts</text>
<text text-anchor="middle" x="251" y="-264.5" font-family="Helvetica,sans-Serif" font-size="10.00" fill="#000000">/ContactPhaseList.h</text>
</a>
</g>
</g>
<!-- Node10&#45;&gt;Node22 -->
<g id="edge32" class="edge">
<title>Node10&#45;&gt;Node22</title>
<path fill="none" stroke="#191970" d="M445.6707,-324.4639C407.6153,-314.3057 357.2198,-300.8535 317.2393,-290.1814"/>
<polygon fill="#191970" stroke="#191970" points="318.1394,-286.7992 307.575,-287.6017 316.334,-293.5624 318.1394,-286.7992"/>
</g>
<!-- Node11&#45;&gt;Node5 -->
<g id="edge20" class="edge">
<title>Node11&#45;&gt;Node5</title>
<path fill="none" stroke="#191970" d="M683.7684,-266.5474C527.8954,-254.3365 182.8231,-227.0888 129,-221 103.7901,-218.1481 75.3729,-213.9868 54.163,-210.6938"/>
<polygon fill="#191970" stroke="#191970" points="54.5022,-207.2043 44.0801,-209.1096 53.4157,-214.1194 54.5022,-207.2043"/>
</g>
<!-- Node11&#45;&gt;Node6 -->
<g id="edge18" class="edge">
<title>Node11&#45;&gt;Node6</title>
<path fill="none" stroke="#191970" d="M746.5902,-257.4607C730.0026,-239.551 700.2356,-209.6023 670,-190 655.4052,-180.538 615.0693,-163.7337 585.387,-151.8991"/>
<polygon fill="#191970" stroke="#191970" points="586.3679,-148.5231 575.7817,-148.0939 583.7897,-155.031 586.3679,-148.5231"/>
</g>
<!-- Node12 -->
<g id="node13" class="node">
<title>Node12</title>
<polygon fill="none" stroke="#bfbfbf" points="319.5,-.5 319.5,-19.5 360.5,-19.5 360.5,-.5 319.5,-.5"/>
<text text-anchor="middle" x="340" y="-7.5" font-family="Helvetica,sans-Serif" font-size="10.00" fill="#000000">string</text>
</g>
<!-- Node11&#45;&gt;Node12 -->
<g id="edge19" class="edge">
<title>Node11&#45;&gt;Node12</title>
<path fill="none" stroke="#191970" d="M809.1087,-257.4226C829.1244,-249.2693 851.2177,-237.4281 867,-221 898.4683,-188.244 924.525,-158.3487 896,-123 829.0194,-39.9964 477.4744,-16.5603 370.7511,-11.3094"/>
<polygon fill="#191970" stroke="#191970" points="370.7974,-7.8078 360.6431,-10.8311 370.4664,-14.7999 370.7974,-7.8078"/>
</g>
<!-- Node13 -->
<g id="node14" class="node">
<title>Node13</title>
<g id="a_node14"><a xlink:href="Vector_8h_source.html" target="_top" xlink:title="BipedalLocomotion/Generic\lContainer/Vector.h">
<polygon fill="none" stroke="#000000" points="722,-190.5 722,-220.5 858,-220.5 858,-190.5 722,-190.5"/>
<text text-anchor="start" x="730" y="-208.5" font-family="Helvetica,sans-Serif" font-size="10.00" fill="#000000">BipedalLocomotion/Generic</text>
<text text-anchor="middle" x="790" y="-197.5" font-family="Helvetica,sans-Serif" font-size="10.00" fill="#000000">Container/Vector.h</text>
</a>
</g>
</g>
<!-- Node11&#45;&gt;Node13 -->
<g id="edge21" class="edge">
<title>Node11&#45;&gt;Node13</title>
<path fill="none" stroke="#191970" d="M766.8075,-257.2967C770.413,-249.2443 774.9295,-239.1574 779.0166,-230.0296"/>
<polygon fill="#191970" stroke="#191970" points="782.3272,-231.2004 783.2195,-220.6432 775.9384,-228.3397 782.3272,-231.2004"/>
</g>
<!-- Node15 -->
<g id="node16" class="node">
<title>Node15</title>
<g id="a_node16"><a xlink:href="TemplateHelpers_8h_source.html" target="_top" xlink:title="BipedalLocomotion/Generic\lContainer/TemplateHelpers.h">
<polygon fill="none" stroke="#000000" points="965,-123.5 965,-153.5 1109,-153.5 1109,-123.5 965,-123.5"/>
<text text-anchor="start" x="973" y="-141.5" font-family="Helvetica,sans-Serif" font-size="10.00" fill="#000000">BipedalLocomotion/Generic</text>
<text text-anchor="middle" x="1037" y="-130.5" font-family="Helvetica,sans-Serif" font-size="10.00" fill="#000000">Container/TemplateHelpers.h</text>
</a>
</g>
</g>
<!-- Node11&#45;&gt;Node15 -->
<g id="edge31" class="edge">
<title>Node11&#45;&gt;Node15</title>
<path fill="none" stroke="#191970" d="M828.7675,-257.4951C860.3255,-249.1303 897.6167,-237.1024 929,-221 960.6907,-204.7399 992.5614,-178.9685 1013.3798,-160.5574"/>
<polygon fill="#191970" stroke="#191970" points="1015.9624,-162.9422 1021.0598,-153.6542 1011.2829,-157.7362 1015.9624,-162.9422"/>
</g>
<!-- Node13&#45;&gt;Node6 -->
<g id="edge30" class="edge">
<title>Node13&#45;&gt;Node6</title>
<path fill="none" stroke="#191970" d="M724.0202,-190.4679C685.0091,-181.0745 634.821,-168.1077 591,-154 588.727,-153.2682 586.3959,-152.4766 584.057,-151.6517"/>
<polygon fill="#191970" stroke="#191970" points="585.1195,-148.3132 574.526,-148.1402 582.6995,-154.8816 585.1195,-148.3132"/>
</g>
<!-- Node14 -->
<g id="node15" class="node">
<title>Node14</title>
<polygon fill="none" stroke="#bfbfbf" points="633,-129 633,-148 747,-148 747,-129 633,-129"/>
<text text-anchor="middle" x="690" y="-136" font-family="Helvetica,sans-Serif" font-size="10.00" fill="#000000">iDynTree/Core/Span.h</text>
</g>
<!-- Node13&#45;&gt;Node14 -->
<g id="edge22" class="edge">
<title>Node13&#45;&gt;Node14</title>
<path fill="none" stroke="#191970" d="M767.3085,-190.2967C750.9717,-179.351 729.0241,-164.6462 712.6881,-153.701"/>
<polygon fill="#191970" stroke="#191970" points="714.517,-150.7135 704.2612,-148.055 710.6207,-156.5289 714.517,-150.7135"/>
</g>
<!-- Node13&#45;&gt;Node15 -->
<g id="edge23" class="edge">
<title>Node13&#45;&gt;Node15</title>
<path fill="none" stroke="#191970" d="M845.4316,-190.4639C882.8014,-180.3272 932.2633,-166.9104 971.5666,-156.2491"/>
<polygon fill="#191970" stroke="#191970" points="972.5917,-159.5976 981.3266,-153.6017 970.7591,-152.8418 972.5917,-159.5976"/>
</g>
<!-- Node19 -->
<g id="node20" class="node">
<title>Node19</title>
<polygon fill="none" stroke="#bfbfbf" points="517.5,-62 517.5,-81 576.5,-81 576.5,-62 517.5,-62"/>
<text text-anchor="middle" x="547" y="-69" font-family="Helvetica,sans-Serif" font-size="10.00" fill="#000000">functional</text>
</g>
<!-- Node13&#45;&gt;Node19 -->
<g id="edge27" class="edge">
<title>Node13&#45;&gt;Node19</title>
<path fill="none" stroke="#191970" d="M721.9644,-192.8305C690.5127,-184.9212 653.6496,-172.6031 624,-154 596.902,-136.9978 573.0467,-108.1223 559.3214,-89.4362"/>
<polygon fill="#191970" stroke="#191970" points="562.0856,-87.2844 553.4274,-81.1782 556.388,-91.351 562.0856,-87.2844"/>
</g>
<!-- Node20 -->
<g id="node21" class="node">
<title>Node20</title>
<polygon fill="none" stroke="#bfbfbf" points="765.5,-129 765.5,-148 814.5,-148 814.5,-129 765.5,-129"/>
<text text-anchor="middle" x="790" y="-136" font-family="Helvetica,sans-Serif" font-size="10.00" fill="#000000">cassert</text>
</g>
<!-- Node13&#45;&gt;Node20 -->
<g id="edge28" class="edge">
<title>Node13&#45;&gt;Node20</title>
<path fill="none" stroke="#191970" d="M790,-190.2967C790,-180.7699 790,-168.3954 790,-158.1306"/>
<polygon fill="#191970" stroke="#191970" points="793.5001,-158.0549 790,-148.055 786.5001,-158.055 793.5001,-158.0549"/>
</g>
<!-- Node21 -->
<g id="node22" class="node">
<title>Node21</title>
<polygon fill="none" stroke="#bfbfbf" points="833,-129 833,-148 887,-148 887,-129 833,-129"/>
<text text-anchor="middle" x="860" y="-136" font-family="Helvetica,sans-Serif" font-size="10.00" fill="#000000">iostream</text>
</g>
<!-- Node13&#45;&gt;Node21 -->
<g id="edge29" class="edge">
<title>Node13&#45;&gt;Node21</title>
<path fill="none" stroke="#191970" d="M805.8841,-190.2967C816.7904,-179.8578 831.269,-165.9997 842.5056,-155.2446"/>
<polygon fill="#191970" stroke="#191970" points="845.2131,-157.498 850.0172,-148.055 840.3729,-152.4411 845.2131,-157.498"/>
</g>
<!-- Node16 -->
<g id="node17" class="node">
<title>Node16</title>
<polygon fill="none" stroke="#bfbfbf" points="1027,-62 1027,-81 1089,-81 1089,-62 1027,-62"/>
<text text-anchor="middle" x="1058" y="-69" font-family="Helvetica,sans-Serif" font-size="10.00" fill="#000000">type_traits</text>
</g>
<!-- Node15&#45;&gt;Node16 -->
<g id="edge24" class="edge">
<title>Node15&#45;&gt;Node16</title>
<path fill="none" stroke="#191970" d="M1041.7652,-123.2967C1044.783,-113.6685 1048.7124,-101.1318 1051.9496,-90.8038"/>
<polygon fill="#191970" stroke="#191970" points="1055.354,-91.6441 1055.0052,-81.055 1048.6744,-89.5504 1055.354,-91.6441"/>
</g>
<!-- Node17 -->
<g id="node18" class="node">
<title>Node17</title>
<polygon fill="none" stroke="#bfbfbf" points="1107,-62 1107,-81 1173,-81 1173,-62 1107,-62"/>
<text text-anchor="middle" x="1140" y="-69" font-family="Helvetica,sans-Serif" font-size="10.00" fill="#000000">string_view</text>
</g>
<!-- Node15&#45;&gt;Node17 -->
<g id="edge25" class="edge">
<title>Node15&#45;&gt;Node17</title>
<path fill="none" stroke="#191970" d="M1060.1152,-123.4639C1076.9302,-112.526 1099.6163,-97.769 1116.5162,-86.7759"/>
<polygon fill="#191970" stroke="#191970" points="1118.7616,-89.4906 1125.2358,-81.1039 1114.9447,-83.6228 1118.7616,-89.4906"/>
</g>
<!-- Node18 -->
<g id="node19" class="node">
<title>Node18</title>
<polygon fill="none" stroke="#bfbfbf" points="943.5,-62 943.5,-81 1008.5,-81 1008.5,-62 943.5,-62"/>
<text text-anchor="middle" x="976" y="-69" font-family="Helvetica,sans-Serif" font-size="10.00" fill="#000000">Eigen/Core</text>
</g>
<!-- Node15&#45;&gt;Node18 -->
<g id="edge26" class="edge">
<title>Node15&#45;&gt;Node18</title>
<path fill="none" stroke="#191970" d="M1023.1582,-123.2967C1013.7463,-112.9591 1001.2817,-99.2684 991.5311,-88.5588"/>
<polygon fill="#191970" stroke="#191970" points="994.0196,-86.0931 984.6993,-81.055 988.8435,-90.8057 994.0196,-86.0931"/>
</g>
<!-- Node22&#45;&gt;Node5 -->
<g id="edge49" class="edge">
<title>Node22&#45;&gt;Node5</title>
<path fill="none" stroke="#191970" d="M185.069,-257.4362C147.4379,-248.2117 99.6137,-235.4244 58,-221 56.1194,-220.3481 54.1986,-219.6429 52.2713,-218.905"/>
<polygon fill="#191970" stroke="#191970" points="53.3192,-215.5531 42.7369,-215.0389 50.6888,-222.0401 53.3192,-215.5531"/>
</g>
<!-- Node23 -->
<g id="node24" class="node">
<title>Node23</title>
<g id="a_node24"><a xlink:href="Contact_8h.html" target="_top" xlink:title="BipedalLocomotion/Contacts\l/Contact.h">
<polygon fill="none" stroke="#000000" points="80,-56.5 80,-86.5 222,-86.5 222,-56.5 80,-56.5"/>
<text text-anchor="start" x="88" y="-74.5" font-family="Helvetica,sans-Serif" font-size="10.00" fill="#000000">BipedalLocomotion/Contacts</text>
<text text-anchor="middle" x="151" y="-63.5" font-family="Helvetica,sans-Serif" font-size="10.00" fill="#000000">/Contact.h</text>
</a>
</g>
</g>
<!-- Node22&#45;&gt;Node23 -->
<g id="edge33" class="edge">
<title>Node22&#45;&gt;Node23</title>
<path fill="none" stroke="#191970" d="M182.9557,-257.4634C160.3524,-249.6867 136.5125,-238.0995 119,-221 86.5893,-189.3536 72.0858,-164.1607 91,-123 96.5179,-110.9921 106.3701,-100.7327 116.5168,-92.6048"/>
<polygon fill="#191970" stroke="#191970" points="118.7134,-95.3328 124.6401,-86.5507 114.5304,-89.7201 118.7134,-95.3328"/>
</g>
<!-- Node25 -->
<g id="node26" class="node">
<title>Node25</title>
<g id="a_node26"><a xlink:href="ContactList_8h.html" target="_top" xlink:title="BipedalLocomotion/Contacts\l/ContactList.h">
<polygon fill="none" stroke="#000000" points="278,-123.5 278,-153.5 420,-153.5 420,-123.5 278,-123.5"/>
<text text-anchor="start" x="286" y="-141.5" font-family="Helvetica,sans-Serif" font-size="10.00" fill="#000000">BipedalLocomotion/Contacts</text>
<text text-anchor="middle" x="349" y="-130.5" font-family="Helvetica,sans-Serif" font-size="10.00" fill="#000000">/ContactList.h</text>
</a>
</g>
</g>
<!-- Node22&#45;&gt;Node25 -->
<g id="edge36" class="edge">
<title>Node22&#45;&gt;Node25</title>
<path fill="none" stroke="#191970" d="M262.3344,-257.1967C269.9033,-246.9633 280.0697,-233.1906 289,-221 303.4823,-201.2305 319.8386,-178.7289 331.8118,-162.2248"/>
<polygon fill="#191970" stroke="#191970" points="334.9359,-163.8786 337.9728,-153.7283 329.2689,-159.7693 334.9359,-163.8786"/>
</g>
<!-- Node28 -->
<g id="node29" class="node">
<title>Node28</title>
<g id="a_node29"><a xlink:href="ContactPhase_8h.html" target="_top" xlink:title="BipedalLocomotion/Contacts\l/ContactPhase.h">
<polygon fill="none" stroke="#000000" points="138,-190.5 138,-220.5 280,-220.5 280,-190.5 138,-190.5"/>
<text text-anchor="start" x="146" y="-208.5" font-family="Helvetica,sans-Serif" font-size="10.00" fill="#000000">BipedalLocomotion/Contacts</text>
<text text-anchor="middle" x="209" y="-197.5" font-family="Helvetica,sans-Serif" font-size="10.00" fill="#000000">/ContactPhase.h</text>
</a>
</g>
</g>
<!-- Node22&#45;&gt;Node28 -->
<g id="edge42" class="edge">
<title>Node22&#45;&gt;Node28</title>
<path fill="none" stroke="#191970" d="M241.4695,-257.2967C236.2607,-248.9873 229.6937,-238.5115 223.8308,-229.1587"/>
<polygon fill="#191970" stroke="#191970" points="226.7696,-227.2571 218.4927,-220.6432 220.8386,-230.975 226.7696,-227.2571"/>
</g>
<!-- Node29 -->
<g id="node30" class="node">
<title>Node29</title>
<polygon fill="none" stroke="#bfbfbf" points="100.5,-129 100.5,-148 183.5,-148 183.5,-129 100.5,-129"/>
<text text-anchor="middle" x="142" y="-136" font-family="Helvetica,sans-Serif" font-size="10.00" fill="#000000">unordered_map</text>
</g>
<!-- Node22&#45;&gt;Node29 -->
<g id="edge47" class="edge">
<title>Node22&#45;&gt;Node29</title>
<path fill="none" stroke="#191970" d="M179.9783,-258.1221C160.1511,-250.4862 140.8187,-238.8176 129,-221 116.3452,-201.9219 124.2455,-174.9946 132.1595,-157.1574"/>
<polygon fill="#191970" stroke="#191970" points="135.3545,-158.5897 136.5461,-148.0621 129.0495,-155.5488 135.3545,-158.5897"/>
</g>
<!-- Node30 -->
<g id="node31" class="node">
<title>Node30</title>
<polygon fill="none" stroke="#bfbfbf" points="336.5,-196 336.5,-215 409.5,-215 409.5,-196 336.5,-196"/>
<text text-anchor="middle" x="373" y="-203" font-family="Helvetica,sans-Serif" font-size="10.00" fill="#000000">initializer_list</text>
</g>
<!-- Node22&#45;&gt;Node30 -->
<g id="edge48" class="edge">
<title>Node22&#45;&gt;Node30</title>
<path fill="none" stroke="#191970" d="M278.3792,-257.4639C298.757,-246.2728 326.4146,-231.0838 346.5632,-220.0186"/>
<polygon fill="#191970" stroke="#191970" points="348.4319,-222.9855 355.5123,-215.1039 345.0623,-216.8498 348.4319,-222.9855"/>
</g>
<!-- Node23&#45;&gt;Node12 -->
<g id="edge35" class="edge">
<title>Node23&#45;&gt;Node12</title>
<path fill="none" stroke="#191970" d="M197.2346,-56.4554C232.1883,-45.0816 279.1845,-29.7892 309.5369,-19.9126"/>
<polygon fill="#191970" stroke="#191970" points="310.7247,-23.2068 319.1509,-16.7842 308.5586,-16.5503 310.7247,-23.2068"/>
</g>
<!-- Node24 -->
<g id="node25" class="node">
<title>Node24</title>
<polygon fill="none" stroke="#bfbfbf" points="115.5,-.5 115.5,-19.5 186.5,-19.5 186.5,-.5 115.5,-.5"/>
<text text-anchor="middle" x="151" y="-7.5" font-family="Helvetica,sans-Serif" font-size="10.00" fill="#000000">manif/SE3.h</text>
</g>
<!-- Node23&#45;&gt;Node24 -->
<g id="edge34" class="edge">
<title>Node23&#45;&gt;Node24</title>
<path fill="none" stroke="#191970" d="M151,-56.2977C151,-48.3834 151,-38.6043 151,-30.0759"/>
<polygon fill="#191970" stroke="#191970" points="154.5001,-29.8469 151,-19.8469 147.5001,-29.847 154.5001,-29.8469"/>
</g>
<!-- Node25&#45;&gt;Node12 -->
<g id="edge40" class="edge">
<title>Node25&#45;&gt;Node12</title>
<path fill="none" stroke="#191970" d="M376.5389,-123.4269C389.5618,-114.6707 403.8063,-102.3272 411,-87 416.8538,-74.5276 417.5807,-68.1046 411,-56 402.2278,-39.8643 385.085,-28.5165 369.8421,-21.1292"/>
<polygon fill="#191970" stroke="#191970" points="371.2461,-17.923 360.6886,-17.0339 368.3873,-24.3127 371.2461,-17.923"/>
</g>
<!-- Node25&#45;&gt;Node19 -->
<g id="edge41" class="edge">
<title>Node25&#45;&gt;Node19</title>
<path fill="none" stroke="#191970" d="M393.4351,-123.4639C428.2567,-111.6808 476.1761,-95.4657 509.1778,-84.2984"/>
<polygon fill="#191970" stroke="#191970" points="510.5592,-87.526 518.9098,-81.0053 508.3155,-80.8953 510.5592,-87.526"/>
</g>
<!-- Node25&#45;&gt;Node23 -->
<g id="edge37" class="edge">
<title>Node25&#45;&gt;Node23</title>
<path fill="none" stroke="#191970" d="M304.5649,-123.4639C275.2433,-113.5419 236.6347,-100.4774 205.466,-89.9304"/>
<polygon fill="#191970" stroke="#191970" points="206.2231,-86.4917 195.6289,-86.6017 203.9794,-93.1224 206.2231,-86.4917"/>
</g>
<!-- Node26 -->
<g id="node27" class="node">
<title>Node26</title>
<polygon fill="none" stroke="#bfbfbf" points="278,-62 278,-81 354,-81 354,-62 278,-62"/>
<text text-anchor="middle" x="316" y="-69" font-family="Helvetica,sans-Serif" font-size="10.00" fill="#000000">manif/manif.h</text>
</g>
<!-- Node25&#45;&gt;Node26 -->
<g id="edge38" class="edge">
<title>Node25&#45;&gt;Node26</title>
<path fill="none" stroke="#191970" d="M341.5118,-123.2967C336.6697,-113.4658 330.3341,-100.6026 325.188,-90.1545"/>
<polygon fill="#191970" stroke="#191970" points="328.2645,-88.4794 320.7062,-81.055 321.9849,-91.5724 328.2645,-88.4794"/>
</g>
<!-- Node27 -->
<g id="node28" class="node">
<title>Node27</title>
<polygon fill="none" stroke="#bfbfbf" points="372,-62 372,-81 402,-81 402,-62 372,-62"/>
<text text-anchor="middle" x="387" y="-69" font-family="Helvetica,sans-Serif" font-size="10.00" fill="#000000">set</text>
</g>
<!-- Node25&#45;&gt;Node27 -->
<g id="edge39" class="edge">
<title>Node25&#45;&gt;Node27</title>
<path fill="none" stroke="#191970" d="M357.6228,-123.2967C363.256,-113.3645 370.6447,-100.3371 376.6027,-89.8321"/>
<polygon fill="#191970" stroke="#191970" points="379.6917,-91.4801 381.5808,-81.055 373.6029,-88.0266 379.6917,-91.4801"/>
</g>
<!-- Node28&#45;&gt;Node12 -->
<g id="edge46" class="edge">
<title>Node28&#45;&gt;Node12</title>
<path fill="none" stroke="#191970" d="M211.8795,-190.3652C218.0118,-161.482 234.6926,-97.671 269,-56 280.1804,-42.4199 296.4394,-31.4783 310.578,-23.6787"/>
<polygon fill="#191970" stroke="#191970" points="312.2543,-26.7517 319.4882,-19.0108 309.0059,-20.5511 312.2543,-26.7517"/>
</g>
<!-- Node28&#45;&gt;Node23 -->
<g id="edge43" class="edge">
<title>Node28&#45;&gt;Node23</title>
<path fill="none" stroke="#191970" d="M207.9899,-190.2317C206.3842,-173.1479 202.2914,-144.9861 192,-123 187.227,-112.8031 180.0558,-102.8275 173.039,-94.4131"/>
<polygon fill="#191970" stroke="#191970" points="175.6592,-92.0924 166.4422,-86.8676 170.3892,-96.6998 175.6592,-92.0924"/>
</g>
<!-- Node28&#45;&gt;Node25 -->
<g id="edge44" class="edge">
<title>Node28&#45;&gt;Node25</title>
<path fill="none" stroke="#191970" d="M240.4187,-190.4639C260.363,-180.9191 286.3839,-168.4663 307.9529,-158.144"/>
<polygon fill="#191970" stroke="#191970" points="309.6924,-161.1917 317.2017,-153.7177 306.6706,-154.8775 309.6924,-161.1917"/>
</g>
<!-- Node28&#45;&gt;Node29 -->
<g id="edge45" class="edge">
<title>Node28&#45;&gt;Node29</title>
<path fill="none" stroke="#191970" d="M193.7967,-190.2967C183.3578,-179.8578 169.4997,-165.9997 158.7446,-155.2446"/>
<polygon fill="#191970" stroke="#191970" points="161.101,-152.6512 151.555,-148.055 156.1512,-157.601 161.101,-152.6512"/>
</g>
<!-- Node31&#45;&gt;Node6 -->
<g id="edge52" class="edge">
<title>Node31&#45;&gt;Node6</title>
<path fill="none" stroke="#191970" d="M804.914,-328.3194C755.7265,-319.0577 694.6313,-304.7338 675,-288 638.8022,-257.1448 662.9667,-226.1024 632,-190 623.9558,-180.6217 598.0525,-164.8282 577.6792,-153.1983"/>
<polygon fill="#191970" stroke="#191970" points="579.2212,-150.0497 568.7916,-148.1858 575.7824,-156.1469 579.2212,-150.0497"/>
</g>
<!-- Node31&#45;&gt;Node11 -->
<g id="edge55" class="edge">
<title>Node31&#45;&gt;Node11</title>
<path fill="none" stroke="#191970" d="M847.6406,-324.4639C831.9037,-315.1332 811.4795,-303.0232 794.3072,-292.8415"/>
<polygon fill="#191970" stroke="#191970" points="796.0525,-289.8073 785.6657,-287.7177 792.4824,-295.8285 796.0525,-289.8073"/>
</g>
<!-- Node31&#45;&gt;Node15 -->
<g id="edge54" class="edge">
<title>Node31&#45;&gt;Node15</title>
<path fill="none" stroke="#191970" d="M941.2464,-328.9293C986.86,-320.3098 1040.9858,-306.5301 1055,-288 1082.5815,-251.5309 1064.0717,-195.1086 1049.5773,-163.022"/>
<polygon fill="#191970" stroke="#191970" points="1052.7008,-161.44 1045.2634,-153.8945 1046.3721,-164.4311 1052.7008,-161.44"/>
</g>
<!-- Node32 -->
<g id="node33" class="node">
<title>Node32</title>
<polygon fill="none" stroke="#bfbfbf" points="854,-263 854,-282 892,-282 892,-263 854,-263"/>
<text text-anchor="middle" x="873" y="-270" font-family="Helvetica,sans-Serif" font-size="10.00" fill="#000000">tuple</text>
</g>
<!-- Node31&#45;&gt;Node32 -->
<g id="edge53" class="edge">
<title>Node31&#45;&gt;Node32</title>
<path fill="none" stroke="#191970" d="M873,-324.2967C873,-314.7699 873,-302.3954 873,-292.1306"/>
<polygon fill="#191970" stroke="#191970" points="876.5001,-292.0549 873,-282.055 869.5001,-292.055 876.5001,-292.0549"/>
</g>
<!-- Node33 -->
<g id="node34" class="node">
<title>Node33</title>
<g id="a_node34"><a xlink:href="DynamicalSystem_8tpp.html" target="_top" xlink:title="BipedalLocomotion/System\l/DynamicalSystem.tpp">
<polygon fill="none" stroke="#000000" points="910,-257.5 910,-287.5 1046,-287.5 1046,-257.5 910,-257.5"/>
<text text-anchor="start" x="918" y="-275.5" font-family="Helvetica,sans-Serif" font-size="10.00" fill="#000000">BipedalLocomotion/System</text>
<text text-anchor="middle" x="978" y="-264.5" font-family="Helvetica,sans-Serif" font-size="10.00" fill="#000000">/DynamicalSystem.tpp</text>
</a>
</g>
</g>
<!-- Node31&#45;&gt;Node33 -->
<g id="edge56" class="edge">
<title>Node31&#45;&gt;Node33</title>
<path fill="none" stroke="#191970" d="M891.0653,-324.2967C904.4493,-315.045 922.9847,-303.1076 939.5557,-293.025"/>
<polygon fill="#191970" stroke="#191970" points="941.7448,-295.793 948.5146,-287.6432 938.1401,-289.7925 941.7448,-295.793"/>
</g>
<!-- Node33&#45;&gt;Node31 -->
<g id="edge57" class="edge">
<title>Node33&#45;&gt;Node31</title>
<path fill="none" stroke="#191970" d="M959.9139,-287.7177C946.4867,-296.9983 927.8828,-308.9774 911.2781,-319.0761"/>
<polygon fill="#191970" stroke="#191970" points="909.0763,-316.3156 902.3046,-324.4639 912.6796,-322.317 909.0763,-316.3156"/>
</g>
</g>
</svg>
        <g id="navigator" transform="translate(0 0)" fill="#404254">
                <rect fill="#f2f5e9" fill-opacity="0.5" stroke="#606060" stroke-width=".5" x="0" y="0" width="60" height="60"/>
                <use id="zoomplus" xlink:href="#zoomPlus" x="17" y="9" onmousedown="handleZoom(evt,'in')"/>
                <use id="zoomminus" xlink:href="#zoomMin" x="42" y="9" onmousedown="handleZoom(evt,'out')"/>
                <use id="reset" xlink:href="#resetDef" x="30" y="36" onmousedown="handleReset()"/>
                <g id="arrowUp" xlink:href="#dirArrow" transform="translate(30 24)" onmousedown="handlePan(0,-1)">
                  <use xlink:href="#rim" fill="#404040">
                        <set attributeName="fill" to="#808080" begin="arrowUp.mouseover" end="arrowUp.mouseout"/>
                  </use>
                  <path fill="none" stroke="white" stroke-width="1.5" d="M0,-3.0v7 M-2.5,-0.5L0,-3.0L2.5,-0.5"/>
                </g>
                <g id="arrowRight" xlink:href="#dirArrow" transform="rotate(90) translate(36 -43)" onmousedown="handlePan(1,0)">
                  <use xlink:href="#rim" fill="#404040">
                        <set attributeName="fill" to="#808080" begin="arrowRight.mouseover" end="arrowRight.mouseout"/>
                  </use>
                  <path fill="none" stroke="white" stroke-width="1.5" d="M0,-3.0v7 M-2.5,-0.5L0,-3.0L2.5,-0.5"/>
                </g>
                <g id="arrowDown" xlink:href="#dirArrow" transform="rotate(180) translate(-30 -48)" onmousedown="handlePan(0,1)">
                  <use xlink:href="#rim" fill="#404040">
                        <set attributeName="fill" to="#808080" begin="arrowDown.mouseover" end="arrowDown.mouseout"/>
                  </use>
                  <path fill="none" stroke="white" stroke-width="1.5" d="M0,-3.0v7 M-2.5,-0.5L0,-3.0L2.5,-0.5"/>
                </g>
                <g id="arrowLeft" xlink:href="#dirArrow" transform="rotate(270) translate(-36 17)" onmousedown="handlePan(-1,0)">
                  <use xlink:href="#rim" fill="#404040">
                        <set attributeName="fill" to="#808080" begin="arrowLeft.mouseover" end="arrowLeft.mouseout"/>
                  </use>
                  <path fill="none" stroke="white" stroke-width="1.5" d="M0,-3.0v7 M-2.5,-0.5L0,-3.0L2.5,-0.5"/>
                </g>
        </g>
        <svg viewBox="0 0 15 15" width="100%" height="30px" preserveAspectRatio="xMaxYMin meet">
         <g id="arrow_out" transform="scale(0.3 0.3)">
          <a xlink:href="TimeVaryingDCMPlanner_8cpp__incl_org.svg" target="_base">
           <rect id="button" ry="5" rx="5" y="6" x="6" height="38" width="38"
                fill="#f2f5e9" fill-opacity="0.5" stroke="#606060" stroke-width="1.0"/>
           <path id="arrow"
             d="M 11.500037,31.436501 C 11.940474,20.09759 22.043105,11.32322 32.158766,21.979434 L 37.068811,17.246167 C 37.068811,17.246167 37.088388,32 37.088388,32 L 22.160133,31.978069 C 22.160133,31.978069 26.997745,27.140456 26.997745,27.140456 C 18.528582,18.264221 13.291696,25.230495 11.500037,31.436501 z"
             style="fill:#404040;"/>
          </a>
         </g>
        </svg>
</svg>
