<?xml version="1.0" encoding="UTF-8" standalone="no"?>
<!DOCTYPE svg PUBLIC "-//W3C//DTD SVG 1.1//EN"
 "http://www.w3.org/Graphics/SVG/1.1/DTD/svg11.dtd">
<!-- Generated by graphviz version 2.40.1 (20161225.0304)
 -->
<!-- Title: Planners/include/BipedalLocomotion/Planners/TimeVaryingDCMPlanner.h Pages: 1 -->
<!--zoomable 441 -->
<svg id="main" version="1.1" xmlns="http://www.w3.org/2000/svg" xmlns:xlink="http://www.w3.org/1999/xlink" xml:space="preserve" onload="init(evt)">
<style type="text/css"><![CDATA[
.edge:hover path { stroke: red; }
.edge:hover polygon { stroke: red; fill: red; }
]]></style>
<script type="text/javascript"><![CDATA[
var edges = document.getElementsByTagName('g');
if (edges && edges.length) {
  for (var i=0;i<edges.length;i++) {
    if (edges[i].id.substr(0,4)=='edge') {
      edges[i].setAttribute('class','edge');
    }
  }
}
]]></script>
        <defs>
                <circle id="rim" cx="0" cy="0" r="7"/>
                <circle id="rim2" cx="0" cy="0" r="3.5"/>
                <g id="zoomPlus">
                        <use xlink:href="#rim" fill="#404040">
                                <set attributeName="fill" to="#808080" begin="zoomplus.mouseover" end="zoomplus.mouseout"/>
                        </use>
                        <path d="M-4,0h8M0,-4v8" fill="none" stroke="white" stroke-width="1.5" pointer-events="none"/>
                </g>
                <g id="zoomMin">
                        <use xlink:href="#rim" fill="#404040">
                                <set attributeName="fill" to="#808080" begin="zoomminus.mouseover" end="zoomminus.mouseout"/>
                        </use>
                        <path d="M-4,0h8" fill="none" stroke="white" stroke-width="1.5" pointer-events="none"/>
                </g>
                <g id="dirArrow">
                        <path fill="none" stroke="white" stroke-width="1.5" d="M0,-3.0v7 M-2.5,-0.5L0,-3.0L2.5,-0.5"/>
                </g>
               <g id="resetDef">
                       <use xlink:href="#rim2" fill="#404040">
                               <set attributeName="fill" to="#808080" begin="reset.mouseover" end="reset.mouseout"/>
                       </use>
               </g>
        </defs>

<script type="text/javascript">
var viewWidth = 1144;
var viewHeight = 441;
var sectionId = 'dynsection-0';
</script>
<script xlink:href="svgpan.js"/>
<svg id="graph" class="graph">
<g id="viewport">
<title>Planners/include/BipedalLocomotion/Planners/TimeVaryingDCMPlanner.h</title>
<!-- Node0 -->
<g id="node1" class="node">
<title>Node0</title>
<polygon fill="#bfbfbf" stroke="#000000" points="0,-391.5 0,-432.5 166,-432.5 166,-391.5 0,-391.5"/>
<text text-anchor="start" x="8" y="-420.5" font-family="Helvetica,sans-Serif" font-size="10.00" fill="#000000">Planners/include/Bipedal</text>
<text text-anchor="start" x="8" y="-409.5" font-family="Helvetica,sans-Serif" font-size="10.00" fill="#000000">Locomotion/Planners/TimeVarying</text>
<text text-anchor="middle" x="83" y="-398.5" font-family="Helvetica,sans-Serif" font-size="10.00" fill="#000000">DCMPlanner.h</text>
</g>
<!-- Node1 -->
<g id="node2" class="node">
<title>Node1</title>
<polygon fill="none" stroke="#bfbfbf" points="118,-129 118,-148 170,-148 170,-129 118,-129"/>
<text text-anchor="middle" x="144" y="-136" font-family="Helvetica,sans-Serif" font-size="10.00" fill="#000000">memory</text>
</g>
<!-- Node0&#45;&gt;Node1 -->
<g id="edge1" class="edge">
<title>Node0&#45;&gt;Node1</title>
<path fill="none" stroke="#191970" d="M60.2172,-391.0894C30.8297,-361.4505 -14.0386,-305.4337 8,-257 30.0753,-208.4857 82.9113,-172.1014 115.8484,-153.162"/>
<polygon fill="#191970" stroke="#191970" points="117.9467,-155.9992 124.972,-148.0684 114.5344,-149.8872 117.9467,-155.9992"/>
</g>
<!-- Node2 -->
<g id="node3" class="node">
<title>Node2</title>
<g id="a_node3"><a xlink:href="DCMPlanner_8h.html" target="_top" xlink:title="BipedalLocomotion/Planners\l/DCMPlanner.h">
<polygon fill="none" stroke="#000000" points="155,-324.5 155,-354.5 295,-354.5 295,-324.5 155,-324.5"/>
<text text-anchor="start" x="163" y="-342.5" font-family="Helvetica,sans-Serif" font-size="10.00" fill="#000000">BipedalLocomotion/Planners</text>
<text text-anchor="middle" x="225" y="-331.5" font-family="Helvetica,sans-Serif" font-size="10.00" fill="#000000">/DCMPlanner.h</text>
</a>
</g>
</g>
<!-- Node0&#45;&gt;Node2 -->
<g id="edge2" class="edge">
<title>Node0&#45;&gt;Node2</title>
<path fill="none" stroke="#191970" d="M123.3117,-391.4183C143.1314,-381.2991 166.9019,-369.1628 186.4752,-359.1694"/>
<polygon fill="#191970" stroke="#191970" points="188.1118,-362.2636 195.4266,-354.5991 184.9287,-356.0292 188.1118,-362.2636"/>
</g>
<!-- Node2&#45;&gt;Node1 -->
<g id="edge3" class="edge">
<title>Node2&#45;&gt;Node1</title>
<path fill="none" stroke="#191970" d="M236.8582,-324.4767C248.4611,-307.8496 263.1545,-280.3177 254,-257 236.4891,-212.3971 193.4212,-174.5883 166.6656,-154.3448"/>
<polygon fill="#191970" stroke="#191970" points="168.4056,-151.2796 158.2778,-148.1686 164.2551,-156.9163 168.4056,-151.2796"/>
</g>
<!-- Node3 -->
<g id="node4" class="node">
<title>Node3</title>
<polygon fill="none" stroke="#bfbfbf" points="17.5,-263 17.5,-282 90.5,-282 90.5,-263 17.5,-263"/>
<text text-anchor="middle" x="54" y="-270" font-family="Helvetica,sans-Serif" font-size="10.00" fill="#000000">Eigen/Dense</text>
</g>
<!-- Node2&#45;&gt;Node3 -->
<g id="edge4" class="edge">
<title>Node2&#45;&gt;Node3</title>
<path fill="none" stroke="#191970" d="M186.6243,-324.4639C157.028,-312.8677 116.476,-296.9789 88.0304,-285.8335"/>
<polygon fill="#191970" stroke="#191970" points="89.0992,-282.4933 78.5115,-282.1039 86.5455,-289.0109 89.0992,-282.4933"/>
</g>
<!-- Node4 -->
<g id="node5" class="node">
<title>Node4</title>
<g id="a_node5"><a xlink:href="IParametersHandler_8h.html" target="_top" xlink:title="BipedalLocomotion/Parameters\lHandler/IParametersHandler.h">
<polygon fill="none" stroke="#000000" points="335,-257.5 335,-287.5 487,-287.5 487,-257.5 335,-257.5"/>
<text text-anchor="start" x="343" y="-275.5" font-family="Helvetica,sans-Serif" font-size="10.00" fill="#000000">BipedalLocomotion/Parameters</text>
<text text-anchor="middle" x="411" y="-264.5" font-family="Helvetica,sans-Serif" font-size="10.00" fill="#000000">Handler/IParametersHandler.h</text>
</a>
</g>
</g>
<!-- Node2&#45;&gt;Node4 -->
<g id="edge5" class="edge">
<title>Node2&#45;&gt;Node4</title>
<path fill="none" stroke="#191970" d="M266.742,-324.4639C294.1674,-314.5849 330.2414,-301.5905 359.4544,-291.0675"/>
<polygon fill="#191970" stroke="#191970" points="360.8538,-294.2836 369.0759,-287.6017 358.4815,-287.6979 360.8538,-294.2836"/>
</g>
<!-- Node16 -->
<g id="node17" class="node">
<title>Node16</title>
<g id="a_node17"><a xlink:href="ContactPhaseList_8h_source.html" target="_top" xlink:title="BipedalLocomotion/Contacts\l/ContactPhaseList.h">
<polygon fill="none" stroke="#000000" points="796,-257.5 796,-287.5 938,-287.5 938,-257.5 796,-257.5"/>
<text text-anchor="start" x="804" y="-275.5" font-family="Helvetica,sans-Serif" font-size="10.00" fill="#000000">BipedalLocomotion/Contacts</text>
<text text-anchor="middle" x="867" y="-264.5" font-family="Helvetica,sans-Serif" font-size="10.00" fill="#000000">/ContactPhaseList.h</text>
</a>
</g>
</g>
<!-- Node2&#45;&gt;Node16 -->
<g id="edge20" class="edge">
<title>Node2&#45;&gt;Node16</title>
<path fill="none" stroke="#191970" d="M295.2343,-332.1703C415.1355,-319.6572 658.6456,-294.2442 785.7094,-280.9836"/>
<polygon fill="#191970" stroke="#191970" points="786.1889,-284.4527 795.7715,-279.9335 785.4622,-277.4905 786.1889,-284.4527"/>
</g>
<!-- Node25 -->
<g id="node26" class="node">
<title>Node25</title>
<g id="a_node26"><a xlink:href="Advanceable_8h.html" target="_top" xlink:title="BipedalLocomotion/System\l/Advanceable.h">
<polygon fill="none" stroke="#000000" points="109,-257.5 109,-287.5 245,-287.5 245,-257.5 109,-257.5"/>
<text text-anchor="start" x="117" y="-275.5" font-family="Helvetica,sans-Serif" font-size="10.00" fill="#000000">BipedalLocomotion/System</text>
<text text-anchor="middle" x="177" y="-264.5" font-family="Helvetica,sans-Serif" font-size="10.00" fill="#000000">/Advanceable.h</text>
</a>
</g>
</g>
<!-- Node2&#45;&gt;Node25 -->
<g id="edge38" class="edge">
<title>Node2&#45;&gt;Node25</title>
<path fill="none" stroke="#191970" d="M214.1081,-324.2967C208.0937,-315.9016 200.4951,-305.2952 193.7426,-295.8698"/>
<polygon fill="#191970" stroke="#191970" points="196.5179,-293.734 187.8488,-287.6432 190.8275,-297.8107 196.5179,-293.734"/>
</g>
<!-- Node4&#45;&gt;Node1 -->
<g id="edge6" class="edge">
<title>Node4&#45;&gt;Node1</title>
<path fill="none" stroke="#191970" d="M383.6392,-257.4663C366.4183,-247.6772 343.9459,-234.2961 325,-221 307.1591,-208.4794 306.096,-200.5073 287,-190 242.671,-165.6087 226.1848,-172.2646 179,-154 177.3809,-153.3733 175.7278,-152.713 174.0644,-152.0327"/>
<polygon fill="#191970" stroke="#191970" points="175.1641,-148.6971 164.5916,-148.0087 172.4272,-155.14 175.1641,-148.6971"/>
</g>
<!-- Node5 -->
<g id="node6" class="node">
<title>Node5</title>
<polygon fill="none" stroke="#bfbfbf" points="855.5,-.5 855.5,-19.5 896.5,-19.5 896.5,-.5 855.5,-.5"/>
<text text-anchor="middle" x="876" y="-7.5" font-family="Helvetica,sans-Serif" font-size="10.00" fill="#000000">string</text>
</g>
<!-- Node4&#45;&gt;Node5 -->
<g id="edge7" class="edge">
<title>Node4&#45;&gt;Node5</title>
<path fill="none" stroke="#191970" d="M448.1831,-257.469C470.1998,-248.0293 498.3266,-235.015 522,-221 565.2184,-195.414 577.0454,-189.0676 613,-154 652.4582,-115.5153 642.7807,-86.03 689,-56 714.6191,-39.3545 798.9689,-23.0308 845.1336,-15.0532"/>
<polygon fill="#191970" stroke="#191970" points="845.909,-18.4717 855.1807,-13.3447 844.7354,-11.5708 845.909,-18.4717"/>
</g>
<!-- Node6 -->
<g id="node7" class="node">
<title>Node6</title>
<polygon fill="none" stroke="#bfbfbf" points="701,-196 701,-215 745,-215 745,-196 701,-196"/>
<text text-anchor="middle" x="723" y="-203" font-family="Helvetica,sans-Serif" font-size="10.00" fill="#000000">vector</text>
</g>
<!-- Node4&#45;&gt;Node6 -->
<g id="edge8" class="edge">
<title>Node4&#45;&gt;Node6</title>
<path fill="none" stroke="#191970" d="M487.2363,-262.131C542.5026,-253.6477 618.6865,-239.9492 684,-221 686.4491,-220.2895 688.9575,-219.4835 691.4632,-218.6214"/>
<polygon fill="#191970" stroke="#191970" points="692.8172,-221.8525 700.9831,-215.1021 690.3899,-215.2868 692.8172,-221.8525"/>
</g>
<!-- Node7 -->
<g id="node8" class="node">
<title>Node7</title>
<g id="a_node8"><a xlink:href="Vector_8h_source.html" target="_top" xlink:title="BipedalLocomotion/Generic\lContainer/Vector.h">
<polygon fill="none" stroke="#000000" points="377,-190.5 377,-220.5 513,-220.5 513,-190.5 377,-190.5"/>
<text text-anchor="start" x="385" y="-208.5" font-family="Helvetica,sans-Serif" font-size="10.00" fill="#000000">BipedalLocomotion/Generic</text>
<text text-anchor="middle" x="445" y="-197.5" font-family="Helvetica,sans-Serif" font-size="10.00" fill="#000000">Container/Vector.h</text>
</a>
</g>
</g>
<!-- Node4&#45;&gt;Node7 -->
<g id="edge9" class="edge">
<title>Node4&#45;&gt;Node7</title>
<path fill="none" stroke="#191970" d="M418.7151,-257.2967C422.8449,-249.1586 428.0292,-238.9425 432.6998,-229.7386"/>
<polygon fill="#191970" stroke="#191970" points="435.9112,-231.1445 437.3154,-220.6432 429.6689,-227.9768 435.9112,-231.1445"/>
</g>
<!-- Node9 -->
<g id="node10" class="node">
<title>Node9</title>
<g id="a_node10"><a xlink:href="TemplateHelpers_8h_source.html" target="_top" xlink:title="BipedalLocomotion/Generic\lContainer/TemplateHelpers.h">
<polygon fill="none" stroke="#000000" points="188,-123.5 188,-153.5 332,-153.5 332,-123.5 188,-123.5"/>
<text text-anchor="start" x="196" y="-141.5" font-family="Helvetica,sans-Serif" font-size="10.00" fill="#000000">BipedalLocomotion/Generic</text>
<text text-anchor="middle" x="260" y="-130.5" font-family="Helvetica,sans-Serif" font-size="10.00" fill="#000000">Container/TemplateHelpers.h</text>
</a>
</g>
</g>
<!-- Node4&#45;&gt;Node9 -->
<g id="edge19" class="edge">
<title>Node4&#45;&gt;Node9</title>
<path fill="none" stroke="#191970" d="M396.1823,-257.451C379.3582,-240.5638 350.8812,-212.5776 325,-190 313.214,-179.7184 299.7262,-168.8891 288.1031,-159.8284"/>
<polygon fill="#191970" stroke="#191970" points="290.0716,-156.9262 280.0203,-153.5764 285.7889,-162.4632 290.0716,-156.9262"/>
</g>
<!-- Node7&#45;&gt;Node1 -->
<g id="edge18" class="edge">
<title>Node7&#45;&gt;Node1</title>
<path fill="none" stroke="#191970" d="M376.9993,-196.6596C322.6234,-188.5633 244.8618,-174.6676 179,-154 177.0978,-153.4031 175.1607,-152.7332 173.2232,-152.0157"/>
<polygon fill="#191970" stroke="#191970" points="174.2718,-148.6641 163.6896,-148.1479 171.6402,-155.1506 174.2718,-148.6641"/>
</g>
<!-- Node8 -->
<g id="node9" class="node">
<title>Node8</title>
<polygon fill="none" stroke="#bfbfbf" points="490,-129 490,-148 604,-148 604,-129 490,-129"/>
<text text-anchor="middle" x="547" y="-136" font-family="Helvetica,sans-Serif" font-size="10.00" fill="#000000">iDynTree/Core/Span.h</text>
</g>
<!-- Node7&#45;&gt;Node8 -->
<g id="edge10" class="edge">
<title>Node7&#45;&gt;Node8</title>
<path fill="none" stroke="#191970" d="M467.8908,-190.4639C484.5425,-179.526 507.0083,-164.769 523.7442,-153.7759"/>
<polygon fill="#191970" stroke="#191970" points="525.9425,-156.5195 532.3791,-148.1039 522.0994,-150.6688 525.9425,-156.5195"/>
</g>
<!-- Node7&#45;&gt;Node9 -->
<g id="edge11" class="edge">
<title>Node7&#45;&gt;Node9</title>
<path fill="none" stroke="#191970" d="M403.4824,-190.4639C376.2045,-180.5849 340.3244,-167.5905 311.2685,-157.0675"/>
<polygon fill="#191970" stroke="#191970" points="312.2929,-153.7161 301.6987,-153.6017 309.9092,-160.2978 312.2929,-153.7161"/>
</g>
<!-- Node13 -->
<g id="node14" class="node">
<title>Node13</title>
<polygon fill="none" stroke="#bfbfbf" points="698.5,-62 698.5,-81 757.5,-81 757.5,-62 698.5,-62"/>
<text text-anchor="middle" x="728" y="-69" font-family="Helvetica,sans-Serif" font-size="10.00" fill="#000000">functional</text>
</g>
<!-- Node7&#45;&gt;Node13 -->
<g id="edge15" class="edge">
<title>Node7&#45;&gt;Node13</title>
<path fill="none" stroke="#191970" d="M511.5132,-190.4499C543.1757,-181.9603 581.0158,-169.8417 613,-154 649.7385,-135.8035 687.4389,-106.281 709.241,-87.926"/>
<polygon fill="#191970" stroke="#191970" points="711.7142,-90.4165 717.0434,-81.2595 707.167,-85.0945 711.7142,-90.4165"/>
</g>
<!-- Node14 -->
<g id="node15" class="node">
<title>Node14</title>
<polygon fill="none" stroke="#bfbfbf" points="350.5,-129 350.5,-148 399.5,-148 399.5,-129 350.5,-129"/>
<text text-anchor="middle" x="375" y="-136" font-family="Helvetica,sans-Serif" font-size="10.00" fill="#000000">cassert</text>
</g>
<!-- Node7&#45;&gt;Node14 -->
<g id="edge16" class="edge">
<title>Node7&#45;&gt;Node14</title>
<path fill="none" stroke="#191970" d="M429.1159,-190.2967C418.2096,-179.8578 403.731,-165.9997 392.4944,-155.2446"/>
<polygon fill="#191970" stroke="#191970" points="394.6271,-152.4411 384.9828,-148.055 389.7869,-157.498 394.6271,-152.4411"/>
</g>
<!-- Node15 -->
<g id="node16" class="node">
<title>Node15</title>
<polygon fill="none" stroke="#bfbfbf" points="418,-129 418,-148 472,-148 472,-129 418,-129"/>
<text text-anchor="middle" x="445" y="-136" font-family="Helvetica,sans-Serif" font-size="10.00" fill="#000000">iostream</text>
</g>
<!-- Node7&#45;&gt;Node15 -->
<g id="edge17" class="edge">
<title>Node7&#45;&gt;Node15</title>
<path fill="none" stroke="#191970" d="M445,-190.2967C445,-180.7699 445,-168.3954 445,-158.1306"/>
<polygon fill="#191970" stroke="#191970" points="448.5001,-158.0549 445,-148.055 441.5001,-158.055 448.5001,-158.0549"/>
</g>
<!-- Node10 -->
<g id="node11" class="node">
<title>Node10</title>
<polygon fill="none" stroke="#bfbfbf" points="311,-62 311,-81 373,-81 373,-62 311,-62"/>
<text text-anchor="middle" x="342" y="-69" font-family="Helvetica,sans-Serif" font-size="10.00" fill="#000000">type_traits</text>
</g>
<!-- Node9&#45;&gt;Node10 -->
<g id="edge12" class="edge">
<title>Node9&#45;&gt;Node10</title>
<path fill="none" stroke="#191970" d="M278.6071,-123.2967C291.6311,-112.6551 309.0039,-98.4602 322.269,-87.6217"/>
<polygon fill="#191970" stroke="#191970" points="324.7766,-90.0926 330.3059,-81.055 320.3475,-84.6719 324.7766,-90.0926"/>
</g>
<!-- Node11 -->
<g id="node12" class="node">
<title>Node11</title>
<polygon fill="none" stroke="#bfbfbf" points="143,-62 143,-81 209,-81 209,-62 143,-62"/>
<text text-anchor="middle" x="176" y="-69" font-family="Helvetica,sans-Serif" font-size="10.00" fill="#000000">string_view</text>
</g>
<!-- Node9&#45;&gt;Node11 -->
<g id="edge13" class="edge">
<title>Node9&#45;&gt;Node11</title>
<path fill="none" stroke="#191970" d="M240.9391,-123.2967C227.4703,-112.5537 209.4615,-98.1895 195.8252,-87.3129"/>
<polygon fill="#191970" stroke="#191970" points="197.9796,-84.5544 187.9794,-81.055 193.6147,-90.0268 197.9796,-84.5544"/>
</g>
<!-- Node12 -->
<g id="node13" class="node">
<title>Node12</title>
<polygon fill="none" stroke="#bfbfbf" points="227.5,-62 227.5,-81 292.5,-81 292.5,-62 227.5,-62"/>
<text text-anchor="middle" x="260" y="-69" font-family="Helvetica,sans-Serif" font-size="10.00" fill="#000000">Eigen/Core</text>
</g>
<!-- Node9&#45;&gt;Node12 -->
<g id="edge14" class="edge">
<title>Node9&#45;&gt;Node12</title>
<path fill="none" stroke="#191970" d="M260,-123.2967C260,-113.7699 260,-101.3954 260,-91.1306"/>
<polygon fill="#191970" stroke="#191970" points="263.5001,-91.0549 260,-81.055 256.5001,-91.055 263.5001,-91.0549"/>
</g>
<!-- Node16&#45;&gt;Node6 -->
<g id="edge37" class="edge">
<title>Node16&#45;&gt;Node6</title>
<path fill="none" stroke="#191970" d="M834.4393,-257.442C812.3074,-247.1948 782.3721,-233.3112 756,-221 754.8386,-220.4578 753.6544,-219.9044 752.4583,-219.345"/>
<polygon fill="#191970" stroke="#191970" points="753.7775,-216.098 743.2373,-215.0238 750.8071,-222.4365 753.7775,-216.098"/>
</g>
<!-- Node17 -->
<g id="node18" class="node">
<title>Node17</title>
<g id="a_node18"><a xlink:href="Contact_8h.html" target="_top" xlink:title="BipedalLocomotion/Contacts\l/Contact.h">
<polygon fill="none" stroke="#000000" points="994,-56.5 994,-86.5 1136,-86.5 1136,-56.5 994,-56.5"/>
<text text-anchor="start" x="1002" y="-74.5" font-family="Helvetica,sans-Serif" font-size="10.00" fill="#000000">BipedalLocomotion/Contacts</text>
<text text-anchor="middle" x="1065" y="-63.5" font-family="Helvetica,sans-Serif" font-size="10.00" fill="#000000">/Contact.h</text>
</a>
</g>
</g>
<!-- Node16&#45;&gt;Node17 -->
<g id="edge21" class="edge">
<title>Node16&#45;&gt;Node17</title>
<path fill="none" stroke="#191970" d="M938.1258,-265.3457C978.9084,-258.6653 1029.65,-245.7864 1069,-221 1111.4463,-194.2632 1145.9462,-168.5829 1125,-123 1119.4821,-110.9921 1109.6299,-100.7327 1099.4832,-92.6048"/>
<polygon fill="#191970" stroke="#191970" points="1101.4696,-89.7201 1091.3599,-86.5507 1097.2866,-95.3328 1101.4696,-89.7201"/>
</g>
<!-- Node19 -->
<g id="node20" class="node">
<title>Node19</title>
<g id="a_node20"><a xlink:href="ContactList_8h.html" target="_top" xlink:title="BipedalLocomotion/Contacts\l/ContactList.h">
<polygon fill="none" stroke="#000000" points="796,-123.5 796,-153.5 938,-153.5 938,-123.5 796,-123.5"/>
<text text-anchor="start" x="804" y="-141.5" font-family="Helvetica,sans-Serif" font-size="10.00" fill="#000000">BipedalLocomotion/Contacts</text>
<text text-anchor="middle" x="867" y="-130.5" font-family="Helvetica,sans-Serif" font-size="10.00" fill="#000000">/ContactList.h</text>
</a>
</g>
</g>
<!-- Node16&#45;&gt;Node19 -->
<g id="edge24" class="edge">
<title>Node16&#45;&gt;Node19</title>
<path fill="none" stroke="#191970" d="M867,-257.389C867,-234.6691 867,-191.438 867,-163.8405"/>
<polygon fill="#191970" stroke="#191970" points="870.5001,-163.7614 867,-153.7614 863.5001,-163.7614 870.5001,-163.7614"/>
</g>
<!-- Node22 -->
<g id="node23" class="node">
<title>Node22</title>
<g id="a_node23"><a xlink:href="ContactPhase_8h.html" target="_top" xlink:title="BipedalLocomotion/Contacts\l/ContactPhase.h">
<polygon fill="none" stroke="#000000" points="895,-190.5 895,-220.5 1037,-220.5 1037,-190.5 895,-190.5"/>
<text text-anchor="start" x="903" y="-208.5" font-family="Helvetica,sans-Serif" font-size="10.00" fill="#000000">BipedalLocomotion/Contacts</text>
<text text-anchor="middle" x="966" y="-197.5" font-family="Helvetica,sans-Serif" font-size="10.00" fill="#000000">/ContactPhase.h</text>
</a>
</g>
</g>
<!-- Node16&#45;&gt;Node22 -->
<g id="edge30" class="edge">
<title>Node16&#45;&gt;Node22</title>
<path fill="none" stroke="#191970" d="M889.4646,-257.2967C903.0085,-248.1306 920.4475,-236.3285 935.2575,-226.3055"/>
<polygon fill="#191970" stroke="#191970" points="937.3042,-229.1466 943.6243,-220.6432 933.3809,-223.3494 937.3042,-229.1466"/>
</g>
<!-- Node23 -->
<g id="node24" class="node">
<title>Node23</title>
<polygon fill="none" stroke="#bfbfbf" points="1032.5,-129 1032.5,-148 1115.5,-148 1115.5,-129 1032.5,-129"/>
<text text-anchor="middle" x="1074" y="-136" font-family="Helvetica,sans-Serif" font-size="10.00" fill="#000000">unordered_map</text>
</g>
<!-- Node16&#45;&gt;Node23 -->
<g id="edge35" class="edge">
<title>Node16&#45;&gt;Node23</title>
<path fill="none" stroke="#191970" d="M938.1064,-259.0625C980.9294,-249.6647 1030.1483,-236.1228 1046,-221 1063.3007,-204.4947 1069.9116,-176.9141 1072.4378,-158.2307"/>
<polygon fill="#191970" stroke="#191970" points="1075.9305,-158.4852 1073.5226,-148.1676 1068.9709,-157.7348 1075.9305,-158.4852"/>
</g>
<!-- Node24 -->
<g id="node25" class="node">
<title>Node24</title>
<polygon fill="none" stroke="#bfbfbf" points="765.5,-196 765.5,-215 838.5,-215 838.5,-196 765.5,-196"/>
<text text-anchor="middle" x="802" y="-203" font-family="Helvetica,sans-Serif" font-size="10.00" fill="#000000">initializer_list</text>
</g>
<!-- Node16&#45;&gt;Node24 -->
<g id="edge36" class="edge">
<title>Node16&#45;&gt;Node24</title>
<path fill="none" stroke="#191970" d="M852.2505,-257.2967C842.1232,-246.8578 828.6788,-232.9997 818.2448,-222.2446"/>
<polygon fill="#191970" stroke="#191970" points="820.745,-219.7953 811.2697,-215.055 815.7208,-224.6695 820.745,-219.7953"/>
</g>
<!-- Node17&#45;&gt;Node5 -->
<g id="edge23" class="edge">
<title>Node17&#45;&gt;Node5</title>
<path fill="none" stroke="#191970" d="M1018.7654,-56.4554C983.8117,-45.0816 936.8155,-29.7892 906.4631,-19.9126"/>
<polygon fill="#191970" stroke="#191970" points="907.4414,-16.5503 896.8491,-16.7842 905.2753,-23.2068 907.4414,-16.5503"/>
</g>
<!-- Node18 -->
<g id="node19" class="node">
<title>Node18</title>
<polygon fill="none" stroke="#bfbfbf" points="1029.5,-.5 1029.5,-19.5 1100.5,-19.5 1100.5,-.5 1029.5,-.5"/>
<text text-anchor="middle" x="1065" y="-7.5" font-family="Helvetica,sans-Serif" font-size="10.00" fill="#000000">manif/SE3.h</text>
</g>
<!-- Node17&#45;&gt;Node18 -->
<g id="edge22" class="edge">
<title>Node17&#45;&gt;Node18</title>
<path fill="none" stroke="#191970" d="M1065,-56.2977C1065,-48.3834 1065,-38.6043 1065,-30.0759"/>
<polygon fill="#191970" stroke="#191970" points="1068.5001,-29.8469 1065,-19.8469 1061.5001,-29.847 1068.5001,-29.8469"/>
</g>
<!-- Node19&#45;&gt;Node5 -->
<g id="edge28" class="edge">
<title>Node19&#45;&gt;Node5</title>
<path fill="none" stroke="#191970" d="M839.4611,-123.4269C826.4382,-114.6707 812.1937,-102.3272 805,-87 799.1462,-74.5276 798.4193,-68.1046 805,-56 813.7722,-39.8643 830.915,-28.5165 846.1579,-21.1292"/>
<polygon fill="#191970" stroke="#191970" points="847.6127,-24.3127 855.3114,-17.0339 844.7539,-17.923 847.6127,-24.3127"/>
</g>
<!-- Node19&#45;&gt;Node13 -->
<g id="edge29" class="edge">
<title>Node19&#45;&gt;Node13</title>
<path fill="none" stroke="#191970" d="M835.8057,-123.4639C812.2732,-112.1209 780.2198,-96.6707 757.1906,-85.5703"/>
<polygon fill="#191970" stroke="#191970" points="758.4524,-82.2932 747.9246,-81.1039 755.413,-88.5989 758.4524,-82.2932"/>
</g>
<!-- Node19&#45;&gt;Node17 -->
<g id="edge25" class="edge">
<title>Node19&#45;&gt;Node17</title>
<path fill="none" stroke="#191970" d="M911.4351,-123.4639C940.7567,-113.5419 979.3653,-100.4774 1010.534,-89.9304"/>
<polygon fill="#191970" stroke="#191970" points="1012.0206,-93.1224 1020.3711,-86.6017 1009.7769,-86.4917 1012.0206,-93.1224"/>
</g>
<!-- Node20 -->
<g id="node21" class="node">
<title>Node20</title>
<polygon fill="none" stroke="#bfbfbf" points="814,-62 814,-81 890,-81 890,-62 814,-62"/>
<text text-anchor="middle" x="852" y="-69" font-family="Helvetica,sans-Serif" font-size="10.00" fill="#000000">manif/manif.h</text>
</g>
<!-- Node19&#45;&gt;Node20 -->
<g id="edge26" class="edge">
<title>Node19&#45;&gt;Node20</title>
<path fill="none" stroke="#191970" d="M863.5963,-123.2967C861.4634,-113.7699 858.693,-101.3954 856.3949,-91.1306"/>
<polygon fill="#191970" stroke="#191970" points="859.7394,-90.0487 854.1392,-81.055 852.9085,-91.5781 859.7394,-90.0487"/>
</g>
<!-- Node21 -->
<g id="node22" class="node">
<title>Node21</title>
<polygon fill="none" stroke="#bfbfbf" points="908,-62 908,-81 938,-81 938,-62 908,-62"/>
<text text-anchor="middle" x="923" y="-69" font-family="Helvetica,sans-Serif" font-size="10.00" fill="#000000">set</text>
</g>
<!-- Node19&#45;&gt;Node21 -->
<g id="edge27" class="edge">
<title>Node19&#45;&gt;Node21</title>
<path fill="none" stroke="#191970" d="M879.7073,-123.2967C888.2629,-113.0605 899.5665,-99.5366 908.4779,-88.8746"/>
<polygon fill="#191970" stroke="#191970" points="911.2861,-90.9724 915.0138,-81.055 905.9151,-86.4832 911.2861,-90.9724"/>
</g>
<!-- Node22&#45;&gt;Node5 -->
<g id="edge34" class="edge">
<title>Node22&#45;&gt;Node5</title>
<path fill="none" stroke="#191970" d="M968.0437,-190.115C971.054,-161.3588 973.7331,-98.5302 947,-56 937.4466,-40.8013 920.8308,-29.6298 906.0742,-22.1045"/>
<polygon fill="#191970" stroke="#191970" points="907.2739,-18.8 896.7384,-17.6803 904.2761,-25.1256 907.2739,-18.8"/>
</g>
<!-- Node22&#45;&gt;Node17 -->
<g id="edge31" class="edge">
<title>Node22&#45;&gt;Node17</title>
<path fill="none" stroke="#191970" d="M976.2137,-190.4045C987.5982,-173.7142 1006.6885,-146.1272 1024,-123 1031.0582,-113.5707 1039.0784,-103.3867 1046.1422,-94.5839"/>
<polygon fill="#191970" stroke="#191970" points="1048.9997,-96.6162 1052.5589,-86.637 1043.5535,-92.2186 1048.9997,-96.6162"/>
</g>
<!-- Node22&#45;&gt;Node19 -->
<g id="edge32" class="edge">
<title>Node22&#45;&gt;Node19</title>
<path fill="none" stroke="#191970" d="M943.5354,-190.2967C929.9915,-181.1306 912.5525,-169.3285 897.7425,-159.3055"/>
<polygon fill="#191970" stroke="#191970" points="899.6191,-156.3494 889.3757,-153.6432 895.6958,-162.1466 899.6191,-156.3494"/>
</g>
<!-- Node22&#45;&gt;Node23 -->
<g id="edge33" class="edge">
<title>Node22&#45;&gt;Node23</title>
<path fill="none" stroke="#191970" d="M990.2373,-190.4639C1008.0318,-179.4247 1032.0969,-164.4954 1049.8669,-153.4715"/>
<polygon fill="#191970" stroke="#191970" points="1051.8665,-156.3498 1058.5191,-148.1039 1048.1763,-150.4015 1051.8665,-156.3498"/>
</g>
</g>
</svg>
        <g id="navigator" transform="translate(0 0)" fill="#404254">
                <rect fill="#f2f5e9" fill-opacity="0.5" stroke="#606060" stroke-width=".5" x="0" y="0" width="60" height="60"/>
                <use id="zoomplus" xlink:href="#zoomPlus" x="17" y="9" onmousedown="handleZoom(evt,'in')"/>
                <use id="zoomminus" xlink:href="#zoomMin" x="42" y="9" onmousedown="handleZoom(evt,'out')"/>
                <use id="reset" xlink:href="#resetDef" x="30" y="36" onmousedown="handleReset()"/>
                <g id="arrowUp" xlink:href="#dirArrow" transform="translate(30 24)" onmousedown="handlePan(0,-1)">
                  <use xlink:href="#rim" fill="#404040">
                        <set attributeName="fill" to="#808080" begin="arrowUp.mouseover" end="arrowUp.mouseout"/>
                  </use>
                  <path fill="none" stroke="white" stroke-width="1.5" d="M0,-3.0v7 M-2.5,-0.5L0,-3.0L2.5,-0.5"/>
                </g>
                <g id="arrowRight" xlink:href="#dirArrow" transform="rotate(90) translate(36 -43)" onmousedown="handlePan(1,0)">
                  <use xlink:href="#rim" fill="#404040">
                        <set attributeName="fill" to="#808080" begin="arrowRight.mouseover" end="arrowRight.mouseout"/>
                  </use>
                  <path fill="none" stroke="white" stroke-width="1.5" d="M0,-3.0v7 M-2.5,-0.5L0,-3.0L2.5,-0.5"/>
                </g>
                <g id="arrowDown" xlink:href="#dirArrow" transform="rotate(180) translate(-30 -48)" onmousedown="handlePan(0,1)">
                  <use xlink:href="#rim" fill="#404040">
                        <set attributeName="fill" to="#808080" begin="arrowDown.mouseover" end="arrowDown.mouseout"/>
                  </use>
                  <path fill="none" stroke="white" stroke-width="1.5" d="M0,-3.0v7 M-2.5,-0.5L0,-3.0L2.5,-0.5"/>
                </g>
                <g id="arrowLeft" xlink:href="#dirArrow" transform="rotate(270) translate(-36 17)" onmousedown="handlePan(-1,0)">
                  <use xlink:href="#rim" fill="#404040">
                        <set attributeName="fill" to="#808080" begin="arrowLeft.mouseover" end="arrowLeft.mouseout"/>
                  </use>
                  <path fill="none" stroke="white" stroke-width="1.5" d="M0,-3.0v7 M-2.5,-0.5L0,-3.0L2.5,-0.5"/>
                </g>
        </g>
        <svg viewBox="0 0 15 15" width="100%" height="30px" preserveAspectRatio="xMaxYMin meet">
         <g id="arrow_out" transform="scale(0.3 0.3)">
          <a xlink:href="TimeVaryingDCMPlanner_8h__incl_org.svg" target="_base">
           <rect id="button" ry="5" rx="5" y="6" x="6" height="38" width="38"
                fill="#f2f5e9" fill-opacity="0.5" stroke="#606060" stroke-width="1.0"/>
           <path id="arrow"
             d="M 11.500037,31.436501 C 11.940474,20.09759 22.043105,11.32322 32.158766,21.979434 L 37.068811,17.246167 C 37.068811,17.246167 37.088388,32 37.088388,32 L 22.160133,31.978069 C 22.160133,31.978069 26.997745,27.140456 26.997745,27.140456 C 18.528582,18.264221 13.291696,25.230495 11.500037,31.436501 z"
             style="fill:#404040;"/>
          </a>
         </g>
        </svg>
</svg>
