<?xml version="1.0" encoding="UTF-8" standalone="no"?>
<!DOCTYPE svg PUBLIC "-//W3C//DTD SVG 1.1//EN"
 "http://www.w3.org/Graphics/SVG/1.1/DTD/svg11.dtd">
<!-- Generated by graphviz version 2.40.1 (20161225.0304)
 -->
<!-- Title: System/include/BipedalLocomotion/System/VariablesHandler.h Pages: 1 -->
<svg width="178pt" height="95pt"
 viewBox="0.00 0.00 178.00 95.00" xmlns="http://www.w3.org/2000/svg" xmlns:xlink="http://www.w3.org/1999/xlink">
<g id="graph0" class="graph" transform="scale(1 1) rotate(0) translate(4 91)">
<title>System/include/BipedalLocomotion/System/VariablesHandler.h</title>
<!-- Node0 -->
<g id="node1" class="node">
<title>Node0</title>
<polygon fill="#bfbfbf" stroke="#000000" points="0,-56.5 0,-86.5 170,-86.5 170,-56.5 0,-56.5"/>
<text text-anchor="start" x="8" y="-74.5" font-family="Helvetica,sans-Serif" font-size="10.00" fill="#000000">System/include/BipedalLocomotion</text>
<text text-anchor="middle" x="85" y="-63.5" font-family="Helvetica,sans-Serif" font-size="10.00" fill="#000000">/System/VariablesHandler.h</text>
</g>
<!-- Node1 -->
<g id="node2" class="node">
<title>Node1</title>
<polygon fill="none" stroke="#bfbfbf" points="24.5,-.5 24.5,-19.5 65.5,-19.5 65.5,-.5 24.5,-.5"/>
<text text-anchor="middle" x="45" y="-7.5" font-family="Helvetica,sans-Serif" font-size="10.00" fill="#000000">string</text>
</g>
<!-- Node0&#45;&gt;Node1 -->
<g id="edge1" class="edge">
<title>Node0&#45;&gt;Node1</title>
<path fill="none" stroke="#191970" d="M75.1124,-56.2977C69.6178,-47.8498 62.7414,-37.2773 56.9473,-28.369"/>
<polygon fill="#191970" stroke="#191970" points="59.7908,-26.3215 51.4045,-19.8469 53.9228,-30.1381 59.7908,-26.3215"/>
</g>
<!-- Node2 -->
<g id="node3" class="node">
<title>Node2</title>
<polygon fill="none" stroke="#bfbfbf" points="83.5,-.5 83.5,-19.5 166.5,-19.5 166.5,-.5 83.5,-.5"/>
<text text-anchor="middle" x="125" y="-7.5" font-family="Helvetica,sans-Serif" font-size="10.00" fill="#000000">unordered_map</text>
</g>
<!-- Node0&#45;&gt;Node2 -->
<g id="edge2" class="edge">
<title>Node0&#45;&gt;Node2</title>
<path fill="none" stroke="#191970" d="M94.8876,-56.2977C100.3822,-47.8498 107.2586,-37.2773 113.0527,-28.369"/>
<polygon fill="#191970" stroke="#191970" points="116.0772,-30.1381 118.5955,-19.8469 110.2092,-26.3215 116.0772,-30.1381"/>
</g>
</g>
</svg>
