<?xml version="1.0" encoding="UTF-8" standalone="no"?>
<!DOCTYPE svg PUBLIC "-//W3C//DTD SVG 1.1//EN"
 "http://www.w3.org/Graphics/SVG/1.1/DTD/svg11.dtd">
<!-- Generated by graphviz version 2.40.1 (20161225.0304)
 -->
<!-- Title: System/include/BipedalLocomotion/System/VariablesHandler.h Pages: 1 -->
<svg width="831pt" height="229pt"
 viewBox="0.00 0.00 830.50 229.00" xmlns="http://www.w3.org/2000/svg" xmlns:xlink="http://www.w3.org/1999/xlink">
<g id="graph0" class="graph" transform="scale(1 1) rotate(0) translate(4 225)">
<title>System/include/BipedalLocomotion/System/VariablesHandler.h</title>
<!-- Node3 -->
<g id="node1" class="node">
<title>Node3</title>
<polygon fill="#bfbfbf" stroke="#000000" points="272.5,-190.5 272.5,-220.5 442.5,-220.5 442.5,-190.5 272.5,-190.5"/>
<text text-anchor="start" x="280.5" y="-208.5" font-family="Helvetica,sans-Serif" font-size="10.00" fill="#000000">System/include/BipedalLocomotion</text>
<text text-anchor="middle" x="357.5" y="-197.5" font-family="Helvetica,sans-Serif" font-size="10.00" fill="#000000">/System/VariablesHandler.h</text>
</g>
<!-- Node4 -->
<g id="node2" class="node">
<title>Node4</title>
<g id="a_node2"><a xlink:href="VariablesHandler_8cpp.html" target="_top" xlink:title="System/src/VariablesHandler.cpp">
<polygon fill="none" stroke="#000000" points="187,-129 187,-148 350,-148 350,-129 187,-129"/>
<text text-anchor="middle" x="268.5" y="-136" font-family="Helvetica,sans-Serif" font-size="10.00" fill="#000000">System/src/VariablesHandler.cpp</text>
</a>
</g>
</g>
<!-- Node3&#45;&gt;Node4 -->
<g id="edge1" class="edge">
<title>Node3&#45;&gt;Node4</title>
<path fill="none" stroke="#191970" d="M329.2215,-184.2117C313.0859,-172.0646 293.6536,-157.4358 281.1924,-148.055"/>
<polygon fill="#191970" stroke="#191970" points="327.2103,-187.0785 337.3045,-190.2967 331.4203,-181.486 327.2103,-187.0785"/>
</g>
<!-- Node5 -->
<g id="node3" class="node">
<title>Node5</title>
<g id="a_node3"><a xlink:href="Task_8h.html" target="_top" xlink:title="TSID/include/BipedalLocomotion\l/TSID/Task.h">
<polygon fill="none" stroke="#000000" points="368,-123.5 368,-153.5 527,-153.5 527,-123.5 368,-123.5"/>
<text text-anchor="start" x="376" y="-141.5" font-family="Helvetica,sans-Serif" font-size="10.00" fill="#000000">TSID/include/BipedalLocomotion</text>
<text text-anchor="middle" x="447.5" y="-130.5" font-family="Helvetica,sans-Serif" font-size="10.00" fill="#000000">/TSID/Task.h</text>
</a>
</g>
</g>
<!-- Node3&#45;&gt;Node5 -->
<g id="edge2" class="edge">
<title>Node3&#45;&gt;Node5</title>
<path fill="none" stroke="#191970" d="M386.2942,-184.0643C399.6016,-174.1577 415.0913,-162.6265 427.1584,-153.6432"/>
<polygon fill="#191970" stroke="#191970" points="383.8537,-181.5177 377.9224,-190.2967 388.0338,-187.1327 383.8537,-181.5177"/>
</g>
<!-- Node6 -->
<g id="node4" class="node">
<title>Node6</title>
<g id="a_node4"><a xlink:href="BaseDynamicsTask_8h.html" target="_top" xlink:title="TSID/include/BipedalLocomotion\l/TSID/BaseDynamicsTask.h">
<polygon fill="none" stroke="#000000" points="9,-56.5 9,-86.5 168,-86.5 168,-56.5 9,-56.5"/>
<text text-anchor="start" x="17" y="-74.5" font-family="Helvetica,sans-Serif" font-size="10.00" fill="#000000">TSID/include/BipedalLocomotion</text>
<text text-anchor="middle" x="88.5" y="-63.5" font-family="Helvetica,sans-Serif" font-size="10.00" fill="#000000">/TSID/BaseDynamicsTask.h</text>
</a>
</g>
</g>
<!-- Node5&#45;&gt;Node6 -->
<g id="edge3" class="edge">
<title>Node5&#45;&gt;Node6</title>
<path fill="none" stroke="#191970" d="M357.8979,-121.7776C299.6672,-110.91 224.4218,-96.867 168.2608,-86.3857"/>
<polygon fill="#191970" stroke="#191970" points="357.3538,-125.2364 367.8263,-123.6305 358.6381,-118.3552 357.3538,-125.2364"/>
</g>
<!-- Node8 -->
<g id="node6" class="node">
<title>Node8</title>
<g id="a_node6"><a xlink:href="JointsDynamicsTask_8h.html" target="_top" xlink:title="TSID/include/BipedalLocomotion\l/TSID/JointsDynamicsTask.h">
<polygon fill="none" stroke="#000000" points="191,-56.5 191,-86.5 350,-86.5 350,-56.5 191,-56.5"/>
<text text-anchor="start" x="199" y="-74.5" font-family="Helvetica,sans-Serif" font-size="10.00" fill="#000000">TSID/include/BipedalLocomotion</text>
<text text-anchor="middle" x="270.5" y="-63.5" font-family="Helvetica,sans-Serif" font-size="10.00" fill="#000000">/TSID/JointsDynamicsTask.h</text>
</a>
</g>
</g>
<!-- Node5&#45;&gt;Node8 -->
<g id="edge5" class="edge">
<title>Node5&#45;&gt;Node8</title>
<path fill="none" stroke="#191970" d="M398.2702,-119.865C370.564,-109.3773 336.4165,-96.4515 310.3955,-86.6017"/>
<polygon fill="#191970" stroke="#191970" points="397.1863,-123.197 407.7777,-123.4639 399.6644,-116.6503 397.1863,-123.197"/>
</g>
<!-- Node10 -->
<g id="node8" class="node">
<title>Node10</title>
<g id="a_node8"><a xlink:href="JointsTrackingTask_8h.html" target="_top" xlink:title="TSID/include/BipedalLocomotion\l/TSID/JointsTrackingTask.h">
<polygon fill="none" stroke="#000000" points="368,-56.5 368,-86.5 527,-86.5 527,-56.5 368,-56.5"/>
<text text-anchor="start" x="376" y="-74.5" font-family="Helvetica,sans-Serif" font-size="10.00" fill="#000000">TSID/include/BipedalLocomotion</text>
<text text-anchor="middle" x="447.5" y="-63.5" font-family="Helvetica,sans-Serif" font-size="10.00" fill="#000000">/TSID/JointsTrackingTask.h</text>
</a>
</g>
</g>
<!-- Node5&#45;&gt;Node10 -->
<g id="edge7" class="edge">
<title>Node5&#45;&gt;Node10</title>
<path fill="none" stroke="#191970" d="M447.5,-113.0249C447.5,-104.128 447.5,-94.4287 447.5,-86.6432"/>
<polygon fill="#191970" stroke="#191970" points="444.0001,-113.2966 447.5,-123.2967 451.0001,-113.2967 444.0001,-113.2966"/>
</g>
<!-- Node12 -->
<g id="node10" class="node">
<title>Node12</title>
<g id="a_node10"><a xlink:href="SE3Task_8h.html" target="_top" xlink:title="TSID/include/BipedalLocomotion\l/TSID/SE3Task.h">
<polygon fill="none" stroke="#000000" points="545,-56.5 545,-86.5 704,-86.5 704,-56.5 545,-56.5"/>
<text text-anchor="start" x="553" y="-74.5" font-family="Helvetica,sans-Serif" font-size="10.00" fill="#000000">TSID/include/BipedalLocomotion</text>
<text text-anchor="middle" x="624.5" y="-63.5" font-family="Helvetica,sans-Serif" font-size="10.00" fill="#000000">/TSID/SE3Task.h</text>
</a>
</g>
</g>
<!-- Node5&#45;&gt;Node12 -->
<g id="edge9" class="edge">
<title>Node5&#45;&gt;Node12</title>
<path fill="none" stroke="#191970" d="M496.7298,-119.865C524.436,-109.3773 558.5835,-96.4515 584.6045,-86.6017"/>
<polygon fill="#191970" stroke="#191970" points="495.3356,-116.6503 487.2223,-123.4639 497.8137,-123.197 495.3356,-116.6503"/>
</g>
<!-- Node14 -->
<g id="node12" class="node">
<title>Node14</title>
<g id="a_node12"><a xlink:href="Task_8cpp.html" target="_top" xlink:title="TSID/src/Task.cpp">
<polygon fill="none" stroke="#000000" points="722.5,-62 722.5,-81 822.5,-81 822.5,-62 722.5,-62"/>
<text text-anchor="middle" x="772.5" y="-69" font-family="Helvetica,sans-Serif" font-size="10.00" fill="#000000">TSID/src/Task.cpp</text>
</a>
</g>
</g>
<!-- Node5&#45;&gt;Node14 -->
<g id="edge11" class="edge">
<title>Node5&#45;&gt;Node14</title>
<path fill="none" stroke="#191970" d="M537.3658,-122.6196C589.0592,-113.1059 655.1332,-100.3019 713.5,-87 721.3477,-85.2115 729.7357,-83.1188 737.6517,-81.0602"/>
<polygon fill="#191970" stroke="#191970" points="536.4307,-119.2326 527.2253,-124.4777 537.6924,-126.118 536.4307,-119.2326"/>
</g>
<!-- Node7 -->
<g id="node5" class="node">
<title>Node7</title>
<g id="a_node5"><a xlink:href="BaseDynamicsTask_8cpp.html" target="_top" xlink:title="TSID/src/BaseDynamicsTask.cpp">
<polygon fill="none" stroke="#000000" points="0,-.5 0,-19.5 167,-19.5 167,-.5 0,-.5"/>
<text text-anchor="middle" x="83.5" y="-7.5" font-family="Helvetica,sans-Serif" font-size="10.00" fill="#000000">TSID/src/BaseDynamicsTask.cpp</text>
</a>
</g>
</g>
<!-- Node6&#45;&gt;Node7 -->
<g id="edge4" class="edge">
<title>Node6&#45;&gt;Node7</title>
<path fill="none" stroke="#191970" d="M86.45,-46.2849C85.694,-36.9858 84.8812,-26.9883 84.3006,-19.8469"/>
<polygon fill="#191970" stroke="#191970" points="82.9651,-46.6143 87.264,-56.2977 89.9421,-46.047 82.9651,-46.6143"/>
</g>
<!-- Node9 -->
<g id="node7" class="node">
<title>Node9</title>
<g id="a_node7"><a xlink:href="JointsDynamicsTask_8cpp.html" target="_top" xlink:title="TSID/src/JointsDynamicsTask.cpp">
<polygon fill="none" stroke="#000000" points="185.5,-.5 185.5,-19.5 355.5,-19.5 355.5,-.5 185.5,-.5"/>
<text text-anchor="middle" x="270.5" y="-7.5" font-family="Helvetica,sans-Serif" font-size="10.00" fill="#000000">TSID/src/JointsDynamicsTask.cpp</text>
</a>
</g>
</g>
<!-- Node8&#45;&gt;Node9 -->
<g id="edge6" class="edge">
<title>Node8&#45;&gt;Node9</title>
<path fill="none" stroke="#191970" d="M270.5,-46.2849C270.5,-36.9858 270.5,-26.9883 270.5,-19.8469"/>
<polygon fill="#191970" stroke="#191970" points="267.0001,-46.2977 270.5,-56.2977 274.0001,-46.2978 267.0001,-46.2977"/>
</g>
<!-- Node11 -->
<g id="node9" class="node">
<title>Node11</title>
<g id="a_node9"><a xlink:href="JointsTrackingTask_8cpp.html" target="_top" xlink:title="TSID/src/JointsTrackingTask.cpp">
<polygon fill="none" stroke="#000000" points="373.5,-.5 373.5,-19.5 537.5,-19.5 537.5,-.5 373.5,-.5"/>
<text text-anchor="middle" x="455.5" y="-7.5" font-family="Helvetica,sans-Serif" font-size="10.00" fill="#000000">TSID/src/JointsTrackingTask.cpp</text>
</a>
</g>
</g>
<!-- Node10&#45;&gt;Node11 -->
<g id="edge8" class="edge">
<title>Node10&#45;&gt;Node11</title>
<path fill="none" stroke="#191970" d="M450.78,-46.2849C451.9897,-36.9858 453.2901,-26.9883 454.2191,-19.8469"/>
<polygon fill="#191970" stroke="#191970" points="447.2968,-45.9298 449.4775,-56.2977 454.2383,-46.8328 447.2968,-45.9298"/>
</g>
<!-- Node13 -->
<g id="node11" class="node">
<title>Node13</title>
<g id="a_node11"><a xlink:href="SE3Task_8cpp.html" target="_top" xlink:title="TSID/src/SE3Task.cpp">
<polygon fill="none" stroke="#000000" points="565,-.5 565,-19.5 684,-19.5 684,-.5 565,-.5"/>
<text text-anchor="middle" x="624.5" y="-7.5" font-family="Helvetica,sans-Serif" font-size="10.00" fill="#000000">TSID/src/SE3Task.cpp</text>
</a>
</g>
</g>
<!-- Node12&#45;&gt;Node13 -->
<g id="edge10" class="edge">
<title>Node12&#45;&gt;Node13</title>
<path fill="none" stroke="#191970" d="M624.5,-46.2849C624.5,-36.9858 624.5,-26.9883 624.5,-19.8469"/>
<polygon fill="#191970" stroke="#191970" points="621.0001,-46.2977 624.5,-56.2977 628.0001,-46.2978 621.0001,-46.2977"/>
</g>
</g>
</svg>
