<?xml version="1.0" encoding="UTF-8" standalone="no"?>
<!DOCTYPE svg PUBLIC "-//W3C//DTD SVG 1.1//EN"
 "http://www.w3.org/Graphics/SVG/1.1/DTD/svg11.dtd">
<!-- Generated by graphviz version 2.40.1 (20161225.0304)
 -->
<!-- Title: System/src/VariablesHandler.cpp Pages: 1 -->
<svg width="230pt" height="151pt"
 viewBox="0.00 0.00 229.50 151.00" xmlns="http://www.w3.org/2000/svg" xmlns:xlink="http://www.w3.org/1999/xlink">
<g id="graph0" class="graph" transform="scale(1 1) rotate(0) translate(4 147)">
<title>System/src/VariablesHandler.cpp</title>
<!-- Node0 -->
<g id="node1" class="node">
<title>Node0</title>
<polygon fill="#bfbfbf" stroke="#000000" points="1.5,-123.5 1.5,-142.5 164.5,-142.5 164.5,-123.5 1.5,-123.5"/>
<text text-anchor="middle" x="83" y="-130.5" font-family="Helvetica,sans-Serif" font-size="10.00" fill="#000000">System/src/VariablesHandler.cpp</text>
</g>
<!-- Node1 -->
<g id="node2" class="node">
<title>Node1</title>
<polygon fill="none" stroke="#bfbfbf" points="0,-62 0,-81 54,-81 54,-62 0,-62"/>
<text text-anchor="middle" x="27" y="-69" font-family="Helvetica,sans-Serif" font-size="10.00" fill="#000000">iostream</text>
</g>
<!-- Node0&#45;&gt;Node1 -->
<g id="edge1" class="edge">
<title>Node0&#45;&gt;Node1</title>
<path fill="none" stroke="#191970" d="M74.25,-123.3906C65.8338,-114.1478 52.9203,-99.966 42.719,-88.7628"/>
<polygon fill="#191970" stroke="#191970" points="45.194,-86.2824 35.8734,-81.2449 40.0182,-90.9953 45.194,-86.2824"/>
</g>
<!-- Node2 -->
<g id="node3" class="node">
<title>Node2</title>
<g id="a_node3"><a xlink:href="VariablesHandler_8h.html" target="_top" xlink:title="BipedalLocomotion/System\l/VariablesHandler.h">
<polygon fill="none" stroke="#000000" points="72,-56.5 72,-86.5 208,-86.5 208,-56.5 72,-56.5"/>
<text text-anchor="start" x="80" y="-74.5" font-family="Helvetica,sans-Serif" font-size="10.00" fill="#000000">BipedalLocomotion/System</text>
<text text-anchor="middle" x="140" y="-63.5" font-family="Helvetica,sans-Serif" font-size="10.00" fill="#000000">/VariablesHandler.h</text>
</a>
</g>
</g>
<!-- Node0&#45;&gt;Node2 -->
<g id="edge2" class="edge">
<title>Node0&#45;&gt;Node2</title>
<path fill="none" stroke="#191970" d="M91.9063,-123.3906C99.1919,-115.5298 109.7887,-104.0964 119.1823,-93.9612"/>
<polygon fill="#191970" stroke="#191970" points="121.8256,-96.2581 126.0562,-86.5446 116.6915,-91.4997 121.8256,-96.2581"/>
</g>
<!-- Node3 -->
<g id="node4" class="node">
<title>Node3</title>
<polygon fill="none" stroke="#bfbfbf" points="79.5,-.5 79.5,-19.5 120.5,-19.5 120.5,-.5 79.5,-.5"/>
<text text-anchor="middle" x="100" y="-7.5" font-family="Helvetica,sans-Serif" font-size="10.00" fill="#000000">string</text>
</g>
<!-- Node2&#45;&gt;Node3 -->
<g id="edge3" class="edge">
<title>Node2&#45;&gt;Node3</title>
<path fill="none" stroke="#191970" d="M130.1124,-56.2977C124.6178,-47.8498 117.7414,-37.2773 111.9473,-28.369"/>
<polygon fill="#191970" stroke="#191970" points="114.7908,-26.3215 106.4045,-19.8469 108.9228,-30.1381 114.7908,-26.3215"/>
</g>
<!-- Node4 -->
<g id="node5" class="node">
<title>Node4</title>
<polygon fill="none" stroke="#bfbfbf" points="138.5,-.5 138.5,-19.5 221.5,-19.5 221.5,-.5 138.5,-.5"/>
<text text-anchor="middle" x="180" y="-7.5" font-family="Helvetica,sans-Serif" font-size="10.00" fill="#000000">unordered_map</text>
</g>
<!-- Node2&#45;&gt;Node4 -->
<g id="edge4" class="edge">
<title>Node2&#45;&gt;Node4</title>
<path fill="none" stroke="#191970" d="M149.8876,-56.2977C155.3822,-47.8498 162.2586,-37.2773 168.0527,-28.369"/>
<polygon fill="#191970" stroke="#191970" points="171.0772,-30.1381 173.5955,-19.8469 165.2092,-26.3215 171.0772,-30.1381"/>
</g>
</g>
</svg>
