<?xml version="1.0" encoding="UTF-8" standalone="no"?>
<!DOCTYPE svg PUBLIC "-//W3C//DTD SVG 1.1//EN"
 "http://www.w3.org/Graphics/SVG/1.1/DTD/svg11.dtd">
<!-- Generated by graphviz version 2.40.1 (20161225.0304)
 -->
<!-- Title: RobotInterface/YarpImplementation/include/BipedalLocomotion/RobotInterface/YarpHelper.h Pages: 1 -->
<svg width="612pt" height="307pt"
 viewBox="0.00 0.00 612.00 307.00" xmlns="http://www.w3.org/2000/svg" xmlns:xlink="http://www.w3.org/1999/xlink">
<g id="graph0" class="graph" transform="scale(1 1) rotate(0) translate(4 303)">
<title>RobotInterface/YarpImplementation/include/BipedalLocomotion/RobotInterface/YarpHelper.h</title>
<!-- Node0 -->
<g id="node1" class="node">
<title>Node0</title>
<polygon fill="#bfbfbf" stroke="#000000" points="333.5,-257.5 333.5,-298.5 504.5,-298.5 504.5,-257.5 333.5,-257.5"/>
<text text-anchor="start" x="341.5" y="-286.5" font-family="Helvetica,sans-Serif" font-size="10.00" fill="#000000">RobotInterface/YarpImplementation</text>
<text text-anchor="start" x="341.5" y="-275.5" font-family="Helvetica,sans-Serif" font-size="10.00" fill="#000000">/include/BipedalLocomotion</text>
<text text-anchor="middle" x="419" y="-264.5" font-family="Helvetica,sans-Serif" font-size="10.00" fill="#000000">/RobotInterface/YarpHelper.h</text>
</g>
<!-- Node1 -->
<g id="node2" class="node">
<title>Node1</title>
<polygon fill="none" stroke="#bfbfbf" points="552,-62 552,-81 604,-81 604,-62 552,-62"/>
<text text-anchor="middle" x="578" y="-69" font-family="Helvetica,sans-Serif" font-size="10.00" fill="#000000">memory</text>
</g>
<!-- Node0&#45;&gt;Node1 -->
<g id="edge1" class="edge">
<title>Node0&#45;&gt;Node1</title>
<path fill="none" stroke="#191970" d="M504.7515,-259.3528C525.4062,-250.9117 545.4069,-238.6863 559,-221 588.3936,-182.7555 585.3052,-122.0609 581.2747,-91.0857"/>
<polygon fill="#191970" stroke="#191970" points="584.726,-90.498 579.8056,-81.1151 577.8007,-91.5185 584.726,-90.498"/>
</g>
<!-- Node2 -->
<g id="node3" class="node">
<title>Node2</title>
<polygon fill="none" stroke="#bfbfbf" points="204.5,-129 204.5,-148 245.5,-148 245.5,-129 204.5,-129"/>
<text text-anchor="middle" x="225" y="-136" font-family="Helvetica,sans-Serif" font-size="10.00" fill="#000000">string</text>
</g>
<!-- Node0&#45;&gt;Node2 -->
<g id="edge2" class="edge">
<title>Node0&#45;&gt;Node2</title>
<path fill="none" stroke="#191970" d="M333.2319,-261.7817C306.8352,-253.286 279.3915,-240.4222 259,-221 241.2666,-204.1095 232.4694,-176.6195 228.3341,-158.0617"/>
<polygon fill="#191970" stroke="#191970" points="231.7335,-157.209 226.3645,-148.0753 224.8658,-158.5636 231.7335,-157.209"/>
</g>
<!-- Node3 -->
<g id="node4" class="node">
<title>Node3</title>
<polygon fill="none" stroke="#bfbfbf" points="438.5,-196 438.5,-215 549.5,-215 549.5,-196 438.5,-196"/>
<text text-anchor="middle" x="494" y="-203" font-family="Helvetica,sans-Serif" font-size="10.00" fill="#000000">yarp/dev/PolyDriver.h</text>
</g>
<!-- Node0&#45;&gt;Node3 -->
<g id="edge3" class="edge">
<title>Node0&#45;&gt;Node3</title>
<path fill="none" stroke="#191970" d="M440.2914,-257.4183C451.8612,-246.2342 465.9799,-232.5861 476.8375,-222.0904"/>
<polygon fill="#191970" stroke="#191970" points="479.3268,-224.5521 484.0841,-215.0853 474.4616,-219.5191 479.3268,-224.5521"/>
</g>
<!-- Node4 -->
<g id="node5" class="node">
<title>Node4</title>
<g id="a_node5"><a xlink:href="IParametersHandler_8h.html" target="_top" xlink:title="BipedalLocomotion/Parameters\lHandler/IParametersHandler.h">
<polygon fill="none" stroke="#000000" points="268,-190.5 268,-220.5 420,-220.5 420,-190.5 268,-190.5"/>
<text text-anchor="start" x="276" y="-208.5" font-family="Helvetica,sans-Serif" font-size="10.00" fill="#000000">BipedalLocomotion/Parameters</text>
<text text-anchor="middle" x="344" y="-197.5" font-family="Helvetica,sans-Serif" font-size="10.00" fill="#000000">Handler/IParametersHandler.h</text>
</a>
</g>
</g>
<!-- Node0&#45;&gt;Node4 -->
<g id="edge4" class="edge">
<title>Node0&#45;&gt;Node4</title>
<path fill="none" stroke="#191970" d="M397.7086,-257.4183C388.1404,-248.1691 376.829,-237.2347 367.0604,-227.7917"/>
<polygon fill="#191970" stroke="#191970" points="369.2423,-225.0329 359.6198,-220.5991 364.3771,-230.0658 369.2423,-225.0329"/>
</g>
<!-- Node4&#45;&gt;Node1 -->
<g id="edge5" class="edge">
<title>Node4&#45;&gt;Node1</title>
<path fill="none" stroke="#191970" d="M378.9061,-190.3909C399.3577,-180.971 425.3424,-168.0035 447,-154 465.3031,-142.1654 466.9499,-135.217 485,-123 505.6589,-109.0173 530.428,-95.4433 549.2081,-85.7445"/>
<polygon fill="#191970" stroke="#191970" points="550.8464,-88.8379 558.1652,-81.1771 547.6666,-82.6018 550.8464,-88.8379"/>
</g>
<!-- Node4&#45;&gt;Node2 -->
<g id="edge6" class="edge">
<title>Node4&#45;&gt;Node2</title>
<path fill="none" stroke="#191970" d="M317.2941,-190.4639C297.4173,-179.2728 270.4399,-164.0838 250.7868,-153.0186"/>
<polygon fill="#191970" stroke="#191970" points="252.4887,-149.9602 242.0577,-148.1039 249.0544,-156.0599 252.4887,-149.9602"/>
</g>
<!-- Node5 -->
<g id="node6" class="node">
<title>Node5</title>
<polygon fill="none" stroke="#bfbfbf" points="494,-129 494,-148 538,-148 538,-129 494,-129"/>
<text text-anchor="middle" x="516" y="-136" font-family="Helvetica,sans-Serif" font-size="10.00" fill="#000000">vector</text>
</g>
<!-- Node4&#45;&gt;Node5 -->
<g id="edge7" class="edge">
<title>Node4&#45;&gt;Node5</title>
<path fill="none" stroke="#191970" d="M385.25,-190.424C412.3095,-180.4006 448.4019,-166.7777 480,-154 481.6047,-153.3511 483.2459,-152.6781 484.9006,-151.9922"/>
<polygon fill="#191970" stroke="#191970" points="486.5098,-155.1122 494.3636,-148.001 483.7894,-148.6624 486.5098,-155.1122"/>
</g>
<!-- Node6 -->
<g id="node7" class="node">
<title>Node6</title>
<g id="a_node7"><a xlink:href="Vector_8h_source.html" target="_top" xlink:title="BipedalLocomotion/Generic\lContainer/Vector.h">
<polygon fill="none" stroke="#000000" points="302,-123.5 302,-153.5 438,-153.5 438,-123.5 302,-123.5"/>
<text text-anchor="start" x="310" y="-141.5" font-family="Helvetica,sans-Serif" font-size="10.00" fill="#000000">BipedalLocomotion/Generic</text>
<text text-anchor="middle" x="370" y="-130.5" font-family="Helvetica,sans-Serif" font-size="10.00" fill="#000000">Container/Vector.h</text>
</a>
</g>
</g>
<!-- Node4&#45;&gt;Node6 -->
<g id="edge8" class="edge">
<title>Node4&#45;&gt;Node6</title>
<path fill="none" stroke="#191970" d="M349.8998,-190.2967C353.0246,-182.2443 356.9389,-172.1574 360.481,-163.0296"/>
<polygon fill="#191970" stroke="#191970" points="363.7687,-164.2321 364.1235,-153.6432 357.2428,-161.6996 363.7687,-164.2321"/>
</g>
<!-- Node8 -->
<g id="node9" class="node">
<title>Node8</title>
<g id="a_node9"><a xlink:href="TemplateHelpers_8h_source.html" target="_top" xlink:title="BipedalLocomotion/Generic\lContainer/TemplateHelpers.h">
<polygon fill="none" stroke="#000000" points="41,-56.5 41,-86.5 185,-86.5 185,-56.5 41,-56.5"/>
<text text-anchor="start" x="49" y="-74.5" font-family="Helvetica,sans-Serif" font-size="10.00" fill="#000000">BipedalLocomotion/Generic</text>
<text text-anchor="middle" x="113" y="-63.5" font-family="Helvetica,sans-Serif" font-size="10.00" fill="#000000">Container/TemplateHelpers.h</text>
</a>
</g>
</g>
<!-- Node4&#45;&gt;Node8 -->
<g id="edge18" class="edge">
<title>Node4&#45;&gt;Node8</title>
<path fill="none" stroke="#191970" d="M329.0575,-190.2638C308.1967,-169.2418 271.0981,-132.8194 255,-123 231.9746,-108.9552 204.531,-97.8831 179.9355,-89.6621"/>
<polygon fill="#191970" stroke="#191970" points="180.9004,-86.2956 170.3084,-86.5387 178.7402,-92.954 180.9004,-86.2956"/>
</g>
<!-- Node6&#45;&gt;Node1 -->
<g id="edge17" class="edge">
<title>Node6&#45;&gt;Node1</title>
<path fill="none" stroke="#191970" d="M427.0866,-123.483C461.0987,-114.0482 504.9221,-101.0341 543,-87 544.629,-86.3996 546.2901,-85.7603 547.9597,-85.0963"/>
<polygon fill="#191970" stroke="#191970" points="549.5789,-88.2129 557.4513,-81.1223 546.8754,-81.7559 549.5789,-88.2129"/>
</g>
<!-- Node7 -->
<g id="node8" class="node">
<title>Node7</title>
<polygon fill="none" stroke="#bfbfbf" points="203,-62 203,-81 317,-81 317,-62 203,-62"/>
<text text-anchor="middle" x="260" y="-69" font-family="Helvetica,sans-Serif" font-size="10.00" fill="#000000">iDynTree/Core/Span.h</text>
</g>
<!-- Node6&#45;&gt;Node7 -->
<g id="edge9" class="edge">
<title>Node6&#45;&gt;Node7</title>
<path fill="none" stroke="#191970" d="M345.3139,-123.4639C327.1898,-112.4247 302.6791,-97.4954 284.58,-86.4715"/>
<polygon fill="#191970" stroke="#191970" points="286.1288,-83.3167 275.7676,-81.1039 282.4874,-89.2951 286.1288,-83.3167"/>
</g>
<!-- Node6&#45;&gt;Node8 -->
<g id="edge10" class="edge">
<title>Node6&#45;&gt;Node8</title>
<path fill="none" stroke="#191970" d="M312.3242,-123.4639C273.3591,-113.3057 221.7589,-99.8535 180.8227,-89.1814"/>
<polygon fill="#191970" stroke="#191970" points="181.4869,-85.7376 170.9274,-86.6017 179.721,-92.5112 181.4869,-85.7376"/>
</g>
<!-- Node12 -->
<g id="node13" class="node">
<title>Node12</title>
<polygon fill="none" stroke="#bfbfbf" points="335.5,-62 335.5,-81 394.5,-81 394.5,-62 335.5,-62"/>
<text text-anchor="middle" x="365" y="-69" font-family="Helvetica,sans-Serif" font-size="10.00" fill="#000000">functional</text>
</g>
<!-- Node6&#45;&gt;Node12 -->
<g id="edge14" class="edge">
<title>Node6&#45;&gt;Node12</title>
<path fill="none" stroke="#191970" d="M368.8654,-123.2967C368.1545,-113.7699 367.231,-101.3954 366.465,-91.1306"/>
<polygon fill="#191970" stroke="#191970" points="369.9476,-90.7667 365.7131,-81.055 362.9671,-91.2877 369.9476,-90.7667"/>
</g>
<!-- Node13 -->
<g id="node14" class="node">
<title>Node13</title>
<polygon fill="none" stroke="#bfbfbf" points="412.5,-62 412.5,-81 461.5,-81 461.5,-62 412.5,-62"/>
<text text-anchor="middle" x="437" y="-69" font-family="Helvetica,sans-Serif" font-size="10.00" fill="#000000">cassert</text>
</g>
<!-- Node6&#45;&gt;Node13 -->
<g id="edge15" class="edge">
<title>Node6&#45;&gt;Node13</title>
<path fill="none" stroke="#191970" d="M385.2033,-123.2967C395.6422,-112.8578 409.5003,-98.9997 420.2554,-88.2446"/>
<polygon fill="#191970" stroke="#191970" points="422.8488,-90.601 427.445,-81.055 417.899,-85.6512 422.8488,-90.601"/>
</g>
<!-- Node14 -->
<g id="node15" class="node">
<title>Node14</title>
<polygon fill="none" stroke="#bfbfbf" points="480,-62 480,-81 534,-81 534,-62 480,-62"/>
<text text-anchor="middle" x="507" y="-69" font-family="Helvetica,sans-Serif" font-size="10.00" fill="#000000">iostream</text>
</g>
<!-- Node6&#45;&gt;Node14 -->
<g id="edge16" class="edge">
<title>Node6&#45;&gt;Node14</title>
<path fill="none" stroke="#191970" d="M400.7455,-123.4639C423.9394,-112.1209 455.5316,-96.6707 478.2294,-85.5703"/>
<polygon fill="#191970" stroke="#191970" points="479.9165,-88.6414 487.3621,-81.1039 476.8412,-82.3531 479.9165,-88.6414"/>
</g>
<!-- Node9 -->
<g id="node10" class="node">
<title>Node9</title>
<polygon fill="none" stroke="#bfbfbf" points="0,-.5 0,-19.5 62,-19.5 62,-.5 0,-.5"/>
<text text-anchor="middle" x="31" y="-7.5" font-family="Helvetica,sans-Serif" font-size="10.00" fill="#000000">type_traits</text>
</g>
<!-- Node8&#45;&gt;Node9 -->
<g id="edge11" class="edge">
<title>Node8&#45;&gt;Node9</title>
<path fill="none" stroke="#191970" d="M92.7303,-56.2977C80.3994,-47.0495 64.6734,-35.2551 52.1803,-25.8853"/>
<polygon fill="#191970" stroke="#191970" points="54.2293,-23.047 44.1292,-19.8469 50.0292,-28.647 54.2293,-23.047"/>
</g>
<!-- Node10 -->
<g id="node11" class="node">
<title>Node10</title>
<polygon fill="none" stroke="#bfbfbf" points="80,-.5 80,-19.5 146,-19.5 146,-.5 80,-.5"/>
<text text-anchor="middle" x="113" y="-7.5" font-family="Helvetica,sans-Serif" font-size="10.00" fill="#000000">string_view</text>
</g>
<!-- Node8&#45;&gt;Node10 -->
<g id="edge12" class="edge">
<title>Node8&#45;&gt;Node10</title>
<path fill="none" stroke="#191970" d="M113,-56.2977C113,-48.3834 113,-38.6043 113,-30.0759"/>
<polygon fill="#191970" stroke="#191970" points="116.5001,-29.8469 113,-19.8469 109.5001,-29.847 116.5001,-29.8469"/>
</g>
<!-- Node11 -->
<g id="node12" class="node">
<title>Node11</title>
<polygon fill="none" stroke="#bfbfbf" points="164.5,-.5 164.5,-19.5 229.5,-19.5 229.5,-.5 164.5,-.5"/>
<text text-anchor="middle" x="197" y="-7.5" font-family="Helvetica,sans-Serif" font-size="10.00" fill="#000000">Eigen/Core</text>
</g>
<!-- Node8&#45;&gt;Node11 -->
<g id="edge13" class="edge">
<title>Node8&#45;&gt;Node11</title>
<path fill="none" stroke="#191970" d="M133.7641,-56.2977C146.3958,-47.0495 162.5053,-35.2551 175.3031,-25.8853"/>
<polygon fill="#191970" stroke="#191970" points="177.5495,-28.5784 183.5505,-19.8469 173.4143,-22.9303 177.5495,-28.5784"/>
</g>
</g>
</svg>
