<?xml version="1.0" encoding="UTF-8" standalone="no"?>
<!DOCTYPE svg PUBLIC "-//W3C//DTD SVG 1.1//EN"
 "http://www.w3.org/Graphics/SVG/1.1/DTD/svg11.dtd">
<!-- Generated by graphviz version 2.40.1 (20161225.0304)
 -->
<!-- Title: ParametersHandler/YarpImplementation/src/YarpImplementation.cpp Pages: 1 -->
<svg width="1099pt" height="475pt"
 viewBox="0.00 0.00 1099.00 475.00" xmlns="http://www.w3.org/2000/svg" xmlns:xlink="http://www.w3.org/1999/xlink">
<g id="graph0" class="graph" transform="scale(1 1) rotate(0) translate(4 471)">
<title>ParametersHandler/YarpImplementation/src/YarpImplementation.cpp</title>
<!-- Node0 -->
<g id="node1" class="node">
<title>Node0</title>
<polygon fill="#bfbfbf" stroke="#000000" points="602.5,-436.5 602.5,-466.5 793.5,-466.5 793.5,-436.5 602.5,-436.5"/>
<text text-anchor="start" x="610.5" y="-454.5" font-family="Helvetica,sans-Serif" font-size="10.00" fill="#000000">ParametersHandler/YarpImplementation</text>
<text text-anchor="middle" x="698" y="-443.5" font-family="Helvetica,sans-Serif" font-size="10.00" fill="#000000">/src/YarpImplementation.cpp</text>
</g>
<!-- Node1 -->
<g id="node2" class="node">
<title>Node1</title>
<polygon fill="none" stroke="#bfbfbf" points="422,-313.5 422,-332.5 508,-332.5 508,-313.5 422,-313.5"/>
<text text-anchor="middle" x="465" y="-320.5" font-family="Helvetica,sans-Serif" font-size="10.00" fill="#000000">yarp/os/Bottle.h</text>
</g>
<!-- Node0&#45;&gt;Node1 -->
<g id="edge1" class="edge">
<title>Node0&#45;&gt;Node1</title>
<path fill="none" stroke="#191970" d="M670.3569,-436.2548C625.0979,-411.2944 535.7888,-362.0402 491.371,-337.5437"/>
<polygon fill="#191970" stroke="#191970" points="492.8006,-334.3351 482.3537,-332.5706 489.42,-340.4647 492.8006,-334.3351"/>
</g>
<!-- Node2 -->
<g id="node3" class="node">
<title>Node2</title>
<polygon fill="none" stroke="#bfbfbf" points="216.5,-62 216.5,-81 265.5,-81 265.5,-62 216.5,-62"/>
<text text-anchor="middle" x="241" y="-69" font-family="Helvetica,sans-Serif" font-size="10.00" fill="#000000">cassert</text>
</g>
<!-- Node0&#45;&gt;Node2 -->
<g id="edge2" class="edge">
<title>Node0&#45;&gt;Node2</title>
<path fill="none" stroke="#191970" d="M602.4096,-443.7116C411.245,-426.8463 0,-383.5303 0,-323 0,-323 0,-323 0,-261.5 0,-157.6104 139.8179,-101.7523 206.4606,-81.0287"/>
<polygon fill="#191970" stroke="#191970" points="207.555,-84.3544 216.1165,-78.1132 205.5316,-77.6532 207.555,-84.3544"/>
</g>
<!-- Node3 -->
<g id="node4" class="node">
<title>Node3</title>
<polygon fill="none" stroke="#bfbfbf" points="1021.5,-190.5 1021.5,-209.5 1062.5,-209.5 1062.5,-190.5 1021.5,-190.5"/>
<text text-anchor="middle" x="1042" y="-197.5" font-family="Helvetica,sans-Serif" font-size="10.00" fill="#000000">string</text>
</g>
<!-- Node0&#45;&gt;Node3 -->
<g id="edge3" class="edge">
<title>Node0&#45;&gt;Node3</title>
<path fill="none" stroke="#191970" d="M745.1926,-436.4691C802.6122,-417.0908 901.3702,-380.1982 978,-333 1011.3357,-312.4678 1029.2907,-312.4068 1046,-277 1054.5409,-258.9019 1051.7422,-235.6819 1047.9353,-219.4944"/>
<polygon fill="#191970" stroke="#191970" points="1051.2412,-218.3095 1045.2658,-209.5605 1044.481,-220.1262 1051.2412,-218.3095"/>
</g>
<!-- Node4 -->
<g id="node5" class="node">
<title>Node4</title>
<g id="a_node5"><a xlink:href="YarpImplementation_8h.html" target="_top" xlink:title="BipedalLocomotion/Parameters\lHandler/YarpImplementation.h">
<polygon fill="none" stroke="#000000" points="665,-369.5 665,-399.5 817,-399.5 817,-369.5 665,-369.5"/>
<text text-anchor="start" x="673" y="-387.5" font-family="Helvetica,sans-Serif" font-size="10.00" fill="#000000">BipedalLocomotion/Parameters</text>
<text text-anchor="middle" x="741" y="-376.5" font-family="Helvetica,sans-Serif" font-size="10.00" fill="#000000">Handler/YarpImplementation.h</text>
</a>
</g>
</g>
<!-- Node0&#45;&gt;Node4 -->
<g id="edge4" class="edge">
<title>Node0&#45;&gt;Node4</title>
<path fill="none" stroke="#191970" d="M707.7574,-436.2967C713.0903,-427.9873 719.8135,-417.5115 725.816,-408.1587"/>
<polygon fill="#191970" stroke="#191970" points="728.8255,-409.9495 731.2812,-399.6432 722.9344,-406.1686 728.8255,-409.9495"/>
</g>
<!-- Node4&#45;&gt;Node1 -->
<g id="edge8" class="edge">
<title>Node4&#45;&gt;Node1</title>
<path fill="none" stroke="#191970" d="M673.4828,-369.4554C625.5127,-358.7664 562.0106,-344.6165 517.7472,-334.7535"/>
<polygon fill="#191970" stroke="#191970" points="518.2921,-331.2891 507.7702,-332.5303 516.7696,-338.1215 518.2921,-331.2891"/>
</g>
<!-- Node4&#45;&gt;Node3 -->
<g id="edge6" class="edge">
<title>Node4&#45;&gt;Node3</title>
<path fill="none" stroke="#191970" d="M817.0022,-371.3461C855.4976,-363.1229 902.3545,-350.6767 942,-333 982.9802,-314.7282 1000.8938,-314.1875 1026,-277 1037.4215,-260.0824 1040.9596,-236.6641 1041.9268,-220.1073"/>
<polygon fill="#191970" stroke="#191970" points="1045.4315,-220.0114 1042.2509,-209.9053 1038.435,-219.7891 1045.4315,-220.0114"/>
</g>
<!-- Node5 -->
<g id="node6" class="node">
<title>Node5</title>
<polygon fill="none" stroke="#bfbfbf" points="969,-62 969,-81 1021,-81 1021,-62 969,-62"/>
<text text-anchor="middle" x="995" y="-69" font-family="Helvetica,sans-Serif" font-size="10.00" fill="#000000">memory</text>
</g>
<!-- Node4&#45;&gt;Node5 -->
<g id="edge5" class="edge">
<title>Node4&#45;&gt;Node5</title>
<path fill="none" stroke="#191970" d="M817.3765,-373.384C920.3602,-356.2083 1091,-319.0637 1091,-261.5 1091,-261.5 1091,-261.5 1091,-200 1091,-151.2934 1046.1872,-109.1584 1017.7963,-87.3514"/>
<polygon fill="#191970" stroke="#191970" points="1019.6958,-84.4025 1009.5803,-81.2516 1015.523,-90.0229 1019.6958,-84.4025"/>
</g>
<!-- Node6 -->
<g id="node7" class="node">
<title>Node6</title>
<polygon fill="none" stroke="#bfbfbf" points="664.5,-313.5 664.5,-332.5 747.5,-332.5 747.5,-313.5 664.5,-313.5"/>
<text text-anchor="middle" x="706" y="-320.5" font-family="Helvetica,sans-Serif" font-size="10.00" fill="#000000">unordered_map</text>
</g>
<!-- Node4&#45;&gt;Node6 -->
<g id="edge7" class="edge">
<title>Node4&#45;&gt;Node6</title>
<path fill="none" stroke="#191970" d="M732.3483,-369.2977C727.5912,-360.9388 721.6502,-350.4997 716.6143,-341.6509"/>
<polygon fill="#191970" stroke="#191970" points="719.5921,-339.8069 711.6039,-332.8469 713.5083,-343.2692 719.5921,-339.8069"/>
</g>
<!-- Node7 -->
<g id="node8" class="node">
<title>Node7</title>
<polygon fill="none" stroke="#bfbfbf" points="729.5,-190.5 729.5,-209.5 826.5,-209.5 826.5,-190.5 729.5,-190.5"/>
<text text-anchor="middle" x="778" y="-197.5" font-family="Helvetica,sans-Serif" font-size="10.00" fill="#000000">yarp/os/Property.h</text>
</g>
<!-- Node4&#45;&gt;Node7 -->
<g id="edge9" class="edge">
<title>Node4&#45;&gt;Node7</title>
<path fill="none" stroke="#191970" d="M745.946,-369.3015C749.1329,-359.1123 753.1907,-345.3495 756,-333 765.0443,-293.2415 771.9676,-246.0004 775.468,-219.8748"/>
<polygon fill="#191970" stroke="#191970" points="778.9649,-220.1261 776.7929,-209.7563 772.0241,-219.2172 778.9649,-220.1261"/>
</g>
<!-- Node8 -->
<g id="node9" class="node">
<title>Node8</title>
<polygon fill="none" stroke="#bfbfbf" points="804.5,-313.5 804.5,-332.5 913.5,-332.5 913.5,-313.5 804.5,-313.5"/>
<text text-anchor="middle" x="859" y="-320.5" font-family="Helvetica,sans-Serif" font-size="10.00" fill="#000000">yarp/os/Searchable.h</text>
</g>
<!-- Node4&#45;&gt;Node8 -->
<g id="edge10" class="edge">
<title>Node4&#45;&gt;Node8</title>
<path fill="none" stroke="#191970" d="M769.866,-369.4554C788.6911,-359.644 813.111,-346.9167 831.6292,-337.2653"/>
<polygon fill="#191970" stroke="#191970" points="833.464,-340.2559 840.7142,-332.5303 830.2287,-334.0484 833.464,-340.2559"/>
</g>
<!-- Node9 -->
<g id="node10" class="node">
<title>Node9</title>
<g id="a_node10"><a xlink:href="IParametersHandler_8h.html" target="_top" xlink:title="BipedalLocomotion/Parameters\lHandler/IParametersHandler.h">
<polygon fill="none" stroke="#000000" points="865,-246.5 865,-276.5 1017,-276.5 1017,-246.5 865,-246.5"/>
<text text-anchor="start" x="873" y="-264.5" font-family="Helvetica,sans-Serif" font-size="10.00" fill="#000000">BipedalLocomotion/Parameters</text>
<text text-anchor="middle" x="941" y="-253.5" font-family="Helvetica,sans-Serif" font-size="10.00" fill="#000000">Handler/IParametersHandler.h</text>
</a>
</g>
</g>
<!-- Node4&#45;&gt;Node9 -->
<g id="edge11" class="edge">
<title>Node4&#45;&gt;Node9</title>
<path fill="none" stroke="#191970" d="M817.1073,-370.8993C859.9834,-361.7532 907.8997,-348.5467 923,-333 934.7697,-320.8823 939.1881,-302.2574 940.7068,-287.0544"/>
<polygon fill="#191970" stroke="#191970" points="944.2215,-286.9332 941.3638,-276.7311 937.2356,-286.4886 944.2215,-286.9332"/>
</g>
<!-- Node19 -->
<g id="node20" class="node">
<title>Node19</title>
<g id="a_node20"><a xlink:href="YarpImplementation_8tpp.html" target="_top" xlink:title="YarpImplementation.tpp">
<polygon fill="none" stroke="#000000" points="526,-313.5 526,-332.5 646,-332.5 646,-313.5 526,-313.5"/>
<text text-anchor="middle" x="586" y="-320.5" font-family="Helvetica,sans-Serif" font-size="10.00" fill="#000000">YarpImplementation.tpp</text>
</a>
</g>
</g>
<!-- Node4&#45;&gt;Node19 -->
<g id="edge26" class="edge">
<title>Node4&#45;&gt;Node19</title>
<path fill="none" stroke="#191970" d="M697.1857,-369.4554C670.5767,-359.374 637.4759,-346.2139 614.2662,-336.4755"/>
<polygon fill="#191970" stroke="#191970" points="615.5451,-333.2162 604.9725,-332.5303 612.8098,-339.6596 615.5451,-333.2162"/>
</g>
<!-- Node9&#45;&gt;Node3 -->
<g id="edge13" class="edge">
<title>Node9&#45;&gt;Node3</title>
<path fill="none" stroke="#191970" d="M965.7074,-246.4554C981.5247,-236.8241 1001.9567,-224.3828 1017.6949,-214.7996"/>
<polygon fill="#191970" stroke="#191970" points="1019.6277,-217.7206 1026.3486,-209.5303 1015.9871,-211.7418 1019.6277,-217.7206"/>
</g>
<!-- Node9&#45;&gt;Node5 -->
<g id="edge12" class="edge">
<title>Node9&#45;&gt;Node5</title>
<path fill="none" stroke="#191970" d="M945.3278,-246.2727C955.0771,-211.9695 978.7448,-128.6941 989.5082,-90.8228"/>
<polygon fill="#191970" stroke="#191970" points="992.9254,-91.6017 992.2927,-81.0258 986.1921,-89.688 992.9254,-91.6017"/>
</g>
<!-- Node10 -->
<g id="node11" class="node">
<title>Node10</title>
<polygon fill="none" stroke="#bfbfbf" points="845,-190.5 845,-209.5 889,-209.5 889,-190.5 845,-190.5"/>
<text text-anchor="middle" x="867" y="-197.5" font-family="Helvetica,sans-Serif" font-size="10.00" fill="#000000">vector</text>
</g>
<!-- Node9&#45;&gt;Node10 -->
<g id="edge14" class="edge">
<title>Node9&#45;&gt;Node10</title>
<path fill="none" stroke="#191970" d="M922.7079,-246.2977C911.7939,-237.2274 897.9329,-225.7077 886.7676,-216.4285"/>
<polygon fill="#191970" stroke="#191970" points="888.7762,-213.5468 878.8483,-209.8469 884.302,-218.9303 888.7762,-213.5468"/>
</g>
<!-- Node11 -->
<g id="node12" class="node">
<title>Node11</title>
<g id="a_node12"><a xlink:href="Vector_8h_source.html" target="_top" xlink:title="BipedalLocomotion/Generic\lContainer/Vector.h">
<polygon fill="none" stroke="#000000" points="826,-123.5 826,-153.5 962,-153.5 962,-123.5 826,-123.5"/>
<text text-anchor="start" x="834" y="-141.5" font-family="Helvetica,sans-Serif" font-size="10.00" fill="#000000">BipedalLocomotion/Generic</text>
<text text-anchor="middle" x="894" y="-130.5" font-family="Helvetica,sans-Serif" font-size="10.00" fill="#000000">Container/Vector.h</text>
</a>
</g>
</g>
<!-- Node9&#45;&gt;Node11 -->
<g id="edge15" class="edge">
<title>Node9&#45;&gt;Node11</title>
<path fill="none" stroke="#191970" d="M940.9725,-246.4516C940.4731,-231.6013 938.4102,-208.5002 931,-190 926.9474,-179.8823 920.4958,-169.8881 914.1068,-161.435"/>
<polygon fill="#191970" stroke="#191970" points="916.7956,-159.193 907.8298,-153.5481 911.3185,-163.5521 916.7956,-159.193"/>
</g>
<!-- Node13 -->
<g id="node14" class="node">
<title>Node13</title>
<g id="a_node14"><a xlink:href="TemplateHelpers_8h_source.html" target="_top" xlink:title="BipedalLocomotion/Generic\lContainer/TemplateHelpers.h">
<polygon fill="none" stroke="#000000" points="583,-56.5 583,-86.5 727,-86.5 727,-56.5 583,-56.5"/>
<text text-anchor="start" x="591" y="-74.5" font-family="Helvetica,sans-Serif" font-size="10.00" fill="#000000">BipedalLocomotion/Generic</text>
<text text-anchor="middle" x="655" y="-63.5" font-family="Helvetica,sans-Serif" font-size="10.00" fill="#000000">Container/TemplateHelpers.h</text>
</a>
</g>
</g>
<!-- Node9&#45;&gt;Node13 -->
<g id="edge25" class="edge">
<title>Node9&#45;&gt;Node13</title>
<path fill="none" stroke="#191970" d="M935.103,-246.2381C928.2867,-230.3471 915.6916,-205.6356 898,-190 868.4809,-163.9113 852.5651,-170.9448 817,-154 773.9506,-133.4894 725.2885,-108.4529 692.6332,-91.3768"/>
<polygon fill="#191970" stroke="#191970" points="693.9335,-88.1068 683.4515,-86.5647 690.684,-94.3069 693.9335,-88.1068"/>
</g>
<!-- Node11&#45;&gt;Node2 -->
<g id="edge22" class="edge">
<title>Node11&#45;&gt;Node2</title>
<path fill="none" stroke="#191970" d="M825.9655,-131.5194C688.0946,-117.3734 380.0214,-85.7641 276.0449,-75.0957"/>
<polygon fill="#191970" stroke="#191970" points="276.0944,-71.5825 265.7894,-74.0435 275.3799,-78.546 276.0944,-71.5825"/>
</g>
<!-- Node11&#45;&gt;Node5 -->
<g id="edge24" class="edge">
<title>Node11&#45;&gt;Node5</title>
<path fill="none" stroke="#191970" d="M916.6664,-123.4639C933.1549,-112.526 955.4004,-97.769 971.9722,-86.7759"/>
<polygon fill="#191970" stroke="#191970" points="974.1241,-89.5485 980.5224,-81.1039 970.2545,-83.7153 974.1241,-89.5485"/>
</g>
<!-- Node12 -->
<g id="node13" class="node">
<title>Node12</title>
<polygon fill="none" stroke="#bfbfbf" points="837,-62 837,-81 951,-81 951,-62 837,-62"/>
<text text-anchor="middle" x="894" y="-69" font-family="Helvetica,sans-Serif" font-size="10.00" fill="#000000">iDynTree/Core/Span.h</text>
</g>
<!-- Node11&#45;&gt;Node12 -->
<g id="edge16" class="edge">
<title>Node11&#45;&gt;Node12</title>
<path fill="none" stroke="#191970" d="M894,-123.2967C894,-113.7699 894,-101.3954 894,-91.1306"/>
<polygon fill="#191970" stroke="#191970" points="897.5001,-91.0549 894,-81.055 890.5001,-91.055 897.5001,-91.0549"/>
</g>
<!-- Node11&#45;&gt;Node13 -->
<g id="edge17" class="edge">
<title>Node11&#45;&gt;Node13</title>
<path fill="none" stroke="#191970" d="M840.3637,-123.4639C804.3575,-113.3701 756.7498,-100.024 718.798,-89.3848"/>
<polygon fill="#191970" stroke="#191970" points="719.4438,-85.931 708.8702,-86.6017 717.5542,-92.6711 719.4438,-85.931"/>
</g>
<!-- Node17 -->
<g id="node18" class="node">
<title>Node17</title>
<polygon fill="none" stroke="#bfbfbf" points="759.5,-62 759.5,-81 818.5,-81 818.5,-62 759.5,-62"/>
<text text-anchor="middle" x="789" y="-69" font-family="Helvetica,sans-Serif" font-size="10.00" fill="#000000">functional</text>
</g>
<!-- Node11&#45;&gt;Node17 -->
<g id="edge21" class="edge">
<title>Node11&#45;&gt;Node17</title>
<path fill="none" stroke="#191970" d="M870.436,-123.4639C853.2944,-112.526 830.1679,-97.769 812.9398,-86.7759"/>
<polygon fill="#191970" stroke="#191970" points="814.3636,-83.5326 804.0509,-81.1039 810.5982,-89.4336 814.3636,-83.5326"/>
</g>
<!-- Node18 -->
<g id="node19" class="node">
<title>Node18</title>
<polygon fill="none" stroke="#bfbfbf" points="498,-62 498,-81 552,-81 552,-62 498,-62"/>
<text text-anchor="middle" x="525" y="-69" font-family="Helvetica,sans-Serif" font-size="10.00" fill="#000000">iostream</text>
</g>
<!-- Node11&#45;&gt;Node18 -->
<g id="edge23" class="edge">
<title>Node11&#45;&gt;Node18</title>
<path fill="none" stroke="#191970" d="M825.6984,-130.4619C760.5183,-122.0978 659.8211,-107.3633 574,-87 570.0595,-86.065 565.9759,-84.9743 561.9238,-83.8125"/>
<polygon fill="#191970" stroke="#191970" points="562.6004,-80.3609 552.0157,-80.8262 560.5803,-87.0631 562.6004,-80.3609"/>
</g>
<!-- Node14 -->
<g id="node15" class="node">
<title>Node14</title>
<polygon fill="none" stroke="#bfbfbf" points="413,-.5 413,-19.5 475,-19.5 475,-.5 413,-.5"/>
<text text-anchor="middle" x="444" y="-7.5" font-family="Helvetica,sans-Serif" font-size="10.00" fill="#000000">type_traits</text>
</g>
<!-- Node13&#45;&gt;Node14 -->
<g id="edge18" class="edge">
<title>Node13&#45;&gt;Node14</title>
<path fill="none" stroke="#191970" d="M603.3836,-56.4554C567.0072,-45.8528 518.9479,-31.845 485.1483,-21.9935"/>
<polygon fill="#191970" stroke="#191970" points="485.7252,-18.516 475.1453,-19.0779 483.7664,-25.2364 485.7252,-18.516"/>
</g>
<!-- Node15 -->
<g id="node16" class="node">
<title>Node15</title>
<polygon fill="none" stroke="#bfbfbf" points="580,-.5 580,-19.5 646,-19.5 646,-.5 580,-.5"/>
<text text-anchor="middle" x="613" y="-7.5" font-family="Helvetica,sans-Serif" font-size="10.00" fill="#000000">string_view</text>
</g>
<!-- Node13&#45;&gt;Node15 -->
<g id="edge19" class="edge">
<title>Node13&#45;&gt;Node15</title>
<path fill="none" stroke="#191970" d="M644.618,-56.2977C638.8487,-47.8498 631.6284,-37.2773 625.5447,-28.369"/>
<polygon fill="#191970" stroke="#191970" points="628.2547,-26.1311 619.7247,-19.8469 622.4741,-30.0788 628.2547,-26.1311"/>
</g>
<!-- Node16 -->
<g id="node17" class="node">
<title>Node16</title>
<polygon fill="none" stroke="#bfbfbf" points="664.5,-.5 664.5,-19.5 729.5,-19.5 729.5,-.5 664.5,-.5"/>
<text text-anchor="middle" x="697" y="-7.5" font-family="Helvetica,sans-Serif" font-size="10.00" fill="#000000">Eigen/Core</text>
</g>
<!-- Node13&#45;&gt;Node16 -->
<g id="edge20" class="edge">
<title>Node13&#45;&gt;Node16</title>
<path fill="none" stroke="#191970" d="M665.382,-56.2977C671.1513,-47.8498 678.3716,-37.2773 684.4553,-28.369"/>
<polygon fill="#191970" stroke="#191970" points="687.5259,-30.0788 690.2753,-19.8469 681.7453,-26.1311 687.5259,-30.0788"/>
</g>
<!-- Node19&#45;&gt;Node4 -->
<g id="edge41" class="edge">
<title>Node19&#45;&gt;Node4</title>
<path fill="none" stroke="#191970" d="M615.0665,-332.5303C638.9274,-341.3126 672.8342,-354.6018 699.5107,-365.5433"/>
<polygon fill="#191970" stroke="#191970" points="698.4011,-368.8717 708.9798,-369.4554 701.074,-362.4021 698.4011,-368.8717"/>
</g>
<!-- Node19&#45;&gt;Node14 -->
<g id="edge27" class="edge">
<title>Node19&#45;&gt;Node14</title>
<path fill="none" stroke="#191970" d="M530.6931,-313.4975C391.5513,-289.2188 38,-225.0621 38,-200 38,-200 38,-200 38,-138.5 38,-62.5551 299.4776,-25.7461 402.7524,-14.1695"/>
<polygon fill="#191970" stroke="#191970" points="403.2573,-17.6352 412.816,-13.0655 402.4939,-10.677 403.2573,-17.6352"/>
</g>
<!-- Node20 -->
<g id="node21" class="node">
<title>Node20</title>
<g id="a_node21"><a xlink:href="Helper_8h.html" target="_top" xlink:title="BipedalLocomotion/YarpUtilities\l/Helper.h">
<polygon fill="none" stroke="#000000" points="473.5,-246.5 473.5,-276.5 628.5,-276.5 628.5,-246.5 473.5,-246.5"/>
<text text-anchor="start" x="481.5" y="-264.5" font-family="Helvetica,sans-Serif" font-size="10.00" fill="#000000">BipedalLocomotion/YarpUtilities</text>
<text text-anchor="middle" x="551" y="-253.5" font-family="Helvetica,sans-Serif" font-size="10.00" fill="#000000">/Helper.h</text>
</a>
</g>
</g>
<!-- Node19&#45;&gt;Node20 -->
<g id="edge28" class="edge">
<title>Node19&#45;&gt;Node20</title>
<path fill="none" stroke="#191970" d="M580.5313,-313.3906C576.2769,-305.9151 570.1838,-295.2087 564.6361,-285.4605"/>
<polygon fill="#191970" stroke="#191970" points="567.5501,-283.5045 559.562,-276.5446 561.4663,-286.9669 567.5501,-283.5045"/>
</g>
<!-- Node20&#45;&gt;Node7 -->
<g id="edge32" class="edge">
<title>Node20&#45;&gt;Node7</title>
<path fill="none" stroke="#191970" d="M606.5304,-246.4554C645.4027,-235.9239 696.6757,-222.0328 732.9976,-212.1923"/>
<polygon fill="#191970" stroke="#191970" points="734.0863,-215.5236 742.8231,-209.5303 732.2557,-208.7672 734.0863,-215.5236"/>
</g>
<!-- Node20&#45;&gt;Node10 -->
<g id="edge30" class="edge">
<title>Node20&#45;&gt;Node10</title>
<path fill="none" stroke="#191970" d="M628.6896,-250.0667C686.0799,-240.9793 765.903,-226.9925 835,-210 835.0989,-209.9757 835.198,-209.9512 835.2972,-209.9266"/>
<polygon fill="#191970" stroke="#191970" points="835.9977,-213.3637 844.7194,-207.3485 834.1502,-206.6119 835.9977,-213.3637"/>
</g>
<!-- Node21 -->
<g id="node22" class="node">
<title>Node21</title>
<polygon fill="none" stroke="#bfbfbf" points="351.5,-190.5 351.5,-209.5 394.5,-209.5 394.5,-190.5 351.5,-190.5"/>
<text text-anchor="middle" x="373" y="-197.5" font-family="Helvetica,sans-Serif" font-size="10.00" fill="#000000">deque</text>
</g>
<!-- Node20&#45;&gt;Node21 -->
<g id="edge29" class="edge">
<title>Node20&#45;&gt;Node21</title>
<path fill="none" stroke="#191970" d="M507.4563,-246.4554C475.4166,-235.3855 432.6334,-220.6037 404.0148,-210.7158"/>
<polygon fill="#191970" stroke="#191970" points="405.1183,-207.3941 394.5236,-207.4365 402.8323,-214.0103 405.1183,-207.3941"/>
</g>
<!-- Node22 -->
<g id="node23" class="node">
<title>Node22</title>
<polygon fill="none" stroke="#bfbfbf" points="493.5,-190.5 493.5,-209.5 608.5,-209.5 608.5,-190.5 493.5,-190.5"/>
<text text-anchor="middle" x="551" y="-197.5" font-family="Helvetica,sans-Serif" font-size="10.00" fill="#000000">yarp/os/BufferedPort.h</text>
</g>
<!-- Node20&#45;&gt;Node22 -->
<g id="edge31" class="edge">
<title>Node20&#45;&gt;Node22</title>
<path fill="none" stroke="#191970" d="M551,-246.2977C551,-238.3834 551,-228.6043 551,-220.0759"/>
<polygon fill="#191970" stroke="#191970" points="554.5001,-219.8469 551,-209.8469 547.5001,-219.847 554.5001,-219.8469"/>
</g>
<!-- Node23 -->
<g id="node24" class="node">
<title>Node23</title>
<polygon fill="none" stroke="#bfbfbf" points="626.5,-190.5 626.5,-209.5 711.5,-209.5 711.5,-190.5 626.5,-190.5"/>
<text text-anchor="middle" x="669" y="-197.5" font-family="Helvetica,sans-Serif" font-size="10.00" fill="#000000">yarp/os/Value.h</text>
</g>
<!-- Node20&#45;&gt;Node23 -->
<g id="edge33" class="edge">
<title>Node20&#45;&gt;Node23</title>
<path fill="none" stroke="#191970" d="M579.866,-246.4554C598.6911,-236.644 623.111,-223.9167 641.6292,-214.2653"/>
<polygon fill="#191970" stroke="#191970" points="643.464,-217.2559 650.7142,-209.5303 640.2287,-211.0484 643.464,-217.2559"/>
</g>
<!-- Node24 -->
<g id="node25" class="node">
<title>Node24</title>
<polygon fill="none" stroke="#bfbfbf" points="66.5,-190.5 66.5,-209.5 157.5,-209.5 157.5,-190.5 66.5,-190.5"/>
<text text-anchor="middle" x="112" y="-197.5" font-family="Helvetica,sans-Serif" font-size="10.00" fill="#000000">yarp/sig/Vector.h</text>
</g>
<!-- Node20&#45;&gt;Node24 -->
<g id="edge34" class="edge">
<title>Node20&#45;&gt;Node24</title>
<path fill="none" stroke="#191970" d="M473.2529,-252.1504C397.8478,-242.8365 279.9613,-227.628 167.7352,-210.0553"/>
<polygon fill="#191970" stroke="#191970" points="168.0134,-206.5561 157.5907,-208.4579 166.9245,-213.4709 168.0134,-206.5561"/>
</g>
<!-- Node25 -->
<g id="node26" class="node">
<title>Node25</title>
<polygon fill="none" stroke="#bfbfbf" points="176,-190.5 176,-209.5 334,-209.5 334,-190.5 176,-190.5"/>
<text text-anchor="middle" x="255" y="-197.5" font-family="Helvetica,sans-Serif" font-size="10.00" fill="#000000">iDynTree/Core/VectorDynSize.h</text>
</g>
<!-- Node20&#45;&gt;Node25 -->
<g id="edge35" class="edge">
<title>Node20&#45;&gt;Node25</title>
<path fill="none" stroke="#191970" d="M478.5903,-246.4554C426.8191,-235.6989 358.1794,-221.4376 310.6725,-211.5671"/>
<polygon fill="#191970" stroke="#191970" points="311.3724,-208.1378 300.8695,-209.5303 309.9484,-214.9915 311.3724,-208.1378"/>
</g>
<!-- Node26 -->
<g id="node27" class="node">
<title>Node26</title>
<g id="a_node27"><a xlink:href="Helper_8tpp.html" target="_top" xlink:title="Helper.tpp">
<polygon fill="none" stroke="#000000" points="413,-190.5 413,-209.5 475,-209.5 475,-190.5 413,-190.5"/>
<text text-anchor="middle" x="444" y="-197.5" font-family="Helvetica,sans-Serif" font-size="10.00" fill="#000000">Helper.tpp</text>
</a>
</g>
</g>
<!-- Node20&#45;&gt;Node26 -->
<g id="edge36" class="edge">
<title>Node20&#45;&gt;Node26</title>
<path fill="none" stroke="#191970" d="M524.8249,-246.4554C507.9113,-236.734 486.0171,-224.15 469.2828,-214.5317"/>
<polygon fill="#191970" stroke="#191970" points="470.9953,-211.4791 460.5812,-209.5303 467.507,-217.548 470.9953,-211.4791"/>
</g>
<!-- Node26&#45;&gt;Node11 -->
<g id="edge40" class="edge">
<title>Node26&#45;&gt;Node11</title>
<path fill="none" stroke="#191970" d="M475.3646,-191.7808C478.2741,-191.1328 481.1856,-190.5266 484,-190 598.57,-168.5633 732.8598,-153.5927 815.6903,-145.5153"/>
<polygon fill="#191970" stroke="#191970" points="816.1637,-148.9859 825.7809,-144.5406 815.4907,-142.0184 816.1637,-148.9859"/>
</g>
<!-- Node26&#45;&gt;Node13 -->
<g id="edge39" class="edge">
<title>Node26&#45;&gt;Node13</title>
<path fill="none" stroke="#191970" d="M459.8593,-190.3416C494.0026,-169.5482 575.1072,-120.1551 621.2916,-92.0286"/>
<polygon fill="#191970" stroke="#191970" points="623.3183,-94.8923 630.0386,-86.7016 619.6773,-88.9138 623.3183,-94.8923"/>
</g>
<!-- Node26&#45;&gt;Node14 -->
<g id="edge38" class="edge">
<title>Node26&#45;&gt;Node14</title>
<path fill="none" stroke="#191970" d="M444,-190.3167C444,-160.6573 444,-70.6278 444,-30.1229"/>
<polygon fill="#191970" stroke="#191970" points="447.5001,-29.8916 444,-19.8917 440.5001,-29.8917 447.5001,-29.8916"/>
</g>
<!-- Node26&#45;&gt;Node18 -->
<g id="edge37" class="edge">
<title>Node26&#45;&gt;Node18</title>
<path fill="none" stroke="#191970" d="M450.0882,-190.3416C463.5161,-169.0393 495.865,-117.7203 513.337,-90.0025"/>
<polygon fill="#191970" stroke="#191970" points="516.4695,-91.5964 518.8412,-81.2705 510.5478,-87.8637 516.4695,-91.5964"/>
</g>
</g>
</svg>
