<?xml version="1.0" encoding="UTF-8" standalone="no"?>
<!DOCTYPE svg PUBLIC "-//W3C//DTD SVG 1.1//EN"
 "http://www.w3.org/Graphics/SVG/1.1/DTD/svg11.dtd">
<!-- Generated by graphviz version 2.40.1 (20161225.0304)
 -->
<!-- Title: RobotInterface/YarpImplementation/include/BipedalLocomotion/RobotInterface/YarpSensorBridge.h Pages: 1 -->
<!--zoomable 374 -->
<svg id="main" version="1.1" xmlns="http://www.w3.org/2000/svg" xmlns:xlink="http://www.w3.org/1999/xlink" xml:space="preserve" onload="init(evt)">
<style type="text/css"><![CDATA[
.edge:hover path { stroke: red; }
.edge:hover polygon { stroke: red; fill: red; }
]]></style>
<script type="text/javascript"><![CDATA[
var edges = document.getElementsByTagName('g');
if (edges && edges.length) {
  for (var i=0;i<edges.length;i++) {
    if (edges[i].id.substr(0,4)=='edge') {
      edges[i].setAttribute('class','edge');
    }
  }
}
]]></script>
        <defs>
                <circle id="rim" cx="0" cy="0" r="7"/>
                <circle id="rim2" cx="0" cy="0" r="3.5"/>
                <g id="zoomPlus">
                        <use xlink:href="#rim" fill="#404040">
                                <set attributeName="fill" to="#808080" begin="zoomplus.mouseover" end="zoomplus.mouseout"/>
                        </use>
                        <path d="M-4,0h8M0,-4v8" fill="none" stroke="white" stroke-width="1.5" pointer-events="none"/>
                </g>
                <g id="zoomMin">
                        <use xlink:href="#rim" fill="#404040">
                                <set attributeName="fill" to="#808080" begin="zoomminus.mouseover" end="zoomminus.mouseout"/>
                        </use>
                        <path d="M-4,0h8" fill="none" stroke="white" stroke-width="1.5" pointer-events="none"/>
                </g>
                <g id="dirArrow">
                        <path fill="none" stroke="white" stroke-width="1.5" d="M0,-3.0v7 M-2.5,-0.5L0,-3.0L2.5,-0.5"/>
                </g>
               <g id="resetDef">
                       <use xlink:href="#rim2" fill="#404040">
                               <set attributeName="fill" to="#808080" begin="reset.mouseover" end="reset.mouseout"/>
                       </use>
               </g>
        </defs>

<script type="text/javascript">
var viewWidth = 1004;
var viewHeight = 374;
var sectionId = 'dynsection-0';
</script>
<script xlink:href="svgpan.js"/>
<svg id="graph" class="graph">
<g id="viewport">
<title>RobotInterface/YarpImplementation/include/BipedalLocomotion/RobotInterface/YarpSensorBridge.h</title>
<!-- Node0 -->
<g id="node1" class="node">
<title>Node0</title>
<polygon fill="#bfbfbf" stroke="#000000" points="580,-324.5 580,-365.5 754,-365.5 754,-324.5 580,-324.5"/>
<text text-anchor="start" x="588" y="-353.5" font-family="Helvetica,sans-Serif" font-size="10.00" fill="#000000">RobotInterface/YarpImplementation</text>
<text text-anchor="start" x="588" y="-342.5" font-family="Helvetica,sans-Serif" font-size="10.00" fill="#000000">/include/BipedalLocomotion</text>
<text text-anchor="middle" x="667" y="-331.5" font-family="Helvetica,sans-Serif" font-size="10.00" fill="#000000">/RobotInterface/YarpSensorBridge.h</text>
</g>
<!-- Node1 -->
<g id="node2" class="node">
<title>Node1</title>
<polygon fill="none" stroke="#bfbfbf" points="475.5,-62 475.5,-81 534.5,-81 534.5,-62 475.5,-62"/>
<text text-anchor="middle" x="505" y="-69" font-family="Helvetica,sans-Serif" font-size="10.00" fill="#000000">functional</text>
</g>
<!-- Node0&#45;&gt;Node1 -->
<g id="edge1" class="edge">
<title>Node0&#45;&gt;Node1</title>
<path fill="none" stroke="#191970" d="M665.6139,-324.3201C662.7519,-293.2502 654.172,-233.5339 629,-190 603.3109,-145.5717 556.0092,-107.2554 527.8389,-86.9582"/>
<polygon fill="#191970" stroke="#191970" points="529.6055,-83.9212 519.4166,-81.0165 525.5703,-89.6411 529.6055,-83.9212"/>
</g>
<!-- Node2 -->
<g id="node3" class="node">
<title>Node2</title>
<polygon fill="none" stroke="#bfbfbf" points="554,-62 554,-81 606,-81 606,-62 554,-62"/>
<text text-anchor="middle" x="580" y="-69" font-family="Helvetica,sans-Serif" font-size="10.00" fill="#000000">memory</text>
</g>
<!-- Node0&#45;&gt;Node2 -->
<g id="edge2" class="edge">
<title>Node0&#45;&gt;Node2</title>
<path fill="none" stroke="#191970" d="M669.9556,-324.2966C673.4903,-293.9546 677.1889,-236.021 662,-190 648.5811,-149.3418 616.4578,-110.0867 596.6349,-88.5287"/>
<polygon fill="#191970" stroke="#191970" points="599.1075,-86.049 589.7045,-81.1668 594.0106,-90.8471 599.1075,-86.049"/>
</g>
<!-- Node3 -->
<g id="node4" class="node">
<title>Node3</title>
<polygon fill="none" stroke="#bfbfbf" points="570,-196 570,-215 620,-215 620,-196 570,-196"/>
<text text-anchor="middle" x="595" y="-203" font-family="Helvetica,sans-Serif" font-size="10.00" fill="#000000">optional</text>
</g>
<!-- Node0&#45;&gt;Node3 -->
<g id="edge3" class="edge">
<title>Node0&#45;&gt;Node3</title>
<path fill="none" stroke="#191970" d="M654.5108,-324.3859C648.1522,-313.656 640.4283,-300.2519 634,-288 622.7842,-266.6234 611.1031,-241.466 603.4841,-224.6019"/>
<polygon fill="#191970" stroke="#191970" points="606.5902,-222.9745 599.3056,-215.2812 600.2027,-225.838 606.5902,-222.9745"/>
</g>
<!-- Node4 -->
<g id="node5" class="node">
<title>Node4</title>
<polygon fill="none" stroke="#bfbfbf" points="714.5,-263 714.5,-282 841.5,-282 841.5,-263 714.5,-263"/>
<text text-anchor="middle" x="778" y="-270" font-family="Helvetica,sans-Serif" font-size="10.00" fill="#000000">yarp/dev/PolyDriverList.h</text>
</g>
<!-- Node0&#45;&gt;Node4 -->
<g id="edge4" class="edge">
<title>Node0&#45;&gt;Node4</title>
<path fill="none" stroke="#191970" d="M698.5112,-324.4183C716.4658,-312.6913 738.5679,-298.2552 754.9046,-287.5848"/>
<polygon fill="#191970" stroke="#191970" points="756.8661,-290.4842 763.3245,-282.0853 753.0382,-284.6235 756.8661,-290.4842"/>
</g>
<!-- Node5 -->
<g id="node6" class="node">
<title>Node5</title>
<g id="a_node6"><a xlink:href="Advanceable_8h.html" target="_top" xlink:title="BipedalLocomotion/System\l/Advanceable.h">
<polygon fill="none" stroke="#000000" points="860,-257.5 860,-287.5 996,-287.5 996,-257.5 860,-257.5"/>
<text text-anchor="start" x="868" y="-275.5" font-family="Helvetica,sans-Serif" font-size="10.00" fill="#000000">BipedalLocomotion/System</text>
<text text-anchor="middle" x="928" y="-264.5" font-family="Helvetica,sans-Serif" font-size="10.00" fill="#000000">/Advanceable.h</text>
</a>
</g>
</g>
<!-- Node0&#45;&gt;Node5 -->
<g id="edge5" class="edge">
<title>Node0&#45;&gt;Node5</title>
<path fill="none" stroke="#191970" d="M741.094,-324.4183C779.8309,-313.6581 826.7786,-300.6171 863.9308,-290.297"/>
<polygon fill="#191970" stroke="#191970" points="864.9448,-293.6479 873.6432,-287.5991 863.0713,-286.9033 864.9448,-293.6479"/>
</g>
<!-- Node6 -->
<g id="node7" class="node">
<title>Node6</title>
<g id="a_node7"><a xlink:href="ISensorBridge_8h.html" target="_top" xlink:title="BipedalLocomotion/RobotInterface\l/ISensorBridge.h">
<polygon fill="none" stroke="#000000" points="382.5,-257.5 382.5,-287.5 549.5,-287.5 549.5,-257.5 382.5,-257.5"/>
<text text-anchor="start" x="390.5" y="-275.5" font-family="Helvetica,sans-Serif" font-size="10.00" fill="#000000">BipedalLocomotion/RobotInterface</text>
<text text-anchor="middle" x="466" y="-264.5" font-family="Helvetica,sans-Serif" font-size="10.00" fill="#000000">/ISensorBridge.h</text>
</a>
</g>
</g>
<!-- Node0&#45;&gt;Node6 -->
<g id="edge6" class="edge">
<title>Node0&#45;&gt;Node6</title>
<path fill="none" stroke="#191970" d="M609.9391,-324.4183C580.8689,-313.9328 545.7942,-301.2815 517.5467,-291.0927"/>
<polygon fill="#191970" stroke="#191970" points="518.4553,-287.6998 507.861,-287.5991 516.0802,-294.2845 518.4553,-287.6998"/>
</g>
<!-- Node6&#45;&gt;Node1 -->
<g id="edge7" class="edge">
<title>Node6&#45;&gt;Node1</title>
<path fill="none" stroke="#191970" d="M468.9313,-257.3923C475.894,-221.5077 493.4225,-131.1687 501.1915,-91.1287"/>
<polygon fill="#191970" stroke="#191970" points="504.6381,-91.7398 503.107,-81.2562 497.7662,-90.4064 504.6381,-91.7398"/>
</g>
<!-- Node6&#45;&gt;Node2 -->
<g id="edge8" class="edge">
<title>Node6&#45;&gt;Node2</title>
<path fill="none" stroke="#191970" d="M474.5685,-257.3923C495.0949,-221.201 547.0362,-129.6205 569.4433,-90.1131"/>
<polygon fill="#191970" stroke="#191970" points="572.5776,-91.6813 574.4666,-81.2562 566.4888,-88.2279 572.5776,-91.6813"/>
</g>
<!-- Node6&#45;&gt;Node3 -->
<g id="edge9" class="edge">
<title>Node6&#45;&gt;Node3</title>
<path fill="none" stroke="#191970" d="M494.9501,-257.4639C516.6922,-246.1715 546.2716,-230.8086 567.6227,-219.7192"/>
<polygon fill="#191970" stroke="#191970" points="569.2477,-222.8192 576.5089,-215.1039 566.0212,-216.6071 569.2477,-222.8192"/>
</g>
<!-- Node7 -->
<g id="node8" class="node">
<title>Node7</title>
<polygon fill="none" stroke="#bfbfbf" points="434.5,-129 434.5,-148 475.5,-148 475.5,-129 434.5,-129"/>
<text text-anchor="middle" x="455" y="-136" font-family="Helvetica,sans-Serif" font-size="10.00" fill="#000000">string</text>
</g>
<!-- Node6&#45;&gt;Node7 -->
<g id="edge10" class="edge">
<title>Node6&#45;&gt;Node7</title>
<path fill="none" stroke="#191970" d="M464.7595,-257.389C462.7635,-233.0735 458.8389,-185.2644 456.6229,-158.2698"/>
<polygon fill="#191970" stroke="#191970" points="460.0949,-157.7843 455.7884,-148.1042 453.1184,-158.357 460.0949,-157.7843"/>
</g>
<!-- Node8 -->
<g id="node9" class="node">
<title>Node8</title>
<polygon fill="none" stroke="#bfbfbf" points="263.5,-196 263.5,-215 346.5,-215 346.5,-196 263.5,-196"/>
<text text-anchor="middle" x="305" y="-203" font-family="Helvetica,sans-Serif" font-size="10.00" fill="#000000">unordered_map</text>
</g>
<!-- Node6&#45;&gt;Node8 -->
<g id="edge11" class="edge">
<title>Node6&#45;&gt;Node8</title>
<path fill="none" stroke="#191970" d="M429.8685,-257.4639C402.1246,-245.9183 364.1557,-230.1176 337.3918,-218.9798"/>
<polygon fill="#191970" stroke="#191970" points="338.6553,-215.7147 328.0781,-215.1039 335.9658,-222.1774 338.6553,-215.7147"/>
</g>
<!-- Node9 -->
<g id="node10" class="node">
<title>Node9</title>
<polygon fill="none" stroke="#bfbfbf" points="57,-129 57,-148 101,-148 101,-129 57,-129"/>
<text text-anchor="middle" x="79" y="-136" font-family="Helvetica,sans-Serif" font-size="10.00" fill="#000000">vector</text>
</g>
<!-- Node6&#45;&gt;Node9 -->
<g id="edge12" class="edge">
<title>Node6&#45;&gt;Node9</title>
<path fill="none" stroke="#191970" d="M382.3663,-266.8063C276.0988,-258.7314 103.9847,-242.5098 84,-221 68.4874,-204.3036 70.2989,-176.5686 73.9092,-157.9191"/>
<polygon fill="#191970" stroke="#191970" points="77.3284,-158.6668 76.1253,-148.1405 70.5015,-157.1195 77.3284,-158.6668"/>
</g>
<!-- Node10 -->
<g id="node11" class="node">
<title>Node10</title>
<polygon fill="none" stroke="#bfbfbf" points="364.5,-196 364.5,-215 437.5,-215 437.5,-196 364.5,-196"/>
<text text-anchor="middle" x="401" y="-203" font-family="Helvetica,sans-Serif" font-size="10.00" fill="#000000">Eigen/Dense</text>
</g>
<!-- Node6&#45;&gt;Node10 -->
<g id="edge13" class="edge">
<title>Node6&#45;&gt;Node10</title>
<path fill="none" stroke="#191970" d="M451.2505,-257.2967C441.1232,-246.8578 427.6788,-232.9997 417.2448,-222.2446"/>
<polygon fill="#191970" stroke="#191970" points="419.745,-219.7953 410.2697,-215.055 414.7208,-224.6695 419.745,-219.7953"/>
</g>
<!-- Node11 -->
<g id="node12" class="node">
<title>Node11</title>
<g id="a_node12"><a xlink:href="IParametersHandler_8h.html" target="_top" xlink:title="BipedalLocomotion/Parameters\lHandler/IParametersHandler.h">
<polygon fill="none" stroke="#000000" points="93,-190.5 93,-220.5 245,-220.5 245,-190.5 93,-190.5"/>
<text text-anchor="start" x="101" y="-208.5" font-family="Helvetica,sans-Serif" font-size="10.00" fill="#000000">BipedalLocomotion/Parameters</text>
<text text-anchor="middle" x="169" y="-197.5" font-family="Helvetica,sans-Serif" font-size="10.00" fill="#000000">Handler/IParametersHandler.h</text>
</a>
</g>
</g>
<!-- Node6&#45;&gt;Node11 -->
<g id="edge14" class="edge">
<title>Node6&#45;&gt;Node11</title>
<path fill="none" stroke="#191970" d="M399.3474,-257.4639C353.7619,-247.1803 293.212,-233.5209 245.6326,-222.7875"/>
<polygon fill="#191970" stroke="#191970" points="246.2117,-219.3302 235.6866,-220.5438 244.6712,-226.1586 246.2117,-219.3302"/>
</g>
<!-- Node11&#45;&gt;Node2 -->
<g id="edge15" class="edge">
<title>Node11&#45;&gt;Node2</title>
<path fill="none" stroke="#191970" d="M245.1795,-191.2782C297.6441,-180.7727 362.1926,-166.2334 387,-154 406.5482,-144.3601 405.7588,-133.2391 425,-123 473.7794,-97.0423 492.0971,-105.9559 544,-87 545.8216,-86.3347 547.6839,-85.6254 549.5551,-84.8902"/>
<polygon fill="#191970" stroke="#191970" points="550.916,-88.115 558.8394,-81.0815 548.2593,-81.6388 550.916,-88.115"/>
</g>
<!-- Node11&#45;&gt;Node7 -->
<g id="edge16" class="edge">
<title>Node11&#45;&gt;Node7</title>
<path fill="none" stroke="#191970" d="M245.1184,-190.7382C312.7334,-177.4848 403.3703,-159.3203 420,-154 421.8989,-153.3925 423.8333,-152.7145 425.769,-151.9909"/>
<polygon fill="#191970" stroke="#191970" points="427.358,-155.1229 435.2978,-148.1079 424.7163,-148.6405 427.358,-155.1229"/>
</g>
<!-- Node11&#45;&gt;Node9 -->
<g id="edge17" class="edge">
<title>Node11&#45;&gt;Node9</title>
<path fill="none" stroke="#191970" d="M148.5776,-190.2967C134.1468,-179.5537 114.8516,-165.1895 100.2412,-154.3129"/>
<polygon fill="#191970" stroke="#191970" points="101.9464,-151.219 91.835,-148.055 97.7664,-156.8339 101.9464,-151.219"/>
</g>
<!-- Node12 -->
<g id="node13" class="node">
<title>Node12</title>
<g id="a_node13"><a xlink:href="Vector_8h_source.html" target="_top" xlink:title="BipedalLocomotion/Generic\lContainer/Vector.h">
<polygon fill="none" stroke="#000000" points="242,-123.5 242,-153.5 378,-153.5 378,-123.5 242,-123.5"/>
<text text-anchor="start" x="250" y="-141.5" font-family="Helvetica,sans-Serif" font-size="10.00" fill="#000000">BipedalLocomotion/Generic</text>
<text text-anchor="middle" x="310" y="-130.5" font-family="Helvetica,sans-Serif" font-size="10.00" fill="#000000">Container/Vector.h</text>
</a>
</g>
</g>
<!-- Node11&#45;&gt;Node12 -->
<g id="edge18" class="edge">
<title>Node11&#45;&gt;Node12</title>
<path fill="none" stroke="#191970" d="M200.6432,-190.4639C220.7299,-180.9191 246.9367,-168.4663 268.6597,-158.144"/>
<polygon fill="#191970" stroke="#191970" points="270.4446,-161.1709 277.9746,-153.7177 267.4403,-154.8484 270.4446,-161.1709"/>
</g>
<!-- Node14 -->
<g id="node15" class="node">
<title>Node14</title>
<g id="a_node15"><a xlink:href="TemplateHelpers_8h_source.html" target="_top" xlink:title="BipedalLocomotion/Generic\lContainer/TemplateHelpers.h">
<polygon fill="none" stroke="#000000" points="41,-56.5 41,-86.5 185,-86.5 185,-56.5 41,-56.5"/>
<text text-anchor="start" x="49" y="-74.5" font-family="Helvetica,sans-Serif" font-size="10.00" fill="#000000">BipedalLocomotion/Generic</text>
<text text-anchor="middle" x="113" y="-63.5" font-family="Helvetica,sans-Serif" font-size="10.00" fill="#000000">Container/TemplateHelpers.h</text>
</a>
</g>
</g>
<!-- Node11&#45;&gt;Node14 -->
<g id="edge28" class="edge">
<title>Node11&#45;&gt;Node14</title>
<path fill="none" stroke="#191970" d="M162.6849,-190.389C153.1061,-167.4681 134.8029,-123.6712 123.2854,-96.1116"/>
<polygon fill="#191970" stroke="#191970" points="126.4632,-94.6385 119.3779,-86.7614 120.0045,-97.3377 126.4632,-94.6385"/>
</g>
<!-- Node12&#45;&gt;Node1 -->
<g id="edge24" class="edge">
<title>Node12&#45;&gt;Node1</title>
<path fill="none" stroke="#191970" d="M358.0463,-123.4533C389.0221,-113.5523 430.0803,-100.0539 466,-87 467.9003,-86.3094 469.8468,-85.5864 471.8073,-84.8461"/>
<polygon fill="#191970" stroke="#191970" points="473.5099,-87.9405 481.5759,-81.071 470.9865,-81.4111 473.5099,-87.9405"/>
</g>
<!-- Node12&#45;&gt;Node2 -->
<g id="edge27" class="edge">
<title>Node12&#45;&gt;Node2</title>
<path fill="none" stroke="#191970" d="M378.1665,-124.9932C435.7893,-113.2999 513.661,-96.7719 544,-87 546.105,-86.322 548.2558,-85.5663 550.4068,-84.7636"/>
<polygon fill="#191970" stroke="#191970" points="551.7179,-88.0088 559.697,-81.0385 549.1127,-81.5117 551.7179,-88.0088"/>
</g>
<!-- Node13 -->
<g id="node14" class="node">
<title>Node13</title>
<polygon fill="none" stroke="#bfbfbf" points="203,-62 203,-81 317,-81 317,-62 203,-62"/>
<text text-anchor="middle" x="260" y="-69" font-family="Helvetica,sans-Serif" font-size="10.00" fill="#000000">iDynTree/Core/Span.h</text>
</g>
<!-- Node12&#45;&gt;Node13 -->
<g id="edge19" class="edge">
<title>Node12&#45;&gt;Node13</title>
<path fill="none" stroke="#191970" d="M298.6542,-123.2967C291.0909,-113.1618 281.1224,-99.804 273.2031,-89.1921"/>
<polygon fill="#191970" stroke="#191970" points="275.9165,-86.976 267.1306,-81.055 270.3064,-91.1626 275.9165,-86.976"/>
</g>
<!-- Node12&#45;&gt;Node14 -->
<g id="edge20" class="edge">
<title>Node12&#45;&gt;Node14</title>
<path fill="none" stroke="#191970" d="M265.7894,-123.4639C236.6158,-113.5419 198.2022,-100.4774 167.1909,-89.9304"/>
<polygon fill="#191970" stroke="#191970" points="167.9979,-86.508 157.4035,-86.6017 165.7439,-93.1352 167.9979,-86.508"/>
</g>
<!-- Node18 -->
<g id="node19" class="node">
<title>Node18</title>
<polygon fill="none" stroke="#bfbfbf" points="335.5,-62 335.5,-81 384.5,-81 384.5,-62 335.5,-62"/>
<text text-anchor="middle" x="360" y="-69" font-family="Helvetica,sans-Serif" font-size="10.00" fill="#000000">cassert</text>
</g>
<!-- Node12&#45;&gt;Node18 -->
<g id="edge25" class="edge">
<title>Node12&#45;&gt;Node18</title>
<path fill="none" stroke="#191970" d="M321.3458,-123.2967C328.9091,-113.1618 338.8776,-99.804 346.7969,-89.1921"/>
<polygon fill="#191970" stroke="#191970" points="349.6936,-91.1626 352.8694,-81.055 344.0835,-86.976 349.6936,-91.1626"/>
</g>
<!-- Node19 -->
<g id="node20" class="node">
<title>Node19</title>
<polygon fill="none" stroke="#bfbfbf" points="403,-62 403,-81 457,-81 457,-62 403,-62"/>
<text text-anchor="middle" x="430" y="-69" font-family="Helvetica,sans-Serif" font-size="10.00" fill="#000000">iostream</text>
</g>
<!-- Node12&#45;&gt;Node19 -->
<g id="edge26" class="edge">
<title>Node12&#45;&gt;Node19</title>
<path fill="none" stroke="#191970" d="M336.9303,-123.4639C356.9741,-112.2728 384.1783,-97.0838 403.9965,-86.0186"/>
<polygon fill="#191970" stroke="#191970" points="405.7739,-89.0349 412.7989,-81.1039 402.3614,-82.923 405.7739,-89.0349"/>
</g>
<!-- Node15 -->
<g id="node16" class="node">
<title>Node15</title>
<polygon fill="none" stroke="#bfbfbf" points="0,-.5 0,-19.5 62,-19.5 62,-.5 0,-.5"/>
<text text-anchor="middle" x="31" y="-7.5" font-family="Helvetica,sans-Serif" font-size="10.00" fill="#000000">type_traits</text>
</g>
<!-- Node14&#45;&gt;Node15 -->
<g id="edge21" class="edge">
<title>Node14&#45;&gt;Node15</title>
<path fill="none" stroke="#191970" d="M92.7303,-56.2977C80.3994,-47.0495 64.6734,-35.2551 52.1803,-25.8853"/>
<polygon fill="#191970" stroke="#191970" points="54.2293,-23.047 44.1292,-19.8469 50.0292,-28.647 54.2293,-23.047"/>
</g>
<!-- Node16 -->
<g id="node17" class="node">
<title>Node16</title>
<polygon fill="none" stroke="#bfbfbf" points="80,-.5 80,-19.5 146,-19.5 146,-.5 80,-.5"/>
<text text-anchor="middle" x="113" y="-7.5" font-family="Helvetica,sans-Serif" font-size="10.00" fill="#000000">string_view</text>
</g>
<!-- Node14&#45;&gt;Node16 -->
<g id="edge22" class="edge">
<title>Node14&#45;&gt;Node16</title>
<path fill="none" stroke="#191970" d="M113,-56.2977C113,-48.3834 113,-38.6043 113,-30.0759"/>
<polygon fill="#191970" stroke="#191970" points="116.5001,-29.8469 113,-19.8469 109.5001,-29.847 116.5001,-29.8469"/>
</g>
<!-- Node17 -->
<g id="node18" class="node">
<title>Node17</title>
<polygon fill="none" stroke="#bfbfbf" points="164.5,-.5 164.5,-19.5 229.5,-19.5 229.5,-.5 164.5,-.5"/>
<text text-anchor="middle" x="197" y="-7.5" font-family="Helvetica,sans-Serif" font-size="10.00" fill="#000000">Eigen/Core</text>
</g>
<!-- Node14&#45;&gt;Node17 -->
<g id="edge23" class="edge">
<title>Node14&#45;&gt;Node17</title>
<path fill="none" stroke="#191970" d="M133.7641,-56.2977C146.3958,-47.0495 162.5053,-35.2551 175.3031,-25.8853"/>
<polygon fill="#191970" stroke="#191970" points="177.5495,-28.5784 183.5505,-19.8469 173.4143,-22.9303 177.5495,-28.5784"/>
</g>
</g>
</svg>
        <g id="navigator" transform="translate(0 0)" fill="#404254">
                <rect fill="#f2f5e9" fill-opacity="0.5" stroke="#606060" stroke-width=".5" x="0" y="0" width="60" height="60"/>
                <use id="zoomplus" xlink:href="#zoomPlus" x="17" y="9" onmousedown="handleZoom(evt,'in')"/>
                <use id="zoomminus" xlink:href="#zoomMin" x="42" y="9" onmousedown="handleZoom(evt,'out')"/>
                <use id="reset" xlink:href="#resetDef" x="30" y="36" onmousedown="handleReset()"/>
                <g id="arrowUp" xlink:href="#dirArrow" transform="translate(30 24)" onmousedown="handlePan(0,-1)">
                  <use xlink:href="#rim" fill="#404040">
                        <set attributeName="fill" to="#808080" begin="arrowUp.mouseover" end="arrowUp.mouseout"/>
                  </use>
                  <path fill="none" stroke="white" stroke-width="1.5" d="M0,-3.0v7 M-2.5,-0.5L0,-3.0L2.5,-0.5"/>
                </g>
                <g id="arrowRight" xlink:href="#dirArrow" transform="rotate(90) translate(36 -43)" onmousedown="handlePan(1,0)">
                  <use xlink:href="#rim" fill="#404040">
                        <set attributeName="fill" to="#808080" begin="arrowRight.mouseover" end="arrowRight.mouseout"/>
                  </use>
                  <path fill="none" stroke="white" stroke-width="1.5" d="M0,-3.0v7 M-2.5,-0.5L0,-3.0L2.5,-0.5"/>
                </g>
                <g id="arrowDown" xlink:href="#dirArrow" transform="rotate(180) translate(-30 -48)" onmousedown="handlePan(0,1)">
                  <use xlink:href="#rim" fill="#404040">
                        <set attributeName="fill" to="#808080" begin="arrowDown.mouseover" end="arrowDown.mouseout"/>
                  </use>
                  <path fill="none" stroke="white" stroke-width="1.5" d="M0,-3.0v7 M-2.5,-0.5L0,-3.0L2.5,-0.5"/>
                </g>
                <g id="arrowLeft" xlink:href="#dirArrow" transform="rotate(270) translate(-36 17)" onmousedown="handlePan(-1,0)">
                  <use xlink:href="#rim" fill="#404040">
                        <set attributeName="fill" to="#808080" begin="arrowLeft.mouseover" end="arrowLeft.mouseout"/>
                  </use>
                  <path fill="none" stroke="white" stroke-width="1.5" d="M0,-3.0v7 M-2.5,-0.5L0,-3.0L2.5,-0.5"/>
                </g>
        </g>
        <svg viewBox="0 0 15 15" width="100%" height="30px" preserveAspectRatio="xMaxYMin meet">
         <g id="arrow_out" transform="scale(0.3 0.3)">
          <a xlink:href="YarpSensorBridge_8h__incl_org.svg" target="_base">
           <rect id="button" ry="5" rx="5" y="6" x="6" height="38" width="38"
                fill="#f2f5e9" fill-opacity="0.5" stroke="#606060" stroke-width="1.0"/>
           <path id="arrow"
             d="M 11.500037,31.436501 C 11.940474,20.09759 22.043105,11.32322 32.158766,21.979434 L 37.068811,17.246167 C 37.068811,17.246167 37.088388,32 37.088388,32 L 22.160133,31.978069 C 22.160133,31.978069 26.997745,27.140456 26.997745,27.140456 C 18.528582,18.264221 13.291696,25.230495 11.500037,31.436501 z"
             style="fill:#404040;"/>
          </a>
         </g>
        </svg>
</svg>
