<?xml version="1.0" encoding="UTF-8" standalone="no"?>
<!DOCTYPE svg PUBLIC "-//W3C//DTD SVG 1.1//EN"
 "http://www.w3.org/Graphics/SVG/1.1/DTD/svg11.dtd">
<!-- Generated by graphviz version 2.40.1 (20161225.0304)
 -->
<!-- Title: RobotInterface/YarpImplementation/src/YarpRobotControl.cpp Pages: 1 -->
<!--zoomable 430 -->
<svg id="main" version="1.1" xmlns="http://www.w3.org/2000/svg" xmlns:xlink="http://www.w3.org/1999/xlink" xml:space="preserve" onload="init(evt)">
<style type="text/css"><![CDATA[
.edge:hover path { stroke: red; }
.edge:hover polygon { stroke: red; fill: red; }
]]></style>
<script type="text/javascript"><![CDATA[
var edges = document.getElementsByTagName('g');
if (edges && edges.length) {
  for (var i=0;i<edges.length;i++) {
    if (edges[i].id.substr(0,4)=='edge') {
      edges[i].setAttribute('class','edge');
    }
  }
}
]]></script>
        <defs>
                <circle id="rim" cx="0" cy="0" r="7"/>
                <circle id="rim2" cx="0" cy="0" r="3.5"/>
                <g id="zoomPlus">
                        <use xlink:href="#rim" fill="#404040">
                                <set attributeName="fill" to="#808080" begin="zoomplus.mouseover" end="zoomplus.mouseout"/>
                        </use>
                        <path d="M-4,0h8M0,-4v8" fill="none" stroke="white" stroke-width="1.5" pointer-events="none"/>
                </g>
                <g id="zoomMin">
                        <use xlink:href="#rim" fill="#404040">
                                <set attributeName="fill" to="#808080" begin="zoomminus.mouseover" end="zoomminus.mouseout"/>
                        </use>
                        <path d="M-4,0h8" fill="none" stroke="white" stroke-width="1.5" pointer-events="none"/>
                </g>
                <g id="dirArrow">
                        <path fill="none" stroke="white" stroke-width="1.5" d="M0,-3.0v7 M-2.5,-0.5L0,-3.0L2.5,-0.5"/>
                </g>
               <g id="resetDef">
                       <use xlink:href="#rim2" fill="#404040">
                               <set attributeName="fill" to="#808080" begin="reset.mouseover" end="reset.mouseout"/>
                       </use>
               </g>
        </defs>

<script type="text/javascript">
var viewWidth = 1706;
var viewHeight = 430;
var sectionId = 'dynsection-0';
</script>
<script xlink:href="svgpan.js"/>
<svg id="graph" class="graph">
<g id="viewport">
<title>RobotInterface/YarpImplementation/src/YarpRobotControl.cpp</title>
<!-- Node0 -->
<g id="node1" class="node">
<title>Node0</title>
<polygon fill="#bfbfbf" stroke="#000000" points="627.5,-391.5 627.5,-421.5 798.5,-421.5 798.5,-391.5 627.5,-391.5"/>
<text text-anchor="start" x="635.5" y="-409.5" font-family="Helvetica,sans-Serif" font-size="10.00" fill="#000000">RobotInterface/YarpImplementation</text>
<text text-anchor="middle" x="713" y="-398.5" font-family="Helvetica,sans-Serif" font-size="10.00" fill="#000000">/src/YarpRobotControl.cpp</text>
</g>
<!-- Node1 -->
<g id="node2" class="node">
<title>Node1</title>
<polygon fill="none" stroke="#bfbfbf" points="0,-330 0,-349 44,-349 44,-330 0,-330"/>
<text text-anchor="middle" x="22" y="-337" font-family="Helvetica,sans-Serif" font-size="10.00" fill="#000000">cmath</text>
</g>
<!-- Node0&#45;&gt;Node1 -->
<g id="edge1" class="edge">
<title>Node0&#45;&gt;Node1</title>
<path fill="none" stroke="#191970" d="M627.4143,-403.9034C474.0996,-398.5755 158.7609,-384.3568 53,-355 51.286,-354.5242 49.5544,-353.9516 47.8322,-353.3109"/>
<polygon fill="#191970" stroke="#191970" points="48.8212,-349.9222 38.2586,-349.0965 46.0009,-356.3289 48.8212,-349.9222"/>
</g>
<!-- Node2 -->
<g id="node3" class="node">
<title>Node2</title>
<polygon fill="none" stroke="#bfbfbf" points="62,-330 62,-349 106,-349 106,-330 62,-330"/>
<text text-anchor="middle" x="84" y="-337" font-family="Helvetica,sans-Serif" font-size="10.00" fill="#000000">thread</text>
</g>
<!-- Node0&#45;&gt;Node2 -->
<g id="edge2" class="edge">
<title>Node0&#45;&gt;Node2</title>
<path fill="none" stroke="#191970" d="M627.3791,-403.0923C485.7415,-396.7916 208.9635,-381.4891 115,-355 113.2879,-354.5173 111.5578,-353.9395 109.8368,-353.2948"/>
<polygon fill="#191970" stroke="#191970" points="110.8278,-349.9065 100.266,-349.07 108.0009,-356.3103 110.8278,-349.9065"/>
</g>
<!-- Node3 -->
<g id="node4" class="node">
<title>Node3</title>
<polygon fill="none" stroke="#bfbfbf" points="124.5,-330 124.5,-349 207.5,-349 207.5,-330 124.5,-330"/>
<text text-anchor="middle" x="166" y="-337" font-family="Helvetica,sans-Serif" font-size="10.00" fill="#000000">unordered_map</text>
</g>
<!-- Node0&#45;&gt;Node3 -->
<g id="edge3" class="edge">
<title>Node0&#45;&gt;Node3</title>
<path fill="none" stroke="#191970" d="M627.1154,-402.5822C527.6179,-396.8932 359.1424,-383.7035 217,-355 212.5949,-354.1105 208.0259,-353.0006 203.5136,-351.7861"/>
<polygon fill="#191970" stroke="#191970" points="204.389,-348.3962 193.8117,-349.005 202.46,-355.1252 204.389,-348.3962"/>
</g>
<!-- Node4 -->
<g id="node5" class="node">
<title>Node4</title>
<polygon fill="none" stroke="#bfbfbf" points="226,-330 226,-349 330,-349 330,-330 226,-330"/>
<text text-anchor="middle" x="278" y="-337" font-family="Helvetica,sans-Serif" font-size="10.00" fill="#000000">yarp/dev/IAxisInfo.h</text>
</g>
<!-- Node0&#45;&gt;Node4 -->
<g id="edge4" class="edge">
<title>Node0&#45;&gt;Node4</title>
<path fill="none" stroke="#191970" d="M627.1393,-397.446C551.0422,-388.7643 437.1008,-374.1554 339,-355 333.6379,-353.953 328.0433,-352.7237 322.5118,-351.4232"/>
<polygon fill="#191970" stroke="#191970" points="323.231,-347.9961 312.6867,-349.0296 321.574,-354.7972 323.231,-347.9961"/>
</g>
<!-- Node5 -->
<g id="node6" class="node">
<title>Node5</title>
<polygon fill="none" stroke="#bfbfbf" points="348,-330 348,-349 472,-349 472,-330 348,-330"/>
<text text-anchor="middle" x="410" y="-337" font-family="Helvetica,sans-Serif" font-size="10.00" fill="#000000">yarp/dev/IControlMode.h</text>
</g>
<!-- Node0&#45;&gt;Node5 -->
<g id="edge5" class="edge">
<title>Node0&#45;&gt;Node5</title>
<path fill="none" stroke="#191970" d="M645.0009,-391.4639C589.9905,-379.2999 513.6199,-362.4127 463.0546,-351.2315"/>
<polygon fill="#191970" stroke="#191970" points="463.5064,-347.747 452.9866,-349.0053 461.995,-354.5819 463.5064,-347.747"/>
</g>
<!-- Node6 -->
<g id="node7" class="node">
<title>Node6</title>
<polygon fill="none" stroke="#bfbfbf" points="490.5,-330 490.5,-349 627.5,-349 627.5,-330 490.5,-330"/>
<text text-anchor="middle" x="559" y="-337" font-family="Helvetica,sans-Serif" font-size="10.00" fill="#000000">yarp/dev/IEncodersTimed.h</text>
</g>
<!-- Node0&#45;&gt;Node6 -->
<g id="edge6" class="edge">
<title>Node0&#45;&gt;Node6</title>
<path fill="none" stroke="#191970" d="M678.4394,-391.4639C652.0182,-379.969 615.9021,-364.2561 590.3209,-353.1266"/>
<polygon fill="#191970" stroke="#191970" points="591.6408,-349.884 581.0747,-349.1039 588.8481,-356.3028 591.6408,-349.884"/>
</g>
<!-- Node7 -->
<g id="node8" class="node">
<title>Node7</title>
<polygon fill="none" stroke="#bfbfbf" points="645.5,-330 645.5,-349 780.5,-349 780.5,-330 645.5,-330"/>
<text text-anchor="middle" x="713" y="-337" font-family="Helvetica,sans-Serif" font-size="10.00" fill="#000000">yarp/dev/IPositionControl.h</text>
</g>
<!-- Node0&#45;&gt;Node7 -->
<g id="edge7" class="edge">
<title>Node0&#45;&gt;Node7</title>
<path fill="none" stroke="#191970" d="M713,-391.2967C713,-381.7699 713,-369.3954 713,-359.1306"/>
<polygon fill="#191970" stroke="#191970" points="716.5001,-359.0549 713,-349.055 709.5001,-359.055 716.5001,-359.0549"/>
</g>
<!-- Node8 -->
<g id="node9" class="node">
<title>Node8</title>
<polygon fill="none" stroke="#bfbfbf" points="799,-330 799,-349 929,-349 929,-330 799,-330"/>
<text text-anchor="middle" x="864" y="-337" font-family="Helvetica,sans-Serif" font-size="10.00" fill="#000000">yarp/dev/IPositionDirect.h</text>
</g>
<!-- Node0&#45;&gt;Node8 -->
<g id="edge8" class="edge">
<title>Node0&#45;&gt;Node8</title>
<path fill="none" stroke="#191970" d="M746.8873,-391.4639C772.6797,-380.0196 807.8945,-364.3945 832.9571,-353.274"/>
<polygon fill="#191970" stroke="#191970" points="834.6343,-356.359 842.3553,-349.1039 831.7952,-349.9605 834.6343,-356.359"/>
</g>
<!-- Node9 -->
<g id="node10" class="node">
<title>Node9</title>
<polygon fill="none" stroke="#bfbfbf" points="947,-330 947,-349 1077,-349 1077,-330 947,-330"/>
<text text-anchor="middle" x="1012" y="-337" font-family="Helvetica,sans-Serif" font-size="10.00" fill="#000000">yarp/dev/ITorqueControl.h</text>
</g>
<!-- Node0&#45;&gt;Node9 -->
<g id="edge9" class="edge">
<title>Node0&#45;&gt;Node9</title>
<path fill="none" stroke="#191970" d="M780.1014,-391.4639C834.3856,-379.2999 909.748,-362.4127 959.6458,-351.2315"/>
<polygon fill="#191970" stroke="#191970" points="960.5882,-354.6072 969.5809,-349.0053 959.0575,-347.7766 960.5882,-354.6072"/>
</g>
<!-- Node10 -->
<g id="node11" class="node">
<title>Node10</title>
<polygon fill="none" stroke="#bfbfbf" points="1095.5,-330 1095.5,-349 1230.5,-349 1230.5,-330 1095.5,-330"/>
<text text-anchor="middle" x="1163" y="-337" font-family="Helvetica,sans-Serif" font-size="10.00" fill="#000000">yarp/dev/IVelocityControl.h</text>
</g>
<!-- Node0&#45;&gt;Node10 -->
<g id="edge10" class="edge">
<title>Node0&#45;&gt;Node10</title>
<path fill="none" stroke="#191970" d="M798.7831,-396.1766C874.5328,-386.6986 987.8722,-371.6346 1086,-355 1093.1171,-353.7935 1100.5834,-352.4232 1107.9501,-351.0084"/>
<polygon fill="#191970" stroke="#191970" points="1108.75,-354.4183 1117.8916,-349.0628 1107.4056,-347.5486 1108.75,-354.4183"/>
</g>
<!-- Node11 -->
<g id="node12" class="node">
<title>Node11</title>
<polygon fill="none" stroke="#bfbfbf" points="1211.5,-263 1211.5,-282 1322.5,-282 1322.5,-263 1211.5,-263"/>
<text text-anchor="middle" x="1267" y="-270" font-family="Helvetica,sans-Serif" font-size="10.00" fill="#000000">yarp/dev/PolyDriver.h</text>
</g>
<!-- Node0&#45;&gt;Node11 -->
<g id="edge11" class="edge">
<title>Node0&#45;&gt;Node11</title>
<path fill="none" stroke="#191970" d="M798.5896,-403.1527C938.7986,-396.9311 1205.3033,-381.7292 1239,-355 1258.0192,-339.9134 1264.196,-311.3157 1266.1578,-292.0786"/>
<polygon fill="#191970" stroke="#191970" points="1269.6556,-292.2345 1266.891,-282.0067 1262.6741,-291.7262 1269.6556,-292.2345"/>
</g>
<!-- Node12 -->
<g id="node13" class="node">
<title>Node12</title>
<polygon fill="none" stroke="#bfbfbf" points="1287,-330 1287,-349 1369,-349 1369,-330 1287,-330"/>
<text text-anchor="middle" x="1328" y="-337" font-family="Helvetica,sans-Serif" font-size="10.00" fill="#000000">yarp/os/Time.h</text>
</g>
<!-- Node0&#45;&gt;Node12 -->
<g id="edge12" class="edge">
<title>Node0&#45;&gt;Node12</title>
<path fill="none" stroke="#191970" d="M798.5753,-403.4949C908.9976,-398.5084 1106.6823,-385.8149 1273,-355 1277.9931,-354.0749 1283.1884,-352.9 1288.3054,-351.6123"/>
<polygon fill="#191970" stroke="#191970" points="1289.2153,-354.992 1297.9753,-349.0328 1287.411,-348.2285 1289.2153,-354.992"/>
</g>
<!-- Node13 -->
<g id="node14" class="node">
<title>Node13</title>
<g id="a_node14"><a xlink:href="YarpRobotControl_8h.html" target="_top" xlink:title="BipedalLocomotion/RobotInterface\l/YarpRobotControl.h">
<polygon fill="none" stroke="#000000" points="1387.5,-324.5 1387.5,-354.5 1554.5,-354.5 1554.5,-324.5 1387.5,-324.5"/>
<text text-anchor="start" x="1395.5" y="-342.5" font-family="Helvetica,sans-Serif" font-size="10.00" fill="#000000">BipedalLocomotion/RobotInterface</text>
<text text-anchor="middle" x="1471" y="-331.5" font-family="Helvetica,sans-Serif" font-size="10.00" fill="#000000">/YarpRobotControl.h</text>
</a>
</g>
</g>
<!-- Node0&#45;&gt;Node13 -->
<g id="edge13" class="edge">
<title>Node0&#45;&gt;Node13</title>
<path fill="none" stroke="#191970" d="M798.5302,-402.2848C923.3826,-395.5955 1163.027,-380.7309 1377.2188,-355.022"/>
<polygon fill="#191970" stroke="#191970" points="1377.8918,-358.4662 1387.3987,-353.7896 1377.0505,-351.5169 1377.8918,-358.4662"/>
</g>
<!-- Node13&#45;&gt;Node11 -->
<g id="edge16" class="edge">
<title>Node13&#45;&gt;Node11</title>
<path fill="none" stroke="#191970" d="M1425.2184,-324.4639C1389.1869,-312.63 1339.5443,-296.3258 1305.5295,-285.1543"/>
<polygon fill="#191970" stroke="#191970" points="1306.5343,-281.8004 1295.9415,-282.0053 1304.35,-288.4509 1306.5343,-281.8004"/>
</g>
<!-- Node14 -->
<g id="node15" class="node">
<title>Node14</title>
<polygon fill="none" stroke="#bfbfbf" points="1646,-62 1646,-81 1698,-81 1698,-62 1646,-62"/>
<text text-anchor="middle" x="1672" y="-69" font-family="Helvetica,sans-Serif" font-size="10.00" fill="#000000">memory</text>
</g>
<!-- Node13&#45;&gt;Node14 -->
<g id="edge14" class="edge">
<title>Node13&#45;&gt;Node14</title>
<path fill="none" stroke="#191970" d="M1508.4897,-324.4932C1526.795,-315.8231 1548.216,-303.5361 1564,-288 1623.2299,-229.7001 1655.4181,-132.1912 1666.9837,-90.9075"/>
<polygon fill="#191970" stroke="#191970" points="1670.4192,-91.6105 1669.6497,-81.0437 1663.6616,-89.784 1670.4192,-91.6105"/>
</g>
<!-- Node15 -->
<g id="node16" class="node">
<title>Node15</title>
<polygon fill="none" stroke="#bfbfbf" points="1303.5,-196 1303.5,-215 1376.5,-215 1376.5,-196 1303.5,-196"/>
<text text-anchor="middle" x="1340" y="-203" font-family="Helvetica,sans-Serif" font-size="10.00" fill="#000000">Eigen/Dense</text>
</g>
<!-- Node13&#45;&gt;Node15 -->
<g id="edge15" class="edge">
<title>Node13&#45;&gt;Node15</title>
<path fill="none" stroke="#191970" d="M1432.0105,-324.2847C1414.0869,-315.7575 1393.6143,-303.6549 1379,-288 1362.0893,-269.8852 1351.2837,-243.1062 1345.436,-225.0142"/>
<polygon fill="#191970" stroke="#191970" points="1348.7325,-223.8233 1342.4912,-215.262 1342.0314,-225.8468 1348.7325,-223.8233"/>
</g>
<!-- Node16 -->
<g id="node17" class="node">
<title>Node16</title>
<g id="a_node17"><a xlink:href="IRobotControl_8h.html" target="_top" xlink:title="BipedalLocomotion/RobotInterface\l/IRobotControl.h">
<polygon fill="none" stroke="#000000" points="1387.5,-257.5 1387.5,-287.5 1554.5,-287.5 1554.5,-257.5 1387.5,-257.5"/>
<text text-anchor="start" x="1395.5" y="-275.5" font-family="Helvetica,sans-Serif" font-size="10.00" fill="#000000">BipedalLocomotion/RobotInterface</text>
<text text-anchor="middle" x="1471" y="-264.5" font-family="Helvetica,sans-Serif" font-size="10.00" fill="#000000">/IRobotControl.h</text>
</a>
</g>
</g>
<!-- Node13&#45;&gt;Node16 -->
<g id="edge17" class="edge">
<title>Node13&#45;&gt;Node16</title>
<path fill="none" stroke="#191970" d="M1471,-324.2967C1471,-316.5013 1471,-306.7991 1471,-297.9064"/>
<polygon fill="#191970" stroke="#191970" points="1474.5001,-297.6431 1471,-287.6432 1467.5001,-297.6432 1474.5001,-297.6431"/>
</g>
<!-- Node16&#45;&gt;Node14 -->
<g id="edge18" class="edge">
<title>Node16&#45;&gt;Node14</title>
<path fill="none" stroke="#191970" d="M1501.9387,-257.3351C1518.9234,-248.1644 1539.7681,-235.4627 1556,-221 1601.593,-180.3764 1642.1339,-119.9262 1660.9215,-89.8596"/>
<polygon fill="#191970" stroke="#191970" points="1663.9728,-91.5794 1666.2358,-81.2291 1658.0122,-87.9091 1663.9728,-91.5794"/>
</g>
<!-- Node16&#45;&gt;Node15 -->
<g id="edge19" class="edge">
<title>Node16&#45;&gt;Node15</title>
<path fill="none" stroke="#191970" d="M1441.601,-257.4639C1419.5219,-246.1715 1389.4839,-230.8086 1367.8017,-219.7192"/>
<polygon fill="#191970" stroke="#191970" points="1369.2747,-216.5414 1358.7778,-215.1039 1366.0872,-222.7736 1369.2747,-216.5414"/>
</g>
<!-- Node17 -->
<g id="node18" class="node">
<title>Node17</title>
<g id="a_node18"><a xlink:href="IParametersHandler_8h.html" target="_top" xlink:title="BipedalLocomotion/Parameters\lHandler/IParametersHandler.h">
<polygon fill="none" stroke="#000000" points="1395,-190.5 1395,-220.5 1547,-220.5 1547,-190.5 1395,-190.5"/>
<text text-anchor="start" x="1403" y="-208.5" font-family="Helvetica,sans-Serif" font-size="10.00" fill="#000000">BipedalLocomotion/Parameters</text>
<text text-anchor="middle" x="1471" y="-197.5" font-family="Helvetica,sans-Serif" font-size="10.00" fill="#000000">Handler/IParametersHandler.h</text>
</a>
</g>
</g>
<!-- Node16&#45;&gt;Node17 -->
<g id="edge20" class="edge">
<title>Node16&#45;&gt;Node17</title>
<path fill="none" stroke="#191970" d="M1471,-257.2967C1471,-249.5013 1471,-239.7991 1471,-230.9064"/>
<polygon fill="#191970" stroke="#191970" points="1474.5001,-230.6431 1471,-220.6432 1467.5001,-230.6432 1474.5001,-230.6431"/>
</g>
<!-- Node17&#45;&gt;Node14 -->
<g id="edge21" class="edge">
<title>Node17&#45;&gt;Node14</title>
<path fill="none" stroke="#191970" d="M1493.6665,-190.389C1532.2565,-164.6623 1610.296,-112.636 1649.0668,-86.7888"/>
<polygon fill="#191970" stroke="#191970" points="1651.2147,-89.5634 1657.5938,-81.1042 1647.3318,-83.739 1651.2147,-89.5634"/>
</g>
<!-- Node18 -->
<g id="node19" class="node">
<title>Node18</title>
<polygon fill="none" stroke="#bfbfbf" points="1281.5,-129 1281.5,-148 1322.5,-148 1322.5,-129 1281.5,-129"/>
<text text-anchor="middle" x="1302" y="-136" font-family="Helvetica,sans-Serif" font-size="10.00" fill="#000000">string</text>
</g>
<!-- Node17&#45;&gt;Node18 -->
<g id="edge22" class="edge">
<title>Node17&#45;&gt;Node18</title>
<path fill="none" stroke="#191970" d="M1426.0011,-190.3963C1398.5147,-180.7855 1362.8395,-167.6191 1332,-154 1330.9811,-153.55 1329.9481,-153.0815 1328.9089,-152.5996"/>
<polygon fill="#191970" stroke="#191970" points="1330.1138,-149.2927 1319.5929,-148.0433 1327.0383,-155.581 1330.1138,-149.2927"/>
</g>
<!-- Node19 -->
<g id="node20" class="node">
<title>Node19</title>
<polygon fill="none" stroke="#bfbfbf" points="1341,-129 1341,-148 1385,-148 1385,-129 1341,-129"/>
<text text-anchor="middle" x="1363" y="-136" font-family="Helvetica,sans-Serif" font-size="10.00" fill="#000000">vector</text>
</g>
<!-- Node17&#45;&gt;Node19 -->
<g id="edge23" class="edge">
<title>Node17&#45;&gt;Node19</title>
<path fill="none" stroke="#191970" d="M1446.7627,-190.4639C1428.9682,-179.4247 1404.9031,-164.4954 1387.1331,-153.4715"/>
<polygon fill="#191970" stroke="#191970" points="1388.8237,-150.4015 1378.4809,-148.1039 1385.1335,-156.3498 1388.8237,-150.4015"/>
</g>
<!-- Node20 -->
<g id="node21" class="node">
<title>Node20</title>
<g id="a_node21"><a xlink:href="Vector_8h_source.html" target="_top" xlink:title="BipedalLocomotion/Generic\lContainer/Vector.h">
<polygon fill="none" stroke="#000000" points="1403,-123.5 1403,-153.5 1539,-153.5 1539,-123.5 1403,-123.5"/>
<text text-anchor="start" x="1411" y="-141.5" font-family="Helvetica,sans-Serif" font-size="10.00" fill="#000000">BipedalLocomotion/Generic</text>
<text text-anchor="middle" x="1471" y="-130.5" font-family="Helvetica,sans-Serif" font-size="10.00" fill="#000000">Container/Vector.h</text>
</a>
</g>
</g>
<!-- Node17&#45;&gt;Node20 -->
<g id="edge24" class="edge">
<title>Node17&#45;&gt;Node20</title>
<path fill="none" stroke="#191970" d="M1471,-190.2967C1471,-182.5013 1471,-172.7991 1471,-163.9064"/>
<polygon fill="#191970" stroke="#191970" points="1474.5001,-163.6431 1471,-153.6432 1467.5001,-163.6432 1474.5001,-163.6431"/>
</g>
<!-- Node22 -->
<g id="node23" class="node">
<title>Node22</title>
<g id="a_node23"><a xlink:href="TemplateHelpers_8h_source.html" target="_top" xlink:title="BipedalLocomotion/Generic\lContainer/TemplateHelpers.h">
<polygon fill="none" stroke="#000000" points="1135,-56.5 1135,-86.5 1279,-86.5 1279,-56.5 1135,-56.5"/>
<text text-anchor="start" x="1143" y="-74.5" font-family="Helvetica,sans-Serif" font-size="10.00" fill="#000000">BipedalLocomotion/Generic</text>
<text text-anchor="middle" x="1207" y="-63.5" font-family="Helvetica,sans-Serif" font-size="10.00" fill="#000000">Container/TemplateHelpers.h</text>
</a>
</g>
</g>
<!-- Node17&#45;&gt;Node22 -->
<g id="edge34" class="edge">
<title>Node17&#45;&gt;Node22</title>
<path fill="none" stroke="#191970" d="M1394.9874,-191.0694C1347.8197,-181.1224 1292.4322,-167.3388 1272,-154 1249.5336,-139.3332 1231.4198,-114.2718 1220.0772,-95.6102"/>
<polygon fill="#191970" stroke="#191970" points="1222.9856,-93.65 1214.9196,-86.7805 1216.9412,-97.1807 1222.9856,-93.65"/>
</g>
<!-- Node20&#45;&gt;Node14 -->
<g id="edge33" class="edge">
<title>Node20&#45;&gt;Node14</title>
<path fill="none" stroke="#191970" d="M1524.9863,-123.4754C1557.7139,-113.9425 1600.1307,-100.8298 1637,-87 1638.6256,-86.3902 1640.2838,-85.7435 1641.9512,-85.0737"/>
<polygon fill="#191970" stroke="#191970" points="1643.5769,-88.187 1651.4363,-81.082 1640.8616,-81.735 1643.5769,-88.187"/>
</g>
<!-- Node21 -->
<g id="node22" class="node">
<title>Node21</title>
<polygon fill="none" stroke="#bfbfbf" points="1514,-62 1514,-81 1628,-81 1628,-62 1514,-62"/>
<text text-anchor="middle" x="1571" y="-69" font-family="Helvetica,sans-Serif" font-size="10.00" fill="#000000">iDynTree/Core/Span.h</text>
</g>
<!-- Node20&#45;&gt;Node21 -->
<g id="edge25" class="edge">
<title>Node20&#45;&gt;Node21</title>
<path fill="none" stroke="#191970" d="M1493.6915,-123.2967C1510.0283,-112.351 1531.9759,-97.6462 1548.3119,-86.701"/>
<polygon fill="#191970" stroke="#191970" points="1550.3793,-89.5289 1556.7388,-81.055 1546.483,-83.7135 1550.3793,-89.5289"/>
</g>
<!-- Node20&#45;&gt;Node22 -->
<g id="edge26" class="edge">
<title>Node20&#45;&gt;Node22</title>
<path fill="none" stroke="#191970" d="M1411.7532,-123.4639C1371.6422,-113.2842 1318.4971,-99.7966 1276.4034,-89.1138"/>
<polygon fill="#191970" stroke="#191970" points="1277.0589,-85.6692 1266.5052,-86.6017 1275.3369,-92.4541 1277.0589,-85.6692"/>
</g>
<!-- Node26 -->
<g id="node27" class="node">
<title>Node26</title>
<polygon fill="none" stroke="#bfbfbf" points="1297.5,-62 1297.5,-81 1356.5,-81 1356.5,-62 1297.5,-62"/>
<text text-anchor="middle" x="1327" y="-69" font-family="Helvetica,sans-Serif" font-size="10.00" fill="#000000">functional</text>
</g>
<!-- Node20&#45;&gt;Node26 -->
<g id="edge30" class="edge">
<title>Node20&#45;&gt;Node26</title>
<path fill="none" stroke="#191970" d="M1438.6836,-123.4639C1414.1957,-112.0702 1380.8016,-96.5327 1356.9216,-85.4219"/>
<polygon fill="#191970" stroke="#191970" points="1358.1844,-82.1492 1347.6413,-81.1039 1355.2314,-88.4958 1358.1844,-82.1492"/>
</g>
<!-- Node27 -->
<g id="node28" class="node">
<title>Node27</title>
<polygon fill="none" stroke="#bfbfbf" points="1374.5,-62 1374.5,-81 1423.5,-81 1423.5,-62 1374.5,-62"/>
<text text-anchor="middle" x="1399" y="-69" font-family="Helvetica,sans-Serif" font-size="10.00" fill="#000000">cassert</text>
</g>
<!-- Node20&#45;&gt;Node27 -->
<g id="edge31" class="edge">
<title>Node20&#45;&gt;Node27</title>
<path fill="none" stroke="#191970" d="M1454.6621,-123.2967C1443.3352,-112.7564 1428.2624,-98.7303 1416.6586,-87.9323"/>
<polygon fill="#191970" stroke="#191970" points="1418.9731,-85.3051 1409.268,-81.055 1414.2044,-90.4296 1418.9731,-85.3051"/>
</g>
<!-- Node28 -->
<g id="node29" class="node">
<title>Node28</title>
<polygon fill="none" stroke="#bfbfbf" points="1442,-62 1442,-81 1496,-81 1496,-62 1442,-62"/>
<text text-anchor="middle" x="1469" y="-69" font-family="Helvetica,sans-Serif" font-size="10.00" fill="#000000">iostream</text>
</g>
<!-- Node20&#45;&gt;Node28 -->
<g id="edge32" class="edge">
<title>Node20&#45;&gt;Node28</title>
<path fill="none" stroke="#191970" d="M1470.5462,-123.2967C1470.2618,-113.7699 1469.8924,-101.3954 1469.586,-91.1306"/>
<polygon fill="#191970" stroke="#191970" points="1473.0821,-90.9461 1469.2852,-81.055 1466.0853,-91.155 1473.0821,-90.9461"/>
</g>
<!-- Node23 -->
<g id="node24" class="node">
<title>Node23</title>
<polygon fill="none" stroke="#bfbfbf" points="1094,-.5 1094,-19.5 1156,-19.5 1156,-.5 1094,-.5"/>
<text text-anchor="middle" x="1125" y="-7.5" font-family="Helvetica,sans-Serif" font-size="10.00" fill="#000000">type_traits</text>
</g>
<!-- Node22&#45;&gt;Node23 -->
<g id="edge27" class="edge">
<title>Node22&#45;&gt;Node23</title>
<path fill="none" stroke="#191970" d="M1186.7303,-56.2977C1174.3994,-47.0495 1158.6734,-35.2551 1146.1803,-25.8853"/>
<polygon fill="#191970" stroke="#191970" points="1148.2293,-23.047 1138.1292,-19.8469 1144.0292,-28.647 1148.2293,-23.047"/>
</g>
<!-- Node24 -->
<g id="node25" class="node">
<title>Node24</title>
<polygon fill="none" stroke="#bfbfbf" points="1174,-.5 1174,-19.5 1240,-19.5 1240,-.5 1174,-.5"/>
<text text-anchor="middle" x="1207" y="-7.5" font-family="Helvetica,sans-Serif" font-size="10.00" fill="#000000">string_view</text>
</g>
<!-- Node22&#45;&gt;Node24 -->
<g id="edge28" class="edge">
<title>Node22&#45;&gt;Node24</title>
<path fill="none" stroke="#191970" d="M1207,-56.2977C1207,-48.3834 1207,-38.6043 1207,-30.0759"/>
<polygon fill="#191970" stroke="#191970" points="1210.5001,-29.8469 1207,-19.8469 1203.5001,-29.847 1210.5001,-29.8469"/>
</g>
<!-- Node25 -->
<g id="node26" class="node">
<title>Node25</title>
<polygon fill="none" stroke="#bfbfbf" points="1258.5,-.5 1258.5,-19.5 1323.5,-19.5 1323.5,-.5 1258.5,-.5"/>
<text text-anchor="middle" x="1291" y="-7.5" font-family="Helvetica,sans-Serif" font-size="10.00" fill="#000000">Eigen/Core</text>
</g>
<!-- Node22&#45;&gt;Node25 -->
<g id="edge29" class="edge">
<title>Node22&#45;&gt;Node25</title>
<path fill="none" stroke="#191970" d="M1227.7641,-56.2977C1240.3958,-47.0495 1256.5053,-35.2551 1269.3031,-25.8853"/>
<polygon fill="#191970" stroke="#191970" points="1271.5495,-28.5784 1277.5505,-19.8469 1267.4143,-22.9303 1271.5495,-28.5784"/>
</g>
</g>
</svg>
        <g id="navigator" transform="translate(0 0)" fill="#404254">
                <rect fill="#f2f5e9" fill-opacity="0.5" stroke="#606060" stroke-width=".5" x="0" y="0" width="60" height="60"/>
                <use id="zoomplus" xlink:href="#zoomPlus" x="17" y="9" onmousedown="handleZoom(evt,'in')"/>
                <use id="zoomminus" xlink:href="#zoomMin" x="42" y="9" onmousedown="handleZoom(evt,'out')"/>
                <use id="reset" xlink:href="#resetDef" x="30" y="36" onmousedown="handleReset()"/>
                <g id="arrowUp" xlink:href="#dirArrow" transform="translate(30 24)" onmousedown="handlePan(0,-1)">
                  <use xlink:href="#rim" fill="#404040">
                        <set attributeName="fill" to="#808080" begin="arrowUp.mouseover" end="arrowUp.mouseout"/>
                  </use>
                  <path fill="none" stroke="white" stroke-width="1.5" d="M0,-3.0v7 M-2.5,-0.5L0,-3.0L2.5,-0.5"/>
                </g>
                <g id="arrowRight" xlink:href="#dirArrow" transform="rotate(90) translate(36 -43)" onmousedown="handlePan(1,0)">
                  <use xlink:href="#rim" fill="#404040">
                        <set attributeName="fill" to="#808080" begin="arrowRight.mouseover" end="arrowRight.mouseout"/>
                  </use>
                  <path fill="none" stroke="white" stroke-width="1.5" d="M0,-3.0v7 M-2.5,-0.5L0,-3.0L2.5,-0.5"/>
                </g>
                <g id="arrowDown" xlink:href="#dirArrow" transform="rotate(180) translate(-30 -48)" onmousedown="handlePan(0,1)">
                  <use xlink:href="#rim" fill="#404040">
                        <set attributeName="fill" to="#808080" begin="arrowDown.mouseover" end="arrowDown.mouseout"/>
                  </use>
                  <path fill="none" stroke="white" stroke-width="1.5" d="M0,-3.0v7 M-2.5,-0.5L0,-3.0L2.5,-0.5"/>
                </g>
                <g id="arrowLeft" xlink:href="#dirArrow" transform="rotate(270) translate(-36 17)" onmousedown="handlePan(-1,0)">
                  <use xlink:href="#rim" fill="#404040">
                        <set attributeName="fill" to="#808080" begin="arrowLeft.mouseover" end="arrowLeft.mouseout"/>
                  </use>
                  <path fill="none" stroke="white" stroke-width="1.5" d="M0,-3.0v7 M-2.5,-0.5L0,-3.0L2.5,-0.5"/>
                </g>
        </g>
        <svg viewBox="0 0 15 15" width="100%" height="30px" preserveAspectRatio="xMaxYMin meet">
         <g id="arrow_out" transform="scale(0.3 0.3)">
          <a xlink:href="YarpRobotControl_8cpp__incl_org.svg" target="_base">
           <rect id="button" ry="5" rx="5" y="6" x="6" height="38" width="38"
                fill="#f2f5e9" fill-opacity="0.5" stroke="#606060" stroke-width="1.0"/>
           <path id="arrow"
             d="M 11.500037,31.436501 C 11.940474,20.09759 22.043105,11.32322 32.158766,21.979434 L 37.068811,17.246167 C 37.068811,17.246167 37.088388,32 37.088388,32 L 22.160133,31.978069 C 22.160133,31.978069 26.997745,27.140456 26.997745,27.140456 C 18.528582,18.264221 13.291696,25.230495 11.500037,31.436501 z"
             style="fill:#404040;"/>
          </a>
         </g>
        </svg>
</svg>
