<?xml version="1.0" encoding="UTF-8" standalone="no"?>
<!DOCTYPE svg PUBLIC "-//W3C//DTD SVG 1.1//EN"
 "http://www.w3.org/Graphics/SVG/1.1/DTD/svg11.dtd">
<!-- Generated by graphviz version 2.40.1 (20161225.0304)
 -->
<!-- Title: ParametersHandler/YarpImplementation/include/BipedalLocomotion/ParametersHandler/YarpImplementation.tpp Pages: 1 -->
<svg width="1416pt" height="374pt"
 viewBox="0.00 0.00 1415.50 374.00" xmlns="http://www.w3.org/2000/svg" xmlns:xlink="http://www.w3.org/1999/xlink">
<g id="graph0" class="graph" transform="scale(1 1) rotate(0) translate(4 370)">
<title>ParametersHandler/YarpImplementation/include/BipedalLocomotion/ParametersHandler/YarpImplementation.tpp</title>
<!-- Node0 -->
<g id="node1" class="node">
<title>Node0</title>
<polygon fill="#bfbfbf" stroke="#000000" points="650.5,-324.5 650.5,-365.5 873.5,-365.5 873.5,-324.5 650.5,-324.5"/>
<text text-anchor="start" x="658.5" y="-353.5" font-family="Helvetica,sans-Serif" font-size="10.00" fill="#000000">ParametersHandler/YarpImplementation</text>
<text text-anchor="start" x="658.5" y="-342.5" font-family="Helvetica,sans-Serif" font-size="10.00" fill="#000000">/include/BipedalLocomotion/ParametersHandler</text>
<text text-anchor="middle" x="762" y="-331.5" font-family="Helvetica,sans-Serif" font-size="10.00" fill="#000000">/YarpImplementation.tpp</text>
</g>
<!-- Node1 -->
<g id="node2" class="node">
<title>Node1</title>
<polygon fill="none" stroke="#bfbfbf" points="393,-.5 393,-19.5 455,-19.5 455,-.5 393,-.5"/>
<text text-anchor="middle" x="424" y="-7.5" font-family="Helvetica,sans-Serif" font-size="10.00" fill="#000000">type_traits</text>
</g>
<!-- Node0&#45;&gt;Node1 -->
<g id="edge1" class="edge">
<title>Node0&#45;&gt;Node1</title>
<path fill="none" stroke="#191970" d="M650.3826,-335.9662C438.7298,-317.3265 0,-270.8118 0,-205.5 0,-205.5 0,-205.5 0,-138.5 0,-59.0368 276.2034,-24.1365 382.7583,-13.6291"/>
<polygon fill="#191970" stroke="#191970" points="383.2039,-17.1025 392.8223,-12.6598 382.5328,-10.1347 383.2039,-17.1025"/>
</g>
<!-- Node2 -->
<g id="node3" class="node">
<title>Node2</title>
<g id="a_node3"><a xlink:href="Helper_8h.html" target="_top" xlink:title="BipedalLocomotion/YarpUtilities\l/Helper.h">
<polygon fill="none" stroke="#000000" points="441.5,-257.5 441.5,-287.5 596.5,-287.5 596.5,-257.5 441.5,-257.5"/>
<text text-anchor="start" x="449.5" y="-275.5" font-family="Helvetica,sans-Serif" font-size="10.00" fill="#000000">BipedalLocomotion/YarpUtilities</text>
<text text-anchor="middle" x="519" y="-264.5" font-family="Helvetica,sans-Serif" font-size="10.00" fill="#000000">/Helper.h</text>
</a>
</g>
</g>
<!-- Node0&#45;&gt;Node2 -->
<g id="edge2" class="edge">
<title>Node0&#45;&gt;Node2</title>
<path fill="none" stroke="#191970" d="M693.0159,-324.4183C657.2575,-313.7497 613.9841,-300.8389 579.5358,-290.5611"/>
<polygon fill="#191970" stroke="#191970" points="580.1913,-287.1043 569.608,-287.5991 578.19,-293.8121 580.1913,-287.1043"/>
</g>
<!-- Node20 -->
<g id="node21" class="node">
<title>Node20</title>
<g id="a_node21"><a xlink:href="YarpImplementation_8h.html" target="_top" xlink:title="BipedalLocomotion/Parameters\lHandler/YarpImplementation.h">
<polygon fill="none" stroke="#000000" points="929,-257.5 929,-287.5 1081,-287.5 1081,-257.5 929,-257.5"/>
<text text-anchor="start" x="937" y="-275.5" font-family="Helvetica,sans-Serif" font-size="10.00" fill="#000000">BipedalLocomotion/Parameters</text>
<text text-anchor="middle" x="1005" y="-264.5" font-family="Helvetica,sans-Serif" font-size="10.00" fill="#000000">Handler/YarpImplementation.h</text>
</a>
</g>
</g>
<!-- Node0&#45;&gt;Node20 -->
<g id="edge24" class="edge">
<title>Node0&#45;&gt;Node20</title>
<path fill="none" stroke="#191970" d="M824.829,-324.4183C859.8749,-313.7039 903.4459,-300.728 938.9908,-290.4289"/>
<polygon fill="#191970" stroke="#191970" points="940.1534,-293.7363 948.7897,-287.5991 938.2112,-287.0111 940.1534,-293.7363"/>
</g>
<!-- Node3 -->
<g id="node4" class="node">
<title>Node3</title>
<polygon fill="none" stroke="#bfbfbf" points="497.5,-196 497.5,-215 540.5,-215 540.5,-196 497.5,-196"/>
<text text-anchor="middle" x="519" y="-203" font-family="Helvetica,sans-Serif" font-size="10.00" fill="#000000">deque</text>
</g>
<!-- Node2&#45;&gt;Node3 -->
<g id="edge3" class="edge">
<title>Node2&#45;&gt;Node3</title>
<path fill="none" stroke="#191970" d="M519,-257.2967C519,-247.7699 519,-235.3954 519,-225.1306"/>
<polygon fill="#191970" stroke="#191970" points="522.5001,-225.0549 519,-215.055 515.5001,-225.055 522.5001,-225.0549"/>
</g>
<!-- Node4 -->
<g id="node5" class="node">
<title>Node4</title>
<polygon fill="none" stroke="#bfbfbf" points="886,-129 886,-148 930,-148 930,-129 886,-129"/>
<text text-anchor="middle" x="908" y="-136" font-family="Helvetica,sans-Serif" font-size="10.00" fill="#000000">vector</text>
</g>
<!-- Node2&#45;&gt;Node4 -->
<g id="edge4" class="edge">
<title>Node2&#45;&gt;Node4</title>
<path fill="none" stroke="#191970" d="M526.9633,-257.3894C537.9338,-238.2288 559.606,-205.7906 588,-190 687.6448,-134.5851 729.9438,-175.055 842,-154 853.133,-151.9082 865.2233,-149.1984 875.9776,-146.6311"/>
<polygon fill="#191970" stroke="#191970" points="876.9164,-150.0049 885.8043,-144.2381 875.2601,-143.2036 876.9164,-150.0049"/>
</g>
<!-- Node5 -->
<g id="node6" class="node">
<title>Node5</title>
<polygon fill="none" stroke="#bfbfbf" points="597.5,-196 597.5,-215 712.5,-215 712.5,-196 597.5,-196"/>
<text text-anchor="middle" x="655" y="-203" font-family="Helvetica,sans-Serif" font-size="10.00" fill="#000000">yarp/os/BufferedPort.h</text>
</g>
<!-- Node2&#45;&gt;Node5 -->
<g id="edge5" class="edge">
<title>Node2&#45;&gt;Node5</title>
<path fill="none" stroke="#191970" d="M549.5211,-257.4639C572.5457,-246.1209 603.9072,-230.6707 626.4394,-219.5703"/>
<polygon fill="#191970" stroke="#191970" points="628.0817,-222.6629 635.5055,-215.1039 624.9882,-216.3836 628.0817,-222.6629"/>
</g>
<!-- Node6 -->
<g id="node7" class="node">
<title>Node6</title>
<polygon fill="none" stroke="#bfbfbf" points="730.5,-196 730.5,-215 827.5,-215 827.5,-196 730.5,-196"/>
<text text-anchor="middle" x="779" y="-203" font-family="Helvetica,sans-Serif" font-size="10.00" fill="#000000">yarp/os/Property.h</text>
</g>
<!-- Node2&#45;&gt;Node6 -->
<g id="edge6" class="edge">
<title>Node2&#45;&gt;Node6</title>
<path fill="none" stroke="#191970" d="M578.7083,-257.4691C618.9456,-247.2926 673.2012,-233.4796 721,-221 725.0843,-219.9336 729.328,-218.8167 733.5783,-217.692"/>
<polygon fill="#191970" stroke="#191970" points="734.6699,-221.0235 743.4362,-215.0734 732.8727,-214.2581 734.6699,-221.0235"/>
</g>
<!-- Node7 -->
<g id="node8" class="node">
<title>Node7</title>
<polygon fill="none" stroke="#bfbfbf" points="28.5,-196 28.5,-215 113.5,-215 113.5,-196 28.5,-196"/>
<text text-anchor="middle" x="71" y="-203" font-family="Helvetica,sans-Serif" font-size="10.00" fill="#000000">yarp/os/Value.h</text>
</g>
<!-- Node2&#45;&gt;Node7 -->
<g id="edge7" class="edge">
<title>Node2&#45;&gt;Node7</title>
<path fill="none" stroke="#191970" d="M441.1307,-266.25C360.6114,-258.8907 231.5609,-244.5843 122,-221 117.8272,-220.1017 113.5024,-219.024 109.2159,-217.8606"/>
<polygon fill="#191970" stroke="#191970" points="109.9506,-214.4302 99.373,-215.0347 108.0188,-221.1584 109.9506,-214.4302"/>
</g>
<!-- Node8 -->
<g id="node9" class="node">
<title>Node8</title>
<polygon fill="none" stroke="#bfbfbf" points="131.5,-196 131.5,-215 222.5,-215 222.5,-196 131.5,-196"/>
<text text-anchor="middle" x="177" y="-203" font-family="Helvetica,sans-Serif" font-size="10.00" fill="#000000">yarp/sig/Vector.h</text>
</g>
<!-- Node2&#45;&gt;Node8 -->
<g id="edge8" class="edge">
<title>Node2&#45;&gt;Node8</title>
<path fill="none" stroke="#191970" d="M441.2357,-260.6441C383.2632,-251.2982 302.3003,-237.1731 232,-221 227.6403,-219.997 223.11,-218.8665 218.6045,-217.6844"/>
<polygon fill="#191970" stroke="#191970" points="219.4236,-214.2802 208.8564,-215.0438 217.5934,-221.0367 219.4236,-214.2802"/>
</g>
<!-- Node9 -->
<g id="node10" class="node">
<title>Node9</title>
<polygon fill="none" stroke="#bfbfbf" points="241,-196 241,-215 399,-215 399,-196 241,-196"/>
<text text-anchor="middle" x="320" y="-203" font-family="Helvetica,sans-Serif" font-size="10.00" fill="#000000">iDynTree/Core/VectorDynSize.h</text>
</g>
<!-- Node2&#45;&gt;Node9 -->
<g id="edge9" class="edge">
<title>Node2&#45;&gt;Node9</title>
<path fill="none" stroke="#191970" d="M474.3405,-257.4639C439.343,-245.6808 391.1816,-229.4657 358.0132,-218.2984"/>
<polygon fill="#191970" stroke="#191970" points="358.8262,-214.8791 348.2321,-215.0053 356.5926,-221.5132 358.8262,-214.8791"/>
</g>
<!-- Node10 -->
<g id="node11" class="node">
<title>Node10</title>
<g id="a_node11"><a xlink:href="Helper_8tpp.html" target="_top" xlink:title="Helper.tpp">
<polygon fill="none" stroke="#000000" points="417,-196 417,-215 479,-215 479,-196 417,-196"/>
<text text-anchor="middle" x="448" y="-203" font-family="Helvetica,sans-Serif" font-size="10.00" fill="#000000">Helper.tpp</text>
</a>
</g>
</g>
<!-- Node2&#45;&gt;Node10 -->
<g id="edge10" class="edge">
<title>Node2&#45;&gt;Node10</title>
<path fill="none" stroke="#191970" d="M502.889,-257.2967C491.7195,-246.7564 476.856,-232.7303 465.4133,-221.9323"/>
<polygon fill="#191970" stroke="#191970" points="467.8006,-219.3727 458.1254,-215.055 462.9963,-224.4638 467.8006,-219.3727"/>
</g>
<!-- Node10&#45;&gt;Node1 -->
<g id="edge12" class="edge">
<title>Node10&#45;&gt;Node1</title>
<path fill="none" stroke="#191970" d="M446.8098,-195.8051C443.067,-165.3163 431.4841,-70.9646 426.416,-29.6804"/>
<polygon fill="#191970" stroke="#191970" points="429.8898,-29.2524 425.1973,-19.7534 422.942,-30.1054 429.8898,-29.2524"/>
</g>
<!-- Node11 -->
<g id="node12" class="node">
<title>Node11</title>
<polygon fill="none" stroke="#bfbfbf" points="452,-62 452,-81 506,-81 506,-62 452,-62"/>
<text text-anchor="middle" x="479" y="-69" font-family="Helvetica,sans-Serif" font-size="10.00" fill="#000000">iostream</text>
</g>
<!-- Node10&#45;&gt;Node11 -->
<g id="edge11" class="edge">
<title>Node10&#45;&gt;Node11</title>
<path fill="none" stroke="#191970" d="M450.2294,-195.8631C455.3012,-173.9398 467.7831,-119.9858 474.5183,-90.8727"/>
<polygon fill="#191970" stroke="#191970" points="477.9467,-91.5812 476.7908,-81.0496 471.1268,-90.0034 477.9467,-91.5812"/>
</g>
<!-- Node12 -->
<g id="node13" class="node">
<title>Node12</title>
<g id="a_node13"><a xlink:href="TemplateHelpers_8h_source.html" target="_top" xlink:title="BipedalLocomotion/Generic\lContainer/TemplateHelpers.h">
<polygon fill="none" stroke="#000000" points="801,-56.5 801,-86.5 945,-86.5 945,-56.5 801,-56.5"/>
<text text-anchor="start" x="809" y="-74.5" font-family="Helvetica,sans-Serif" font-size="10.00" fill="#000000">BipedalLocomotion/Generic</text>
<text text-anchor="middle" x="873" y="-63.5" font-family="Helvetica,sans-Serif" font-size="10.00" fill="#000000">Container/TemplateHelpers.h</text>
</a>
</g>
</g>
<!-- Node10&#45;&gt;Node12 -->
<g id="edge13" class="edge">
<title>Node10&#45;&gt;Node12</title>
<path fill="none" stroke="#191970" d="M469.6871,-195.9659C475.5378,-193.7075 481.9308,-191.5171 488,-190 617.425,-157.6472 665.2733,-210.7679 786,-154 814.5511,-140.5748 839.7914,-114.1267 855.6327,-94.7828"/>
<polygon fill="#191970" stroke="#191970" points="858.5515,-96.7353 862.0282,-86.7272 853.0692,-92.3828 858.5515,-96.7353"/>
</g>
<!-- Node15 -->
<g id="node16" class="node">
<title>Node15</title>
<g id="a_node16"><a xlink:href="Vector_8h_source.html" target="_top" xlink:title="BipedalLocomotion/Generic\lContainer/Vector.h">
<polygon fill="none" stroke="#000000" points="641,-123.5 641,-153.5 777,-153.5 777,-123.5 641,-123.5"/>
<text text-anchor="start" x="649" y="-141.5" font-family="Helvetica,sans-Serif" font-size="10.00" fill="#000000">BipedalLocomotion/Generic</text>
<text text-anchor="middle" x="709" y="-130.5" font-family="Helvetica,sans-Serif" font-size="10.00" fill="#000000">Container/Vector.h</text>
</a>
</g>
</g>
<!-- Node10&#45;&gt;Node15 -->
<g id="edge17" class="edge">
<title>Node10&#45;&gt;Node15</title>
<path fill="none" stroke="#191970" d="M471.0719,-195.9243C476.5675,-193.821 482.4492,-191.7129 488,-190 534.6997,-175.5891 588.0357,-163.0514 630.6099,-153.9555"/>
<polygon fill="#191970" stroke="#191970" points="631.5738,-157.3291 640.6328,-151.835 630.1249,-150.4807 631.5738,-157.3291"/>
</g>
<!-- Node12&#45;&gt;Node1 -->
<g id="edge14" class="edge">
<title>Node12&#45;&gt;Node1</title>
<path fill="none" stroke="#191970" d="M800.6053,-57.5631C797.362,-57.0184 794.1488,-56.4945 791,-56 673.2795,-37.5147 533.3815,-21.6575 465.3169,-14.3317"/>
<polygon fill="#191970" stroke="#191970" points="465.3398,-10.8143 455.0241,-13.2301 464.5948,-17.7745 465.3398,-10.8143"/>
</g>
<!-- Node13 -->
<g id="node14" class="node">
<title>Node13</title>
<polygon fill="none" stroke="#bfbfbf" points="882,-.5 882,-19.5 948,-19.5 948,-.5 882,-.5"/>
<text text-anchor="middle" x="915" y="-7.5" font-family="Helvetica,sans-Serif" font-size="10.00" fill="#000000">string_view</text>
</g>
<!-- Node12&#45;&gt;Node13 -->
<g id="edge15" class="edge">
<title>Node12&#45;&gt;Node13</title>
<path fill="none" stroke="#191970" d="M883.382,-56.2977C889.1513,-47.8498 896.3716,-37.2773 902.4553,-28.369"/>
<polygon fill="#191970" stroke="#191970" points="905.5259,-30.0788 908.2753,-19.8469 899.7453,-26.1311 905.5259,-30.0788"/>
</g>
<!-- Node14 -->
<g id="node15" class="node">
<title>Node14</title>
<polygon fill="none" stroke="#bfbfbf" points="798.5,-.5 798.5,-19.5 863.5,-19.5 863.5,-.5 798.5,-.5"/>
<text text-anchor="middle" x="831" y="-7.5" font-family="Helvetica,sans-Serif" font-size="10.00" fill="#000000">Eigen/Core</text>
</g>
<!-- Node12&#45;&gt;Node14 -->
<g id="edge16" class="edge">
<title>Node12&#45;&gt;Node14</title>
<path fill="none" stroke="#191970" d="M862.618,-56.2977C856.8487,-47.8498 849.6284,-37.2773 843.5447,-28.369"/>
<polygon fill="#191970" stroke="#191970" points="846.2547,-26.1311 837.7247,-19.8469 840.4741,-30.0788 846.2547,-26.1311"/>
</g>
<!-- Node15&#45;&gt;Node11 -->
<g id="edge22" class="edge">
<title>Node15&#45;&gt;Node11</title>
<path fill="none" stroke="#191970" d="M642.7236,-123.4689C604.8962,-114.2549 556.8243,-101.4673 515,-87 513.119,-86.3493 511.1978,-85.645 509.2703,-84.9078"/>
<polygon fill="#191970" stroke="#191970" points="510.3177,-81.5558 499.7353,-81.0435 507.6885,-88.0433 510.3177,-81.5558"/>
</g>
<!-- Node15&#45;&gt;Node12 -->
<g id="edge19" class="edge">
<title>Node15&#45;&gt;Node12</title>
<path fill="none" stroke="#191970" d="M745.8048,-123.4639C769.6709,-113.7137 800.9651,-100.9289 826.5402,-90.4805"/>
<polygon fill="#191970" stroke="#191970" points="828.1011,-93.6237 836.0347,-86.6017 825.4537,-87.1436 828.1011,-93.6237"/>
</g>
<!-- Node16 -->
<g id="node17" class="node">
<title>Node16</title>
<polygon fill="none" stroke="#bfbfbf" points="524,-62 524,-81 638,-81 638,-62 524,-62"/>
<text text-anchor="middle" x="581" y="-69" font-family="Helvetica,sans-Serif" font-size="10.00" fill="#000000">iDynTree/Core/Span.h</text>
</g>
<!-- Node15&#45;&gt;Node16 -->
<g id="edge18" class="edge">
<title>Node15&#45;&gt;Node16</title>
<path fill="none" stroke="#191970" d="M680.2743,-123.4639C658.7975,-112.2222 629.6138,-96.9463 608.4505,-85.8686"/>
<polygon fill="#191970" stroke="#191970" points="609.8306,-82.6406 599.3478,-81.1039 606.5843,-88.8423 609.8306,-82.6406"/>
</g>
<!-- Node17 -->
<g id="node18" class="node">
<title>Node17</title>
<polygon fill="none" stroke="#bfbfbf" points="656.5,-62 656.5,-81 715.5,-81 715.5,-62 656.5,-62"/>
<text text-anchor="middle" x="686" y="-69" font-family="Helvetica,sans-Serif" font-size="10.00" fill="#000000">functional</text>
</g>
<!-- Node15&#45;&gt;Node17 -->
<g id="edge20" class="edge">
<title>Node15&#45;&gt;Node17</title>
<path fill="none" stroke="#191970" d="M703.7809,-123.2967C700.4758,-113.6685 696.1721,-101.1318 692.6267,-90.8038"/>
<polygon fill="#191970" stroke="#191970" points="695.8374,-89.3768 689.2801,-81.055 689.2166,-91.6496 695.8374,-89.3768"/>
</g>
<!-- Node18 -->
<g id="node19" class="node">
<title>Node18</title>
<polygon fill="none" stroke="#bfbfbf" points="733.5,-62 733.5,-81 782.5,-81 782.5,-62 733.5,-62"/>
<text text-anchor="middle" x="758" y="-69" font-family="Helvetica,sans-Serif" font-size="10.00" fill="#000000">cassert</text>
</g>
<!-- Node15&#45;&gt;Node18 -->
<g id="edge21" class="edge">
<title>Node15&#45;&gt;Node18</title>
<path fill="none" stroke="#191970" d="M720.1189,-123.2967C727.5309,-113.1618 737.3,-99.804 745.061,-89.1921"/>
<polygon fill="#191970" stroke="#191970" points="747.9339,-91.1928 751.012,-81.055 742.2837,-87.0606 747.9339,-91.1928"/>
</g>
<!-- Node19 -->
<g id="node20" class="node">
<title>Node19</title>
<polygon fill="none" stroke="#bfbfbf" points="1128,-62 1128,-81 1180,-81 1180,-62 1128,-62"/>
<text text-anchor="middle" x="1154" y="-69" font-family="Helvetica,sans-Serif" font-size="10.00" fill="#000000">memory</text>
</g>
<!-- Node15&#45;&gt;Node19 -->
<g id="edge23" class="edge">
<title>Node15&#45;&gt;Node19</title>
<path fill="none" stroke="#191970" d="M777.0703,-128.2512C872.6788,-113.8562 1043.355,-88.1589 1117.7092,-76.964"/>
<polygon fill="#191970" stroke="#191970" points="1118.5927,-80.3705 1127.9601,-75.4206 1117.5505,-73.4485 1118.5927,-80.3705"/>
</g>
<!-- Node20&#45;&gt;Node0 -->
<g id="edge37" class="edge">
<title>Node20&#45;&gt;Node0</title>
<path fill="none" stroke="#191970" d="M959.9942,-287.5991C928.3762,-297.3929 885.1864,-310.3547 847.1892,-321.4826"/>
<polygon fill="#191970" stroke="#191970" points="845.7566,-318.2547 837.1391,-324.4183 847.7194,-324.9739 845.7566,-318.2547"/>
</g>
<!-- Node20&#45;&gt;Node6 -->
<g id="edge29" class="edge">
<title>Node20&#45;&gt;Node6</title>
<path fill="none" stroke="#191970" d="M954.2812,-257.4639C914.0213,-245.5284 858.4224,-229.0456 820.7182,-217.8678"/>
<polygon fill="#191970" stroke="#191970" points="821.645,-214.492 811.0626,-215.0053 819.6553,-221.2033 821.645,-214.492"/>
</g>
<!-- Node20&#45;&gt;Node19 -->
<g id="edge25" class="edge">
<title>Node20&#45;&gt;Node19</title>
<path fill="none" stroke="#191970" d="M1081.2046,-267.2518C1146.7912,-260.9597 1234.2095,-247.7154 1256,-221 1264.6725,-210.3674 1272.207,-150.6237 1255,-123 1240.7677,-100.1518 1212.9169,-87.0178 1190.06,-79.7397"/>
<polygon fill="#191970" stroke="#191970" points="1190.8819,-76.3335 1180.3012,-76.8809 1188.9139,-83.0512 1190.8819,-76.3335"/>
</g>
<!-- Node21 -->
<g id="node22" class="node">
<title>Node21</title>
<polygon fill="none" stroke="#bfbfbf" points="1204.5,-129 1204.5,-148 1245.5,-148 1245.5,-129 1204.5,-129"/>
<text text-anchor="middle" x="1225" y="-136" font-family="Helvetica,sans-Serif" font-size="10.00" fill="#000000">string</text>
</g>
<!-- Node20&#45;&gt;Node21 -->
<g id="edge26" class="edge">
<title>Node20&#45;&gt;Node21</title>
<path fill="none" stroke="#191970" d="M1081.1748,-265.9347C1141.7046,-258.9524 1219.3561,-245.4374 1239,-221 1253.5147,-202.9435 1244.5138,-175.3697 1235.6619,-157.1424"/>
<polygon fill="#191970" stroke="#191970" points="1238.6593,-155.3222 1230.9099,-148.0974 1232.4625,-158.5779 1238.6593,-155.3222"/>
</g>
<!-- Node22 -->
<g id="node23" class="node">
<title>Node22</title>
<polygon fill="none" stroke="#bfbfbf" points="1324.5,-196 1324.5,-215 1407.5,-215 1407.5,-196 1324.5,-196"/>
<text text-anchor="middle" x="1366" y="-203" font-family="Helvetica,sans-Serif" font-size="10.00" fill="#000000">unordered_map</text>
</g>
<!-- Node20&#45;&gt;Node22 -->
<g id="edge27" class="edge">
<title>Node20&#45;&gt;Node22</title>
<path fill="none" stroke="#191970" d="M1081.2523,-261.8476C1143.2046,-252.6606 1232.677,-238.1814 1310,-221 1314.6191,-219.9736 1319.4256,-218.803 1324.1957,-217.5754"/>
<polygon fill="#191970" stroke="#191970" points="1325.0999,-220.9567 1333.8642,-215.0037 1323.3005,-214.1919 1325.0999,-220.9567"/>
</g>
<!-- Node23 -->
<g id="node24" class="node">
<title>Node23</title>
<polygon fill="none" stroke="#bfbfbf" points="846,-196 846,-215 932,-215 932,-196 846,-196"/>
<text text-anchor="middle" x="889" y="-203" font-family="Helvetica,sans-Serif" font-size="10.00" fill="#000000">yarp/os/Bottle.h</text>
</g>
<!-- Node20&#45;&gt;Node23 -->
<g id="edge28" class="edge">
<title>Node20&#45;&gt;Node23</title>
<path fill="none" stroke="#191970" d="M978.9673,-257.4639C959.6794,-246.3234 933.5322,-231.2212 914.3972,-220.1691"/>
<polygon fill="#191970" stroke="#191970" points="916.0376,-217.0747 905.6277,-215.1039 912.5365,-223.1363 916.0376,-217.0747"/>
</g>
<!-- Node24 -->
<g id="node25" class="node">
<title>Node24</title>
<polygon fill="none" stroke="#bfbfbf" points="950.5,-196 950.5,-215 1059.5,-215 1059.5,-196 950.5,-196"/>
<text text-anchor="middle" x="1005" y="-203" font-family="Helvetica,sans-Serif" font-size="10.00" fill="#000000">yarp/os/Searchable.h</text>
</g>
<!-- Node20&#45;&gt;Node24 -->
<g id="edge30" class="edge">
<title>Node20&#45;&gt;Node24</title>
<path fill="none" stroke="#191970" d="M1005,-257.2967C1005,-247.7699 1005,-235.3954 1005,-225.1306"/>
<polygon fill="#191970" stroke="#191970" points="1008.5001,-225.0549 1005,-215.055 1001.5001,-225.055 1008.5001,-225.0549"/>
</g>
<!-- Node25 -->
<g id="node26" class="node">
<title>Node25</title>
<g id="a_node26"><a xlink:href="IParametersHandler_8h.html" target="_top" xlink:title="BipedalLocomotion/Parameters\lHandler/IParametersHandler.h">
<polygon fill="none" stroke="#000000" points="1078,-190.5 1078,-220.5 1230,-220.5 1230,-190.5 1078,-190.5"/>
<text text-anchor="start" x="1086" y="-208.5" font-family="Helvetica,sans-Serif" font-size="10.00" fill="#000000">BipedalLocomotion/Parameters</text>
<text text-anchor="middle" x="1154" y="-197.5" font-family="Helvetica,sans-Serif" font-size="10.00" fill="#000000">Handler/IParametersHandler.h</text>
</a>
</g>
</g>
<!-- Node20&#45;&gt;Node25 -->
<g id="edge31" class="edge">
<title>Node20&#45;&gt;Node25</title>
<path fill="none" stroke="#191970" d="M1038.4385,-257.4639C1059.9307,-247.7996 1088.0531,-235.154 1111.1742,-224.7572"/>
<polygon fill="#191970" stroke="#191970" points="1112.7307,-227.895 1120.4156,-220.6017 1109.8599,-221.5107 1112.7307,-227.895"/>
</g>
<!-- Node25&#45;&gt;Node4 -->
<g id="edge34" class="edge">
<title>Node25&#45;&gt;Node4</title>
<path fill="none" stroke="#191970" d="M1098.7928,-190.4639C1049.9249,-177.1543 980.2948,-158.1901 940.0649,-147.2331"/>
<polygon fill="#191970" stroke="#191970" points="940.8288,-143.8137 930.2605,-144.5628 938.9893,-150.5677 940.8288,-143.8137"/>
</g>
<!-- Node25&#45;&gt;Node12 -->
<g id="edge36" class="edge">
<title>Node25&#45;&gt;Node12</title>
<path fill="none" stroke="#191970" d="M1122.312,-190.389C1071.1594,-165.996 970.4258,-117.9593 913.9173,-91.0122"/>
<polygon fill="#191970" stroke="#191970" points="915.105,-87.701 904.5722,-86.5558 912.0919,-94.0194 915.105,-87.701"/>
</g>
<!-- Node25&#45;&gt;Node15 -->
<g id="edge35" class="edge">
<title>Node25&#45;&gt;Node15</title>
<path fill="none" stroke="#191970" d="M1077.5918,-191.5821C1074.3528,-191.0385 1071.145,-190.5088 1068,-190 971.5335,-174.3927 860.0859,-158.781 787.2771,-148.9065"/>
<polygon fill="#191970" stroke="#191970" points="787.6446,-145.4244 777.2655,-147.5518 786.7059,-152.3612 787.6446,-145.4244"/>
</g>
<!-- Node25&#45;&gt;Node19 -->
<g id="edge32" class="edge">
<title>Node25&#45;&gt;Node19</title>
<path fill="none" stroke="#191970" d="M1154,-190.389C1154,-166.0735 1154,-118.2644 1154,-91.2698"/>
<polygon fill="#191970" stroke="#191970" points="1157.5001,-91.1041 1154,-81.1042 1150.5001,-91.1042 1157.5001,-91.1041"/>
</g>
<!-- Node25&#45;&gt;Node21 -->
<g id="edge33" class="edge">
<title>Node25&#45;&gt;Node21</title>
<path fill="none" stroke="#191970" d="M1170.111,-190.2967C1181.2805,-179.7564 1196.144,-165.7303 1207.5867,-154.9323"/>
<polygon fill="#191970" stroke="#191970" points="1210.0037,-157.4638 1214.8746,-148.055 1205.1994,-152.3727 1210.0037,-157.4638"/>
</g>
</g>
</svg>
