<?xml version="1.0" encoding="UTF-8" standalone="no"?>
<!DOCTYPE svg PUBLIC "-//W3C//DTD SVG 1.1//EN"
 "http://www.w3.org/Graphics/SVG/1.1/DTD/svg11.dtd">
<!-- Generated by graphviz version 2.40.1 (20161225.0304)
 -->
<!-- Title: RobotInterface/YarpImplementation/include/BipedalLocomotion/RobotInterface/YarpRobotControl.h Pages: 1 -->
<!--zoomable 374 -->
<svg id="main" version="1.1" xmlns="http://www.w3.org/2000/svg" xmlns:xlink="http://www.w3.org/1999/xlink" xml:space="preserve" onload="init(evt)">
<style type="text/css"><![CDATA[
.edge:hover path { stroke: red; }
.edge:hover polygon { stroke: red; fill: red; }
]]></style>
<script type="text/javascript"><![CDATA[
var edges = document.getElementsByTagName('g');
if (edges && edges.length) {
  for (var i=0;i<edges.length;i++) {
    if (edges[i].id.substr(0,4)=='edge') {
      edges[i].setAttribute('class','edge');
    }
  }
}
]]></script>
        <defs>
                <circle id="rim" cx="0" cy="0" r="7"/>
                <circle id="rim2" cx="0" cy="0" r="3.5"/>
                <g id="zoomPlus">
                        <use xlink:href="#rim" fill="#404040">
                                <set attributeName="fill" to="#808080" begin="zoomplus.mouseover" end="zoomplus.mouseout"/>
                        </use>
                        <path d="M-4,0h8M0,-4v8" fill="none" stroke="white" stroke-width="1.5" pointer-events="none"/>
                </g>
                <g id="zoomMin">
                        <use xlink:href="#rim" fill="#404040">
                                <set attributeName="fill" to="#808080" begin="zoomminus.mouseover" end="zoomminus.mouseout"/>
                        </use>
                        <path d="M-4,0h8" fill="none" stroke="white" stroke-width="1.5" pointer-events="none"/>
                </g>
                <g id="dirArrow">
                        <path fill="none" stroke="white" stroke-width="1.5" d="M0,-3.0v7 M-2.5,-0.5L0,-3.0L2.5,-0.5"/>
                </g>
               <g id="resetDef">
                       <use xlink:href="#rim2" fill="#404040">
                               <set attributeName="fill" to="#808080" begin="reset.mouseover" end="reset.mouseout"/>
                       </use>
               </g>
        </defs>

<script type="text/javascript">
var viewWidth = 616;
var viewHeight = 374;
var sectionId = 'dynsection-0';
</script>
<script xlink:href="svgpan.js"/>
<svg id="graph" class="graph">
<g id="viewport">
<title>RobotInterface/YarpImplementation/include/BipedalLocomotion/RobotInterface/YarpRobotControl.h</title>
<!-- Node0 -->
<g id="node1" class="node">
<title>Node0</title>
<polygon fill="#bfbfbf" stroke="#000000" points="197.5,-324.5 197.5,-365.5 370.5,-365.5 370.5,-324.5 197.5,-324.5"/>
<text text-anchor="start" x="205.5" y="-353.5" font-family="Helvetica,sans-Serif" font-size="10.00" fill="#000000">RobotInterface/YarpImplementation</text>
<text text-anchor="start" x="205.5" y="-342.5" font-family="Helvetica,sans-Serif" font-size="10.00" fill="#000000">/include/BipedalLocomotion</text>
<text text-anchor="middle" x="284" y="-331.5" font-family="Helvetica,sans-Serif" font-size="10.00" fill="#000000">/RobotInterface/YarpRobotControl.h</text>
</g>
<!-- Node1 -->
<g id="node2" class="node">
<title>Node1</title>
<polygon fill="none" stroke="#bfbfbf" points="0,-62 0,-81 52,-81 52,-62 0,-62"/>
<text text-anchor="middle" x="26" y="-69" font-family="Helvetica,sans-Serif" font-size="10.00" fill="#000000">memory</text>
</g>
<!-- Node0&#45;&gt;Node1 -->
<g id="edge1" class="edge">
<title>Node0&#45;&gt;Node1</title>
<path fill="none" stroke="#191970" d="M201.8091,-324.4534C178.7553,-315.8868 154.8631,-304.0708 136,-288 72.3673,-233.7866 41.3166,-133.674 30.5496,-91.2863"/>
<polygon fill="#191970" stroke="#191970" points="33.9044,-90.2693 28.1403,-81.3796 27.1026,-91.9235 33.9044,-90.2693"/>
</g>
<!-- Node2 -->
<g id="node3" class="node">
<title>Node2</title>
<polygon fill="none" stroke="#bfbfbf" points="323.5,-196 323.5,-215 396.5,-215 396.5,-196 323.5,-196"/>
<text text-anchor="middle" x="360" y="-203" font-family="Helvetica,sans-Serif" font-size="10.00" fill="#000000">Eigen/Dense</text>
</g>
<!-- Node0&#45;&gt;Node2 -->
<g id="edge2" class="edge">
<title>Node0&#45;&gt;Node2</title>
<path fill="none" stroke="#191970" d="M298.3943,-324.3008C305.5442,-313.6622 314.105,-300.365 321,-288 332.7568,-266.9161 344.3349,-241.703 351.7818,-224.7457"/>
<polygon fill="#191970" stroke="#191970" points="355.0822,-225.9321 355.8494,-215.3651 348.66,-223.1473 355.0822,-225.9321"/>
</g>
<!-- Node3 -->
<g id="node4" class="node">
<title>Node3</title>
<polygon fill="none" stroke="#bfbfbf" points="368.5,-263 368.5,-282 479.5,-282 479.5,-263 368.5,-263"/>
<text text-anchor="middle" x="424" y="-270" font-family="Helvetica,sans-Serif" font-size="10.00" fill="#000000">yarp/dev/PolyDriver.h</text>
</g>
<!-- Node0&#45;&gt;Node3 -->
<g id="edge3" class="edge">
<title>Node0&#45;&gt;Node3</title>
<path fill="none" stroke="#191970" d="M323.7439,-324.4183C347.0183,-312.3655 375.8185,-297.4511 396.5707,-286.7045"/>
<polygon fill="#191970" stroke="#191970" points="398.2199,-289.7919 405.4904,-282.0853 395.0009,-283.576 398.2199,-289.7919"/>
</g>
<!-- Node4 -->
<g id="node5" class="node">
<title>Node4</title>
<g id="a_node5"><a xlink:href="IRobotControl_8h.html" target="_top" xlink:title="BipedalLocomotion/RobotInterface\l/IRobotControl.h">
<polygon fill="none" stroke="#000000" points="145.5,-257.5 145.5,-287.5 312.5,-287.5 312.5,-257.5 145.5,-257.5"/>
<text text-anchor="start" x="153.5" y="-275.5" font-family="Helvetica,sans-Serif" font-size="10.00" fill="#000000">BipedalLocomotion/RobotInterface</text>
<text text-anchor="middle" x="229" y="-264.5" font-family="Helvetica,sans-Serif" font-size="10.00" fill="#000000">/IRobotControl.h</text>
</a>
</g>
</g>
<!-- Node0&#45;&gt;Node4 -->
<g id="edge4" class="edge">
<title>Node0&#45;&gt;Node4</title>
<path fill="none" stroke="#191970" d="M268.3863,-324.4183C261.5781,-315.4438 253.5662,-304.8827 246.5522,-295.637"/>
<polygon fill="#191970" stroke="#191970" points="249.2868,-293.4507 240.4545,-287.5991 243.71,-297.6814 249.2868,-293.4507"/>
</g>
<!-- Node4&#45;&gt;Node1 -->
<g id="edge5" class="edge">
<title>Node4&#45;&gt;Node1</title>
<path fill="none" stroke="#191970" d="M198.1076,-257.283C181.1374,-248.0959 160.2917,-235.3952 144,-221 97.9408,-180.3025 56.5563,-119.8857 37.3415,-89.843"/>
<polygon fill="#191970" stroke="#191970" points="40.1985,-87.8118 31.9042,-81.2197 34.2773,-91.5453 40.1985,-87.8118"/>
</g>
<!-- Node4&#45;&gt;Node2 -->
<g id="edge6" class="edge">
<title>Node4&#45;&gt;Node2</title>
<path fill="none" stroke="#191970" d="M258.399,-257.4639C280.4781,-246.1715 310.5161,-230.8086 332.1983,-219.7192"/>
<polygon fill="#191970" stroke="#191970" points="333.9128,-222.7736 341.2222,-215.1039 330.7253,-216.5414 333.9128,-222.7736"/>
</g>
<!-- Node5 -->
<g id="node6" class="node">
<title>Node5</title>
<g id="a_node6"><a xlink:href="IParametersHandler_8h.html" target="_top" xlink:title="BipedalLocomotion/Parameters\lHandler/IParametersHandler.h">
<polygon fill="none" stroke="#000000" points="153,-190.5 153,-220.5 305,-220.5 305,-190.5 153,-190.5"/>
<text text-anchor="start" x="161" y="-208.5" font-family="Helvetica,sans-Serif" font-size="10.00" fill="#000000">BipedalLocomotion/Parameters</text>
<text text-anchor="middle" x="229" y="-197.5" font-family="Helvetica,sans-Serif" font-size="10.00" fill="#000000">Handler/IParametersHandler.h</text>
</a>
</g>
</g>
<!-- Node4&#45;&gt;Node5 -->
<g id="edge7" class="edge">
<title>Node4&#45;&gt;Node5</title>
<path fill="none" stroke="#191970" d="M229,-257.2967C229,-249.5013 229,-239.7991 229,-230.9064"/>
<polygon fill="#191970" stroke="#191970" points="232.5001,-230.6431 229,-220.6432 225.5001,-230.6432 232.5001,-230.6431"/>
</g>
<!-- Node5&#45;&gt;Node1 -->
<g id="edge8" class="edge">
<title>Node5&#45;&gt;Node1</title>
<path fill="none" stroke="#191970" d="M206.1079,-190.389C167.134,-164.6623 88.318,-112.636 49.1614,-86.7888"/>
<polygon fill="#191970" stroke="#191970" points="50.8235,-83.6922 40.5496,-81.1042 46.9672,-89.5342 50.8235,-83.6922"/>
</g>
<!-- Node6 -->
<g id="node7" class="node">
<title>Node6</title>
<polygon fill="none" stroke="#bfbfbf" points="315.5,-129 315.5,-148 356.5,-148 356.5,-129 315.5,-129"/>
<text text-anchor="middle" x="336" y="-136" font-family="Helvetica,sans-Serif" font-size="10.00" fill="#000000">string</text>
</g>
<!-- Node5&#45;&gt;Node6 -->
<g id="edge9" class="edge">
<title>Node5&#45;&gt;Node6</title>
<path fill="none" stroke="#191970" d="M253.0129,-190.4639C270.6426,-179.4247 294.4849,-164.4954 312.0903,-153.4715"/>
<polygon fill="#191970" stroke="#191970" points="314.0444,-156.3775 320.6624,-148.1039 310.3293,-150.4446 314.0444,-156.3775"/>
</g>
<!-- Node7 -->
<g id="node8" class="node">
<title>Node7</title>
<polygon fill="none" stroke="#bfbfbf" points="375,-129 375,-148 419,-148 419,-129 375,-129"/>
<text text-anchor="middle" x="397" y="-136" font-family="Helvetica,sans-Serif" font-size="10.00" fill="#000000">vector</text>
</g>
<!-- Node5&#45;&gt;Node7 -->
<g id="edge10" class="edge">
<title>Node5&#45;&gt;Node7</title>
<path fill="none" stroke="#191970" d="M271.6579,-190.4536C298.6545,-180.6597 334.1578,-167.2779 365,-154 366.18,-153.492 367.3797,-152.9641 368.588,-152.423"/>
<polygon fill="#191970" stroke="#191970" points="370.2441,-155.5129 377.8376,-148.1245 367.294,-149.1649 370.2441,-155.5129"/>
</g>
<!-- Node8 -->
<g id="node9" class="node">
<title>Node8</title>
<g id="a_node9"><a xlink:href="Vector_8h_source.html" target="_top" xlink:title="BipedalLocomotion/Generic\lContainer/Vector.h">
<polygon fill="none" stroke="#000000" points="161,-123.5 161,-153.5 297,-153.5 297,-123.5 161,-123.5"/>
<text text-anchor="start" x="169" y="-141.5" font-family="Helvetica,sans-Serif" font-size="10.00" fill="#000000">BipedalLocomotion/Generic</text>
<text text-anchor="middle" x="229" y="-130.5" font-family="Helvetica,sans-Serif" font-size="10.00" fill="#000000">Container/Vector.h</text>
</a>
</g>
</g>
<!-- Node5&#45;&gt;Node8 -->
<g id="edge11" class="edge">
<title>Node5&#45;&gt;Node8</title>
<path fill="none" stroke="#191970" d="M229,-190.2967C229,-182.5013 229,-172.7991 229,-163.9064"/>
<polygon fill="#191970" stroke="#191970" points="232.5001,-163.6431 229,-153.6432 225.5001,-163.6432 232.5001,-163.6431"/>
</g>
<!-- Node10 -->
<g id="node11" class="node">
<title>Node10</title>
<g id="a_node11"><a xlink:href="TemplateHelpers_8h_source.html" target="_top" xlink:title="BipedalLocomotion/Generic\lContainer/TemplateHelpers.h">
<polygon fill="none" stroke="#000000" points="419,-56.5 419,-86.5 563,-86.5 563,-56.5 419,-56.5"/>
<text text-anchor="start" x="427" y="-74.5" font-family="Helvetica,sans-Serif" font-size="10.00" fill="#000000">BipedalLocomotion/Generic</text>
<text text-anchor="middle" x="491" y="-63.5" font-family="Helvetica,sans-Serif" font-size="10.00" fill="#000000">Container/TemplateHelpers.h</text>
</a>
</g>
</g>
<!-- Node5&#45;&gt;Node10 -->
<g id="edge21" class="edge">
<title>Node5&#45;&gt;Node10</title>
<path fill="none" stroke="#191970" d="M305.0787,-191.1698C352.2748,-181.2661 407.6693,-167.4931 428,-154 450.0939,-139.3368 467.6026,-114.2749 478.4981,-95.6121"/>
<polygon fill="#191970" stroke="#191970" points="481.6109,-97.2168 483.4444,-86.7819 475.5037,-93.7959 481.6109,-97.2168"/>
</g>
<!-- Node8&#45;&gt;Node1 -->
<g id="edge20" class="edge">
<title>Node8&#45;&gt;Node1</title>
<path fill="none" stroke="#191970" d="M173.971,-123.4303C140.8975,-113.9295 98.1553,-100.8657 61,-87 59.3734,-86.393 57.7143,-85.7484 56.0463,-85.0804"/>
<polygon fill="#191970" stroke="#191970" points="57.1343,-81.7412 46.5593,-81.0938 54.4225,-88.1945 57.1343,-81.7412"/>
</g>
<!-- Node9 -->
<g id="node10" class="node">
<title>Node9</title>
<polygon fill="none" stroke="#bfbfbf" points="70,-62 70,-81 184,-81 184,-62 70,-62"/>
<text text-anchor="middle" x="127" y="-69" font-family="Helvetica,sans-Serif" font-size="10.00" fill="#000000">iDynTree/Core/Span.h</text>
</g>
<!-- Node8&#45;&gt;Node9 -->
<g id="edge12" class="edge">
<title>Node8&#45;&gt;Node9</title>
<path fill="none" stroke="#191970" d="M206.1092,-123.4639C189.4575,-112.526 166.9917,-97.769 150.2558,-86.7759"/>
<polygon fill="#191970" stroke="#191970" points="151.9006,-83.6688 141.6209,-81.1039 148.0575,-89.5195 151.9006,-83.6688"/>
</g>
<!-- Node8&#45;&gt;Node10 -->
<g id="edge13" class="edge">
<title>Node8&#45;&gt;Node10</title>
<path fill="none" stroke="#191970" d="M287.7979,-123.4639C327.6051,-113.2842 380.3476,-99.7966 422.1223,-89.1138"/>
<polygon fill="#191970" stroke="#191970" points="423.1246,-92.4702 431.9456,-86.6017 421.3902,-85.6884 423.1246,-92.4702"/>
</g>
<!-- Node14 -->
<g id="node15" class="node">
<title>Node14</title>
<polygon fill="none" stroke="#bfbfbf" points="202.5,-62 202.5,-81 261.5,-81 261.5,-62 202.5,-62"/>
<text text-anchor="middle" x="232" y="-69" font-family="Helvetica,sans-Serif" font-size="10.00" fill="#000000">functional</text>
</g>
<!-- Node8&#45;&gt;Node14 -->
<g id="edge17" class="edge">
<title>Node8&#45;&gt;Node14</title>
<path fill="none" stroke="#191970" d="M229.6807,-123.2967C230.1073,-113.7699 230.6614,-101.3954 231.121,-91.1306"/>
<polygon fill="#191970" stroke="#191970" points="234.6213,-91.2016 231.5722,-81.055 227.6283,-90.8884 234.6213,-91.2016"/>
</g>
<!-- Node15 -->
<g id="node16" class="node">
<title>Node15</title>
<polygon fill="none" stroke="#bfbfbf" points="279.5,-62 279.5,-81 328.5,-81 328.5,-62 279.5,-62"/>
<text text-anchor="middle" x="304" y="-69" font-family="Helvetica,sans-Serif" font-size="10.00" fill="#000000">cassert</text>
</g>
<!-- Node8&#45;&gt;Node15 -->
<g id="edge18" class="edge">
<title>Node8&#45;&gt;Node15</title>
<path fill="none" stroke="#191970" d="M246.0187,-123.2967C257.8175,-112.7564 273.5184,-98.7303 285.6057,-87.9323"/>
<polygon fill="#191970" stroke="#191970" points="288.1783,-90.3273 293.3041,-81.055 283.5147,-85.107 288.1783,-90.3273"/>
</g>
<!-- Node16 -->
<g id="node17" class="node">
<title>Node16</title>
<polygon fill="none" stroke="#bfbfbf" points="347,-62 347,-81 401,-81 401,-62 347,-62"/>
<text text-anchor="middle" x="374" y="-69" font-family="Helvetica,sans-Serif" font-size="10.00" fill="#000000">iostream</text>
</g>
<!-- Node8&#45;&gt;Node16 -->
<g id="edge19" class="edge">
<title>Node8&#45;&gt;Node16</title>
<path fill="none" stroke="#191970" d="M261.5408,-123.4639C286.1987,-112.0702 319.8248,-96.5327 343.8706,-85.4219"/>
<polygon fill="#191970" stroke="#191970" points="345.6057,-88.4757 353.2154,-81.1039 342.6695,-82.1213 345.6057,-88.4757"/>
</g>
<!-- Node11 -->
<g id="node12" class="node">
<title>Node11</title>
<polygon fill="none" stroke="#bfbfbf" points="378,-.5 378,-19.5 440,-19.5 440,-.5 378,-.5"/>
<text text-anchor="middle" x="409" y="-7.5" font-family="Helvetica,sans-Serif" font-size="10.00" fill="#000000">type_traits</text>
</g>
<!-- Node10&#45;&gt;Node11 -->
<g id="edge14" class="edge">
<title>Node10&#45;&gt;Node11</title>
<path fill="none" stroke="#191970" d="M470.7303,-56.2977C458.3994,-47.0495 442.6734,-35.2551 430.1803,-25.8853"/>
<polygon fill="#191970" stroke="#191970" points="432.2293,-23.047 422.1292,-19.8469 428.0292,-28.647 432.2293,-23.047"/>
</g>
<!-- Node12 -->
<g id="node13" class="node">
<title>Node12</title>
<polygon fill="none" stroke="#bfbfbf" points="458,-.5 458,-19.5 524,-19.5 524,-.5 458,-.5"/>
<text text-anchor="middle" x="491" y="-7.5" font-family="Helvetica,sans-Serif" font-size="10.00" fill="#000000">string_view</text>
</g>
<!-- Node10&#45;&gt;Node12 -->
<g id="edge15" class="edge">
<title>Node10&#45;&gt;Node12</title>
<path fill="none" stroke="#191970" d="M491,-56.2977C491,-48.3834 491,-38.6043 491,-30.0759"/>
<polygon fill="#191970" stroke="#191970" points="494.5001,-29.8469 491,-19.8469 487.5001,-29.847 494.5001,-29.8469"/>
</g>
<!-- Node13 -->
<g id="node14" class="node">
<title>Node13</title>
<polygon fill="none" stroke="#bfbfbf" points="542.5,-.5 542.5,-19.5 607.5,-19.5 607.5,-.5 542.5,-.5"/>
<text text-anchor="middle" x="575" y="-7.5" font-family="Helvetica,sans-Serif" font-size="10.00" fill="#000000">Eigen/Core</text>
</g>
<!-- Node10&#45;&gt;Node13 -->
<g id="edge16" class="edge">
<title>Node10&#45;&gt;Node13</title>
<path fill="none" stroke="#191970" d="M511.7641,-56.2977C524.3958,-47.0495 540.5053,-35.2551 553.3031,-25.8853"/>
<polygon fill="#191970" stroke="#191970" points="555.5495,-28.5784 561.5505,-19.8469 551.4143,-22.9303 555.5495,-28.5784"/>
</g>
</g>
</svg>
        <g id="navigator" transform="translate(0 0)" fill="#404254">
                <rect fill="#f2f5e9" fill-opacity="0.5" stroke="#606060" stroke-width=".5" x="0" y="0" width="60" height="60"/>
                <use id="zoomplus" xlink:href="#zoomPlus" x="17" y="9" onmousedown="handleZoom(evt,'in')"/>
                <use id="zoomminus" xlink:href="#zoomMin" x="42" y="9" onmousedown="handleZoom(evt,'out')"/>
                <use id="reset" xlink:href="#resetDef" x="30" y="36" onmousedown="handleReset()"/>
                <g id="arrowUp" xlink:href="#dirArrow" transform="translate(30 24)" onmousedown="handlePan(0,-1)">
                  <use xlink:href="#rim" fill="#404040">
                        <set attributeName="fill" to="#808080" begin="arrowUp.mouseover" end="arrowUp.mouseout"/>
                  </use>
                  <path fill="none" stroke="white" stroke-width="1.5" d="M0,-3.0v7 M-2.5,-0.5L0,-3.0L2.5,-0.5"/>
                </g>
                <g id="arrowRight" xlink:href="#dirArrow" transform="rotate(90) translate(36 -43)" onmousedown="handlePan(1,0)">
                  <use xlink:href="#rim" fill="#404040">
                        <set attributeName="fill" to="#808080" begin="arrowRight.mouseover" end="arrowRight.mouseout"/>
                  </use>
                  <path fill="none" stroke="white" stroke-width="1.5" d="M0,-3.0v7 M-2.5,-0.5L0,-3.0L2.5,-0.5"/>
                </g>
                <g id="arrowDown" xlink:href="#dirArrow" transform="rotate(180) translate(-30 -48)" onmousedown="handlePan(0,1)">
                  <use xlink:href="#rim" fill="#404040">
                        <set attributeName="fill" to="#808080" begin="arrowDown.mouseover" end="arrowDown.mouseout"/>
                  </use>
                  <path fill="none" stroke="white" stroke-width="1.5" d="M0,-3.0v7 M-2.5,-0.5L0,-3.0L2.5,-0.5"/>
                </g>
                <g id="arrowLeft" xlink:href="#dirArrow" transform="rotate(270) translate(-36 17)" onmousedown="handlePan(-1,0)">
                  <use xlink:href="#rim" fill="#404040">
                        <set attributeName="fill" to="#808080" begin="arrowLeft.mouseover" end="arrowLeft.mouseout"/>
                  </use>
                  <path fill="none" stroke="white" stroke-width="1.5" d="M0,-3.0v7 M-2.5,-0.5L0,-3.0L2.5,-0.5"/>
                </g>
        </g>
        <svg viewBox="0 0 15 15" width="100%" height="30px" preserveAspectRatio="xMaxYMin meet">
         <g id="arrow_out" transform="scale(0.3 0.3)">
          <a xlink:href="YarpRobotControl_8h__incl_org.svg" target="_base">
           <rect id="button" ry="5" rx="5" y="6" x="6" height="38" width="38"
                fill="#f2f5e9" fill-opacity="0.5" stroke="#606060" stroke-width="1.0"/>
           <path id="arrow"
             d="M 11.500037,31.436501 C 11.940474,20.09759 22.043105,11.32322 32.158766,21.979434 L 37.068811,17.246167 C 37.068811,17.246167 37.088388,32 37.088388,32 L 22.160133,31.978069 C 22.160133,31.978069 26.997745,27.140456 26.997745,27.140456 C 18.528582,18.264221 13.291696,25.230495 11.500037,31.436501 z"
             style="fill:#404040;"/>
          </a>
         </g>
        </svg>
</svg>
