<?xml version="1.0" encoding="UTF-8" standalone="no"?>
<!DOCTYPE svg PUBLIC "-//W3C//DTD SVG 1.1//EN"
 "http://www.w3.org/Graphics/SVG/1.1/DTD/svg11.dtd">
<!-- Generated by graphviz version 2.40.1 (20161225.0304)
 -->
<!-- Title: RobotInterface/YarpImplementation/src/YarpSensorBridge.cpp Pages: 1 -->
<!--zoomable 497 -->
<svg id="main" version="1.1" xmlns="http://www.w3.org/2000/svg" xmlns:xlink="http://www.w3.org/1999/xlink" xml:space="preserve" onload="init(evt)">
<style type="text/css"><![CDATA[
.edge:hover path { stroke: red; }
.edge:hover polygon { stroke: red; fill: red; }
]]></style>
<script type="text/javascript"><![CDATA[
var edges = document.getElementsByTagName('g');
if (edges && edges.length) {
  for (var i=0;i<edges.length;i++) {
    if (edges[i].id.substr(0,4)=='edge') {
      edges[i].setAttribute('class','edge');
    }
  }
}
]]></script>
        <defs>
                <circle id="rim" cx="0" cy="0" r="7"/>
                <circle id="rim2" cx="0" cy="0" r="3.5"/>
                <g id="zoomPlus">
                        <use xlink:href="#rim" fill="#404040">
                                <set attributeName="fill" to="#808080" begin="zoomplus.mouseover" end="zoomplus.mouseout"/>
                        </use>
                        <path d="M-4,0h8M0,-4v8" fill="none" stroke="white" stroke-width="1.5" pointer-events="none"/>
                </g>
                <g id="zoomMin">
                        <use xlink:href="#rim" fill="#404040">
                                <set attributeName="fill" to="#808080" begin="zoomminus.mouseover" end="zoomminus.mouseout"/>
                        </use>
                        <path d="M-4,0h8" fill="none" stroke="white" stroke-width="1.5" pointer-events="none"/>
                </g>
                <g id="dirArrow">
                        <path fill="none" stroke="white" stroke-width="1.5" d="M0,-3.0v7 M-2.5,-0.5L0,-3.0L2.5,-0.5"/>
                </g>
               <g id="resetDef">
                       <use xlink:href="#rim2" fill="#404040">
                               <set attributeName="fill" to="#808080" begin="reset.mouseover" end="reset.mouseout"/>
                       </use>
               </g>
        </defs>

<script type="text/javascript">
var viewWidth = 2726;
var viewHeight = 497;
var sectionId = 'dynsection-0';
</script>
<script xlink:href="svgpan.js"/>
<svg id="graph" class="graph">
<g id="viewport">
<title>RobotInterface/YarpImplementation/src/YarpSensorBridge.cpp</title>
<!-- Node0 -->
<g id="node1" class="node">
<title>Node0</title>
<polygon fill="#bfbfbf" stroke="#000000" points="1761,-458.5 1761,-488.5 1932,-488.5 1932,-458.5 1761,-458.5"/>
<text text-anchor="start" x="1769" y="-476.5" font-family="Helvetica,sans-Serif" font-size="10.00" fill="#000000">RobotInterface/YarpImplementation</text>
<text text-anchor="middle" x="1846.5" y="-465.5" font-family="Helvetica,sans-Serif" font-size="10.00" fill="#000000">/src/YarpSensorBridge.cpp</text>
</g>
<!-- Node1 -->
<g id="node2" class="node">
<title>Node1</title>
<g id="a_node2"><a xlink:href="YarpSensorBridgeImpl_8h.html" target="_top" xlink:title="BipedalLocomotion/RobotInterface\l/YarpSensorBridgeImpl.h">
<polygon fill="none" stroke="#000000" points="1688,-391.5 1688,-421.5 1855,-421.5 1855,-391.5 1688,-391.5"/>
<text text-anchor="start" x="1696" y="-409.5" font-family="Helvetica,sans-Serif" font-size="10.00" fill="#000000">BipedalLocomotion/RobotInterface</text>
<text text-anchor="middle" x="1771.5" y="-398.5" font-family="Helvetica,sans-Serif" font-size="10.00" fill="#000000">/YarpSensorBridgeImpl.h</text>
</a>
</g>
</g>
<!-- Node0&#45;&gt;Node1 -->
<g id="edge1" class="edge">
<title>Node0&#45;&gt;Node1</title>
<path fill="none" stroke="#191970" d="M1829.4813,-458.2967C1819.6044,-449.4733 1806.9931,-438.2072 1796.0562,-428.4368"/>
<polygon fill="#191970" stroke="#191970" points="1798.2407,-425.6952 1788.4513,-421.6432 1793.5772,-430.9155 1798.2407,-425.6952"/>
</g>
<!-- Node36 -->
<g id="node37" class="node">
<title>Node36</title>
<polygon fill="none" stroke="#bfbfbf" points="1872.5,-397 1872.5,-416 1970.5,-416 1970.5,-397 1872.5,-397"/>
<text text-anchor="middle" x="1921.5" y="-404" font-family="Helvetica,sans-Serif" font-size="10.00" fill="#000000">yarp/eigen/Eigen.h</text>
</g>
<!-- Node0&#45;&gt;Node36 -->
<g id="edge46" class="edge">
<title>Node0&#45;&gt;Node36</title>
<path fill="none" stroke="#191970" d="M1863.5187,-458.2967C1875.3175,-447.7564 1891.0184,-433.7303 1903.1057,-422.9323"/>
<polygon fill="#191970" stroke="#191970" points="1905.6783,-425.3273 1910.8041,-416.055 1901.0147,-420.107 1905.6783,-425.3273"/>
</g>
<!-- Node2 -->
<g id="node3" class="node">
<title>Node2</title>
<g id="a_node3"><a xlink:href="YarpSensorBridge_8h.html" target="_top" xlink:title="BipedalLocomotion/RobotInterface\l/YarpSensorBridge.h">
<polygon fill="none" stroke="#000000" points="502,-324.5 502,-354.5 669,-354.5 669,-324.5 502,-324.5"/>
<text text-anchor="start" x="510" y="-342.5" font-family="Helvetica,sans-Serif" font-size="10.00" fill="#000000">BipedalLocomotion/RobotInterface</text>
<text text-anchor="middle" x="585.5" y="-331.5" font-family="Helvetica,sans-Serif" font-size="10.00" fill="#000000">/YarpSensorBridge.h</text>
</a>
</g>
</g>
<!-- Node1&#45;&gt;Node2 -->
<g id="edge2" class="edge">
<title>Node1&#45;&gt;Node2</title>
<path fill="none" stroke="#191970" d="M1687.6303,-401.762C1472.9014,-389.6314 904.4056,-357.5157 679.245,-344.7959"/>
<polygon fill="#191970" stroke="#191970" points="679.2906,-341.293 669.1091,-344.2233 678.8958,-348.2818 679.2906,-341.293"/>
</g>
<!-- Node14 -->
<g id="node15" class="node">
<title>Node14</title>
<g id="a_node15"><a xlink:href="Vector_8h_source.html" target="_top" xlink:title="BipedalLocomotion/Generic\lContainer/Vector.h">
<polygon fill="none" stroke="#000000" points="675.5,-123.5 675.5,-153.5 811.5,-153.5 811.5,-123.5 675.5,-123.5"/>
<text text-anchor="start" x="683.5" y="-141.5" font-family="Helvetica,sans-Serif" font-size="10.00" fill="#000000">BipedalLocomotion/Generic</text>
<text text-anchor="middle" x="743.5" y="-130.5" font-family="Helvetica,sans-Serif" font-size="10.00" fill="#000000">Container/Vector.h</text>
</a>
</g>
</g>
<!-- Node1&#45;&gt;Node14 -->
<g id="edge31" class="edge">
<title>Node1&#45;&gt;Node14</title>
<path fill="none" stroke="#191970" d="M1687.8359,-405.7788C1497.677,-403.4634 1045.046,-393.8863 988.5,-355 921.974,-309.2506 973.3339,-243.0844 912.5,-190 898.2861,-177.5968 858.7131,-165.2227 821.4327,-155.7135"/>
<polygon fill="#191970" stroke="#191970" points="822.0633,-152.2635 811.5131,-153.2348 820.3663,-159.0547 822.0633,-152.2635"/>
</g>
<!-- Node22 -->
<g id="node23" class="node">
<title>Node22</title>
<polygon fill="none" stroke="#bfbfbf" points="997.5,-330 997.5,-349 1079.5,-349 1079.5,-330 997.5,-330"/>
<text text-anchor="middle" x="1038.5" y="-337" font-family="Helvetica,sans-Serif" font-size="10.00" fill="#000000">yarp/os/Time.h</text>
</g>
<!-- Node1&#45;&gt;Node22 -->
<g id="edge32" class="edge">
<title>Node1&#45;&gt;Node22</title>
<path fill="none" stroke="#191970" d="M1687.7748,-402.4814C1531.7081,-394.6089 1201.9784,-376.0737 1089.5,-355 1085.0303,-354.1626 1080.3973,-353.0755 1075.8285,-351.8655"/>
<polygon fill="#191970" stroke="#191970" points="1076.5937,-348.4443 1066.0174,-349.0694 1074.6752,-355.1762 1076.5937,-348.4443"/>
</g>
<!-- Node23 -->
<g id="node24" class="node">
<title>Node23</title>
<polygon fill="none" stroke="#bfbfbf" points="1098,-330 1098,-349 1189,-349 1189,-330 1098,-330"/>
<text text-anchor="middle" x="1143.5" y="-337" font-family="Helvetica,sans-Serif" font-size="10.00" fill="#000000">yarp/sig/Vector.h</text>
</g>
<!-- Node1&#45;&gt;Node23 -->
<g id="edge33" class="edge">
<title>Node1&#45;&gt;Node23</title>
<path fill="none" stroke="#191970" d="M1687.8154,-403.8255C1575.6272,-399.1394 1370.6437,-386.7102 1198.5,-355 1193.5059,-354.0801 1188.3101,-352.9083 1183.1928,-351.6222"/>
<polygon fill="#191970" stroke="#191970" points="1184.0867,-348.2384 1173.5226,-349.0443 1182.2835,-355.0021 1184.0867,-348.2384"/>
</g>
<!-- Node24 -->
<g id="node25" class="node">
<title>Node24</title>
<polygon fill="none" stroke="#bfbfbf" points="1207,-330 1207,-349 1296,-349 1296,-330 1207,-330"/>
<text text-anchor="middle" x="1251.5" y="-337" font-family="Helvetica,sans-Serif" font-size="10.00" fill="#000000">yarp/sig/Image.h</text>
</g>
<!-- Node1&#45;&gt;Node24 -->
<g id="edge34" class="edge">
<title>Node1&#45;&gt;Node24</title>
<path fill="none" stroke="#191970" d="M1687.9378,-401.5479C1594.1748,-395.0018 1437.8612,-381.1145 1305.5,-355 1300.7842,-354.0696 1295.8829,-352.923 1291.0423,-351.6779"/>
<polygon fill="#191970" stroke="#191970" points="1291.8383,-348.2674 1281.2703,-349.0217 1290.0021,-355.0223 1291.8383,-348.2674"/>
</g>
<!-- Node25 -->
<g id="node26" class="node">
<title>Node25</title>
<polygon fill="none" stroke="#bfbfbf" points="1314,-330 1314,-349 1443,-349 1443,-330 1314,-330"/>
<text text-anchor="middle" x="1378.5" y="-337" font-family="Helvetica,sans-Serif" font-size="10.00" fill="#000000">yarp/dev/IAnalogSensor.h</text>
</g>
<!-- Node1&#45;&gt;Node25 -->
<g id="edge35" class="edge">
<title>Node1&#45;&gt;Node25</title>
<path fill="none" stroke="#191970" d="M1687.6959,-394.0578C1623.2507,-384.227 1532.0677,-369.7477 1452.5,-355 1445.9098,-353.7785 1439.0044,-352.4276 1432.1719,-351.0476"/>
<polygon fill="#191970" stroke="#191970" points="1432.7577,-347.595 1422.2587,-349.0164 1431.3526,-354.4525 1432.7577,-347.595"/>
</g>
<!-- Node26 -->
<g id="node27" class="node">
<title>Node26</title>
<polygon fill="none" stroke="#bfbfbf" points="1461,-330 1461,-349 1594,-349 1594,-330 1461,-330"/>
<text text-anchor="middle" x="1527.5" y="-337" font-family="Helvetica,sans-Serif" font-size="10.00" fill="#000000">yarp/dev/IGenericSensor.h</text>
</g>
<!-- Node1&#45;&gt;Node26 -->
<g id="edge36" class="edge">
<title>Node1&#45;&gt;Node26</title>
<path fill="none" stroke="#191970" d="M1716.7416,-391.4639C1672.9977,-379.4522 1612.4811,-362.835 1571.7637,-351.6544"/>
<polygon fill="#191970" stroke="#191970" points="1572.6861,-348.2782 1562.1163,-349.0053 1570.8325,-355.0283 1572.6861,-348.2782"/>
</g>
<!-- Node27 -->
<g id="node28" class="node">
<title>Node27</title>
<polygon fill="none" stroke="#bfbfbf" points="1612,-324.5 1612,-354.5 1769,-354.5 1769,-324.5 1612,-324.5"/>
<text text-anchor="start" x="1620" y="-342.5" font-family="Helvetica,sans-Serif" font-size="10.00" fill="#000000">yarp/dev/MultipleAnalogSensors</text>
<text text-anchor="middle" x="1690.5" y="-331.5" font-family="Helvetica,sans-Serif" font-size="10.00" fill="#000000">Interfaces.h</text>
</g>
<!-- Node1&#45;&gt;Node27 -->
<g id="edge37" class="edge">
<title>Node1&#45;&gt;Node27</title>
<path fill="none" stroke="#191970" d="M1753.1198,-391.2967C1742.3492,-382.3876 1728.5678,-370.9882 1716.6771,-361.1527"/>
<polygon fill="#191970" stroke="#191970" points="1718.7438,-358.32 1708.8074,-354.6432 1714.2822,-363.7139 1718.7438,-358.32"/>
</g>
<!-- Node28 -->
<g id="node29" class="node">
<title>Node28</title>
<polygon fill="none" stroke="#bfbfbf" points="1787.5,-330 1787.5,-349 1919.5,-349 1919.5,-330 1787.5,-330"/>
<text text-anchor="middle" x="1853.5" y="-337" font-family="Helvetica,sans-Serif" font-size="10.00" fill="#000000">yarp/dev/ICurrentControl.h</text>
</g>
<!-- Node1&#45;&gt;Node28 -->
<g id="edge38" class="edge">
<title>Node1&#45;&gt;Node28</title>
<path fill="none" stroke="#191970" d="M1790.1071,-391.2967C1803.1311,-380.6551 1820.5039,-366.4602 1833.769,-355.6217"/>
<polygon fill="#191970" stroke="#191970" points="1836.2766,-358.0926 1841.8059,-349.055 1831.8475,-352.6719 1836.2766,-358.0926"/>
</g>
<!-- Node29 -->
<g id="node30" class="node">
<title>Node29</title>
<polygon fill="none" stroke="#bfbfbf" points="1938,-330 1938,-349 2109,-349 2109,-330 1938,-330"/>
<text text-anchor="middle" x="2023.5" y="-337" font-family="Helvetica,sans-Serif" font-size="10.00" fill="#000000">yarp/dev/FrameGrabberInterfaces.h</text>
</g>
<!-- Node1&#45;&gt;Node29 -->
<g id="edge39" class="edge">
<title>Node1&#45;&gt;Node29</title>
<path fill="none" stroke="#191970" d="M1828.0537,-391.4639C1873.3274,-379.4269 1935.997,-362.7647 1978.0515,-351.5835"/>
<polygon fill="#191970" stroke="#191970" points="1978.9839,-354.9573 1987.7488,-349.0053 1977.1852,-348.1923 1978.9839,-354.9573"/>
</g>
<!-- Node30 -->
<g id="node31" class="node">
<title>Node30</title>
<polygon fill="none" stroke="#bfbfbf" points="2127.5,-330 2127.5,-349 2255.5,-349 2255.5,-330 2127.5,-330"/>
<text text-anchor="middle" x="2191.5" y="-337" font-family="Helvetica,sans-Serif" font-size="10.00" fill="#000000">yarp/dev/IRGBDSensor.h</text>
</g>
<!-- Node1&#45;&gt;Node30 -->
<g id="edge40" class="edge">
<title>Node1&#45;&gt;Node30</title>
<path fill="none" stroke="#191970" d="M1855.2216,-392.2974C1858.0134,-391.8549 1860.7789,-391.4212 1863.5,-391 1976.61,-373.4907 2005.7857,-374.8981 2118.5,-355 2125.1864,-353.8196 2132.1945,-352.4729 2139.1123,-351.0775"/>
<polygon fill="#191970" stroke="#191970" points="2140.0474,-354.4584 2149.1351,-349.0119 2138.6344,-347.6025 2140.0474,-354.4584"/>
</g>
<!-- Node31 -->
<g id="node32" class="node">
<title>Node31</title>
<polygon fill="none" stroke="#bfbfbf" points="2274,-330 2274,-349 2411,-349 2411,-330 2274,-330"/>
<text text-anchor="middle" x="2342.5" y="-337" font-family="Helvetica,sans-Serif" font-size="10.00" fill="#000000">yarp/dev/IEncodersTimed.h</text>
</g>
<!-- Node1&#45;&gt;Node31 -->
<g id="edge41" class="edge">
<title>Node1&#45;&gt;Node31</title>
<path fill="none" stroke="#191970" d="M1855.1959,-392.1166C1857.9951,-391.7258 1860.7691,-391.3521 1863.5,-391 2040.97,-368.1187 2087.3836,-380.4744 2264.5,-355 2272.4667,-353.8542 2280.85,-352.4264 2289.0468,-350.9045"/>
<polygon fill="#191970" stroke="#191970" points="2289.7497,-354.3336 2298.9123,-349.0141 2288.4322,-347.4587 2289.7497,-354.3336"/>
</g>
<!-- Node32 -->
<g id="node33" class="node">
<title>Node32</title>
<polygon fill="none" stroke="#bfbfbf" points="2429.5,-330 2429.5,-349 2533.5,-349 2533.5,-330 2429.5,-330"/>
<text text-anchor="middle" x="2481.5" y="-337" font-family="Helvetica,sans-Serif" font-size="10.00" fill="#000000">yarp/dev/IAxisInfo.h</text>
</g>
<!-- Node1&#45;&gt;Node32 -->
<g id="edge42" class="edge">
<title>Node1&#45;&gt;Node32</title>
<path fill="none" stroke="#191970" d="M1855.185,-392.0273C1857.9873,-391.662 1860.7649,-391.3179 1863.5,-391 2109.9128,-362.3555 2175.4669,-393.7109 2420.5,-355 2426.3771,-354.0715 2432.5139,-352.8367 2438.534,-351.468"/>
<polygon fill="#191970" stroke="#191970" points="2439.5875,-354.8144 2448.4889,-349.0684 2437.9471,-348.0093 2439.5875,-354.8144"/>
</g>
<!-- Node33 -->
<g id="node34" class="node">
<title>Node33</title>
<polygon fill="none" stroke="#bfbfbf" points="2551.5,-330 2551.5,-349 2595.5,-349 2595.5,-330 2551.5,-330"/>
<text text-anchor="middle" x="2573.5" y="-337" font-family="Helvetica,sans-Serif" font-size="10.00" fill="#000000">cmath</text>
</g>
<!-- Node1&#45;&gt;Node33 -->
<g id="edge43" class="edge">
<title>Node1&#45;&gt;Node33</title>
<path fill="none" stroke="#191970" d="M1855.1803,-391.9859C1857.984,-391.6325 1860.7631,-391.3021 1863.5,-391 2013.6886,-374.4214 2396.4122,-393.598 2542.5,-355 2544.4198,-354.4928 2546.3598,-353.8587 2548.2828,-353.1391"/>
<polygon fill="#191970" stroke="#191970" points="2549.8605,-356.2682 2557.5852,-349.017 2547.0246,-349.8684 2549.8605,-356.2682"/>
</g>
<!-- Node34 -->
<g id="node35" class="node">
<title>Node34</title>
<polygon fill="none" stroke="#bfbfbf" points="2613.5,-330 2613.5,-349 2643.5,-349 2643.5,-330 2613.5,-330"/>
<text text-anchor="middle" x="2628.5" y="-337" font-family="Helvetica,sans-Serif" font-size="10.00" fill="#000000">set</text>
</g>
<!-- Node1&#45;&gt;Node34 -->
<g id="edge44" class="edge">
<title>Node1&#45;&gt;Node34</title>
<path fill="none" stroke="#191970" d="M1855.1786,-391.9701C1857.9827,-391.6212 1860.7624,-391.2961 1863.5,-391 2027.4052,-373.2742 2447.5474,-405.4481 2604.5,-355 2605.5389,-354.6661 2606.5764,-354.2751 2607.6052,-353.8393"/>
<polygon fill="#191970" stroke="#191970" points="2609.3161,-356.893 2616.427,-349.0389 2605.9703,-350.7444 2609.3161,-356.893"/>
</g>
<!-- Node35 -->
<g id="node36" class="node">
<title>Node35</title>
<polygon fill="none" stroke="#bfbfbf" points="2661.5,-330 2661.5,-349 2717.5,-349 2717.5,-330 2661.5,-330"/>
<text text-anchor="middle" x="2689.5" y="-337" font-family="Helvetica,sans-Serif" font-size="10.00" fill="#000000">algorithm</text>
</g>
<!-- Node1&#45;&gt;Node35 -->
<g id="edge45" class="edge">
<title>Node1&#45;&gt;Node35</title>
<path fill="none" stroke="#191970" d="M1855.1774,-391.9596C1857.9819,-391.6136 1860.762,-391.292 1863.5,-391 2212.5518,-353.7719 2310.0178,-432.0001 2652.5,-355 2655.3029,-354.3698 2658.1632,-353.5403 2660.9895,-352.592"/>
<polygon fill="#191970" stroke="#191970" points="2662.2395,-355.8613 2670.3359,-349.0276 2659.7451,-349.3208 2662.2395,-355.8613"/>
</g>
<!-- Node3 -->
<g id="node4" class="node">
<title>Node3</title>
<polygon fill="none" stroke="#bfbfbf" points="914,-62 914,-81 973,-81 973,-62 914,-62"/>
<text text-anchor="middle" x="943.5" y="-69" font-family="Helvetica,sans-Serif" font-size="10.00" fill="#000000">functional</text>
</g>
<!-- Node2&#45;&gt;Node3 -->
<g id="edge3" class="edge">
<title>Node2&#45;&gt;Node3</title>
<path fill="none" stroke="#191970" d="M649.1829,-324.499C734.2019,-303.1722 878.105,-262.0964 912.5,-221 943.8642,-183.5249 946.1315,-122.4916 944.9443,-91.2665"/>
<polygon fill="#191970" stroke="#191970" points="948.4354,-91.0054 944.3981,-81.21 941.4457,-91.3851 948.4354,-91.0054"/>
</g>
<!-- Node4 -->
<g id="node5" class="node">
<title>Node4</title>
<polygon fill="none" stroke="#bfbfbf" points="410.5,-62 410.5,-81 462.5,-81 462.5,-62 410.5,-62"/>
<text text-anchor="middle" x="436.5" y="-69" font-family="Helvetica,sans-Serif" font-size="10.00" fill="#000000">memory</text>
</g>
<!-- Node2&#45;&gt;Node4 -->
<g id="edge4" class="edge">
<title>Node2&#45;&gt;Node4</title>
<path fill="none" stroke="#191970" d="M501.9366,-325.2848C442.3948,-310.3208 366.4439,-280.2787 328.5,-221 295.9225,-170.1051 370.0743,-113.0002 411.2963,-86.5021"/>
<polygon fill="#191970" stroke="#191970" points="413.4098,-89.308 420.0236,-81.031 409.6918,-83.377 413.4098,-89.308"/>
</g>
<!-- Node5 -->
<g id="node6" class="node">
<title>Node5</title>
<polygon fill="none" stroke="#bfbfbf" points="853.5,-196 853.5,-215 903.5,-215 903.5,-196 853.5,-196"/>
<text text-anchor="middle" x="878.5" y="-203" font-family="Helvetica,sans-Serif" font-size="10.00" fill="#000000">optional</text>
</g>
<!-- Node2&#45;&gt;Node5 -->
<g id="edge5" class="edge">
<title>Node2&#45;&gt;Node5</title>
<path fill="none" stroke="#191970" d="M618.5413,-324.389C675.8624,-298.1738 792.894,-244.6509 848.2267,-219.3451"/>
<polygon fill="#191970" stroke="#191970" points="849.8615,-222.4462 857.4998,-215.1042 846.9501,-216.0804 849.8615,-222.4462"/>
</g>
<!-- Node6 -->
<g id="node7" class="node">
<title>Node6</title>
<polygon fill="none" stroke="#bfbfbf" points="0,-263 0,-282 127,-282 127,-263 0,-263"/>
<text text-anchor="middle" x="63.5" y="-270" font-family="Helvetica,sans-Serif" font-size="10.00" fill="#000000">yarp/dev/PolyDriverList.h</text>
</g>
<!-- Node2&#45;&gt;Node6 -->
<g id="edge6" class="edge">
<title>Node2&#45;&gt;Node6</title>
<path fill="none" stroke="#191970" d="M501.5917,-332.2778C411.1452,-323.9334 263.1124,-308.655 136.5,-288 129.6269,-286.8788 122.4219,-285.5451 115.3273,-284.1375"/>
<polygon fill="#191970" stroke="#191970" points="115.562,-280.6132 105.0635,-282.0387 114.1595,-287.4712 115.562,-280.6132"/>
</g>
<!-- Node7 -->
<g id="node8" class="node">
<title>Node7</title>
<g id="a_node8"><a xlink:href="Advanceable_8h.html" target="_top" xlink:title="BipedalLocomotion/System\l/Advanceable.h">
<polygon fill="none" stroke="#000000" points="145.5,-257.5 145.5,-287.5 281.5,-287.5 281.5,-257.5 145.5,-257.5"/>
<text text-anchor="start" x="153.5" y="-275.5" font-family="Helvetica,sans-Serif" font-size="10.00" fill="#000000">BipedalLocomotion/System</text>
<text text-anchor="middle" x="213.5" y="-264.5" font-family="Helvetica,sans-Serif" font-size="10.00" fill="#000000">/Advanceable.h</text>
</a>
</g>
</g>
<!-- Node2&#45;&gt;Node7 -->
<g id="edge7" class="edge">
<title>Node2&#45;&gt;Node7</title>
<path fill="none" stroke="#191970" d="M501.6988,-324.8708C443.7578,-314.6941 364.9098,-300.7228 295.5,-288 294.2174,-287.7649 292.9237,-287.5272 291.6212,-287.2873"/>
<polygon fill="#191970" stroke="#191970" points="291.9723,-283.7929 281.5022,-285.414 290.698,-290.676 291.9723,-283.7929"/>
</g>
<!-- Node8 -->
<g id="node9" class="node">
<title>Node8</title>
<g id="a_node9"><a xlink:href="ISensorBridge_8h.html" target="_top" xlink:title="BipedalLocomotion/RobotInterface\l/ISensorBridge.h">
<polygon fill="none" stroke="#000000" points="502,-257.5 502,-287.5 669,-287.5 669,-257.5 502,-257.5"/>
<text text-anchor="start" x="510" y="-275.5" font-family="Helvetica,sans-Serif" font-size="10.00" fill="#000000">BipedalLocomotion/RobotInterface</text>
<text text-anchor="middle" x="585.5" y="-264.5" font-family="Helvetica,sans-Serif" font-size="10.00" fill="#000000">/ISensorBridge.h</text>
</a>
</g>
</g>
<!-- Node2&#45;&gt;Node8 -->
<g id="edge8" class="edge">
<title>Node2&#45;&gt;Node8</title>
<path fill="none" stroke="#191970" d="M585.5,-324.2967C585.5,-316.5013 585.5,-306.7991 585.5,-297.9064"/>
<polygon fill="#191970" stroke="#191970" points="589.0001,-297.6431 585.5,-287.6432 582.0001,-297.6432 589.0001,-297.6431"/>
</g>
<!-- Node8&#45;&gt;Node3 -->
<g id="edge9" class="edge">
<title>Node8&#45;&gt;Node3</title>
<path fill="none" stroke="#191970" d="M669.2623,-258.2894C721.5475,-248.4102 783.202,-234.6186 806.5,-221 836.3398,-203.5575 901.0053,-124.917 929.5161,-89.2217"/>
<polygon fill="#191970" stroke="#191970" points="932.4608,-91.1418 935.9424,-81.1353 926.9806,-86.7866 932.4608,-91.1418"/>
</g>
<!-- Node8&#45;&gt;Node4 -->
<g id="edge10" class="edge">
<title>Node8&#45;&gt;Node4</title>
<path fill="none" stroke="#191970" d="M545.038,-257.3392C527.2217,-248.9417 507.2589,-236.9311 493.5,-221 460.0277,-182.2432 445.2044,-121.7742 439.5292,-90.9654"/>
<polygon fill="#191970" stroke="#191970" points="442.9696,-90.3191 437.8347,-81.0518 436.0697,-91.4986 442.9696,-90.3191"/>
</g>
<!-- Node8&#45;&gt;Node5 -->
<g id="edge11" class="edge">
<title>Node8&#45;&gt;Node5</title>
<path fill="none" stroke="#191970" d="M669.068,-259.4246C719.0603,-250.6494 783.5435,-237.6475 839.5,-221 841.9442,-220.2728 844.4491,-219.4548 846.9523,-218.5843"/>
<polygon fill="#191970" stroke="#191970" points="848.3129,-221.8126 856.4673,-215.0482 845.8744,-215.251 848.3129,-221.8126"/>
</g>
<!-- Node9 -->
<g id="node10" class="node">
<title>Node9</title>
<polygon fill="none" stroke="#bfbfbf" points="540,-129 540,-148 581,-148 581,-129 540,-129"/>
<text text-anchor="middle" x="560.5" y="-136" font-family="Helvetica,sans-Serif" font-size="10.00" fill="#000000">string</text>
</g>
<!-- Node8&#45;&gt;Node9 -->
<g id="edge12" class="edge">
<title>Node8&#45;&gt;Node9</title>
<path fill="none" stroke="#191970" d="M592.0944,-257.2524C598.4151,-240.429 605.9769,-212.7261 598.5,-190 594.2564,-177.1016 585.4052,-164.7822 577.3124,-155.4282"/>
<polygon fill="#191970" stroke="#191970" points="579.8683,-153.0369 570.5305,-148.0313 574.7087,-157.7675 579.8683,-153.0369"/>
</g>
<!-- Node10 -->
<g id="node11" class="node">
<title>Node10</title>
<polygon fill="none" stroke="#bfbfbf" points="338,-196 338,-215 421,-215 421,-196 338,-196"/>
<text text-anchor="middle" x="379.5" y="-203" font-family="Helvetica,sans-Serif" font-size="10.00" fill="#000000">unordered_map</text>
</g>
<!-- Node8&#45;&gt;Node10 -->
<g id="edge13" class="edge">
<title>Node8&#45;&gt;Node10</title>
<path fill="none" stroke="#191970" d="M539.2696,-257.4639C502.8848,-245.63 452.7555,-229.3258 418.4073,-218.1543"/>
<polygon fill="#191970" stroke="#191970" points="419.3174,-214.7699 408.7252,-215.0053 417.1523,-221.4267 419.3174,-214.7699"/>
</g>
<!-- Node11 -->
<g id="node12" class="node">
<title>Node11</title>
<polygon fill="none" stroke="#bfbfbf" points="477.5,-129 477.5,-148 521.5,-148 521.5,-129 477.5,-129"/>
<text text-anchor="middle" x="499.5" y="-136" font-family="Helvetica,sans-Serif" font-size="10.00" fill="#000000">vector</text>
</g>
<!-- Node8&#45;&gt;Node11 -->
<g id="edge14" class="edge">
<title>Node8&#45;&gt;Node11</title>
<path fill="none" stroke="#191970" d="M549.3391,-257.3901C533.8435,-249.0033 517.1256,-236.987 507.5,-221 496.0596,-201.999 495.4951,-175.9728 496.8574,-158.2682"/>
<polygon fill="#191970" stroke="#191970" points="500.3486,-158.5343 497.9052,-148.2251 493.3864,-157.8079 500.3486,-158.5343"/>
</g>
<!-- Node12 -->
<g id="node13" class="node">
<title>Node12</title>
<polygon fill="none" stroke="#bfbfbf" points="516,-196 516,-215 589,-215 589,-196 516,-196"/>
<text text-anchor="middle" x="552.5" y="-203" font-family="Helvetica,sans-Serif" font-size="10.00" fill="#000000">Eigen/Dense</text>
</g>
<!-- Node8&#45;&gt;Node12 -->
<g id="edge15" class="edge">
<title>Node8&#45;&gt;Node12</title>
<path fill="none" stroke="#191970" d="M578.0118,-257.2967C573.1697,-247.4658 566.8341,-234.6026 561.688,-224.1545"/>
<polygon fill="#191970" stroke="#191970" points="564.7645,-222.4794 557.2062,-215.055 558.4849,-225.5724 564.7645,-222.4794"/>
</g>
<!-- Node13 -->
<g id="node14" class="node">
<title>Node13</title>
<g id="a_node14"><a xlink:href="IParametersHandler_8h.html" target="_top" xlink:title="BipedalLocomotion/Parameters\lHandler/IParametersHandler.h">
<polygon fill="none" stroke="#000000" points="645.5,-190.5 645.5,-220.5 797.5,-220.5 797.5,-190.5 645.5,-190.5"/>
<text text-anchor="start" x="653.5" y="-208.5" font-family="Helvetica,sans-Serif" font-size="10.00" fill="#000000">BipedalLocomotion/Parameters</text>
<text text-anchor="middle" x="721.5" y="-197.5" font-family="Helvetica,sans-Serif" font-size="10.00" fill="#000000">Handler/IParametersHandler.h</text>
</a>
</g>
</g>
<!-- Node8&#45;&gt;Node13 -->
<g id="edge16" class="edge">
<title>Node8&#45;&gt;Node13</title>
<path fill="none" stroke="#191970" d="M616.0211,-257.4639C635.3955,-247.9191 660.673,-235.4663 681.6257,-225.144"/>
<polygon fill="#191970" stroke="#191970" points="683.1865,-228.2768 690.6103,-220.7177 680.093,-221.9974 683.1865,-228.2768"/>
</g>
<!-- Node13&#45;&gt;Node4 -->
<g id="edge17" class="edge">
<title>Node13&#45;&gt;Node4</title>
<path fill="none" stroke="#191970" d="M687.5278,-190.4559C668.0371,-181.1495 643.5371,-168.2745 623.5,-154 607.1106,-142.3241 607.9234,-133.0679 590.5,-123 542.6569,-95.3545 523.3043,-106.2237 471.5,-87 469.8723,-86.396 468.2123,-85.7538 466.5436,-85.0876"/>
<polygon fill="#191970" stroke="#191970" points="467.6299,-81.7479 457.0545,-81.1067 464.9219,-88.2029 467.6299,-81.7479"/>
</g>
<!-- Node13&#45;&gt;Node9 -->
<g id="edge18" class="edge">
<title>Node13&#45;&gt;Node9</title>
<path fill="none" stroke="#191970" d="M683.8913,-190.4588C658.7836,-180.3361 625.0713,-166.5882 595.5,-154 593.9026,-153.32 592.2666,-152.6173 590.6168,-151.9038"/>
<polygon fill="#191970" stroke="#191970" points="591.7496,-148.5792 581.185,-147.7788 588.9446,-154.9926 591.7496,-148.5792"/>
</g>
<!-- Node13&#45;&gt;Node11 -->
<g id="edge19" class="edge">
<title>Node13&#45;&gt;Node11</title>
<path fill="none" stroke="#191970" d="M654.1517,-190.4923C617.3813,-181.4928 571.3537,-168.9047 531.5,-154 530.0907,-153.4729 528.6596,-152.9057 527.2237,-152.3108"/>
<polygon fill="#191970" stroke="#191970" points="528.4141,-149.0089 517.8572,-148.1138 525.5518,-155.3969 528.4141,-149.0089"/>
</g>
<!-- Node13&#45;&gt;Node14 -->
<g id="edge20" class="edge">
<title>Node13&#45;&gt;Node14</title>
<path fill="none" stroke="#191970" d="M726.4921,-190.2967C729.1081,-182.3299 732.3779,-172.3718 735.3497,-163.3213"/>
<polygon fill="#191970" stroke="#191970" points="738.7332,-164.236 738.5276,-153.6432 732.0825,-162.0522 738.7332,-164.236"/>
</g>
<!-- Node16 -->
<g id="node17" class="node">
<title>Node16</title>
<g id="a_node17"><a xlink:href="TemplateHelpers_8h_source.html" target="_top" xlink:title="BipedalLocomotion/Generic\lContainer/TemplateHelpers.h">
<polygon fill="none" stroke="#000000" points="480.5,-56.5 480.5,-86.5 624.5,-86.5 624.5,-56.5 480.5,-56.5"/>
<text text-anchor="start" x="488.5" y="-74.5" font-family="Helvetica,sans-Serif" font-size="10.00" fill="#000000">BipedalLocomotion/Generic</text>
<text text-anchor="middle" x="552.5" y="-63.5" font-family="Helvetica,sans-Serif" font-size="10.00" fill="#000000">Container/TemplateHelpers.h</text>
</a>
</g>
</g>
<!-- Node13&#45;&gt;Node16 -->
<g id="edge30" class="edge">
<title>Node13&#45;&gt;Node16</title>
<path fill="none" stroke="#191970" d="M704.1124,-190.2063C684.7627,-173.3424 652.4075,-145.6042 623.5,-123 610.3422,-112.7113 595.4254,-101.7848 582.6724,-92.6558"/>
<polygon fill="#191970" stroke="#191970" points="584.4141,-89.5995 574.2373,-86.6529 580.3553,-95.3028 584.4141,-89.5995"/>
</g>
<!-- Node14&#45;&gt;Node3 -->
<g id="edge26" class="edge">
<title>Node14&#45;&gt;Node3</title>
<path fill="none" stroke="#191970" d="M794.5609,-123.4061C826.6294,-113.6462 868.7346,-100.3183 905.5,-87 907.359,-86.3266 909.2614,-85.6171 911.1761,-84.8871"/>
<polygon fill="#191970" stroke="#191970" points="912.6804,-88.0566 920.7065,-81.1405 910.1192,-81.5419 912.6804,-88.0566"/>
</g>
<!-- Node14&#45;&gt;Node4 -->
<g id="edge29" class="edge">
<title>Node14&#45;&gt;Node4</title>
<path fill="none" stroke="#191970" d="M675.3758,-130.0326C619.7103,-122.0641 539.4112,-108.1571 471.5,-87 469.3864,-86.3415 467.2302,-85.592 465.0783,-84.7862"/>
<polygon fill="#191970" stroke="#191970" points="466.3978,-81.5444 455.8169,-81.0015 463.7498,-88.0243 466.3978,-81.5444"/>
</g>
<!-- Node15 -->
<g id="node16" class="node">
<title>Node15</title>
<polygon fill="none" stroke="#bfbfbf" points="714.5,-62 714.5,-81 828.5,-81 828.5,-62 714.5,-62"/>
<text text-anchor="middle" x="771.5" y="-69" font-family="Helvetica,sans-Serif" font-size="10.00" fill="#000000">iDynTree/Core/Span.h</text>
</g>
<!-- Node14&#45;&gt;Node15 -->
<g id="edge21" class="edge">
<title>Node14&#45;&gt;Node15</title>
<path fill="none" stroke="#191970" d="M749.8536,-123.2967C753.9197,-113.5672 759.227,-100.8675 763.5687,-90.4784"/>
<polygon fill="#191970" stroke="#191970" points="766.8802,-91.6313 767.5069,-81.055 760.4215,-88.9321 766.8802,-91.6313"/>
</g>
<!-- Node14&#45;&gt;Node16 -->
<g id="edge22" class="edge">
<title>Node14&#45;&gt;Node16</title>
<path fill="none" stroke="#191970" d="M700.6359,-123.4639C672.3508,-113.5419 635.1072,-100.4774 605.0404,-89.9304"/>
<polygon fill="#191970" stroke="#191970" points="606.1459,-86.6092 595.5511,-86.6017 603.8288,-93.2146 606.1459,-86.6092"/>
</g>
<!-- Node20 -->
<g id="node21" class="node">
<title>Node20</title>
<polygon fill="none" stroke="#bfbfbf" points="847,-62 847,-81 896,-81 896,-62 847,-62"/>
<text text-anchor="middle" x="871.5" y="-69" font-family="Helvetica,sans-Serif" font-size="10.00" fill="#000000">cassert</text>
</g>
<!-- Node14&#45;&gt;Node20 -->
<g id="edge27" class="edge">
<title>Node14&#45;&gt;Node20</title>
<path fill="none" stroke="#191970" d="M772.2257,-123.4639C793.7025,-112.2222 822.8862,-96.9463 844.0495,-85.8686"/>
<polygon fill="#191970" stroke="#191970" points="845.9157,-88.8423 853.1522,-81.1039 842.6694,-82.6406 845.9157,-88.8423"/>
</g>
<!-- Node21 -->
<g id="node22" class="node">
<title>Node21</title>
<polygon fill="none" stroke="#bfbfbf" points="642.5,-62 642.5,-81 696.5,-81 696.5,-62 642.5,-62"/>
<text text-anchor="middle" x="669.5" y="-69" font-family="Helvetica,sans-Serif" font-size="10.00" fill="#000000">iostream</text>
</g>
<!-- Node14&#45;&gt;Node21 -->
<g id="edge28" class="edge">
<title>Node14&#45;&gt;Node21</title>
<path fill="none" stroke="#191970" d="M726.7083,-123.2967C715.0668,-112.7564 699.5752,-98.7303 687.6491,-87.9323"/>
<polygon fill="#191970" stroke="#191970" points="689.8154,-85.1722 680.0533,-81.055 685.1171,-90.3613 689.8154,-85.1722"/>
</g>
<!-- Node17 -->
<g id="node18" class="node">
<title>Node17</title>
<polygon fill="none" stroke="#bfbfbf" points="439.5,-.5 439.5,-19.5 501.5,-19.5 501.5,-.5 439.5,-.5"/>
<text text-anchor="middle" x="470.5" y="-7.5" font-family="Helvetica,sans-Serif" font-size="10.00" fill="#000000">type_traits</text>
</g>
<!-- Node16&#45;&gt;Node17 -->
<g id="edge23" class="edge">
<title>Node16&#45;&gt;Node17</title>
<path fill="none" stroke="#191970" d="M532.2303,-56.2977C519.8994,-47.0495 504.1734,-35.2551 491.6803,-25.8853"/>
<polygon fill="#191970" stroke="#191970" points="493.7293,-23.047 483.6292,-19.8469 489.5292,-28.647 493.7293,-23.047"/>
</g>
<!-- Node18 -->
<g id="node19" class="node">
<title>Node18</title>
<polygon fill="none" stroke="#bfbfbf" points="519.5,-.5 519.5,-19.5 585.5,-19.5 585.5,-.5 519.5,-.5"/>
<text text-anchor="middle" x="552.5" y="-7.5" font-family="Helvetica,sans-Serif" font-size="10.00" fill="#000000">string_view</text>
</g>
<!-- Node16&#45;&gt;Node18 -->
<g id="edge24" class="edge">
<title>Node16&#45;&gt;Node18</title>
<path fill="none" stroke="#191970" d="M552.5,-56.2977C552.5,-48.3834 552.5,-38.6043 552.5,-30.0759"/>
<polygon fill="#191970" stroke="#191970" points="556.0001,-29.8469 552.5,-19.8469 549.0001,-29.847 556.0001,-29.8469"/>
</g>
<!-- Node19 -->
<g id="node20" class="node">
<title>Node19</title>
<polygon fill="none" stroke="#bfbfbf" points="604,-.5 604,-19.5 669,-19.5 669,-.5 604,-.5"/>
<text text-anchor="middle" x="636.5" y="-7.5" font-family="Helvetica,sans-Serif" font-size="10.00" fill="#000000">Eigen/Core</text>
</g>
<!-- Node16&#45;&gt;Node19 -->
<g id="edge25" class="edge">
<title>Node16&#45;&gt;Node19</title>
<path fill="none" stroke="#191970" d="M573.2641,-56.2977C585.8958,-47.0495 602.0053,-35.2551 614.8031,-25.8853"/>
<polygon fill="#191970" stroke="#191970" points="617.0495,-28.5784 623.0505,-19.8469 612.9143,-22.9303 617.0495,-28.5784"/>
</g>
</g>
</svg>
        <g id="navigator" transform="translate(0 0)" fill="#404254">
                <rect fill="#f2f5e9" fill-opacity="0.5" stroke="#606060" stroke-width=".5" x="0" y="0" width="60" height="60"/>
                <use id="zoomplus" xlink:href="#zoomPlus" x="17" y="9" onmousedown="handleZoom(evt,'in')"/>
                <use id="zoomminus" xlink:href="#zoomMin" x="42" y="9" onmousedown="handleZoom(evt,'out')"/>
                <use id="reset" xlink:href="#resetDef" x="30" y="36" onmousedown="handleReset()"/>
                <g id="arrowUp" xlink:href="#dirArrow" transform="translate(30 24)" onmousedown="handlePan(0,-1)">
                  <use xlink:href="#rim" fill="#404040">
                        <set attributeName="fill" to="#808080" begin="arrowUp.mouseover" end="arrowUp.mouseout"/>
                  </use>
                  <path fill="none" stroke="white" stroke-width="1.5" d="M0,-3.0v7 M-2.5,-0.5L0,-3.0L2.5,-0.5"/>
                </g>
                <g id="arrowRight" xlink:href="#dirArrow" transform="rotate(90) translate(36 -43)" onmousedown="handlePan(1,0)">
                  <use xlink:href="#rim" fill="#404040">
                        <set attributeName="fill" to="#808080" begin="arrowRight.mouseover" end="arrowRight.mouseout"/>
                  </use>
                  <path fill="none" stroke="white" stroke-width="1.5" d="M0,-3.0v7 M-2.5,-0.5L0,-3.0L2.5,-0.5"/>
                </g>
                <g id="arrowDown" xlink:href="#dirArrow" transform="rotate(180) translate(-30 -48)" onmousedown="handlePan(0,1)">
                  <use xlink:href="#rim" fill="#404040">
                        <set attributeName="fill" to="#808080" begin="arrowDown.mouseover" end="arrowDown.mouseout"/>
                  </use>
                  <path fill="none" stroke="white" stroke-width="1.5" d="M0,-3.0v7 M-2.5,-0.5L0,-3.0L2.5,-0.5"/>
                </g>
                <g id="arrowLeft" xlink:href="#dirArrow" transform="rotate(270) translate(-36 17)" onmousedown="handlePan(-1,0)">
                  <use xlink:href="#rim" fill="#404040">
                        <set attributeName="fill" to="#808080" begin="arrowLeft.mouseover" end="arrowLeft.mouseout"/>
                  </use>
                  <path fill="none" stroke="white" stroke-width="1.5" d="M0,-3.0v7 M-2.5,-0.5L0,-3.0L2.5,-0.5"/>
                </g>
        </g>
        <svg viewBox="0 0 15 15" width="100%" height="30px" preserveAspectRatio="xMaxYMin meet">
         <g id="arrow_out" transform="scale(0.3 0.3)">
          <a xlink:href="YarpSensorBridge_8cpp__incl_org.svg" target="_base">
           <rect id="button" ry="5" rx="5" y="6" x="6" height="38" width="38"
                fill="#f2f5e9" fill-opacity="0.5" stroke="#606060" stroke-width="1.0"/>
           <path id="arrow"
             d="M 11.500037,31.436501 C 11.940474,20.09759 22.043105,11.32322 32.158766,21.979434 L 37.068811,17.246167 C 37.068811,17.246167 37.088388,32 37.088388,32 L 22.160133,31.978069 C 22.160133,31.978069 26.997745,27.140456 26.997745,27.140456 C 18.528582,18.264221 13.291696,25.230495 11.500037,31.436501 z"
             style="fill:#404040;"/>
          </a>
         </g>
        </svg>
</svg>
