<?xml version="1.0" encoding="UTF-8" standalone="no"?>
<!DOCTYPE svg PUBLIC "-//W3C//DTD SVG 1.1//EN"
 "http://www.w3.org/Graphics/SVG/1.1/DTD/svg11.dtd">
<!-- Generated by graphviz version 2.40.1 (20161225.0304)
 -->
<!-- Title: ParametersHandler/YarpImplementation/include/BipedalLocomotion/ParametersHandler/YarpImplementation.h Pages: 1 -->
<svg width="440pt" height="128pt"
 viewBox="0.00 0.00 440.00 128.00" xmlns="http://www.w3.org/2000/svg" xmlns:xlink="http://www.w3.org/1999/xlink">
<g id="graph0" class="graph" transform="scale(1 1) rotate(0) translate(4 124)">
<title>ParametersHandler/YarpImplementation/include/BipedalLocomotion/ParametersHandler/YarpImplementation.h</title>
<!-- Node26 -->
<g id="node1" class="node">
<title>Node26</title>
<polygon fill="#bfbfbf" stroke="#000000" points="0,-78.5 0,-119.5 223,-119.5 223,-78.5 0,-78.5"/>
<text text-anchor="start" x="8" y="-107.5" font-family="Helvetica,sans-Serif" font-size="10.00" fill="#000000">ParametersHandler/YarpImplementation</text>
<text text-anchor="start" x="8" y="-96.5" font-family="Helvetica,sans-Serif" font-size="10.00" fill="#000000">/include/BipedalLocomotion/ParametersHandler</text>
<text text-anchor="middle" x="111.5" y="-85.5" font-family="Helvetica,sans-Serif" font-size="10.00" fill="#000000">/YarpImplementation.h</text>
</g>
<!-- Node27 -->
<g id="node2" class="node">
<title>Node27</title>
<g id="a_node2"><a xlink:href="YarpImplementation_8tpp.html" target="_top" xlink:title="ParametersHandler/YarpImplementation\l/include/BipedalLocomotion/ParametersHandler\l/YarpImplementation.tpp">
<polygon fill="none" stroke="#000000" points="0,-.5 0,-41.5 223,-41.5 223,-.5 0,-.5"/>
<text text-anchor="start" x="8" y="-29.5" font-family="Helvetica,sans-Serif" font-size="10.00" fill="#000000">ParametersHandler/YarpImplementation</text>
<text text-anchor="start" x="8" y="-18.5" font-family="Helvetica,sans-Serif" font-size="10.00" fill="#000000">/include/BipedalLocomotion/ParametersHandler</text>
<text text-anchor="middle" x="111.5" y="-7.5" font-family="Helvetica,sans-Serif" font-size="10.00" fill="#000000">/YarpImplementation.tpp</text>
</a>
</g>
</g>
<!-- Node26&#45;&gt;Node27 -->
<g id="edge1" class="edge">
<title>Node26&#45;&gt;Node27</title>
<path fill="none" stroke="#191970" d="M104.8804,-68.0789C104.5906,-59.2178 104.7839,-49.7747 105.4602,-41.6898"/>
<polygon fill="#191970" stroke="#191970" points="101.3877,-68.3092 105.4426,-78.0974 108.3767,-67.917 101.3877,-68.3092"/>
</g>
<!-- Node28 -->
<g id="node3" class="node">
<title>Node28</title>
<g id="a_node3"><a xlink:href="YarpImplementation_8cpp.html" target="_top" xlink:title="ParametersHandler/YarpImplementation\l/src/YarpImplementation.cpp">
<polygon fill="none" stroke="#000000" points="241,-6 241,-36 432,-36 432,-6 241,-6"/>
<text text-anchor="start" x="249" y="-24" font-family="Helvetica,sans-Serif" font-size="10.00" fill="#000000">ParametersHandler/YarpImplementation</text>
<text text-anchor="middle" x="336.5" y="-13" font-family="Helvetica,sans-Serif" font-size="10.00" fill="#000000">/src/YarpImplementation.cpp</text>
</a>
</g>
</g>
<!-- Node26&#45;&gt;Node28 -->
<g id="edge3" class="edge">
<title>Node26&#45;&gt;Node28</title>
<path fill="none" stroke="#191970" d="M180.5648,-75.0575C217.2806,-62.3294 261.2883,-47.0734 293.1765,-36.0188"/>
<polygon fill="#191970" stroke="#191970" points="179.2124,-71.822 170.9104,-78.4044 181.5052,-78.4358 179.2124,-71.822"/>
</g>
<!-- Node27&#45;&gt;Node26 -->
<g id="edge2" class="edge">
<title>Node27&#45;&gt;Node26</title>
<path fill="none" stroke="#191970" d="M118.1119,-51.6884C118.4102,-60.5392 118.2253,-69.9888 117.5574,-78.0974"/>
<polygon fill="#191970" stroke="#191970" points="121.6054,-51.4735 117.5398,-41.6898 114.6168,-51.8734 121.6054,-51.4735"/>
</g>
</g>
</svg>
