<?xml version="1.0" encoding="UTF-8" standalone="no"?>
<!DOCTYPE svg PUBLIC "-//W3C//DTD SVG 1.1//EN"
 "http://www.w3.org/Graphics/SVG/1.1/DTD/svg11.dtd">
<!-- Generated by graphviz version 2.40.1 (20161225.0304)
 -->
<!-- Title: ParametersHandler/YarpImplementation/include/BipedalLocomotion/ParametersHandler/YarpImplementation.tpp Pages: 1 -->
<svg width="231pt" height="195pt"
 viewBox="0.00 0.00 231.00 195.00" xmlns="http://www.w3.org/2000/svg" xmlns:xlink="http://www.w3.org/1999/xlink">
<g id="graph0" class="graph" transform="scale(1 1) rotate(0) translate(4 191)">
<title>ParametersHandler/YarpImplementation/include/BipedalLocomotion/ParametersHandler/YarpImplementation.tpp</title>
<!-- Node26 -->
<g id="node1" class="node">
<title>Node26</title>
<polygon fill="#bfbfbf" stroke="#000000" points="0,-145.5 0,-186.5 223,-186.5 223,-145.5 0,-145.5"/>
<text text-anchor="start" x="8" y="-174.5" font-family="Helvetica,sans-Serif" font-size="10.00" fill="#000000">ParametersHandler/YarpImplementation</text>
<text text-anchor="start" x="8" y="-163.5" font-family="Helvetica,sans-Serif" font-size="10.00" fill="#000000">/include/BipedalLocomotion/ParametersHandler</text>
<text text-anchor="middle" x="111.5" y="-152.5" font-family="Helvetica,sans-Serif" font-size="10.00" fill="#000000">/YarpImplementation.tpp</text>
</g>
<!-- Node27 -->
<g id="node2" class="node">
<title>Node27</title>
<g id="a_node2"><a xlink:href="YarpImplementation_8h.html" target="_top" xlink:title="ParametersHandler/YarpImplementation\l/include/BipedalLocomotion/ParametersHandler\l/YarpImplementation.h">
<polygon fill="none" stroke="#000000" points="0,-67.5 0,-108.5 223,-108.5 223,-67.5 0,-67.5"/>
<text text-anchor="start" x="8" y="-96.5" font-family="Helvetica,sans-Serif" font-size="10.00" fill="#000000">ParametersHandler/YarpImplementation</text>
<text text-anchor="start" x="8" y="-85.5" font-family="Helvetica,sans-Serif" font-size="10.00" fill="#000000">/include/BipedalLocomotion/ParametersHandler</text>
<text text-anchor="middle" x="111.5" y="-74.5" font-family="Helvetica,sans-Serif" font-size="10.00" fill="#000000">/YarpImplementation.h</text>
</a>
</g>
</g>
<!-- Node26&#45;&gt;Node27 -->
<g id="edge1" class="edge">
<title>Node26&#45;&gt;Node27</title>
<path fill="none" stroke="#191970" d="M104.8804,-135.0789C104.5906,-126.2178 104.7839,-116.7747 105.4602,-108.6898"/>
<polygon fill="#191970" stroke="#191970" points="101.3877,-135.3092 105.4426,-145.0974 108.3767,-134.917 101.3877,-135.3092"/>
</g>
<!-- Node27&#45;&gt;Node26 -->
<g id="edge2" class="edge">
<title>Node27&#45;&gt;Node26</title>
<path fill="none" stroke="#191970" d="M118.1119,-118.6884C118.4102,-127.5392 118.2253,-136.9888 117.5574,-145.0974"/>
<polygon fill="#191970" stroke="#191970" points="121.6054,-118.4735 117.5398,-108.6898 114.6168,-118.8734 121.6054,-118.4735"/>
</g>
<!-- Node28 -->
<g id="node3" class="node">
<title>Node28</title>
<g id="a_node3"><a xlink:href="YarpImplementation_8cpp.html" target="_top" xlink:title="ParametersHandler/YarpImplementation\l/src/YarpImplementation.cpp">
<polygon fill="none" stroke="#000000" points="16,-.5 16,-30.5 207,-30.5 207,-.5 16,-.5"/>
<text text-anchor="start" x="24" y="-18.5" font-family="Helvetica,sans-Serif" font-size="10.00" fill="#000000">ParametersHandler/YarpImplementation</text>
<text text-anchor="middle" x="111.5" y="-7.5" font-family="Helvetica,sans-Serif" font-size="10.00" fill="#000000">/src/YarpImplementation.cpp</text>
</a>
</g>
</g>
<!-- Node27&#45;&gt;Node28 -->
<g id="edge3" class="edge">
<title>Node27&#45;&gt;Node28</title>
<path fill="none" stroke="#191970" d="M111.5,-57.3279C111.5,-48.0871 111.5,-38.3508 111.5,-30.5991"/>
<polygon fill="#191970" stroke="#191970" points="108.0001,-57.4183 111.5,-67.4183 115.0001,-57.4184 108.0001,-57.4183"/>
</g>
</g>
</svg>
