<?xml version="1.0" encoding="UTF-8" standalone="no"?>
<!DOCTYPE svg PUBLIC "-//W3C//DTD SVG 1.1//EN"
 "http://www.w3.org/Graphics/SVG/1.1/DTD/svg11.dtd">
<!-- Generated by graphviz version 2.40.1 (20161225.0304)
 -->
<!-- Title: ParametersHandler/YarpImplementation/include/BipedalLocomotion/ParametersHandler/YarpImplementation.h Pages: 1 -->
<svg width="1186pt" height="419pt"
 viewBox="0.00 0.00 1186.00 419.00" xmlns="http://www.w3.org/2000/svg" xmlns:xlink="http://www.w3.org/1999/xlink">
<g id="graph0" class="graph" transform="scale(1 1) rotate(0) translate(4 415)">
<title>ParametersHandler/YarpImplementation/include/BipedalLocomotion/ParametersHandler/YarpImplementation.h</title>
<!-- Node0 -->
<g id="node1" class="node">
<title>Node0</title>
<polygon fill="#bfbfbf" stroke="#000000" points="406.5,-369.5 406.5,-410.5 629.5,-410.5 629.5,-369.5 406.5,-369.5"/>
<text text-anchor="start" x="414.5" y="-398.5" font-family="Helvetica,sans-Serif" font-size="10.00" fill="#000000">ParametersHandler/YarpImplementation</text>
<text text-anchor="start" x="414.5" y="-387.5" font-family="Helvetica,sans-Serif" font-size="10.00" fill="#000000">/include/BipedalLocomotion/ParametersHandler</text>
<text text-anchor="middle" x="518" y="-376.5" font-family="Helvetica,sans-Serif" font-size="10.00" fill="#000000">/YarpImplementation.h</text>
</g>
<!-- Node1 -->
<g id="node2" class="node">
<title>Node1</title>
<polygon fill="none" stroke="#bfbfbf" points="0,-62 0,-81 52,-81 52,-62 0,-62"/>
<text text-anchor="middle" x="26" y="-69" font-family="Helvetica,sans-Serif" font-size="10.00" fill="#000000">memory</text>
</g>
<!-- Node0&#45;&gt;Node1 -->
<g id="edge1" class="edge">
<title>Node0&#45;&gt;Node1</title>
<path fill="none" stroke="#191970" d="M406.4399,-382.4807C264.3477,-369.7759 37,-337.5633 37,-261.5 37,-261.5 37,-261.5 37,-200 37,-161.3604 32.0014,-116.4227 28.7434,-91.2364"/>
<polygon fill="#191970" stroke="#191970" points="32.1889,-90.595 27.3932,-81.1477 25.2507,-91.5237 32.1889,-90.595"/>
</g>
<!-- Node2 -->
<g id="node3" class="node">
<title>Node2</title>
<polygon fill="none" stroke="#bfbfbf" points="267.5,-190.5 267.5,-209.5 308.5,-209.5 308.5,-190.5 267.5,-190.5"/>
<text text-anchor="middle" x="288" y="-197.5" font-family="Helvetica,sans-Serif" font-size="10.00" fill="#000000">string</text>
</g>
<!-- Node0&#45;&gt;Node2 -->
<g id="edge2" class="edge">
<title>Node0&#45;&gt;Node2</title>
<path fill="none" stroke="#191970" d="M487.0053,-369.4299C471.656,-358.9335 453.0267,-345.7224 437,-333 387.5304,-293.7298 333.022,-243.0069 305.692,-217.0121"/>
<polygon fill="#191970" stroke="#191970" points="307.7675,-214.1545 298.1185,-209.7787 302.9327,-219.2166 307.7675,-214.1545"/>
</g>
<!-- Node3 -->
<g id="node4" class="node">
<title>Node3</title>
<polygon fill="none" stroke="#bfbfbf" points="596.5,-313.5 596.5,-332.5 679.5,-332.5 679.5,-313.5 596.5,-313.5"/>
<text text-anchor="middle" x="638" y="-320.5" font-family="Helvetica,sans-Serif" font-size="10.00" fill="#000000">unordered_map</text>
</g>
<!-- Node0&#45;&gt;Node3 -->
<g id="edge3" class="edge">
<title>Node0&#45;&gt;Node3</title>
<path fill="none" stroke="#191970" d="M554.9831,-369.3511C573.2894,-359.1301 594.9649,-347.0279 611.5764,-337.7532"/>
<polygon fill="#191970" stroke="#191970" points="613.6831,-340.5856 620.7081,-332.6546 610.2706,-334.4737 613.6831,-340.5856"/>
</g>
<!-- Node4 -->
<g id="node5" class="node">
<title>Node4</title>
<polygon fill="none" stroke="#bfbfbf" points="698,-313.5 698,-332.5 784,-332.5 784,-313.5 698,-313.5"/>
<text text-anchor="middle" x="741" y="-320.5" font-family="Helvetica,sans-Serif" font-size="10.00" fill="#000000">yarp/os/Bottle.h</text>
</g>
<!-- Node0&#45;&gt;Node4 -->
<g id="edge4" class="edge">
<title>Node0&#45;&gt;Node4</title>
<path fill="none" stroke="#191970" d="M586.4228,-369.4425C623.3918,-358.3352 667.8266,-344.9848 699.5481,-335.4542"/>
<polygon fill="#191970" stroke="#191970" points="700.805,-338.7311 709.375,-332.5017 698.7908,-332.0272 700.805,-338.7311"/>
</g>
<!-- Node5 -->
<g id="node6" class="node">
<title>Node5</title>
<polygon fill="none" stroke="#bfbfbf" points="389.5,-190.5 389.5,-209.5 486.5,-209.5 486.5,-190.5 389.5,-190.5"/>
<text text-anchor="middle" x="438" y="-197.5" font-family="Helvetica,sans-Serif" font-size="10.00" fill="#000000">yarp/os/Property.h</text>
</g>
<!-- Node0&#45;&gt;Node5 -->
<g id="edge5" class="edge">
<title>Node0&#45;&gt;Node5</title>
<path fill="none" stroke="#191970" d="M482.5482,-369.2603C469.7673,-359.8797 456.6266,-347.5981 449,-333 430.0374,-296.7035 432.0159,-247.1272 435.0581,-219.9109"/>
<polygon fill="#191970" stroke="#191970" points="438.5645,-220.0845 436.369,-209.7196 431.6217,-219.1913 438.5645,-220.0845"/>
</g>
<!-- Node6 -->
<g id="node7" class="node">
<title>Node6</title>
<polygon fill="none" stroke="#bfbfbf" points="802.5,-313.5 802.5,-332.5 911.5,-332.5 911.5,-313.5 802.5,-313.5"/>
<text text-anchor="middle" x="857" y="-320.5" font-family="Helvetica,sans-Serif" font-size="10.00" fill="#000000">yarp/os/Searchable.h</text>
</g>
<!-- Node0&#45;&gt;Node6 -->
<g id="edge6" class="edge">
<title>Node0&#45;&gt;Node6</title>
<path fill="none" stroke="#191970" d="M622.015,-369.4425C680.1607,-357.9505 750.4556,-344.0574 798.925,-334.478"/>
<polygon fill="#191970" stroke="#191970" points="799.7927,-337.8742 808.9243,-332.5017 798.4354,-331.0071 799.7927,-337.8742"/>
</g>
<!-- Node7 -->
<g id="node8" class="node">
<title>Node7</title>
<g id="a_node8"><a xlink:href="IParametersHandler_8h.html" target="_top" xlink:title="BipedalLocomotion/Parameters\lHandler/IParametersHandler.h">
<polygon fill="none" stroke="#000000" points="170,-246.5 170,-276.5 322,-276.5 322,-246.5 170,-246.5"/>
<text text-anchor="start" x="178" y="-264.5" font-family="Helvetica,sans-Serif" font-size="10.00" fill="#000000">BipedalLocomotion/Parameters</text>
<text text-anchor="middle" x="246" y="-253.5" font-family="Helvetica,sans-Serif" font-size="10.00" fill="#000000">Handler/IParametersHandler.h</text>
</a>
</g>
</g>
<!-- Node0&#45;&gt;Node7 -->
<g id="edge7" class="edge">
<title>Node0&#45;&gt;Node7</title>
<path fill="none" stroke="#191970" d="M443.0361,-369.4266C413.3244,-360.0341 379.3234,-347.7 350,-333 322.0633,-318.9951 292.9745,-298.4022 272.6886,-282.9091"/>
<polygon fill="#191970" stroke="#191970" points="274.6119,-279.9716 264.5626,-276.6154 270.3255,-285.5059 274.6119,-279.9716"/>
</g>
<!-- Node18 -->
<g id="node19" class="node">
<title>Node18</title>
<g id="a_node19"><a xlink:href="YarpImplementation_8tpp.html" target="_top" xlink:title="YarpImplementation.tpp">
<polygon fill="none" stroke="#000000" points="458,-313.5 458,-332.5 578,-332.5 578,-313.5 458,-313.5"/>
<text text-anchor="middle" x="518" y="-320.5" font-family="Helvetica,sans-Serif" font-size="10.00" fill="#000000">YarpImplementation.tpp</text>
</a>
</g>
</g>
<!-- Node0&#45;&gt;Node18 -->
<g id="edge22" class="edge">
<title>Node0&#45;&gt;Node18</title>
<path fill="none" stroke="#191970" d="M511.6987,-369.168C511.0724,-360.7278 511.1018,-351.0293 511.7866,-342.7068"/>
<polygon fill="#191970" stroke="#191970" points="515.259,-343.1456 513.0646,-332.7805 508.3163,-342.2516 515.259,-343.1456"/>
</g>
<!-- Node7&#45;&gt;Node1 -->
<g id="edge8" class="edge">
<title>Node7&#45;&gt;Node1</title>
<path fill="none" stroke="#191970" d="M228.3684,-246.2727C187.5409,-211.0126 86.8007,-124.0097 44.829,-87.7614"/>
<polygon fill="#191970" stroke="#191970" points="46.8858,-84.9132 37.0299,-81.0258 42.3105,-90.2109 46.8858,-84.9132"/>
</g>
<!-- Node7&#45;&gt;Node2 -->
<g id="edge9" class="edge">
<title>Node7&#45;&gt;Node2</title>
<path fill="none" stroke="#191970" d="M256.382,-246.2977C262.1513,-237.8498 269.3716,-227.2773 275.4553,-218.369"/>
<polygon fill="#191970" stroke="#191970" points="278.5259,-220.0788 281.2753,-209.8469 272.7453,-216.1311 278.5259,-220.0788"/>
</g>
<!-- Node8 -->
<g id="node9" class="node">
<title>Node8</title>
<polygon fill="none" stroke="#bfbfbf" points="327,-190.5 327,-209.5 371,-209.5 371,-190.5 327,-190.5"/>
<text text-anchor="middle" x="349" y="-197.5" font-family="Helvetica,sans-Serif" font-size="10.00" fill="#000000">vector</text>
</g>
<!-- Node7&#45;&gt;Node8 -->
<g id="edge10" class="edge">
<title>Node7&#45;&gt;Node8</title>
<path fill="none" stroke="#191970" d="M271.1966,-246.4554C287.3272,-236.8241 308.1638,-224.3828 324.2136,-214.7996"/>
<polygon fill="#191970" stroke="#191970" points="326.247,-217.662 333.0387,-209.5303 322.6584,-211.6518 326.247,-217.662"/>
</g>
<!-- Node9 -->
<g id="node10" class="node">
<title>Node9</title>
<g id="a_node10"><a xlink:href="Vector_8h_source.html" target="_top" xlink:title="BipedalLocomotion/Generic\lContainer/Vector.h">
<polygon fill="none" stroke="#000000" points="133,-123.5 133,-153.5 269,-153.5 269,-123.5 133,-123.5"/>
<text text-anchor="start" x="141" y="-141.5" font-family="Helvetica,sans-Serif" font-size="10.00" fill="#000000">BipedalLocomotion/Generic</text>
<text text-anchor="middle" x="201" y="-130.5" font-family="Helvetica,sans-Serif" font-size="10.00" fill="#000000">Container/Vector.h</text>
</a>
</g>
</g>
<!-- Node7&#45;&gt;Node9 -->
<g id="edge11" class="edge">
<title>Node7&#45;&gt;Node9</title>
<path fill="none" stroke="#191970" d="M239.4961,-246.2758C235.2119,-236.0759 229.5708,-222.3106 225,-210 219.298,-194.6428 213.4372,-177.2192 208.9346,-163.4168"/>
<polygon fill="#191970" stroke="#191970" points="212.1876,-162.1007 205.7813,-153.6621 205.5269,-164.2539 212.1876,-162.1007"/>
</g>
<!-- Node11 -->
<g id="node12" class="node">
<title>Node11</title>
<g id="a_node12"><a xlink:href="TemplateHelpers_8h_source.html" target="_top" xlink:title="BipedalLocomotion/Generic\lContainer/TemplateHelpers.h">
<polygon fill="none" stroke="#000000" points="347,-56.5 347,-86.5 491,-86.5 491,-56.5 347,-56.5"/>
<text text-anchor="start" x="355" y="-74.5" font-family="Helvetica,sans-Serif" font-size="10.00" fill="#000000">BipedalLocomotion/Generic</text>
<text text-anchor="middle" x="419" y="-63.5" font-family="Helvetica,sans-Serif" font-size="10.00" fill="#000000">Container/TemplateHelpers.h</text>
</a>
</g>
</g>
<!-- Node7&#45;&gt;Node11 -->
<g id="edge21" class="edge">
<title>Node7&#45;&gt;Node11</title>
<path fill="none" stroke="#191970" d="M245.3459,-246.4006C245.3758,-231.0919 247.3856,-207.2625 258,-190 285.9867,-144.4845 338.5389,-110.8568 375.9887,-91.2798"/>
<polygon fill="#191970" stroke="#191970" points="377.8392,-94.2651 385.1603,-86.6066 374.6613,-88.028 377.8392,-94.2651"/>
</g>
<!-- Node9&#45;&gt;Node1 -->
<g id="edge20" class="edge">
<title>Node9&#45;&gt;Node1</title>
<path fill="none" stroke="#191970" d="M157.8347,-123.4325C130.0171,-113.5232 93.1668,-100.0233 61,-87 59.4331,-86.3656 57.832,-85.7042 56.219,-85.0275"/>
<polygon fill="#191970" stroke="#191970" points="57.5747,-81.8007 47.0055,-81.065 54.8091,-88.2312 57.5747,-81.8007"/>
</g>
<!-- Node10 -->
<g id="node11" class="node">
<title>Node10</title>
<polygon fill="none" stroke="#bfbfbf" points="70,-62 70,-81 184,-81 184,-62 70,-62"/>
<text text-anchor="middle" x="127" y="-69" font-family="Helvetica,sans-Serif" font-size="10.00" fill="#000000">iDynTree/Core/Span.h</text>
</g>
<!-- Node9&#45;&gt;Node10 -->
<g id="edge12" class="edge">
<title>Node9&#45;&gt;Node10</title>
<path fill="none" stroke="#191970" d="M184.2083,-123.2967C172.5668,-112.7564 157.0752,-98.7303 145.1491,-87.9323"/>
<polygon fill="#191970" stroke="#191970" points="147.3154,-85.1722 137.5533,-81.055 142.6171,-90.3613 147.3154,-85.1722"/>
</g>
<!-- Node9&#45;&gt;Node11 -->
<g id="edge13" class="edge">
<title>Node9&#45;&gt;Node11</title>
<path fill="none" stroke="#191970" d="M249.9235,-123.4639C282.4864,-113.456 325.4522,-100.2509 359.9219,-89.657"/>
<polygon fill="#191970" stroke="#191970" points="361.3327,-92.8851 369.8632,-86.6017 359.2762,-86.194 361.3327,-92.8851"/>
</g>
<!-- Node15 -->
<g id="node16" class="node">
<title>Node15</title>
<polygon fill="none" stroke="#bfbfbf" points="202.5,-62 202.5,-81 261.5,-81 261.5,-62 202.5,-62"/>
<text text-anchor="middle" x="232" y="-69" font-family="Helvetica,sans-Serif" font-size="10.00" fill="#000000">functional</text>
</g>
<!-- Node9&#45;&gt;Node15 -->
<g id="edge17" class="edge">
<title>Node9&#45;&gt;Node15</title>
<path fill="none" stroke="#191970" d="M208.0344,-123.2967C212.583,-113.4658 218.5346,-100.6026 223.3688,-90.1545"/>
<polygon fill="#191970" stroke="#191970" points="226.5563,-91.6003 227.579,-81.055 220.2033,-88.6609 226.5563,-91.6003"/>
</g>
<!-- Node16 -->
<g id="node17" class="node">
<title>Node16</title>
<polygon fill="none" stroke="#bfbfbf" points="279.5,-62 279.5,-81 328.5,-81 328.5,-62 279.5,-62"/>
<text text-anchor="middle" x="304" y="-69" font-family="Helvetica,sans-Serif" font-size="10.00" fill="#000000">cassert</text>
</g>
<!-- Node9&#45;&gt;Node16 -->
<g id="edge18" class="edge">
<title>Node9&#45;&gt;Node16</title>
<path fill="none" stroke="#191970" d="M224.1152,-123.4639C240.9302,-112.526 263.6163,-97.769 280.5162,-86.7759"/>
<polygon fill="#191970" stroke="#191970" points="282.7616,-89.4906 289.2358,-81.1039 278.9447,-83.6228 282.7616,-89.4906"/>
</g>
<!-- Node17 -->
<g id="node18" class="node">
<title>Node17</title>
<polygon fill="none" stroke="#bfbfbf" points="509,-62 509,-81 563,-81 563,-62 509,-62"/>
<text text-anchor="middle" x="536" y="-69" font-family="Helvetica,sans-Serif" font-size="10.00" fill="#000000">iostream</text>
</g>
<!-- Node9&#45;&gt;Node17 -->
<g id="edge19" class="edge">
<title>Node9&#45;&gt;Node17</title>
<path fill="none" stroke="#191970" d="M269.1379,-131.4092C330.4303,-123.9415 422.4884,-110.0095 500,-87 502.1731,-86.3549 504.3902,-85.6153 506.6031,-84.8165"/>
<polygon fill="#191970" stroke="#191970" points="508.1176,-87.9814 516.1281,-81.0472 505.5418,-81.4725 508.1176,-87.9814"/>
</g>
<!-- Node12 -->
<g id="node13" class="node">
<title>Node12</title>
<polygon fill="none" stroke="#bfbfbf" points="560,-.5 560,-19.5 622,-19.5 622,-.5 560,-.5"/>
<text text-anchor="middle" x="591" y="-7.5" font-family="Helvetica,sans-Serif" font-size="10.00" fill="#000000">type_traits</text>
</g>
<!-- Node11&#45;&gt;Node12 -->
<g id="edge14" class="edge">
<title>Node11&#45;&gt;Node12</title>
<path fill="none" stroke="#191970" d="M461.0759,-56.4554C489.7746,-46.194 527.3937,-32.7429 554.7623,-22.9571"/>
<polygon fill="#191970" stroke="#191970" points="556.1083,-26.1929 564.3461,-19.5303 553.7515,-19.6015 556.1083,-26.1929"/>
</g>
<!-- Node13 -->
<g id="node14" class="node">
<title>Node13</title>
<polygon fill="none" stroke="#bfbfbf" points="428,-.5 428,-19.5 494,-19.5 494,-.5 428,-.5"/>
<text text-anchor="middle" x="461" y="-7.5" font-family="Helvetica,sans-Serif" font-size="10.00" fill="#000000">string_view</text>
</g>
<!-- Node11&#45;&gt;Node13 -->
<g id="edge15" class="edge">
<title>Node11&#45;&gt;Node13</title>
<path fill="none" stroke="#191970" d="M429.382,-56.2977C435.1513,-47.8498 442.3716,-37.2773 448.4553,-28.369"/>
<polygon fill="#191970" stroke="#191970" points="451.5259,-30.0788 454.2753,-19.8469 445.7453,-26.1311 451.5259,-30.0788"/>
</g>
<!-- Node14 -->
<g id="node15" class="node">
<title>Node14</title>
<polygon fill="none" stroke="#bfbfbf" points="344.5,-.5 344.5,-19.5 409.5,-19.5 409.5,-.5 344.5,-.5"/>
<text text-anchor="middle" x="377" y="-7.5" font-family="Helvetica,sans-Serif" font-size="10.00" fill="#000000">Eigen/Core</text>
</g>
<!-- Node11&#45;&gt;Node14 -->
<g id="edge16" class="edge">
<title>Node11&#45;&gt;Node14</title>
<path fill="none" stroke="#191970" d="M408.618,-56.2977C402.8487,-47.8498 395.6284,-37.2773 389.5447,-28.369"/>
<polygon fill="#191970" stroke="#191970" points="392.2547,-26.1311 383.7247,-19.8469 386.4741,-30.0788 392.2547,-26.1311"/>
</g>
<!-- Node18&#45;&gt;Node0 -->
<g id="edge37" class="edge">
<title>Node18&#45;&gt;Node0</title>
<path fill="none" stroke="#191970" d="M522.9354,-332.7805C524.2655,-339.7625 524.8644,-349.5672 524.732,-359.0909"/>
<polygon fill="#191970" stroke="#191970" points="521.2316,-359.0277 524.3013,-369.168 528.2252,-359.3266 521.2316,-359.0277"/>
</g>
<!-- Node18&#45;&gt;Node12 -->
<g id="edge23" class="edge">
<title>Node18&#45;&gt;Node12</title>
<path fill="none" stroke="#191970" d="M578.2037,-313.477C727.0466,-289.7781 1104.2692,-228.7152 1159,-210 1168.0293,-206.9124 1178,-209.5426 1178,-200 1178,-200 1178,-200 1178,-138.5 1178,-82.5718 766.1108,-30.1754 632.384,-14.6379"/>
<polygon fill="#191970" stroke="#191970" points="632.4803,-11.1259 622.1452,-13.4573 631.6785,-18.0798 632.4803,-11.1259"/>
</g>
<!-- Node19 -->
<g id="node20" class="node">
<title>Node19</title>
<g id="a_node20"><a xlink:href="Helper_8h.html" target="_top" xlink:title="BipedalLocomotion/YarpUtilities\l/Helper.h">
<polygon fill="none" stroke="#000000" points="529.5,-246.5 529.5,-276.5 684.5,-276.5 684.5,-246.5 529.5,-246.5"/>
<text text-anchor="start" x="537.5" y="-264.5" font-family="Helvetica,sans-Serif" font-size="10.00" fill="#000000">BipedalLocomotion/YarpUtilities</text>
<text text-anchor="middle" x="607" y="-253.5" font-family="Helvetica,sans-Serif" font-size="10.00" fill="#000000">/Helper.h</text>
</a>
</g>
</g>
<!-- Node18&#45;&gt;Node19 -->
<g id="edge24" class="edge">
<title>Node18&#45;&gt;Node19</title>
<path fill="none" stroke="#191970" d="M531.9063,-313.3906C543.8398,-305.1444 561.4626,-292.9669 576.6377,-282.4807"/>
<polygon fill="#191970" stroke="#191970" points="578.9909,-285.1089 585.2282,-276.5446 575.0115,-279.3501 578.9909,-285.1089"/>
</g>
<!-- Node19&#45;&gt;Node5 -->
<g id="edge28" class="edge">
<title>Node19&#45;&gt;Node5</title>
<path fill="none" stroke="#191970" d="M565.6579,-246.4554C537.4599,-236.194 500.4969,-222.7429 473.6057,-212.9571"/>
<polygon fill="#191970" stroke="#191970" points="474.783,-209.6611 464.189,-209.5303 472.3892,-216.239 474.783,-209.6611"/>
</g>
<!-- Node19&#45;&gt;Node8 -->
<g id="edge26" class="edge">
<title>Node19&#45;&gt;Node8</title>
<path fill="none" stroke="#191970" d="M534.3769,-246.4749C489.8844,-236.8929 431.8978,-223.7291 381,-210 380.9017,-209.9735 380.8032,-209.9468 380.7045,-209.9201"/>
<polygon fill="#191970" stroke="#191970" points="381.8917,-206.6197 371.3138,-207.2195 379.9569,-213.3471 381.8917,-206.6197"/>
</g>
<!-- Node20 -->
<g id="node21" class="node">
<title>Node20</title>
<polygon fill="none" stroke="#bfbfbf" points="585.5,-190.5 585.5,-209.5 628.5,-209.5 628.5,-190.5 585.5,-190.5"/>
<text text-anchor="middle" x="607" y="-197.5" font-family="Helvetica,sans-Serif" font-size="10.00" fill="#000000">deque</text>
</g>
<!-- Node19&#45;&gt;Node20 -->
<g id="edge25" class="edge">
<title>Node19&#45;&gt;Node20</title>
<path fill="none" stroke="#191970" d="M607,-246.2977C607,-238.3834 607,-228.6043 607,-220.0759"/>
<polygon fill="#191970" stroke="#191970" points="610.5001,-219.8469 607,-209.8469 603.5001,-219.847 610.5001,-219.8469"/>
</g>
<!-- Node21 -->
<g id="node22" class="node">
<title>Node21</title>
<polygon fill="none" stroke="#bfbfbf" points="646.5,-190.5 646.5,-209.5 761.5,-209.5 761.5,-190.5 646.5,-190.5"/>
<text text-anchor="middle" x="704" y="-197.5" font-family="Helvetica,sans-Serif" font-size="10.00" fill="#000000">yarp/os/BufferedPort.h</text>
</g>
<!-- Node19&#45;&gt;Node21 -->
<g id="edge27" class="edge">
<title>Node19&#45;&gt;Node21</title>
<path fill="none" stroke="#191970" d="M630.9775,-246.2977C645.9376,-236.8127 665.122,-224.6495 680.0726,-215.1705"/>
<polygon fill="#191970" stroke="#191970" points="682.1873,-217.9739 688.7587,-209.6633 678.439,-212.062 682.1873,-217.9739"/>
</g>
<!-- Node22 -->
<g id="node23" class="node">
<title>Node22</title>
<polygon fill="none" stroke="#bfbfbf" points="779.5,-190.5 779.5,-209.5 864.5,-209.5 864.5,-190.5 779.5,-190.5"/>
<text text-anchor="middle" x="822" y="-197.5" font-family="Helvetica,sans-Serif" font-size="10.00" fill="#000000">yarp/os/Value.h</text>
</g>
<!-- Node19&#45;&gt;Node22 -->
<g id="edge29" class="edge">
<title>Node19&#45;&gt;Node22</title>
<path fill="none" stroke="#191970" d="M659.5949,-246.4554C696.2549,-235.9689 744.56,-222.1515 778.9348,-212.3187"/>
<polygon fill="#191970" stroke="#191970" points="780.0308,-215.6456 788.6826,-209.5303 778.1056,-208.9155 780.0308,-215.6456"/>
</g>
<!-- Node23 -->
<g id="node24" class="node">
<title>Node23</title>
<polygon fill="none" stroke="#bfbfbf" points="882.5,-190.5 882.5,-209.5 973.5,-209.5 973.5,-190.5 882.5,-190.5"/>
<text text-anchor="middle" x="928" y="-197.5" font-family="Helvetica,sans-Serif" font-size="10.00" fill="#000000">yarp/sig/Vector.h</text>
</g>
<!-- Node19&#45;&gt;Node23 -->
<g id="edge30" class="edge">
<title>Node19&#45;&gt;Node23</title>
<path fill="none" stroke="#191970" d="M684.7051,-246.6126C742.6311,-235.5146 820.3706,-220.6206 872.2254,-210.6858"/>
<polygon fill="#191970" stroke="#191970" points="873.0749,-214.0868 882.2377,-208.7675 871.7577,-207.2118 873.0749,-214.0868"/>
</g>
<!-- Node24 -->
<g id="node25" class="node">
<title>Node24</title>
<polygon fill="none" stroke="#bfbfbf" points="992,-190.5 992,-209.5 1150,-209.5 1150,-190.5 992,-190.5"/>
<text text-anchor="middle" x="1071" y="-197.5" font-family="Helvetica,sans-Serif" font-size="10.00" fill="#000000">iDynTree/Core/VectorDynSize.h</text>
</g>
<!-- Node19&#45;&gt;Node24 -->
<g id="edge31" class="edge">
<title>Node19&#45;&gt;Node24</title>
<path fill="none" stroke="#191970" d="M684.6632,-251.2063C769.0381,-240.023 903.2569,-222.2332 989.2146,-210.8401"/>
<polygon fill="#191970" stroke="#191970" points="989.7383,-214.3014 999.1917,-209.5177 988.8185,-207.3621 989.7383,-214.3014"/>
</g>
<!-- Node25 -->
<g id="node26" class="node">
<title>Node25</title>
<g id="a_node26"><a xlink:href="Helper_8tpp.html" target="_top" xlink:title="Helper.tpp">
<polygon fill="none" stroke="#000000" points="505,-190.5 505,-209.5 567,-209.5 567,-190.5 505,-190.5"/>
<text text-anchor="middle" x="536" y="-197.5" font-family="Helvetica,sans-Serif" font-size="10.00" fill="#000000">Helper.tpp</text>
</a>
</g>
</g>
<!-- Node19&#45;&gt;Node25 -->
<g id="edge32" class="edge">
<title>Node19&#45;&gt;Node25</title>
<path fill="none" stroke="#191970" d="M589.4494,-246.2977C578.9779,-237.2274 565.6789,-225.7077 554.9662,-216.4285"/>
<polygon fill="#191970" stroke="#191970" points="557.2182,-213.7487 547.368,-209.8469 552.6351,-219.0398 557.2182,-213.7487"/>
</g>
<!-- Node25&#45;&gt;Node9 -->
<g id="edge36" class="edge">
<title>Node25&#45;&gt;Node9</title>
<path fill="none" stroke="#191970" d="M504.6068,-191.9244C501.7033,-191.2462 498.801,-190.5938 496,-190 422.9212,-174.5073 338.9425,-160.1818 279.322,-150.594"/>
<polygon fill="#191970" stroke="#191970" points="279.6535,-147.1026 269.226,-148.9782 278.5472,-154.0146 279.6535,-147.1026"/>
</g>
<!-- Node25&#45;&gt;Node11 -->
<g id="edge35" class="edge">
<title>Node25&#45;&gt;Node11</title>
<path fill="none" stroke="#191970" d="M527.206,-190.3416C508.7468,-170.068 465.5331,-122.6069 439.6477,-94.1772"/>
<polygon fill="#191970" stroke="#191970" points="442.1616,-91.7395 432.8412,-86.7016 436.9857,-96.4522 442.1616,-91.7395"/>
</g>
<!-- Node25&#45;&gt;Node12 -->
<g id="edge34" class="edge">
<title>Node25&#45;&gt;Node12</title>
<path fill="none" stroke="#191970" d="M539.2997,-190.3914C545.9134,-170.9783 561.0909,-125.6392 572,-87 577.4791,-67.5935 582.9075,-45.1908 586.55,-29.5714"/>
<polygon fill="#191970" stroke="#191970" points="590.0274,-30.0672 588.8619,-19.5367 583.2061,-28.4956 590.0274,-30.0672"/>
</g>
<!-- Node25&#45;&gt;Node17 -->
<g id="edge33" class="edge">
<title>Node25&#45;&gt;Node17</title>
<path fill="none" stroke="#191970" d="M536,-190.3416C536,-169.4114 536,-119.504 536,-91.4762"/>
<polygon fill="#191970" stroke="#191970" points="539.5001,-91.2704 536,-81.2705 532.5001,-91.2705 539.5001,-91.2704"/>
</g>
</g>
</svg>
